M48
;Layer_Color=9474304
;FILE_FORMAT=2:4
INCH,LZ
;TYPE=PLATED
T1F00S00C0.0200
T2F00S00C0.0354
T3F00S00C0.0394
T4F00S00C0.0433
T5F00S00C0.0551
T6F00S00C0.1083
T7F00S00C0.1180
%
T01
X064067Y071321
X065445
X066823
X068201
X069579
X070957
X072335
X073713
X075213Y070278
X076413Y070878
X080012Y072699
Y076636
X094413Y075847
X095213Y072278
X094713Y078278
X095313Y081878
Y084778
X097713Y085278
X099713Y080278
X093413Y080478
X092013Y083578
X084713Y083778
Y084778
X082313
Y083778
X083713Y082278
X080012Y080573
Y08451
T02
X093795Y086569
Y087569
X094795
Y086569
X095795
Y087569
X096795
Y086569
X092795
X091795
X090795
X089795
X088795
X087795
X086795
X085795
X084795
X083795
X082795
X081795
X080795
X079795
X078795
Y087569
X079795
X080795
X081795
X082795
X083795
X084795
X085795
X086795
X087795
X088795
X089795
X090795
X091795
X092795
X077795
Y086569
T03
X099303Y069451
Y07201
T04
X082813Y070778
Y071778
X084013
Y070778
X086013
Y071778
X087213
Y070778
X086013Y074778
X084013
T05
X062325Y068565
X063703
X065081
X066459
X067837
X069215
X070593
X07197
X073348
X078447Y068565
X079825
X081203
X082581
X083959
X085337
X086715
X088093
X08947
T06
X062098Y072896
X075878Y067778
X098713
Y087069
X075878
T07
X094195Y068319
Y070819
X096195Y069569
M30
