%FSLAX25Y25*%
%MOIN*%
G70*
G01*
G75*
G04 Layer_Physical_Order=2*
G04 Layer_Color=16711680*
%ADD10R,0.05118X0.03937*%
%ADD11R,0.03937X0.05118*%
%ADD12R,0.04921X0.06299*%
%ADD13R,0.06299X0.04921*%
%ADD14R,0.04724X0.02559*%
%ADD15O,0.02362X0.09449*%
%ADD16R,0.02362X0.09449*%
%ADD17O,0.02362X0.08661*%
%ADD18R,0.02362X0.08661*%
%ADD19R,0.07284X0.04724*%
%ADD20O,0.15748X0.05906*%
%ADD21R,0.15748X0.05906*%
%ADD22O,0.15748X0.05906*%
%ADD23O,0.05906X0.15748*%
%ADD24R,0.05906X0.15748*%
%ADD25O,0.05906X0.15748*%
%ADD26C,0.01200*%
%ADD27C,0.03937*%
%ADD28C,0.01000*%
%ADD29C,0.02000*%
%ADD30C,0.03150*%
%ADD31C,0.00472*%
%ADD32C,0.27559*%
%ADD33C,0.05906*%
%ADD34R,0.05906X0.05906*%
G04:AMPARAMS|DCode=35|XSize=78.74mil|YSize=60mil|CornerRadius=0mil|HoleSize=0mil|Usage=FLASHONLY|Rotation=0.000|XOffset=0mil|YOffset=0mil|HoleType=Round|Shape=Octagon|*
%AMOCTAGOND35*
4,1,8,0.03937,-0.01500,0.03937,0.01500,0.02437,0.03000,-0.02437,0.03000,-0.03937,0.01500,-0.03937,-0.01500,-0.02437,-0.03000,0.02437,-0.03000,0.03937,-0.01500,0.0*
%
%ADD35OCTAGOND35*%

%ADD36C,0.05000*%
G36*
X18690Y309211D02*
X4444Y294964D01*
X3808Y294135D01*
X3525Y293453D01*
X3408Y293170D01*
X3271Y292134D01*
Y247676D01*
X2830Y247441D01*
X2602Y247593D01*
Y309673D01*
X18499D01*
X18690Y309211D01*
D02*
G37*
G36*
X289550Y309219D02*
X288355Y307819D01*
X287057Y305702D01*
X286107Y303407D01*
X285527Y300992D01*
X285332Y298516D01*
X285527Y296040D01*
X286107Y293624D01*
X287057Y291330D01*
X288355Y289212D01*
X289968Y287323D01*
X291857Y285710D01*
X293975Y284413D01*
X296269Y283462D01*
X298685Y282882D01*
X301161Y282687D01*
X303637Y282882D01*
X306052Y283462D01*
X308347Y284413D01*
X310464Y285710D01*
X311864Y286906D01*
X312318Y286696D01*
Y177122D01*
X249476D01*
X249255Y177571D01*
X249531Y177931D01*
X249984Y179025D01*
X250073Y179700D01*
X241127D01*
X241216Y179025D01*
X241669Y177931D01*
X241945Y177571D01*
X241724Y177122D01*
X225810D01*
X225619Y177584D01*
X253496Y205462D01*
X253500Y205461D01*
X254675Y205616D01*
X255769Y206069D01*
X256709Y206791D01*
X257431Y207731D01*
X257884Y208825D01*
X258039Y210000D01*
X257884Y211175D01*
X257431Y212269D01*
X256709Y213209D01*
X255769Y213931D01*
X254675Y214384D01*
X253500Y214539D01*
X252325Y214384D01*
X251231Y213931D01*
X250291Y213209D01*
X249569Y212269D01*
X249116Y211175D01*
X248961Y210000D01*
X249116Y208825D01*
X249212Y208594D01*
X220640Y180022D01*
X213993D01*
Y189453D01*
X211663D01*
Y191900D01*
X211663Y191900D01*
X211573Y192579D01*
X211311Y193211D01*
X210894Y193754D01*
X210894Y193754D01*
X203782Y200866D01*
X203879Y201600D01*
X203724Y202775D01*
X203271Y203869D01*
X202550Y204809D01*
X201610Y205531D01*
X200515Y205984D01*
X199340Y206139D01*
X198165Y205984D01*
X197071Y205531D01*
X196131Y204809D01*
X195409Y203869D01*
X194956Y202775D01*
X194801Y201600D01*
X194956Y200425D01*
X195409Y199331D01*
X196131Y198391D01*
X197071Y197669D01*
X198165Y197216D01*
X199340Y197061D01*
X200074Y197158D01*
X206418Y190814D01*
Y189453D01*
X204087D01*
Y186539D01*
X203597Y186441D01*
X203366Y186998D01*
X202572Y188032D01*
X201538Y188826D01*
X200333Y189325D01*
X199040Y189496D01*
X197747Y189325D01*
X197236Y189113D01*
X193063Y193286D01*
Y230340D01*
X193650Y230791D01*
X194371Y231731D01*
X194824Y232825D01*
X194979Y234000D01*
X194824Y235175D01*
X194371Y236269D01*
X193650Y237209D01*
X192710Y237931D01*
X191615Y238384D01*
X190440Y238539D01*
X189265Y238384D01*
X188171Y237931D01*
X187231Y237209D01*
X186509Y236269D01*
X186056Y235175D01*
X185901Y234000D01*
X186056Y232825D01*
X186509Y231731D01*
X187231Y230791D01*
X187818Y230340D01*
Y192200D01*
X187818Y192200D01*
X187907Y191521D01*
X188169Y190889D01*
X188586Y190346D01*
X188990Y189941D01*
X188830Y189468D01*
X187747Y189325D01*
X186542Y188826D01*
X185508Y188032D01*
X184714Y186998D01*
X184290Y185975D01*
X183790D01*
X183366Y186998D01*
X182572Y188032D01*
X181538Y188826D01*
X180333Y189325D01*
X179040Y189496D01*
X177747Y189325D01*
X176542Y188826D01*
X175508Y188032D01*
X174714Y186998D01*
X174290Y185975D01*
X173790D01*
X173366Y186998D01*
X172573Y188032D01*
X171538Y188826D01*
X170333Y189325D01*
X169040Y189496D01*
X167747Y189325D01*
X166542Y188826D01*
X165508Y188032D01*
X164714Y186998D01*
X164290Y185975D01*
X163790D01*
X163366Y186998D01*
X162573Y188032D01*
X161538Y188826D01*
X160333Y189325D01*
X159540Y189430D01*
Y184499D01*
Y179570D01*
X160333Y179675D01*
X161538Y180174D01*
X162573Y180968D01*
X163366Y182002D01*
X163790Y183025D01*
X164290D01*
X164714Y182002D01*
X165508Y180968D01*
X166542Y180174D01*
X167747Y179675D01*
X169040Y179505D01*
X170333Y179675D01*
X171538Y180174D01*
X172573Y180968D01*
X173366Y182002D01*
X173790Y183025D01*
X174290D01*
X174714Y182002D01*
X175508Y180968D01*
X176418Y180270D01*
Y179200D01*
X176418Y179200D01*
X176507Y178521D01*
X176769Y177889D01*
X177013Y177571D01*
X176792Y177122D01*
X25579D01*
X25369Y177576D01*
X26564Y178976D01*
X27862Y181094D01*
X28813Y183388D01*
X29392Y185803D01*
X29587Y188279D01*
X29392Y190756D01*
X28813Y193171D01*
X27862Y195465D01*
X26564Y197583D01*
X24951Y199472D01*
X23063Y201085D01*
X20945Y202383D01*
X18650Y203333D01*
X16235Y203913D01*
X13759Y204108D01*
X11283Y203913D01*
X8868Y203333D01*
X6573Y202383D01*
X4455Y201085D01*
X3056Y199890D01*
X2602Y200099D01*
Y238607D01*
X3018Y238885D01*
X3425Y238716D01*
X4600Y238561D01*
X5775Y238716D01*
X6869Y239169D01*
X7809Y239891D01*
X8531Y240831D01*
X8912Y241752D01*
X10104Y242944D01*
X10740Y243773D01*
X10975Y244338D01*
X11140Y244738D01*
X11277Y245774D01*
Y290476D01*
X24498Y303697D01*
X52059D01*
X52169Y303431D01*
X52891Y302491D01*
X53831Y301769D01*
X54925Y301316D01*
X56100Y301161D01*
X57275Y301316D01*
X58369Y301769D01*
X59309Y302491D01*
X60031Y303431D01*
X60141Y303697D01*
X81027D01*
X81469Y302631D01*
X82191Y301691D01*
X83131Y300969D01*
X84225Y300516D01*
X85400Y300361D01*
X86575Y300516D01*
X87669Y300969D01*
X88609Y301691D01*
X89331Y302631D01*
X89773Y303697D01*
X95800D01*
X95897Y303207D01*
X95231Y302931D01*
X94291Y302209D01*
X93569Y301269D01*
X93116Y300175D01*
X93027Y299500D01*
X101973D01*
X101884Y300175D01*
X101431Y301269D01*
X100709Y302209D01*
X99769Y302931D01*
X99103Y303207D01*
X99200Y303697D01*
X136300D01*
X136397Y303207D01*
X135731Y302931D01*
X134791Y302209D01*
X134069Y301269D01*
X133616Y300175D01*
X133527Y299500D01*
X142473D01*
X142384Y300175D01*
X141931Y301269D01*
X141209Y302209D01*
X140269Y302931D01*
X139603Y303207D01*
X139700Y303697D01*
X150595D01*
X151291Y302791D01*
X152231Y302069D01*
X153325Y301616D01*
X154500Y301461D01*
X155675Y301616D01*
X156769Y302069D01*
X157709Y302791D01*
X158405Y303697D01*
X212476D01*
X212669Y303231D01*
X213391Y302291D01*
X214331Y301569D01*
X215425Y301116D01*
X216600Y300961D01*
X217775Y301116D01*
X218869Y301569D01*
X219809Y302291D01*
X220531Y303231D01*
X220984Y304325D01*
X221139Y305500D01*
X220984Y306675D01*
X220531Y307769D01*
X219809Y308709D01*
X218869Y309431D01*
X218918Y309673D01*
X289341D01*
X289550Y309219D01*
D02*
G37*
%LPC*%
G36*
X132500Y238373D02*
Y234400D01*
X136473D01*
X136384Y235075D01*
X135931Y236169D01*
X135209Y237109D01*
X134269Y237831D01*
X133175Y238284D01*
X132500Y238373D01*
D02*
G37*
G36*
X117500Y239473D02*
X116825Y239384D01*
X115731Y238931D01*
X114791Y238209D01*
X114069Y237269D01*
X113616Y236175D01*
X113527Y235500D01*
X117500D01*
Y239473D01*
D02*
G37*
G36*
X131500Y238373D02*
X130825Y238284D01*
X129731Y237831D01*
X128791Y237109D01*
X128069Y236169D01*
X127616Y235075D01*
X127527Y234400D01*
X131500D01*
Y238373D01*
D02*
G37*
G36*
X117500Y234500D02*
X113527D01*
X113616Y233825D01*
X114069Y232731D01*
X114791Y231791D01*
X115731Y231069D01*
X116825Y230616D01*
X117500Y230527D01*
Y234500D01*
D02*
G37*
G36*
X122473D02*
X118500D01*
Y230527D01*
X119175Y230616D01*
X120269Y231069D01*
X121209Y231791D01*
X121931Y232731D01*
X122384Y233825D01*
X122473Y234500D01*
D02*
G37*
G36*
X230900Y246073D02*
X230225Y245984D01*
X229131Y245531D01*
X228191Y244809D01*
X227469Y243869D01*
X227016Y242775D01*
X226927Y242100D01*
X230900D01*
Y246073D01*
D02*
G37*
G36*
X231900D02*
Y242100D01*
X235873D01*
X235784Y242775D01*
X235331Y243869D01*
X234609Y244809D01*
X233669Y245531D01*
X232575Y245984D01*
X231900Y246073D01*
D02*
G37*
G36*
X235873Y241100D02*
X231900D01*
Y237127D01*
X232575Y237216D01*
X233669Y237669D01*
X234609Y238391D01*
X235331Y239331D01*
X235784Y240425D01*
X235873Y241100D01*
D02*
G37*
G36*
X118500Y239473D02*
Y235500D01*
X122473D01*
X122384Y236175D01*
X121931Y237269D01*
X121209Y238209D01*
X120269Y238931D01*
X119175Y239384D01*
X118500Y239473D01*
D02*
G37*
G36*
X230900Y241100D02*
X226927D01*
X227016Y240425D01*
X227469Y239331D01*
X228191Y238391D01*
X229131Y237669D01*
X230225Y237216D01*
X230900Y237127D01*
Y241100D01*
D02*
G37*
G36*
X158540Y189430D02*
X157747Y189325D01*
X156542Y188826D01*
X155508Y188032D01*
X154714Y186998D01*
X154215Y185793D01*
X154111Y185000D01*
X158540D01*
Y189430D01*
D02*
G37*
G36*
X104970Y226239D02*
X103795Y226084D01*
X102700Y225631D01*
X101760Y224909D01*
X101039Y223969D01*
X100586Y222875D01*
X100431Y221700D01*
X100586Y220525D01*
X101039Y219431D01*
X101760Y218491D01*
X102700Y217769D01*
X103795Y217316D01*
X104970Y217161D01*
X106145Y217316D01*
X107239Y217769D01*
X108179Y218491D01*
X108686Y219151D01*
X112884D01*
X126910Y205125D01*
X126801Y204300D01*
X126956Y203125D01*
X127409Y202031D01*
X128131Y201091D01*
X129071Y200369D01*
X130165Y199916D01*
X131340Y199761D01*
X132515Y199916D01*
X133610Y200369D01*
X134550Y201091D01*
X135271Y202031D01*
X135724Y203125D01*
X135751Y203325D01*
X135873Y203621D01*
X135963Y204300D01*
X135873Y204979D01*
X135751Y205275D01*
X135724Y205475D01*
X135271Y206569D01*
X134550Y207509D01*
X133610Y208231D01*
X132515Y208684D01*
X131340Y208839D01*
X130515Y208730D01*
X115743Y223502D01*
X114916Y224055D01*
X113940Y224249D01*
X108686D01*
X108179Y224909D01*
X107239Y225631D01*
X106145Y226084D01*
X104970Y226239D01*
D02*
G37*
G36*
X246100Y184673D02*
Y180700D01*
X250073D01*
X249984Y181375D01*
X249531Y182469D01*
X248809Y183409D01*
X247869Y184131D01*
X246775Y184584D01*
X246100Y184673D01*
D02*
G37*
G36*
X158540Y184000D02*
X154111D01*
X154215Y183207D01*
X154714Y182002D01*
X155508Y180968D01*
X156542Y180174D01*
X157747Y179675D01*
X158540Y179570D01*
Y184000D01*
D02*
G37*
G36*
X245100Y184673D02*
X244425Y184584D01*
X243331Y184131D01*
X242391Y183409D01*
X241669Y182469D01*
X241216Y181375D01*
X241127Y180700D01*
X245100D01*
Y184673D01*
D02*
G37*
G36*
X51210Y220163D02*
X47237D01*
Y216190D01*
X47912Y216279D01*
X49006Y216732D01*
X49946Y217454D01*
X50668Y218394D01*
X51121Y219488D01*
X51210Y220163D01*
D02*
G37*
G36*
X131500Y233400D02*
X127527D01*
X127616Y232725D01*
X128069Y231631D01*
X128791Y230691D01*
X129731Y229969D01*
X130825Y229516D01*
X131500Y229427D01*
Y233400D01*
D02*
G37*
G36*
X136473D02*
X132500D01*
Y229427D01*
X133175Y229516D01*
X134269Y229969D01*
X135209Y230691D01*
X135931Y231631D01*
X136384Y232725D01*
X136473Y233400D01*
D02*
G37*
G36*
X47237Y225136D02*
Y221163D01*
X51210D01*
X51121Y221838D01*
X50668Y222932D01*
X49946Y223872D01*
X49006Y224594D01*
X47912Y225047D01*
X47237Y225136D01*
D02*
G37*
G36*
X27140Y292939D02*
X25965Y292784D01*
X24871Y292331D01*
X23931Y291609D01*
X23209Y290669D01*
X22756Y289575D01*
X22601Y288400D01*
X22756Y287225D01*
X23137Y286304D01*
Y265200D01*
Y230658D01*
X19782Y227303D01*
X19196D01*
X18275Y227684D01*
X17100Y227839D01*
X15925Y227684D01*
X14831Y227231D01*
X13891Y226509D01*
X13169Y225569D01*
X12716Y224475D01*
X12561Y223300D01*
X12716Y222125D01*
X13169Y221031D01*
X13891Y220091D01*
X14831Y219369D01*
X15925Y218916D01*
X17100Y218761D01*
X18275Y218916D01*
X19196Y219297D01*
X21440D01*
X22476Y219434D01*
X22759Y219551D01*
X23441Y219833D01*
X24271Y220470D01*
X27140Y223339D01*
X50010Y200470D01*
X50839Y199834D01*
X51521Y199551D01*
X51804Y199434D01*
X52840Y199297D01*
X68845D01*
X69765Y198916D01*
X70940Y198761D01*
X72115Y198916D01*
X73210Y199369D01*
X74150Y200091D01*
X74871Y201031D01*
X75324Y202125D01*
X75479Y203300D01*
X75324Y204475D01*
X74871Y205569D01*
X74150Y206509D01*
X73210Y207231D01*
X72115Y207684D01*
X70940Y207839D01*
X69765Y207684D01*
X68845Y207303D01*
X54498D01*
X46066Y215735D01*
X46287Y216183D01*
X46237Y216190D01*
Y220163D01*
X42264D01*
X42257Y220213D01*
X41809Y219992D01*
X31143Y230658D01*
Y265200D01*
Y284397D01*
X45042D01*
X47970Y281470D01*
X48799Y280834D01*
X49364Y280599D01*
X49764Y280434D01*
X50800Y280297D01*
X102418D01*
Y268960D01*
X101831Y268509D01*
X101109Y267569D01*
X100656Y266475D01*
X100501Y265300D01*
X100656Y264125D01*
X101109Y263031D01*
X101831Y262091D01*
X102771Y261369D01*
X103865Y260916D01*
X105040Y260761D01*
X106215Y260916D01*
X107310Y261369D01*
X108250Y262091D01*
X108971Y263031D01*
X109424Y264125D01*
X109579Y265300D01*
X109424Y266475D01*
X108971Y267569D01*
X108250Y268509D01*
X107663Y268960D01*
Y280297D01*
X263042D01*
X291097Y252242D01*
Y219658D01*
X288075Y216636D01*
X287475Y216884D01*
X286300Y217039D01*
X285125Y216884D01*
X284031Y216431D01*
X283091Y215709D01*
X282369Y214769D01*
X281916Y213675D01*
X281761Y212500D01*
X281916Y211325D01*
X282369Y210231D01*
X283091Y209291D01*
X284031Y208569D01*
X285125Y208116D01*
X286300Y207961D01*
X287475Y208116D01*
X288396Y208497D01*
X289600D01*
X290636Y208634D01*
X290919Y208751D01*
X291601Y209033D01*
X292430Y209670D01*
X297930Y215170D01*
X298567Y215999D01*
X298966Y216964D01*
X299103Y218000D01*
Y253900D01*
X298966Y254936D01*
X298849Y255219D01*
X298567Y255901D01*
X297930Y256730D01*
X267530Y287130D01*
X266701Y287767D01*
X266019Y288049D01*
X265736Y288166D01*
X264700Y288303D01*
X52458D01*
X49530Y291230D01*
X48701Y291866D01*
X48019Y292149D01*
X47736Y292266D01*
X46700Y292403D01*
X29236D01*
X28315Y292784D01*
X27140Y292939D01*
D02*
G37*
G36*
X46237Y225136D02*
X45562Y225047D01*
X44468Y224594D01*
X43528Y223872D01*
X42806Y222932D01*
X42353Y221838D01*
X42264Y221163D01*
X46237D01*
Y225136D01*
D02*
G37*
G36*
X140057Y259823D02*
X136120Y259775D01*
X134842Y259633D01*
X133616Y259245D01*
X132490Y258625D01*
X131506Y257797D01*
X130702Y256793D01*
X130110Y255652D01*
X129752Y254417D01*
X129641Y253136D01*
X129783Y251858D01*
X130171Y250632D01*
X130791Y249506D01*
X131619Y248522D01*
X132623Y247718D01*
X133764Y247126D01*
X134999Y246768D01*
X136280Y246657D01*
X140217Y246706D01*
X141495Y246847D01*
X142721Y247235D01*
X143847Y247855D01*
X144831Y248683D01*
X145635Y249687D01*
X146227Y250828D01*
X146585Y252063D01*
X146695Y253344D01*
X146554Y254622D01*
X146166Y255848D01*
X145546Y256975D01*
X144718Y257959D01*
X143714Y258762D01*
X142573Y259354D01*
X141338Y259713D01*
X140057Y259823D01*
D02*
G37*
G36*
X285273Y286800D02*
X281300D01*
Y282827D01*
X281975Y282916D01*
X283069Y283369D01*
X284009Y284091D01*
X284731Y285031D01*
X285184Y286125D01*
X285273Y286800D01*
D02*
G37*
G36*
X280300Y291773D02*
X279625Y291684D01*
X278531Y291231D01*
X277591Y290509D01*
X276869Y289569D01*
X276416Y288475D01*
X276327Y287800D01*
X280300D01*
Y291773D01*
D02*
G37*
G36*
Y286800D02*
X276327D01*
X276416Y286125D01*
X276869Y285031D01*
X277591Y284091D01*
X278531Y283369D01*
X279625Y282916D01*
X280300Y282827D01*
Y286800D01*
D02*
G37*
G36*
X93500Y273473D02*
X92825Y273384D01*
X91731Y272931D01*
X90791Y272209D01*
X90069Y271269D01*
X89616Y270175D01*
X89527Y269500D01*
X93500D01*
Y273473D01*
D02*
G37*
G36*
X94500D02*
Y269500D01*
X98473D01*
X98384Y270175D01*
X97931Y271269D01*
X97209Y272209D01*
X96269Y272931D01*
X95175Y273384D01*
X94500Y273473D01*
D02*
G37*
G36*
X137500Y298500D02*
X133527D01*
X133616Y297825D01*
X134069Y296731D01*
X134791Y295791D01*
X135731Y295069D01*
X136825Y294616D01*
X137500Y294527D01*
Y298500D01*
D02*
G37*
G36*
X142473D02*
X138500D01*
Y294527D01*
X139175Y294616D01*
X140269Y295069D01*
X141209Y295791D01*
X141931Y296731D01*
X142384Y297825D01*
X142473Y298500D01*
D02*
G37*
G36*
X101973D02*
X98000D01*
Y294527D01*
X98675Y294616D01*
X99769Y295069D01*
X100709Y295791D01*
X101431Y296731D01*
X101884Y297825D01*
X101973Y298500D01*
D02*
G37*
G36*
X281300Y291773D02*
Y287800D01*
X285273D01*
X285184Y288475D01*
X284731Y289569D01*
X284009Y290509D01*
X283069Y291231D01*
X281975Y291684D01*
X281300Y291773D01*
D02*
G37*
G36*
X97000Y298500D02*
X93027D01*
X93116Y297825D01*
X93569Y296731D01*
X94291Y295791D01*
X95231Y295069D01*
X96325Y294616D01*
X97000Y294527D01*
Y298500D01*
D02*
G37*
G36*
X197400Y272173D02*
Y268200D01*
X201373D01*
X201284Y268875D01*
X200831Y269969D01*
X200109Y270909D01*
X199169Y271631D01*
X198075Y272084D01*
X197400Y272173D01*
D02*
G37*
G36*
X248500Y273949D02*
X247325Y273794D01*
X246231Y273341D01*
X245291Y272620D01*
X244569Y271680D01*
X244116Y270585D01*
X243961Y269410D01*
X244058Y268677D01*
X239003Y263622D01*
X199756D01*
X199595Y264096D01*
X200109Y264491D01*
X200831Y265431D01*
X201284Y266525D01*
X201373Y267200D01*
X192427D01*
X192516Y266525D01*
X192969Y265431D01*
X193691Y264491D01*
X194205Y264096D01*
X194044Y263622D01*
X167940D01*
X167940Y263622D01*
X167261Y263533D01*
X166629Y263271D01*
X166086Y262854D01*
X166086Y262854D01*
X161586Y258354D01*
X161169Y257811D01*
X160907Y257179D01*
X160818Y256500D01*
X160818Y256500D01*
Y226002D01*
X160409Y225469D01*
X159956Y224375D01*
X159801Y223200D01*
X159956Y222025D01*
X160409Y220931D01*
X161131Y219991D01*
X162071Y219269D01*
X163165Y218816D01*
X164340Y218661D01*
X165515Y218816D01*
X166610Y219269D01*
X167550Y219991D01*
X168271Y220931D01*
X168724Y222025D01*
X168737Y222125D01*
X169237D01*
X169356Y221225D01*
X169809Y220131D01*
X170531Y219191D01*
X171471Y218469D01*
X172565Y218016D01*
X173740Y217861D01*
X174915Y218016D01*
X176010Y218469D01*
X176950Y219191D01*
X177671Y220131D01*
X178124Y221225D01*
X178279Y222400D01*
X178124Y223575D01*
X177671Y224669D01*
X176950Y225609D01*
X176363Y226060D01*
Y234414D01*
X184526Y242578D01*
X220439D01*
X220439Y242578D01*
X221117Y242667D01*
X221750Y242929D01*
X222293Y243346D01*
X227725Y248778D01*
X231880D01*
X232331Y248191D01*
X233271Y247469D01*
X234365Y247016D01*
X235540Y246861D01*
X236715Y247016D01*
X237810Y247469D01*
X238750Y248191D01*
X239471Y249131D01*
X239924Y250225D01*
X240079Y251400D01*
X239924Y252575D01*
X239471Y253669D01*
X238750Y254609D01*
X237810Y255331D01*
X236715Y255784D01*
X235540Y255939D01*
X234365Y255784D01*
X233271Y255331D01*
X232331Y254609D01*
X231880Y254022D01*
X226639D01*
X225960Y253933D01*
X225781Y253859D01*
X225350Y254113D01*
X225294Y254622D01*
X224906Y255848D01*
X224286Y256975D01*
X223458Y257959D01*
X223605Y258378D01*
X240090D01*
X240090Y258378D01*
X240769Y258467D01*
X241401Y258729D01*
X241944Y259146D01*
X247766Y264968D01*
X248500Y264871D01*
X249675Y265026D01*
X250769Y265479D01*
X251709Y266201D01*
X252431Y267141D01*
X252884Y268235D01*
X253039Y269410D01*
X252884Y270585D01*
X252431Y271680D01*
X251709Y272620D01*
X250769Y273341D01*
X249675Y273794D01*
X248500Y273949D01*
D02*
G37*
G36*
X43500Y268473D02*
X42825Y268384D01*
X41731Y267931D01*
X40791Y267209D01*
X40069Y266269D01*
X39616Y265175D01*
X39527Y264500D01*
X43500D01*
Y268473D01*
D02*
G37*
G36*
X48473Y263500D02*
X44500D01*
Y259527D01*
X45175Y259616D01*
X46269Y260069D01*
X47209Y260791D01*
X47931Y261731D01*
X48384Y262825D01*
X48473Y263500D01*
D02*
G37*
G36*
X258167Y259823D02*
X254230Y259775D01*
X252952Y259633D01*
X251727Y259245D01*
X250600Y258625D01*
X249616Y257797D01*
X248813Y256793D01*
X248220Y255652D01*
X247862Y254417D01*
X247752Y253136D01*
X247893Y251858D01*
X248282Y250632D01*
X248902Y249506D01*
X249729Y248522D01*
X250733Y247718D01*
X251874Y247126D01*
X253110Y246768D01*
X254391Y246657D01*
X258327Y246706D01*
X259605Y246847D01*
X260831Y247235D01*
X261958Y247855D01*
X262941Y248683D01*
X263745Y249687D01*
X264337Y250828D01*
X264695Y252063D01*
X264806Y253344D01*
X264664Y254622D01*
X264276Y255848D01*
X263656Y256975D01*
X262828Y257959D01*
X261824Y258762D01*
X260683Y259354D01*
X259448Y259713D01*
X258167Y259823D01*
D02*
G37*
G36*
X43500Y263500D02*
X39527D01*
X39616Y262825D01*
X40069Y261731D01*
X40791Y260791D01*
X41731Y260069D01*
X42825Y259616D01*
X43500Y259527D01*
Y263500D01*
D02*
G37*
G36*
X98473Y268500D02*
X94500D01*
Y264527D01*
X95175Y264616D01*
X96269Y265069D01*
X97209Y265791D01*
X97931Y266731D01*
X98384Y267825D01*
X98473Y268500D01*
D02*
G37*
G36*
X196400Y272173D02*
X195725Y272084D01*
X194631Y271631D01*
X193691Y270909D01*
X192969Y269969D01*
X192516Y268875D01*
X192427Y268200D01*
X196400D01*
Y272173D01*
D02*
G37*
G36*
X44500Y268473D02*
Y264500D01*
X48473D01*
X48384Y265175D01*
X47931Y266269D01*
X47209Y267209D01*
X46269Y267931D01*
X45175Y268384D01*
X44500Y268473D01*
D02*
G37*
G36*
X93500Y268500D02*
X89527D01*
X89616Y267825D01*
X90069Y266731D01*
X90791Y265791D01*
X91731Y265069D01*
X92825Y264616D01*
X93500Y264527D01*
Y268500D01*
D02*
G37*
%LPD*%
G36*
X210378Y257908D02*
X210246Y257797D01*
X209442Y256793D01*
X208850Y255652D01*
X208492Y254417D01*
X208382Y253136D01*
X208523Y251858D01*
X208912Y250632D01*
X209531Y249506D01*
X210359Y248522D01*
X210644Y248294D01*
X210478Y247822D01*
X183908D01*
X183737Y248292D01*
X184201Y248683D01*
X185005Y249687D01*
X185597Y250828D01*
X185955Y252063D01*
X186066Y253344D01*
X185924Y254622D01*
X185536Y255848D01*
X184916Y256975D01*
X184088Y257959D01*
X184235Y258378D01*
X210206D01*
X210378Y257908D01*
D02*
G37*
G36*
X171008D02*
X170876Y257797D01*
X170072Y256793D01*
X169480Y255652D01*
X169122Y254417D01*
X169012Y253136D01*
X169153Y251858D01*
X169542Y250632D01*
X170161Y249506D01*
X170989Y248522D01*
X171993Y247718D01*
X173134Y247126D01*
X174369Y246768D01*
X175650Y246657D01*
X179587Y246706D01*
X180692Y246828D01*
X180909Y246377D01*
X171886Y237354D01*
X171469Y236811D01*
X171207Y236179D01*
X171118Y235500D01*
X171118Y235500D01*
Y226060D01*
X170531Y225609D01*
X169809Y224669D01*
X169356Y223575D01*
X169343Y223475D01*
X168843D01*
X168724Y224375D01*
X168271Y225469D01*
X167550Y226409D01*
X166610Y227131D01*
X166063Y227357D01*
Y255414D01*
X169026Y258378D01*
X170836D01*
X171008Y257908D01*
D02*
G37*
D26*
X130440Y235160D02*
X159040Y206560D01*
X117840Y235160D02*
X130440D01*
X57000Y269000D02*
X94000D01*
X52000Y264000D02*
X57000Y269000D01*
X44000Y264000D02*
X52000D01*
X117840Y235160D02*
Y257440D01*
X44000Y264000D02*
X46737Y261263D01*
Y220663D02*
Y261263D01*
X105040Y265300D02*
Y284300D01*
X163440Y256500D02*
X167940Y261000D01*
X240090D02*
X248500Y269410D01*
X167940Y261000D02*
X240090D01*
X221726Y177400D02*
X253913Y209587D01*
X180840Y177400D02*
X221726D01*
X163440Y222900D02*
Y256500D01*
X173740Y222400D02*
Y235500D01*
X179040Y179200D02*
X180840Y177400D01*
X173740Y222300D02*
Y222400D01*
X226639Y251400D02*
X235540D01*
X131340Y204300D02*
X133340D01*
X190440Y192200D02*
X199040Y183600D01*
X179040Y179200D02*
Y184500D01*
X190440Y192200D02*
Y234000D01*
X27140Y265200D02*
X27240Y265300D01*
X209040Y184500D02*
Y191900D01*
X199340Y201600D02*
X209040Y191900D01*
X280800Y287300D02*
X285700D01*
X304400Y268600D01*
Y210800D02*
Y268600D01*
X283150Y189550D02*
X304400Y210800D01*
X159040Y184500D02*
Y206560D01*
X173740Y235500D02*
X183440Y245200D01*
X220439D01*
X226639Y251400D01*
X128100Y267700D02*
X196900D01*
X117840Y257440D02*
X128100Y267700D01*
X245600Y180200D02*
X273700D01*
X283000Y189500D01*
X196900Y267700D02*
X206900Y277700D01*
X255500D01*
X273100Y260100D01*
Y214100D02*
Y260100D01*
X231400Y241600D02*
X266000Y207000D01*
X273100Y214100D01*
X97500Y299000D02*
X138000D01*
D27*
X105040Y284300D02*
X264700D01*
X50800D02*
X105040D01*
X22840Y307700D02*
X214400D01*
X7274Y292134D02*
X22840Y307700D01*
X7274Y245774D02*
Y292134D01*
X17100Y223300D02*
X21440D01*
X27140Y229000D01*
X4600Y243100D02*
X7274Y245774D01*
X52840Y203300D02*
X70940D01*
X27140Y229000D02*
X52840Y203300D01*
X27140Y229000D02*
Y265200D01*
Y288400D01*
X46700D01*
X289600Y212500D02*
X295100Y218000D01*
X286300Y212500D02*
X289600D01*
X46700Y288400D02*
X50800Y284300D01*
X264700D02*
X295100Y253900D01*
Y218000D02*
Y253900D01*
X214400Y307700D02*
X216600Y305500D01*
D28*
X113940Y221700D02*
X131340Y204300D01*
X104970Y221700D02*
X113940D01*
D32*
X301161Y298516D02*
D03*
X13759Y188279D02*
D03*
D33*
X159040Y184500D02*
D03*
X169040D02*
D03*
X179040D02*
D03*
X189040D02*
D03*
X199040D02*
D03*
D34*
X209040D02*
D03*
D35*
X256279Y253240D02*
D03*
X216909D02*
D03*
X177539D02*
D03*
X138169D02*
D03*
D36*
X94000Y269000D02*
D03*
X118000Y235000D02*
D03*
X44000Y264000D02*
D03*
X46737Y220663D02*
D03*
X248500Y269410D02*
D03*
X70940Y203300D02*
D03*
X199340Y201600D02*
D03*
X164340Y223200D02*
D03*
X173740Y222400D02*
D03*
X235540Y251400D02*
D03*
X131340Y204300D02*
D03*
X105040Y265300D02*
D03*
X190440Y234000D02*
D03*
X27140Y288400D02*
D03*
X4600Y243100D02*
D03*
X17100Y223300D02*
D03*
X104970Y221700D02*
D03*
X56100Y305700D02*
D03*
X85400Y304900D02*
D03*
X216600Y305500D02*
D03*
X253500Y210000D02*
D03*
X286300Y212500D02*
D03*
X245600Y180200D02*
D03*
X231400Y241600D02*
D03*
X280800Y287300D02*
D03*
X196900Y267700D02*
D03*
X154500Y306000D02*
D03*
X132000Y233900D02*
D03*
X138000Y299000D02*
D03*
X97500D02*
D03*
M02*
