%FSLAX25Y25*%
%MOIN*%
G70*
G01*
G75*
G04 Layer_Color=65535*
%ADD10R,0.05118X0.03937*%
%ADD11R,0.03937X0.05118*%
%ADD12R,0.04921X0.06299*%
%ADD13R,0.06299X0.04921*%
%ADD14R,0.04724X0.02559*%
%ADD15O,0.02362X0.09449*%
%ADD16R,0.02362X0.09449*%
%ADD17O,0.02362X0.08661*%
%ADD18R,0.02362X0.08661*%
%ADD19R,0.07284X0.04724*%
%ADD20O,0.15748X0.05906*%
%ADD21R,0.15748X0.05906*%
%ADD22O,0.15748X0.05906*%
%ADD23O,0.05906X0.15748*%
%ADD24R,0.05906X0.15748*%
%ADD25O,0.05906X0.15748*%
%ADD26C,0.01200*%
%ADD27C,0.03937*%
%ADD28C,0.01000*%
%ADD29C,0.02000*%
%ADD30C,0.03150*%
%ADD31C,0.00472*%
%ADD32C,0.27559*%
%ADD33C,0.05906*%
%ADD34R,0.05906X0.05906*%
G04:AMPARAMS|DCode=35|XSize=78.74mil|YSize=60mil|CornerRadius=0mil|HoleSize=0mil|Usage=FLASHONLY|Rotation=0.000|XOffset=0mil|YOffset=0mil|HoleType=Round|Shape=Octagon|*
%AMOCTAGOND35*
4,1,8,0.03937,-0.01500,0.03937,0.01500,0.02437,0.03000,-0.02437,0.03000,-0.03937,0.01500,-0.03937,-0.01500,-0.02437,-0.03000,0.02437,-0.03000,0.03937,-0.01500,0.0*
%
%ADD35OCTAGOND35*%

%ADD36C,0.05000*%
%ADD37C,0.00787*%
%ADD38C,0.00984*%
%ADD39C,0.00394*%
D26*
X195283Y216013D02*
Y230187D01*
X188197Y216013D02*
X195283D01*
X188197D02*
Y230187D01*
X195283D01*
X250913Y218457D02*
X265087D01*
X250913D02*
Y225543D01*
X265087D01*
Y218457D02*
Y225543D01*
X250913Y228957D02*
X265087D01*
X250913D02*
Y236043D01*
X265087D01*
Y228957D02*
Y236043D01*
X101197Y246313D02*
X108283D01*
Y260487D01*
X101197D02*
X108283D01*
X101197Y246313D02*
Y260487D01*
X45717Y191913D02*
Y206087D01*
X52803D01*
Y191913D02*
Y206087D01*
X45717Y191913D02*
X52803D01*
X99543Y189913D02*
Y204087D01*
X92457Y189913D02*
X99543D01*
X92457D02*
Y204087D01*
X99543D01*
X87543Y189913D02*
Y204087D01*
X80457Y189913D02*
X87543D01*
X80457D02*
Y204087D01*
X87543D01*
X53497Y217513D02*
Y231687D01*
X60584D01*
Y217513D02*
Y231687D01*
X53497Y217513D02*
X60584D01*
X64197D02*
Y231687D01*
X71284D01*
Y217513D02*
Y231687D01*
X64197Y217513D02*
X71284D01*
X21957Y268913D02*
Y283087D01*
X29043D01*
Y268913D02*
Y283087D01*
X21957Y268913D02*
X29043D01*
X195083Y198413D02*
Y212587D01*
X187997Y198413D02*
X195083D01*
X187997D02*
Y212587D01*
X195083D01*
X64542Y236244D02*
Y241756D01*
X65290Y236244D02*
Y241756D01*
X58991Y236244D02*
X65290D01*
X58991Y241756D02*
X65290D01*
X299798Y209644D02*
Y215156D01*
X299050Y209644D02*
Y215156D01*
X305350D01*
X299050Y209644D02*
X305350D01*
X212944Y288002D02*
X218456D01*
X212944Y288750D02*
X218456D01*
Y282450D02*
Y288750D01*
X212944Y282450D02*
Y288750D01*
X75002Y257544D02*
Y263056D01*
X75750Y257544D02*
Y263056D01*
X69450Y257544D02*
X75750D01*
X69450Y263056D02*
X75750D01*
X145797Y266913D02*
X152884D01*
Y281087D01*
X145797D02*
X152884D01*
X145797Y266913D02*
Y281087D01*
X239897Y262287D02*
X246984D01*
X239897Y248113D02*
Y262287D01*
Y248113D02*
X246984D01*
Y262287D01*
X136597Y266863D02*
X143684D01*
Y281037D01*
X136597D02*
X143684D01*
X136597Y266863D02*
Y281037D01*
X200797Y261987D02*
X207884D01*
X200797Y247813D02*
Y261987D01*
Y247813D02*
X207884D01*
Y261987D01*
X161297Y261587D02*
X168384D01*
X161297Y247413D02*
Y261587D01*
Y247413D02*
X168384D01*
Y261587D01*
X121647Y260637D02*
X128734D01*
X121647Y246463D02*
Y260637D01*
Y246463D02*
X128734D01*
Y260637D01*
X272957Y224613D02*
X280043D01*
Y238787D01*
X272957D02*
X280043D01*
X272957Y224613D02*
Y238787D01*
X223297Y199787D02*
X230383D01*
X223297Y185613D02*
Y199787D01*
Y185613D02*
X230383D01*
Y199787D01*
X158297Y280987D02*
X165384D01*
X158297Y266813D02*
Y280987D01*
Y266813D02*
X165384D01*
Y280987D01*
X232297Y185413D02*
X239384D01*
Y199587D01*
X232297D02*
X239384D01*
X232297Y185413D02*
Y199587D01*
X167897Y266613D02*
X174984D01*
Y280787D01*
X167897D02*
X174984D01*
X167897Y266613D02*
Y280787D01*
X98257Y242587D02*
X105343D01*
X98257Y228413D02*
Y242587D01*
Y228413D02*
X105343D01*
Y242587D01*
X84797Y258287D02*
X91883D01*
X84797Y244113D02*
Y258287D01*
Y244113D02*
X91883D01*
Y258287D01*
X274787Y265767D02*
Y272853D01*
X260613D02*
X274787D01*
X260613Y265767D02*
Y272853D01*
Y265767D02*
X274787D01*
X267997Y289887D02*
X275083D01*
X267997Y275713D02*
Y289887D01*
Y275713D02*
X275083D01*
Y289887D01*
X246240Y187188D02*
Y198212D01*
X251240Y187188D02*
Y198212D01*
X246240D02*
X251240D01*
X246240Y187188D02*
X251240D01*
X183740Y268788D02*
Y279812D01*
X188740Y268788D02*
Y279812D01*
X183740D02*
X188740D01*
X183740Y268788D02*
X188740D01*
X76200Y244288D02*
Y255312D01*
X71200Y244288D02*
Y255312D01*
Y244288D02*
X76200D01*
X71200Y255312D02*
X76200D01*
X273057Y244613D02*
X280143D01*
Y258787D01*
X273057D02*
X280143D01*
X273057Y244613D02*
Y258787D01*
X94833Y220657D02*
Y227743D01*
X75148Y220657D02*
Y227743D01*
X94833D01*
X75148Y220657D02*
X94833D01*
X261340Y277588D02*
Y288612D01*
X256340Y277588D02*
Y288612D01*
Y277588D02*
X261340D01*
X256340Y288612D02*
X261340D01*
X154040Y189500D02*
X214040D01*
X154040Y179500D02*
X214040D01*
Y189500D01*
X154040Y179500D02*
Y189500D01*
X243144Y289002D02*
X248656D01*
X243144Y289750D02*
X248656D01*
Y283450D02*
Y289750D01*
X243144Y283450D02*
Y289750D01*
X111797Y246313D02*
Y260487D01*
X118884D01*
Y246313D02*
Y260487D01*
X111797Y246313D02*
X118884D01*
X136640Y228200D02*
X186540D01*
X136640Y200200D02*
X186540D01*
Y228200D01*
X136640Y200200D02*
Y228200D01*
X57717Y206087D02*
X64803D01*
X57717Y191913D02*
Y206087D01*
Y191913D02*
X64803D01*
Y206087D01*
X104457Y204087D02*
X111543D01*
X104457Y189913D02*
Y204087D01*
Y189913D02*
X111543D01*
Y204087D01*
X42957Y268913D02*
X50043D01*
Y283087D01*
X42957D02*
X50043D01*
X42957Y268913D02*
Y283087D01*
X32457Y268913D02*
X39543D01*
Y283087D01*
X32457D02*
X39543D01*
X32457Y268913D02*
Y283087D01*
X307087Y189657D02*
Y196743D01*
X292913D02*
X307087D01*
X292913Y189657D02*
Y196743D01*
Y189657D02*
X307087D01*
Y198957D02*
Y206043D01*
X292913D02*
X307087D01*
X292913Y198957D02*
Y206043D01*
Y198957D02*
X307087D01*
X197097Y207513D02*
X204184D01*
Y221687D01*
X197097D02*
X204184D01*
X197097Y207513D02*
Y221687D01*
X13944Y278702D02*
X19456D01*
X13944Y279450D02*
X19456D01*
Y273150D02*
Y279450D01*
X13944Y273150D02*
Y279450D01*
D31*
X41241Y182295D02*
Y181114D01*
X41635Y180720D01*
X42028Y181114D01*
X42422Y180720D01*
X42815Y181114D01*
Y182295D01*
X43602D02*
Y181114D01*
X43996Y180720D01*
X44390Y181114D01*
X44783Y180720D01*
X45177Y181114D01*
Y182295D01*
X45964D02*
Y181114D01*
X46357Y180720D01*
X46751Y181114D01*
X47144Y180720D01*
X47538Y181114D01*
Y182295D01*
X48325Y180720D02*
Y181114D01*
X48719D01*
Y180720D01*
X48325D01*
X51867Y183082D02*
Y180720D01*
X50687D01*
X50293Y181114D01*
Y181901D01*
X50687Y182295D01*
X51867D01*
X52655Y180720D02*
X53442D01*
X53048D01*
Y182295D01*
X52655D01*
X55016D02*
X55803D01*
X56197Y181901D01*
Y180720D01*
X55016D01*
X54622Y181114D01*
X55016Y181508D01*
X56197D01*
X56984Y179933D02*
Y182295D01*
X58165D01*
X58558Y181901D01*
Y181114D01*
X58165Y180720D01*
X56984D01*
X59345Y182295D02*
Y180720D01*
Y181508D01*
X59739Y181901D01*
X60132Y182295D01*
X60526D01*
X62100Y180720D02*
X62888D01*
X63281Y181114D01*
Y181901D01*
X62888Y182295D01*
X62100D01*
X61707Y181901D01*
Y181114D01*
X62100Y180720D01*
X64068D02*
Y181114D01*
X64462D01*
Y180720D01*
X64068D01*
X66036Y183082D02*
Y180720D01*
Y181901D01*
X66430Y182295D01*
X67217D01*
X67610Y181901D01*
Y180720D01*
X68397Y182295D02*
Y181114D01*
X68791Y180720D01*
X69972D01*
Y182295D01*
X42241Y188082D02*
Y185721D01*
X43422D01*
X43815Y186114D01*
Y187688D01*
X43422Y188082D01*
X42241D01*
X44602Y185721D02*
X45390D01*
X44996D01*
Y187295D01*
X44602D01*
X46964D02*
X47751D01*
X48145Y186901D01*
Y185721D01*
X46964D01*
X46570Y186114D01*
X46964Y186508D01*
X48145D01*
X48932Y184933D02*
Y187295D01*
X50112D01*
X50506Y186901D01*
Y186114D01*
X50112Y185721D01*
X48932D01*
X51293Y187295D02*
Y185721D01*
Y186508D01*
X51687Y186901D01*
X52080Y187295D01*
X52474D01*
X54048Y185721D02*
X54835D01*
X55229Y186114D01*
Y186901D01*
X54835Y187295D01*
X54048D01*
X53655Y186901D01*
Y186114D01*
X54048Y185721D01*
X58377Y188082D02*
Y185721D01*
Y186508D01*
X59952Y188082D01*
X58771Y186901D01*
X59952Y185721D01*
X61132D02*
Y187688D01*
Y186901D01*
X60739D01*
X61526D01*
X61132D01*
Y187688D01*
X61526Y188082D01*
X63100Y187688D02*
Y187295D01*
X62707D01*
X63494D01*
X63100D01*
Y186114D01*
X63494Y185721D01*
X64675D02*
Y186114D01*
X65068D01*
Y185721D01*
X64675D01*
X260241Y201220D02*
Y202795D01*
X261028Y203582D01*
X261815Y202795D01*
Y201220D01*
Y202401D01*
X260241D01*
X264177Y203188D02*
X263783Y203582D01*
X262996D01*
X262602Y203188D01*
Y202795D01*
X262996Y202401D01*
X263783D01*
X264177Y202008D01*
Y201614D01*
X263783Y201220D01*
X262996D01*
X262602Y201614D01*
X264964Y201220D02*
Y203582D01*
X266144D01*
X266538Y203188D01*
Y202401D01*
X266144Y202008D01*
X264964D01*
X269687Y203582D02*
Y201220D01*
X271261D01*
X273622Y203582D02*
X272048D01*
Y201220D01*
X273622D01*
X272048Y202401D02*
X272835D01*
X274410Y203582D02*
Y201220D01*
X275590D01*
X275984Y201614D01*
Y203188D01*
X275590Y203582D01*
X274410D01*
X276771D02*
Y201220D01*
X277952D01*
X278345Y201614D01*
Y202008D01*
X277952Y202401D01*
X276771D01*
X277952D01*
X278345Y202795D01*
Y203188D01*
X277952Y203582D01*
X276771D01*
X279526Y201220D02*
X280313D01*
X280707Y201614D01*
Y202401D01*
X280313Y202795D01*
X279526D01*
X279133Y202401D01*
Y201614D01*
X279526Y201220D01*
X281888Y202795D02*
X282675D01*
X283068Y202401D01*
Y201220D01*
X281888D01*
X281494Y201614D01*
X281888Y202008D01*
X283068D01*
X283855Y202795D02*
Y201220D01*
Y202008D01*
X284249Y202401D01*
X284643Y202795D01*
X285036D01*
X287791Y203582D02*
Y201220D01*
X286610D01*
X286217Y201614D01*
Y202401D01*
X286610Y202795D01*
X287791D01*
X271241Y197082D02*
Y195508D01*
X272028Y194720D01*
X272815Y195508D01*
Y197082D01*
X275177Y194720D02*
X273602D01*
X275177Y196295D01*
Y196688D01*
X274783Y197082D01*
X273996D01*
X273602Y196688D01*
X231918Y210815D02*
Y209241D01*
X233099D01*
Y210028D01*
Y209241D01*
X234279D01*
Y211602D02*
X232705D01*
X231918Y212389D01*
X232705Y213177D01*
X234279D01*
X233099D01*
Y211602D01*
X234279Y213964D02*
X231918D01*
X234279Y215538D01*
X231918D01*
X233099Y216325D02*
Y217899D01*
X232312Y217112D02*
X233886D01*
X236312Y210815D02*
X235918Y210422D01*
Y209634D01*
X236312Y209241D01*
X237886D01*
X238280Y209634D01*
Y210422D01*
X237886Y210815D01*
X237099D01*
Y210028D01*
X238280Y211602D02*
X235918D01*
X238280Y213177D01*
X235918D01*
Y213964D02*
X238280D01*
Y215144D01*
X237886Y215538D01*
X236312D01*
X235918Y215144D01*
Y213964D01*
X236312Y223815D02*
X235918Y223422D01*
Y222635D01*
X236312Y222241D01*
X237886D01*
X238280Y222635D01*
Y223422D01*
X237886Y223815D01*
X237099D01*
Y223028D01*
X238280Y224602D02*
X235918D01*
X238280Y226177D01*
X235918D01*
Y226964D02*
X238280D01*
Y228145D01*
X237886Y228538D01*
X236312D01*
X235918Y228145D01*
Y226964D01*
X231918Y223815D02*
Y222241D01*
X233099D01*
Y223028D01*
Y222241D01*
X234279D01*
Y224602D02*
X232705D01*
X231918Y225390D01*
X232705Y226177D01*
X234279D01*
X233099D01*
Y224602D01*
X234279Y226964D02*
X231918D01*
X234279Y228538D01*
X231918D01*
X233099Y229325D02*
Y230900D01*
X232312Y230112D02*
X233886D01*
X228312Y223815D02*
X227918Y223422D01*
Y222635D01*
X228312Y222241D01*
X228705D01*
X229099Y222635D01*
Y223422D01*
X229492Y223815D01*
X229886D01*
X230279Y223422D01*
Y222635D01*
X229886Y222241D01*
X227918Y226177D02*
Y224602D01*
X230279D01*
Y226177D01*
X229099Y224602D02*
Y225390D01*
X230279Y226964D02*
X227918D01*
X230279Y228538D01*
X227918D01*
X228312Y230900D02*
X227918Y230506D01*
Y229719D01*
X228312Y229325D01*
X228705D01*
X229099Y229719D01*
Y230506D01*
X229492Y230900D01*
X229886D01*
X230279Y230506D01*
Y229719D01*
X229886Y229325D01*
X228312Y210815D02*
X227918Y210422D01*
Y209634D01*
X228312Y209241D01*
X228705D01*
X229099Y209634D01*
Y210422D01*
X229492Y210815D01*
X229886D01*
X230279Y210422D01*
Y209634D01*
X229886Y209241D01*
X227918Y213177D02*
Y211602D01*
X230279D01*
Y213177D01*
X229099Y211602D02*
Y212389D01*
X230279Y213964D02*
X227918D01*
X230279Y215538D01*
X227918D01*
X228312Y217899D02*
X227918Y217506D01*
Y216719D01*
X228312Y216325D01*
X228705D01*
X229099Y216719D01*
Y217506D01*
X229492Y217899D01*
X229886D01*
X230279Y217506D01*
Y216719D01*
X229886Y216325D01*
X175815Y297688D02*
X175422Y298082D01*
X174635D01*
X174241Y297688D01*
Y296114D01*
X174635Y295721D01*
X175422D01*
X175815Y296114D01*
Y296901D01*
X175028D01*
X176602Y295721D02*
Y298082D01*
X178177Y295721D01*
Y298082D01*
X178964D02*
Y295721D01*
X180145D01*
X180538Y296114D01*
Y297688D01*
X180145Y298082D01*
X178964D01*
X197815Y297688D02*
X197422Y298082D01*
X196634D01*
X196241Y297688D01*
Y296114D01*
X196634Y295721D01*
X197422D01*
X197815Y296114D01*
Y296901D01*
X197028D01*
X198602Y295721D02*
Y298082D01*
X200177Y295721D01*
Y298082D01*
X200964D02*
Y295721D01*
X202145D01*
X202538Y296114D01*
Y297688D01*
X202145Y298082D01*
X200964D01*
X192241Y299721D02*
Y302082D01*
X193422D01*
X193815Y301688D01*
Y300901D01*
X193422Y300508D01*
X192241D01*
X193028D02*
X193815Y299721D01*
X196177Y302082D02*
X194602D01*
Y299721D01*
X196177D01*
X194602Y300901D02*
X195389D01*
X196964Y302082D02*
Y299721D01*
X198538D01*
X199325D02*
Y301295D01*
X200112Y302082D01*
X200900Y301295D01*
Y299721D01*
Y300901D01*
X199325D01*
X201687Y302082D02*
Y301688D01*
X202474Y300901D01*
X203261Y301688D01*
Y302082D01*
X202474Y300901D02*
Y299721D01*
X204048Y299327D02*
X205622D01*
X206410Y302082D02*
Y299721D01*
X207590D01*
X207984Y300114D01*
Y300508D01*
X207590Y300901D01*
X206410D01*
X207590D01*
X207984Y301295D01*
Y301688D01*
X207590Y302082D01*
X206410D01*
X208771Y300901D02*
X210345D01*
X209558Y301688D02*
Y300114D01*
X170241Y299721D02*
Y302082D01*
X171422D01*
X171815Y301688D01*
Y300901D01*
X171422Y300508D01*
X170241D01*
X171028D02*
X171815Y299721D01*
X174177Y302082D02*
X172602D01*
Y299721D01*
X174177D01*
X172602Y300901D02*
X173389D01*
X174964Y302082D02*
Y299721D01*
X176538D01*
X177325D02*
Y301295D01*
X178112Y302082D01*
X178900Y301295D01*
Y299721D01*
Y300901D01*
X177325D01*
X179687Y302082D02*
Y301688D01*
X180474Y300901D01*
X181261Y301688D01*
Y302082D01*
X180474Y300901D02*
Y299721D01*
X182048Y299327D02*
X183622D01*
X184410Y299721D02*
Y301295D01*
X185197Y302082D01*
X185984Y301295D01*
Y299721D01*
Y300901D01*
X184410D01*
X186771D02*
X188345D01*
X187558Y301688D02*
Y300114D01*
X88241Y285082D02*
Y282720D01*
X89422D01*
X89815Y283114D01*
Y283508D01*
X89422Y283901D01*
X88241D01*
X89422D01*
X89815Y284295D01*
Y284688D01*
X89422Y285082D01*
X88241D01*
X90602D02*
Y283114D01*
X90996Y282720D01*
X91783D01*
X92177Y283114D01*
Y285082D01*
X92964D02*
X94538D01*
X93751D01*
Y282720D01*
X95325Y285082D02*
X96899D01*
X96112D01*
Y282720D01*
X98867Y285082D02*
X98080D01*
X97687Y284688D01*
Y283114D01*
X98080Y282720D01*
X98867D01*
X99261Y283114D01*
Y284688D01*
X98867Y285082D01*
X100048Y282720D02*
Y285082D01*
X101622Y282720D01*
Y285082D01*
X102410Y283901D02*
X103984D01*
X103197Y284688D02*
Y283114D01*
X106815Y284688D02*
X106422Y285082D01*
X105634D01*
X105241Y284688D01*
Y283114D01*
X105634Y282720D01*
X106422D01*
X106815Y283114D01*
Y283901D01*
X106028D01*
X107602Y282720D02*
Y285082D01*
X109177Y282720D01*
Y285082D01*
X109964D02*
Y282720D01*
X111144D01*
X111538Y283114D01*
Y284688D01*
X111144Y285082D01*
X109964D01*
X106815Y288688D02*
X106422Y289082D01*
X105634D01*
X105241Y288688D01*
Y287114D01*
X105634Y286720D01*
X106422D01*
X106815Y287114D01*
Y287901D01*
X106028D01*
X107602Y286720D02*
Y289082D01*
X109177Y286720D01*
Y289082D01*
X109964D02*
Y286720D01*
X111144D01*
X111538Y287114D01*
Y288688D01*
X111144Y289082D01*
X109964D01*
X88241D02*
Y286720D01*
X89422D01*
X89815Y287114D01*
Y287508D01*
X89422Y287901D01*
X88241D01*
X89422D01*
X89815Y288295D01*
Y288688D01*
X89422Y289082D01*
X88241D01*
X90602D02*
Y287114D01*
X90996Y286720D01*
X91783D01*
X92177Y287114D01*
Y289082D01*
X92964D02*
X94538D01*
X93751D01*
Y286720D01*
X95325Y289082D02*
X96899D01*
X96112D01*
Y286720D01*
X98867Y289082D02*
X98080D01*
X97687Y288688D01*
Y287114D01*
X98080Y286720D01*
X98867D01*
X99261Y287114D01*
Y288688D01*
X98867Y289082D01*
X100048Y286720D02*
Y289082D01*
X101622Y286720D01*
Y289082D01*
X102410Y287901D02*
X103984D01*
X103197Y288688D02*
Y287114D01*
X9574Y217361D02*
X8000D01*
Y216181D01*
X8787Y216574D01*
X9181D01*
X9574Y216181D01*
Y215394D01*
X9181Y215000D01*
X8394D01*
X8000Y215394D01*
X10361Y217361D02*
Y215787D01*
X11149Y215000D01*
X11936Y215787D01*
Y217361D01*
X22574Y216968D02*
X22181Y217361D01*
X21394D01*
X21000Y216968D01*
Y215394D01*
X21394Y215000D01*
X22181D01*
X22574Y215394D01*
Y216181D01*
X21787D01*
X23361Y215000D02*
Y217361D01*
X24936Y215000D01*
Y217361D01*
X25723D02*
Y215000D01*
X26904D01*
X27297Y215394D01*
Y216968D01*
X26904Y217361D01*
X25723D01*
X22574Y212968D02*
X22181Y213361D01*
X21394D01*
X21000Y212968D01*
Y211394D01*
X21394Y211000D01*
X22181D01*
X22574Y211394D01*
Y212181D01*
X21787D01*
X23361Y211000D02*
Y213361D01*
X24936Y211000D01*
Y213361D01*
X25723D02*
Y211000D01*
X26904D01*
X27297Y211394D01*
Y212968D01*
X26904Y213361D01*
X25723D01*
X22181Y209361D02*
X21394D01*
X21000Y208968D01*
Y207394D01*
X21394Y207000D01*
X22181D01*
X22574Y207394D01*
Y208968D01*
X22181Y209361D01*
X23361Y207000D02*
Y209361D01*
X24542D01*
X24936Y208968D01*
Y208181D01*
X24542Y207787D01*
X23361D01*
X25723Y209361D02*
X27297D01*
X26510D01*
Y207000D01*
X29265Y209361D02*
X28478D01*
X28084Y208968D01*
Y207394D01*
X28478Y207000D01*
X29265D01*
X29659Y207394D01*
Y208968D01*
X29265Y209361D01*
X30446Y208181D02*
X32020D01*
X9181Y209361D02*
X8394D01*
X8000Y208968D01*
Y207394D01*
X8394Y207000D01*
X9181D01*
X9574Y207394D01*
Y208968D01*
X9181Y209361D01*
X10361Y207000D02*
Y209361D01*
X11542D01*
X11936Y208968D01*
Y208181D01*
X11542Y207787D01*
X10361D01*
X12723Y209361D02*
X14297D01*
X13510D01*
Y207000D01*
X16265Y209361D02*
X15478D01*
X15084Y208968D01*
Y207394D01*
X15478Y207000D01*
X16265D01*
X16659Y207394D01*
Y208968D01*
X16265Y209361D01*
X17446Y208181D02*
X19020D01*
X18233Y208968D02*
Y207394D01*
X8000Y211000D02*
X8787D01*
X8394D01*
Y213361D01*
X8000Y212968D01*
X11542Y211000D02*
X9968D01*
X11542Y212574D01*
Y212968D01*
X11149Y213361D01*
X10361D01*
X9968Y212968D01*
X12329Y213361D02*
Y211787D01*
X13116Y211000D01*
X13904Y211787D01*
Y213361D01*
X17241Y300082D02*
Y297721D01*
X18815D01*
X21177Y300082D02*
X19602D01*
Y297721D01*
X21177D01*
X19602Y298901D02*
X20390D01*
X21964Y300082D02*
Y297721D01*
X23144D01*
X23538Y298114D01*
Y299688D01*
X23144Y300082D01*
X21964D01*
X24325Y298901D02*
X25899D01*
X30241Y300082D02*
Y297721D01*
X31815D01*
X34177Y300082D02*
X32602D01*
Y297721D01*
X34177D01*
X32602Y298901D02*
X33389D01*
X34964Y300082D02*
Y297721D01*
X36145D01*
X36538Y298114D01*
Y299688D01*
X36145Y300082D01*
X34964D01*
X37325Y298901D02*
X38899D01*
X38112Y299688D02*
Y298114D01*
X30241Y304082D02*
Y301720D01*
X31815D01*
X34177Y304082D02*
X32602D01*
Y301720D01*
X34177D01*
X32602Y302901D02*
X33389D01*
X34964Y304082D02*
Y301720D01*
X36145D01*
X36538Y302114D01*
Y303688D01*
X36145Y304082D01*
X34964D01*
X37325Y302901D02*
X38899D01*
X38112Y303688D02*
Y302114D01*
X17241Y304082D02*
Y301720D01*
X18815D01*
X21177Y304082D02*
X19602D01*
Y301720D01*
X21177D01*
X19602Y302901D02*
X20390D01*
X21964Y304082D02*
Y301720D01*
X23144D01*
X23538Y302114D01*
Y303688D01*
X23144Y304082D01*
X21964D01*
X24325Y302901D02*
X25899D01*
D37*
X78691Y223019D02*
G03*
X78691Y223019I-1181J0D01*
G01*
X252735Y243398D02*
X259822D01*
X213365D02*
X220452D01*
X173995D02*
X181082D01*
X134625D02*
X141712D01*
D38*
X183979Y226649D02*
G03*
X183979Y226649I-492J0D01*
G01*
D39*
X255740Y221000D02*
Y222968D01*
X256724D01*
X257052Y222640D01*
Y221984D01*
X256724Y221656D01*
X255740D01*
X256396D02*
X257052Y221000D01*
X259020D02*
X257708D01*
X259020Y222312D01*
Y222640D01*
X258692Y222968D01*
X258036D01*
X257708Y222640D01*
X259676Y221000D02*
X260332D01*
X260004D01*
Y222968D01*
X259676Y222640D01*
X255340Y231500D02*
Y233468D01*
X256324D01*
X256652Y233140D01*
Y232484D01*
X256324Y232156D01*
X255340D01*
X255996D02*
X256652Y231500D01*
X258620D02*
X257308D01*
X258620Y232812D01*
Y233140D01*
X258292Y233468D01*
X257636D01*
X257308Y233140D01*
X259276D02*
X259604Y233468D01*
X260260D01*
X260588Y233140D01*
Y231828D01*
X260260Y231500D01*
X259604D01*
X259276Y231828D01*
Y233140D01*
X189240Y222100D02*
Y224068D01*
X190224D01*
X190552Y223740D01*
Y223084D01*
X190224Y222756D01*
X189240D01*
X189896D02*
X190552Y222100D01*
X191208D02*
X191864D01*
X191536D01*
Y224068D01*
X191208Y223740D01*
X192848Y222428D02*
X193176Y222100D01*
X193832D01*
X194160Y222428D01*
Y223740D01*
X193832Y224068D01*
X193176D01*
X192848Y223740D01*
Y223412D01*
X193176Y223084D01*
X194160D01*
X159940Y215168D02*
Y213528D01*
X160268Y213200D01*
X160924D01*
X161252Y213528D01*
Y215168D01*
X163220Y213200D02*
X161908D01*
X163220Y214512D01*
Y214840D01*
X162892Y215168D01*
X162236D01*
X161908Y214840D01*
X46840Y198000D02*
Y199968D01*
X47824D01*
X48152Y199640D01*
Y198984D01*
X47824Y198656D01*
X46840D01*
X47496D02*
X48152Y198000D01*
X48808D02*
X49464D01*
X49136D01*
Y199968D01*
X48808Y199640D01*
X50448D02*
X50776Y199968D01*
X51432D01*
X51760Y199640D01*
Y199312D01*
X51432Y198984D01*
X51760Y198656D01*
Y198328D01*
X51432Y198000D01*
X50776D01*
X50448Y198328D01*
Y198656D01*
X50776Y198984D01*
X50448Y199312D01*
Y199640D01*
X50776Y198984D02*
X51432D01*
X95952Y197700D02*
X95624Y198028D01*
X94968D01*
X94640Y197700D01*
Y196388D01*
X94968Y196060D01*
X95624D01*
X95952Y196388D01*
X96608Y196060D02*
X97264D01*
X96936D01*
Y198028D01*
X96608Y197700D01*
X83652D02*
X83324Y198028D01*
X82668D01*
X82340Y197700D01*
Y196388D01*
X82668Y196060D01*
X83324D01*
X83652Y196388D01*
X85620Y196060D02*
X84308D01*
X85620Y197372D01*
Y197700D01*
X85292Y198028D01*
X84636D01*
X84308Y197700D01*
X56752Y225240D02*
X56424Y225568D01*
X55768D01*
X55440Y225240D01*
Y223928D01*
X55768Y223600D01*
X56424D01*
X56752Y223928D01*
X57408Y225240D02*
X57736Y225568D01*
X58392D01*
X58720Y225240D01*
Y224912D01*
X58392Y224584D01*
X58064D01*
X58392D01*
X58720Y224256D01*
Y223928D01*
X58392Y223600D01*
X57736D01*
X57408Y223928D01*
X67452Y225240D02*
X67124Y225568D01*
X66468D01*
X66140Y225240D01*
Y223928D01*
X66468Y223600D01*
X67124D01*
X67452Y223928D01*
X69092Y223600D02*
Y225568D01*
X68108Y224584D01*
X69420D01*
X25212Y276640D02*
X24884Y276968D01*
X24228D01*
X23900Y276640D01*
Y275328D01*
X24228Y275000D01*
X24884D01*
X25212Y275328D01*
X27180Y276968D02*
X25868D01*
Y275984D01*
X26524Y276312D01*
X26852D01*
X27180Y275984D01*
Y275328D01*
X26852Y275000D01*
X26196D01*
X25868Y275328D01*
X191252Y206140D02*
X190924Y206468D01*
X190268D01*
X189940Y206140D01*
Y204828D01*
X190268Y204500D01*
X190924D01*
X191252Y204828D01*
X193220Y206468D02*
X192564Y206140D01*
X191908Y205484D01*
Y204828D01*
X192236Y204500D01*
X192892D01*
X193220Y204828D01*
Y205156D01*
X192892Y205484D01*
X191908D01*
X115052Y254040D02*
X114724Y254368D01*
X114068D01*
X113740Y254040D01*
Y252728D01*
X114068Y252400D01*
X114724D01*
X115052Y252728D01*
X115708Y254368D02*
X117020D01*
Y254040D01*
X115708Y252728D01*
Y252400D01*
X60840Y239968D02*
Y238000D01*
X61824D01*
X62152Y238328D01*
Y239640D01*
X61824Y239968D01*
X60840D01*
X62808Y238000D02*
X63464D01*
X63136D01*
Y239968D01*
X62808Y239640D01*
X254640Y253968D02*
Y252000D01*
X255624D01*
X255952Y252328D01*
Y253640D01*
X255624Y253968D01*
X254640D01*
X257920Y252000D02*
X256608D01*
X257920Y253312D01*
Y253640D01*
X257592Y253968D01*
X256936D01*
X256608Y253640D01*
X215240Y253968D02*
Y252000D01*
X216224D01*
X216552Y252328D01*
Y253640D01*
X216224Y253968D01*
X215240D01*
X217208Y253640D02*
X217536Y253968D01*
X218192D01*
X218520Y253640D01*
Y253312D01*
X218192Y252984D01*
X217864D01*
X218192D01*
X218520Y252656D01*
Y252328D01*
X218192Y252000D01*
X217536D01*
X217208Y252328D01*
X175940Y253968D02*
Y252000D01*
X176924D01*
X177252Y252328D01*
Y253640D01*
X176924Y253968D01*
X175940D01*
X178892Y252000D02*
Y253968D01*
X177908Y252984D01*
X179220D01*
X136540Y253968D02*
Y252000D01*
X137524D01*
X137852Y252328D01*
Y253640D01*
X137524Y253968D01*
X136540D01*
X139820D02*
X138508D01*
Y252984D01*
X139164Y253312D01*
X139492D01*
X139820Y252984D01*
Y252328D01*
X139492Y252000D01*
X138836D01*
X138508Y252328D01*
X300540Y213368D02*
Y211400D01*
X301524D01*
X301852Y211728D01*
Y213040D01*
X301524Y213368D01*
X300540D01*
X303820D02*
X303164Y213040D01*
X302508Y212384D01*
Y211728D01*
X302836Y211400D01*
X303492D01*
X303820Y211728D01*
Y212056D01*
X303492Y212384D01*
X302508D01*
X214040Y286568D02*
Y284600D01*
X215024D01*
X215352Y284928D01*
Y286240D01*
X215024Y286568D01*
X214040D01*
X216008D02*
X217320D01*
Y286240D01*
X216008Y284928D01*
Y284600D01*
X70940Y261268D02*
Y259300D01*
X71924D01*
X72252Y259628D01*
Y260940D01*
X71924Y261268D01*
X70940D01*
X72908Y260940D02*
X73236Y261268D01*
X73892D01*
X74220Y260940D01*
Y260612D01*
X73892Y260284D01*
X74220Y259956D01*
Y259628D01*
X73892Y259300D01*
X73236D01*
X72908Y259628D01*
Y259956D01*
X73236Y260284D01*
X72908Y260612D01*
Y260940D01*
X73236Y260284D02*
X73892D01*
X244240Y287568D02*
Y285600D01*
X245224D01*
X245552Y285928D01*
Y287240D01*
X245224Y287568D01*
X244240D01*
X246208Y285928D02*
X246536Y285600D01*
X247192D01*
X247520Y285928D01*
Y287240D01*
X247192Y287568D01*
X246536D01*
X246208Y287240D01*
Y286912D01*
X246536Y286584D01*
X247520D01*
X181540Y183500D02*
Y185468D01*
X182524D01*
X182852Y185140D01*
Y184484D01*
X182524Y184156D01*
X181540D01*
X183508Y183500D02*
X184164D01*
X183836D01*
Y185468D01*
X183508Y185140D01*
X186460Y183500D02*
X185148D01*
X186460Y184812D01*
Y185140D01*
X186132Y185468D01*
X185476D01*
X185148Y185140D01*
X148040Y273000D02*
Y274968D01*
X149024D01*
X149352Y274640D01*
Y273984D01*
X149024Y273656D01*
X148040D01*
X148696D02*
X149352Y273000D01*
X150008D02*
X150664D01*
X150336D01*
Y274968D01*
X150008Y274640D01*
X241840Y254200D02*
Y256168D01*
X242824D01*
X243152Y255840D01*
Y255184D01*
X242824Y254856D01*
X241840D01*
X242496D02*
X243152Y254200D01*
X245120D02*
X243808D01*
X245120Y255512D01*
Y255840D01*
X244792Y256168D01*
X244136D01*
X243808Y255840D01*
X138540Y273000D02*
Y274968D01*
X139524D01*
X139852Y274640D01*
Y273984D01*
X139524Y273656D01*
X138540D01*
X139196D02*
X139852Y273000D01*
X140508Y274640D02*
X140836Y274968D01*
X141492D01*
X141820Y274640D01*
Y274312D01*
X141492Y273984D01*
X141164D01*
X141492D01*
X141820Y273656D01*
Y273328D01*
X141492Y273000D01*
X140836D01*
X140508Y273328D01*
X202740Y253900D02*
Y255868D01*
X203724D01*
X204052Y255540D01*
Y254884D01*
X203724Y254556D01*
X202740D01*
X203396D02*
X204052Y253900D01*
X205692D02*
Y255868D01*
X204708Y254884D01*
X206020D01*
X163240Y253500D02*
Y255468D01*
X164224D01*
X164552Y255140D01*
Y254484D01*
X164224Y254156D01*
X163240D01*
X163896D02*
X164552Y253500D01*
X166520Y255468D02*
X165208D01*
Y254484D01*
X165864Y254812D01*
X166192D01*
X166520Y254484D01*
Y253828D01*
X166192Y253500D01*
X165536D01*
X165208Y253828D01*
X123540Y252600D02*
Y254568D01*
X124524D01*
X124852Y254240D01*
Y253584D01*
X124524Y253256D01*
X123540D01*
X124196D02*
X124852Y252600D01*
X126820Y254568D02*
X126164Y254240D01*
X125508Y253584D01*
Y252928D01*
X125836Y252600D01*
X126492D01*
X126820Y252928D01*
Y253256D01*
X126492Y253584D01*
X125508D01*
X274840Y230700D02*
Y232668D01*
X275824D01*
X276152Y232340D01*
Y231684D01*
X275824Y231356D01*
X274840D01*
X275496D02*
X276152Y230700D01*
X276808Y232668D02*
X278120D01*
Y232340D01*
X276808Y231028D01*
Y230700D01*
X225240Y191700D02*
Y193668D01*
X226224D01*
X226552Y193340D01*
Y192684D01*
X226224Y192356D01*
X225240D01*
X225896D02*
X226552Y191700D01*
X227208Y192028D02*
X227536Y191700D01*
X228192D01*
X228520Y192028D01*
Y193340D01*
X228192Y193668D01*
X227536D01*
X227208Y193340D01*
Y193012D01*
X227536Y192684D01*
X228520D01*
X159340Y272900D02*
Y274868D01*
X160324D01*
X160652Y274540D01*
Y273884D01*
X160324Y273556D01*
X159340D01*
X159996D02*
X160652Y272900D01*
X161308D02*
X161964D01*
X161636D01*
Y274868D01*
X161308Y274540D01*
X162948D02*
X163276Y274868D01*
X163932D01*
X164260Y274540D01*
Y273228D01*
X163932Y272900D01*
X163276D01*
X162948Y273228D01*
Y274540D01*
X233740Y191500D02*
Y193468D01*
X234724D01*
X235052Y193140D01*
Y192484D01*
X234724Y192156D01*
X233740D01*
X234396D02*
X235052Y191500D01*
X235708D02*
X236364D01*
X236036D01*
Y193468D01*
X235708Y193140D01*
X237348Y191500D02*
X238004D01*
X237676D01*
Y193468D01*
X237348Y193140D01*
X168940Y272700D02*
Y274668D01*
X169924D01*
X170252Y274340D01*
Y273684D01*
X169924Y273356D01*
X168940D01*
X169596D02*
X170252Y272700D01*
X170908D02*
X171564D01*
X171236D01*
Y274668D01*
X170908Y274340D01*
X173860Y272700D02*
X172548D01*
X173860Y274012D01*
Y274340D01*
X173532Y274668D01*
X172876D01*
X172548Y274340D01*
X99340Y234500D02*
Y236468D01*
X100324D01*
X100652Y236140D01*
Y235484D01*
X100324Y235156D01*
X99340D01*
X99996D02*
X100652Y234500D01*
X101308D02*
X101964D01*
X101636D01*
Y236468D01*
X101308Y236140D01*
X102948D02*
X103276Y236468D01*
X103932D01*
X104260Y236140D01*
Y235812D01*
X103932Y235484D01*
X103604D01*
X103932D01*
X104260Y235156D01*
Y234828D01*
X103932Y234500D01*
X103276D01*
X102948Y234828D01*
X85840Y250200D02*
Y252168D01*
X86824D01*
X87152Y251840D01*
Y251184D01*
X86824Y250856D01*
X85840D01*
X86496D02*
X87152Y250200D01*
X87808D02*
X88464D01*
X88136D01*
Y252168D01*
X87808Y251840D01*
X90432Y250200D02*
Y252168D01*
X89448Y251184D01*
X90760D01*
X102240Y252400D02*
Y254368D01*
X103224D01*
X103552Y254040D01*
Y253384D01*
X103224Y253056D01*
X102240D01*
X102896D02*
X103552Y252400D01*
X104208D02*
X104864D01*
X104536D01*
Y254368D01*
X104208Y254040D01*
X107160Y254368D02*
X105848D01*
Y253384D01*
X106504Y253712D01*
X106832D01*
X107160Y253384D01*
Y252728D01*
X106832Y252400D01*
X106176D01*
X105848Y252728D01*
X265240Y268300D02*
Y270268D01*
X266224D01*
X266552Y269940D01*
Y269284D01*
X266224Y268956D01*
X265240D01*
X265896D02*
X266552Y268300D01*
X267208D02*
X267864D01*
X267536D01*
Y270268D01*
X267208Y269940D01*
X270160Y270268D02*
X269504Y269940D01*
X268848Y269284D01*
Y268628D01*
X269176Y268300D01*
X269832D01*
X270160Y268628D01*
Y268956D01*
X269832Y269284D01*
X268848D01*
X269040Y281800D02*
Y283768D01*
X270024D01*
X270352Y283440D01*
Y282784D01*
X270024Y282456D01*
X269040D01*
X269696D02*
X270352Y281800D01*
X271008D02*
X271664D01*
X271336D01*
Y283768D01*
X271008Y283440D01*
X272648Y283768D02*
X273960D01*
Y283440D01*
X272648Y282128D01*
Y281800D01*
X247440Y193668D02*
X248752D01*
X248096D01*
Y191700D01*
X249408D02*
X250064D01*
X249736D01*
Y193668D01*
X249408Y193340D01*
X184640Y275268D02*
X185952D01*
X185296D01*
Y273300D01*
X187920D02*
X186608D01*
X187920Y274612D01*
Y274940D01*
X187592Y275268D01*
X186936D01*
X186608Y274940D01*
X72040Y250768D02*
X73352D01*
X72696D01*
Y248800D01*
X74008Y250440D02*
X74336Y250768D01*
X74992D01*
X75320Y250440D01*
Y250112D01*
X74992Y249784D01*
X74664D01*
X74992D01*
X75320Y249456D01*
Y249128D01*
X74992Y248800D01*
X74336D01*
X74008Y249128D01*
X257240Y284068D02*
X258552D01*
X257896D01*
Y282100D01*
X260192D02*
Y284068D01*
X259208Y283084D01*
X260520D01*
X83640Y225168D02*
Y223528D01*
X83968Y223200D01*
X84624D01*
X84952Y223528D01*
Y225168D01*
X85608Y223200D02*
X86264D01*
X85936D01*
Y225168D01*
X85608Y224840D01*
X274940Y250700D02*
Y252668D01*
X275924D01*
X276252Y252340D01*
Y251684D01*
X275924Y251356D01*
X274940D01*
X275596D02*
X276252Y250700D01*
X276908Y252340D02*
X277236Y252668D01*
X277892D01*
X278220Y252340D01*
Y252012D01*
X277892Y251684D01*
X278220Y251356D01*
Y251028D01*
X277892Y250700D01*
X277236D01*
X276908Y251028D01*
Y251356D01*
X277236Y251684D01*
X276908Y252012D01*
Y252340D01*
X277236Y251684D02*
X277892D01*
X14240Y277268D02*
Y275300D01*
X15224D01*
X15552Y275628D01*
Y276940D01*
X15224Y277268D01*
X14240D01*
X16208Y275300D02*
X16864D01*
X16536D01*
Y277268D01*
X16208Y276940D01*
X17848D02*
X18176Y277268D01*
X18832D01*
X19160Y276940D01*
Y275628D01*
X18832Y275300D01*
X18176D01*
X17848Y275628D01*
Y276940D01*
X107652Y197640D02*
X107324Y197968D01*
X106668D01*
X106340Y197640D01*
Y196328D01*
X106668Y196000D01*
X107324D01*
X107652Y196328D01*
X108308Y197640D02*
X108636Y197968D01*
X109292D01*
X109620Y197640D01*
Y197312D01*
X109292Y196984D01*
X109620Y196656D01*
Y196328D01*
X109292Y196000D01*
X108636D01*
X108308Y196328D01*
Y196656D01*
X108636Y196984D01*
X108308Y197312D01*
Y197640D01*
X108636Y196984D02*
X109292D01*
X35712Y276640D02*
X35384Y276968D01*
X34728D01*
X34400Y276640D01*
Y275328D01*
X34728Y275000D01*
X35384D01*
X35712Y275328D01*
X36368D02*
X36696Y275000D01*
X37352D01*
X37680Y275328D01*
Y276640D01*
X37352Y276968D01*
X36696D01*
X36368Y276640D01*
Y276312D01*
X36696Y275984D01*
X37680D01*
X45312Y276640D02*
X44984Y276968D01*
X44328D01*
X44000Y276640D01*
Y275328D01*
X44328Y275000D01*
X44984D01*
X45312Y275328D01*
X45968Y275000D02*
X46624D01*
X46296D01*
Y276968D01*
X45968Y276640D01*
X47608D02*
X47936Y276968D01*
X48592D01*
X48920Y276640D01*
Y275328D01*
X48592Y275000D01*
X47936D01*
X47608Y275328D01*
Y276640D01*
X299152Y203140D02*
X298824Y203468D01*
X298168D01*
X297840Y203140D01*
Y201828D01*
X298168Y201500D01*
X298824D01*
X299152Y201828D01*
X299808Y201500D02*
X300464D01*
X300136D01*
Y203468D01*
X299808Y203140D01*
X301448Y201500D02*
X302104D01*
X301776D01*
Y203468D01*
X301448Y203140D01*
X298852Y193840D02*
X298524Y194168D01*
X297868D01*
X297540Y193840D01*
Y192528D01*
X297868Y192200D01*
X298524D01*
X298852Y192528D01*
X299508Y192200D02*
X300164D01*
X299836D01*
Y194168D01*
X299508Y193840D01*
X302460Y192200D02*
X301148D01*
X302460Y193512D01*
Y193840D01*
X302132Y194168D01*
X301476D01*
X301148Y193840D01*
X199452Y215240D02*
X199124Y215568D01*
X198468D01*
X198140Y215240D01*
Y213928D01*
X198468Y213600D01*
X199124D01*
X199452Y213928D01*
X200108Y213600D02*
X200764D01*
X200436D01*
Y215568D01*
X200108Y215240D01*
X201748D02*
X202076Y215568D01*
X202732D01*
X203060Y215240D01*
Y214912D01*
X202732Y214584D01*
X202404D01*
X202732D01*
X203060Y214256D01*
Y213928D01*
X202732Y213600D01*
X202076D01*
X201748Y213928D01*
X60152Y199640D02*
X59824Y199968D01*
X59168D01*
X58840Y199640D01*
Y198328D01*
X59168Y198000D01*
X59824D01*
X60152Y198328D01*
X60808Y198000D02*
X61464D01*
X61136D01*
Y199968D01*
X60808Y199640D01*
X63432Y198000D02*
Y199968D01*
X62448Y198984D01*
X63760D01*
X120340Y285000D02*
Y286968D01*
X121324D01*
X121652Y286640D01*
Y285984D01*
X121324Y285656D01*
X120340D01*
X122308Y285000D02*
X122964D01*
X122636D01*
Y286968D01*
X122308Y286640D01*
X124932Y285000D02*
Y286968D01*
X123948Y285984D01*
X125260D01*
X70640Y285000D02*
Y286968D01*
X71624D01*
X71952Y286640D01*
Y285984D01*
X71624Y285656D01*
X70640D01*
X72608Y285000D02*
X73264D01*
X72936D01*
Y286968D01*
X72608Y286640D01*
X74248D02*
X74576Y286968D01*
X75232D01*
X75560Y286640D01*
Y286312D01*
X75232Y285984D01*
X74904D01*
X75232D01*
X75560Y285656D01*
Y285328D01*
X75232Y285000D01*
X74576D01*
X74248Y285328D01*
X296440Y243700D02*
Y245668D01*
X297424D01*
X297752Y245340D01*
Y244684D01*
X297424Y244356D01*
X296440D01*
X299720Y245668D02*
X299064Y245340D01*
X298408Y244684D01*
Y244028D01*
X298736Y243700D01*
X299392D01*
X299720Y244028D01*
Y244356D01*
X299392Y244684D01*
X298408D01*
X229140Y285000D02*
Y286968D01*
X230124D01*
X230452Y286640D01*
Y285984D01*
X230124Y285656D01*
X229140D01*
X231108Y286968D02*
X232420D01*
Y286640D01*
X231108Y285328D01*
Y285000D01*
X27340Y242400D02*
Y244368D01*
X28324D01*
X28652Y244040D01*
Y243384D01*
X28324Y243056D01*
X27340D01*
X30292Y242400D02*
Y244368D01*
X29308Y243384D01*
X30620D01*
M02*
