%FSLAX25Y25*%
%MOIN*%
G70*
G01*
G75*
G04 Layer_Color=8388736*
%ADD10R,0.05118X0.03937*%
%ADD11R,0.03937X0.05118*%
%ADD12R,0.04921X0.06299*%
%ADD13R,0.06299X0.04921*%
%ADD14R,0.04724X0.02559*%
%ADD15O,0.02362X0.09449*%
%ADD16R,0.02362X0.09449*%
%ADD17O,0.02362X0.08661*%
%ADD18R,0.02362X0.08661*%
%ADD19R,0.07284X0.04724*%
%ADD20O,0.15748X0.05906*%
%ADD21R,0.15748X0.05906*%
%ADD22O,0.15748X0.05906*%
%ADD23O,0.05906X0.15748*%
%ADD24R,0.05906X0.15748*%
%ADD25O,0.05906X0.15748*%
%ADD26C,0.01200*%
%ADD27C,0.03937*%
%ADD28C,0.01000*%
%ADD29C,0.02000*%
%ADD30C,0.03150*%
%ADD31C,0.00472*%
%ADD32C,0.27559*%
%ADD33C,0.05906*%
%ADD34R,0.05906X0.05906*%
G04:AMPARAMS|DCode=35|XSize=78.74mil|YSize=60mil|CornerRadius=0mil|HoleSize=0mil|Usage=FLASHONLY|Rotation=0.000|XOffset=0mil|YOffset=0mil|HoleType=Round|Shape=Octagon|*
%AMOCTAGOND35*
4,1,8,0.03937,-0.01500,0.03937,0.01500,0.02437,0.03000,-0.02437,0.03000,-0.03937,0.01500,-0.03937,-0.01500,-0.02437,-0.03000,0.02437,-0.03000,0.03937,-0.01500,0.0*
%
%ADD35OCTAGOND35*%

%ADD36C,0.05000*%
%ADD37C,0.00787*%
%ADD38C,0.00984*%
%ADD39C,0.00394*%
%ADD40R,0.05918X0.04737*%
%ADD41R,0.04737X0.05918*%
%ADD42R,0.05721X0.07099*%
%ADD43R,0.07099X0.05721*%
%ADD44R,0.05524X0.03359*%
%ADD45O,0.03162X0.10249*%
%ADD46R,0.03162X0.10249*%
%ADD47O,0.03162X0.09461*%
%ADD48R,0.03162X0.09461*%
%ADD49R,0.08083X0.05524*%
%ADD50O,0.16548X0.06706*%
%ADD51R,0.16548X0.06706*%
%ADD52O,0.16548X0.06706*%
%ADD53O,0.06706X0.16548*%
%ADD54R,0.06706X0.16548*%
%ADD55O,0.06706X0.16548*%
%ADD56C,0.28359*%
%ADD57C,0.06706*%
%ADD58R,0.06706X0.06706*%
G04:AMPARAMS|DCode=59|XSize=86.74mil|YSize=68mil|CornerRadius=0mil|HoleSize=0mil|Usage=FLASHONLY|Rotation=0.000|XOffset=0mil|YOffset=0mil|HoleType=Round|Shape=Octagon|*
%AMOCTAGOND59*
4,1,8,0.04337,-0.01700,0.04337,0.01700,0.02637,0.03400,-0.02637,0.03400,-0.04337,0.01700,-0.04337,-0.01700,-0.02637,-0.03400,0.02637,-0.03400,0.04337,-0.01700,0.0*
%
%ADD59OCTAGOND59*%

%ADD60C,0.05800*%
D40*
X191740Y227037D02*
D03*
Y219163D02*
D03*
X104740Y257337D02*
D03*
Y249463D02*
D03*
X49260Y195063D02*
D03*
Y202937D02*
D03*
X96000Y200937D02*
D03*
Y193063D02*
D03*
X84000Y200937D02*
D03*
Y193063D02*
D03*
X57040Y220663D02*
D03*
Y228537D02*
D03*
X67740Y220663D02*
D03*
Y228537D02*
D03*
X25500Y272063D02*
D03*
Y279937D02*
D03*
X191540Y209437D02*
D03*
Y201563D02*
D03*
X149340Y277937D02*
D03*
Y270063D02*
D03*
X243440Y251263D02*
D03*
Y259137D02*
D03*
X140140Y277887D02*
D03*
Y270013D02*
D03*
X204340Y250963D02*
D03*
Y258837D02*
D03*
X164840Y250563D02*
D03*
Y258437D02*
D03*
X125190Y249613D02*
D03*
Y257487D02*
D03*
X276500Y235637D02*
D03*
Y227763D02*
D03*
X226840Y188763D02*
D03*
Y196637D02*
D03*
X161840Y269963D02*
D03*
Y277837D02*
D03*
X235840Y196437D02*
D03*
Y188563D02*
D03*
X171440Y277637D02*
D03*
Y269763D02*
D03*
X101800Y231563D02*
D03*
Y239437D02*
D03*
X88340Y247263D02*
D03*
Y255137D02*
D03*
X271540Y278863D02*
D03*
Y286737D02*
D03*
X276600Y255637D02*
D03*
Y247763D02*
D03*
X115340Y249463D02*
D03*
Y257337D02*
D03*
X61260Y195063D02*
D03*
Y202937D02*
D03*
X108000Y193063D02*
D03*
Y200937D02*
D03*
X46500Y279937D02*
D03*
Y272063D02*
D03*
X36000Y279937D02*
D03*
Y272063D02*
D03*
X200640Y218537D02*
D03*
Y210663D02*
D03*
D41*
X261937Y222000D02*
D03*
X254063D02*
D03*
X261937Y232500D02*
D03*
X254063D02*
D03*
X263763Y269310D02*
D03*
X271637D02*
D03*
X296063Y193200D02*
D03*
X303937D02*
D03*
X296063Y202500D02*
D03*
X303937D02*
D03*
D42*
X68932Y239000D02*
D03*
X55349D02*
D03*
X295409Y212400D02*
D03*
X308991D02*
D03*
X79391Y260300D02*
D03*
X65809D02*
D03*
D43*
X215700Y292391D02*
D03*
Y278809D02*
D03*
X245900Y293391D02*
D03*
Y279809D02*
D03*
X16700Y283091D02*
D03*
Y269509D02*
D03*
D44*
X243516Y188960D02*
D03*
Y196440D02*
D03*
X253965Y192700D02*
D03*
X181016Y270560D02*
D03*
Y278040D02*
D03*
X191465Y274300D02*
D03*
X78924Y253540D02*
D03*
Y246060D02*
D03*
X68476Y249800D02*
D03*
X264065Y286840D02*
D03*
Y279360D02*
D03*
X253616Y283100D02*
D03*
D45*
X92490Y234043D02*
D03*
X87490D02*
D03*
X82490D02*
D03*
X77490D02*
D03*
X92490Y214357D02*
D03*
X87490D02*
D03*
X82490D02*
D03*
D46*
X77490D02*
D03*
D47*
X139140Y233649D02*
D03*
Y194751D02*
D03*
X144140D02*
D03*
Y233649D02*
D03*
X179140D02*
D03*
X174140D02*
D03*
X169140D02*
D03*
X164140D02*
D03*
X159140D02*
D03*
X154140D02*
D03*
X179140Y194751D02*
D03*
X174140D02*
D03*
X169140D02*
D03*
X164140D02*
D03*
X159140D02*
D03*
X154140D02*
D03*
X149140D02*
D03*
X184140D02*
D03*
X149140Y233649D02*
D03*
D48*
X184140D02*
D03*
D49*
X256279Y246941D02*
D03*
Y259539D02*
D03*
X216909Y246941D02*
D03*
Y259539D02*
D03*
X177539Y246941D02*
D03*
Y259539D02*
D03*
X138169Y246941D02*
D03*
Y259539D02*
D03*
D50*
X42050Y253240D02*
D03*
D51*
X15900D02*
D03*
D52*
X42050Y243240D02*
D03*
X15902D02*
D03*
X15903Y233240D02*
D03*
X42052D02*
D03*
D53*
X236000Y272927D02*
D03*
Y299076D02*
D03*
X298300Y257737D02*
D03*
Y231588D02*
D03*
X308300Y231590D02*
D03*
Y257738D02*
D03*
X78300Y272927D02*
D03*
Y299076D02*
D03*
X128000Y272927D02*
D03*
Y299076D02*
D03*
D54*
X226000Y272925D02*
D03*
X288300Y231587D02*
D03*
X68300Y272925D02*
D03*
X118000D02*
D03*
D55*
X226000Y299076D02*
D03*
X288300Y257737D02*
D03*
X68300Y299076D02*
D03*
X118000D02*
D03*
D56*
X301161Y298516D02*
D03*
X13759Y188279D02*
D03*
D57*
X159040Y184500D02*
D03*
X169040D02*
D03*
X179040D02*
D03*
X189040D02*
D03*
X199040D02*
D03*
D58*
X209040D02*
D03*
D59*
X256279Y253240D02*
D03*
X216909D02*
D03*
X177539D02*
D03*
X138169D02*
D03*
D60*
X94000Y269000D02*
D03*
X118000Y235000D02*
D03*
X44000Y264000D02*
D03*
X46737Y220663D02*
D03*
X248500Y269410D02*
D03*
X70940Y203300D02*
D03*
X199340Y201600D02*
D03*
X164340Y223200D02*
D03*
X173740Y222400D02*
D03*
X235540Y251400D02*
D03*
X131340Y204300D02*
D03*
X105040Y265300D02*
D03*
X190440Y234000D02*
D03*
X27140Y288400D02*
D03*
X4600Y243100D02*
D03*
X17100Y223300D02*
D03*
X104970Y221700D02*
D03*
X56100Y305700D02*
D03*
X85400Y304900D02*
D03*
X216600Y305500D02*
D03*
X253500Y210000D02*
D03*
X286300Y212500D02*
D03*
X245600Y180200D02*
D03*
X231400Y241600D02*
D03*
X280800Y287300D02*
D03*
X196900Y267700D02*
D03*
X154500Y306000D02*
D03*
X132000Y233900D02*
D03*
X138000Y299000D02*
D03*
X97500D02*
D03*
M02*
