%FSLAX25Y25*%
%MOIN*%
G70*
G01*
G75*
G04 Layer_Physical_Order=1*
G04 Layer_Color=255*
%ADD10R,0.05118X0.03937*%
%ADD11R,0.03937X0.05118*%
%ADD12R,0.04921X0.06299*%
%ADD13R,0.06299X0.04921*%
%ADD14R,0.04724X0.02559*%
%ADD15O,0.02362X0.09449*%
%ADD16R,0.02362X0.09449*%
%ADD17O,0.02362X0.08661*%
%ADD18R,0.02362X0.08661*%
%ADD19R,0.07284X0.04724*%
%ADD20O,0.15748X0.05906*%
%ADD21R,0.15748X0.05906*%
%ADD22O,0.15748X0.05906*%
%ADD23O,0.05906X0.15748*%
%ADD24R,0.05906X0.15748*%
%ADD25O,0.05906X0.15748*%
%ADD26C,0.01200*%
%ADD27C,0.03937*%
%ADD28C,0.01000*%
%ADD29C,0.02000*%
%ADD30C,0.03150*%
%ADD31C,0.00472*%
%ADD32C,0.27559*%
%ADD33C,0.05906*%
%ADD34R,0.05906X0.05906*%
G04:AMPARAMS|DCode=35|XSize=78.74mil|YSize=60mil|CornerRadius=0mil|HoleSize=0mil|Usage=FLASHONLY|Rotation=0.000|XOffset=0mil|YOffset=0mil|HoleType=Round|Shape=Octagon|*
%AMOCTAGOND35*
4,1,8,0.03937,-0.01500,0.03937,0.01500,0.02437,0.03000,-0.02437,0.03000,-0.03937,0.01500,-0.03937,-0.01500,-0.02437,-0.03000,0.02437,-0.03000,0.03937,-0.01500,0.0*
%
%ADD35OCTAGOND35*%

%ADD36C,0.05000*%
G36*
X303550Y251342D02*
X303974Y250320D01*
X304768Y249285D01*
X305678Y248587D01*
Y240741D01*
X304768Y240043D01*
X303974Y239009D01*
X303550Y237985D01*
X303050D01*
X302626Y239007D01*
X302303Y239429D01*
Y244500D01*
X302303Y244500D01*
X302303Y244500D01*
Y244500D01*
Y249896D01*
X302626Y250318D01*
X303050Y251342D01*
X303550D01*
D02*
G37*
G36*
X289550Y309219D02*
X288355Y307819D01*
X287057Y305702D01*
X286107Y303407D01*
X285527Y300992D01*
X285332Y298516D01*
X285527Y296040D01*
X286107Y293624D01*
X287057Y291330D01*
X288355Y289212D01*
X289968Y287323D01*
X291857Y285710D01*
X293975Y284413D01*
X296269Y283462D01*
X298685Y282882D01*
X301161Y282687D01*
X303637Y282882D01*
X306052Y283462D01*
X308347Y284413D01*
X310464Y285710D01*
X311864Y286906D01*
X312318Y286696D01*
Y266337D01*
X311844Y266177D01*
X311832Y266192D01*
X310798Y266986D01*
X309593Y267485D01*
X308300Y267655D01*
X307007Y267485D01*
X305802Y266986D01*
X304768Y266192D01*
X303974Y265158D01*
X303550Y264134D01*
X303050D01*
X302626Y265156D01*
X301832Y266191D01*
X300798Y266985D01*
X299593Y267483D01*
X298300Y267654D01*
X297007Y267483D01*
X295802Y266985D01*
X294768Y266191D01*
X293974Y265156D01*
X293550Y264133D01*
X293050D01*
X292626Y265156D01*
X291832Y266191D01*
X290798Y266985D01*
X289593Y267483D01*
X288300Y267654D01*
X287007Y267483D01*
X285802Y266985D01*
X284768Y266191D01*
X283974Y265156D01*
X283475Y263951D01*
X283305Y262658D01*
Y258260D01*
X281159D01*
Y259606D01*
X272041D01*
Y258247D01*
X271458Y258170D01*
X270826Y257908D01*
X270283Y257491D01*
X270283Y257491D01*
X265196Y252405D01*
X264900Y252543D01*
X264747Y252660D01*
X264806Y253344D01*
X264664Y254622D01*
X264276Y255848D01*
X263656Y256975D01*
X262828Y257959D01*
X261920Y258685D01*
Y263902D01*
X250637D01*
Y262162D01*
X247999D01*
Y263106D01*
X238881D01*
Y255169D01*
Y255074D01*
X238433Y254853D01*
X237810Y255331D01*
X236715Y255784D01*
X235540Y255939D01*
X234365Y255784D01*
X233271Y255331D01*
X232331Y254609D01*
X231609Y253669D01*
X231156Y252575D01*
X231001Y251400D01*
X231156Y250225D01*
X231609Y249131D01*
X232331Y248191D01*
X233271Y247469D01*
X234365Y247016D01*
X235540Y246861D01*
X236715Y247016D01*
X237810Y247469D01*
X238433Y247947D01*
X238881Y247726D01*
Y247294D01*
X247999D01*
Y250141D01*
X248483Y250265D01*
X248902Y249506D01*
X249729Y248522D01*
X250637Y247795D01*
Y247441D01*
X251267D01*
X251874Y247126D01*
X253109Y246768D01*
X254391Y246657D01*
X255779Y246674D01*
X255966Y246676D01*
X256278Y246680D01*
X258327Y246705D01*
X259605Y246847D01*
X260831Y247235D01*
X261205Y247441D01*
X261920D01*
Y247835D01*
X261958Y247855D01*
X262941Y248683D01*
X263745Y249687D01*
X263892Y249970D01*
X264378Y249852D01*
Y237059D01*
X250095D01*
Y235122D01*
X248800D01*
X248800Y235122D01*
X248121Y235033D01*
X247489Y234771D01*
X246946Y234354D01*
X246946Y234354D01*
X245346Y232754D01*
X244929Y232211D01*
X244667Y231579D01*
X244578Y230900D01*
X244578Y230900D01*
Y208786D01*
X240914Y205122D01*
X222000D01*
X222000Y205122D01*
X221321Y205033D01*
X220689Y204771D01*
X220146Y204354D01*
X220146Y204354D01*
X212914Y197122D01*
X201571D01*
X201473Y197613D01*
X201610Y197669D01*
X202550Y198391D01*
X203271Y199331D01*
X203724Y200425D01*
X203879Y201600D01*
X203724Y202775D01*
X203271Y203869D01*
X202550Y204809D01*
X201610Y205531D01*
X200515Y205984D01*
X199340Y206139D01*
X198165Y205984D01*
X197071Y205531D01*
X196548Y205129D01*
X196099Y205350D01*
Y205469D01*
Y206695D01*
X200140D01*
Y210664D01*
X200639D01*
Y211163D01*
X205199D01*
Y214568D01*
Y222505D01*
X196299D01*
Y223068D01*
Y231006D01*
X194380D01*
X194159Y231454D01*
X194371Y231731D01*
X194824Y232825D01*
X194979Y234000D01*
X194824Y235175D01*
X194371Y236269D01*
X193650Y237209D01*
X192710Y237931D01*
X191615Y238384D01*
X190440Y238539D01*
Y238624D01*
X190794Y238978D01*
X201940D01*
X201940Y238978D01*
X202619Y239067D01*
X203251Y239329D01*
X203795Y239746D01*
X206795Y242746D01*
X206795Y242746D01*
X207211Y243289D01*
X207473Y243921D01*
X207563Y244600D01*
X207563Y244600D01*
Y246994D01*
X208899D01*
Y249650D01*
X209384Y249775D01*
X209531Y249506D01*
X210359Y248522D01*
X211267Y247795D01*
Y247441D01*
X211897D01*
X212504Y247126D01*
X213739Y246768D01*
X215020Y246657D01*
X216409Y246674D01*
X216569Y246676D01*
X216908Y246680D01*
X218957Y246705D01*
X220235Y246847D01*
X221461Y247235D01*
X221835Y247441D01*
X222550D01*
Y247835D01*
X222587Y247855D01*
X223571Y248683D01*
X224375Y249687D01*
X224967Y250828D01*
X225325Y252063D01*
X225436Y253344D01*
X225294Y254622D01*
X224906Y255848D01*
X224286Y256975D01*
X223458Y257959D01*
X222550Y258685D01*
Y263051D01*
X230953D01*
Y265967D01*
X231443Y266065D01*
X231674Y265508D01*
X232468Y264473D01*
X233502Y263679D01*
X234707Y263180D01*
X236000Y263010D01*
X237293Y263180D01*
X238498Y263679D01*
X239532Y264473D01*
X240326Y265508D01*
X240825Y266713D01*
X240996Y268005D01*
Y269321D01*
X242927D01*
X243860Y269444D01*
X244002Y269102D01*
X244116Y268235D01*
X244569Y267141D01*
X245291Y266201D01*
X246231Y265479D01*
X247325Y265026D01*
X248500Y264871D01*
X249675Y265026D01*
X250769Y265479D01*
X251709Y266201D01*
X252160Y266788D01*
X259794D01*
Y264751D01*
X275606D01*
Y273869D01*
X274259D01*
Y274894D01*
X276099D01*
Y282769D01*
Y285608D01*
X276590Y285706D01*
X276869Y285031D01*
X277591Y284091D01*
X278531Y283369D01*
X279625Y282916D01*
X280300Y282827D01*
Y287299D01*
Y291773D01*
X279625Y291684D01*
X278531Y291231D01*
X277591Y290509D01*
X276869Y289569D01*
X276590Y288894D01*
X276099Y288992D01*
Y290705D01*
X272040D01*
Y286736D01*
X271040D01*
Y290705D01*
X266981D01*
Y290120D01*
X264565D01*
Y286839D01*
Y283561D01*
X266981D01*
Y282769D01*
Y282639D01*
X259702D01*
Y276080D01*
X266981D01*
Y274894D01*
X269015D01*
Y273869D01*
X259794D01*
Y272033D01*
X252160D01*
X251709Y272620D01*
X250769Y273341D01*
X249675Y273794D01*
X249118Y273868D01*
X249023Y274097D01*
X249383Y274967D01*
X249433Y275348D01*
X251050D01*
Y279494D01*
X253616D01*
X254549Y279617D01*
X255040Y279820D01*
X257978D01*
Y286380D01*
X255040D01*
X254549Y286583D01*
X253616Y286706D01*
X249191D01*
X248258Y286583D01*
X247389Y286223D01*
X246642Y285650D01*
X245262Y284269D01*
X240750D01*
Y280571D01*
X240277Y280410D01*
X239532Y281380D01*
X238498Y282174D01*
X237293Y282673D01*
X236000Y282843D01*
X234707Y282673D01*
X233502Y282174D01*
X232468Y281380D01*
X231674Y280346D01*
X231443Y279789D01*
X230953Y279887D01*
Y282799D01*
X221047D01*
D01*
X221047D01*
X220850Y282997D01*
Y283269D01*
X210550D01*
Y276531D01*
X202568D01*
X202250Y276850D01*
X201503Y277423D01*
X201248Y277528D01*
X200633Y277783D01*
X199700Y277906D01*
X191465D01*
X190531Y277783D01*
X190041Y277579D01*
X187102D01*
Y271021D01*
X190041D01*
X190531Y270817D01*
X191465Y270694D01*
X192960D01*
X193181Y270246D01*
X192969Y269969D01*
X192516Y268875D01*
X192427Y268200D01*
X201373D01*
X201284Y268875D01*
X201272Y268904D01*
X201550Y269320D01*
X221047D01*
Y263902D01*
X211267D01*
Y262162D01*
X208899D01*
Y262806D01*
X199781D01*
Y254869D01*
Y246994D01*
X202318D01*
Y245686D01*
X200854Y244222D01*
X183180D01*
Y246441D01*
X177538D01*
Y246680D01*
X179587Y246705D01*
X180865Y246847D01*
X182091Y247235D01*
X182465Y247441D01*
X183180D01*
Y247835D01*
X183217Y247855D01*
X184201Y248683D01*
X185005Y249687D01*
X185597Y250828D01*
X185955Y252063D01*
X186066Y253344D01*
X185924Y254622D01*
X185536Y255848D01*
X184916Y256975D01*
X184088Y257959D01*
X183180Y258685D01*
Y263902D01*
X171897D01*
Y262162D01*
X169399D01*
Y262405D01*
X161767D01*
X161576Y262867D01*
X163854Y265146D01*
X163854Y265146D01*
X164271Y265689D01*
X164398Y265995D01*
X166399D01*
Y265995D01*
X166681D01*
X166881Y265794D01*
Y265794D01*
X170940D01*
Y269764D01*
X171439D01*
Y270263D01*
X175999D01*
Y273669D01*
Y275418D01*
X176654D01*
Y274761D01*
X185378D01*
Y281320D01*
X176654D01*
Y280663D01*
X175999D01*
Y281606D01*
X166881D01*
Y281606D01*
X166599D01*
X166399Y281805D01*
Y281805D01*
X157281D01*
Y273868D01*
Y265995D01*
X157281Y265995D01*
X157281D01*
X157282Y265991D01*
X152286Y260995D01*
X152136Y260799D01*
X151663Y260960D01*
Y266094D01*
X153899D01*
Y273969D01*
Y278787D01*
X155694Y280583D01*
X155694Y280583D01*
X156111Y281126D01*
X156373Y281758D01*
X156463Y282437D01*
X156463Y282437D01*
Y301942D01*
X156769Y302069D01*
X157709Y302791D01*
X158431Y303731D01*
X158884Y304825D01*
X159039Y306000D01*
X158884Y307175D01*
X158431Y308269D01*
X157709Y309209D01*
X157867Y309673D01*
X213868D01*
X214029Y309199D01*
X213391Y308709D01*
X212669Y307769D01*
X212216Y306675D01*
X212061Y305500D01*
X212136Y304930D01*
X211807Y304554D01*
X167769D01*
Y296854D01*
X171768D01*
Y293248D01*
X183010D01*
Y296854D01*
X193769D01*
Y293248D01*
X205011D01*
Y296854D01*
X210550D01*
Y296852D01*
X210550D01*
Y287931D01*
X220850D01*
Y292365D01*
X221340Y292462D01*
X221674Y291657D01*
X222468Y290622D01*
X223502Y289828D01*
X224707Y289329D01*
X226000Y289159D01*
X227293Y289329D01*
X228498Y289828D01*
X229532Y290622D01*
X230326Y291657D01*
X230750Y292680D01*
X231250D01*
X231674Y291657D01*
X232468Y290622D01*
X233502Y289828D01*
X234707Y289329D01*
X236000Y289159D01*
X237293Y289329D01*
X238498Y289828D01*
X239532Y290622D01*
X240277Y291592D01*
X240750Y291432D01*
Y288931D01*
X251050D01*
Y297852D01*
X249804D01*
X249766Y298136D01*
X249649Y298419D01*
X249366Y299101D01*
X248730Y299930D01*
X246755Y301906D01*
X245926Y302542D01*
X245243Y302825D01*
X244960Y302942D01*
X243924Y303078D01*
X240996D01*
Y303997D01*
X240825Y305290D01*
X240326Y306495D01*
X239532Y307529D01*
X238498Y308323D01*
X237293Y308822D01*
X236000Y308992D01*
X234707Y308822D01*
X233502Y308323D01*
X232468Y307529D01*
X231674Y306495D01*
X231250Y305471D01*
X230750D01*
X230326Y306495D01*
X229532Y307529D01*
X228498Y308323D01*
X228155Y308465D01*
X227501Y308966D01*
X226536Y309366D01*
X225500Y309503D01*
X225670Y309673D01*
X289341D01*
X289550Y309219D01*
D02*
G37*
G36*
X283305Y252816D02*
X283475Y251523D01*
X283974Y250318D01*
X284768Y249283D01*
X285802Y248489D01*
X287007Y247990D01*
X288300Y247820D01*
X289593Y247990D01*
X290798Y248489D01*
X291832Y249283D01*
X292626Y250318D01*
X293050Y251341D01*
X293550D01*
X293974Y250318D01*
X294297Y249896D01*
Y247049D01*
X281159D01*
Y251669D01*
Y253015D01*
X283305D01*
Y252816D01*
D02*
G37*
G36*
X8483Y238914D02*
X9506Y238490D01*
Y237990D01*
X8484Y237566D01*
X7450Y236772D01*
X6656Y235738D01*
X6157Y234533D01*
X5986Y233240D01*
X6157Y231947D01*
X6656Y230742D01*
X7450Y229708D01*
X8484Y228914D01*
X9689Y228415D01*
X10982Y228245D01*
X13097D01*
Y225396D01*
X12716Y224475D01*
X12561Y223300D01*
X12716Y222125D01*
X13169Y221031D01*
X13743Y220282D01*
X13522Y219834D01*
X5528D01*
Y212528D01*
Y208528D01*
Y204528D01*
X12724D01*
X12744Y204028D01*
X11283Y203913D01*
X8868Y203333D01*
X6573Y202383D01*
X4455Y201085D01*
X3056Y199890D01*
X2602Y200099D01*
Y238607D01*
X3018Y238885D01*
X3425Y238716D01*
X4600Y238561D01*
X5775Y238716D01*
X6869Y239169D01*
X6958Y239237D01*
X8061D01*
X8483Y238914D01*
D02*
G37*
G36*
X303550Y225193D02*
X303974Y224171D01*
X304768Y223136D01*
X305802Y222342D01*
X306369Y222108D01*
Y217550D01*
X304531D01*
Y207250D01*
D01*
Y207250D01*
X304339Y207059D01*
X299869D01*
Y207250D01*
X299869D01*
Y217309D01*
X301130Y218570D01*
X301766Y219399D01*
X301932Y219798D01*
X302166Y220364D01*
X302303Y221400D01*
Y223748D01*
X302626Y224169D01*
X303050Y225193D01*
X303550D01*
D02*
G37*
G36*
X283347Y241461D02*
X283347D01*
Y230312D01*
X281059D01*
Y231668D01*
Y239605D01*
X279149D01*
Y241951D01*
X283347D01*
Y241461D01*
D02*
G37*
G36*
X53268Y309199D02*
X52891Y308909D01*
X52169Y307969D01*
X51716Y306875D01*
X51561Y305700D01*
X51716Y304525D01*
X52169Y303431D01*
X52891Y302491D01*
X53278Y302194D01*
Y285420D01*
X53078Y285160D01*
X52816Y284528D01*
X52726Y283849D01*
X52726Y283849D01*
Y244150D01*
X51847D01*
X51797Y244533D01*
X51298Y245738D01*
X50504Y246773D01*
X49469Y247566D01*
X48265Y248065D01*
X47151Y248212D01*
D01*
D01*
X47200Y248267D01*
X48265Y248415D01*
D01*
X48265D01*
X48265Y248415D01*
X49469Y248914D01*
X50504Y249708D01*
X51298Y250742D01*
X51797Y251947D01*
X51901Y252740D01*
X32199D01*
X32304Y251947D01*
X32803Y250742D01*
X33597Y249708D01*
X34631Y248914D01*
X35655Y248490D01*
Y247990D01*
X34631Y247566D01*
X33597Y246773D01*
X32803Y245738D01*
X32304Y244533D01*
X32199Y243740D01*
X42051D01*
Y242740D01*
X32199D01*
X32304Y241947D01*
X32803Y240742D01*
X33597Y239708D01*
X34631Y238914D01*
X35655Y238490D01*
Y237990D01*
X34633Y237566D01*
X33598Y236772D01*
X32805Y235738D01*
X32305Y234533D01*
X32135Y233240D01*
X32305Y231947D01*
X32805Y230742D01*
X33598Y229708D01*
X34633Y228914D01*
X35838Y228415D01*
X36351Y228347D01*
Y198000D01*
X36545Y197025D01*
X37098Y196198D01*
X40035Y193261D01*
X40035Y193261D01*
X40035D01*
X40035Y193261D01*
X40035D01*
X40035Y193261D01*
Y193261D01*
Y193261D01*
D01*
D01*
X40035D01*
Y193261D01*
X40862Y192708D01*
X41837Y192514D01*
X44701D01*
Y191095D01*
X53819D01*
Y192514D01*
X56701D01*
Y191095D01*
X65819D01*
Y192514D01*
X67781D01*
X76898Y183398D01*
X77724Y182845D01*
X78700Y182651D01*
X145600D01*
X146575Y182845D01*
X147402Y183398D01*
X149921Y185916D01*
X150370Y185695D01*
X150318Y185300D01*
X150318Y185300D01*
Y181400D01*
X150318Y181400D01*
X150407Y180721D01*
X150669Y180089D01*
X151086Y179546D01*
X153047Y177584D01*
X152856Y177122D01*
X72444D01*
Y177122D01*
Y177461D01*
X72444Y177476D01*
X72444Y177476D01*
X72444D01*
Y185554D01*
X67541D01*
Y190554D01*
X39768D01*
Y185554D01*
X38769D01*
Y177476D01*
X38769Y177476D01*
X38769D01*
X38769Y177461D01*
X38430Y177122D01*
X25579D01*
X25369Y177576D01*
X26564Y178976D01*
X27862Y181094D01*
X28813Y183388D01*
X29392Y185803D01*
X29587Y188279D01*
X29392Y190756D01*
X28813Y193171D01*
X27862Y195465D01*
X26564Y197583D01*
X24951Y199472D01*
X23063Y201085D01*
X20945Y202383D01*
X18650Y203333D01*
X16235Y203913D01*
X13759Y204108D01*
Y204174D01*
X14113Y204528D01*
X34492D01*
Y211834D01*
X29770D01*
Y212528D01*
Y219834D01*
X20678D01*
X20457Y220282D01*
X21031Y221031D01*
X21484Y222125D01*
X21639Y223300D01*
X21484Y224475D01*
X21103Y225396D01*
Y228281D01*
X22117Y228415D01*
X23322Y228914D01*
X24357Y229708D01*
X25151Y230742D01*
X25650Y231947D01*
X25820Y233240D01*
X25650Y234533D01*
X25151Y235738D01*
X24357Y236772D01*
X23322Y237566D01*
X22298Y237990D01*
Y238491D01*
X23321Y238914D01*
X24355Y239708D01*
X25149Y240742D01*
X25648Y241947D01*
X25818Y243240D01*
X25648Y244533D01*
X25149Y245738D01*
X24355Y246773D01*
X23321Y247566D01*
X22116Y248065D01*
X20823Y248236D01*
X20875Y248287D01*
X25774D01*
Y258193D01*
X21182D01*
Y265048D01*
X21850D01*
Y268094D01*
X25000D01*
Y272064D01*
X25499D01*
Y272563D01*
X30059D01*
Y275969D01*
Y278488D01*
X31441D01*
Y275969D01*
Y272563D01*
X40559D01*
Y275969D01*
Y278488D01*
X41941D01*
Y275969D01*
Y272563D01*
X51059D01*
Y275969D01*
Y283906D01*
X41941D01*
Y283586D01*
X40559D01*
Y283906D01*
X31441D01*
Y283586D01*
X30059D01*
Y283906D01*
X29763D01*
Y284740D01*
X30350Y285191D01*
X31071Y286131D01*
X31524Y287225D01*
X31679Y288400D01*
X31524Y289575D01*
X31071Y290669D01*
X30350Y291609D01*
X29410Y292331D01*
X28315Y292784D01*
X27140Y292939D01*
X25965Y292784D01*
X24871Y292331D01*
X23931Y291609D01*
X23209Y290669D01*
X22756Y289575D01*
X22601Y288400D01*
X22756Y287225D01*
X22870Y286950D01*
X22516Y286597D01*
X21927Y286841D01*
X21850Y286873D01*
Y287552D01*
X11550D01*
Y278631D01*
X19409D01*
X19933Y278107D01*
X20762Y277470D01*
X20941Y277396D01*
Y275969D01*
Y273969D01*
X17847D01*
X17179Y274057D01*
X16512Y273969D01*
X11550D01*
Y265048D01*
X13177D01*
Y258193D01*
X6026D01*
Y248287D01*
X8942D01*
X9039Y247797D01*
X8483Y247566D01*
X8061Y247243D01*
X6357D01*
X5775Y247484D01*
X4600Y247639D01*
X3425Y247484D01*
X3018Y247315D01*
X2602Y247593D01*
Y309673D01*
X53108D01*
X53268Y309199D01*
D02*
G37*
G36*
X272041Y251179D02*
Y243794D01*
X274051D01*
Y239605D01*
X271941D01*
Y231668D01*
Y226809D01*
X269681Y224549D01*
X265905D01*
Y226559D01*
X250095D01*
D01*
X250095D01*
X249822Y226831D01*
Y227941D01*
X250095D01*
Y227941D01*
X265905D01*
Y229931D01*
X266179Y229967D01*
X266811Y230229D01*
X267354Y230646D01*
X268854Y232146D01*
X268854Y232146D01*
X269271Y232689D01*
X269533Y233321D01*
X269622Y234000D01*
X269622Y234000D01*
Y249414D01*
X271579Y251370D01*
X272041Y251179D01*
D02*
G37*
G36*
X73974Y291657D02*
X74768Y290622D01*
X75678Y289924D01*
Y282079D01*
X74768Y281380D01*
X73974Y280346D01*
X73743Y279789D01*
X73253Y279887D01*
Y282799D01*
X70922D01*
Y289924D01*
X71832Y290622D01*
X72626Y291657D01*
X73050Y292680D01*
X73550D01*
X73974Y291657D01*
D02*
G37*
G36*
X160281Y260919D02*
Y254468D01*
Y246595D01*
X162078D01*
Y246040D01*
X162077Y246040D01*
X162167Y245361D01*
X162429Y244729D01*
X162846Y244186D01*
X166518Y240514D01*
Y239549D01*
X166069Y239328D01*
X165744Y239577D01*
X164971Y239898D01*
X164140Y240007D01*
X163310Y239898D01*
X162536Y239577D01*
X161871Y239067D01*
X161409D01*
X160744Y239577D01*
X159971Y239898D01*
X159140Y240007D01*
X158310Y239898D01*
X157536Y239577D01*
X157211Y239328D01*
X156763Y239549D01*
Y258054D01*
X159819Y261110D01*
X160281Y260919D01*
D02*
G37*
G36*
X283347Y221713D02*
X292299D01*
X292490Y221251D01*
X292478Y221239D01*
X291842Y220410D01*
X291559Y219727D01*
X291442Y219445D01*
X291306Y218409D01*
Y217550D01*
X290948D01*
Y216503D01*
X288396D01*
X287475Y216884D01*
X286300Y217039D01*
X285125Y216884D01*
X284031Y216431D01*
X283091Y215709D01*
X282369Y214769D01*
X281916Y213675D01*
X281761Y212500D01*
X281916Y211325D01*
X282369Y210231D01*
X283091Y209291D01*
X284031Y208569D01*
X285125Y208116D01*
X286300Y207961D01*
X287475Y208116D01*
X288396Y208497D01*
X290948D01*
Y207250D01*
X292094D01*
Y207059D01*
X292094D01*
Y197941D01*
X292094Y197941D01*
X292094Y197759D01*
X292094D01*
Y189122D01*
X262886D01*
X258327Y193682D01*
Y195979D01*
X249602D01*
Y189420D01*
X255171D01*
X259946Y184646D01*
X259946Y184646D01*
X260489Y184229D01*
X261121Y183967D01*
X261800Y183878D01*
X300000D01*
X300000Y183878D01*
X300679Y183967D01*
X301311Y184229D01*
X301854Y184646D01*
X305791Y188583D01*
X305791Y188583D01*
X305836Y188641D01*
X307906D01*
Y197759D01*
D01*
Y197759D01*
X307906Y197759D01*
Y197941D01*
X307906D01*
Y202760D01*
X310846Y205700D01*
X310846Y205700D01*
X311262Y206243D01*
X311524Y206876D01*
X311574Y207250D01*
X312318D01*
Y177122D01*
X249476D01*
X249255Y177571D01*
X249531Y177931D01*
X249984Y179025D01*
X250073Y179700D01*
X241127D01*
X241216Y179025D01*
X241669Y177931D01*
X241945Y177571D01*
X241724Y177122D01*
X219562D01*
X219370Y177584D01*
X224632Y182846D01*
X224632Y182846D01*
X226580Y184794D01*
X231281D01*
Y184595D01*
X235340D01*
Y188564D01*
X236340D01*
Y184595D01*
X240399D01*
Y185680D01*
X243016D01*
Y188959D01*
Y192239D01*
X240399D01*
Y192469D01*
Y193161D01*
X247878D01*
Y199720D01*
X243363D01*
X243266Y200210D01*
X243311Y200229D01*
X243854Y200646D01*
X249054Y205846D01*
X249054Y205846D01*
X249471Y206389D01*
X249675Y206881D01*
X250171Y206947D01*
X250291Y206791D01*
X251231Y206069D01*
X252325Y205616D01*
X253500Y205461D01*
X254675Y205616D01*
X255769Y206069D01*
X256709Y206791D01*
X257431Y207731D01*
X257884Y208825D01*
X258039Y210000D01*
X257884Y211175D01*
X257431Y212269D01*
X256709Y213209D01*
X256612Y213284D01*
Y217441D01*
X265905D01*
Y219451D01*
X270737D01*
X271712Y219645D01*
X272539Y220198D01*
X272539Y220198D01*
X272539Y220198D01*
X276136Y223795D01*
X281059D01*
Y225214D01*
X283347D01*
Y221713D01*
D02*
G37*
G36*
X197071Y197669D02*
X197787Y197373D01*
X197880Y197146D01*
Y196834D01*
X197729Y196771D01*
X197186Y196354D01*
X197186Y196354D01*
X190177Y189346D01*
X189040Y189496D01*
X187747Y189325D01*
X186741Y188908D01*
X186403Y189246D01*
X186409Y189333D01*
X186919Y189997D01*
X187239Y190771D01*
X187349Y191602D01*
Y197594D01*
X196099D01*
Y197850D01*
X196548Y198071D01*
X197071Y197669D01*
D02*
G37*
G36*
X151291Y309209D02*
X150569Y308269D01*
X150116Y307175D01*
X149961Y306000D01*
X150116Y304825D01*
X150569Y303731D01*
X151218Y302886D01*
Y283523D01*
X149600Y281906D01*
X144781D01*
Y281856D01*
X144699D01*
Y281856D01*
X140640D01*
Y277886D01*
X140141D01*
Y277387D01*
X135581D01*
Y273919D01*
Y266044D01*
X144699D01*
Y266094D01*
X144781D01*
Y266094D01*
X146418D01*
Y260625D01*
Y256394D01*
X145933Y256270D01*
X145546Y256975D01*
X144718Y257959D01*
X143810Y258685D01*
Y263902D01*
X132527D01*
Y262122D01*
X128500D01*
X127821Y262033D01*
X127189Y261771D01*
X126778Y261455D01*
X120631D01*
Y253519D01*
Y245644D01*
X122578D01*
Y236989D01*
X122087Y236892D01*
X121931Y237269D01*
X121209Y238209D01*
X120269Y238931D01*
X119175Y239384D01*
X118500Y239473D01*
Y234999D01*
Y230527D01*
X119175Y230616D01*
X120269Y231069D01*
X121209Y231791D01*
X121931Y232731D01*
X122087Y233108D01*
X122578Y233011D01*
Y231340D01*
X122578Y231340D01*
X122667Y230661D01*
X122929Y230029D01*
X123346Y229486D01*
X129586Y223246D01*
X129586Y223246D01*
X130129Y222829D01*
X130761Y222567D01*
X131440Y222478D01*
X131440Y222478D01*
X141240D01*
X141240Y222478D01*
X141919Y222567D01*
X142551Y222829D01*
X143095Y223246D01*
X145994Y226146D01*
X145994Y226146D01*
X146411Y226689D01*
X146673Y227321D01*
X146735Y227789D01*
X147197Y227981D01*
X147536Y227720D01*
X148310Y227400D01*
X149140Y227291D01*
X149971Y227400D01*
X150744Y227720D01*
X151409Y228230D01*
X151871D01*
X152536Y227720D01*
X153310Y227400D01*
X154140Y227291D01*
X154971Y227400D01*
X155744Y227720D01*
X156069Y227970D01*
X156518Y227749D01*
Y225786D01*
X151854Y221122D01*
X124086D01*
X113022Y232186D01*
Y234510D01*
X113521Y234543D01*
X113461Y235000D01*
X113521Y235457D01*
X113022Y235490D01*
Y243803D01*
X113022Y243803D01*
X112933Y244482D01*
X112671Y245114D01*
X112859Y245495D01*
X114840D01*
Y249464D01*
X115339D01*
Y249963D01*
X119899D01*
Y253368D01*
Y261305D01*
X119899Y261305D01*
X119899D01*
X119786Y261578D01*
X119854Y261646D01*
X119854Y261646D01*
X120271Y262189D01*
X120533Y262821D01*
X120558Y263010D01*
X120563Y263051D01*
X122953D01*
Y265967D01*
X123443Y266065D01*
X123674Y265508D01*
X124468Y264473D01*
X125502Y263679D01*
X126707Y263180D01*
X127500Y263076D01*
Y272926D01*
Y282778D01*
X126707Y282673D01*
X125502Y282174D01*
X124468Y281380D01*
X123674Y280346D01*
X123443Y279789D01*
X122953Y279887D01*
Y282799D01*
X121116D01*
Y290302D01*
X121532Y290622D01*
X122326Y291657D01*
X122750Y292680D01*
X123250D01*
X123674Y291657D01*
X124468Y290622D01*
X125502Y289828D01*
X126707Y289329D01*
X127500Y289225D01*
Y299075D01*
Y308927D01*
X126707Y308822D01*
X125502Y308323D01*
X124468Y307529D01*
X123674Y306495D01*
X123250Y305471D01*
X122750D01*
X122326Y306495D01*
X121532Y307529D01*
X120498Y308323D01*
X119293Y308822D01*
X118000Y308992D01*
X116707Y308822D01*
X115502Y308323D01*
X114468Y307529D01*
X113674Y306495D01*
X113175Y305290D01*
X113005Y303997D01*
Y294154D01*
X113175Y292861D01*
X113544Y291970D01*
X113266Y291554D01*
X85769D01*
Y284248D01*
Y280248D01*
X113047D01*
Y263051D01*
X113231D01*
X113453Y262603D01*
X113229Y262311D01*
X112967Y261679D01*
X112918Y261305D01*
X110781D01*
Y256487D01*
X109917Y255622D01*
X109299D01*
Y261305D01*
X108004D01*
X107843Y261779D01*
X108250Y262091D01*
X108971Y263031D01*
X109424Y264125D01*
X109579Y265300D01*
X109424Y266475D01*
X108971Y267569D01*
X108250Y268509D01*
X107310Y269231D01*
X106215Y269684D01*
X105040Y269839D01*
X103865Y269684D01*
X102771Y269231D01*
X101831Y268509D01*
X101109Y267569D01*
X100656Y266475D01*
X100501Y265300D01*
X100656Y264125D01*
X101109Y263031D01*
X101831Y262091D01*
X102237Y261779D01*
X102076Y261305D01*
X100181D01*
Y253368D01*
Y245495D01*
X105000D01*
X107778Y242717D01*
Y231100D01*
X107778Y231100D01*
X107867Y230421D01*
X108129Y229789D01*
X108546Y229246D01*
X121146Y216646D01*
X121146Y216646D01*
X121689Y216229D01*
X121689Y216229D01*
X121689Y216229D01*
D01*
X121689Y216229D01*
X121689Y216229D01*
X122321Y215967D01*
X123000Y215878D01*
X123000Y215878D01*
X152940D01*
X152940Y215878D01*
X153619Y215967D01*
X154251Y216229D01*
X154795Y216646D01*
X159702Y221553D01*
X160192Y221455D01*
X160409Y220931D01*
X161131Y219991D01*
X162071Y219269D01*
X163165Y218816D01*
X164340Y218661D01*
X165515Y218816D01*
X166610Y219269D01*
X167550Y219991D01*
X168271Y220931D01*
X168724Y222025D01*
X168737Y222125D01*
X169237D01*
X169356Y221225D01*
X169809Y220131D01*
X170531Y219191D01*
X171471Y218469D01*
X172565Y218016D01*
X173740Y217861D01*
X174915Y218016D01*
X176010Y218469D01*
X176950Y219191D01*
X177671Y220131D01*
X178124Y221225D01*
X178279Y222400D01*
X178124Y223575D01*
X177671Y224669D01*
X176950Y225609D01*
X176763Y225753D01*
Y227749D01*
X177211Y227970D01*
X177536Y227720D01*
X178310Y227400D01*
X179140Y227291D01*
X179971Y227400D01*
X180543Y227637D01*
X180959Y227359D01*
Y227318D01*
X182077D01*
X182286Y227046D01*
X184149Y225183D01*
X184149Y225183D01*
X184692Y224766D01*
X184954Y224657D01*
X185324Y224504D01*
X186003Y224415D01*
X186003Y224415D01*
X187181D01*
Y223068D01*
Y222409D01*
X187103Y221785D01*
X186424Y221696D01*
X185792Y221434D01*
X185249Y221017D01*
X185249Y221017D01*
X182286Y218054D01*
X181869Y217511D01*
X181607Y216879D01*
X181518Y216200D01*
X181518Y216200D01*
Y213622D01*
X128000D01*
X128000Y213622D01*
X127321Y213533D01*
X126689Y213271D01*
X126146Y212854D01*
X126146Y212854D01*
X116646Y203354D01*
X116229Y202811D01*
X115967Y202179D01*
X115877Y201500D01*
X115878Y201500D01*
Y196586D01*
X114977Y195685D01*
X112559D01*
Y196968D01*
Y200437D01*
X103441D01*
Y196968D01*
Y195685D01*
X100559D01*
Y196968D01*
Y200437D01*
X91441D01*
Y196968D01*
Y195685D01*
X88559D01*
Y196968D01*
Y200437D01*
X79464D01*
X79441Y200460D01*
Y201113D01*
X78979Y200922D01*
X76305Y203596D01*
X79344Y206636D01*
X79344Y206636D01*
X79761Y207179D01*
X79949Y207633D01*
X80671D01*
Y207674D01*
X81087Y207952D01*
X81660Y207715D01*
X81990Y207671D01*
Y214356D01*
Y221043D01*
X81660Y221000D01*
X81087Y220763D01*
X80671Y221041D01*
Y221082D01*
X74309D01*
Y209018D01*
X72723Y207432D01*
X72115Y207684D01*
X70940Y207839D01*
X69765Y207684D01*
X68671Y207231D01*
X67731Y206509D01*
X67009Y205569D01*
X66556Y204475D01*
X66401Y203300D01*
X66556Y202125D01*
X67009Y201031D01*
X67731Y200091D01*
X68671Y199369D01*
X69592Y198988D01*
X78347Y190233D01*
X79176Y189596D01*
X79441Y189487D01*
Y189094D01*
X80917D01*
X81177Y189060D01*
X81437Y189094D01*
X88559D01*
Y190441D01*
X91441D01*
Y189094D01*
X100559D01*
Y190441D01*
X103441D01*
Y189094D01*
X112559D01*
Y190441D01*
X116063D01*
X116063Y190440D01*
X116742Y190530D01*
X117374Y190792D01*
X117917Y191209D01*
X120354Y193646D01*
X120354Y193646D01*
X120771Y194189D01*
X121033Y194821D01*
X121033Y194821D01*
X121033Y194821D01*
Y194821D01*
X121123Y195500D01*
X121122Y195500D01*
Y200414D01*
X126596Y205887D01*
X127012Y205610D01*
X126956Y205475D01*
X126801Y204300D01*
X126956Y203125D01*
X127409Y202031D01*
X128131Y201091D01*
X129071Y200369D01*
X130165Y199916D01*
X130282Y199900D01*
X135932Y194251D01*
Y191602D01*
X136041Y190771D01*
X136362Y189997D01*
X136871Y189333D01*
X137536Y188823D01*
X138310Y188502D01*
X139140Y188393D01*
X139971Y188502D01*
X140744Y188823D01*
X141409Y189333D01*
X141871D01*
X142536Y188823D01*
X143310Y188502D01*
X144140Y188393D01*
X144576Y188450D01*
X144712Y188174D01*
X144448Y187749D01*
X79756D01*
X70639Y196865D01*
X69813Y197418D01*
X68837Y197612D01*
X65819D01*
Y198969D01*
Y202437D01*
X56701D01*
Y198969D01*
Y197612D01*
X53819D01*
Y198969D01*
Y202437D01*
X44701D01*
Y198969D01*
Y197612D01*
X42893D01*
X41449Y199056D01*
Y228245D01*
X46973D01*
X48266Y228415D01*
X49471Y228914D01*
X50506Y229708D01*
X51299Y230742D01*
X51798Y231947D01*
X51969Y233240D01*
X51938Y233474D01*
X52258Y233840D01*
X52726Y233664D01*
Y232566D01*
X52726Y232566D01*
X52673Y232505D01*
X52481D01*
Y224569D01*
Y221163D01*
X61599D01*
Y224569D01*
Y232505D01*
X59066D01*
X58894Y232729D01*
X58894Y232729D01*
X57971Y233652D01*
Y233850D01*
X59809D01*
Y244150D01*
X57971D01*
Y282828D01*
X58171Y283089D01*
X58280Y283351D01*
X58433Y283721D01*
X58522Y284400D01*
X58522Y284400D01*
Y301887D01*
X59309Y302491D01*
X60031Y303431D01*
X60484Y304525D01*
X60639Y305700D01*
X60484Y306875D01*
X60031Y307969D01*
X59309Y308909D01*
X58369Y309631D01*
X58378Y309673D01*
X83882D01*
X83980Y309182D01*
X83131Y308831D01*
X82191Y308109D01*
X81993Y307852D01*
X81497Y307786D01*
X80798Y308323D01*
X79593Y308822D01*
X78300Y308992D01*
X77007Y308822D01*
X75802Y308323D01*
X74768Y307529D01*
X73974Y306495D01*
X73550Y305471D01*
X73050D01*
X72626Y306495D01*
X71832Y307529D01*
X70798Y308323D01*
X69593Y308822D01*
X68300Y308992D01*
X67007Y308822D01*
X65802Y308323D01*
X64768Y307529D01*
X63974Y306495D01*
X63475Y305290D01*
X63305Y303997D01*
Y294154D01*
X63475Y292861D01*
X63974Y291657D01*
X64768Y290622D01*
X65678Y289924D01*
Y282799D01*
X63347D01*
Y265450D01*
X61348D01*
Y255150D01*
X64126D01*
Y254267D01*
X64126Y254267D01*
X64216Y253588D01*
X64307Y253369D01*
X64113Y253080D01*
X64113D01*
Y246520D01*
X72838D01*
Y253080D01*
X71027D01*
X71009Y253219D01*
X70747Y253851D01*
X70330Y254395D01*
X70330Y254395D01*
X70036Y254689D01*
X70227Y255150D01*
X70269D01*
Y263051D01*
X73253D01*
Y265967D01*
X73743Y266065D01*
X73974Y265508D01*
X74768Y264473D01*
X74931Y264348D01*
Y256820D01*
X74562D01*
Y254040D01*
X78925D01*
Y253541D01*
X79424D01*
Y250261D01*
X83287D01*
Y250261D01*
X83428D01*
X83781Y249907D01*
Y249339D01*
X83287D01*
Y249339D01*
X74562D01*
Y242780D01*
X83287D01*
Y243295D01*
X83781D01*
Y243295D01*
X92899D01*
Y243976D01*
X93361Y244167D01*
X97241Y240287D01*
Y235469D01*
Y227594D01*
X99451D01*
Y224670D01*
X99645Y223694D01*
X100198Y222867D01*
X100540Y222525D01*
X100431Y221700D01*
X100586Y220525D01*
X101039Y219431D01*
X101760Y218491D01*
X102700Y217769D01*
X103795Y217316D01*
X104970Y217161D01*
X106145Y217316D01*
X107239Y217769D01*
X108179Y218491D01*
X108901Y219431D01*
X109354Y220525D01*
X109509Y221700D01*
X109354Y222875D01*
X108901Y223969D01*
X108179Y224909D01*
X107239Y225631D01*
X106145Y226084D01*
X104970Y226239D01*
X104925Y226233D01*
X104549Y226563D01*
Y227594D01*
X106359D01*
Y235469D01*
Y243406D01*
X101540D01*
X95828Y249117D01*
X95285Y249534D01*
X94653Y249796D01*
X93974Y249885D01*
X93974Y249885D01*
X92899D01*
Y251168D01*
Y254637D01*
X88339D01*
Y255136D01*
X87840D01*
Y259105D01*
X83852D01*
Y265450D01*
X83052D01*
X82774Y265865D01*
X83125Y266713D01*
X83296Y268005D01*
Y277848D01*
X83125Y279141D01*
X82626Y280346D01*
X81832Y281380D01*
X80922Y282079D01*
Y289924D01*
X81832Y290622D01*
X82626Y291657D01*
X83125Y292861D01*
X83296Y294154D01*
Y300362D01*
X83676Y300743D01*
X84225Y300516D01*
X85400Y300361D01*
X86575Y300516D01*
X87669Y300969D01*
X88609Y301691D01*
X89331Y302631D01*
X89784Y303725D01*
X89939Y304900D01*
X89784Y306075D01*
X89331Y307169D01*
X88609Y308109D01*
X87669Y308831D01*
X86820Y309182D01*
X86918Y309673D01*
X151133D01*
X151291Y309209D01*
D02*
G37*
G36*
X130791Y249506D02*
X131619Y248522D01*
X132527Y247795D01*
Y247441D01*
X133157D01*
X133764Y247126D01*
X134999Y246768D01*
X136280Y246657D01*
X137669Y246674D01*
X137882Y246677D01*
X138168Y246680D01*
X140217Y246705D01*
X141495Y246847D01*
X142721Y247235D01*
X143095Y247441D01*
X143810D01*
Y247835D01*
X143847Y247855D01*
X144831Y248683D01*
X145635Y249687D01*
X145932Y250260D01*
X146418Y250141D01*
Y239626D01*
X145969Y239405D01*
X145744Y239577D01*
X144971Y239898D01*
X144140Y240007D01*
X143310Y239898D01*
X142536Y239577D01*
X141871Y239067D01*
X141409D01*
X140744Y239577D01*
X139971Y239898D01*
X139640Y239941D01*
Y233648D01*
X138640D01*
Y239941D01*
X138310Y239898D01*
X137536Y239577D01*
X136871Y239067D01*
X136362Y238403D01*
X136041Y237629D01*
X135946Y236908D01*
X135536Y236798D01*
X135448D01*
X135209Y237109D01*
X134269Y237831D01*
X133175Y238284D01*
X132500Y238373D01*
Y233899D01*
X131500D01*
Y238373D01*
X130825Y238284D01*
X129731Y237831D01*
X128791Y237109D01*
X128296Y236465D01*
X127822Y236626D01*
Y245644D01*
X129749D01*
Y250395D01*
X130234Y250519D01*
X130791Y249506D01*
D02*
G37*
G36*
X181518Y201000D02*
X181518Y201000D01*
X181518Y201000D01*
Y200651D01*
X181069Y200430D01*
X180744Y200679D01*
X179971Y201000D01*
X179140Y201109D01*
X178310Y201000D01*
X177536Y200679D01*
X176871Y200170D01*
X176409D01*
X175744Y200679D01*
X174971Y201000D01*
X174140Y201109D01*
X173310Y201000D01*
X172536Y200679D01*
X171871Y200170D01*
X171409D01*
X170744Y200679D01*
X169971Y201000D01*
X169140Y201109D01*
X168310Y201000D01*
X167536Y200679D01*
X166871Y200170D01*
X166409D01*
X165744Y200679D01*
X164971Y201000D01*
X164140Y201109D01*
X163310Y201000D01*
X162536Y200679D01*
X161871Y200170D01*
X161409D01*
X160744Y200679D01*
X159971Y201000D01*
X159140Y201109D01*
X158310Y201000D01*
X157536Y200679D01*
X156871Y200170D01*
X156409D01*
X155744Y200679D01*
X154971Y201000D01*
X154140Y201109D01*
X153310Y201000D01*
X152536Y200679D01*
X151871Y200170D01*
X151409D01*
X150744Y200679D01*
X149971Y201000D01*
X149140Y201109D01*
X148310Y201000D01*
X147536Y200679D01*
X146871Y200170D01*
X146409D01*
X145744Y200679D01*
X144971Y201000D01*
X144140Y201109D01*
X143310Y201000D01*
X142536Y200679D01*
X141871Y200170D01*
X141409D01*
X140744Y200679D01*
X139971Y201000D01*
X139140Y201109D01*
X138310Y201000D01*
X137536Y200679D01*
X137188Y200412D01*
X135358Y202242D01*
X135724Y203125D01*
X135879Y204300D01*
X135724Y205475D01*
X135271Y206569D01*
X134550Y207509D01*
X133610Y208231D01*
X133639Y208378D01*
X181518D01*
Y201000D01*
D02*
G37*
G36*
X222281Y198419D02*
Y192668D01*
Y187913D01*
X220923Y186554D01*
X220923Y186554D01*
X214455Y180086D01*
X213993Y180278D01*
Y189453D01*
X204087D01*
Y186539D01*
X203597Y186441D01*
X203366Y186998D01*
X202572Y188032D01*
X201538Y188826D01*
X200333Y189325D01*
X199040Y189496D01*
X198319Y189400D01*
X198098Y189849D01*
X200126Y191878D01*
X214000D01*
X214000Y191877D01*
X214679Y191967D01*
X215311Y192229D01*
X215854Y192646D01*
X221819Y198610D01*
X222281Y198419D01*
D02*
G37*
%LPC*%
G36*
X86990Y221043D02*
X86660Y221000D01*
X85886Y220679D01*
X85221Y220170D01*
X84759D01*
X84094Y220679D01*
X83321Y221000D01*
X82990Y221043D01*
Y214356D01*
Y207671D01*
X83321Y207715D01*
X84094Y208035D01*
X84759Y208545D01*
X85221D01*
X85886Y208035D01*
X86660Y207715D01*
X86990Y207671D01*
Y214356D01*
Y221043D01*
D02*
G37*
G36*
X72299Y220163D02*
X68240D01*
Y216694D01*
X72299D01*
Y220163D01*
D02*
G37*
G36*
X46237Y225136D02*
X45562Y225047D01*
X44468Y224594D01*
X43528Y223872D01*
X42806Y222932D01*
X42353Y221838D01*
X42264Y221163D01*
X46237D01*
Y225136D01*
D02*
G37*
G36*
X47237D02*
Y221163D01*
X51210D01*
X51121Y221838D01*
X50668Y222932D01*
X49946Y223872D01*
X49006Y224594D01*
X47912Y225047D01*
X47237Y225136D01*
D02*
G37*
G36*
X92490Y221109D02*
X91660Y221000D01*
X90886Y220679D01*
X90221Y220170D01*
X89759D01*
X89094Y220679D01*
X88321Y221000D01*
X87990Y221043D01*
Y214356D01*
Y207671D01*
X88321Y207715D01*
X89094Y208035D01*
X89759Y208545D01*
X90221D01*
X90886Y208035D01*
X91660Y207715D01*
X92490Y207606D01*
X93321Y207715D01*
X94094Y208035D01*
X94759Y208545D01*
X95269Y209210D01*
X95589Y209984D01*
X95699Y210814D01*
Y217901D01*
X95589Y218731D01*
X95269Y219505D01*
X94759Y220170D01*
X94094Y220679D01*
X93321Y221000D01*
X92490Y221109D01*
D02*
G37*
G36*
Y240794D02*
X91660Y240685D01*
X90886Y240365D01*
X90221Y239855D01*
X89759D01*
X89094Y240365D01*
X88321Y240685D01*
X87990Y240728D01*
Y234042D01*
Y227357D01*
X88321Y227400D01*
X89094Y227720D01*
X89759Y228230D01*
X90221D01*
X90886Y227720D01*
X91660Y227400D01*
X92490Y227291D01*
X93321Y227400D01*
X94094Y227720D01*
X94759Y228230D01*
X95269Y228895D01*
X95589Y229669D01*
X95699Y230499D01*
Y237586D01*
X95589Y238416D01*
X95269Y239190D01*
X94759Y239855D01*
X94094Y240365D01*
X93321Y240685D01*
X92490Y240794D01*
D02*
G37*
G36*
X86990Y240728D02*
X86660Y240685D01*
X85886Y240365D01*
X85221Y239855D01*
X84759D01*
X84094Y240365D01*
X83321Y240685D01*
X82990Y240728D01*
Y234042D01*
Y227357D01*
X83321Y227400D01*
X84094Y227720D01*
X84759Y228230D01*
X85221D01*
X85886Y227720D01*
X86660Y227400D01*
X86990Y227357D01*
Y234042D01*
Y240728D01*
D02*
G37*
G36*
X231900Y246073D02*
Y242100D01*
X235873D01*
X235784Y242775D01*
X235331Y243869D01*
X234609Y244809D01*
X233669Y245531D01*
X232575Y245984D01*
X231900Y246073D01*
D02*
G37*
G36*
X230900D02*
X230225Y245984D01*
X229131Y245531D01*
X228191Y244809D01*
X227469Y243869D01*
X227016Y242775D01*
X226927Y242100D01*
X230900D01*
Y246073D01*
D02*
G37*
G36*
X235873Y241100D02*
X231900D01*
Y237127D01*
X232575Y237216D01*
X233669Y237669D01*
X234609Y238391D01*
X235331Y239331D01*
X235784Y240425D01*
X235873Y241100D01*
D02*
G37*
G36*
X117500Y234500D02*
X113527D01*
X113616Y233825D01*
X114069Y232731D01*
X114791Y231791D01*
X115731Y231069D01*
X116825Y230616D01*
X117500Y230527D01*
Y234500D01*
D02*
G37*
G36*
X73392Y244150D02*
X64471D01*
Y233850D01*
X66309D01*
Y232505D01*
X63181D01*
Y224569D01*
Y221163D01*
X72299D01*
Y224569D01*
Y232505D01*
X71554D01*
Y233850D01*
X73392D01*
Y236378D01*
X74282D01*
Y230499D01*
X74391Y229669D01*
X74712Y228895D01*
X75221Y228230D01*
X75886Y227720D01*
X76660Y227400D01*
X77490Y227291D01*
X78321Y227400D01*
X79094Y227720D01*
X79759Y228230D01*
X80221D01*
X80886Y227720D01*
X81660Y227400D01*
X81990Y227357D01*
Y234042D01*
Y240728D01*
X81660Y240685D01*
X80886Y240365D01*
X80221Y239855D01*
X79759D01*
X79094Y240365D01*
X78321Y240685D01*
X78140Y240709D01*
X77995Y240854D01*
X77451Y241271D01*
X76819Y241533D01*
X76140Y241622D01*
X76140Y241622D01*
X73392D01*
Y244150D01*
D02*
G37*
G36*
X230900Y241100D02*
X226927D01*
X227016Y240425D01*
X227469Y239331D01*
X228191Y238391D01*
X229131Y237669D01*
X230225Y237216D01*
X230900Y237127D01*
Y241100D01*
D02*
G37*
G36*
X117500Y239473D02*
X116825Y239384D01*
X115731Y238931D01*
X114791Y238209D01*
X114069Y237269D01*
X113616Y236175D01*
X113527Y235500D01*
X117500D01*
Y239473D01*
D02*
G37*
G36*
X95500Y204906D02*
X91441D01*
Y201437D01*
X95500D01*
Y204906D01*
D02*
G37*
G36*
X88559D02*
X84500D01*
Y201437D01*
X88559D01*
Y204906D01*
D02*
G37*
G36*
X100559D02*
X96500D01*
Y201437D01*
X100559D01*
Y204906D01*
D02*
G37*
G36*
X112559D02*
X108500D01*
Y201437D01*
X112559D01*
Y204906D01*
D02*
G37*
G36*
X107500D02*
X103441D01*
Y201437D01*
X107500D01*
Y204906D01*
D02*
G37*
G36*
X83500D02*
X79441D01*
Y201437D01*
X83500D01*
Y204906D01*
D02*
G37*
G36*
X246100Y184673D02*
Y180700D01*
X250073D01*
X249984Y181375D01*
X249531Y182469D01*
X248809Y183409D01*
X247869Y184131D01*
X246775Y184584D01*
X246100Y184673D01*
D02*
G37*
G36*
X245100D02*
X244425Y184584D01*
X243331Y184131D01*
X242391Y183409D01*
X241669Y182469D01*
X241216Y181375D01*
X241127Y180700D01*
X245100D01*
Y184673D01*
D02*
G37*
G36*
X247878Y188460D02*
X244016D01*
Y185680D01*
X247878D01*
Y188460D01*
D02*
G37*
G36*
X290264Y206054D02*
X257769D01*
Y198748D01*
X268769D01*
Y192248D01*
X277649D01*
Y198748D01*
X290264D01*
Y206054D01*
D02*
G37*
G36*
X247878Y192239D02*
X244016D01*
Y189460D01*
X247878D01*
Y192239D01*
D02*
G37*
G36*
X51210Y220163D02*
X47237D01*
Y216190D01*
X47912Y216279D01*
X49006Y216732D01*
X49946Y217454D01*
X50668Y218394D01*
X51121Y219488D01*
X51210Y220163D01*
D02*
G37*
G36*
X46237D02*
X42264D01*
X42353Y219488D01*
X42806Y218394D01*
X43528Y217454D01*
X44468Y216732D01*
X45562Y216279D01*
X46237Y216190D01*
Y220163D01*
D02*
G37*
G36*
X56540D02*
X52481D01*
Y216694D01*
X56540D01*
Y220163D01*
D02*
G37*
G36*
X67240D02*
X63181D01*
Y216694D01*
X67240D01*
Y220163D01*
D02*
G37*
G36*
X61599D02*
X57540D01*
Y216694D01*
X61599D01*
Y220163D01*
D02*
G37*
G36*
X236752Y233372D02*
X225446D01*
Y219769D01*
Y206768D01*
X240752D01*
Y218011D01*
X236752D01*
Y219769D01*
X240752D01*
Y231011D01*
X236752D01*
Y233372D01*
D02*
G37*
G36*
X53819Y206906D02*
X49760D01*
Y203437D01*
X53819D01*
Y206906D01*
D02*
G37*
G36*
X48760D02*
X44701D01*
Y203437D01*
X48760D01*
Y206906D01*
D02*
G37*
G36*
X60760D02*
X56701D01*
Y203437D01*
X60760D01*
Y206906D01*
D02*
G37*
G36*
X205199Y210163D02*
X201140D01*
Y206695D01*
X205199D01*
Y210163D01*
D02*
G37*
G36*
X65819Y206906D02*
X61760D01*
Y203437D01*
X65819D01*
Y206906D01*
D02*
G37*
G36*
X137669Y246441D02*
X132527D01*
Y242579D01*
X137669D01*
Y246441D01*
D02*
G37*
G36*
X285273Y286800D02*
X281300D01*
Y282827D01*
X281975Y282916D01*
X283069Y283369D01*
X284009Y284091D01*
X284731Y285031D01*
X285184Y286125D01*
X285273Y286800D01*
D02*
G37*
G36*
X139640Y281856D02*
X135581D01*
Y278387D01*
X139640D01*
Y281856D01*
D02*
G37*
G36*
X263565Y286340D02*
X259702D01*
Y283561D01*
X263565D01*
Y286340D01*
D02*
G37*
G36*
X281300Y291773D02*
Y287800D01*
X285273D01*
X285184Y288475D01*
X284731Y289569D01*
X284009Y290509D01*
X283069Y291231D01*
X281975Y291684D01*
X281300Y291773D01*
D02*
G37*
G36*
X263565Y290120D02*
X259702D01*
Y287340D01*
X263565D01*
Y290120D01*
D02*
G37*
G36*
X128500Y282778D02*
Y273427D01*
X132995D01*
Y277848D01*
X132825Y279141D01*
X132326Y280346D01*
X131532Y281380D01*
X130498Y282174D01*
X129293Y282673D01*
X128500Y282778D01*
D02*
G37*
G36*
X93500Y273473D02*
X92825Y273384D01*
X91731Y272931D01*
X90791Y272209D01*
X90069Y271269D01*
X89616Y270175D01*
X89527Y269500D01*
X93500D01*
Y273473D01*
D02*
G37*
G36*
X51059Y271563D02*
X47000D01*
Y268094D01*
X51059D01*
Y271563D01*
D02*
G37*
G36*
X94500Y273473D02*
Y269500D01*
X98473D01*
X98384Y270175D01*
X97931Y271269D01*
X97209Y272209D01*
X96269Y272931D01*
X95175Y273384D01*
X94500Y273473D01*
D02*
G37*
G36*
X185378Y273839D02*
X181516D01*
Y271060D01*
X185378D01*
Y273839D01*
D02*
G37*
G36*
X180516D02*
X176654D01*
Y271060D01*
X180516D01*
Y273839D01*
D02*
G37*
G36*
X132995Y298576D02*
X128500D01*
Y289225D01*
X129293Y289329D01*
X130498Y289828D01*
X131532Y290622D01*
X132326Y291657D01*
X132825Y292861D01*
X132995Y294154D01*
Y298576D01*
D02*
G37*
G36*
X98000Y303473D02*
Y299500D01*
X101973D01*
X101884Y300175D01*
X101431Y301269D01*
X100709Y302209D01*
X99769Y302931D01*
X98675Y303384D01*
X98000Y303473D01*
D02*
G37*
G36*
X97000D02*
X96325Y303384D01*
X95231Y302931D01*
X94291Y302209D01*
X93569Y301269D01*
X93116Y300175D01*
X93027Y299500D01*
X97000D01*
Y303473D01*
D02*
G37*
G36*
X137500D02*
X136825Y303384D01*
X135731Y302931D01*
X134791Y302209D01*
X134069Y301269D01*
X133616Y300175D01*
X133527Y299500D01*
X137500D01*
Y303473D01*
D02*
G37*
G36*
X128500Y308927D02*
Y299576D01*
X132995D01*
Y303997D01*
X132825Y305290D01*
X132326Y306495D01*
X131532Y307529D01*
X130498Y308323D01*
X129293Y308822D01*
X128500Y308927D01*
D02*
G37*
G36*
X138500Y303473D02*
Y299500D01*
X142473D01*
X142384Y300175D01*
X141931Y301269D01*
X141209Y302209D01*
X140269Y302931D01*
X139175Y303384D01*
X138500Y303473D01*
D02*
G37*
G36*
X132996Y299285D02*
Y298715D01*
X133494Y298747D01*
X133461Y299000D01*
X133494Y299253D01*
X132996Y299285D01*
D02*
G37*
G36*
X101973Y298500D02*
X98000D01*
Y294527D01*
X98675Y294616D01*
X99769Y295069D01*
X100709Y295791D01*
X101431Y296731D01*
X101884Y297825D01*
X101973Y298500D01*
D02*
G37*
G36*
X97000D02*
X93027D01*
X93116Y297825D01*
X93569Y296731D01*
X94291Y295791D01*
X95231Y295069D01*
X96325Y294616D01*
X97000Y294527D01*
Y298500D01*
D02*
G37*
G36*
X137500D02*
X133527D01*
X133616Y297825D01*
X134069Y296731D01*
X134791Y295791D01*
X135731Y295069D01*
X136825Y294616D01*
X137500Y294527D01*
Y298500D01*
D02*
G37*
G36*
X41372Y306554D02*
X14769D01*
Y299248D01*
Y295248D01*
X41372D01*
Y299248D01*
Y306554D01*
D02*
G37*
G36*
X142473Y298500D02*
X138500D01*
Y294527D01*
X139175Y294616D01*
X140269Y295069D01*
X141209Y295791D01*
X141931Y296731D01*
X142384Y297825D01*
X142473Y298500D01*
D02*
G37*
G36*
X40559Y271563D02*
X36500D01*
Y268094D01*
X40559D01*
Y271563D01*
D02*
G37*
G36*
X41550Y258236D02*
X37129D01*
X35836Y258065D01*
X34631Y257566D01*
X33597Y256772D01*
X32803Y255738D01*
X32304Y254533D01*
X32199Y253740D01*
X41550D01*
Y258236D01*
D02*
G37*
G36*
X78424Y253040D02*
X74562D01*
Y250261D01*
X78424D01*
Y253040D01*
D02*
G37*
G36*
X46972Y258236D02*
X42550D01*
Y253740D01*
X51901D01*
X51797Y254533D01*
X51298Y255738D01*
X50504Y256772D01*
X49469Y257566D01*
X48265Y258065D01*
X46972Y258236D01*
D02*
G37*
G36*
X43500Y263500D02*
X39527D01*
X39616Y262825D01*
X40069Y261731D01*
X40791Y260791D01*
X41731Y260069D01*
X42825Y259616D01*
X43500Y259527D01*
Y263500D01*
D02*
G37*
G36*
X92899Y259105D02*
X88840D01*
Y255637D01*
X92899D01*
Y259105D01*
D02*
G37*
G36*
X119899Y248963D02*
X115840D01*
Y245495D01*
X119899D01*
Y248963D01*
D02*
G37*
G36*
X216409Y246441D02*
X211267D01*
Y242579D01*
X216409D01*
Y246441D01*
D02*
G37*
G36*
X143810D02*
X138669D01*
Y242579D01*
X143810D01*
Y246441D01*
D02*
G37*
G36*
X222550D02*
X217409D01*
Y242579D01*
X222550D01*
Y246441D01*
D02*
G37*
G36*
X261920D02*
X256779D01*
Y242579D01*
X261920D01*
Y246441D01*
D02*
G37*
G36*
X255779D02*
X250637D01*
Y242579D01*
X255779D01*
Y246441D01*
D02*
G37*
G36*
X48473Y263500D02*
X44500D01*
Y259527D01*
X45175Y259616D01*
X46269Y260069D01*
X47209Y260791D01*
X47931Y261731D01*
X48384Y262825D01*
X48473Y263500D01*
D02*
G37*
G36*
X180516Y270060D02*
X176654D01*
Y267280D01*
X180516D01*
Y270060D01*
D02*
G37*
G36*
X175999Y269263D02*
X171940D01*
Y265794D01*
X175999D01*
Y269263D01*
D02*
G37*
G36*
X185378Y270060D02*
X181516D01*
Y267280D01*
X185378D01*
Y270060D01*
D02*
G37*
G36*
X35500Y271563D02*
X31441D01*
Y268094D01*
X35500D01*
Y271563D01*
D02*
G37*
G36*
X30059D02*
X26000D01*
Y268094D01*
X30059D01*
Y271563D01*
D02*
G37*
G36*
X98473Y268500D02*
X94500D01*
Y264527D01*
X95175Y264616D01*
X96269Y265069D01*
X97209Y265791D01*
X97931Y266731D01*
X98384Y267825D01*
X98473Y268500D01*
D02*
G37*
G36*
X196400Y267200D02*
X192427D01*
X192516Y266525D01*
X192969Y265431D01*
X193691Y264491D01*
X194631Y263769D01*
X195725Y263316D01*
X196400Y263227D01*
Y267200D01*
D02*
G37*
G36*
X132995Y272427D02*
X128500D01*
Y263076D01*
X129293Y263180D01*
X130498Y263679D01*
X131532Y264473D01*
X132326Y265508D01*
X132825Y266713D01*
X132995Y268005D01*
Y272427D01*
D02*
G37*
G36*
X201373Y267200D02*
X197400D01*
Y263227D01*
X198075Y263316D01*
X199169Y263769D01*
X200109Y264491D01*
X200831Y265431D01*
X201284Y266525D01*
X201373Y267200D01*
D02*
G37*
G36*
X93500Y268500D02*
X89527D01*
X89616Y267825D01*
X90069Y266731D01*
X90791Y265791D01*
X91731Y265069D01*
X92825Y264616D01*
X93500Y264527D01*
Y268500D01*
D02*
G37*
G36*
X46000Y271563D02*
X41941D01*
Y268094D01*
X41941Y268094D01*
X41941D01*
X41955Y268024D01*
X41731Y267931D01*
X40791Y267209D01*
X40069Y266269D01*
X39616Y265175D01*
X39527Y264500D01*
X48473D01*
X48384Y265175D01*
X47931Y266269D01*
X47209Y267209D01*
X46269Y267931D01*
X46302Y268094D01*
X46000D01*
Y271563D01*
D02*
G37*
%LPD*%
D10*
X191740Y227037D02*
D03*
Y219163D02*
D03*
X104740Y257337D02*
D03*
Y249463D02*
D03*
X49260Y195063D02*
D03*
Y202937D02*
D03*
X96000Y200937D02*
D03*
Y193063D02*
D03*
X84000Y200937D02*
D03*
Y193063D02*
D03*
X57040Y220663D02*
D03*
Y228537D02*
D03*
X67740Y220663D02*
D03*
Y228537D02*
D03*
X25500Y272063D02*
D03*
Y279937D02*
D03*
X191540Y209437D02*
D03*
Y201563D02*
D03*
X149340Y277937D02*
D03*
Y270063D02*
D03*
X243440Y251263D02*
D03*
Y259137D02*
D03*
X140140Y277887D02*
D03*
Y270013D02*
D03*
X204340Y250963D02*
D03*
Y258837D02*
D03*
X164840Y250563D02*
D03*
Y258437D02*
D03*
X125190Y249613D02*
D03*
Y257487D02*
D03*
X276500Y235637D02*
D03*
Y227763D02*
D03*
X226840Y188763D02*
D03*
Y196637D02*
D03*
X161840Y269963D02*
D03*
Y277837D02*
D03*
X235840Y196437D02*
D03*
Y188563D02*
D03*
X171440Y277637D02*
D03*
Y269763D02*
D03*
X101800Y231563D02*
D03*
Y239437D02*
D03*
X88340Y247263D02*
D03*
Y255137D02*
D03*
X271540Y278863D02*
D03*
Y286737D02*
D03*
X276600Y255637D02*
D03*
Y247763D02*
D03*
X115340Y249463D02*
D03*
Y257337D02*
D03*
X61260Y195063D02*
D03*
Y202937D02*
D03*
X108000Y193063D02*
D03*
Y200937D02*
D03*
X46500Y279937D02*
D03*
Y272063D02*
D03*
X36000Y279937D02*
D03*
Y272063D02*
D03*
X200640Y218537D02*
D03*
Y210663D02*
D03*
D11*
X261937Y222000D02*
D03*
X254063D02*
D03*
X261937Y232500D02*
D03*
X254063D02*
D03*
X263763Y269310D02*
D03*
X271637D02*
D03*
X296063Y193200D02*
D03*
X303937D02*
D03*
X296063Y202500D02*
D03*
X303937D02*
D03*
D12*
X68932Y239000D02*
D03*
X55349D02*
D03*
X295409Y212400D02*
D03*
X308991D02*
D03*
X79391Y260300D02*
D03*
X65809D02*
D03*
D13*
X215700Y292391D02*
D03*
Y278809D02*
D03*
X245900Y293391D02*
D03*
Y279809D02*
D03*
X16700Y283091D02*
D03*
Y269509D02*
D03*
D14*
X243516Y188960D02*
D03*
Y196440D02*
D03*
X253965Y192700D02*
D03*
X181016Y270560D02*
D03*
Y278040D02*
D03*
X191465Y274300D02*
D03*
X78924Y253540D02*
D03*
Y246060D02*
D03*
X68476Y249800D02*
D03*
X264065Y286840D02*
D03*
Y279360D02*
D03*
X253616Y283100D02*
D03*
D15*
X92490Y234043D02*
D03*
X87490D02*
D03*
X82490D02*
D03*
X77490D02*
D03*
X92490Y214357D02*
D03*
X87490D02*
D03*
X82490D02*
D03*
D16*
X77490D02*
D03*
D17*
X139140Y233649D02*
D03*
Y194751D02*
D03*
X144140D02*
D03*
Y233649D02*
D03*
X179140D02*
D03*
X174140D02*
D03*
X169140D02*
D03*
X164140D02*
D03*
X159140D02*
D03*
X154140D02*
D03*
X179140Y194751D02*
D03*
X174140D02*
D03*
X169140D02*
D03*
X164140D02*
D03*
X159140D02*
D03*
X154140D02*
D03*
X149140D02*
D03*
X184140D02*
D03*
X149140Y233649D02*
D03*
D18*
X184140D02*
D03*
D19*
X256279Y246941D02*
D03*
Y259539D02*
D03*
X216909Y246941D02*
D03*
Y259539D02*
D03*
X177539Y246941D02*
D03*
Y259539D02*
D03*
X138169Y246941D02*
D03*
Y259539D02*
D03*
D20*
X42050Y253240D02*
D03*
D21*
X15900D02*
D03*
D22*
X42050Y243240D02*
D03*
X15902D02*
D03*
X15903Y233240D02*
D03*
X42052D02*
D03*
D23*
X236000Y272927D02*
D03*
Y299076D02*
D03*
X298300Y257737D02*
D03*
Y231588D02*
D03*
X308300Y231590D02*
D03*
Y257738D02*
D03*
X78300Y272927D02*
D03*
Y299076D02*
D03*
X128000Y272927D02*
D03*
Y299076D02*
D03*
D24*
X226000Y272925D02*
D03*
X288300Y231587D02*
D03*
X68300Y272925D02*
D03*
X118000D02*
D03*
D25*
X226000Y299076D02*
D03*
X288300Y257737D02*
D03*
X68300Y299076D02*
D03*
X118000D02*
D03*
D26*
X231400Y242800D02*
X252138D01*
X128240Y277600D02*
X140140D01*
X231400Y242800D02*
X232000Y242200D01*
Y241600D02*
Y242200D01*
X25940Y271663D02*
X46500D01*
X86000Y277000D02*
X94000Y269000D01*
X97500Y265500D01*
X115340Y237660D02*
X118000Y235000D01*
X115340Y237660D02*
Y249463D01*
X97500Y256374D02*
Y265500D01*
X86000Y277000D02*
Y293000D01*
X92000Y299000D01*
X97500D01*
X188440Y184200D02*
X189040Y183600D01*
X199040Y194500D02*
X214000D01*
X222000Y202500D01*
X242000D01*
X247200Y207700D01*
Y230900D01*
X248800Y232500D01*
X254063D01*
X231400Y241600D02*
X232000D01*
X218400D02*
X231400D01*
X96263Y255137D02*
X97500Y256374D01*
X46500Y271663D02*
Y272063D01*
Y269600D02*
Y271663D01*
X208500Y231700D02*
X218400Y241600D01*
X208500Y212400D02*
Y231700D01*
X206763Y210663D02*
X208500Y212400D01*
X200640Y210663D02*
X206763D01*
X191538Y253438D02*
Y260038D01*
X185041Y246941D02*
X191538Y253438D01*
X43840Y266940D02*
X46500Y269600D01*
X149140Y188740D02*
Y194751D01*
X87177Y246100D02*
X88340Y247263D01*
X79965Y246100D02*
X87177D01*
X87003Y253800D02*
X88340Y255137D01*
X79965Y253800D02*
X87003D01*
X261800Y186500D02*
X300000D01*
X255636Y192664D02*
X261800Y186500D01*
X253100Y192664D02*
X255636D01*
X303937Y190437D02*
Y193200D01*
X300000Y186500D02*
X303937Y190437D01*
X308991Y207554D02*
Y212400D01*
X303937Y202500D02*
X308991Y207554D01*
X308300Y231590D02*
X308991Y230898D01*
Y212400D02*
Y230898D01*
X164700Y248923D02*
X166340Y250563D01*
X164700Y246040D02*
Y248923D01*
Y246040D02*
X169140Y241600D01*
X128500Y259500D02*
X135000D01*
X127039Y258039D02*
X128500Y259500D01*
X125740Y258039D02*
X127039D01*
X125200Y231340D02*
X131440Y225100D01*
X125200Y231340D02*
Y249423D01*
X104740Y249463D02*
X110400Y243803D01*
X111003Y253000D02*
X115340Y257337D01*
X109200Y253000D02*
X111003D01*
X105663Y249463D02*
X109200Y253000D01*
X104740Y249463D02*
X105663D01*
X110400Y231100D02*
Y243803D01*
Y231100D02*
X123000Y218500D01*
X154140Y233649D02*
Y259140D01*
X162000Y267000D02*
Y268623D01*
X154140Y259140D02*
X162000Y267000D01*
Y268623D02*
X163340Y269963D01*
X149040Y232800D02*
Y260625D01*
Y269900D02*
X149203Y270063D01*
X149340Y277937D02*
X153840Y282437D01*
X226000Y299076D02*
Y305000D01*
X225500Y305500D02*
X226000Y305000D01*
X104740Y257337D02*
X105040Y257637D01*
Y265300D01*
X118000Y263500D02*
Y272925D01*
X115500Y261000D02*
X118000Y263500D01*
X115500Y257497D02*
Y261000D01*
X115340Y257337D02*
X115500Y257497D01*
X174140Y188500D02*
X179040Y183600D01*
X272137Y255637D02*
X276600D01*
X267000Y250500D02*
X272137Y255637D01*
X267000Y234000D02*
Y250500D01*
X261937Y232500D02*
X265500D01*
X267000Y234000D01*
X288300Y256800D02*
Y257737D01*
X287137Y255637D02*
X288300Y256800D01*
X276600Y255637D02*
X287137D01*
X55900Y284400D02*
Y306900D01*
X153840Y282437D02*
Y305340D01*
X154500Y306000D01*
X138169Y246941D02*
X139140Y245969D01*
X26140Y273063D02*
X26740D01*
X139140Y233649D02*
Y245969D01*
X149040Y260625D02*
Y269900D01*
X156940Y177400D02*
X215477D01*
X271540Y279360D02*
X273163D01*
X271637Y269310D02*
Y279263D01*
X264065Y279360D02*
X271540D01*
X271637Y279263D01*
X248500Y269410D02*
X263663D01*
X253965Y192700D02*
X255440D01*
X152940Y181400D02*
X156940Y177400D01*
X152940Y181400D02*
Y185300D01*
X77490Y234043D02*
Y237650D01*
X76140Y239000D02*
X77490Y237650D01*
X68932Y239000D02*
X76140D01*
X55349Y232566D02*
X57040Y230875D01*
Y228537D02*
Y230875D01*
X55349Y232566D02*
Y239000D01*
X184140Y201000D02*
Y211000D01*
Y194751D02*
Y201000D01*
X184703Y201563D01*
X186003Y227037D02*
X191740D01*
X184140Y228900D02*
X186003Y227037D01*
X184140Y228900D02*
Y233649D01*
X180640Y189100D02*
X182840D01*
X179140Y190600D02*
X180640Y189100D01*
X179140Y190600D02*
Y194751D01*
X187440Y184500D02*
X189040D01*
X182840Y189100D02*
X187440Y184500D01*
X184703Y201563D02*
X191540D01*
X174140Y188500D02*
Y194751D01*
X189040Y184500D02*
X199040Y194500D01*
X184140Y211000D02*
Y216200D01*
X191540Y201563D02*
X199303D01*
X131340Y202551D02*
Y204300D01*
Y202551D02*
X139140Y194751D01*
X131440Y225100D02*
X141240D01*
X144140Y228000D01*
Y233649D01*
X204940Y250063D02*
X205840Y250963D01*
X204940Y244600D02*
Y250063D01*
X173740Y222400D02*
X174140Y222800D01*
Y233649D01*
X164140Y223400D02*
X164340Y223200D01*
X164140Y223400D02*
Y233649D01*
X236203Y251263D02*
X244940D01*
X159140Y224700D02*
Y233649D01*
X169140D02*
Y241600D01*
X201940D02*
X204940Y244600D01*
X182140Y241600D02*
X201940D01*
X179140Y238600D02*
X182140Y241600D01*
X179140Y233649D02*
Y238600D01*
X206542Y259539D02*
X216909D01*
X245342D02*
X256279D01*
X184140Y216200D02*
X187103Y219163D01*
X191740D01*
X164840Y259539D02*
X177539D01*
X152940Y185300D02*
X159140Y191500D01*
Y194751D01*
X169040Y183600D02*
X169140Y183700D01*
Y194751D01*
X190089Y233649D02*
X190440Y234000D01*
X184140Y233649D02*
X190089D01*
X27140Y281337D02*
Y288400D01*
X235840Y188563D02*
X236237Y188960D01*
X243516D01*
X227037Y196440D02*
X243516D01*
X226840Y196637D02*
X227037Y196440D01*
X264065Y286840D02*
X264168Y286737D01*
X271540D01*
X163543Y278040D02*
X181016D01*
X163340Y277837D02*
X163543Y278040D01*
X78720Y264712D02*
Y272925D01*
Y264712D02*
X80331Y263100D01*
X57040Y220663D02*
X67740D01*
Y228537D02*
X68932Y229728D01*
Y239000D01*
X191540Y209437D02*
X199414D01*
X200640Y210663D01*
X26740Y280937D02*
X26840Y281037D01*
X27140Y281337D01*
X222777Y184700D02*
X226840Y188763D01*
X308300Y231590D02*
Y257738D01*
X42050Y253240D02*
X43840Y255030D01*
X22763Y280937D02*
X26140D01*
X15903Y233240D02*
X17100Y232043D01*
X128000Y211000D02*
X184140D01*
X88340Y247263D02*
X93974D01*
X101800Y239437D01*
X67740Y220663D02*
X69277Y222200D01*
X82490Y214357D02*
Y222200D01*
Y234043D01*
X87490Y214357D02*
Y222200D01*
Y234043D01*
X69277Y222200D02*
X82490D01*
X87490D01*
X57040Y207157D02*
Y220663D01*
Y207157D02*
X61260Y202937D01*
X49260D02*
X61260D01*
X55349Y239000D02*
Y283849D01*
X55900Y284400D01*
X295309Y212500D02*
X295409Y212400D01*
X215477Y177400D02*
X222777Y184700D01*
X68476Y249800D02*
Y252540D01*
X66749Y254267D02*
X68476Y252540D01*
X78300Y272927D02*
Y299076D01*
X84124Y304900D02*
X85400D01*
X78300Y299076D02*
X84124Y304900D01*
X68300Y272925D02*
Y299076D01*
X66749Y254267D02*
Y270954D01*
X68720Y272925D01*
X46737Y220663D02*
X57040D01*
X132651Y233649D02*
X139140D01*
X172940Y270263D02*
X180219D01*
X177539Y246941D02*
X185041D01*
X216909D02*
X227259D01*
X252138Y242800D02*
X256279Y246941D01*
X271540Y286737D02*
X279937D01*
X245600Y180200D02*
Y186876D01*
X243516Y188960D02*
X245600Y186876D01*
X88340Y255137D02*
X96263D01*
X227259Y246941D02*
X231400Y242800D01*
X196900Y265400D02*
Y267700D01*
X181016Y270560D02*
X191538Y260038D01*
X196900Y265400D01*
X128000Y272927D02*
Y299076D01*
X303937Y193200D02*
Y202500D01*
X123000Y218500D02*
X152940D01*
X159140Y224700D01*
X118500Y201500D02*
X128000Y211000D01*
X118500Y195500D02*
Y201500D01*
X116063Y193063D02*
X118500Y195500D01*
X77490Y208490D02*
Y214357D01*
X81177Y193063D02*
X84000D01*
X96000D01*
X108000D01*
X116063D01*
X96000Y200937D02*
X108000D01*
X82490Y202447D02*
Y214357D01*
Y202447D02*
X84000Y200937D01*
X87490Y201427D02*
Y214357D01*
X84000Y200937D02*
X96000D01*
X72300Y203300D02*
X77490Y208490D01*
X70940Y203300D02*
X72300D01*
X128000Y299076D02*
X136424D01*
D27*
X43840Y255030D02*
Y266940D01*
X295309Y212500D02*
Y218409D01*
X298300Y221400D01*
Y231588D01*
X216600Y305500D02*
X225500D01*
X245900Y293391D02*
Y297100D01*
X243924Y299076D02*
X245900Y297100D01*
X236000Y299076D02*
X243924D01*
X218076D02*
X226000D01*
X215700Y296700D02*
X218076Y299076D01*
X215700Y292391D02*
Y296700D01*
X298300Y231588D02*
Y244500D01*
Y257737D01*
X17179Y253240D02*
Y270054D01*
X16700Y283091D02*
X20609D01*
X22763Y280937D01*
X4740Y243240D02*
X15902D01*
X17100Y223300D02*
Y232043D01*
X286300Y212500D02*
X295309D01*
X226000Y299076D02*
X236000D01*
X42050Y243240D02*
Y253240D01*
X70940Y203300D02*
X81177Y193063D01*
D28*
X145600Y185200D02*
X149140Y188740D01*
X78700Y185200D02*
X145600D01*
X68837Y195063D02*
X78700Y185200D01*
X61260Y195063D02*
X68837D01*
X41837D02*
X49260D01*
X38900Y198000D02*
X41837Y195063D01*
X38900Y198000D02*
Y230088D01*
X42052Y233240D01*
X26840Y281037D02*
X46200D01*
X295409Y212400D02*
X296063Y211746D01*
Y202500D02*
Y211746D01*
Y193200D02*
Y202500D01*
X140140Y270013D02*
X148927D01*
X276600Y244500D02*
X298300D01*
X276600D02*
Y247763D01*
Y235737D02*
Y244500D01*
X253500Y210000D02*
X254063Y210563D01*
Y222000D01*
X261937D02*
X270737D01*
X288300Y229800D02*
Y231587D01*
X286263Y227763D02*
X288300Y229800D01*
X276500Y227763D02*
X286263D01*
X49260Y195063D02*
X61260D01*
X192366Y218537D02*
X200640D01*
X270737Y222000D02*
X276500Y227763D01*
X101800Y231563D02*
X102000Y231363D01*
Y224670D02*
Y231363D01*
X103230Y221700D02*
X104970D01*
X105585Y222315D01*
X102000Y224670D02*
X104970Y221700D01*
D29*
X118090Y272925D02*
Y292610D01*
D30*
X201075Y272925D02*
X226000D01*
X199700Y274300D02*
X201075Y272925D01*
X191465Y274300D02*
X199700D01*
X245900Y275900D02*
Y279809D01*
X242927Y272927D02*
X245900Y275900D01*
X236000Y272927D02*
X242927D01*
X215700Y272925D02*
Y278809D01*
X249191Y283100D02*
X253616D01*
X245900Y279809D02*
X249191Y283100D01*
D31*
X41241Y182295D02*
Y181114D01*
X41635Y180720D01*
X42028Y181114D01*
X42422Y180720D01*
X42815Y181114D01*
Y182295D01*
X43602D02*
Y181114D01*
X43996Y180720D01*
X44390Y181114D01*
X44783Y180720D01*
X45177Y181114D01*
Y182295D01*
X45964D02*
Y181114D01*
X46357Y180720D01*
X46751Y181114D01*
X47144Y180720D01*
X47538Y181114D01*
Y182295D01*
X48325Y180720D02*
Y181114D01*
X48719D01*
Y180720D01*
X48325D01*
X51867Y183082D02*
Y180720D01*
X50687D01*
X50293Y181114D01*
Y181901D01*
X50687Y182295D01*
X51867D01*
X52655Y180720D02*
X53442D01*
X53048D01*
Y182295D01*
X52655D01*
X55016D02*
X55803D01*
X56197Y181901D01*
Y180720D01*
X55016D01*
X54622Y181114D01*
X55016Y181508D01*
X56197D01*
X56984Y179933D02*
Y182295D01*
X58165D01*
X58558Y181901D01*
Y181114D01*
X58165Y180720D01*
X56984D01*
X59345Y182295D02*
Y180720D01*
Y181508D01*
X59739Y181901D01*
X60132Y182295D01*
X60526D01*
X62100Y180720D02*
X62888D01*
X63281Y181114D01*
Y181901D01*
X62888Y182295D01*
X62100D01*
X61707Y181901D01*
Y181114D01*
X62100Y180720D01*
X64068D02*
Y181114D01*
X64462D01*
Y180720D01*
X64068D01*
X66036Y183082D02*
Y180720D01*
Y181901D01*
X66430Y182295D01*
X67217D01*
X67610Y181901D01*
Y180720D01*
X68397Y182295D02*
Y181114D01*
X68791Y180720D01*
X69972D01*
Y182295D01*
X42241Y188082D02*
Y185721D01*
X43422D01*
X43815Y186114D01*
Y187688D01*
X43422Y188082D01*
X42241D01*
X44602Y185721D02*
X45390D01*
X44996D01*
Y187295D01*
X44602D01*
X46964D02*
X47751D01*
X48145Y186901D01*
Y185721D01*
X46964D01*
X46570Y186114D01*
X46964Y186508D01*
X48145D01*
X48932Y184933D02*
Y187295D01*
X50112D01*
X50506Y186901D01*
Y186114D01*
X50112Y185721D01*
X48932D01*
X51293Y187295D02*
Y185721D01*
Y186508D01*
X51687Y186901D01*
X52080Y187295D01*
X52474D01*
X54048Y185721D02*
X54835D01*
X55229Y186114D01*
Y186901D01*
X54835Y187295D01*
X54048D01*
X53655Y186901D01*
Y186114D01*
X54048Y185721D01*
X58377Y188082D02*
Y185721D01*
Y186508D01*
X59952Y188082D01*
X58771Y186901D01*
X59952Y185721D01*
X61132D02*
Y187688D01*
Y186901D01*
X60739D01*
X61526D01*
X61132D01*
Y187688D01*
X61526Y188082D01*
X63100Y187688D02*
Y187295D01*
X62707D01*
X63494D01*
X63100D01*
Y186114D01*
X63494Y185721D01*
X64675D02*
Y186114D01*
X65068D01*
Y185721D01*
X64675D01*
X260241Y201220D02*
Y202795D01*
X261028Y203582D01*
X261815Y202795D01*
Y201220D01*
Y202401D01*
X260241D01*
X264177Y203188D02*
X263783Y203582D01*
X262996D01*
X262602Y203188D01*
Y202795D01*
X262996Y202401D01*
X263783D01*
X264177Y202008D01*
Y201614D01*
X263783Y201220D01*
X262996D01*
X262602Y201614D01*
X264964Y201220D02*
Y203582D01*
X266144D01*
X266538Y203188D01*
Y202401D01*
X266144Y202008D01*
X264964D01*
X269687Y203582D02*
Y201220D01*
X271261D01*
X273622Y203582D02*
X272048D01*
Y201220D01*
X273622D01*
X272048Y202401D02*
X272835D01*
X274410Y203582D02*
Y201220D01*
X275590D01*
X275984Y201614D01*
Y203188D01*
X275590Y203582D01*
X274410D01*
X276771D02*
Y201220D01*
X277952D01*
X278345Y201614D01*
Y202008D01*
X277952Y202401D01*
X276771D01*
X277952D01*
X278345Y202795D01*
Y203188D01*
X277952Y203582D01*
X276771D01*
X279526Y201220D02*
X280313D01*
X280707Y201614D01*
Y202401D01*
X280313Y202795D01*
X279526D01*
X279133Y202401D01*
Y201614D01*
X279526Y201220D01*
X281888Y202795D02*
X282675D01*
X283068Y202401D01*
Y201220D01*
X281888D01*
X281494Y201614D01*
X281888Y202008D01*
X283068D01*
X283855Y202795D02*
Y201220D01*
Y202008D01*
X284249Y202401D01*
X284643Y202795D01*
X285036D01*
X287791Y203582D02*
Y201220D01*
X286610D01*
X286217Y201614D01*
Y202401D01*
X286610Y202795D01*
X287791D01*
X271241Y197082D02*
Y195508D01*
X272028Y194720D01*
X272815Y195508D01*
Y197082D01*
X275177Y194720D02*
X273602D01*
X275177Y196295D01*
Y196688D01*
X274783Y197082D01*
X273996D01*
X273602Y196688D01*
X231918Y210815D02*
Y209241D01*
X233099D01*
Y210028D01*
Y209241D01*
X234279D01*
Y211602D02*
X232705D01*
X231918Y212389D01*
X232705Y213177D01*
X234279D01*
X233099D01*
Y211602D01*
X234279Y213964D02*
X231918D01*
X234279Y215538D01*
X231918D01*
X233099Y216325D02*
Y217899D01*
X232312Y217112D02*
X233886D01*
X236312Y210815D02*
X235918Y210422D01*
Y209634D01*
X236312Y209241D01*
X237886D01*
X238280Y209634D01*
Y210422D01*
X237886Y210815D01*
X237099D01*
Y210028D01*
X238280Y211602D02*
X235918D01*
X238280Y213177D01*
X235918D01*
Y213964D02*
X238280D01*
Y215144D01*
X237886Y215538D01*
X236312D01*
X235918Y215144D01*
Y213964D01*
X236312Y223815D02*
X235918Y223422D01*
Y222635D01*
X236312Y222241D01*
X237886D01*
X238280Y222635D01*
Y223422D01*
X237886Y223815D01*
X237099D01*
Y223028D01*
X238280Y224602D02*
X235918D01*
X238280Y226177D01*
X235918D01*
Y226964D02*
X238280D01*
Y228145D01*
X237886Y228538D01*
X236312D01*
X235918Y228145D01*
Y226964D01*
X231918Y223815D02*
Y222241D01*
X233099D01*
Y223028D01*
Y222241D01*
X234279D01*
Y224602D02*
X232705D01*
X231918Y225390D01*
X232705Y226177D01*
X234279D01*
X233099D01*
Y224602D01*
X234279Y226964D02*
X231918D01*
X234279Y228538D01*
X231918D01*
X233099Y229325D02*
Y230900D01*
X232312Y230112D02*
X233886D01*
X228312Y223815D02*
X227918Y223422D01*
Y222635D01*
X228312Y222241D01*
X228705D01*
X229099Y222635D01*
Y223422D01*
X229492Y223815D01*
X229886D01*
X230279Y223422D01*
Y222635D01*
X229886Y222241D01*
X227918Y226177D02*
Y224602D01*
X230279D01*
Y226177D01*
X229099Y224602D02*
Y225390D01*
X230279Y226964D02*
X227918D01*
X230279Y228538D01*
X227918D01*
X228312Y230900D02*
X227918Y230506D01*
Y229719D01*
X228312Y229325D01*
X228705D01*
X229099Y229719D01*
Y230506D01*
X229492Y230900D01*
X229886D01*
X230279Y230506D01*
Y229719D01*
X229886Y229325D01*
X228312Y210815D02*
X227918Y210422D01*
Y209634D01*
X228312Y209241D01*
X228705D01*
X229099Y209634D01*
Y210422D01*
X229492Y210815D01*
X229886D01*
X230279Y210422D01*
Y209634D01*
X229886Y209241D01*
X227918Y213177D02*
Y211602D01*
X230279D01*
Y213177D01*
X229099Y211602D02*
Y212389D01*
X230279Y213964D02*
X227918D01*
X230279Y215538D01*
X227918D01*
X228312Y217899D02*
X227918Y217506D01*
Y216719D01*
X228312Y216325D01*
X228705D01*
X229099Y216719D01*
Y217506D01*
X229492Y217899D01*
X229886D01*
X230279Y217506D01*
Y216719D01*
X229886Y216325D01*
X175815Y297688D02*
X175422Y298082D01*
X174635D01*
X174241Y297688D01*
Y296114D01*
X174635Y295721D01*
X175422D01*
X175815Y296114D01*
Y296901D01*
X175028D01*
X176602Y295721D02*
Y298082D01*
X178177Y295721D01*
Y298082D01*
X178964D02*
Y295721D01*
X180145D01*
X180538Y296114D01*
Y297688D01*
X180145Y298082D01*
X178964D01*
X197815Y297688D02*
X197422Y298082D01*
X196634D01*
X196241Y297688D01*
Y296114D01*
X196634Y295721D01*
X197422D01*
X197815Y296114D01*
Y296901D01*
X197028D01*
X198602Y295721D02*
Y298082D01*
X200177Y295721D01*
Y298082D01*
X200964D02*
Y295721D01*
X202145D01*
X202538Y296114D01*
Y297688D01*
X202145Y298082D01*
X200964D01*
X192241Y299721D02*
Y302082D01*
X193422D01*
X193815Y301688D01*
Y300901D01*
X193422Y300508D01*
X192241D01*
X193028D02*
X193815Y299721D01*
X196177Y302082D02*
X194602D01*
Y299721D01*
X196177D01*
X194602Y300901D02*
X195389D01*
X196964Y302082D02*
Y299721D01*
X198538D01*
X199325D02*
Y301295D01*
X200112Y302082D01*
X200900Y301295D01*
Y299721D01*
Y300901D01*
X199325D01*
X201687Y302082D02*
Y301688D01*
X202474Y300901D01*
X203261Y301688D01*
Y302082D01*
X202474Y300901D02*
Y299721D01*
X204048Y299327D02*
X205622D01*
X206410Y302082D02*
Y299721D01*
X207590D01*
X207984Y300114D01*
Y300508D01*
X207590Y300901D01*
X206410D01*
X207590D01*
X207984Y301295D01*
Y301688D01*
X207590Y302082D01*
X206410D01*
X208771Y300901D02*
X210345D01*
X209558Y301688D02*
Y300114D01*
X170241Y299721D02*
Y302082D01*
X171422D01*
X171815Y301688D01*
Y300901D01*
X171422Y300508D01*
X170241D01*
X171028D02*
X171815Y299721D01*
X174177Y302082D02*
X172602D01*
Y299721D01*
X174177D01*
X172602Y300901D02*
X173389D01*
X174964Y302082D02*
Y299721D01*
X176538D01*
X177325D02*
Y301295D01*
X178112Y302082D01*
X178900Y301295D01*
Y299721D01*
Y300901D01*
X177325D01*
X179687Y302082D02*
Y301688D01*
X180474Y300901D01*
X181261Y301688D01*
Y302082D01*
X180474Y300901D02*
Y299721D01*
X182048Y299327D02*
X183622D01*
X184410Y299721D02*
Y301295D01*
X185197Y302082D01*
X185984Y301295D01*
Y299721D01*
Y300901D01*
X184410D01*
X186771D02*
X188345D01*
X187558Y301688D02*
Y300114D01*
X88241Y285082D02*
Y282720D01*
X89422D01*
X89815Y283114D01*
Y283508D01*
X89422Y283901D01*
X88241D01*
X89422D01*
X89815Y284295D01*
Y284688D01*
X89422Y285082D01*
X88241D01*
X90602D02*
Y283114D01*
X90996Y282720D01*
X91783D01*
X92177Y283114D01*
Y285082D01*
X92964D02*
X94538D01*
X93751D01*
Y282720D01*
X95325Y285082D02*
X96899D01*
X96112D01*
Y282720D01*
X98867Y285082D02*
X98080D01*
X97687Y284688D01*
Y283114D01*
X98080Y282720D01*
X98867D01*
X99261Y283114D01*
Y284688D01*
X98867Y285082D01*
X100048Y282720D02*
Y285082D01*
X101622Y282720D01*
Y285082D01*
X102410Y283901D02*
X103984D01*
X103197Y284688D02*
Y283114D01*
X106815Y284688D02*
X106422Y285082D01*
X105634D01*
X105241Y284688D01*
Y283114D01*
X105634Y282720D01*
X106422D01*
X106815Y283114D01*
Y283901D01*
X106028D01*
X107602Y282720D02*
Y285082D01*
X109177Y282720D01*
Y285082D01*
X109964D02*
Y282720D01*
X111144D01*
X111538Y283114D01*
Y284688D01*
X111144Y285082D01*
X109964D01*
X106815Y288688D02*
X106422Y289082D01*
X105634D01*
X105241Y288688D01*
Y287114D01*
X105634Y286720D01*
X106422D01*
X106815Y287114D01*
Y287901D01*
X106028D01*
X107602Y286720D02*
Y289082D01*
X109177Y286720D01*
Y289082D01*
X109964D02*
Y286720D01*
X111144D01*
X111538Y287114D01*
Y288688D01*
X111144Y289082D01*
X109964D01*
X88241D02*
Y286720D01*
X89422D01*
X89815Y287114D01*
Y287508D01*
X89422Y287901D01*
X88241D01*
X89422D01*
X89815Y288295D01*
Y288688D01*
X89422Y289082D01*
X88241D01*
X90602D02*
Y287114D01*
X90996Y286720D01*
X91783D01*
X92177Y287114D01*
Y289082D01*
X92964D02*
X94538D01*
X93751D01*
Y286720D01*
X95325Y289082D02*
X96899D01*
X96112D01*
Y286720D01*
X98867Y289082D02*
X98080D01*
X97687Y288688D01*
Y287114D01*
X98080Y286720D01*
X98867D01*
X99261Y287114D01*
Y288688D01*
X98867Y289082D01*
X100048Y286720D02*
Y289082D01*
X101622Y286720D01*
Y289082D01*
X102410Y287901D02*
X103984D01*
X103197Y288688D02*
Y287114D01*
X9574Y217361D02*
X8000D01*
Y216181D01*
X8787Y216574D01*
X9181D01*
X9574Y216181D01*
Y215394D01*
X9181Y215000D01*
X8394D01*
X8000Y215394D01*
X10361Y217361D02*
Y215787D01*
X11149Y215000D01*
X11936Y215787D01*
Y217361D01*
X22574Y216968D02*
X22181Y217361D01*
X21394D01*
X21000Y216968D01*
Y215394D01*
X21394Y215000D01*
X22181D01*
X22574Y215394D01*
Y216181D01*
X21787D01*
X23361Y215000D02*
Y217361D01*
X24936Y215000D01*
Y217361D01*
X25723D02*
Y215000D01*
X26904D01*
X27297Y215394D01*
Y216968D01*
X26904Y217361D01*
X25723D01*
X22574Y212968D02*
X22181Y213361D01*
X21394D01*
X21000Y212968D01*
Y211394D01*
X21394Y211000D01*
X22181D01*
X22574Y211394D01*
Y212181D01*
X21787D01*
X23361Y211000D02*
Y213361D01*
X24936Y211000D01*
Y213361D01*
X25723D02*
Y211000D01*
X26904D01*
X27297Y211394D01*
Y212968D01*
X26904Y213361D01*
X25723D01*
X22181Y209361D02*
X21394D01*
X21000Y208968D01*
Y207394D01*
X21394Y207000D01*
X22181D01*
X22574Y207394D01*
Y208968D01*
X22181Y209361D01*
X23361Y207000D02*
Y209361D01*
X24542D01*
X24936Y208968D01*
Y208181D01*
X24542Y207787D01*
X23361D01*
X25723Y209361D02*
X27297D01*
X26510D01*
Y207000D01*
X29265Y209361D02*
X28478D01*
X28084Y208968D01*
Y207394D01*
X28478Y207000D01*
X29265D01*
X29659Y207394D01*
Y208968D01*
X29265Y209361D01*
X30446Y208181D02*
X32020D01*
X9181Y209361D02*
X8394D01*
X8000Y208968D01*
Y207394D01*
X8394Y207000D01*
X9181D01*
X9574Y207394D01*
Y208968D01*
X9181Y209361D01*
X10361Y207000D02*
Y209361D01*
X11542D01*
X11936Y208968D01*
Y208181D01*
X11542Y207787D01*
X10361D01*
X12723Y209361D02*
X14297D01*
X13510D01*
Y207000D01*
X16265Y209361D02*
X15478D01*
X15084Y208968D01*
Y207394D01*
X15478Y207000D01*
X16265D01*
X16659Y207394D01*
Y208968D01*
X16265Y209361D01*
X17446Y208181D02*
X19020D01*
X18233Y208968D02*
Y207394D01*
X8000Y211000D02*
X8787D01*
X8394D01*
Y213361D01*
X8000Y212968D01*
X11542Y211000D02*
X9968D01*
X11542Y212574D01*
Y212968D01*
X11149Y213361D01*
X10361D01*
X9968Y212968D01*
X12329Y213361D02*
Y211787D01*
X13116Y211000D01*
X13904Y211787D01*
Y213361D01*
X17241Y300082D02*
Y297721D01*
X18815D01*
X21177Y300082D02*
X19602D01*
Y297721D01*
X21177D01*
X19602Y298901D02*
X20390D01*
X21964Y300082D02*
Y297721D01*
X23144D01*
X23538Y298114D01*
Y299688D01*
X23144Y300082D01*
X21964D01*
X24325Y298901D02*
X25899D01*
X30241Y300082D02*
Y297721D01*
X31815D01*
X34177Y300082D02*
X32602D01*
Y297721D01*
X34177D01*
X32602Y298901D02*
X33389D01*
X34964Y300082D02*
Y297721D01*
X36145D01*
X36538Y298114D01*
Y299688D01*
X36145Y300082D01*
X34964D01*
X37325Y298901D02*
X38899D01*
X38112Y299688D02*
Y298114D01*
X30241Y304082D02*
Y301720D01*
X31815D01*
X34177Y304082D02*
X32602D01*
Y301720D01*
X34177D01*
X32602Y302901D02*
X33389D01*
X34964Y304082D02*
Y301720D01*
X36145D01*
X36538Y302114D01*
Y303688D01*
X36145Y304082D01*
X34964D01*
X37325Y302901D02*
X38899D01*
X38112Y303688D02*
Y302114D01*
X17241Y304082D02*
Y301720D01*
X18815D01*
X21177Y304082D02*
X19602D01*
Y301720D01*
X21177D01*
X19602Y302901D02*
X20390D01*
X21964Y304082D02*
Y301720D01*
X23144D01*
X23538Y302114D01*
Y303688D01*
X23144Y304082D01*
X21964D01*
X24325Y302901D02*
X25899D01*
D32*
X301161Y298516D02*
D03*
X13759Y188279D02*
D03*
D33*
X159040Y184500D02*
D03*
X169040D02*
D03*
X179040D02*
D03*
X189040D02*
D03*
X199040D02*
D03*
D34*
X209040D02*
D03*
D35*
X256279Y253240D02*
D03*
X216909D02*
D03*
X177539D02*
D03*
X138169D02*
D03*
D36*
X94000Y269000D02*
D03*
X118000Y235000D02*
D03*
X44000Y264000D02*
D03*
X46737Y220663D02*
D03*
X248500Y269410D02*
D03*
X70940Y203300D02*
D03*
X199340Y201600D02*
D03*
X164340Y223200D02*
D03*
X173740Y222400D02*
D03*
X235540Y251400D02*
D03*
X131340Y204300D02*
D03*
X105040Y265300D02*
D03*
X190440Y234000D02*
D03*
X27140Y288400D02*
D03*
X4600Y243100D02*
D03*
X17100Y223300D02*
D03*
X104970Y221700D02*
D03*
X56100Y305700D02*
D03*
X85400Y304900D02*
D03*
X216600Y305500D02*
D03*
X253500Y210000D02*
D03*
X286300Y212500D02*
D03*
X245600Y180200D02*
D03*
X231400Y241600D02*
D03*
X280800Y287300D02*
D03*
X196900Y267700D02*
D03*
X154500Y306000D02*
D03*
X132000Y233900D02*
D03*
X138000Y299000D02*
D03*
X97500D02*
D03*
M02*
