%FSTAX24Y24*%
%MOIN*%
G70*
G01*
G75*
G04 Layer_Physical_Order=1*
G04 Layer_Color=255*
%ADD10R,0.0709X0.0709*%
%ADD11R,0.0512X0.0472*%
%ADD12R,0.0374X0.1004*%
%ADD13R,0.1299X0.1004*%
%ADD14R,0.0512X0.0394*%
%ADD15R,0.0394X0.0512*%
%ADD16R,0.0630X0.0630*%
%ADD17O,0.0906X0.0236*%
%ADD18C,0.0100*%
%ADD19R,0.0591X0.0591*%
%ADD20C,0.0591*%
%ADD21C,0.0320*%
G36*
X238891Y196927D02*
X242886Y192932D01*
Y187787D01*
X242837Y187778D01*
X242814Y187831D01*
X242757Y187906D01*
X242682Y187964D01*
X242594Y188D01*
X2425Y188013D01*
X242406Y188D01*
X242318Y187964D01*
X242243Y187906D01*
X242186Y187831D01*
X242149Y187744D01*
X242137Y18765D01*
X242149Y187559D01*
X242102Y187512D01*
X242056Y187531D01*
Y18804D01*
X241144D01*
Y187754D01*
X240916D01*
X240886Y187777D01*
X240809Y18781D01*
X240726Y18782D01*
X240057D01*
X239974Y18781D01*
X239896Y187777D01*
X239866Y187754D01*
X238956D01*
X238156Y188554D01*
Y189233D01*
X238201Y189255D01*
X23825Y189217D01*
X238371Y189167D01*
X2385Y18915D01*
X238629Y189167D01*
X23875Y189217D01*
X238853Y189296D01*
X238933Y1894D01*
X238983Y18952D01*
X239Y18965D01*
X238983Y189779D01*
X238933Y189899D01*
X238853Y190003D01*
X23875Y190082D01*
X238629Y190132D01*
X2385Y190149D01*
X238371Y190132D01*
X23825Y190082D01*
X23818Y190028D01*
X238156Y19004D01*
Y19004D01*
X238156Y19004D01*
X23725D01*
Y19098D01*
X236655D01*
Y191919D01*
X236787D01*
Y193242D01*
X236854D01*
Y193725D01*
X237385D01*
Y193465D01*
X238415D01*
Y194495D01*
X237385D01*
Y194235D01*
X236854D01*
Y19435D01*
X235746D01*
Y193904D01*
X235704Y193876D01*
X235629Y193907D01*
X235535Y19392D01*
X235441Y193907D01*
X235353Y193871D01*
X235278Y193813D01*
X23522Y193738D01*
X235184Y193651D01*
X235172Y193557D01*
X235184Y193463D01*
X23522Y193375D01*
X235226Y193368D01*
X235204Y193323D01*
X235107D01*
Y191919D01*
X235882D01*
Y193242D01*
X236013D01*
Y191919D01*
X236145D01*
Y19098D01*
X23555D01*
Y190193D01*
X234764Y189406D01*
X234709Y189324D01*
X234689Y189226D01*
Y189111D01*
X234488D01*
Y188239D01*
Y187372D01*
X2354D01*
Y187451D01*
X235681D01*
Y187848D01*
X235731D01*
Y187898D01*
X236187D01*
Y188239D01*
Y189032D01*
X2354D01*
Y189111D01*
X235255D01*
X235236Y189157D01*
X235655Y189576D01*
X236264D01*
X236286Y189532D01*
X236286Y189531D01*
X236249Y189444D01*
X236237Y18935D01*
X236249Y189256D01*
X236286Y189168D01*
X236343Y189093D01*
X236418Y189035D01*
X236506Y188999D01*
X236576Y18899D01*
X236589Y188941D01*
X236543Y188906D01*
X236486Y188831D01*
X236449Y188744D01*
X236443Y1887D01*
X237157D01*
X237151Y188744D01*
X237133Y188787D01*
X237174Y188815D01*
X237244Y188745D01*
Y188459D01*
X23753D01*
X23867Y187319D01*
X23867D01*
X23867Y187319D01*
X23867Y187319D01*
Y187319D01*
X238752Y187264D01*
X23885Y187245D01*
X239088D01*
X239111Y1872D01*
X239096Y187181D01*
X23906Y187094D01*
X239054Y18705D01*
X239411D01*
Y18695D01*
X239054D01*
X23906Y186906D01*
X239096Y186818D01*
X239111Y186799D01*
X239088Y186754D01*
X238905D01*
X238866Y186785D01*
X238778Y186821D01*
X238684Y186833D01*
X23859Y186821D01*
X238503Y186785D01*
X238428Y186727D01*
X23837Y186652D01*
X238334Y186564D01*
X238321Y18647D01*
X238334Y186376D01*
X23837Y186289D01*
X238428Y186213D01*
X238503Y186156D01*
X23859Y186119D01*
X238684Y186107D01*
X238778Y186119D01*
X238866Y186156D01*
X238941Y186213D01*
X238965Y186245D01*
X239787D01*
X239809Y1862D01*
X239779Y18616D01*
X239747Y186083D01*
X239736Y186D01*
X239747Y185917D01*
X239779Y185839D01*
X239809Y185799D01*
X239787Y185755D01*
X238594D01*
X238582Y185764D01*
X238494Y1858D01*
X2384Y185813D01*
X238306Y1858D01*
X238233Y18577D01*
X23822Y18579D01*
X23783Y18618D01*
X237748Y186235D01*
X23765Y186255D01*
X237413D01*
X237391Y186299D01*
X237421Y186339D01*
X237453Y186417D01*
X237464Y1865D01*
X237453Y186583D01*
X237421Y18666D01*
X23737Y186726D01*
Y186773D01*
X237421Y186839D01*
X237453Y186917D01*
X237464Y187D01*
X237453Y187083D01*
X237421Y18716D01*
X23737Y187226D01*
Y187273D01*
X237421Y187339D01*
X237453Y187417D01*
X237464Y1875D01*
X237453Y187583D01*
X237421Y18766D01*
X23737Y187726D01*
X237304Y187777D01*
X237226Y18781D01*
X237143Y18782D01*
X236474D01*
X236391Y18781D01*
X236314Y187777D01*
X236284Y187754D01*
X23625D01*
X236226Y18775D01*
X236187Y187781D01*
Y187798D01*
X235781D01*
Y187451D01*
X235781D01*
X235805Y187407D01*
X235765Y187347D01*
X235745Y18725D01*
Y18553D01*
X235699Y185511D01*
X235674Y185536D01*
X235656Y185548D01*
Y185746D01*
Y186093D01*
X234744D01*
Y185746D01*
Y184959D01*
X235495D01*
Y18484D01*
X234744D01*
Y184821D01*
X234703Y184793D01*
X2347Y184794D01*
X234606Y184806D01*
X234512Y184794D01*
X234453Y18477D01*
X234412Y184797D01*
Y194239D01*
X235699Y195526D01*
X235746Y195507D01*
Y194895D01*
X236854D01*
Y195725D01*
X237844Y196715D01*
X237888Y196781D01*
X237901Y196845D01*
X238041D01*
Y19685D01*
X238291Y1971D01*
Y201037D01*
X238891D01*
Y196927D01*
D02*
G37*
G36*
X242345Y18629D02*
Y185855D01*
X241244Y184755D01*
X240995D01*
X240973Y184799D01*
X241004Y184839D01*
X241036Y184917D01*
X241047Y185D01*
X241036Y185083D01*
X241004Y18516D01*
X240953Y185226D01*
Y185273D01*
X241004Y185339D01*
X241036Y185417D01*
X241047Y1855D01*
X241036Y185583D01*
X241004Y18566D01*
X240953Y185726D01*
X240959Y185745D01*
X24164D01*
X241738Y185764D01*
X24182Y185819D01*
X24182Y185819D01*
X24182Y185819D01*
X24228Y186279D01*
X242297Y186305D01*
X242345Y18629D01*
D02*
G37*
G36*
X242886Y185649D02*
Y184007D01*
X242844Y18398D01*
X242794Y184D01*
X2427Y184013D01*
X242606Y184D01*
X242518Y183964D01*
X242443Y183906D01*
X242386Y183831D01*
X242349Y183744D01*
X242337Y18365D01*
X242337Y183647D01*
X24213Y18344D01*
X241544D01*
Y182646D01*
Y182473D01*
X241499Y18245D01*
X241482Y182464D01*
X241394Y1825D01*
X2413Y182513D01*
X241206Y1825D01*
X241118Y182464D01*
X241043Y182406D01*
X240986Y182331D01*
X240949Y182244D01*
X240937Y18215D01*
X240949Y182056D01*
X240986Y181968D01*
X241043Y181893D01*
X241118Y181835D01*
X241206Y181799D01*
X2413Y181786D01*
X241394Y181799D01*
X241482Y181835D01*
X241525Y181868D01*
X241544Y181859D01*
Y181859D01*
X241544Y181859D01*
X242456D01*
Y182646D01*
Y183045D01*
X242698Y183287D01*
X2427Y183286D01*
X242794Y183299D01*
X242844Y18332D01*
X242886Y183292D01*
Y180646D01*
X240522D01*
X240503Y180692D01*
X240681Y18087D01*
X24075Y180817D01*
X240871Y180767D01*
X241Y18075D01*
X241129Y180767D01*
X24125Y180817D01*
X241353Y180896D01*
X241433Y181D01*
X241475Y181102D01*
X241525D01*
X241567Y181D01*
X241647Y180896D01*
X24175Y180817D01*
X241871Y180767D01*
X242Y18075D01*
X242129Y180767D01*
X24225Y180817D01*
X242353Y180896D01*
X242433Y181D01*
X242483Y18112D01*
X2425Y18125D01*
X242483Y181379D01*
X242433Y181499D01*
X242353Y181603D01*
X24225Y181682D01*
X242129Y181732D01*
X242Y181749D01*
X241871Y181732D01*
X24175Y181682D01*
X241647Y181603D01*
X241567Y181499D01*
X241525Y181397D01*
X241475D01*
X241433Y181499D01*
X241353Y181603D01*
X24125Y181682D01*
X241129Y181732D01*
X241Y181749D01*
X240871Y181732D01*
X24075Y181682D01*
X240647Y181603D01*
X240567Y181499D01*
X240546Y181447D01*
X24052Y18143D01*
X24051Y18142D01*
X240461Y18143D01*
X240433Y181499D01*
X240353Y181603D01*
X240255Y181678D01*
Y18185D01*
X240236Y181947D01*
X24018Y18203D01*
X238955Y183255D01*
Y18435D01*
X238936Y184447D01*
X23888Y18453D01*
X238367Y185043D01*
X238389Y185088D01*
X2384Y185086D01*
X238494Y185099D01*
X238582Y185135D01*
X238657Y185193D01*
X238697Y185245D01*
X239128D01*
X23915Y1852D01*
X239136Y185181D01*
X239099Y185094D01*
X239087Y185D01*
X239099Y184906D01*
X239136Y184818D01*
X239193Y184743D01*
X239268Y184685D01*
X239356Y184649D01*
X23945Y184636D01*
X239544Y184649D01*
X239632Y184685D01*
X239707Y184743D01*
X239708Y184745D01*
X239787D01*
X239809Y1847D01*
X239779Y18466D01*
X239747Y184583D01*
X239736Y1845D01*
X239747Y184417D01*
X239779Y184339D01*
X23983Y184273D01*
Y184226D01*
X239779Y18416D01*
X239747Y184083D01*
X239736Y184D01*
X239747Y183917D01*
X239779Y183839D01*
X23983Y183773D01*
Y183726D01*
X239779Y18366D01*
X239747Y183583D01*
X239736Y1835D01*
X239747Y183417D01*
X239779Y183339D01*
X23983Y183273D01*
Y183226D01*
X239779Y18316D01*
X239747Y183083D01*
X239736Y183D01*
X239747Y182917D01*
X239779Y182839D01*
X23983Y182773D01*
X239896Y182722D01*
X239974Y18269D01*
X240057Y182679D01*
X240726D01*
X240809Y18269D01*
X240886Y182722D01*
X240953Y182773D01*
X241004Y182839D01*
X241036Y182917D01*
X241047Y183D01*
X241036Y183083D01*
X241004Y18316D01*
X240953Y183226D01*
Y183273D01*
X241004Y183339D01*
X241036Y183417D01*
X241047Y1835D01*
X241036Y183583D01*
X241004Y18366D01*
X240953Y183726D01*
Y183773D01*
X241004Y183839D01*
X241036Y183917D01*
X241047Y184D01*
X241036Y184083D01*
X241004Y18416D01*
X240953Y184226D01*
X240959Y184245D01*
X24135D01*
X241448Y184264D01*
X24153Y184319D01*
X24278Y185569D01*
X242836Y185652D01*
X242836Y185654D01*
X242886Y185649D01*
D02*
G37*
G36*
X234512Y184093D02*
X234606Y18408D01*
X2347Y184093D01*
X234703Y184093D01*
X234744Y184066D01*
Y184046D01*
Y183259D01*
X234751D01*
Y183206D01*
X234609D01*
Y182294D01*
X235745D01*
Y18225D01*
X235765Y182152D01*
X23582Y182069D01*
X235898Y181991D01*
X235879Y181945D01*
X235105D01*
Y180954D01*
X236095D01*
Y181729D01*
X236141Y181748D01*
X236505Y181384D01*
Y180754D01*
X237495D01*
Y181046D01*
X237544Y181056D01*
X237567Y181D01*
X237647Y180896D01*
X23775Y180817D01*
X237871Y180767D01*
X238Y18075D01*
X238129Y180767D01*
X23825Y180817D01*
X238353Y180896D01*
X238433Y181D01*
X238475Y181102D01*
X238525D01*
X238567Y181D01*
X238647Y180896D01*
X23875Y180817D01*
X238871Y180767D01*
X23895Y180757D01*
Y18125D01*
Y181743D01*
X238871Y181732D01*
X23875Y181682D01*
X238647Y181603D01*
X238567Y181499D01*
X238525Y181397D01*
X238475D01*
X238433Y181499D01*
X238353Y181603D01*
X23825Y181682D01*
X238129Y181732D01*
X238Y181749D01*
X237871Y181732D01*
X23775Y181682D01*
X237647Y181603D01*
X237567Y181499D01*
X237544Y181444D01*
X237495Y181453D01*
Y181745D01*
X236865D01*
X236255Y182355D01*
Y18271D01*
X2363Y182732D01*
X236314Y182722D01*
X236391Y18269D01*
X236474Y182679D01*
X237143D01*
X237226Y18269D01*
X237304Y182722D01*
X23737Y182773D01*
X237421Y182839D01*
X237453Y182917D01*
X237464Y183D01*
X237453Y183083D01*
X237421Y18316D01*
X23737Y183226D01*
Y183273D01*
X237421Y183339D01*
X237453Y183417D01*
X237464Y1835D01*
X237453Y183583D01*
X237421Y18366D01*
X23737Y183726D01*
Y183773D01*
X237421Y183839D01*
X237453Y183917D01*
X237455Y183932D01*
X237504Y183945D01*
X237543Y183893D01*
X237618Y183835D01*
X237706Y183799D01*
X2378Y183786D01*
X237894Y183799D01*
X237982Y183835D01*
X238057Y183893D01*
X238098Y183946D01*
X238145Y18393D01*
Y18295D01*
X238145Y18295D01*
X238145D01*
X238165Y182852D01*
X23822Y182769D01*
X239229Y18176D01*
X239224Y18171D01*
X239208Y181699D01*
X239129Y181732D01*
X23905Y181743D01*
Y18125D01*
Y180757D01*
X239129Y180767D01*
X23925Y180817D01*
X239314Y180866D01*
X239324Y180864D01*
X239324Y180864D01*
X239324Y180864D01*
D01*
X239324Y180864D01*
X239497Y180692D01*
X239478Y180646D01*
X234412D01*
Y184089D01*
X234453Y184117D01*
X234512Y184093D01*
D02*
G37*
G36*
X2377Y196859D02*
X236641Y1958D01*
X235941D01*
X237041Y1969D01*
Y197228D01*
X237091Y197278D01*
Y201037D01*
X2377D01*
Y196859D01*
D02*
G37*
%LPC*%
G36*
X2415Y193149D02*
X241371Y193132D01*
X24125Y193082D01*
X241147Y193003D01*
X241067Y192899D01*
X241017Y192779D01*
X241Y19265D01*
X241017Y19252D01*
X241067Y1924D01*
X241147Y192296D01*
X24125Y192217D01*
X241353Y192175D01*
Y192125D01*
X24125Y192082D01*
X241147Y192003D01*
X241067Y191899D01*
X241017Y191779D01*
X241Y19165D01*
X241017Y19152D01*
X241067Y1914D01*
X241147Y191296D01*
X24125Y191217D01*
X241353Y191175D01*
Y191125D01*
X24125Y191082D01*
X241147Y191003D01*
X241067Y190899D01*
X241017Y190779D01*
X241Y19065D01*
X241017Y19052D01*
X241067Y1904D01*
X241147Y190296D01*
X24125Y190217D01*
X241353Y190175D01*
Y190125D01*
X24125Y190082D01*
X241147Y190003D01*
X241067Y189899D01*
X241017Y189779D01*
X241Y18965D01*
X241017Y18952D01*
X241067Y1894D01*
X241147Y189296D01*
X24125Y189217D01*
X241371Y189167D01*
X2415Y18915D01*
X241629Y189167D01*
X24175Y189217D01*
X241853Y189296D01*
X241933Y1894D01*
X241983Y18952D01*
X242Y18965D01*
X241983Y189779D01*
X241933Y189899D01*
X241853Y190003D01*
X24175Y190082D01*
X241647Y190125D01*
Y190175D01*
X24175Y190217D01*
X241853Y190296D01*
X241933Y1904D01*
X241983Y19052D01*
X242Y19065D01*
X241983Y190779D01*
X241933Y190899D01*
X241853Y191003D01*
X24175Y191082D01*
X241647Y191125D01*
Y191175D01*
X24175Y191217D01*
X241853Y191296D01*
X241933Y1914D01*
X241983Y19152D01*
X242Y19165D01*
X241983Y191779D01*
X241933Y191899D01*
X241853Y192003D01*
X24175Y192082D01*
X241647Y192125D01*
Y192175D01*
X24175Y192217D01*
X241853Y192296D01*
X241933Y1924D01*
X241983Y19252D01*
X242Y19265D01*
X241983Y192779D01*
X241933Y192899D01*
X241853Y193003D01*
X24175Y193082D01*
X241629Y193132D01*
X2415Y193149D01*
D02*
G37*
G36*
X238995Y193145D02*
X238005D01*
Y192154D01*
X238296D01*
X238306Y192105D01*
X23825Y192082D01*
X238147Y192003D01*
X238067Y191899D01*
X238017Y191779D01*
X238Y19165D01*
X238017Y19152D01*
X238067Y1914D01*
X238147Y191296D01*
X23825Y191217D01*
X238353Y191175D01*
Y191125D01*
X23825Y191082D01*
X238147Y191003D01*
X238067Y190899D01*
X238017Y190779D01*
X238Y19065D01*
X238017Y19052D01*
X238067Y1904D01*
X238147Y190296D01*
X23825Y190217D01*
X238371Y190167D01*
X2385Y19015D01*
X238629Y190167D01*
X23875Y190217D01*
X238853Y190296D01*
X238933Y1904D01*
X238983Y19052D01*
X239Y19065D01*
X238983Y190779D01*
X238933Y190899D01*
X238853Y191003D01*
X23875Y191082D01*
X238647Y191125D01*
Y191175D01*
X23875Y191217D01*
X238853Y191296D01*
X238933Y1914D01*
X238983Y19152D01*
X239Y19165D01*
X238983Y191779D01*
X238933Y191899D01*
X238853Y192003D01*
X23875Y192082D01*
X238694Y192105D01*
X238704Y192154D01*
X238995D01*
Y193145D01*
D02*
G37*
G36*
X237256Y192571D02*
X236919D01*
Y191919D01*
X237256D01*
Y192571D01*
D02*
G37*
G36*
X237157Y1886D02*
X23685D01*
Y188293D01*
X236894Y188299D01*
X236982Y188335D01*
X237057Y188393D01*
X237114Y188468D01*
X237151Y188556D01*
X237157Y1886D01*
D02*
G37*
G36*
X23515Y18654D02*
X234744D01*
Y186193D01*
X23515D01*
Y18654D01*
D02*
G37*
G36*
X235656D02*
X23525D01*
Y186193D01*
X235656D01*
Y18654D01*
D02*
G37*
G36*
X23675Y1886D02*
X236443D01*
X236449Y188556D01*
X236486Y188468D01*
X236543Y188393D01*
X236618Y188335D01*
X236706Y188299D01*
X23675Y188293D01*
Y1886D01*
D02*
G37*
G36*
X237693Y192571D02*
X237356D01*
Y191919D01*
X237693D01*
Y192571D01*
D02*
G37*
G36*
X23785Y195269D02*
X237385D01*
Y194804D01*
X23785D01*
Y195269D01*
D02*
G37*
G36*
X240112Y194307D02*
Y194D01*
X240419D01*
X240413Y194044D01*
X240377Y194132D01*
X240319Y194207D01*
X240244Y194265D01*
X240156Y194301D01*
X240112Y194307D01*
D02*
G37*
G36*
X238415Y195269D02*
X23795D01*
Y194804D01*
X238415D01*
Y195269D01*
D02*
G37*
G36*
X237991Y196307D02*
X237947Y196301D01*
X237859Y196264D01*
X237784Y196207D01*
X237726Y196132D01*
X23769Y196044D01*
X237684Y196D01*
X237991D01*
Y196307D01*
D02*
G37*
G36*
X238397Y1959D02*
X237684D01*
X237688Y195871D01*
X237655Y195834D01*
X237385D01*
Y195369D01*
X238415D01*
Y195834D01*
X238415D01*
X238391Y195856D01*
X238391Y195856D01*
X238397Y1959D01*
D02*
G37*
G36*
X237693Y193323D02*
X237356D01*
Y192671D01*
X237693D01*
Y193323D01*
D02*
G37*
G36*
X237256D02*
X236919D01*
Y192671D01*
X237256D01*
Y193323D01*
D02*
G37*
G36*
X240012Y1939D02*
X239706D01*
X239711Y193856D01*
X239748Y193769D01*
X239805Y193694D01*
X239881Y193636D01*
X239968Y1936D01*
X240012Y193594D01*
Y1939D01*
D02*
G37*
G36*
Y194307D02*
X239968Y194301D01*
X239881Y194265D01*
X239805Y194207D01*
X239748Y194132D01*
X239711Y194044D01*
X239706Y194D01*
X240012D01*
Y194307D01*
D02*
G37*
G36*
X240419Y1939D02*
X240112D01*
Y193594D01*
X240156Y1936D01*
X240244Y193636D01*
X240319Y193694D01*
X240377Y193769D01*
X240413Y193856D01*
X240419Y1939D01*
D02*
G37*
%LPD*%
D10*
X2363Y19545D02*
D03*
Y193796D02*
D03*
D11*
X234944Y187809D02*
D03*
Y188675D02*
D03*
D12*
X237306Y192621D02*
D03*
X2364D02*
D03*
X235494D02*
D03*
D13*
X2364Y190278D02*
D03*
D14*
X242Y183043D02*
D03*
Y182256D02*
D03*
X235732Y187848D02*
D03*
Y188635D02*
D03*
X2352Y184443D02*
D03*
Y183656D02*
D03*
Y185356D02*
D03*
Y186143D02*
D03*
X2416Y187643D02*
D03*
Y186856D02*
D03*
X2377Y189643D02*
D03*
Y188856D02*
D03*
D15*
X235794Y18275D02*
D03*
X235006D02*
D03*
D16*
X2379Y195319D02*
D03*
Y19398D02*
D03*
D17*
X240391Y183D02*
D03*
Y1835D02*
D03*
Y184D02*
D03*
Y1845D02*
D03*
Y185D02*
D03*
Y1855D02*
D03*
Y186D02*
D03*
Y1865D02*
D03*
Y187D02*
D03*
Y1875D02*
D03*
X236809Y183D02*
D03*
Y1835D02*
D03*
Y184D02*
D03*
Y1845D02*
D03*
Y185D02*
D03*
Y1855D02*
D03*
Y186D02*
D03*
Y1865D02*
D03*
Y187D02*
D03*
Y1875D02*
D03*
D18*
X235818Y1901D02*
X235991D01*
X2366Y18935D02*
Y18975D01*
X236236Y190114D02*
X23885Y1875D01*
X236236Y190114D02*
X2364Y190278D01*
X2421Y186459D02*
Y18715D01*
X24164Y186D02*
X2421Y186459D01*
X240391Y186D02*
X24164D01*
X239268Y19395D02*
X240062D01*
X2379Y195319D02*
X239268Y19395D01*
X238428Y1933D02*
X239078Y19395D01*
X237985Y1933D02*
X238428D01*
X237306Y192621D02*
X237985Y1933D01*
X239078Y19395D02*
X240062D01*
X2352Y18725D02*
X2358Y18785D01*
X239411Y187D02*
X240391D01*
X238714Y1865D02*
X240391D01*
X238684Y18647D02*
X238714Y1865D01*
X234944Y189226D02*
X235818Y1901D01*
X234944Y188675D02*
Y189226D01*
X235732Y188596D02*
Y188635D01*
X234944Y187809D02*
X235732Y188596D01*
X2364Y190278D02*
Y192621D01*
X2363Y193796D02*
X236484Y19398D01*
X236061Y193557D02*
X2363Y193796D01*
X236484Y19398D02*
X2379D01*
X235535Y193557D02*
X236061D01*
X235494Y192621D02*
X235535Y192661D01*
Y193557D01*
X2352Y184443D02*
X2353D01*
X234606D02*
X2352D01*
X2368Y18835D02*
Y18865D01*
X2363Y18785D02*
X2368Y18835D01*
X2358Y18785D02*
X2363D01*
X2352Y186143D02*
Y18725D01*
Y183656D02*
X235406D01*
X23575Y184D01*
Y1851D01*
X235494Y185356D02*
X23575Y1851D01*
X2352Y185356D02*
X235494D01*
X235006Y183462D02*
X2352Y183656D01*
X235006Y18275D02*
Y183462D01*
X236Y18725D02*
X23625Y1875D01*
X236Y18225D02*
Y18725D01*
Y18225D02*
X237Y18125D01*
X237706Y18965D02*
X2385D01*
X23745Y1845D02*
X2378Y18415D01*
X236809Y1845D02*
X23745D01*
X23779Y18476D02*
Y18526D01*
Y18476D02*
X2384Y18415D01*
Y18295D02*
Y18415D01*
Y18295D02*
X239505Y181845D01*
X2387Y18315D02*
X24Y18185D01*
X2387Y18315D02*
Y18435D01*
X23804Y18501D02*
X2387Y18435D01*
X23804Y18501D02*
Y18561D01*
X23625Y1875D02*
X236809D01*
X2364Y18995D02*
Y190278D01*
X23885Y1875D02*
X240391D01*
X241456D02*
X2416Y187643D01*
X240391Y1875D02*
X241456D01*
Y187D02*
X2416Y186856D01*
X240391Y187D02*
X241456D01*
X2425Y18755D02*
Y18765D01*
X2421Y18715D02*
X2425Y18755D01*
X2426Y18575D02*
Y18685D01*
X24135Y1845D02*
X2426Y18575D01*
X23755Y1855D02*
X23779Y18526D01*
X236809Y1855D02*
X23755D01*
X241894Y18215D02*
X242Y182256D01*
X2413Y18215D02*
X241894D01*
X2407Y18125D02*
X241D01*
X240205Y180754D02*
X2407Y18125D01*
X239795Y180754D02*
X240205D01*
X239505Y181044D02*
X239795Y180754D01*
X239505Y181044D02*
Y181845D01*
X236809Y186D02*
X23765D01*
X23804Y18561D01*
X24Y18125D02*
Y18185D01*
X242Y183043D02*
X242094D01*
X2427Y18365D01*
X240391Y1845D02*
X24135D01*
X2384Y18545D02*
X23845Y1855D01*
X240391D01*
X23945Y185D02*
X240391D01*
D19*
X237Y18125D02*
D03*
X2356Y18145D02*
D03*
X2385Y19265D02*
D03*
D20*
X238Y18125D02*
D03*
X239D02*
D03*
X24D02*
D03*
X241D02*
D03*
X242D02*
D03*
X2385Y19165D02*
D03*
Y19065D02*
D03*
Y18965D02*
D03*
X2415Y19265D02*
D03*
Y19165D02*
D03*
Y19065D02*
D03*
Y18965D02*
D03*
D21*
X236691Y19615D02*
D03*
X237141Y1968D02*
D03*
X238041Y19595D02*
D03*
X238491Y1967D02*
D03*
X239411Y187D02*
D03*
X238684Y18647D02*
D03*
X235535Y193557D02*
D03*
X240062Y19395D02*
D03*
X2368Y18865D02*
D03*
X2366Y18935D02*
D03*
X234606Y184443D02*
D03*
X2378Y18415D02*
D03*
X2413Y18215D02*
D03*
X2427Y18365D02*
D03*
X2425Y18765D02*
D03*
X2426Y18685D02*
D03*
X2384Y18545D02*
D03*
X23945Y185D02*
D03*
M02*
