%FSTAX24Y24*%
%MOIN*%
G70*
G01*
G75*
G04 Layer_Color=8388736*
%ADD10R,0.0709X0.0709*%
%ADD11R,0.0512X0.0472*%
%ADD12R,0.0374X0.1004*%
%ADD13R,0.1299X0.1004*%
%ADD14R,0.0512X0.0394*%
%ADD15R,0.0394X0.0512*%
%ADD16R,0.0630X0.0630*%
%ADD17O,0.0906X0.0236*%
%ADD18C,0.0100*%
%ADD19R,0.0591X0.0591*%
%ADD20C,0.0591*%
%ADD21C,0.0320*%
%ADD22R,0.0630X0.0630*%
%ADD23R,0.0374X0.0315*%
%ADD24R,0.0984X0.0512*%
%ADD25C,0.0098*%
%ADD26C,0.0236*%
%ADD27C,0.0079*%
%ADD28C,0.0040*%
%ADD29C,0.0039*%
%ADD30R,0.0789X0.0789*%
%ADD31R,0.0592X0.0552*%
%ADD32R,0.0454X0.1084*%
%ADD33R,0.1379X0.1084*%
%ADD34R,0.0592X0.0474*%
%ADD35R,0.0474X0.0592*%
%ADD36R,0.0710X0.0710*%
%ADD37O,0.0986X0.0316*%
%ADD38R,0.0671X0.0671*%
%ADD39C,0.0671*%
%ADD40C,0.0400*%
%ADD41R,0.0710X0.0710*%
%ADD42R,0.0454X0.0395*%
%ADD43R,0.1064X0.0592*%
G36*
X2377Y1973D02*
X237091Y197278D01*
Y201037D01*
X2377D01*
Y1973D01*
D02*
G37*
G36*
X238891Y197287D02*
X238291Y1973D01*
Y201037D01*
X238891D01*
Y197287D01*
D02*
G37*
D35*
X240694Y19165D02*
D03*
X239906D02*
D03*
X240694Y19265D02*
D03*
X239906D02*
D03*
X240694Y19065D02*
D03*
X239906D02*
D03*
X240694Y18965D02*
D03*
X239906D02*
D03*
D38*
X237Y18125D02*
D03*
X2356Y18145D02*
D03*
X2385Y19265D02*
D03*
D39*
X238Y18125D02*
D03*
X239D02*
D03*
X24D02*
D03*
X241D02*
D03*
X242D02*
D03*
X2385Y19165D02*
D03*
Y19065D02*
D03*
Y18965D02*
D03*
X2415Y19265D02*
D03*
Y19165D02*
D03*
Y19065D02*
D03*
Y18965D02*
D03*
D40*
X236691Y19615D02*
D03*
X237141Y1968D02*
D03*
X238041Y19595D02*
D03*
X238491Y1967D02*
D03*
X239411Y187D02*
D03*
X238684Y18647D02*
D03*
X235535Y193557D02*
D03*
X240062Y19395D02*
D03*
X2368Y18865D02*
D03*
X2366Y18935D02*
D03*
X234606Y184443D02*
D03*
X2378Y18415D02*
D03*
X2413Y18215D02*
D03*
X2427Y18365D02*
D03*
X2425Y18765D02*
D03*
X2426Y18685D02*
D03*
X2384Y18545D02*
D03*
X23945Y185D02*
D03*
D41*
X236243Y190013D02*
D03*
X237582D02*
D03*
D42*
X2359Y191704D02*
D03*
Y190995D02*
D03*
X2368D02*
D03*
Y191704D02*
D03*
D43*
X24175Y187612D02*
D03*
Y186824D02*
D03*
Y186037D02*
D03*
Y18525D02*
D03*
Y184462D02*
D03*
Y183675D02*
D03*
Y182887D02*
D03*
X23545Y187612D02*
D03*
Y186824D02*
D03*
Y186037D02*
D03*
Y18525D02*
D03*
Y184462D02*
D03*
Y183675D02*
D03*
Y182887D02*
D03*
M02*
