%FSTAX24Y24*%
%MOIN*%
G70*
G01*
G75*
G04 Layer_Physical_Order=2*
G04 Layer_Color=16711680*
%ADD10R,0.1004X0.0374*%
%ADD11R,0.1004X0.1299*%
%ADD12R,0.0433X0.0453*%
%ADD13R,0.0472X0.0256*%
%ADD14R,0.0374X0.0315*%
%ADD15R,0.0315X0.0374*%
%ADD16R,0.0807X0.0157*%
%ADD17O,0.0866X0.0236*%
%ADD18R,0.0866X0.0236*%
%ADD19C,0.0200*%
%ADD20C,0.0150*%
%ADD21C,0.0100*%
%ADD22C,0.0300*%
%ADD23C,0.0039*%
%ADD24C,0.0591*%
%ADD25C,0.0984*%
%ADD26R,0.0984X0.0984*%
%ADD27C,0.1800*%
%ADD28R,0.0591X0.0591*%
%ADD29R,0.0591X0.0591*%
G04:AMPARAMS|DCode=30|XSize=78.7mil|YSize=60mil|CornerRadius=0mil|HoleSize=0mil|Usage=FLASHONLY|Rotation=270.000|XOffset=0mil|YOffset=0mil|HoleType=Round|Shape=Octagon|*
%AMOCTAGOND30*
4,1,8,-0.0150,-0.0394,0.0150,-0.0394,0.0300,-0.0244,0.0300,0.0244,0.0150,0.0394,-0.0150,0.0394,-0.0300,0.0244,-0.0300,-0.0244,-0.0150,-0.0394,0.0*
%
%ADD30OCTAGOND30*%

%ADD31C,0.0320*%
%ADD32C,0.2441*%
%ADD33R,0.0472X0.0728*%
D19*
X063388Y06693D02*
X07332D01*
X061902Y068416D02*
X063388Y06693D01*
X061902Y068416D02*
Y068565D01*
X07332Y06693D02*
X074106Y067717D01*
X075743Y074077D02*
X082571D01*
X072944Y070472D02*
X074106Y06931D01*
Y067717D02*
Y06931D01*
X078795Y087569D02*
X079291Y087074D01*
Y085769D02*
Y087074D01*
X077795Y087569D02*
X078291Y087074D01*
Y086207D02*
Y087074D01*
X093795Y087569D02*
X094295Y087069D01*
X096295D01*
X096795Y086569D01*
X091795Y087569D02*
X092295Y087069D01*
X093295D01*
X093795Y087569D01*
X089795Y086569D02*
X090295Y087069D01*
X091295D01*
X091795Y087569D01*
X086795D02*
X087295Y087069D01*
X089295D01*
X089795Y086569D01*
X083795Y087569D02*
X084295Y087069D01*
X086295D01*
X086795Y087569D01*
X081795Y086569D02*
X082295Y087069D01*
X083295D01*
X083795Y087569D01*
X079795D02*
X080295Y087069D01*
X081295D01*
X081795Y086569D01*
X078291Y086207D02*
X078728Y085769D01*
X079291D01*
X0823Y075377D02*
X082571Y075106D01*
Y074077D02*
Y075106D01*
D20*
X062772Y075394D02*
X072335D01*
X056918Y06954D02*
X062772Y075394D01*
X056918Y06803D02*
Y06954D01*
Y06803D02*
X057258Y06769D01*
X060778D02*
X061234Y068146D01*
X057258Y06769D02*
X060778D01*
X061234Y068146D02*
Y068976D01*
X06149Y069232D01*
X062612D01*
X072944Y070472D02*
X082177D01*
X072597Y070819D02*
X072944Y070472D01*
X082353Y07185D02*
X08545Y074947D01*
X075878Y07185D02*
X082353D01*
X072335Y075394D02*
X075878Y07185D01*
X062612Y069232D02*
X06328Y068565D01*
X08545Y074947D02*
X086D01*
D21*
X093032Y073819D02*
X09483Y075617D01*
X093768Y075669D02*
X09483D01*
X075488Y07126D02*
X082613D01*
X071748Y075D02*
X075488Y07126D01*
X064698Y075D02*
X071748D01*
X065251Y074213D02*
X071744D01*
X060588Y06955D02*
X065251Y074213D01*
X060588Y06863D02*
Y06955D01*
X059146Y069448D02*
X064698Y075D01*
X059146Y068565D02*
Y069448D01*
X085748Y07037D02*
Y0704D01*
Y07037D02*
X085758Y07036D01*
Y07049D01*
X085788Y07052D01*
Y06727D02*
Y07052D01*
X060524Y068565D02*
X060588Y06863D01*
X091035Y073819D02*
X093032D01*
X0948Y075647D02*
X09483Y075617D01*
X080012Y083268D02*
X082177D01*
X082965Y084055D01*
X086902D01*
X08895Y082007D01*
Y081147D02*
Y082007D01*
X08821Y075247D02*
X088654Y074803D01*
X090051D01*
X083125Y070866D02*
X085656Y073397D01*
X075091Y070866D02*
X083125D01*
X071744Y074213D02*
X075091Y070866D01*
X082613Y07126D02*
X0853Y073947D01*
X079008Y072699D02*
X080012D01*
X080012Y072699D01*
X079244Y076636D02*
X080012D01*
X080012Y076636D01*
X079008Y080573D02*
X080012D01*
X080012Y080573D01*
X079008Y08451D02*
X080012D01*
X080012Y08451D01*
X08225Y080447D02*
X08285D01*
X08765Y078697D02*
X09125D01*
X07764Y081987D02*
X08496D01*
X08596Y081107D02*
X08601Y081157D01*
Y082057D01*
X075681Y079591D02*
X075843D01*
X08209Y081377D02*
X08473D01*
X075681Y075591D02*
X079405D01*
X077468Y072699D02*
X077748D01*
X091284Y079607D02*
X091952Y078939D01*
X096795Y086222D02*
Y086569D01*
X08974Y077767D02*
X08977D01*
X092646Y081331D02*
X094446D01*
X097275Y078502D01*
X085352Y078487D02*
X08586D01*
X082912Y080927D02*
X085352Y078487D01*
X082292Y080927D02*
X082912D01*
X0817Y080336D02*
X082292Y080927D01*
X09084Y082067D02*
X09126D01*
X09268Y080647D01*
X08356Y075897D02*
X08395Y076287D01*
X08826D01*
X08974Y077767D01*
X07758Y082547D02*
X08552D01*
X08601Y082057D01*
X085205Y080747D02*
X08531D01*
X09775Y074047D02*
Y076247D01*
X0965Y077497D02*
X09775Y076247D01*
X09483Y077497D02*
X0965D01*
X09855Y074847D02*
Y077227D01*
X097275Y078502D02*
X09855Y077227D01*
X08496Y081987D02*
X08535Y081597D01*
X0853Y073947D02*
X088D01*
X08875Y073197D01*
X08775Y071197D02*
Y071597D01*
X091952Y075799D01*
Y078939D01*
X09256Y075957D02*
Y079547D01*
X0885Y071447D02*
Y071897D01*
X09256Y075957D01*
X087109Y075247D02*
X08821D01*
X087098Y075258D02*
X087109Y075247D01*
X07489Y073807D02*
X076Y072697D01*
X077746D01*
X077748Y072699D01*
X07489Y073807D02*
Y074841D01*
X077748Y076636D02*
X077748Y076636D01*
X077748Y076636D02*
Y080573D01*
X07489Y080681D02*
X077748Y083539D01*
Y08451D01*
X074919Y076591D02*
X075681D01*
X07489Y076619D02*
Y080681D01*
Y076619D02*
X074919Y076591D01*
X075681D02*
X077702D01*
X077748Y076636D01*
X085178Y080615D02*
X08531Y080747D01*
X085178Y080169D02*
Y080615D01*
Y080169D02*
X08574Y079607D01*
X091284D01*
X0857Y080297D02*
X09181D01*
X09256Y079547D01*
X09268Y080647D02*
X0936D01*
X09483Y079417D01*
Y077497D02*
Y079417D01*
X09351Y075927D02*
X093768Y075669D01*
X09483D02*
Y077497D01*
X098878Y080069D02*
X09955D01*
X079405Y075591D02*
X080928Y077114D01*
Y080215D01*
X08209Y081377D01*
X0817Y076247D02*
Y080336D01*
X07965Y074841D02*
X081028Y076219D01*
X0817Y076247D02*
X081728Y076219D01*
X081028D02*
X081728D01*
X07489Y074841D02*
Y076619D01*
Y074841D02*
X07965D01*
X084778Y079669D02*
X0855Y078947D01*
X08285Y080447D02*
X085428Y077869D01*
X086822D01*
X08765Y078697D01*
X075681Y078591D02*
X076978Y079887D01*
Y081325D01*
X07764Y081987D01*
X075843Y079591D02*
X076578Y080325D01*
Y081545D01*
X07758Y082547D01*
X081728Y076219D02*
X082378D01*
X083339Y075258D01*
X087098D01*
X085656Y073397D02*
X088D01*
D22*
X098978Y073709D02*
Y078519D01*
X094933Y069664D02*
X098978Y073709D01*
X09955Y072097D02*
Y080069D01*
X096646Y069193D02*
X09955Y072097D01*
X070597Y069569D02*
Y071959D01*
X071669Y073032D01*
X096795Y086222D02*
X09955Y083467D01*
X079291Y085769D02*
X091728D01*
X098978Y078519D01*
X09955Y080069D02*
Y083467D01*
D24*
X071669Y073032D02*
D03*
X070669D02*
D03*
X068669D02*
D03*
X077795Y086569D02*
D03*
X078795Y087569D02*
D03*
Y086569D02*
D03*
X079795Y087569D02*
D03*
Y086569D02*
D03*
X080795Y087569D02*
D03*
Y086569D02*
D03*
X081795Y087569D02*
D03*
Y086569D02*
D03*
X082795Y087569D02*
D03*
Y086569D02*
D03*
X083795Y087569D02*
D03*
Y086569D02*
D03*
X084795Y087569D02*
D03*
Y086569D02*
D03*
X085795Y087569D02*
D03*
Y086569D02*
D03*
X086795Y087569D02*
D03*
Y086569D02*
D03*
X087795Y087569D02*
D03*
Y086569D02*
D03*
X088795Y087569D02*
D03*
Y086569D02*
D03*
X089795Y087569D02*
D03*
Y086569D02*
D03*
X090795Y087569D02*
D03*
Y086569D02*
D03*
X091795Y087569D02*
D03*
Y086569D02*
D03*
X092795Y087569D02*
D03*
Y086569D02*
D03*
X093795Y087569D02*
D03*
Y086569D02*
D03*
X094795Y087569D02*
D03*
Y086569D02*
D03*
X095795Y087569D02*
D03*
Y086569D02*
D03*
X096795Y087569D02*
D03*
Y086569D02*
D03*
X075681Y080591D02*
D03*
Y079591D02*
D03*
Y078591D02*
D03*
Y077591D02*
D03*
Y076591D02*
D03*
D25*
X059146Y068565D02*
D03*
X061902D02*
D03*
X064657D02*
D03*
X066035D02*
D03*
X060524D02*
D03*
X067413D02*
D03*
X06328D02*
D03*
X068791D02*
D03*
X094569Y069301D02*
D03*
X096538Y069104D02*
D03*
D26*
X057768Y068565D02*
D03*
D27*
X072597Y070819D02*
D03*
Y068319D02*
D03*
X070597Y069569D02*
D03*
D28*
X077795Y087569D02*
D03*
D29*
X075681Y075591D02*
D03*
D30*
X078378Y072699D02*
D03*
X078378Y076636D02*
D03*
X078378Y080573D02*
D03*
Y08451D02*
D03*
D31*
X085748Y0704D02*
D03*
X085788Y06727D02*
D03*
X091035Y073819D02*
D03*
X075743Y074077D02*
D03*
X080012Y083268D02*
D03*
X090051Y074803D02*
D03*
X082177Y070472D02*
D03*
X080012Y072699D02*
D03*
X080012Y076636D02*
D03*
Y080573D02*
D03*
X080012Y08451D02*
D03*
X082571Y074077D02*
D03*
X08875Y073197D02*
D03*
X088Y073397D02*
D03*
X0965Y076447D02*
D03*
X0855Y078947D02*
D03*
X08225Y080447D02*
D03*
X09125Y078697D02*
D03*
X08473Y081377D02*
D03*
X08596Y081107D02*
D03*
X08775Y071197D02*
D03*
X0885Y071447D02*
D03*
X084778Y079669D02*
D03*
X086Y074947D02*
D03*
X08356Y075897D02*
D03*
X08977Y077767D02*
D03*
X087098Y075258D02*
D03*
X0948Y075647D02*
D03*
X09351Y075927D02*
D03*
X092646Y081331D02*
D03*
X09855Y074847D02*
D03*
X08586Y078487D02*
D03*
X09084Y082067D02*
D03*
X0823Y075377D02*
D03*
X08895Y081147D02*
D03*
X08535Y081597D02*
D03*
X085205Y080747D02*
D03*
X0857Y080297D02*
D03*
X09775Y074047D02*
D03*
X098878Y080069D02*
D03*
D32*
X056783Y081951D02*
D03*
X075878Y087069D02*
D03*
X098713Y067778D02*
D03*
X075878D02*
D03*
X098713Y087069D02*
D03*
D33*
X079008Y072699D02*
D03*
X077748D02*
D03*
X079008Y076636D02*
D03*
X077748D02*
D03*
X079008Y080573D02*
D03*
X077748D02*
D03*
X079008Y08451D02*
D03*
X077748D02*
D03*
M02*
