%FSTAX24Y24*%
%MOIN*%
G70*
G01*
G75*
G04 Layer_Color=8421504*
%ADD10R,0.1004X0.0374*%
%ADD11R,0.1004X0.1299*%
%ADD12R,0.0433X0.0453*%
%ADD13R,0.0472X0.0256*%
%ADD14R,0.0374X0.0315*%
%ADD15R,0.0315X0.0374*%
%ADD16R,0.0807X0.0157*%
%ADD17O,0.0866X0.0236*%
%ADD18R,0.0866X0.0236*%
%ADD19C,0.0200*%
%ADD20C,0.0150*%
%ADD21C,0.0100*%
%ADD22C,0.0300*%
%ADD23C,0.0039*%
%ADD24C,0.0591*%
%ADD25C,0.0984*%
%ADD26R,0.0984X0.0984*%
%ADD27C,0.1800*%
%ADD28R,0.0591X0.0591*%
%ADD29R,0.0591X0.0591*%
G04:AMPARAMS|DCode=30|XSize=78.7mil|YSize=60mil|CornerRadius=0mil|HoleSize=0mil|Usage=FLASHONLY|Rotation=270.000|XOffset=0mil|YOffset=0mil|HoleType=Round|Shape=Octagon|*
%AMOCTAGOND30*
4,1,8,-0.0150,-0.0394,0.0150,-0.0394,0.0300,-0.0244,0.0300,0.0244,0.0150,0.0394,-0.0150,0.0394,-0.0300,0.0244,-0.0300,-0.0244,-0.0150,-0.0394,0.0*
%
%ADD30OCTAGOND30*%

%ADD31C,0.0320*%
%ADD32C,0.2441*%
%ADD33R,0.0472X0.0728*%
D10*
X096409Y072184D02*
D03*
Y07309D02*
D03*
Y073996D02*
D03*
D11*
X094067Y07309D02*
D03*
D12*
X099283Y072077D02*
D03*
Y069656D02*
D03*
X097748Y072077D02*
D03*
Y069656D02*
D03*
D13*
X09018Y075849D02*
D03*
X089135Y076223D02*
D03*
Y075475D02*
D03*
X084214Y077227D02*
D03*
X085259Y076853D02*
D03*
Y077601D02*
D03*
X084214Y075849D02*
D03*
X085259Y075475D02*
D03*
Y076223D02*
D03*
D14*
X094579Y081006D02*
D03*
Y081715D02*
D03*
X093791Y081006D02*
D03*
Y081715D02*
D03*
X085524Y08329D02*
D03*
Y082581D02*
D03*
X084736Y08329D02*
D03*
Y082581D02*
D03*
X083949Y08329D02*
D03*
Y082581D02*
D03*
X0916Y082402D02*
D03*
Y081693D02*
D03*
X099303Y074038D02*
D03*
Y073329D02*
D03*
X098516Y074038D02*
D03*
Y073329D02*
D03*
X086114Y076872D02*
D03*
Y077581D02*
D03*
X093791Y077384D02*
D03*
Y076676D02*
D03*
X093004Y077384D02*
D03*
Y076676D02*
D03*
X08828Y076203D02*
D03*
Y075494D02*
D03*
D15*
X083124Y074111D02*
D03*
X083832D02*
D03*
X083124Y071811D02*
D03*
X083832D02*
D03*
X08135Y072699D02*
D03*
X080642D02*
D03*
X08135Y076636D02*
D03*
X080642D02*
D03*
X08135Y080573D02*
D03*
X080642D02*
D03*
X08135Y08451D02*
D03*
X080642D02*
D03*
X092354Y079927D02*
D03*
X091646D02*
D03*
X095406Y075652D02*
D03*
X096114D02*
D03*
X095724Y07121D02*
D03*
X096432D02*
D03*
X088432Y074411D02*
D03*
X087724D02*
D03*
X083124Y073411D02*
D03*
X083832D02*
D03*
Y072511D02*
D03*
X083124D02*
D03*
X088432Y072411D02*
D03*
X087724D02*
D03*
X096074Y085D02*
D03*
X096782D02*
D03*
D16*
X089815Y078516D02*
D03*
Y078772D02*
D03*
Y079028D02*
D03*
Y079284D02*
D03*
Y07954D02*
D03*
Y079796D02*
D03*
Y080052D02*
D03*
Y080307D02*
D03*
Y080563D02*
D03*
Y080819D02*
D03*
Y081075D02*
D03*
Y081331D02*
D03*
Y081587D02*
D03*
Y081843D02*
D03*
X087138Y078516D02*
D03*
Y078772D02*
D03*
Y079028D02*
D03*
Y079284D02*
D03*
Y07954D02*
D03*
Y079796D02*
D03*
Y080052D02*
D03*
Y080307D02*
D03*
Y080563D02*
D03*
Y080819D02*
D03*
Y081075D02*
D03*
Y081331D02*
D03*
Y081587D02*
D03*
Y081843D02*
D03*
D17*
X084833Y070861D02*
D03*
X086723Y074361D02*
D03*
Y070861D02*
D03*
Y071361D02*
D03*
Y071861D02*
D03*
Y072361D02*
D03*
Y072861D02*
D03*
Y073361D02*
D03*
Y073861D02*
D03*
X084833Y071361D02*
D03*
Y071861D02*
D03*
Y072361D02*
D03*
Y072861D02*
D03*
Y073361D02*
D03*
Y073861D02*
D03*
D18*
Y074361D02*
D03*
M02*
