%FSTAX24Y24*%
%MOIN*%
G70*
G01*
G75*
G04 Layer_Color=8388736*
%ADD10R,0.1004X0.0374*%
%ADD11R,0.1004X0.1299*%
%ADD12R,0.0433X0.0453*%
%ADD13R,0.0472X0.0256*%
%ADD14R,0.0374X0.0315*%
%ADD15R,0.0315X0.0374*%
%ADD16R,0.0807X0.0157*%
%ADD17O,0.0866X0.0236*%
%ADD18R,0.0866X0.0236*%
%ADD19C,0.0200*%
%ADD20C,0.0150*%
%ADD21C,0.0100*%
%ADD22C,0.0300*%
%ADD23C,0.0039*%
%ADD24C,0.0591*%
%ADD25C,0.0984*%
%ADD26R,0.0984X0.0984*%
%ADD27C,0.1800*%
%ADD28R,0.0591X0.0591*%
%ADD29R,0.0591X0.0591*%
G04:AMPARAMS|DCode=30|XSize=78.7mil|YSize=60mil|CornerRadius=0mil|HoleSize=0mil|Usage=FLASHONLY|Rotation=270.000|XOffset=0mil|YOffset=0mil|HoleType=Round|Shape=Octagon|*
%AMOCTAGOND30*
4,1,8,-0.0150,-0.0394,0.0150,-0.0394,0.0300,-0.0244,0.0300,0.0244,0.0150,0.0394,-0.0150,0.0394,-0.0300,0.0244,-0.0300,-0.0244,-0.0150,-0.0394,0.0*
%
%ADD30OCTAGOND30*%

%ADD31C,0.0320*%
%ADD32C,0.2441*%
%ADD33R,0.0472X0.0728*%
%ADD34R,0.1084X0.0454*%
%ADD35R,0.1084X0.1379*%
%ADD36R,0.0513X0.0533*%
%ADD37R,0.0552X0.0336*%
%ADD38R,0.0454X0.0395*%
%ADD39R,0.0395X0.0454*%
%ADD40R,0.0887X0.0237*%
%ADD41O,0.0946X0.0316*%
%ADD42R,0.0946X0.0316*%
%ADD43C,0.0671*%
%ADD44C,0.1064*%
%ADD45R,0.1064X0.1064*%
%ADD46C,0.1880*%
%ADD47R,0.0671X0.0671*%
%ADD48R,0.0671X0.0671*%
G04:AMPARAMS|DCode=49|XSize=86.7mil|YSize=68mil|CornerRadius=0mil|HoleSize=0mil|Usage=FLASHONLY|Rotation=270.000|XOffset=0mil|YOffset=0mil|HoleType=Round|Shape=Octagon|*
%AMOCTAGOND49*
4,1,8,-0.0170,-0.0434,0.0170,-0.0434,0.0340,-0.0264,0.0340,0.0264,0.0170,0.0434,-0.0170,0.0434,-0.0340,0.0264,-0.0340,-0.0264,-0.0170,-0.0434,0.0*
%
%ADD49OCTAGOND49*%

%ADD50C,0.0400*%
%ADD51C,0.2521*%
D23*
X056607Y07943D02*
X05641D01*
X056344Y079365D01*
X05641Y079299D01*
X056344Y079234D01*
X05641Y079168D01*
X056607D01*
Y079037D02*
X05641D01*
X056344Y078971D01*
X05641Y078906D01*
X056344Y07884D01*
X05641Y078774D01*
X056607D01*
Y078643D02*
X05641D01*
X056344Y078578D01*
X05641Y078512D01*
X056344Y078446D01*
X05641Y078381D01*
X056607D01*
X056344Y07825D02*
X05641D01*
Y078184D01*
X056344D01*
Y07825D01*
X056738Y077659D02*
X056344D01*
Y077856D01*
X05641Y077922D01*
X056541D01*
X056607Y077856D01*
Y077659D01*
X056344Y077528D02*
Y077397D01*
Y077462D01*
X056607D01*
Y077528D01*
Y077134D02*
Y077003D01*
X056541Y076938D01*
X056344D01*
Y077134D01*
X05641Y0772D01*
X056476Y077134D01*
Y076938D01*
X056213Y076806D02*
X056607D01*
Y07661D01*
X056541Y076544D01*
X05641D01*
X056344Y07661D01*
Y076806D01*
X056607Y076413D02*
X056344D01*
X056476D01*
X056541Y076347D01*
X056607Y076282D01*
Y076216D01*
X056344Y075954D02*
Y075823D01*
X05641Y075757D01*
X056541D01*
X056607Y075823D01*
Y075954D01*
X056541Y076019D01*
X05641D01*
X056344Y075954D01*
Y075626D02*
X05641D01*
Y07556D01*
X056344D01*
Y075626D01*
X056738Y075298D02*
X056344D01*
X056541D01*
X056607Y075232D01*
Y075101D01*
X056541Y075035D01*
X056344D01*
X056607Y074904D02*
X05641D01*
X056344Y074839D01*
Y074642D01*
X056607D01*
X057597Y079414D02*
X057204D01*
Y079217D01*
X057269Y079151D01*
X057532D01*
X057597Y079217D01*
Y079414D01*
X057204Y07902D02*
Y078889D01*
Y078955D01*
X057466D01*
Y07902D01*
Y078627D02*
Y078495D01*
X0574Y07843D01*
X057204D01*
Y078627D01*
X057269Y078692D01*
X057335Y078627D01*
Y07843D01*
X057072Y078299D02*
X057466D01*
Y078102D01*
X0574Y078036D01*
X057269D01*
X057204Y078102D01*
Y078299D01*
X057466Y077905D02*
X057204D01*
X057335D01*
X0574Y077839D01*
X057466Y077774D01*
Y077708D01*
X057204Y077446D02*
Y077315D01*
X057269Y077249D01*
X0574D01*
X057466Y077315D01*
Y077446D01*
X0574Y077512D01*
X057269D01*
X057204Y077446D01*
X057597Y076724D02*
X057204D01*
X057335D01*
X057597Y076462D01*
X0574Y076659D01*
X057204Y076462D01*
Y076265D02*
X057532D01*
X0574D01*
Y076331D01*
Y0762D01*
Y076265D01*
X057532D01*
X057597Y0762D01*
X057532Y075937D02*
X057466D01*
Y076003D01*
Y075872D01*
Y075937D01*
X057269D01*
X057204Y075872D01*
Y075675D02*
X057269D01*
Y075609D01*
X057204D01*
Y075675D01*
X07492Y082133D02*
Y082526D01*
X075117D01*
X075182Y082461D01*
Y082329D01*
X075117Y082264D01*
X07492D01*
X075051D02*
X075182Y082133D01*
X075379Y082395D02*
X07551D01*
X075576Y082329D01*
Y082133D01*
X075379D01*
X075314Y082198D01*
X075379Y082264D01*
X075576D01*
X075707Y082133D02*
X075904D01*
X07597Y082198D01*
X075904Y082264D01*
X075773D01*
X075707Y082329D01*
X075773Y082395D01*
X07597D01*
X076101Y082001D02*
Y082395D01*
X076298D01*
X076363Y082329D01*
Y082198D01*
X076298Y082133D01*
X076101D01*
X076494Y082526D02*
Y082133D01*
X076691D01*
X076757Y082198D01*
Y082264D01*
Y082329D01*
X076691Y082395D01*
X076494D01*
X077085Y082133D02*
X076954D01*
X076888Y082198D01*
Y082329D01*
X076954Y082395D01*
X077085D01*
X07715Y082329D01*
Y082264D01*
X076888D01*
X077282Y082395D02*
Y082133D01*
Y082264D01*
X077347Y082329D01*
X077413Y082395D01*
X077478D01*
X077675D02*
Y082133D01*
Y082264D01*
X077741Y082329D01*
X077806Y082395D01*
X077872D01*
X078069D02*
Y082198D01*
X078134Y082133D01*
X078331D01*
Y082067D01*
X078265Y082001D01*
X0782D01*
X078331Y082133D02*
Y082395D01*
X078462Y082067D02*
X078725D01*
X078856Y082526D02*
Y082133D01*
X079053D01*
X079118Y082198D01*
Y082461D01*
X079053Y082526D01*
X078856D01*
X079512Y082461D02*
X079446Y082526D01*
X079315D01*
X079249Y082461D01*
Y082198D01*
X079315Y082133D01*
X079446D01*
X079512Y082198D01*
X079643Y082329D02*
X079905D01*
X080037Y082526D02*
Y082133D01*
Y082329D01*
X080299D01*
Y082526D01*
Y082133D01*
X08043Y082526D02*
Y082133D01*
X080627D01*
X080693Y082198D01*
Y082461D01*
X080627Y082526D01*
X08043D01*
X080824Y082067D02*
X081086D01*
X081217Y082395D02*
X081348Y082133D01*
X08148Y082395D01*
X081611Y082133D02*
X081742D01*
X081676D01*
Y082526D01*
X081611Y082461D01*
D34*
X096409Y072184D02*
D03*
Y07309D02*
D03*
Y073996D02*
D03*
D35*
X094067Y07309D02*
D03*
D36*
X099283Y072077D02*
D03*
Y069656D02*
D03*
X097748Y072077D02*
D03*
Y069656D02*
D03*
D37*
X09018Y075849D02*
D03*
X089135Y076223D02*
D03*
Y075475D02*
D03*
X084214Y077227D02*
D03*
X085259Y076853D02*
D03*
Y077601D02*
D03*
X084214Y075849D02*
D03*
X085259Y075475D02*
D03*
Y076223D02*
D03*
D38*
X094579Y081006D02*
D03*
Y081715D02*
D03*
X093791Y081006D02*
D03*
Y081715D02*
D03*
X085524Y08329D02*
D03*
Y082581D02*
D03*
X084736Y08329D02*
D03*
Y082581D02*
D03*
X083949Y08329D02*
D03*
Y082581D02*
D03*
X0916Y082402D02*
D03*
Y081693D02*
D03*
X099303Y074038D02*
D03*
Y073329D02*
D03*
X098516Y074038D02*
D03*
Y073329D02*
D03*
X086114Y076872D02*
D03*
Y077581D02*
D03*
X093791Y077384D02*
D03*
Y076676D02*
D03*
X093004Y077384D02*
D03*
Y076676D02*
D03*
X08828Y076203D02*
D03*
Y075494D02*
D03*
D39*
X083124Y074111D02*
D03*
X083832D02*
D03*
X083124Y071811D02*
D03*
X083832D02*
D03*
X08135Y072699D02*
D03*
X080642D02*
D03*
X08135Y076636D02*
D03*
X080642D02*
D03*
X08135Y080573D02*
D03*
X080642D02*
D03*
X08135Y08451D02*
D03*
X080642D02*
D03*
X092354Y079927D02*
D03*
X091646D02*
D03*
X095406Y075652D02*
D03*
X096114D02*
D03*
X095724Y07121D02*
D03*
X096432D02*
D03*
X088432Y074411D02*
D03*
X087724D02*
D03*
X083124Y073411D02*
D03*
X083832D02*
D03*
Y072511D02*
D03*
X083124D02*
D03*
X088432Y072411D02*
D03*
X087724D02*
D03*
X096074Y085D02*
D03*
X096782D02*
D03*
D40*
X089815Y078516D02*
D03*
Y078772D02*
D03*
Y079028D02*
D03*
Y079284D02*
D03*
Y07954D02*
D03*
Y079796D02*
D03*
Y080052D02*
D03*
Y080307D02*
D03*
Y080563D02*
D03*
Y080819D02*
D03*
Y081075D02*
D03*
Y081331D02*
D03*
Y081587D02*
D03*
Y081843D02*
D03*
X087138Y078516D02*
D03*
Y078772D02*
D03*
Y079028D02*
D03*
Y079284D02*
D03*
Y07954D02*
D03*
Y079796D02*
D03*
Y080052D02*
D03*
Y080307D02*
D03*
Y080563D02*
D03*
Y080819D02*
D03*
Y081075D02*
D03*
Y081331D02*
D03*
Y081587D02*
D03*
Y081843D02*
D03*
D41*
X084833Y070861D02*
D03*
X086723Y074361D02*
D03*
Y070861D02*
D03*
Y071361D02*
D03*
Y071861D02*
D03*
Y072361D02*
D03*
Y072861D02*
D03*
Y073361D02*
D03*
Y073861D02*
D03*
X084833Y071361D02*
D03*
Y071861D02*
D03*
Y072361D02*
D03*
Y072861D02*
D03*
Y073361D02*
D03*
Y073861D02*
D03*
D42*
Y074361D02*
D03*
D43*
X071669Y073032D02*
D03*
X070669D02*
D03*
X068669D02*
D03*
X077795Y086569D02*
D03*
X078795Y087569D02*
D03*
Y086569D02*
D03*
X079795Y087569D02*
D03*
Y086569D02*
D03*
X080795Y087569D02*
D03*
Y086569D02*
D03*
X081795Y087569D02*
D03*
Y086569D02*
D03*
X082795Y087569D02*
D03*
Y086569D02*
D03*
X083795Y087569D02*
D03*
Y086569D02*
D03*
X084795Y087569D02*
D03*
Y086569D02*
D03*
X085795Y087569D02*
D03*
Y086569D02*
D03*
X086795Y087569D02*
D03*
Y086569D02*
D03*
X087795Y087569D02*
D03*
Y086569D02*
D03*
X088795Y087569D02*
D03*
Y086569D02*
D03*
X089795Y087569D02*
D03*
Y086569D02*
D03*
X090795Y087569D02*
D03*
Y086569D02*
D03*
X091795Y087569D02*
D03*
Y086569D02*
D03*
X092795Y087569D02*
D03*
Y086569D02*
D03*
X093795Y087569D02*
D03*
Y086569D02*
D03*
X094795Y087569D02*
D03*
Y086569D02*
D03*
X095795Y087569D02*
D03*
Y086569D02*
D03*
X096795Y087569D02*
D03*
Y086569D02*
D03*
X075681Y080591D02*
D03*
Y079591D02*
D03*
Y078591D02*
D03*
Y077591D02*
D03*
Y076591D02*
D03*
D44*
X059146Y068565D02*
D03*
X061902D02*
D03*
X064657D02*
D03*
X066035D02*
D03*
X060524D02*
D03*
X067413D02*
D03*
X06328D02*
D03*
X068791D02*
D03*
X094569Y069301D02*
D03*
X096538Y069104D02*
D03*
D45*
X057768Y068565D02*
D03*
D46*
X072597Y070819D02*
D03*
Y068319D02*
D03*
X070597Y069569D02*
D03*
D47*
X077795Y087569D02*
D03*
D48*
X075681Y075591D02*
D03*
D49*
X078378Y072699D02*
D03*
X078378Y076636D02*
D03*
X078378Y080573D02*
D03*
Y08451D02*
D03*
D50*
X085748Y0704D02*
D03*
X085788Y06727D02*
D03*
X091035Y073819D02*
D03*
X075743Y074077D02*
D03*
X080012Y083268D02*
D03*
X090051Y074803D02*
D03*
X082177Y070472D02*
D03*
X080012Y072699D02*
D03*
X080012Y076636D02*
D03*
Y080573D02*
D03*
X080012Y08451D02*
D03*
X082571Y074077D02*
D03*
X08875Y073197D02*
D03*
X088Y073397D02*
D03*
X0965Y076447D02*
D03*
X0855Y078947D02*
D03*
X08225Y080447D02*
D03*
X09125Y078697D02*
D03*
X08473Y081377D02*
D03*
X08596Y081107D02*
D03*
X08775Y071197D02*
D03*
X0885Y071447D02*
D03*
X084778Y079669D02*
D03*
X086Y074947D02*
D03*
X08356Y075897D02*
D03*
X08977Y077767D02*
D03*
X087098Y075258D02*
D03*
X0948Y075647D02*
D03*
X09351Y075927D02*
D03*
X092646Y081331D02*
D03*
X09855Y074847D02*
D03*
X08586Y078487D02*
D03*
X09084Y082067D02*
D03*
X0823Y075377D02*
D03*
X08895Y081147D02*
D03*
X08535Y081597D02*
D03*
X085205Y080747D02*
D03*
X0857Y080297D02*
D03*
X09775Y074047D02*
D03*
X098878Y080069D02*
D03*
D51*
X056783Y081951D02*
D03*
X075878Y087069D02*
D03*
X098713Y067778D02*
D03*
X075878D02*
D03*
X098713Y087069D02*
D03*
M02*
