%FSLAX25Y25*%
%MOIN*%
G70*
G01*
G75*
G04 Layer_Color=8388736*
%ADD10R,0.04921X0.06299*%
%ADD11R,0.05118X0.03937*%
%ADD12R,0.03937X0.05118*%
%ADD13R,0.07284X0.04724*%
%ADD14O,0.02362X0.08661*%
%ADD15R,0.02362X0.08661*%
%ADD16R,0.04724X0.02559*%
%ADD17R,0.02362X0.09449*%
%ADD18O,0.02362X0.09449*%
%ADD19R,0.06299X0.04921*%
G04:AMPARAMS|DCode=20|XSize=157.48mil|YSize=59.06mil|CornerRadius=14.76mil|HoleSize=0mil|Usage=FLASHONLY|Rotation=0.000|XOffset=0mil|YOffset=0mil|HoleType=Round|Shape=RoundedRectangle|*
%AMROUNDEDRECTD20*
21,1,0.15748,0.02953,0,0,0.0*
21,1,0.12795,0.05906,0,0,0.0*
1,1,0.02953,0.06398,-0.01476*
1,1,0.02953,-0.06398,-0.01476*
1,1,0.02953,-0.06398,0.01476*
1,1,0.02953,0.06398,0.01476*
%
%ADD20ROUNDEDRECTD20*%
G04:AMPARAMS|DCode=21|XSize=157.48mil|YSize=59.06mil|CornerRadius=14.76mil|HoleSize=0mil|Usage=FLASHONLY|Rotation=90.000|XOffset=0mil|YOffset=0mil|HoleType=Round|Shape=RoundedRectangle|*
%AMROUNDEDRECTD21*
21,1,0.15748,0.02953,0,0,90.0*
21,1,0.12795,0.05906,0,0,90.0*
1,1,0.02953,0.01476,0.06398*
1,1,0.02953,0.01476,-0.06398*
1,1,0.02953,-0.01476,-0.06398*
1,1,0.02953,-0.01476,0.06398*
%
%ADD21ROUNDEDRECTD21*%
%ADD22C,0.01000*%
%ADD23C,0.01200*%
%ADD24C,0.02000*%
%ADD25C,0.03937*%
%ADD26C,0.00394*%
G04:AMPARAMS|DCode=27|XSize=78.74mil|YSize=60mil|CornerRadius=0mil|HoleSize=0mil|Usage=FLASHONLY|Rotation=0.000|XOffset=0mil|YOffset=0mil|HoleType=Round|Shape=Octagon|*
%AMOCTAGOND27*
4,1,8,0.03937,-0.01500,0.03937,0.01500,0.02437,0.03000,-0.02437,0.03000,-0.03937,0.01500,-0.03937,-0.01500,-0.02437,-0.03000,0.02437,-0.03000,0.03937,-0.01500,0.0*
%
%ADD27OCTAGOND27*%

%ADD28R,0.05906X0.05906*%
%ADD29C,0.05906*%
%ADD30R,0.05906X0.05906*%
%ADD31C,0.06000*%
%ADD32C,0.05000*%
%ADD33C,0.00984*%
%ADD34C,0.00787*%
%ADD35R,0.05721X0.07099*%
%ADD36R,0.05918X0.04737*%
%ADD37R,0.04737X0.05918*%
%ADD38R,0.08083X0.05524*%
%ADD39O,0.03162X0.09461*%
%ADD40R,0.03162X0.09461*%
%ADD41R,0.05524X0.03359*%
%ADD42R,0.03162X0.10249*%
%ADD43O,0.03162X0.10249*%
%ADD44R,0.07099X0.05721*%
G04:AMPARAMS|DCode=45|XSize=165.48mil|YSize=67.06mil|CornerRadius=18.76mil|HoleSize=0mil|Usage=FLASHONLY|Rotation=0.000|XOffset=0mil|YOffset=0mil|HoleType=Round|Shape=RoundedRectangle|*
%AMROUNDEDRECTD45*
21,1,0.16548,0.02953,0,0,0.0*
21,1,0.12795,0.06706,0,0,0.0*
1,1,0.03753,0.06398,-0.01476*
1,1,0.03753,-0.06398,-0.01476*
1,1,0.03753,-0.06398,0.01476*
1,1,0.03753,0.06398,0.01476*
%
%ADD45ROUNDEDRECTD45*%
G04:AMPARAMS|DCode=46|XSize=165.48mil|YSize=67.06mil|CornerRadius=18.76mil|HoleSize=0mil|Usage=FLASHONLY|Rotation=90.000|XOffset=0mil|YOffset=0mil|HoleType=Round|Shape=RoundedRectangle|*
%AMROUNDEDRECTD46*
21,1,0.16548,0.02953,0,0,90.0*
21,1,0.12795,0.06706,0,0,90.0*
1,1,0.03753,0.01476,0.06398*
1,1,0.03753,0.01476,-0.06398*
1,1,0.03753,-0.01476,-0.06398*
1,1,0.03753,-0.01476,0.06398*
%
%ADD46ROUNDEDRECTD46*%
G04:AMPARAMS|DCode=47|XSize=86.74mil|YSize=68mil|CornerRadius=0mil|HoleSize=0mil|Usage=FLASHONLY|Rotation=0.000|XOffset=0mil|YOffset=0mil|HoleType=Round|Shape=Octagon|*
%AMOCTAGOND47*
4,1,8,0.04337,-0.01700,0.04337,0.01700,0.02637,0.03400,-0.02637,0.03400,-0.04337,0.01700,-0.04337,-0.01700,-0.02637,-0.03400,0.02637,-0.03400,0.04337,-0.01700,0.0*
%
%ADD47OCTAGOND47*%

%ADD48R,0.06706X0.06706*%
%ADD49C,0.06706*%
%ADD50R,0.06706X0.06706*%
%ADD51C,0.06800*%
%ADD52C,0.05800*%
D35*
X-294691Y295400D02*
D03*
X-281109D02*
D03*
X-67509Y282800D02*
D03*
X-81091D02*
D03*
X-248191Y263100D02*
D03*
X-234609D02*
D03*
X-107209Y282400D02*
D03*
X-120791D02*
D03*
X-290391Y251800D02*
D03*
X-276809D02*
D03*
D36*
X-114300Y210663D02*
D03*
Y218537D02*
D03*
X-35100Y210063D02*
D03*
Y217937D02*
D03*
X-280100Y273063D02*
D03*
Y280937D02*
D03*
X-271100Y273163D02*
D03*
Y281037D02*
D03*
X-275600Y182163D02*
D03*
Y190037D02*
D03*
X-197100Y257337D02*
D03*
Y249463D02*
D03*
X-25800Y286437D02*
D03*
Y278563D02*
D03*
X-43400Y286737D02*
D03*
Y278863D02*
D03*
X-34500Y286637D02*
D03*
Y278763D02*
D03*
X-226600Y255137D02*
D03*
Y247263D02*
D03*
X-226400Y239337D02*
D03*
Y231463D02*
D03*
X-142000Y269763D02*
D03*
Y277637D02*
D03*
X-47500Y195963D02*
D03*
Y203837D02*
D03*
X-151600Y277837D02*
D03*
Y269963D02*
D03*
X-56500Y204037D02*
D03*
Y196163D02*
D03*
X-26400Y234937D02*
D03*
Y227063D02*
D03*
X-187250Y257487D02*
D03*
Y249613D02*
D03*
X-148600Y258437D02*
D03*
Y250563D02*
D03*
X-109100Y258837D02*
D03*
Y250963D02*
D03*
X-170300Y270013D02*
D03*
Y277887D02*
D03*
X-70000Y259137D02*
D03*
Y251263D02*
D03*
X-161100Y270063D02*
D03*
Y277937D02*
D03*
X-123400Y201563D02*
D03*
Y209437D02*
D03*
X-288800Y280937D02*
D03*
Y273063D02*
D03*
X-278000Y241337D02*
D03*
Y233463D02*
D03*
X-288700Y241337D02*
D03*
Y233463D02*
D03*
X-263600Y182163D02*
D03*
Y190037D02*
D03*
X-206700Y249463D02*
D03*
Y257337D02*
D03*
X-35800Y227163D02*
D03*
Y235037D02*
D03*
X-45000Y227163D02*
D03*
Y235037D02*
D03*
X-123200Y219163D02*
D03*
Y227037D02*
D03*
D37*
X-24763Y243900D02*
D03*
X-32637D02*
D03*
X-250437Y216700D02*
D03*
X-242563D02*
D03*
X-267137Y216900D02*
D03*
X-259263D02*
D03*
X-267237Y207800D02*
D03*
X-259363D02*
D03*
D38*
X-176772Y259539D02*
D03*
Y246941D02*
D03*
X-137402Y259539D02*
D03*
Y246941D02*
D03*
X-98032Y259539D02*
D03*
Y246941D02*
D03*
X-58661Y259539D02*
D03*
Y246941D02*
D03*
D39*
X-165800Y233649D02*
D03*
X-130800Y194751D02*
D03*
X-165800D02*
D03*
X-160800D02*
D03*
X-155800D02*
D03*
X-150800D02*
D03*
X-145800D02*
D03*
X-140800D02*
D03*
X-135800D02*
D03*
X-160800Y233649D02*
D03*
X-155800D02*
D03*
X-150800D02*
D03*
X-145800D02*
D03*
X-140800D02*
D03*
X-135800D02*
D03*
X-170800D02*
D03*
Y194751D02*
D03*
X-175800D02*
D03*
Y233649D02*
D03*
D40*
X-130800D02*
D03*
D41*
X-61324Y283100D02*
D03*
X-50876Y279360D02*
D03*
Y286840D02*
D03*
X-245424Y251500D02*
D03*
X-234976Y247760D02*
D03*
Y255240D02*
D03*
X-123476Y274300D02*
D03*
X-133924Y278040D02*
D03*
Y270560D02*
D03*
X-29376Y200100D02*
D03*
X-39824Y203840D02*
D03*
Y196360D02*
D03*
D42*
X-268250Y227157D02*
D03*
D43*
X-263250D02*
D03*
X-258250D02*
D03*
X-253250D02*
D03*
X-268250Y246843D02*
D03*
X-263250D02*
D03*
X-258250D02*
D03*
X-253250D02*
D03*
D44*
X-26500Y206109D02*
D03*
Y219691D02*
D03*
D45*
X-304300Y203800D02*
D03*
X-303900Y213700D02*
D03*
X-304200Y235000D02*
D03*
X-303900Y245200D02*
D03*
X-304500Y274800D02*
D03*
X-304000Y284800D02*
D03*
X-10800Y272900D02*
D03*
X-10900Y262800D02*
D03*
X-10500Y252900D02*
D03*
X-11100Y233500D02*
D03*
X-10900Y223600D02*
D03*
X-10500Y213700D02*
D03*
D46*
X-246300Y277400D02*
D03*
X-236100Y277600D02*
D03*
X-246261Y297863D02*
D03*
X-236100Y297500D02*
D03*
X-196700Y297400D02*
D03*
X-186800Y297300D02*
D03*
X-196700Y277500D02*
D03*
X-186700Y277600D02*
D03*
X-118000Y297500D02*
D03*
X-108151Y297863D02*
D03*
X-78600Y297600D02*
D03*
X-68700Y297400D02*
D03*
D47*
X-176772Y253240D02*
D03*
X-137402D02*
D03*
X-98032D02*
D03*
X-58661D02*
D03*
D48*
X-15748Y272925D02*
D03*
X-299213Y213870D02*
D03*
X-15748Y233555D02*
D03*
X-299213Y284736D02*
D03*
Y245366D02*
D03*
D49*
X-15748Y262925D02*
D03*
Y252925D02*
D03*
X-299213Y203870D02*
D03*
X-115900Y184500D02*
D03*
X-125900D02*
D03*
X-135900D02*
D03*
X-145900D02*
D03*
X-155900D02*
D03*
X-186850Y272925D02*
D03*
Y292610D02*
D03*
X-68740D02*
D03*
X-108110D02*
D03*
X-15748Y223555D02*
D03*
Y213555D02*
D03*
X-299213Y274736D02*
D03*
Y235366D02*
D03*
X-246220Y292610D02*
D03*
Y272925D02*
D03*
D50*
X-105900Y184500D02*
D03*
X-196850Y272925D02*
D03*
Y292610D02*
D03*
X-78740D02*
D03*
X-118110D02*
D03*
X-236221D02*
D03*
Y272925D02*
D03*
D51*
X-301181Y188279D02*
D03*
X-13780Y298516D02*
D03*
D52*
X-226400Y218700D02*
D03*
X-287800Y288400D02*
D03*
X-124500Y234000D02*
D03*
X-45000Y242300D02*
D03*
X-45300Y219800D02*
D03*
X-206900Y265300D02*
D03*
X-183600Y204300D02*
D03*
X-79400Y251400D02*
D03*
X-141200Y222400D02*
D03*
X-34700Y269300D02*
D03*
X-150600Y223200D02*
D03*
X-115600Y201600D02*
D03*
X-274800Y216100D02*
D03*
M02*
