%FSLAX25Y25*%
%MOIN*%
G70*
G01*
G75*
G04 Layer_Color=65535*
%ADD10R,0.04921X0.06299*%
%ADD11R,0.05118X0.03937*%
%ADD12R,0.03937X0.05118*%
%ADD13R,0.07284X0.04724*%
%ADD14O,0.02362X0.08661*%
%ADD15R,0.02362X0.08661*%
%ADD16R,0.04724X0.02559*%
%ADD17R,0.02362X0.09449*%
%ADD18O,0.02362X0.09449*%
%ADD19R,0.06299X0.04921*%
G04:AMPARAMS|DCode=20|XSize=157.48mil|YSize=59.06mil|CornerRadius=14.76mil|HoleSize=0mil|Usage=FLASHONLY|Rotation=0.000|XOffset=0mil|YOffset=0mil|HoleType=Round|Shape=RoundedRectangle|*
%AMROUNDEDRECTD20*
21,1,0.15748,0.02953,0,0,0.0*
21,1,0.12795,0.05906,0,0,0.0*
1,1,0.02953,0.06398,-0.01476*
1,1,0.02953,-0.06398,-0.01476*
1,1,0.02953,-0.06398,0.01476*
1,1,0.02953,0.06398,0.01476*
%
%ADD20ROUNDEDRECTD20*%
G04:AMPARAMS|DCode=21|XSize=157.48mil|YSize=59.06mil|CornerRadius=14.76mil|HoleSize=0mil|Usage=FLASHONLY|Rotation=90.000|XOffset=0mil|YOffset=0mil|HoleType=Round|Shape=RoundedRectangle|*
%AMROUNDEDRECTD21*
21,1,0.15748,0.02953,0,0,90.0*
21,1,0.12795,0.05906,0,0,90.0*
1,1,0.02953,0.01476,0.06398*
1,1,0.02953,0.01476,-0.06398*
1,1,0.02953,-0.01476,-0.06398*
1,1,0.02953,-0.01476,0.06398*
%
%ADD21ROUNDEDRECTD21*%
%ADD22C,0.01000*%
%ADD23C,0.01200*%
%ADD24C,0.02000*%
%ADD25C,0.03937*%
%ADD26C,0.00394*%
G04:AMPARAMS|DCode=27|XSize=78.74mil|YSize=60mil|CornerRadius=0mil|HoleSize=0mil|Usage=FLASHONLY|Rotation=0.000|XOffset=0mil|YOffset=0mil|HoleType=Round|Shape=Octagon|*
%AMOCTAGOND27*
4,1,8,0.03937,-0.01500,0.03937,0.01500,0.02437,0.03000,-0.02437,0.03000,-0.03937,0.01500,-0.03937,-0.01500,-0.02437,-0.03000,0.02437,-0.03000,0.03937,-0.01500,0.0*
%
%ADD27OCTAGOND27*%

%ADD28R,0.05906X0.05906*%
%ADD29C,0.05906*%
%ADD30R,0.05906X0.05906*%
%ADD31C,0.06000*%
%ADD32C,0.05000*%
%ADD33C,0.00984*%
%ADD34C,0.00787*%
D22*
X-229700Y273136D02*
Y269200D01*
X-227076D01*
X-223140Y273136D02*
X-225764D01*
Y269200D01*
X-223140D01*
X-225764Y271168D02*
X-224452D01*
X-221829Y273136D02*
Y269200D01*
X-219861D01*
X-219205Y269856D01*
Y272480D01*
X-219861Y273136D01*
X-221829D01*
X-215925Y269200D02*
Y273136D01*
X-217893Y271168D01*
X-215269D01*
X-310200Y251900D02*
X-308888D01*
X-309544D01*
Y255836D01*
X-310200Y255180D01*
X-304296Y251900D02*
X-306920D01*
X-304296Y254524D01*
Y255180D01*
X-304952Y255836D01*
X-306264D01*
X-306920Y255180D01*
X-302984Y255836D02*
Y253212D01*
X-301673Y251900D01*
X-300361Y253212D01*
Y255836D01*
X-21976Y184180D02*
X-22632Y184836D01*
X-23944D01*
X-24600Y184180D01*
Y181556D01*
X-23944Y180900D01*
X-22632D01*
X-21976Y181556D01*
Y182868D01*
X-23288D01*
X-20664Y180900D02*
Y184836D01*
X-18040Y180900D01*
Y184836D01*
X-16728D02*
Y180900D01*
X-14761D01*
X-14105Y181556D01*
Y184180D01*
X-14761Y184836D01*
X-16728D01*
X-21976Y191636D02*
X-24600D01*
Y189668D01*
X-23288D01*
X-24600D01*
Y187700D01*
X-20664D02*
Y190324D01*
X-19352Y191636D01*
X-18040Y190324D01*
Y187700D01*
Y189668D01*
X-20664D01*
X-16728Y187700D02*
Y191636D01*
X-14105Y187700D01*
Y191636D01*
X-12793Y187044D02*
X-10169D01*
X-6233Y191636D02*
X-8857D01*
Y189668D01*
X-7545Y190324D01*
X-6889D01*
X-6233Y189668D01*
Y188356D01*
X-6889Y187700D01*
X-8201D01*
X-8857Y188356D01*
X-4921Y191636D02*
Y189012D01*
X-3609Y187700D01*
X-2297Y189012D01*
Y191636D01*
X-22176Y198136D02*
X-24800D01*
Y196168D01*
X-23488D01*
X-24800D01*
Y194200D01*
X-20864D02*
Y196824D01*
X-19552Y198136D01*
X-18240Y196824D01*
Y194200D01*
Y196168D01*
X-20864D01*
X-16928Y194200D02*
Y198136D01*
X-14305Y194200D01*
Y198136D01*
X-12993Y194200D02*
X-11681D01*
X-12337D01*
Y198136D01*
X-12993Y197480D01*
X-9713Y193544D02*
X-7089D01*
X-3153Y197480D02*
X-3809Y198136D01*
X-5121D01*
X-5777Y197480D01*
Y196824D01*
X-5121Y196168D01*
X-3809D01*
X-3153Y195512D01*
Y194856D01*
X-3809Y194200D01*
X-5121D01*
X-5777Y194856D01*
X-45076Y251180D02*
X-45732Y251836D01*
X-47044D01*
X-47700Y251180D01*
Y248556D01*
X-47044Y247900D01*
X-45732D01*
X-45076Y248556D01*
Y249868D01*
X-46388D01*
X-43764Y247900D02*
Y251836D01*
X-41140Y247900D01*
Y251836D01*
X-39829D02*
Y247900D01*
X-37861D01*
X-37205Y248556D01*
Y251180D01*
X-37861Y251836D01*
X-39829D01*
X-46976Y257636D02*
X-49600D01*
Y255668D01*
X-48288D01*
X-49600D01*
Y253700D01*
X-45664D02*
Y256324D01*
X-44352Y257636D01*
X-43040Y256324D01*
Y253700D01*
Y255668D01*
X-45664D01*
X-41728Y253700D02*
Y257636D01*
X-39105Y253700D01*
Y257636D01*
X-37793Y253044D02*
X-35169D01*
X-31233Y257636D02*
X-33857D01*
Y255668D01*
X-32545Y256324D01*
X-31889D01*
X-31233Y255668D01*
Y254356D01*
X-31889Y253700D01*
X-33201D01*
X-33857Y254356D01*
X-29921Y256324D02*
X-28609Y253700D01*
X-27297Y256324D01*
X-46276Y264071D02*
X-48900D01*
Y262104D01*
X-47588D01*
X-48900D01*
Y260136D01*
X-44964D02*
Y262760D01*
X-43652Y264071D01*
X-42340Y262760D01*
Y260136D01*
Y262104D01*
X-44964D01*
X-41028Y260136D02*
Y264071D01*
X-38405Y260136D01*
Y264071D01*
X-34469Y260136D02*
X-37093D01*
X-34469Y262760D01*
Y263416D01*
X-35125Y264071D01*
X-36437D01*
X-37093Y263416D01*
X-33157Y259480D02*
X-30533D01*
X-26597Y263416D02*
X-27253Y264071D01*
X-28565D01*
X-29221Y263416D01*
Y262760D01*
X-28565Y262104D01*
X-27253D01*
X-26597Y261448D01*
Y260792D01*
X-27253Y260136D01*
X-28565D01*
X-29221Y260792D01*
X-62300Y300000D02*
Y303936D01*
X-60332D01*
X-59676Y303280D01*
Y301968D01*
X-60332Y301312D01*
X-62300D01*
X-60988D02*
X-59676Y300000D01*
X-55740Y303936D02*
X-58364D01*
Y300000D01*
X-55740D01*
X-58364Y301968D02*
X-57052D01*
X-54428Y303936D02*
Y300000D01*
X-51805D01*
X-50493D02*
Y302624D01*
X-49181Y303936D01*
X-47869Y302624D01*
Y300000D01*
Y301968D01*
X-50493D01*
X-46557Y303936D02*
Y303280D01*
X-45245Y301968D01*
X-43933Y303280D01*
Y303936D01*
X-45245Y301968D02*
Y300000D01*
X-39998D02*
X-42621D01*
X-39998Y302624D01*
Y303280D01*
X-40653Y303936D01*
X-41965D01*
X-42621Y303280D01*
X-146000Y298600D02*
Y302536D01*
X-144032D01*
X-143376Y301880D01*
Y300568D01*
X-144032Y299912D01*
X-146000D01*
X-144688D02*
X-143376Y298600D01*
X-139440Y302536D02*
X-142064D01*
Y298600D01*
X-139440D01*
X-142064Y300568D02*
X-140752D01*
X-138128Y302536D02*
Y298600D01*
X-135505D01*
X-134193D02*
Y301224D01*
X-132881Y302536D01*
X-131569Y301224D01*
Y298600D01*
Y300568D01*
X-134193D01*
X-130257Y302536D02*
Y301880D01*
X-128945Y300568D01*
X-127633Y301880D01*
Y302536D01*
X-128945Y300568D02*
Y298600D01*
X-126321D02*
X-125009D01*
X-125665D01*
Y302536D01*
X-126321Y301880D01*
X-179400Y293636D02*
Y289700D01*
X-177432D01*
X-176776Y290356D01*
Y291012D01*
X-177432Y291668D01*
X-179400D01*
X-177432D01*
X-176776Y292324D01*
Y292980D01*
X-177432Y293636D01*
X-179400D01*
X-175464D02*
Y290356D01*
X-174808Y289700D01*
X-173496D01*
X-172840Y290356D01*
Y293636D01*
X-171528D02*
X-168905D01*
X-170217D01*
Y289700D01*
X-167593Y293636D02*
X-164969D01*
X-166281D01*
Y289700D01*
X-161689Y293636D02*
X-163001D01*
X-163657Y292980D01*
Y290356D01*
X-163001Y289700D01*
X-161689D01*
X-161033Y290356D01*
Y292980D01*
X-161689Y293636D01*
X-159721Y289700D02*
Y293636D01*
X-157097Y289700D01*
Y293636D01*
X-291000Y195800D02*
Y198949D01*
X-289426D01*
X-288901Y198424D01*
Y197374D01*
X-289426Y196850D01*
X-291000D01*
X-287851Y195800D02*
Y198949D01*
X-286277D01*
X-285752Y198424D01*
Y197374D01*
X-286277Y196850D01*
X-287851D01*
X-286802D02*
X-285752Y195800D01*
X-283128Y198949D02*
X-284178D01*
X-284703Y198424D01*
Y196325D01*
X-284178Y195800D01*
X-283128D01*
X-282604Y196325D01*
Y198424D01*
X-283128Y198949D01*
X-279455Y198424D02*
X-279980Y198949D01*
X-281030D01*
X-281554Y198424D01*
Y196325D01*
X-281030Y195800D01*
X-279980D01*
X-279455Y196325D01*
X-287376Y219836D02*
X-290000D01*
Y217868D01*
X-288688Y218524D01*
X-288032D01*
X-287376Y217868D01*
Y216556D01*
X-288032Y215900D01*
X-289344D01*
X-290000Y216556D01*
X-286064Y219836D02*
Y217212D01*
X-284752Y215900D01*
X-283440Y217212D01*
Y219836D01*
X-307176Y228280D02*
X-307832Y228936D01*
X-309144D01*
X-309800Y228280D01*
Y225656D01*
X-309144Y225000D01*
X-307832D01*
X-307176Y225656D01*
Y226968D01*
X-308488D01*
X-305864Y225000D02*
Y228936D01*
X-303240Y225000D01*
Y228936D01*
X-301928D02*
Y225000D01*
X-299961D01*
X-299305Y225656D01*
Y228280D01*
X-299961Y228936D01*
X-301928D01*
X-308376Y267880D02*
X-309032Y268536D01*
X-310344D01*
X-311000Y267880D01*
Y265256D01*
X-310344Y264600D01*
X-309032D01*
X-308376Y265256D01*
Y266568D01*
X-309688D01*
X-307064Y264600D02*
Y268536D01*
X-304440Y264600D01*
Y268536D01*
X-303129D02*
Y264600D01*
X-301161D01*
X-300505Y265256D01*
Y267880D01*
X-301161Y268536D01*
X-303129D01*
X-305376Y294936D02*
X-308000D01*
Y292968D01*
X-306688Y293624D01*
X-306032D01*
X-305376Y292968D01*
Y291656D01*
X-306032Y291000D01*
X-307344D01*
X-308000Y291656D01*
X-304064Y294936D02*
Y292312D01*
X-302752Y291000D01*
X-301440Y292312D01*
Y294936D01*
X-229500Y278399D02*
X-225501D01*
X-217504D02*
X-213505D01*
X-215505Y280398D02*
Y276400D01*
X-229600Y293199D02*
X-225601D01*
X-217604D02*
X-213605D01*
X-215604Y295198D02*
Y291200D01*
X-179000Y304636D02*
Y300700D01*
X-177032D01*
X-176376Y301356D01*
Y302012D01*
X-177032Y302668D01*
X-179000D01*
X-177032D01*
X-176376Y303324D01*
Y303980D01*
X-177032Y304636D01*
X-179000D01*
X-175064D02*
Y301356D01*
X-174408Y300700D01*
X-173096D01*
X-172440Y301356D01*
Y304636D01*
X-171128D02*
X-168505D01*
X-169817D01*
Y300700D01*
X-167193Y304636D02*
X-164569D01*
X-165881D01*
Y300700D01*
X-161289Y304636D02*
X-162601D01*
X-163257Y303980D01*
Y301356D01*
X-162601Y300700D01*
X-161289D01*
X-160633Y301356D01*
Y303980D01*
X-161289Y304636D01*
X-159321Y300700D02*
Y304636D01*
X-156697Y300700D01*
Y304636D01*
X-229800Y301636D02*
Y297700D01*
X-227176D01*
X-223240Y301636D02*
X-225864D01*
Y297700D01*
X-223240D01*
X-225864Y299668D02*
X-224552D01*
X-221929Y301636D02*
Y297700D01*
X-219961D01*
X-219305Y298356D01*
Y300980D01*
X-219961Y301636D01*
X-221929D01*
X-216025Y297700D02*
Y301636D01*
X-217993Y299668D01*
X-215369D01*
D23*
X-291050Y298156D02*
X-284750D01*
X-291050Y292644D02*
X-284750D01*
Y298156D01*
X-285498Y292644D02*
Y298156D01*
X-117843Y207513D02*
Y221687D01*
X-110757D01*
Y207513D02*
Y221687D01*
X-117843Y207513D02*
X-110757D01*
X-38643Y206913D02*
Y221087D01*
X-31557D01*
Y206913D02*
Y221087D01*
X-38643Y206913D02*
X-31557D01*
X-35787Y240357D02*
X-21613D01*
X-35787D02*
Y247443D01*
X-21613D01*
Y240357D02*
Y247443D01*
X-283643Y269913D02*
Y284087D01*
X-276557D01*
Y269913D02*
Y284087D01*
X-283643Y269913D02*
X-276557D01*
X-274643Y270013D02*
Y284187D01*
X-267557D01*
Y270013D02*
Y284187D01*
X-274643Y270013D02*
X-267557D01*
X-253587Y220243D02*
X-239413D01*
Y213157D02*
Y220243D01*
X-253587Y213157D02*
X-239413D01*
X-253587D02*
Y220243D01*
X-279143Y179013D02*
Y193187D01*
X-272057D01*
Y179013D02*
Y193187D01*
X-279143Y179013D02*
X-272057D01*
X-178300Y200200D02*
Y228200D01*
X-128400Y200200D02*
Y228200D01*
X-178300Y200200D02*
X-128400D01*
X-178300Y228200D02*
X-128400D01*
X-200643Y246313D02*
X-193557D01*
Y260487D01*
X-200643D02*
X-193557D01*
X-200643Y246313D02*
Y260487D01*
X-77450Y280044D02*
X-71150D01*
X-77450Y285556D02*
X-71150D01*
X-77450Y280044D02*
Y285556D01*
X-76702Y280044D02*
Y285556D01*
X-20748Y247925D02*
Y277925D01*
Y247925D02*
X-10748D01*
Y277925D01*
X-20748D02*
X-10748D01*
X-304213Y198870D02*
X-294213D01*
X-304213D02*
Y218870D01*
X-294213D01*
Y198870D02*
Y218870D01*
X-160900Y179500D02*
Y189500D01*
X-100900Y179500D02*
Y189500D01*
X-160900Y179500D02*
X-100900D01*
X-160900Y189500D02*
X-100900D01*
X-58600Y288612D02*
X-53600D01*
X-58600Y277588D02*
X-53600D01*
X-58600D02*
Y288612D01*
X-53600Y277588D02*
Y288612D01*
X-270592Y233457D02*
X-250907D01*
X-270592Y240543D02*
X-250907D01*
X-270592Y233457D02*
Y240543D01*
X-250907Y233457D02*
Y240543D01*
X-22257Y275413D02*
Y289587D01*
X-29343Y275413D02*
X-22257D01*
X-29343D02*
Y289587D01*
X-22257D01*
X-242700Y257012D02*
X-237700D01*
X-242700Y245988D02*
X-237700D01*
X-242700D02*
Y257012D01*
X-237700Y245988D02*
Y257012D01*
X-131200Y268788D02*
X-126200D01*
X-131200Y279812D02*
X-126200D01*
Y268788D02*
Y279812D01*
X-131200Y268788D02*
Y279812D01*
X-37100Y194588D02*
X-32100D01*
X-37100Y205612D02*
X-32100D01*
Y194588D02*
Y205612D01*
X-37100Y194588D02*
Y205612D01*
X-39857Y275713D02*
Y289887D01*
X-46943Y275713D02*
X-39857D01*
X-46943D02*
Y289887D01*
X-39857D01*
X-30957Y275613D02*
Y289787D01*
X-38043Y275613D02*
X-30957D01*
X-38043D02*
Y289787D01*
X-30957D01*
X-223057Y244113D02*
Y258287D01*
X-230143Y244113D02*
X-223057D01*
X-230143D02*
Y258287D01*
X-223057D01*
X-222857Y228313D02*
Y242487D01*
X-229943Y228313D02*
X-222857D01*
X-229943D02*
Y242487D01*
X-222857D01*
X-145543Y266613D02*
Y280787D01*
X-138457D01*
Y266613D02*
Y280787D01*
X-145543Y266613D02*
X-138457D01*
X-51043Y192813D02*
Y206987D01*
X-43957D01*
Y192813D02*
Y206987D01*
X-51043Y192813D02*
X-43957D01*
X-148057Y266813D02*
Y280987D01*
X-155143Y266813D02*
X-148057D01*
X-155143D02*
Y280987D01*
X-148057D01*
X-52957Y193013D02*
Y207187D01*
X-60043Y193013D02*
X-52957D01*
X-60043D02*
Y207187D01*
X-52957D01*
X-22857Y223913D02*
Y238087D01*
X-29943Y223913D02*
X-22857D01*
X-29943D02*
Y238087D01*
X-22857D01*
X-183707Y246463D02*
Y260637D01*
X-190793Y246463D02*
X-183707D01*
X-190793D02*
Y260637D01*
X-183707D01*
X-145057Y247413D02*
Y261587D01*
X-152143Y247413D02*
X-145057D01*
X-152143D02*
Y261587D01*
X-145057D01*
X-105557Y247813D02*
Y261987D01*
X-112643Y247813D02*
X-105557D01*
X-112643D02*
Y261987D01*
X-105557D01*
X-173843Y266863D02*
Y281037D01*
X-166757D01*
Y266863D02*
Y281037D01*
X-173843Y266863D02*
X-166757D01*
X-66457Y248113D02*
Y262287D01*
X-73543Y248113D02*
X-66457D01*
X-73543D02*
Y262287D01*
X-66457D01*
X-164643Y266913D02*
Y281087D01*
X-157557D01*
Y266913D02*
Y281087D01*
X-164643Y266913D02*
X-157557D01*
X-181850Y267925D02*
Y277925D01*
X-201850Y267925D02*
X-181850D01*
X-201850D02*
Y277925D01*
X-181850D01*
Y287610D02*
Y297610D01*
X-201850Y287610D02*
X-181850D01*
X-201850D02*
Y297610D01*
X-181850D01*
X-63740Y287610D02*
Y297610D01*
X-83740Y287610D02*
X-63740D01*
X-83740D02*
Y297610D01*
X-63740D01*
X-103110Y287610D02*
Y297610D01*
X-123110Y287610D02*
X-103110D01*
X-123110D02*
Y297610D01*
X-103110D01*
X-20748Y208555D02*
Y238555D01*
Y208555D02*
X-10748D01*
Y238555D01*
X-20748D02*
X-10748D01*
X-304213Y269736D02*
X-294213D01*
X-304213D02*
Y289736D01*
X-294213D01*
Y269736D02*
Y289736D01*
X-304213Y230366D02*
X-294213D01*
X-304213D02*
Y250366D01*
X-294213D01*
Y230366D02*
Y250366D01*
X-244550Y265856D02*
X-238250D01*
X-244550Y260344D02*
X-238250D01*
Y265856D01*
X-238998Y260344D02*
Y265856D01*
X-117150Y279644D02*
X-110850D01*
X-117150Y285156D02*
X-110850D01*
X-117150Y279644D02*
Y285156D01*
X-116402Y279644D02*
Y285156D01*
X-29256Y209750D02*
Y216050D01*
X-23744Y209750D02*
Y216050D01*
X-29256D02*
X-23744D01*
X-29256Y215302D02*
X-23744D01*
X-286750Y254556D02*
X-280450D01*
X-286750Y249044D02*
X-280450D01*
Y254556D01*
X-281198Y249044D02*
Y254556D01*
X-126943Y212587D02*
X-119857D01*
X-126943Y198413D02*
Y212587D01*
Y198413D02*
X-119857D01*
Y212587D01*
X-292343Y269913D02*
X-285257D01*
Y284087D01*
X-292343D02*
X-285257D01*
X-292343Y269913D02*
Y284087D01*
X-281543Y230313D02*
X-274457D01*
Y244487D01*
X-281543D02*
X-274457D01*
X-281543Y230313D02*
Y244487D01*
X-292243Y230313D02*
X-285157D01*
Y244487D01*
X-292243D02*
X-285157D01*
X-292243Y230313D02*
Y244487D01*
X-256113Y213357D02*
Y220443D01*
X-270287D02*
X-256113D01*
X-270287Y213357D02*
Y220443D01*
Y213357D02*
X-256113D01*
X-256213Y204257D02*
Y211343D01*
X-270387D02*
X-256213D01*
X-270387Y204257D02*
Y211343D01*
Y204257D02*
X-256213D01*
X-267143Y193187D02*
X-260057D01*
X-267143Y179013D02*
Y193187D01*
Y179013D02*
X-260057D01*
Y193187D01*
X-251220Y287610D02*
Y297610D01*
X-231221D01*
Y287610D02*
Y297610D01*
X-251220Y287610D02*
X-231221D01*
X-251220Y267925D02*
Y277925D01*
X-231221D01*
Y267925D02*
Y277925D01*
X-251220Y267925D02*
X-231221D01*
X-210243Y246313D02*
Y260487D01*
X-203157D01*
Y246313D02*
Y260487D01*
X-210243Y246313D02*
X-203157D01*
X-39343Y238187D02*
X-32257D01*
X-39343Y224013D02*
Y238187D01*
Y224013D02*
X-32257D01*
Y238187D01*
X-48543D02*
X-41457D01*
X-48543Y224013D02*
Y238187D01*
Y224013D02*
X-41457D01*
Y238187D01*
X-126743Y230187D02*
X-119657D01*
X-126743Y216013D02*
Y230187D01*
Y216013D02*
X-119657D01*
Y230187D01*
D26*
X-290400Y296368D02*
Y294400D01*
X-289416D01*
X-289088Y294728D01*
Y296040D01*
X-289416Y296368D01*
X-290400D01*
X-288432Y294400D02*
X-287776D01*
X-288104D01*
Y296368D01*
X-288432Y296040D01*
X-286792D02*
X-286464Y296368D01*
X-285808D01*
X-285480Y296040D01*
Y294728D01*
X-285808Y294400D01*
X-286464D01*
X-286792Y294728D01*
Y296040D01*
X-115488Y215240D02*
X-115816Y215568D01*
X-116472D01*
X-116800Y215240D01*
Y213928D01*
X-116472Y213600D01*
X-115816D01*
X-115488Y213928D01*
X-114832Y213600D02*
X-114176D01*
X-114504D01*
Y215568D01*
X-114832Y215240D01*
X-113192D02*
X-112864Y215568D01*
X-112208D01*
X-111880Y215240D01*
Y214912D01*
X-112208Y214584D01*
X-112536D01*
X-112208D01*
X-111880Y214256D01*
Y213928D01*
X-112208Y213600D01*
X-112864D01*
X-113192Y213928D01*
X-35888Y214640D02*
X-36216Y214968D01*
X-36872D01*
X-37200Y214640D01*
Y213328D01*
X-36872Y213000D01*
X-36216D01*
X-35888Y213328D01*
X-35232Y213000D02*
X-34576D01*
X-34904D01*
Y214968D01*
X-35232Y214640D01*
X-33592Y213000D02*
X-32936D01*
X-33264D01*
Y214968D01*
X-33592Y214640D01*
X-29888Y244540D02*
X-30216Y244868D01*
X-30872D01*
X-31200Y244540D01*
Y243228D01*
X-30872Y242900D01*
X-30216D01*
X-29888Y243228D01*
X-29232Y242900D02*
X-28576D01*
X-28904D01*
Y244868D01*
X-29232Y244540D01*
X-26280Y242900D02*
X-27592D01*
X-26280Y244212D01*
Y244540D01*
X-26608Y244868D01*
X-27264D01*
X-27592Y244540D01*
X-280388Y277640D02*
X-280716Y277968D01*
X-281372D01*
X-281700Y277640D01*
Y276328D01*
X-281372Y276000D01*
X-280716D01*
X-280388Y276328D01*
X-279732D02*
X-279404Y276000D01*
X-278748D01*
X-278420Y276328D01*
Y277640D01*
X-278748Y277968D01*
X-279404D01*
X-279732Y277640D01*
Y277312D01*
X-279404Y276984D01*
X-278420D01*
X-272288Y277740D02*
X-272616Y278068D01*
X-273272D01*
X-273600Y277740D01*
Y276428D01*
X-273272Y276100D01*
X-272616D01*
X-272288Y276428D01*
X-271632Y276100D02*
X-270976D01*
X-271304D01*
Y278068D01*
X-271632Y277740D01*
X-269992D02*
X-269664Y278068D01*
X-269008D01*
X-268680Y277740D01*
Y276428D01*
X-269008Y276100D01*
X-269664D01*
X-269992Y276428D01*
Y277740D01*
X-246788Y217340D02*
X-247116Y217668D01*
X-247772D01*
X-248100Y217340D01*
Y216028D01*
X-247772Y215700D01*
X-247116D01*
X-246788Y216028D01*
X-246132Y217340D02*
X-245804Y217668D01*
X-245148D01*
X-244820Y217340D01*
Y217012D01*
X-245148Y216684D01*
X-244820Y216356D01*
Y216028D01*
X-245148Y215700D01*
X-245804D01*
X-246132Y216028D01*
Y216356D01*
X-245804Y216684D01*
X-246132Y217012D01*
Y217340D01*
X-245804Y216684D02*
X-245148D01*
X-276788Y186740D02*
X-277116Y187068D01*
X-277772D01*
X-278100Y186740D01*
Y185428D01*
X-277772Y185100D01*
X-277116D01*
X-276788Y185428D01*
X-276132Y185100D02*
X-275476D01*
X-275804D01*
Y187068D01*
X-276132Y186740D01*
X-273508Y185100D02*
Y187068D01*
X-274492Y186084D01*
X-273180D01*
X-27400Y281500D02*
Y283468D01*
X-26416D01*
X-26088Y283140D01*
Y282484D01*
X-26416Y282156D01*
X-27400D01*
X-26744D02*
X-26088Y281500D01*
X-25432Y283140D02*
X-25104Y283468D01*
X-24448D01*
X-24120Y283140D01*
Y282812D01*
X-24448Y282484D01*
X-24120Y282156D01*
Y281828D01*
X-24448Y281500D01*
X-25104D01*
X-25432Y281828D01*
Y282156D01*
X-25104Y282484D01*
X-25432Y282812D01*
Y283140D01*
X-25104Y282484D02*
X-24448D01*
X-262100Y237968D02*
Y236328D01*
X-261772Y236000D01*
X-261116D01*
X-260788Y236328D01*
Y237968D01*
X-260132Y236000D02*
X-259476D01*
X-259804D01*
Y237968D01*
X-260132Y237640D01*
X-57700Y284068D02*
X-56388D01*
X-57044D01*
Y282100D01*
X-54748D02*
Y284068D01*
X-55732Y283084D01*
X-54420D01*
X-241800Y252468D02*
X-240488D01*
X-241144D01*
Y250500D01*
X-239832Y252140D02*
X-239504Y252468D01*
X-238848D01*
X-238520Y252140D01*
Y251812D01*
X-238848Y251484D01*
X-239176D01*
X-238848D01*
X-238520Y251156D01*
Y250828D01*
X-238848Y250500D01*
X-239504D01*
X-239832Y250828D01*
X-130300Y275268D02*
X-128988D01*
X-129644D01*
Y273300D01*
X-127020D02*
X-128332D01*
X-127020Y274612D01*
Y274940D01*
X-127348Y275268D01*
X-128004D01*
X-128332Y274940D01*
X-35900Y201068D02*
X-34588D01*
X-35244D01*
Y199100D01*
X-33932D02*
X-33276D01*
X-33604D01*
Y201068D01*
X-33932Y200740D01*
X-45900Y281800D02*
Y283768D01*
X-44916D01*
X-44588Y283440D01*
Y282784D01*
X-44916Y282456D01*
X-45900D01*
X-45244D02*
X-44588Y281800D01*
X-43932D02*
X-43276D01*
X-43604D01*
Y283768D01*
X-43932Y283440D01*
X-42292Y283768D02*
X-40980D01*
Y283440D01*
X-42292Y282128D01*
Y281800D01*
X-37000Y281700D02*
Y283668D01*
X-36016D01*
X-35688Y283340D01*
Y282684D01*
X-36016Y282356D01*
X-37000D01*
X-36344D02*
X-35688Y281700D01*
X-35032D02*
X-34376D01*
X-34704D01*
Y283668D01*
X-35032Y283340D01*
X-32080Y283668D02*
X-32736Y283340D01*
X-33392Y282684D01*
Y282028D01*
X-33064Y281700D01*
X-32408D01*
X-32080Y282028D01*
Y282356D01*
X-32408Y282684D01*
X-33392D01*
X-209200Y252400D02*
Y254368D01*
X-208216D01*
X-207888Y254040D01*
Y253384D01*
X-208216Y253056D01*
X-209200D01*
X-208544D02*
X-207888Y252400D01*
X-207232D02*
X-206576D01*
X-206904D01*
Y254368D01*
X-207232Y254040D01*
X-204280Y254368D02*
X-205592D01*
Y253384D01*
X-204936Y253712D01*
X-204608D01*
X-204280Y253384D01*
Y252728D01*
X-204608Y252400D01*
X-205264D01*
X-205592Y252728D01*
X-229100Y250200D02*
Y252168D01*
X-228116D01*
X-227788Y251840D01*
Y251184D01*
X-228116Y250856D01*
X-229100D01*
X-228444D02*
X-227788Y250200D01*
X-227132D02*
X-226476D01*
X-226804D01*
Y252168D01*
X-227132Y251840D01*
X-224508Y250200D02*
Y252168D01*
X-225492Y251184D01*
X-224180D01*
X-228900Y234400D02*
Y236368D01*
X-227916D01*
X-227588Y236040D01*
Y235384D01*
X-227916Y235056D01*
X-228900D01*
X-228244D02*
X-227588Y234400D01*
X-226932D02*
X-226276D01*
X-226604D01*
Y236368D01*
X-226932Y236040D01*
X-225292D02*
X-224964Y236368D01*
X-224308D01*
X-223980Y236040D01*
Y235712D01*
X-224308Y235384D01*
X-224636D01*
X-224308D01*
X-223980Y235056D01*
Y234728D01*
X-224308Y234400D01*
X-224964D01*
X-225292Y234728D01*
X-144500Y272700D02*
Y274668D01*
X-143516D01*
X-143188Y274340D01*
Y273684D01*
X-143516Y273356D01*
X-144500D01*
X-143844D02*
X-143188Y272700D01*
X-142532D02*
X-141876D01*
X-142204D01*
Y274668D01*
X-142532Y274340D01*
X-139580Y272700D02*
X-140892D01*
X-139580Y274012D01*
Y274340D01*
X-139908Y274668D01*
X-140564D01*
X-140892Y274340D01*
X-49600Y198900D02*
Y200868D01*
X-48616D01*
X-48288Y200540D01*
Y199884D01*
X-48616Y199556D01*
X-49600D01*
X-48944D02*
X-48288Y198900D01*
X-47632D02*
X-46976D01*
X-47304D01*
Y200868D01*
X-47632Y200540D01*
X-45992Y198900D02*
X-45336D01*
X-45664D01*
Y200868D01*
X-45992Y200540D01*
X-154100Y272900D02*
Y274868D01*
X-153116D01*
X-152788Y274540D01*
Y273884D01*
X-153116Y273556D01*
X-154100D01*
X-153444D02*
X-152788Y272900D01*
X-152132D02*
X-151476D01*
X-151804D01*
Y274868D01*
X-152132Y274540D01*
X-150492D02*
X-150164Y274868D01*
X-149508D01*
X-149180Y274540D01*
Y273228D01*
X-149508Y272900D01*
X-150164D01*
X-150492Y273228D01*
Y274540D01*
X-58100Y199100D02*
Y201068D01*
X-57116D01*
X-56788Y200740D01*
Y200084D01*
X-57116Y199756D01*
X-58100D01*
X-57444D02*
X-56788Y199100D01*
X-56132Y199428D02*
X-55804Y199100D01*
X-55148D01*
X-54820Y199428D01*
Y200740D01*
X-55148Y201068D01*
X-55804D01*
X-56132Y200740D01*
Y200412D01*
X-55804Y200084D01*
X-54820D01*
X-28000Y230000D02*
Y231968D01*
X-27016D01*
X-26688Y231640D01*
Y230984D01*
X-27016Y230656D01*
X-28000D01*
X-27344D02*
X-26688Y230000D01*
X-26032Y231968D02*
X-24720D01*
Y231640D01*
X-26032Y230328D01*
Y230000D01*
X-188900Y252600D02*
Y254568D01*
X-187916D01*
X-187588Y254240D01*
Y253584D01*
X-187916Y253256D01*
X-188900D01*
X-188244D02*
X-187588Y252600D01*
X-185620Y254568D02*
X-186276Y254240D01*
X-186932Y253584D01*
Y252928D01*
X-186604Y252600D01*
X-185948D01*
X-185620Y252928D01*
Y253256D01*
X-185948Y253584D01*
X-186932D01*
X-150200Y253500D02*
Y255468D01*
X-149216D01*
X-148888Y255140D01*
Y254484D01*
X-149216Y254156D01*
X-150200D01*
X-149544D02*
X-148888Y253500D01*
X-146920Y255468D02*
X-148232D01*
Y254484D01*
X-147576Y254812D01*
X-147248D01*
X-146920Y254484D01*
Y253828D01*
X-147248Y253500D01*
X-147904D01*
X-148232Y253828D01*
X-110700Y253900D02*
Y255868D01*
X-109716D01*
X-109388Y255540D01*
Y254884D01*
X-109716Y254556D01*
X-110700D01*
X-110044D02*
X-109388Y253900D01*
X-107748D02*
Y255868D01*
X-108732Y254884D01*
X-107420D01*
X-171900Y273000D02*
Y274968D01*
X-170916D01*
X-170588Y274640D01*
Y273984D01*
X-170916Y273656D01*
X-171900D01*
X-171244D02*
X-170588Y273000D01*
X-169932Y274640D02*
X-169604Y274968D01*
X-168948D01*
X-168620Y274640D01*
Y274312D01*
X-168948Y273984D01*
X-169276D01*
X-168948D01*
X-168620Y273656D01*
Y273328D01*
X-168948Y273000D01*
X-169604D01*
X-169932Y273328D01*
X-71600Y254200D02*
Y256168D01*
X-70616D01*
X-70288Y255840D01*
Y255184D01*
X-70616Y254856D01*
X-71600D01*
X-70944D02*
X-70288Y254200D01*
X-68320D02*
X-69632D01*
X-68320Y255512D01*
Y255840D01*
X-68648Y256168D01*
X-69304D01*
X-69632Y255840D01*
X-162400Y273000D02*
Y274968D01*
X-161416D01*
X-161088Y274640D01*
Y273984D01*
X-161416Y273656D01*
X-162400D01*
X-161744D02*
X-161088Y273000D01*
X-160432D02*
X-159776D01*
X-160104D01*
Y274968D01*
X-160432Y274640D01*
X-133400Y183500D02*
Y185468D01*
X-132416D01*
X-132088Y185140D01*
Y184484D01*
X-132416Y184156D01*
X-133400D01*
X-131432Y183500D02*
X-130776D01*
X-131104D01*
Y185468D01*
X-131432Y185140D01*
X-128480Y183500D02*
X-129792D01*
X-128480Y184812D01*
Y185140D01*
X-128808Y185468D01*
X-129464D01*
X-129792Y185140D01*
X-301300Y207900D02*
Y209868D01*
X-300316D01*
X-299988Y209540D01*
Y208884D01*
X-300316Y208556D01*
X-301300D01*
X-299332Y207900D02*
X-298676D01*
X-299004D01*
Y209868D01*
X-299332Y209540D01*
X-297692Y207900D02*
X-297036D01*
X-297364D01*
Y209868D01*
X-297692Y209540D01*
X-194300Y271900D02*
Y273868D01*
X-193316D01*
X-192988Y273540D01*
Y272884D01*
X-193316Y272556D01*
X-194300D01*
X-192332Y271900D02*
X-191676D01*
X-192004D01*
Y273868D01*
X-192332Y273540D01*
X-190692D02*
X-190364Y273868D01*
X-189708D01*
X-189380Y273540D01*
Y272228D01*
X-189708Y271900D01*
X-190364D01*
X-190692Y272228D01*
Y273540D01*
X-193500Y291600D02*
Y293568D01*
X-192516D01*
X-192188Y293240D01*
Y292584D01*
X-192516Y292256D01*
X-193500D01*
X-191532Y291928D02*
X-191204Y291600D01*
X-190548D01*
X-190220Y291928D01*
Y293240D01*
X-190548Y293568D01*
X-191204D01*
X-191532Y293240D01*
Y292912D01*
X-191204Y292584D01*
X-190220D01*
X-75400Y291600D02*
Y293568D01*
X-74416D01*
X-74088Y293240D01*
Y292584D01*
X-74416Y292256D01*
X-75400D01*
X-73432Y293240D02*
X-73104Y293568D01*
X-72448D01*
X-72120Y293240D01*
Y292912D01*
X-72448Y292584D01*
X-72120Y292256D01*
Y291928D01*
X-72448Y291600D01*
X-73104D01*
X-73432Y291928D01*
Y292256D01*
X-73104Y292584D01*
X-73432Y292912D01*
Y293240D01*
X-73104Y292584D02*
X-72448D01*
X-242900Y271900D02*
Y273868D01*
X-241916D01*
X-241588Y273540D01*
Y272884D01*
X-241916Y272556D01*
X-242900D01*
X-240932Y273868D02*
X-239620D01*
Y273540D01*
X-240932Y272228D01*
Y271900D01*
X-242900Y291600D02*
Y293568D01*
X-241916D01*
X-241588Y293240D01*
Y292584D01*
X-241916Y292256D01*
X-242900D01*
X-239620Y293568D02*
X-240276Y293240D01*
X-240932Y292584D01*
Y291928D01*
X-240604Y291600D01*
X-239948D01*
X-239620Y291928D01*
Y292256D01*
X-239948Y292584D01*
X-240932D01*
X-114800Y291600D02*
Y293568D01*
X-113816D01*
X-113488Y293240D01*
Y292584D01*
X-113816Y292256D01*
X-114800D01*
X-111520Y293568D02*
X-112832D01*
Y292584D01*
X-112176Y292912D01*
X-111848D01*
X-111520Y292584D01*
Y291928D01*
X-111848Y291600D01*
X-112504D01*
X-112832Y291928D01*
X-17400Y261900D02*
Y263868D01*
X-16416D01*
X-16088Y263540D01*
Y262884D01*
X-16416Y262556D01*
X-17400D01*
X-14448Y261900D02*
Y263868D01*
X-15432Y262884D01*
X-14120D01*
X-17400Y222600D02*
Y224568D01*
X-16416D01*
X-16088Y224240D01*
Y223584D01*
X-16416Y223256D01*
X-17400D01*
X-15432Y224240D02*
X-15104Y224568D01*
X-14448D01*
X-14120Y224240D01*
Y223912D01*
X-14448Y223584D01*
X-14776D01*
X-14448D01*
X-14120Y223256D01*
Y222928D01*
X-14448Y222600D01*
X-15104D01*
X-15432Y222928D01*
X-300900Y278800D02*
Y280768D01*
X-299916D01*
X-299588Y280440D01*
Y279784D01*
X-299916Y279456D01*
X-300900D01*
X-297620Y278800D02*
X-298932D01*
X-297620Y280112D01*
Y280440D01*
X-297948Y280768D01*
X-298604D01*
X-298932Y280440D01*
X-300500Y239400D02*
Y241368D01*
X-299516D01*
X-299188Y241040D01*
Y240384D01*
X-299516Y240056D01*
X-300500D01*
X-298532Y239400D02*
X-297876D01*
X-298204D01*
Y241368D01*
X-298532Y241040D01*
X-75900Y283768D02*
Y281800D01*
X-74916D01*
X-74588Y282128D01*
Y283440D01*
X-74916Y283768D01*
X-75900D01*
X-73932Y282128D02*
X-73604Y281800D01*
X-72948D01*
X-72620Y282128D01*
Y283440D01*
X-72948Y283768D01*
X-73604D01*
X-73932Y283440D01*
Y283112D01*
X-73604Y282784D01*
X-72620D01*
X-243000Y264068D02*
Y262100D01*
X-242016D01*
X-241688Y262428D01*
Y263740D01*
X-242016Y264068D01*
X-243000D01*
X-241032Y263740D02*
X-240704Y264068D01*
X-240048D01*
X-239720Y263740D01*
Y263412D01*
X-240048Y263084D01*
X-239720Y262756D01*
Y262428D01*
X-240048Y262100D01*
X-240704D01*
X-241032Y262428D01*
Y262756D01*
X-240704Y263084D01*
X-241032Y263412D01*
Y263740D01*
X-240704Y263084D02*
X-240048D01*
X-115600Y283368D02*
Y281400D01*
X-114616D01*
X-114288Y281728D01*
Y283040D01*
X-114616Y283368D01*
X-115600D01*
X-113632D02*
X-112320D01*
Y283040D01*
X-113632Y281728D01*
Y281400D01*
X-28100Y213868D02*
Y211900D01*
X-27116D01*
X-26788Y212228D01*
Y213540D01*
X-27116Y213868D01*
X-28100D01*
X-24820D02*
X-25476Y213540D01*
X-26132Y212884D01*
Y212228D01*
X-25804Y211900D01*
X-25148D01*
X-24820Y212228D01*
Y212556D01*
X-25148Y212884D01*
X-26132D01*
X-178400Y258168D02*
Y256200D01*
X-177416D01*
X-177088Y256528D01*
Y257840D01*
X-177416Y258168D01*
X-178400D01*
X-175120D02*
X-176432D01*
Y257184D01*
X-175776Y257512D01*
X-175448D01*
X-175120Y257184D01*
Y256528D01*
X-175448Y256200D01*
X-176104D01*
X-176432Y256528D01*
X-139000Y258168D02*
Y256200D01*
X-138016D01*
X-137688Y256528D01*
Y257840D01*
X-138016Y258168D01*
X-139000D01*
X-136048Y256200D02*
Y258168D01*
X-137032Y257184D01*
X-135720D01*
X-99700Y258168D02*
Y256200D01*
X-98716D01*
X-98388Y256528D01*
Y257840D01*
X-98716Y258168D01*
X-99700D01*
X-97732Y257840D02*
X-97404Y258168D01*
X-96748D01*
X-96420Y257840D01*
Y257512D01*
X-96748Y257184D01*
X-97076D01*
X-96748D01*
X-96420Y256856D01*
Y256528D01*
X-96748Y256200D01*
X-97404D01*
X-97732Y256528D01*
X-60300Y258168D02*
Y256200D01*
X-59316D01*
X-58988Y256528D01*
Y257840D01*
X-59316Y258168D01*
X-60300D01*
X-57020Y256200D02*
X-58332D01*
X-57020Y257512D01*
Y257840D01*
X-57348Y258168D01*
X-58004D01*
X-58332Y257840D01*
X-284900Y252768D02*
Y250800D01*
X-283916D01*
X-283588Y251128D01*
Y252440D01*
X-283916Y252768D01*
X-284900D01*
X-282932Y250800D02*
X-282276D01*
X-282604D01*
Y252768D01*
X-282932Y252440D01*
X-197388Y254040D02*
X-197716Y254368D01*
X-198372D01*
X-198700Y254040D01*
Y252728D01*
X-198372Y252400D01*
X-197716D01*
X-197388Y252728D01*
X-196732Y254368D02*
X-195420D01*
Y254040D01*
X-196732Y252728D01*
Y252400D01*
X-123688Y206140D02*
X-124016Y206468D01*
X-124672D01*
X-125000Y206140D01*
Y204828D01*
X-124672Y204500D01*
X-124016D01*
X-123688Y204828D01*
X-121720Y206468D02*
X-122376Y206140D01*
X-123032Y205484D01*
Y204828D01*
X-122704Y204500D01*
X-122048D01*
X-121720Y204828D01*
Y205156D01*
X-122048Y205484D01*
X-123032D01*
X-289088Y277640D02*
X-289416Y277968D01*
X-290072D01*
X-290400Y277640D01*
Y276328D01*
X-290072Y276000D01*
X-289416D01*
X-289088Y276328D01*
X-287120Y277968D02*
X-288432D01*
Y276984D01*
X-287776Y277312D01*
X-287448D01*
X-287120Y276984D01*
Y276328D01*
X-287448Y276000D01*
X-288104D01*
X-288432Y276328D01*
X-278288Y238040D02*
X-278616Y238368D01*
X-279272D01*
X-279600Y238040D01*
Y236728D01*
X-279272Y236400D01*
X-278616D01*
X-278288Y236728D01*
X-276648Y236400D02*
Y238368D01*
X-277632Y237384D01*
X-276320D01*
X-288988Y238040D02*
X-289316Y238368D01*
X-289972D01*
X-290300Y238040D01*
Y236728D01*
X-289972Y236400D01*
X-289316D01*
X-288988Y236728D01*
X-288332Y238040D02*
X-288004Y238368D01*
X-287348D01*
X-287020Y238040D01*
Y237712D01*
X-287348Y237384D01*
X-287676D01*
X-287348D01*
X-287020Y237056D01*
Y236728D01*
X-287348Y236400D01*
X-288004D01*
X-288332Y236728D01*
X-263488Y217540D02*
X-263816Y217868D01*
X-264472D01*
X-264800Y217540D01*
Y216228D01*
X-264472Y215900D01*
X-263816D01*
X-263488Y216228D01*
X-261520Y215900D02*
X-262832D01*
X-261520Y217212D01*
Y217540D01*
X-261848Y217868D01*
X-262504D01*
X-262832Y217540D01*
X-263288Y208440D02*
X-263616Y208768D01*
X-264272D01*
X-264600Y208440D01*
Y207128D01*
X-264272Y206800D01*
X-263616D01*
X-263288Y207128D01*
X-262632Y206800D02*
X-261976D01*
X-262304D01*
Y208768D01*
X-262632Y208440D01*
X-266100Y185100D02*
Y187068D01*
X-265116D01*
X-264788Y186740D01*
Y186084D01*
X-265116Y185756D01*
X-266100D01*
X-265444D02*
X-264788Y185100D01*
X-264132D02*
X-263476D01*
X-263804D01*
Y187068D01*
X-264132Y186740D01*
X-262492D02*
X-262164Y187068D01*
X-261508D01*
X-261180Y186740D01*
Y186412D01*
X-261508Y186084D01*
X-261180Y185756D01*
Y185428D01*
X-261508Y185100D01*
X-262164D01*
X-262492Y185428D01*
Y185756D01*
X-262164Y186084D01*
X-262492Y186412D01*
Y186740D01*
X-262164Y186084D02*
X-261508D01*
X-155000Y215168D02*
Y213528D01*
X-154672Y213200D01*
X-154016D01*
X-153688Y213528D01*
Y215168D01*
X-151720Y213200D02*
X-153032D01*
X-151720Y214512D01*
Y214840D01*
X-152048Y215168D01*
X-152704D01*
X-153032Y214840D01*
X-125700Y222100D02*
Y224068D01*
X-124716D01*
X-124388Y223740D01*
Y223084D01*
X-124716Y222756D01*
X-125700D01*
X-125044D02*
X-124388Y222100D01*
X-123732D02*
X-123076D01*
X-123404D01*
Y224068D01*
X-123732Y223740D01*
X-122092Y222428D02*
X-121764Y222100D01*
X-121108D01*
X-120780Y222428D01*
Y223740D01*
X-121108Y224068D01*
X-121764D01*
X-122092Y223740D01*
Y223412D01*
X-121764Y223084D01*
X-120780D01*
X-38400Y230100D02*
Y232068D01*
X-37416D01*
X-37088Y231740D01*
Y231084D01*
X-37416Y230756D01*
X-38400D01*
X-37744D02*
X-37088Y230100D01*
X-35120D02*
X-36432D01*
X-35120Y231412D01*
Y231740D01*
X-35448Y232068D01*
X-36104D01*
X-36432Y231740D01*
X-34464D02*
X-34136Y232068D01*
X-33480D01*
X-33152Y231740D01*
Y230428D01*
X-33480Y230100D01*
X-34136D01*
X-34464Y230428D01*
Y231740D01*
X-47300Y230100D02*
Y232068D01*
X-46316D01*
X-45988Y231740D01*
Y231084D01*
X-46316Y230756D01*
X-47300D01*
X-46644D02*
X-45988Y230100D01*
X-44020D02*
X-45332D01*
X-44020Y231412D01*
Y231740D01*
X-44348Y232068D01*
X-45004D01*
X-45332Y231740D01*
X-43364Y230100D02*
X-42708D01*
X-43036D01*
Y232068D01*
X-43364Y231740D01*
X-244369Y198805D02*
Y196837D01*
X-243712Y196181D01*
X-243057Y196837D01*
X-242401Y196181D01*
X-241745Y196837D01*
Y198805D01*
X-240433D02*
Y196837D01*
X-239777Y196181D01*
X-239121Y196837D01*
X-238465Y196181D01*
X-237809Y196837D01*
Y198805D01*
X-236497D02*
Y196837D01*
X-235841Y196181D01*
X-235185Y196837D01*
X-234529Y196181D01*
X-233873Y196837D01*
Y198805D01*
X-232561Y196181D02*
Y196837D01*
X-231905D01*
Y196181D01*
X-232561D01*
X-226658Y200117D02*
Y196181D01*
X-228625D01*
X-229281Y196837D01*
Y198149D01*
X-228625Y198805D01*
X-226658D01*
X-225346Y196181D02*
X-224034D01*
X-224690D01*
Y198805D01*
X-225346D01*
X-221410D02*
X-220098D01*
X-219442Y198149D01*
Y196181D01*
X-221410D01*
X-222066Y196837D01*
X-221410Y197493D01*
X-219442D01*
X-218130Y194869D02*
Y198805D01*
X-216162D01*
X-215506Y198149D01*
Y196837D01*
X-216162Y196181D01*
X-218130D01*
X-214194Y198805D02*
Y196181D01*
Y197493D01*
X-213539Y198149D01*
X-212883Y198805D01*
X-212227D01*
X-209603Y196181D02*
X-208291D01*
X-207635Y196837D01*
Y198149D01*
X-208291Y198805D01*
X-209603D01*
X-210259Y198149D01*
Y196837D01*
X-209603Y196181D01*
X-206323D02*
Y196837D01*
X-205667D01*
Y196181D01*
X-206323D01*
X-203043Y200117D02*
Y196181D01*
Y198149D01*
X-202387Y198805D01*
X-201075D01*
X-200419Y198149D01*
Y196181D01*
X-199108Y198805D02*
Y196837D01*
X-198451Y196181D01*
X-196484D01*
Y198805D01*
X-238334Y192007D02*
Y188072D01*
X-236366D01*
X-235710Y188728D01*
Y191351D01*
X-236366Y192007D01*
X-238334D01*
X-234398Y188072D02*
X-233086D01*
X-233742D01*
Y190696D01*
X-234398D01*
X-230462D02*
X-229151D01*
X-228495Y190040D01*
Y188072D01*
X-230462D01*
X-231118Y188728D01*
X-230462Y189384D01*
X-228495D01*
X-227183Y186760D02*
Y190696D01*
X-225215D01*
X-224559Y190040D01*
Y188728D01*
X-225215Y188072D01*
X-227183D01*
X-223247Y190696D02*
Y188072D01*
Y189384D01*
X-222591Y190040D01*
X-221935Y190696D01*
X-221279D01*
X-218655Y188072D02*
X-217343D01*
X-216687Y188728D01*
Y190040D01*
X-217343Y190696D01*
X-218655D01*
X-219311Y190040D01*
Y188728D01*
X-218655Y188072D01*
X-211440Y192007D02*
Y188072D01*
Y189384D01*
X-208816Y192007D01*
X-210784Y190040D01*
X-208816Y188072D01*
X-206848D02*
Y191351D01*
Y190040D01*
X-207504D01*
X-206192D01*
X-206848D01*
Y191351D01*
X-206192Y192007D01*
X-203568Y191351D02*
Y190696D01*
X-204224D01*
X-202912D01*
X-203568D01*
Y188728D01*
X-202912Y188072D01*
X-200944D02*
Y188728D01*
X-200288D01*
Y188072D01*
X-200944D01*
X-102034Y222072D02*
Y224695D01*
X-100722Y226007D01*
X-99410Y224695D01*
Y222072D01*
Y224040D01*
X-102034D01*
X-95474Y225351D02*
X-96130Y226007D01*
X-97442D01*
X-98098Y225351D01*
Y224695D01*
X-97442Y224040D01*
X-96130D01*
X-95474Y223384D01*
Y222728D01*
X-96130Y222072D01*
X-97442D01*
X-98098Y222728D01*
X-94162Y222072D02*
Y226007D01*
X-92194D01*
X-91539Y225351D01*
Y224040D01*
X-92194Y223384D01*
X-94162D01*
X-86291Y226007D02*
Y222072D01*
X-83667D01*
X-79731Y226007D02*
X-82355D01*
Y222072D01*
X-79731D01*
X-82355Y224040D02*
X-81043D01*
X-78419Y226007D02*
Y222072D01*
X-76451D01*
X-75796Y222728D01*
Y225351D01*
X-76451Y226007D01*
X-78419D01*
X-74484D02*
Y222072D01*
X-72516D01*
X-71860Y222728D01*
Y223384D01*
X-72516Y224040D01*
X-74484D01*
X-72516D01*
X-71860Y224695D01*
Y225351D01*
X-72516Y226007D01*
X-74484D01*
X-69892Y222072D02*
X-68580D01*
X-67924Y222728D01*
Y224040D01*
X-68580Y224695D01*
X-69892D01*
X-70548Y224040D01*
Y222728D01*
X-69892Y222072D01*
X-65956Y224695D02*
X-64644D01*
X-63988Y224040D01*
Y222072D01*
X-65956D01*
X-66612Y222728D01*
X-65956Y223384D01*
X-63988D01*
X-62677Y224695D02*
Y222072D01*
Y223384D01*
X-62020Y224040D01*
X-61365Y224695D01*
X-60709D01*
X-56117Y226007D02*
Y222072D01*
X-58085D01*
X-58741Y222728D01*
Y224040D01*
X-58085Y224695D01*
X-56117D01*
X-107634Y215507D02*
Y212884D01*
X-106322Y211572D01*
X-105010Y212884D01*
Y215507D01*
X-103698Y211572D02*
X-102386D01*
X-103042D01*
Y215507D01*
X-103698Y214851D01*
X-100418Y211572D02*
Y212228D01*
X-99762D01*
Y211572D01*
X-100418D01*
X-97139Y214851D02*
X-96483Y215507D01*
X-95171D01*
X-94515Y214851D01*
Y212228D01*
X-95171Y211572D01*
X-96483D01*
X-97139Y212228D01*
Y214851D01*
D33*
X-130961Y226649D02*
G03*
X-130961Y226649I-492J0D01*
G01*
D34*
X-267049Y235819D02*
G03*
X-267049Y235819I-1181J0D01*
G01*
X-180315Y243398D02*
X-173228D01*
X-140945D02*
X-133858D01*
X-101575D02*
X-94488D01*
X-62205D02*
X-55118D01*
M02*
