%FSLAX25Y25*%
%MOIN*%
G70*
G01*
G75*
G04 Layer_Physical_Order=2*
G04 Layer_Color=16711680*
%ADD10R,0.04921X0.06299*%
%ADD11R,0.05118X0.03937*%
%ADD12R,0.03937X0.05118*%
%ADD13R,0.07284X0.04724*%
%ADD14O,0.02362X0.08661*%
%ADD15R,0.02362X0.08661*%
%ADD16R,0.04724X0.02559*%
%ADD17R,0.02362X0.09449*%
%ADD18O,0.02362X0.09449*%
%ADD19R,0.06299X0.04921*%
G04:AMPARAMS|DCode=20|XSize=157.48mil|YSize=59.06mil|CornerRadius=14.76mil|HoleSize=0mil|Usage=FLASHONLY|Rotation=0.000|XOffset=0mil|YOffset=0mil|HoleType=Round|Shape=RoundedRectangle|*
%AMROUNDEDRECTD20*
21,1,0.15748,0.02953,0,0,0.0*
21,1,0.12795,0.05906,0,0,0.0*
1,1,0.02953,0.06398,-0.01476*
1,1,0.02953,-0.06398,-0.01476*
1,1,0.02953,-0.06398,0.01476*
1,1,0.02953,0.06398,0.01476*
%
%ADD20ROUNDEDRECTD20*%
G04:AMPARAMS|DCode=21|XSize=157.48mil|YSize=59.06mil|CornerRadius=14.76mil|HoleSize=0mil|Usage=FLASHONLY|Rotation=90.000|XOffset=0mil|YOffset=0mil|HoleType=Round|Shape=RoundedRectangle|*
%AMROUNDEDRECTD21*
21,1,0.15748,0.02953,0,0,90.0*
21,1,0.12795,0.05906,0,0,90.0*
1,1,0.02953,0.01476,0.06398*
1,1,0.02953,0.01476,-0.06398*
1,1,0.02953,-0.01476,-0.06398*
1,1,0.02953,-0.01476,0.06398*
%
%ADD21ROUNDEDRECTD21*%
%ADD22C,0.01000*%
%ADD23C,0.01200*%
%ADD24C,0.02000*%
%ADD25C,0.03937*%
%ADD26C,0.00394*%
G04:AMPARAMS|DCode=27|XSize=78.74mil|YSize=60mil|CornerRadius=0mil|HoleSize=0mil|Usage=FLASHONLY|Rotation=0.000|XOffset=0mil|YOffset=0mil|HoleType=Round|Shape=Octagon|*
%AMOCTAGOND27*
4,1,8,0.03937,-0.01500,0.03937,0.01500,0.02437,0.03000,-0.02437,0.03000,-0.03937,0.01500,-0.03937,-0.01500,-0.02437,-0.03000,0.02437,-0.03000,0.03937,-0.01500,0.0*
%
%ADD27OCTAGOND27*%

%ADD28R,0.05906X0.05906*%
%ADD29C,0.05906*%
%ADD30R,0.05906X0.05906*%
%ADD31C,0.06000*%
%ADD32C,0.05000*%
G36*
X-1631Y176131D02*
X-98308D01*
X-98500Y176593D01*
X-56924Y218169D01*
X-48413D01*
X-48357Y218035D01*
X-47796Y217304D01*
X-47065Y216743D01*
X-46214Y216390D01*
X-45300Y216270D01*
X-44386Y216390D01*
X-43535Y216743D01*
X-42804Y217304D01*
X-42243Y218035D01*
X-41890Y218886D01*
X-41770Y219800D01*
X-41890Y220714D01*
X-42243Y221565D01*
X-42804Y222296D01*
X-43535Y222857D01*
X-44386Y223210D01*
X-45300Y223330D01*
X-46214Y223210D01*
X-47065Y222857D01*
X-47796Y222296D01*
X-48357Y221565D01*
X-48413Y221431D01*
X-57600D01*
X-57600Y221431D01*
X-58224Y221307D01*
X-58754Y220953D01*
X-100676Y179031D01*
X-133424D01*
X-134269Y179876D01*
Y180897D01*
X-133907Y181047D01*
X-133081Y181681D01*
X-132447Y182507D01*
X-132049Y183468D01*
X-131913Y184500D01*
X-132049Y185532D01*
X-132447Y186493D01*
X-133081Y187319D01*
X-133907Y187953D01*
X-134868Y188351D01*
X-135900Y188487D01*
X-136932Y188351D01*
X-137893Y187953D01*
X-138719Y187319D01*
X-139353Y186493D01*
X-139751Y185532D01*
X-139887Y184500D01*
X-139751Y183468D01*
X-139353Y182507D01*
X-138719Y181681D01*
X-137893Y181047D01*
X-137531Y180897D01*
Y179200D01*
X-137407Y178576D01*
X-137054Y178047D01*
X-135600Y176593D01*
X-135792Y176131D01*
X-313329D01*
Y310664D01*
X-293891D01*
X-293731Y310191D01*
X-294217Y309817D01*
X-309783Y294251D01*
X-310259Y293631D01*
X-310471Y293120D01*
X-310558Y292909D01*
X-310660Y292134D01*
Y249066D01*
X-310558Y248291D01*
X-310471Y248080D01*
X-310259Y247569D01*
X-309783Y246949D01*
X-306083Y243249D01*
X-305463Y242773D01*
X-305164Y242649D01*
X-304741Y242474D01*
X-303966Y242372D01*
X-303165D01*
Y241413D01*
X-295260D01*
Y249319D01*
X-303165D01*
X-303165Y249319D01*
Y249319D01*
X-303533Y249167D01*
X-304672Y250306D01*
Y290894D01*
X-290860Y304706D01*
X-239215D01*
Y296563D01*
X-240173D01*
Y288657D01*
X-232268D01*
Y296563D01*
X-233226D01*
Y304706D01*
X-121104D01*
Y296563D01*
X-122063D01*
Y288657D01*
X-114157D01*
Y296563D01*
X-115116D01*
Y304706D01*
X-89340D01*
X-82694Y298060D01*
Y293570D01*
X-82693Y293561D01*
Y288657D01*
X-74787D01*
Y296563D01*
X-76706D01*
Y299300D01*
X-76808Y300075D01*
X-76957Y300436D01*
X-77107Y300797D01*
X-77583Y301417D01*
X-85983Y309817D01*
X-86603Y310293D01*
X-87114Y310505D01*
X-87263Y310566D01*
Y310566D01*
X-87263Y310566D01*
X-87325Y310592D01*
Y310592D01*
X-87320Y310664D01*
X-1631D01*
Y176131D01*
D02*
G37*
%LPC*%
G36*
X-299713Y239287D02*
X-300244Y239217D01*
X-301206Y238819D01*
X-302032Y238185D01*
X-302665Y237360D01*
X-303064Y236398D01*
X-303134Y235866D01*
X-299713D01*
Y239287D01*
D02*
G37*
G36*
X-298713D02*
Y235866D01*
X-295292D01*
X-295362Y236398D01*
X-295760Y237360D01*
X-296393Y238185D01*
X-297219Y238819D01*
X-298181Y239217D01*
X-298713Y239287D01*
D02*
G37*
G36*
X-295292Y234866D02*
X-298713D01*
Y231445D01*
X-298181Y231515D01*
X-297219Y231913D01*
X-296393Y232547D01*
X-295760Y233373D01*
X-295362Y234334D01*
X-295292Y234866D01*
D02*
G37*
G36*
X-15748Y256912D02*
X-16780Y256776D01*
X-17741Y256378D01*
X-18567Y255744D01*
X-19201Y254919D01*
X-19599Y253957D01*
X-19735Y252925D01*
X-19599Y251893D01*
X-19201Y250932D01*
X-18567Y250106D01*
X-17741Y249472D01*
X-16780Y249074D01*
X-15748Y248938D01*
X-14716Y249074D01*
X-13755Y249472D01*
X-12929Y250106D01*
X-12295Y250932D01*
X-12145Y251294D01*
X-8401D01*
X-6331Y249224D01*
Y219576D01*
X-10721Y215187D01*
X-12145D01*
X-12295Y215548D01*
X-12929Y216374D01*
X-13755Y217008D01*
X-14716Y217406D01*
X-15748Y217542D01*
X-16780Y217406D01*
X-17741Y217008D01*
X-18567Y216374D01*
X-19201Y215548D01*
X-19599Y214587D01*
X-19735Y213555D01*
X-19599Y212523D01*
X-19201Y211562D01*
X-18567Y210736D01*
X-17741Y210102D01*
X-16780Y209704D01*
X-15748Y209568D01*
X-14716Y209704D01*
X-13755Y210102D01*
X-12929Y210736D01*
X-12295Y211562D01*
X-12145Y211924D01*
X-10045D01*
X-9421Y212048D01*
X-8891Y212402D01*
X-3546Y217746D01*
X-3193Y218276D01*
X-3069Y218900D01*
X-3069Y218900D01*
X-3069Y218900D01*
Y218900D01*
Y249900D01*
X-3193Y250524D01*
X-3546Y251054D01*
X-6572Y254079D01*
X-7101Y254432D01*
X-7725Y254557D01*
X-12145D01*
X-12295Y254919D01*
X-12929Y255744D01*
X-13755Y256378D01*
X-14716Y256776D01*
X-15748Y256912D01*
D02*
G37*
G36*
X-299713Y234866D02*
X-303134D01*
X-303064Y234334D01*
X-302665Y233373D01*
X-302032Y232547D01*
X-301206Y231913D01*
X-300244Y231515D01*
X-299713Y231445D01*
Y234866D01*
D02*
G37*
G36*
X-174871Y258839D02*
X-178808Y258791D01*
X-180249Y258583D01*
X-181586Y258010D01*
X-182730Y257110D01*
X-183602Y255944D01*
X-184142Y254593D01*
X-184315Y253148D01*
X-184107Y251708D01*
X-183534Y250370D01*
X-182634Y249226D01*
X-181468Y248354D01*
X-180117Y247814D01*
X-178672Y247641D01*
X-174735Y247689D01*
X-173295Y247897D01*
X-171957Y248470D01*
X-170813Y249370D01*
X-169941Y250536D01*
X-169401Y251887D01*
X-169228Y253332D01*
X-169436Y254773D01*
X-170009Y256111D01*
X-170909Y257254D01*
X-172075Y258126D01*
X-173426Y258667D01*
X-174871Y258839D01*
D02*
G37*
G36*
X-96131D02*
X-100068Y258791D01*
X-101508Y258583D01*
X-102846Y258010D01*
X-103990Y257110D01*
X-104862Y255944D01*
X-105402Y254593D01*
X-105575Y253148D01*
X-105367Y251708D01*
X-104794Y250370D01*
X-103894Y249226D01*
X-102728Y248354D01*
X-101377Y247814D01*
X-99932Y247641D01*
X-95995Y247689D01*
X-94821Y247859D01*
X-94597Y247411D01*
X-97077Y244931D01*
X-133400D01*
X-134024Y244807D01*
X-134554Y244454D01*
X-142353Y236653D01*
X-142707Y236124D01*
X-142831Y235500D01*
Y225513D01*
X-142965Y225457D01*
X-143696Y224896D01*
X-144257Y224165D01*
X-144610Y223314D01*
X-144730Y222400D01*
X-144610Y221486D01*
X-144257Y220635D01*
X-143696Y219904D01*
X-142965Y219343D01*
X-142114Y218990D01*
X-141200Y218870D01*
X-140286Y218990D01*
X-139435Y219343D01*
X-138704Y219904D01*
X-138143Y220635D01*
X-137790Y221486D01*
X-137670Y222400D01*
X-137790Y223314D01*
X-138143Y224165D01*
X-138704Y224896D01*
X-139435Y225457D01*
X-139569Y225513D01*
Y234824D01*
X-132724Y241669D01*
X-96402D01*
X-95777Y241793D01*
X-95248Y242146D01*
X-95248Y242146D01*
X-95248Y242146D01*
X-87626Y249769D01*
X-82513D01*
X-82457Y249635D01*
X-81896Y248904D01*
X-81165Y248343D01*
X-80314Y247990D01*
X-79400Y247870D01*
X-78486Y247990D01*
X-77635Y248343D01*
X-76904Y248904D01*
X-76343Y249635D01*
X-75990Y250486D01*
X-75870Y251400D01*
X-75990Y252314D01*
X-76343Y253165D01*
X-76904Y253896D01*
X-77635Y254457D01*
X-78486Y254810D01*
X-79400Y254930D01*
X-80314Y254810D01*
X-81165Y254457D01*
X-81896Y253896D01*
X-82457Y253165D01*
X-82513Y253031D01*
X-88301D01*
X-88926Y252907D01*
X-89455Y252554D01*
X-90193Y251815D01*
X-90643Y252034D01*
X-90488Y253332D01*
X-90696Y254773D01*
X-91269Y256111D01*
X-92169Y257254D01*
X-93335Y258126D01*
X-94686Y258667D01*
X-96131Y258839D01*
D02*
G37*
G36*
X-11795Y276878D02*
X-19701D01*
Y269906D01*
X-43953Y245655D01*
X-44086Y245710D01*
X-45000Y245830D01*
X-45914Y245710D01*
X-46765Y245357D01*
X-47496Y244796D01*
X-48057Y244065D01*
X-48410Y243214D01*
X-48530Y242300D01*
X-48410Y241386D01*
X-48057Y240535D01*
X-47496Y239804D01*
X-46765Y239243D01*
X-45914Y238890D01*
X-45000Y238770D01*
X-44086Y238890D01*
X-43235Y239243D01*
X-42504Y239804D01*
X-41943Y240535D01*
X-41590Y241386D01*
X-41470Y242300D01*
X-41590Y243214D01*
X-41646Y243347D01*
X-19023Y265970D01*
X-18647Y265640D01*
Y265640D01*
X-18647D01*
X-19201Y264919D01*
X-19599Y263957D01*
X-19735Y262925D01*
X-19599Y261893D01*
X-19486Y261621D01*
X-25453Y255654D01*
X-25807Y255124D01*
X-25931Y254500D01*
Y233531D01*
X-67400D01*
X-68024Y233407D01*
X-68554Y233053D01*
X-98376Y203231D01*
X-112487D01*
X-112543Y203365D01*
X-113104Y204096D01*
X-113835Y204657D01*
X-114686Y205010D01*
X-115600Y205130D01*
X-116514Y205010D01*
X-117365Y204657D01*
X-118096Y204096D01*
X-118657Y203365D01*
X-119010Y202514D01*
X-119130Y201600D01*
X-119010Y200686D01*
X-118657Y199835D01*
X-118096Y199104D01*
X-117365Y198543D01*
X-116514Y198190D01*
X-115600Y198070D01*
X-114686Y198190D01*
X-113835Y198543D01*
X-113104Y199104D01*
X-112543Y199835D01*
X-112487Y199969D01*
X-107531D01*
Y188453D01*
X-109853D01*
Y180547D01*
X-101947D01*
Y188453D01*
X-104269D01*
Y199969D01*
X-97700D01*
X-97076Y200093D01*
X-96547Y200447D01*
X-96547Y200447D01*
X-96547Y200447D01*
X-66724Y230269D01*
X-24769D01*
X-19449Y224949D01*
X-19599Y224587D01*
X-19735Y223555D01*
X-19599Y222523D01*
X-19201Y221562D01*
X-18567Y220736D01*
X-17741Y220102D01*
X-16780Y219704D01*
X-15748Y219568D01*
X-14716Y219704D01*
X-13755Y220102D01*
X-12929Y220736D01*
X-12295Y221562D01*
X-11897Y222523D01*
X-11761Y223555D01*
X-11897Y224587D01*
X-12295Y225549D01*
X-12929Y226374D01*
X-13755Y227008D01*
X-14716Y227406D01*
X-15748Y227542D01*
X-16780Y227406D01*
X-17142Y227256D01*
X-19026Y229140D01*
X-18835Y229602D01*
X-11795D01*
Y237508D01*
X-19701D01*
Y230468D01*
X-20163Y230277D01*
X-22669Y232783D01*
Y253824D01*
X-17232Y259261D01*
X-16780Y259074D01*
X-15748Y258938D01*
X-14716Y259074D01*
X-13755Y259472D01*
X-12929Y260106D01*
X-12295Y260932D01*
X-11897Y261893D01*
X-11761Y262925D01*
X-11897Y263957D01*
X-12295Y264919D01*
X-12929Y265744D01*
X-13755Y266378D01*
X-14716Y266776D01*
X-15748Y266912D01*
X-16780Y266776D01*
X-17741Y266378D01*
X-18463Y265824D01*
X-18740Y266139D01*
X-18793Y266200D01*
X-16021Y268972D01*
X-11795D01*
Y276878D01*
D02*
G37*
G36*
X-56761Y258839D02*
X-60698Y258791D01*
X-62138Y258583D01*
X-63476Y258010D01*
X-64620Y257110D01*
X-65492Y255944D01*
X-66032Y254593D01*
X-66205Y253148D01*
X-65997Y251708D01*
X-65424Y250370D01*
X-64524Y249226D01*
X-63358Y248354D01*
X-62007Y247814D01*
X-60562Y247641D01*
X-56625Y247689D01*
X-55184Y247897D01*
X-53847Y248470D01*
X-52703Y249370D01*
X-51831Y250536D01*
X-51291Y251887D01*
X-51118Y253332D01*
X-51326Y254773D01*
X-51899Y256111D01*
X-52799Y257254D01*
X-53965Y258126D01*
X-55316Y258667D01*
X-56761Y258839D01*
D02*
G37*
G36*
X-265900Y300831D02*
X-281000D01*
X-281624Y300707D01*
X-282154Y300354D01*
X-288953Y293553D01*
X-289307Y293024D01*
X-289431Y292400D01*
Y291513D01*
X-289565Y291457D01*
X-290296Y290896D01*
X-290857Y290165D01*
X-291210Y289314D01*
X-291330Y288400D01*
X-291210Y287486D01*
X-290857Y286635D01*
X-290296Y285904D01*
X-289565Y285343D01*
X-289431Y285287D01*
Y229000D01*
X-289431Y229000D01*
X-289431D01*
X-289307Y228376D01*
X-288953Y227847D01*
X-278184Y217077D01*
X-278210Y217014D01*
X-278330Y216100D01*
X-278210Y215186D01*
X-277857Y214335D01*
X-277296Y213604D01*
X-276565Y213043D01*
X-275714Y212690D01*
X-274800Y212570D01*
X-273886Y212690D01*
X-273035Y213043D01*
X-272304Y213604D01*
X-271743Y214335D01*
X-271390Y215186D01*
X-271270Y216100D01*
X-271390Y217014D01*
X-271743Y217865D01*
X-272304Y218596D01*
X-273035Y219157D01*
X-273886Y219510D01*
X-274800Y219630D01*
X-275714Y219510D01*
X-275918Y219425D01*
X-286169Y229676D01*
Y285287D01*
X-286035Y285343D01*
X-285304Y285904D01*
X-284743Y286635D01*
X-284390Y287486D01*
X-284270Y288400D01*
X-284390Y289314D01*
X-284743Y290165D01*
X-285304Y290896D01*
X-286035Y291457D01*
X-286169Y291513D01*
Y291724D01*
X-280324Y297569D01*
X-266576D01*
X-249753Y280747D01*
X-249753D01*
X-249753Y280747D01*
X-249753Y280746D01*
Y280747D01*
X-249224Y280393D01*
X-248600Y280269D01*
X-224176D01*
X-210255Y266347D01*
X-210310Y266214D01*
X-210430Y265300D01*
X-210310Y264386D01*
X-209957Y263535D01*
X-209396Y262804D01*
X-208665Y262243D01*
X-207814Y261890D01*
X-206900Y261770D01*
X-205986Y261890D01*
X-205135Y262243D01*
X-204404Y262804D01*
X-203843Y263535D01*
X-203490Y264386D01*
X-203370Y265300D01*
X-203490Y266214D01*
X-203843Y267065D01*
X-204404Y267796D01*
X-205135Y268357D01*
X-205986Y268710D01*
X-206900Y268830D01*
X-207814Y268710D01*
X-207947Y268654D01*
X-222346Y283053D01*
X-222876Y283407D01*
X-223500Y283531D01*
X-247924D01*
X-264746Y300354D01*
X-265276Y300707D01*
X-265900Y300831D01*
D02*
G37*
G36*
X-135501Y258839D02*
X-139438Y258791D01*
X-140879Y258583D01*
X-142216Y258010D01*
X-143360Y257110D01*
X-144232Y255944D01*
X-144772Y254593D01*
X-144945Y253148D01*
X-144737Y251708D01*
X-144164Y250370D01*
X-143264Y249226D01*
X-142098Y248354D01*
X-140747Y247814D01*
X-139302Y247641D01*
X-135365Y247689D01*
X-133924Y247897D01*
X-132587Y248470D01*
X-131443Y249370D01*
X-130571Y250536D01*
X-130031Y251887D01*
X-129858Y253332D01*
X-130066Y254773D01*
X-130639Y256111D01*
X-131539Y257254D01*
X-132705Y258126D01*
X-134056Y258667D01*
X-135501Y258839D01*
D02*
G37*
G36*
X-124500Y237530D02*
X-125414Y237410D01*
X-126265Y237057D01*
X-126996Y236496D01*
X-127557Y235765D01*
X-127910Y234914D01*
X-128030Y234000D01*
X-127910Y233086D01*
X-127557Y232235D01*
X-126996Y231504D01*
X-126265Y230943D01*
X-126131Y230887D01*
Y192200D01*
X-126131Y192200D01*
X-126131D01*
X-126007Y191576D01*
X-125654Y191047D01*
X-119796Y185189D01*
X-119887Y184500D01*
X-119751Y183468D01*
X-119353Y182507D01*
X-118719Y181681D01*
X-117893Y181047D01*
X-116932Y180649D01*
X-115900Y180513D01*
X-114868Y180649D01*
X-113907Y181047D01*
X-113081Y181681D01*
X-112447Y182507D01*
X-112049Y183468D01*
X-111913Y184500D01*
X-112049Y185532D01*
X-112447Y186493D01*
X-113081Y187319D01*
X-113907Y187953D01*
X-114868Y188351D01*
X-115900Y188487D01*
X-116932Y188351D01*
X-117893Y187953D01*
X-117923Y187930D01*
X-122869Y192876D01*
Y230887D01*
X-122735Y230943D01*
X-122004Y231504D01*
X-121443Y232235D01*
X-121090Y233086D01*
X-120970Y234000D01*
X-121090Y234914D01*
X-121443Y235765D01*
X-122004Y236496D01*
X-122735Y237057D01*
X-123586Y237410D01*
X-124500Y237530D01*
D02*
G37*
G36*
X-156400Y184000D02*
X-159821D01*
X-159751Y183468D01*
X-159353Y182507D01*
X-158719Y181681D01*
X-157893Y181047D01*
X-156932Y180649D01*
X-156400Y180579D01*
Y184000D01*
D02*
G37*
G36*
X-125900Y188487D02*
X-126932Y188351D01*
X-127893Y187953D01*
X-128719Y187319D01*
X-129353Y186493D01*
X-129751Y185532D01*
X-129887Y184500D01*
X-129751Y183468D01*
X-129353Y182507D01*
X-128719Y181681D01*
X-127893Y181047D01*
X-126932Y180649D01*
X-125900Y180513D01*
X-124868Y180649D01*
X-123907Y181047D01*
X-123081Y181681D01*
X-122447Y182507D01*
X-122049Y183468D01*
X-121913Y184500D01*
X-122049Y185532D01*
X-122447Y186493D01*
X-123081Y187319D01*
X-123907Y187953D01*
X-124868Y188351D01*
X-125900Y188487D01*
D02*
G37*
G36*
X-301181Y197592D02*
X-302998Y197413D01*
X-304745Y196883D01*
X-306355Y196023D01*
X-307766Y194864D01*
X-308924Y193453D01*
X-309785Y191843D01*
X-310315Y190096D01*
X-310494Y188279D01*
X-310315Y186463D01*
X-309785Y184716D01*
X-308924Y183106D01*
X-307766Y181695D01*
X-306355Y180536D01*
X-304745Y179676D01*
X-302998Y179146D01*
X-301181Y178967D01*
X-299364Y179146D01*
X-297617Y179676D01*
X-296007Y180536D01*
X-294596Y181695D01*
X-293438Y183106D01*
X-292577Y184716D01*
X-292048Y186463D01*
X-291869Y188279D01*
X-292048Y190096D01*
X-292577Y191843D01*
X-293438Y193453D01*
X-294596Y194864D01*
X-296007Y196023D01*
X-297617Y196883D01*
X-299364Y197413D01*
X-301181Y197592D01*
D02*
G37*
G36*
X-145900Y188487D02*
X-146932Y188351D01*
X-147893Y187953D01*
X-148719Y187319D01*
X-149353Y186493D01*
X-149751Y185532D01*
X-149887Y184500D01*
X-149751Y183468D01*
X-149353Y182507D01*
X-148719Y181681D01*
X-147893Y181047D01*
X-146932Y180649D01*
X-145900Y180513D01*
X-144868Y180649D01*
X-143907Y181047D01*
X-143081Y181681D01*
X-142447Y182507D01*
X-142049Y183468D01*
X-141913Y184500D01*
X-142049Y185532D01*
X-142447Y186493D01*
X-143081Y187319D01*
X-143907Y187953D01*
X-144868Y188351D01*
X-145900Y188487D01*
D02*
G37*
G36*
X-151979Y184000D02*
X-155400D01*
Y180579D01*
X-154868Y180649D01*
X-153907Y181047D01*
X-153081Y181681D01*
X-152447Y182507D01*
X-152049Y183468D01*
X-151979Y184000D01*
D02*
G37*
G36*
X-226400Y222230D02*
X-227314Y222110D01*
X-228165Y221757D01*
X-228896Y221196D01*
X-229457Y220465D01*
X-229810Y219614D01*
X-229930Y218700D01*
X-229810Y217786D01*
X-229457Y216935D01*
X-228896Y216204D01*
X-228165Y215643D01*
X-227314Y215290D01*
X-226400Y215170D01*
X-225761Y215254D01*
X-213653Y203147D01*
X-213124Y202793D01*
X-212500Y202669D01*
X-186713D01*
X-186657Y202535D01*
X-186096Y201804D01*
X-185365Y201243D01*
X-184514Y200890D01*
X-183600Y200770D01*
X-182686Y200890D01*
X-181835Y201243D01*
X-181104Y201804D01*
X-180543Y202535D01*
X-180190Y203386D01*
X-180166Y203565D01*
X-180093Y203676D01*
X-179969Y204300D01*
X-180093Y204924D01*
X-180166Y205035D01*
X-180190Y205214D01*
X-180543Y206065D01*
X-181104Y206796D01*
X-181835Y207357D01*
X-182686Y207710D01*
X-183600Y207830D01*
X-184514Y207710D01*
X-185365Y207357D01*
X-186096Y206796D01*
X-186657Y206065D01*
X-186713Y205931D01*
X-211824D01*
X-223192Y217299D01*
X-222990Y217786D01*
X-222870Y218700D01*
X-222990Y219614D01*
X-223343Y220465D01*
X-223904Y221196D01*
X-224635Y221757D01*
X-225486Y222110D01*
X-226400Y222230D01*
D02*
G37*
G36*
X-295260Y217823D02*
X-303165D01*
Y209917D01*
X-295260D01*
Y217823D01*
D02*
G37*
G36*
X-299213Y207857D02*
X-300244Y207721D01*
X-301206Y207323D01*
X-302032Y206689D01*
X-302665Y205863D01*
X-303064Y204902D01*
X-303200Y203870D01*
X-303064Y202838D01*
X-302665Y201877D01*
X-302032Y201051D01*
X-301206Y200417D01*
X-300244Y200019D01*
X-299213Y199883D01*
X-298181Y200019D01*
X-297219Y200417D01*
X-296393Y201051D01*
X-295760Y201877D01*
X-295362Y202838D01*
X-295226Y203870D01*
X-295362Y204902D01*
X-295760Y205863D01*
X-296393Y206689D01*
X-297219Y207323D01*
X-298181Y207721D01*
X-299213Y207857D01*
D02*
G37*
G36*
X-156400Y188421D02*
X-156932Y188351D01*
X-157893Y187953D01*
X-158719Y187319D01*
X-159353Y186493D01*
X-159751Y185532D01*
X-159821Y185000D01*
X-156400D01*
Y188421D01*
D02*
G37*
G36*
X-155400D02*
Y185000D01*
X-151979D01*
X-152049Y185532D01*
X-152447Y186493D01*
X-153081Y187319D01*
X-153907Y187953D01*
X-154868Y188351D01*
X-155400Y188421D01*
D02*
G37*
G36*
X-108110Y296597D02*
X-109142Y296461D01*
X-110104Y296063D01*
X-110929Y295429D01*
X-111563Y294604D01*
X-111961Y293642D01*
X-112097Y292610D01*
X-111961Y291578D01*
X-111563Y290617D01*
X-110929Y289791D01*
X-110104Y289158D01*
X-109142Y288759D01*
X-108110Y288623D01*
X-107078Y288759D01*
X-106117Y289158D01*
X-105291Y289791D01*
X-104657Y290617D01*
X-104259Y291578D01*
X-104123Y292610D01*
X-104259Y293642D01*
X-104657Y294604D01*
X-105291Y295429D01*
X-106117Y296063D01*
X-107078Y296461D01*
X-108110Y296597D01*
D02*
G37*
G36*
X-68740D02*
X-69772Y296461D01*
X-70734Y296063D01*
X-71559Y295429D01*
X-72193Y294604D01*
X-72591Y293642D01*
X-72727Y292610D01*
X-72591Y291578D01*
X-72193Y290617D01*
X-71559Y289791D01*
X-70734Y289158D01*
X-69772Y288759D01*
X-68740Y288623D01*
X-67708Y288759D01*
X-66747Y289158D01*
X-65921Y289791D01*
X-65287Y290617D01*
X-64889Y291578D01*
X-64753Y292610D01*
X-64889Y293642D01*
X-65287Y294604D01*
X-65921Y295429D01*
X-66747Y296063D01*
X-67708Y296461D01*
X-68740Y296597D01*
D02*
G37*
G36*
X-246220D02*
X-247252Y296461D01*
X-248214Y296063D01*
X-249040Y295429D01*
X-249673Y294604D01*
X-250072Y293642D01*
X-250207Y292610D01*
X-250072Y291578D01*
X-249673Y290617D01*
X-249040Y289791D01*
X-248214Y289158D01*
X-247252Y288759D01*
X-246220Y288623D01*
X-245189Y288759D01*
X-244227Y289158D01*
X-243401Y289791D01*
X-242768Y290617D01*
X-242370Y291578D01*
X-242234Y292610D01*
X-242370Y293642D01*
X-242768Y294604D01*
X-243401Y295429D01*
X-244227Y296063D01*
X-245189Y296461D01*
X-246220Y296597D01*
D02*
G37*
G36*
X-298713Y278657D02*
Y275236D01*
X-295292D01*
X-295362Y275768D01*
X-295760Y276730D01*
X-296393Y277555D01*
X-297219Y278189D01*
X-298181Y278587D01*
X-298713Y278657D01*
D02*
G37*
G36*
X-295260Y288689D02*
X-303165D01*
Y280784D01*
X-295260D01*
Y288689D01*
D02*
G37*
G36*
X-192898Y296563D02*
X-200803D01*
Y288657D01*
X-192898D01*
Y296563D01*
D02*
G37*
G36*
X-187350Y296531D02*
X-187882Y296461D01*
X-188844Y296063D01*
X-189670Y295429D01*
X-190303Y294604D01*
X-190701Y293642D01*
X-190771Y293110D01*
X-187350D01*
Y296531D01*
D02*
G37*
G36*
X-186350D02*
Y293110D01*
X-182929D01*
X-182999Y293642D01*
X-183398Y294604D01*
X-184031Y295429D01*
X-184857Y296063D01*
X-185819Y296461D01*
X-186350Y296531D01*
D02*
G37*
G36*
X-13780Y307828D02*
X-15596Y307649D01*
X-17343Y307119D01*
X-18953Y306259D01*
X-20365Y305101D01*
X-21523Y303690D01*
X-22383Y302080D01*
X-22913Y300332D01*
X-23092Y298516D01*
X-22913Y296699D01*
X-22383Y294952D01*
X-21523Y293342D01*
X-20365Y291931D01*
X-18953Y290773D01*
X-17343Y289912D01*
X-15596Y289382D01*
X-13780Y289203D01*
X-11963Y289382D01*
X-10216Y289912D01*
X-8606Y290773D01*
X-7195Y291931D01*
X-6036Y293342D01*
X-5176Y294952D01*
X-4646Y296699D01*
X-4467Y298516D01*
X-4646Y300332D01*
X-5176Y302080D01*
X-6036Y303690D01*
X-7195Y305101D01*
X-8606Y306259D01*
X-10216Y307119D01*
X-11963Y307649D01*
X-13780Y307828D01*
D02*
G37*
G36*
X-187350Y292110D02*
X-190771D01*
X-190701Y291578D01*
X-190303Y290617D01*
X-189670Y289791D01*
X-188844Y289158D01*
X-187882Y288759D01*
X-187350Y288689D01*
Y292110D01*
D02*
G37*
G36*
X-182929D02*
X-186350D01*
Y288689D01*
X-185819Y288759D01*
X-184857Y289158D01*
X-184031Y289791D01*
X-183398Y290617D01*
X-182999Y291578D01*
X-182929Y292110D01*
D02*
G37*
G36*
X-192898Y276878D02*
X-200803D01*
Y268972D01*
X-192898D01*
Y276878D01*
D02*
G37*
G36*
X-187350Y272425D02*
X-190771D01*
X-190701Y271893D01*
X-190303Y270932D01*
X-189670Y270106D01*
X-188844Y269473D01*
X-187882Y269074D01*
X-187350Y269004D01*
Y272425D01*
D02*
G37*
G36*
X-232268Y276878D02*
X-240173D01*
Y268972D01*
X-232268D01*
Y276878D01*
D02*
G37*
G36*
X-34700Y272830D02*
X-35614Y272710D01*
X-36465Y272357D01*
X-37196Y271796D01*
X-37757Y271065D01*
X-37813Y270931D01*
X-138700D01*
X-139324Y270807D01*
X-139854Y270454D01*
X-152654Y257653D01*
X-153007Y257124D01*
X-153131Y256500D01*
Y225651D01*
X-153657Y224965D01*
X-154010Y224114D01*
X-154130Y223200D01*
X-154010Y222286D01*
X-153657Y221435D01*
X-153096Y220704D01*
X-152365Y220143D01*
X-151514Y219790D01*
X-150600Y219670D01*
X-149686Y219790D01*
X-148835Y220143D01*
X-148104Y220704D01*
X-147543Y221435D01*
X-147190Y222286D01*
X-147070Y223200D01*
X-147190Y224114D01*
X-147543Y224965D01*
X-148104Y225696D01*
X-148835Y226257D01*
X-149686Y226610D01*
X-149869Y226634D01*
Y255824D01*
X-138024Y267669D01*
X-37813D01*
X-37757Y267535D01*
X-37196Y266804D01*
X-36465Y266243D01*
X-35614Y265890D01*
X-34700Y265770D01*
X-33786Y265890D01*
X-32935Y266243D01*
X-32204Y266804D01*
X-31643Y267535D01*
X-31290Y268386D01*
X-31170Y269300D01*
X-31290Y270214D01*
X-31643Y271065D01*
X-32204Y271796D01*
X-32935Y272357D01*
X-33786Y272710D01*
X-34700Y272830D01*
D02*
G37*
G36*
X-246220Y276912D02*
X-247252Y276776D01*
X-248214Y276378D01*
X-249040Y275744D01*
X-249673Y274919D01*
X-250072Y273957D01*
X-250207Y272925D01*
X-250072Y271893D01*
X-249673Y270932D01*
X-249040Y270106D01*
X-248214Y269473D01*
X-247252Y269074D01*
X-246220Y268938D01*
X-245189Y269074D01*
X-244227Y269473D01*
X-243401Y270106D01*
X-242768Y270932D01*
X-242370Y271893D01*
X-242234Y272925D01*
X-242370Y273957D01*
X-242768Y274919D01*
X-243401Y275744D01*
X-244227Y276378D01*
X-245189Y276776D01*
X-246220Y276912D01*
D02*
G37*
G36*
X-182929Y272425D02*
X-186350D01*
Y269004D01*
X-185819Y269074D01*
X-184857Y269473D01*
X-184031Y270106D01*
X-183398Y270932D01*
X-182999Y271893D01*
X-182929Y272425D01*
D02*
G37*
G36*
X-186350Y276846D02*
Y273425D01*
X-182929D01*
X-182999Y273957D01*
X-183398Y274919D01*
X-184031Y275744D01*
X-184857Y276378D01*
X-185819Y276776D01*
X-186350Y276846D01*
D02*
G37*
G36*
X-299713Y278657D02*
X-300244Y278587D01*
X-301206Y278189D01*
X-302032Y277555D01*
X-302665Y276730D01*
X-303064Y275768D01*
X-303134Y275236D01*
X-299713D01*
Y278657D01*
D02*
G37*
G36*
X-187350Y276846D02*
X-187882Y276776D01*
X-188844Y276378D01*
X-189670Y275744D01*
X-190303Y274919D01*
X-190701Y273957D01*
X-190771Y273425D01*
X-187350D01*
Y276846D01*
D02*
G37*
G36*
X-299713Y274236D02*
X-303134D01*
X-303064Y273704D01*
X-302665Y272743D01*
X-302032Y271917D01*
X-301206Y271284D01*
X-300244Y270885D01*
X-299713Y270815D01*
Y274236D01*
D02*
G37*
G36*
X-295292D02*
X-298713D01*
Y270815D01*
X-298181Y270885D01*
X-297219Y271284D01*
X-296393Y271917D01*
X-295760Y272743D01*
X-295362Y273704D01*
X-295292Y274236D01*
D02*
G37*
%LPD*%
D23*
X-226650Y218450D02*
X-212500Y204300D01*
X-24300Y232107D02*
X-24093Y231900D01*
X-15748Y223555D01*
X-67400Y231900D02*
X-24093D01*
X-105900Y184500D02*
Y201600D01*
X-97700D01*
X-115600D02*
X-105900D01*
X-15748Y252925D02*
X-7725D01*
X-4700Y249900D01*
Y218900D02*
Y249900D01*
X-10045Y213555D02*
X-4700Y218900D01*
X-15748Y213555D02*
X-10045D01*
X-124500Y192200D02*
Y234000D01*
X-45000Y242300D02*
X-15748Y271552D01*
Y272925D01*
X-135900Y179200D02*
Y184500D01*
X-57600Y219800D02*
X-45300D01*
X-124500Y192200D02*
X-115900Y183600D01*
X-287800Y288400D02*
Y292400D01*
X-183600Y204300D02*
X-181600D01*
X-88301Y251400D02*
X-79400D01*
X-141200Y222300D02*
Y222400D01*
X-15875Y262925D02*
X-15748D01*
X-287800Y229000D02*
Y288400D01*
Y229000D02*
X-274900Y216100D01*
X-135900Y179200D02*
X-134100Y177400D01*
X-100000D01*
X-57600Y219800D01*
X-287800Y292400D02*
X-281000Y299200D01*
X-265900D01*
X-212500Y204300D02*
X-183600D01*
X-223500Y281900D02*
X-206900Y265300D01*
X-265900Y299200D02*
X-248600Y281900D01*
X-223500D01*
X-151500Y222900D02*
Y256500D01*
X-138700Y269300D01*
X-34700D01*
X-141200Y222400D02*
Y235500D01*
X-133400Y243300D01*
X-96402D01*
X-88301Y251400D01*
X-97700Y201600D02*
X-67400Y231900D01*
X-24300Y232107D02*
Y254500D01*
X-15875Y262925D01*
D25*
X-79700Y293570D02*
X-78740Y292610D01*
X-118110D02*
Y307510D01*
X-118300Y307700D02*
X-118110Y307510D01*
X-236221Y292610D02*
Y307279D01*
X-235800Y307700D02*
X-118300D01*
X-236221Y307279D02*
X-235800Y307700D01*
X-303966Y245366D02*
X-299213D01*
X-307666Y249066D02*
X-303966Y245366D01*
X-79700Y293570D02*
Y299300D01*
X-88100Y307700D02*
X-79700Y299300D01*
X-118300Y307700D02*
X-88100D01*
X-307666Y249066D02*
Y292134D01*
X-292100Y307700D01*
X-235800D01*
D27*
X-176772Y253240D02*
D03*
X-137402D02*
D03*
X-98032D02*
D03*
X-58661D02*
D03*
D28*
X-15748Y272925D02*
D03*
X-299213Y213870D02*
D03*
X-15748Y233555D02*
D03*
X-299213Y284736D02*
D03*
Y245366D02*
D03*
D29*
X-15748Y262925D02*
D03*
Y252925D02*
D03*
X-299213Y203870D02*
D03*
X-115900Y184500D02*
D03*
X-125900D02*
D03*
X-135900D02*
D03*
X-145900D02*
D03*
X-155900D02*
D03*
X-186850Y272925D02*
D03*
Y292610D02*
D03*
X-68740D02*
D03*
X-108110D02*
D03*
X-15748Y223555D02*
D03*
Y213555D02*
D03*
X-299213Y274736D02*
D03*
Y235366D02*
D03*
X-246220Y292610D02*
D03*
Y272925D02*
D03*
D30*
X-105900Y184500D02*
D03*
X-196850Y272925D02*
D03*
Y292610D02*
D03*
X-78740D02*
D03*
X-118110D02*
D03*
X-236221D02*
D03*
Y272925D02*
D03*
D31*
X-301181Y188279D02*
D03*
X-13780Y298516D02*
D03*
D32*
X-226400Y218700D02*
D03*
X-287800Y288400D02*
D03*
X-124500Y234000D02*
D03*
X-45000Y242300D02*
D03*
X-45300Y219800D02*
D03*
X-206900Y265300D02*
D03*
X-183600Y204300D02*
D03*
X-79400Y251400D02*
D03*
X-141200Y222400D02*
D03*
X-34700Y269300D02*
D03*
X-150600Y223200D02*
D03*
X-115600Y201600D02*
D03*
X-274800Y216100D02*
D03*
M02*
