%FSTAX24Y24*%
%MOIN*%
G70*
G01*
G75*
G04 Layer_Physical_Order=2*
G04 Layer_Color=16711680*
%ADD10R,0.0807X0.0886*%
%ADD11R,0.0492X0.0630*%
%ADD12R,0.0315X0.0374*%
%ADD13R,0.0374X0.0315*%
%ADD14R,0.0472X0.0256*%
%ADD15R,0.0256X0.0472*%
%ADD16R,0.0630X0.0630*%
%ADD17O,0.0472X0.0217*%
%ADD18R,0.0472X0.0217*%
%ADD19C,0.0100*%
%ADD20R,0.0591X0.0591*%
%ADD21C,0.0591*%
%ADD22C,0.0472*%
%ADD23C,0.0551*%
%ADD24C,0.1575*%
%ADD25C,0.0709*%
%ADD26C,0.0320*%
%ADD27O,0.0236X0.1204*%
%ADD28O,0.0236X0.1200*%
%ADD29R,0.0236X0.1200*%
D12*
X23531Y145619D02*
D03*
X236019D02*
D03*
X236204Y14225D02*
D03*
X235496D02*
D03*
X233952Y141928D02*
D03*
X23466D02*
D03*
X239892Y142566D02*
D03*
X2406D02*
D03*
X241225Y142558D02*
D03*
X241934D02*
D03*
X239882Y141926D02*
D03*
X24059D02*
D03*
X241212D02*
D03*
X24192D02*
D03*
X237515Y143523D02*
D03*
X236806D02*
D03*
X239552Y1456D02*
D03*
X238843D02*
D03*
X237524D02*
D03*
X238233D02*
D03*
D13*
X233272Y142027D02*
D03*
Y142735D02*
D03*
X241986Y1458D02*
D03*
Y145092D02*
D03*
X24254Y145804D02*
D03*
Y145096D02*
D03*
X236944Y142588D02*
D03*
Y141879D02*
D03*
X233322Y145314D02*
D03*
Y144606D02*
D03*
X247081Y144753D02*
D03*
Y144044D02*
D03*
X247081Y143188D02*
D03*
Y14248D02*
D03*
D15*
X233736Y143414D02*
D03*
X234484D02*
D03*
X23411Y144459D02*
D03*
X24149Y145268D02*
D03*
X240742D02*
D03*
X241116Y144223D02*
D03*
X242452Y141973D02*
D03*
X2432D02*
D03*
X242826Y143018D02*
D03*
D17*
X238778Y142062D02*
D03*
Y142436D02*
D03*
X237744Y142062D02*
D03*
Y14281D02*
D03*
D18*
X238778Y14281D02*
D03*
D19*
X248324Y14196D02*
Y143434D01*
X248065Y141701D02*
X248324Y14196D01*
X239726Y143686D02*
Y144681D01*
X239496Y143456D02*
X239726Y143686D01*
X238263Y143456D02*
X239496D01*
X239726Y144681D02*
X239995Y14495D01*
X23466Y142347D02*
X234916Y142603D01*
X23466Y141928D02*
Y142347D01*
X234916Y142603D02*
Y14358D01*
X237196Y141716D02*
X238272D01*
X237033Y141879D02*
X237196Y141716D01*
X236944Y141879D02*
X237033D01*
X23687Y141806D02*
X236944Y141879D01*
X234783Y141806D02*
X23687D01*
X246873Y143856D02*
X247081Y144064D01*
X247767D01*
X242367Y141996D02*
X242846Y142476D01*
X241553Y141587D02*
X241963Y141996D01*
X240576Y141616D02*
Y141928D01*
X233272Y142991D02*
X234139Y143857D01*
X23854Y14244D02*
X23914D01*
X240576Y141616D02*
X240605Y141587D01*
X238272Y141725D02*
Y142172D01*
Y141716D02*
Y141725D01*
X23841Y141587D01*
X240605D02*
X241553D01*
X23841D02*
X240605D01*
X236204Y141828D02*
X236216Y141816D01*
X236204Y141828D02*
Y14225D01*
X237466Y142066D02*
X23778D01*
X237091Y142441D02*
X237466Y142066D01*
X237091Y142441D02*
Y142531D01*
X236906Y142716D02*
X237091Y142531D01*
X236906Y142716D02*
Y143423D01*
X236806Y143523D02*
X236906Y143423D01*
X237973Y142456D02*
X238332Y142814D01*
X237544Y142456D02*
X237973D01*
X237356Y142644D02*
X237544Y142456D01*
X239806Y141989D02*
X239867Y141928D01*
X239806Y141989D02*
Y14248D01*
X239892Y142566D01*
X2406D02*
X24064Y142526D01*
X241186Y142647D02*
X241307Y142526D01*
X24064D02*
X241307D01*
X23466Y141928D02*
X234783Y141806D01*
X241589Y144409D02*
Y144689D01*
X241856Y144956D01*
Y14503D01*
X241924Y145098D01*
X23464Y143857D02*
X234916Y14358D01*
X239552Y1456D02*
X240066Y146114D01*
X244914Y14621D02*
X246423D01*
X243725Y146325D02*
X243899Y146151D01*
X233703Y146325D02*
X243725D01*
X233322Y145944D02*
X233703Y146325D01*
X244389Y143856D02*
X246873D01*
X2438Y143267D02*
X244389Y143856D01*
X247325Y145459D02*
X248122D01*
X248324Y145258D01*
Y143434D02*
Y145258D01*
X245226Y143636D02*
X245454Y143409D01*
X244656Y143636D02*
X245226D01*
X244436Y143416D02*
X244656Y143636D01*
X243096Y142476D02*
X243319Y142699D01*
X242846Y142476D02*
X243096D01*
X243319Y142949D02*
X243637Y143267D01*
X243319Y142699D02*
Y142949D01*
X243637Y143267D02*
X2438D01*
X241963Y141996D02*
X242367D01*
X237356Y143364D02*
X237515Y143523D01*
X237356Y142644D02*
Y143364D01*
X244436Y143356D02*
Y143416D01*
X241536Y143557D02*
Y143646D01*
Y143557D02*
X24156Y143533D01*
X240408Y145767D02*
X240752Y145423D01*
X240369Y145767D02*
X240408D01*
X242633Y14495D02*
X24318D01*
X243445Y145216D02*
X244237D01*
X24318Y14495D02*
X243445Y145216D01*
X242534Y145048D02*
X242633Y14495D01*
X242731Y142881D02*
Y143022D01*
X242676Y142826D02*
X242731Y142881D01*
X242176Y142826D02*
X242676D01*
X24205Y1427D02*
X242176Y142826D01*
X241948Y1427D02*
X24205D01*
X24249Y144D02*
X243135Y144645D01*
X241096Y144D02*
X24249D01*
X241096D02*
Y144248D01*
X240394Y14495D02*
X241096Y144248D01*
X239995Y14495D02*
X240394D01*
X23778Y142974D02*
X238263Y143456D01*
X23778Y142814D02*
Y142974D01*
X244493Y144343D02*
Y14496D01*
X244046Y143896D02*
X244493Y144343D01*
X243496Y143896D02*
X244046D01*
X242731Y143131D02*
X243496Y143896D01*
X242731Y143022D02*
Y143131D01*
X244545Y145841D02*
X244914Y14621D01*
X243899Y146151D02*
X244267D01*
X241972Y145757D02*
X242593D01*
X241965Y14575D02*
X241972Y145757D01*
X24145Y14545D02*
X24175Y14575D01*
X241965D01*
X236019Y145619D02*
X236629Y145009D01*
Y144438D02*
Y145009D01*
X237515Y143523D02*
Y143635D01*
X23725Y1439D02*
X237515Y143635D01*
X23725Y1439D02*
Y145325D01*
X237524Y1456D01*
X238133Y143917D02*
X239355D01*
X237613Y144437D02*
X238133Y143917D01*
X237613Y144437D02*
Y144645D01*
X239365Y142665D02*
Y142922D01*
X23914Y14244D02*
X239365Y142665D01*
X238272Y142172D02*
X23854Y14244D01*
X246454Y145106D02*
X246972D01*
X247131Y145265D01*
X246668Y141701D02*
X246669Y141702D01*
X247131Y145265D02*
X247325Y145459D01*
X247767Y144064D02*
X247879Y143952D01*
X247328Y143434D02*
X248324D01*
X24678Y14248D02*
X247081D01*
X246454Y142806D02*
X24678Y14248D01*
X245954Y14408D02*
Y145106D01*
X233322Y145314D02*
Y145944D01*
X239729Y142066D02*
X239867Y141928D01*
X238815Y142066D02*
X239729D01*
X241186Y141928D02*
Y142647D01*
X23591Y142598D02*
Y142961D01*
X235595Y142283D02*
X23591Y142598D01*
X23531Y145551D02*
Y145619D01*
Y145551D02*
X23591Y144951D01*
X244316Y142751D02*
X244899D01*
X244954Y142806D01*
X245454D02*
Y143409D01*
X234424Y142962D02*
Y143394D01*
X234139Y142676D02*
X234424Y142962D01*
X233272Y142027D02*
X233853D01*
X233952Y141928D01*
Y142489D01*
X234139Y142676D01*
X233272Y142735D02*
Y142991D01*
X233322Y144606D02*
X233883D01*
X23405Y144439D01*
X234139Y143857D02*
X23464D01*
X245454Y145106D02*
Y145594D01*
X244685Y145699D02*
X244842Y145856D01*
X244685Y145694D02*
Y145699D01*
X245191Y145856D02*
X245454Y145594D01*
X244842Y145856D02*
X245191D01*
X243053Y1454D02*
X243213Y14556D01*
X245954Y142109D02*
Y142806D01*
X245743Y141899D02*
X245954Y142109D01*
X245694Y141899D02*
X245743D01*
X238233Y1456D02*
X238843D01*
X238332Y142814D02*
X238815D01*
X244954Y14418D02*
Y145106D01*
X244079Y141977D02*
X244493Y142391D01*
X243105Y141977D02*
X244079D01*
X244237Y145216D02*
X244493Y14496D01*
X243135Y144645D02*
X2438D01*
X246668Y141701D02*
X248065D01*
X247131Y144773D02*
Y145265D01*
X2438Y143267D02*
X244316Y142751D01*
X242357Y141977D02*
X242377Y141996D01*
X239365Y142922D02*
X239398Y142955D01*
X241258D01*
X241415Y143113D01*
X241427D01*
X246423Y14621D02*
Y146229D01*
X24025Y144232D02*
Y144456D01*
Y144232D02*
X24095Y143533D01*
X24156D01*
X244552Y14556D02*
X244685Y145694D01*
X243213Y14556D02*
X244552D01*
X240066Y146114D02*
X243533D01*
X243806Y145841D02*
X244545D01*
X243533Y146114D02*
X243806Y145841D01*
X247081Y143188D02*
X247328Y143434D01*
D20*
X2438Y144645D02*
D03*
X247879Y142952D02*
D03*
D21*
X2438Y143267D02*
D03*
X247879Y144952D02*
D03*
Y143952D02*
D03*
X23591Y143956D02*
D03*
Y142961D02*
D03*
Y144951D02*
D03*
D22*
X242229Y144456D02*
D03*
Y143456D02*
D03*
X238263Y144456D02*
D03*
Y143456D02*
D03*
D23*
X24025Y143456D02*
D03*
Y144456D02*
D03*
D24*
X249532Y143956D02*
D03*
X231826D02*
D03*
D25*
X234139Y142676D02*
D03*
Y145235D02*
D03*
D26*
X246356Y146206D02*
D03*
X245954Y144166D02*
D03*
X244954D02*
D03*
X239316Y143106D02*
D03*
X244436Y143416D02*
D03*
X241536Y143646D02*
D03*
X240409Y145797D02*
D03*
X243066Y145334D02*
D03*
X247131Y145265D02*
D03*
X246669Y141702D02*
D03*
X236629Y144438D02*
D03*
X239355Y143917D02*
D03*
X237613Y144645D02*
D03*
X245694Y141899D02*
D03*
X244493Y142391D02*
D03*
X241427Y143113D02*
D03*
X244267Y146151D02*
D03*
X241589Y144409D02*
D03*
D27*
X246454Y145106D02*
D03*
D28*
X244954D02*
D03*
X245954Y142806D02*
D03*
X245454D02*
D03*
X244954D02*
D03*
X245954Y145106D02*
D03*
X245454D02*
D03*
D29*
X246454Y142806D02*
D03*
M02*
