%FSTAX24Y24*%
%MOIN*%
G70*
G01*
G75*
G04 Layer_Color=8388736*
%ADD10R,0.0807X0.0886*%
%ADD11R,0.0492X0.0630*%
%ADD12R,0.0315X0.0374*%
%ADD13R,0.0374X0.0315*%
%ADD14R,0.0472X0.0256*%
%ADD15R,0.0256X0.0472*%
%ADD16R,0.0630X0.0630*%
%ADD17O,0.0472X0.0217*%
%ADD18R,0.0472X0.0217*%
%ADD19C,0.0100*%
%ADD20R,0.0591X0.0591*%
%ADD21C,0.0591*%
%ADD22C,0.0472*%
%ADD23C,0.0551*%
%ADD24C,0.1575*%
%ADD25C,0.0709*%
%ADD26C,0.0320*%
%ADD27O,0.0236X0.1204*%
%ADD28O,0.0236X0.1200*%
%ADD29R,0.0236X0.1200*%
%ADD30C,0.0197*%
%ADD31C,0.0080*%
%ADD32C,0.0039*%
%ADD33C,0.0079*%
%ADD34C,0.0004*%
%ADD35R,0.0887X0.0966*%
%ADD36R,0.0572X0.0710*%
%ADD37R,0.0395X0.0454*%
%ADD38R,0.0454X0.0395*%
%ADD39R,0.0552X0.0336*%
%ADD40R,0.0336X0.0552*%
%ADD41R,0.0710X0.0710*%
%ADD42O,0.0512X0.0256*%
%ADD43R,0.0512X0.0256*%
%ADD44R,0.0671X0.0671*%
%ADD45C,0.0671*%
%ADD46C,0.0552*%
%ADD47C,0.0631*%
%ADD48C,0.1655*%
%ADD49C,0.0789*%
%ADD50C,0.0400*%
%ADD51O,0.0316X0.1284*%
%ADD52O,0.0316X0.1280*%
%ADD53R,0.0316X0.1280*%
D37*
X23531Y145619D02*
D03*
X236019D02*
D03*
X236204Y14225D02*
D03*
X235496D02*
D03*
X233952Y141928D02*
D03*
X23466D02*
D03*
X239892Y142566D02*
D03*
X2406D02*
D03*
X241225Y142558D02*
D03*
X241934D02*
D03*
X239882Y141926D02*
D03*
X24059D02*
D03*
X241212D02*
D03*
X24192D02*
D03*
X237515Y143523D02*
D03*
X236806D02*
D03*
X239552Y1456D02*
D03*
X238843D02*
D03*
X237524D02*
D03*
X238233D02*
D03*
D38*
X233272Y142027D02*
D03*
Y142735D02*
D03*
X241986Y1458D02*
D03*
Y145092D02*
D03*
X24254Y145804D02*
D03*
Y145096D02*
D03*
X236944Y142588D02*
D03*
Y141879D02*
D03*
X233322Y145314D02*
D03*
Y144606D02*
D03*
X247081Y144753D02*
D03*
Y144044D02*
D03*
X247081Y143188D02*
D03*
Y14248D02*
D03*
D40*
X233736Y143414D02*
D03*
X234484D02*
D03*
X23411Y144459D02*
D03*
X24149Y145268D02*
D03*
X240742D02*
D03*
X241116Y144223D02*
D03*
X242452Y141973D02*
D03*
X2432D02*
D03*
X242826Y143018D02*
D03*
D42*
X238778Y142062D02*
D03*
Y142436D02*
D03*
X237744Y142062D02*
D03*
Y14281D02*
D03*
D43*
X238778Y14281D02*
D03*
D44*
X2438Y144645D02*
D03*
X247879Y142952D02*
D03*
D45*
X2438Y143267D02*
D03*
X247879Y144952D02*
D03*
Y143952D02*
D03*
X23591Y143956D02*
D03*
Y142961D02*
D03*
Y144951D02*
D03*
D46*
X242229Y144456D02*
D03*
Y143456D02*
D03*
X238263Y144456D02*
D03*
Y143456D02*
D03*
D47*
X24025Y143456D02*
D03*
Y144456D02*
D03*
D48*
X249532Y143956D02*
D03*
X231826D02*
D03*
D49*
X234139Y142676D02*
D03*
Y145235D02*
D03*
D50*
X246356Y146206D02*
D03*
X245954Y144166D02*
D03*
X244954D02*
D03*
X239316Y143106D02*
D03*
X244436Y143416D02*
D03*
X241536Y143646D02*
D03*
X240409Y145797D02*
D03*
X243066Y145334D02*
D03*
X247131Y145265D02*
D03*
X246669Y141702D02*
D03*
X236629Y144438D02*
D03*
X239355Y143917D02*
D03*
X237613Y144645D02*
D03*
X245694Y141899D02*
D03*
X244493Y142391D02*
D03*
X241427Y143113D02*
D03*
X244267Y146151D02*
D03*
X241589Y144409D02*
D03*
D51*
X246454Y145106D02*
D03*
D52*
X244954D02*
D03*
X245954Y142806D02*
D03*
X245454D02*
D03*
X244954D02*
D03*
X245954Y145106D02*
D03*
X245454D02*
D03*
D53*
X246454Y142806D02*
D03*
M02*
