%FSTAX24Y24*%
%MOIN*%
G70*
G01*
G75*
G04 Layer_Physical_Order=1*
G04 Layer_Color=255*
%ADD10R,0.0807X0.0886*%
%ADD11R,0.0492X0.0630*%
%ADD12R,0.0315X0.0374*%
%ADD13R,0.0374X0.0315*%
%ADD14R,0.0472X0.0256*%
%ADD15R,0.0256X0.0472*%
%ADD16R,0.0630X0.0630*%
%ADD17O,0.0472X0.0217*%
%ADD18R,0.0472X0.0217*%
%ADD19C,0.0100*%
%ADD20R,0.0591X0.0591*%
%ADD21C,0.0591*%
%ADD22C,0.0472*%
%ADD23C,0.0551*%
%ADD24C,0.1575*%
%ADD25C,0.0709*%
%ADD26C,0.0320*%
D10*
X24281Y142056D02*
D03*
X241688D02*
D03*
D11*
X245034Y145944D02*
D03*
X243676D02*
D03*
D12*
X247239Y14185D02*
D03*
X247948D02*
D03*
X247426Y145816D02*
D03*
X248135D02*
D03*
X24068Y145096D02*
D03*
X239972D02*
D03*
X239792Y142606D02*
D03*
X2405D02*
D03*
D13*
X243774Y141741D02*
D03*
Y14245D02*
D03*
X23885Y145904D02*
D03*
Y145196D02*
D03*
X23815Y145904D02*
D03*
Y145196D02*
D03*
X23745Y145904D02*
D03*
Y145196D02*
D03*
D14*
X245714Y145352D02*
D03*
Y1461D02*
D03*
X246758Y145726D02*
D03*
D15*
X242082Y146132D02*
D03*
X24283D02*
D03*
X242456Y145087D02*
D03*
D16*
X239749Y145847D02*
D03*
X241087D02*
D03*
D17*
X238844Y14246D02*
D03*
Y142086D02*
D03*
X23781Y14246D02*
D03*
Y141712D02*
D03*
D18*
X238844Y141712D02*
D03*
D19*
X242082Y146122D02*
Y14622D01*
X24199Y146312D02*
X242082Y14622D01*
X240166Y146312D02*
X24199D01*
X247091Y141702D02*
X247239Y14185D01*
X246669Y141702D02*
X247091D01*
X238679Y146276D02*
X238902Y146052D01*
X237551Y146276D02*
X238679D01*
X2374Y146125D02*
X237551Y146276D01*
X239749Y145895D02*
X240166Y146312D01*
X239376Y142616D02*
X239887D01*
X239365Y142627D02*
X239376Y142616D01*
X239365Y142627D02*
Y142922D01*
Y143468D01*
X243782Y14407D02*
X244436Y143416D01*
X241463Y14407D02*
X243782D01*
X248026Y145707D02*
X248135Y145816D01*
X248026Y145666D02*
Y145707D01*
X248Y14564D02*
X248026Y145666D01*
X248Y145073D02*
Y14564D01*
X246758Y145726D02*
Y146183D01*
X246732Y14621D02*
X246758Y146183D01*
X245806Y145356D02*
X246896Y144266D01*
Y143994D02*
Y144266D01*
Y143994D02*
X247948Y142942D01*
X244264Y145356D02*
X245806D01*
X243676Y145944D02*
X244264Y145356D01*
X240495Y14395D02*
X242145Y1456D01*
X246758Y145676D02*
Y145726D01*
X242475Y144932D02*
Y144989D01*
X242229Y144686D02*
X242475Y144932D01*
X242229Y144456D02*
Y144686D01*
X237491Y1452D02*
X238263D01*
Y144456D02*
Y1452D01*
X239486Y145494D02*
X239749Y145757D01*
X239486Y144667D02*
Y145494D01*
X239045Y144227D02*
X239486Y144667D01*
X24025Y143456D02*
X240506Y1432D01*
Y142686D02*
Y1432D01*
X240876Y143912D02*
X241373Y144409D01*
X240876Y142366D02*
Y143912D01*
X240616Y142106D02*
X240876Y142366D01*
X239365Y142106D02*
X240616D01*
X245156Y146066D02*
X245586D01*
X245034Y145944D02*
X245156Y146066D01*
X246356Y146206D02*
X24636Y14621D01*
X244954Y142851D02*
Y144246D01*
X244493Y142391D02*
X244954Y142851D01*
X245002Y145137D02*
X245954Y144186D01*
X24371Y145137D02*
X245002D01*
X24545Y143639D02*
Y144188D01*
X2438Y144645D02*
X244993D01*
X24545Y144188D01*
X239316Y142971D02*
Y143106D01*
Y142971D02*
X239365Y142922D01*
Y142106D02*
Y142922D01*
X244436Y143356D02*
Y143416D01*
X241536Y143557D02*
Y143646D01*
Y143557D02*
X24156Y143533D01*
X240369Y145767D02*
X240408D01*
X240457Y145718D01*
X240635Y145895D01*
X24283Y146017D02*
X24371Y145137D01*
X243034Y145376D02*
X243099Y14531D01*
X24296Y145376D02*
X243034D01*
X243099Y145308D02*
Y14531D01*
X243086Y145294D02*
X243099Y145308D01*
X243086Y145294D02*
X243086D01*
X242735Y1456D02*
X24296Y145376D01*
X237362Y144684D02*
X237613D01*
X246556Y141589D02*
X246669Y141702D01*
X243774Y142352D02*
X244537Y141589D01*
X246556D01*
X244183Y142254D02*
X244538Y141899D01*
X244183Y142254D02*
Y142598D01*
X243959Y142822D02*
X244183Y142598D01*
X243528Y142822D02*
X243959D01*
X242508Y143842D02*
X243528Y142822D01*
X241869Y143842D02*
X242508D01*
X24545Y143639D02*
X247239Y14185D01*
X247879Y144952D02*
X248Y145073D01*
X248135Y145816D02*
Y145915D01*
X24784Y14621D02*
X248135Y145915D01*
X24636Y14621D02*
X24784D01*
X244828Y146151D02*
X245034Y145944D01*
X244267Y146151D02*
X244828D01*
X24283Y146017D02*
Y146122D01*
X239355Y143917D02*
X239389Y14395D01*
X240495D01*
X238538Y141712D02*
X238844D01*
X2383Y14195D02*
X238538Y141712D01*
X2383Y14195D02*
Y142767D01*
X236629Y144438D02*
X2383Y142767D01*
X238193Y143456D02*
X238263D01*
X238829Y142475D02*
X238844Y14246D01*
X238829Y142475D02*
Y145271D01*
X235955Y146092D02*
X237362Y144684D01*
X242145Y1456D02*
X242735D01*
X24156Y143533D02*
X241869Y143842D01*
X238185Y145915D02*
X238829Y145271D01*
X238105Y145915D02*
X238185D01*
X2374Y146D02*
Y146125D01*
X235941Y145708D02*
X238193Y143456D01*
X234611Y145708D02*
X235941D01*
X247948Y14185D02*
Y142942D01*
X247426Y14557D02*
Y145816D01*
X247131Y145275D02*
X247426Y14557D01*
X247131Y145265D02*
Y145275D01*
X240635Y145895D02*
X241087D01*
X240684Y145048D02*
X240792D01*
X241087Y145344D01*
Y145895D01*
X237406Y14246D02*
X23781D01*
X23591Y143956D02*
X237406Y14246D01*
X242229Y142637D02*
Y143456D01*
Y142637D02*
X24281Y142056D01*
X243125Y141741D02*
X243774D01*
X24281Y142056D02*
X243125Y141741D01*
X234139Y145235D02*
X234611Y145708D01*
X235723Y141712D02*
X23781D01*
X235231Y142204D02*
X235723Y141712D01*
X235231Y142204D02*
Y144143D01*
X234139Y145235D02*
X235231Y144143D01*
X234139Y142676D02*
Y143789D01*
X233213Y144714D02*
X234139Y143789D01*
X233213Y144714D02*
Y145728D01*
X233578Y146092D01*
X235955D01*
X237613Y144645D02*
Y144684D01*
X239975Y144731D02*
X24025Y144456D01*
X239975Y144731D02*
Y145048D01*
X241117Y143724D02*
X241463Y14407D01*
X243774Y142352D02*
Y14245D01*
X244538Y141899D02*
X245694D01*
X238864Y142106D02*
X239365D01*
X238844Y142086D02*
X238864Y142106D01*
X241427Y143113D02*
X241688Y142852D01*
Y142056D02*
Y142852D01*
X238902Y146052D02*
X239591D01*
X239749Y145895D01*
X239045Y143788D02*
X239365Y143468D01*
X239045Y143788D02*
Y144227D01*
X238844Y141712D02*
X240713D01*
X241117Y142115D01*
Y143724D01*
X241373Y144409D02*
X241589D01*
D20*
X2438Y144645D02*
D03*
X247879Y142952D02*
D03*
D21*
X2438Y143267D02*
D03*
X247879Y144952D02*
D03*
Y143952D02*
D03*
X23591Y143956D02*
D03*
Y142961D02*
D03*
Y144951D02*
D03*
D22*
X242229Y144456D02*
D03*
Y143456D02*
D03*
X238263Y144456D02*
D03*
Y143456D02*
D03*
D23*
X24025Y143456D02*
D03*
Y144456D02*
D03*
D24*
X249532Y143956D02*
D03*
X231826D02*
D03*
D25*
X234139Y142676D02*
D03*
Y145235D02*
D03*
D26*
X246356Y146206D02*
D03*
X245954Y144166D02*
D03*
X244954D02*
D03*
X239316Y143106D02*
D03*
X244436Y143416D02*
D03*
X241536Y143646D02*
D03*
X240409Y145797D02*
D03*
X243066Y145334D02*
D03*
X247131Y145265D02*
D03*
X246669Y141702D02*
D03*
X236629Y144438D02*
D03*
X239355Y143917D02*
D03*
X237613Y144645D02*
D03*
X245694Y141899D02*
D03*
X244493Y142391D02*
D03*
X241427Y143113D02*
D03*
X244267Y146151D02*
D03*
X241589Y144409D02*
D03*
M02*
