M48
;Layer_Color=9474304
;FILE_FORMAT=2:4
INCH,LZ
;TYPE=PLATED
T1F00S00C0.0200
T2F00S00C0.0315
T3F00S00C0.0354
T4F00S00C0.0551
T5F00S00C0.1083
T6F00S00C0.1180
%
T01
X075743Y074077
X080012Y072699
X082571Y074077
X0823Y075377
X08356Y075897
X086Y074947
X087098Y075258
X088Y073397
X08875Y073197
X0885Y071447
X08775Y071197
X085748Y0704
X085788Y06727
X082177Y070472
X080012Y076636
X08977Y077767
X090051Y074803
X091035Y073819
X09351Y075927
X0948Y075647
X0965Y076447
X09855Y074847
X09775Y074047
X098878Y080069
X092646Y081331
X09084Y082067
X08895Y081147
X08596Y081107
X0857Y080297
X085205Y080747
X08535Y081597
X08473Y081377
X084778Y079669
X0855Y078947
X08586Y078487
X08225Y080447
X080012Y080573
X080012Y083268
Y08451
X09125Y078697
T02
X068669Y073032
X070669
X071669
T03
X075681Y075591
Y076591
Y077591
X093795Y086569
Y087569
X094795
Y086569
X095795
Y087569
X096795
Y086569
X092795
X091795
X090795
X089795
X088795
X087795
X086795
X085795
X084795
X083795
X082795
X081795
X080795
X079795
X078795
Y087569
X079795
X080795
X081795
X082795
X083795
X084795
X085795
X086795
X087795
X088795
X089795
X090795
X091795
X092795
X077795
Y086569
X075681Y080591
Y079591
Y078591
T04
X057768Y068565
X059146
X060524
X061902
X06328
X064657
X066035
X067413
X068791
X094569Y069301
X096538Y069104
T05
X075878Y067778
X098713
Y087069
X075878
X056783Y081951
T06
X070597Y069569
X072597Y070819
Y068319
M30
