%FSTAX24Y24*%
%MOIN*%
G70*
G01*
G75*
G04 Layer_Color=128*
%ADD10R,0.0709X0.0709*%
%ADD11R,0.0512X0.0472*%
%ADD12R,0.0374X0.1004*%
%ADD13R,0.1299X0.1004*%
%ADD14R,0.0512X0.0394*%
%ADD15R,0.0394X0.0512*%
%ADD16R,0.0630X0.0630*%
%ADD17O,0.0906X0.0236*%
%ADD18C,0.0100*%
%ADD19R,0.0591X0.0591*%
%ADD20C,0.0591*%
%ADD21C,0.0320*%
%ADD22R,0.0630X0.0630*%
%ADD23R,0.0374X0.0315*%
%ADD24R,0.0984X0.0512*%
%ADD25R,0.0787X0.3937*%
%ADD26R,0.0789X0.0789*%
%ADD27R,0.0592X0.0552*%
%ADD28R,0.0454X0.1084*%
%ADD29R,0.1379X0.1084*%
%ADD30R,0.0592X0.0474*%
%ADD31R,0.0474X0.0592*%
%ADD32R,0.0710X0.0710*%
%ADD33O,0.0986X0.0316*%
%ADD34R,0.0671X0.0671*%
%ADD35C,0.0671*%
%ADD36C,0.0400*%
%ADD37R,0.0710X0.0710*%
%ADD38R,0.0454X0.0395*%
%ADD39R,0.1064X0.0592*%
D15*
X240694Y19165D02*
D03*
X239906D02*
D03*
X240694Y19265D02*
D03*
X239906D02*
D03*
X240694Y19065D02*
D03*
X239906D02*
D03*
X240694Y18965D02*
D03*
X239906D02*
D03*
D22*
X236243Y190013D02*
D03*
X237582D02*
D03*
D23*
X2359Y191704D02*
D03*
Y190995D02*
D03*
X2368D02*
D03*
Y191704D02*
D03*
D24*
X24175Y187612D02*
D03*
Y186824D02*
D03*
Y186037D02*
D03*
Y18525D02*
D03*
Y184462D02*
D03*
Y183675D02*
D03*
Y182887D02*
D03*
X23545Y187612D02*
D03*
Y186824D02*
D03*
Y186037D02*
D03*
Y18525D02*
D03*
Y184462D02*
D03*
Y183675D02*
D03*
Y182887D02*
D03*
M02*
