%FSTAX24Y24*%
%MOIN*%
G70*
G01*
G75*
G04 Layer_Color=8388736*
%ADD10R,0.0709X0.0709*%
%ADD11R,0.0512X0.0472*%
%ADD12R,0.0374X0.1004*%
%ADD13R,0.1299X0.1004*%
%ADD14R,0.0512X0.0394*%
%ADD15R,0.0394X0.0512*%
%ADD16R,0.0630X0.0630*%
%ADD17O,0.0906X0.0236*%
%ADD18C,0.0100*%
%ADD19R,0.0591X0.0591*%
%ADD20C,0.0591*%
%ADD21C,0.0320*%
%ADD22R,0.0630X0.0630*%
%ADD23R,0.0374X0.0315*%
%ADD24R,0.0984X0.0512*%
%ADD25R,0.0787X0.3937*%
%ADD26R,0.0789X0.0789*%
%ADD27R,0.0592X0.0552*%
%ADD28R,0.0454X0.1084*%
%ADD29R,0.1379X0.1084*%
%ADD30R,0.0592X0.0474*%
%ADD31R,0.0474X0.0592*%
%ADD32R,0.0710X0.0710*%
%ADD33O,0.0986X0.0316*%
%ADD34R,0.0671X0.0671*%
%ADD35C,0.0671*%
%ADD36C,0.0400*%
D25*
X237306Y199069D02*
D03*
X238684D02*
D03*
D26*
X2363Y19545D02*
D03*
Y193796D02*
D03*
D27*
X234944Y187809D02*
D03*
Y188675D02*
D03*
D28*
X237306Y192621D02*
D03*
X2364D02*
D03*
X235494D02*
D03*
D29*
X2364Y190278D02*
D03*
D30*
X242Y183043D02*
D03*
Y182256D02*
D03*
X235732Y187848D02*
D03*
Y188635D02*
D03*
X2352Y184443D02*
D03*
Y183656D02*
D03*
Y185356D02*
D03*
Y186143D02*
D03*
X2416Y187643D02*
D03*
Y186856D02*
D03*
X2377Y189643D02*
D03*
Y188856D02*
D03*
D31*
X235794Y18275D02*
D03*
X235006D02*
D03*
D32*
X2379Y195319D02*
D03*
Y19398D02*
D03*
D33*
X240391Y183D02*
D03*
Y1835D02*
D03*
Y184D02*
D03*
Y1845D02*
D03*
Y185D02*
D03*
Y1855D02*
D03*
Y186D02*
D03*
Y1865D02*
D03*
Y187D02*
D03*
Y1875D02*
D03*
X236809Y183D02*
D03*
Y1835D02*
D03*
Y184D02*
D03*
Y1845D02*
D03*
Y185D02*
D03*
Y1855D02*
D03*
Y186D02*
D03*
Y1865D02*
D03*
Y187D02*
D03*
Y1875D02*
D03*
D34*
X237Y18125D02*
D03*
X2356Y18145D02*
D03*
X2385Y19265D02*
D03*
D35*
X238Y18125D02*
D03*
X239D02*
D03*
X24D02*
D03*
X241D02*
D03*
X242D02*
D03*
X2385Y19165D02*
D03*
Y19065D02*
D03*
Y18965D02*
D03*
X2415Y19265D02*
D03*
Y19165D02*
D03*
Y19065D02*
D03*
Y18965D02*
D03*
D36*
X236241Y196D02*
D03*
X237141Y1968D02*
D03*
X238041Y19595D02*
D03*
X238491Y1967D02*
D03*
X239411Y187D02*
D03*
X238684Y18647D02*
D03*
X235535Y193557D02*
D03*
X240062Y19395D02*
D03*
X2368Y18865D02*
D03*
X2366Y18935D02*
D03*
X234606Y184443D02*
D03*
X2378Y18415D02*
D03*
X2413Y18215D02*
D03*
X2427Y18365D02*
D03*
X2425Y18765D02*
D03*
X2426Y18685D02*
D03*
X2384Y18545D02*
D03*
X23945Y185D02*
D03*
M02*
