%FSTAX24Y24*%
%MOIN*%
G70*
G01*
G75*
G04 Layer_Physical_Order=2*
G04 Layer_Color=16711680*
%ADD10R,0.0709X0.0709*%
%ADD11R,0.0512X0.0472*%
%ADD12R,0.0374X0.1004*%
%ADD13R,0.1299X0.1004*%
%ADD14R,0.0512X0.0394*%
%ADD15R,0.0394X0.0512*%
%ADD16R,0.0630X0.0630*%
%ADD17O,0.0906X0.0236*%
%ADD18C,0.0100*%
%ADD19R,0.0591X0.0591*%
%ADD20C,0.0591*%
%ADD21C,0.0320*%
%ADD22R,0.0630X0.0630*%
%ADD23R,0.0374X0.0315*%
%ADD24R,0.0984X0.0512*%
G36*
X237751Y186338D02*
X237732Y186292D01*
X236143D01*
Y186369D01*
Y18657D01*
X23752D01*
X237751Y186338D01*
D02*
G37*
G36*
X2377Y1971D02*
X237421Y19675D01*
X236631Y19575D01*
X235951Y19578D01*
Y196138D01*
X236913Y1971D01*
Y201037D01*
X2377D01*
Y1971D01*
D02*
G37*
G36*
X237676Y187118D02*
X237652Y187074D01*
X237625Y187079D01*
X236143D01*
Y187156D01*
Y187357D01*
X237437D01*
X237676Y187118D01*
D02*
G37*
G36*
X239078Y20101D02*
X239108Y19707D01*
X238972Y196845D01*
X242886Y192932D01*
Y187787D01*
X242837Y187778D01*
X242814Y187831D01*
X242757Y187906D01*
X242682Y187964D01*
X242594Y188D01*
X2425Y188013D01*
X242479Y18801D01*
X242442Y188043D01*
Y188068D01*
X241057D01*
Y187156D01*
Y186369D01*
Y185581D01*
Y184794D01*
Y184006D01*
Y183219D01*
Y182937D01*
X242442D01*
Y183219D01*
Y183337D01*
X242487Y18336D01*
X242518Y183335D01*
X242606Y183299D01*
X2427Y183286D01*
X242794Y183299D01*
X242844Y18332D01*
X242886Y183292D01*
Y180646D01*
X241522D01*
X241503Y180692D01*
X241676Y180864D01*
X241686Y180866D01*
X24175Y180817D01*
X241871Y180767D01*
X242Y18075D01*
X242129Y180767D01*
X24225Y180817D01*
X242353Y180896D01*
X242433Y181D01*
X242483Y18112D01*
X2425Y18125D01*
X242483Y181379D01*
X242433Y181499D01*
X242353Y181603D01*
X24225Y181682D01*
X242129Y181732D01*
X242Y181749D01*
X241871Y181732D01*
X241781Y181695D01*
X241737Y181718D01*
X241731Y181748D01*
X241676Y18183D01*
X241581Y181925D01*
X241614Y181968D01*
X241651Y182056D01*
X241663Y18215D01*
X241651Y182244D01*
X241614Y182331D01*
X241557Y182406D01*
X241565Y182431D01*
X2417D01*
Y182837D01*
X241057D01*
Y182431D01*
X241057Y182431D01*
X241057D01*
X241061Y18242D01*
X241043Y182406D01*
X240986Y182331D01*
X240949Y182244D01*
X240937Y18215D01*
X240949Y182056D01*
X240986Y181968D01*
X241043Y181893D01*
X241045Y181891D01*
Y181845D01*
X241058Y181783D01*
X241023Y181746D01*
X241Y181749D01*
X240871Y181732D01*
X24075Y181682D01*
X240647Y181603D01*
X240567Y181499D01*
X240525Y181397D01*
X240475D01*
X240433Y181499D01*
X240353Y181603D01*
X24025Y181682D01*
X240129Y181732D01*
X24Y181749D01*
X239871Y181732D01*
X23975Y181682D01*
X239647Y181603D01*
X239567Y181499D01*
X239525Y181397D01*
X239475D01*
X239433Y181499D01*
X239353Y181603D01*
X23925Y181682D01*
X239129Y181732D01*
X23905Y181743D01*
Y18125D01*
X23895D01*
Y181743D01*
X238871Y181732D01*
X23875Y181682D01*
X238647Y181603D01*
X238567Y181499D01*
X238525Y181397D01*
X238475D01*
X238433Y181499D01*
X238353Y181603D01*
X238255Y181678D01*
Y18265D01*
X238235Y182747D01*
X23818Y18283D01*
X237155Y183855D01*
X237072Y18391D01*
X236975Y18393D01*
X236143D01*
Y184006D01*
Y184412D01*
X23545D01*
Y184512D01*
X236143D01*
Y184794D01*
Y185581D01*
Y185782D01*
X237707D01*
X238037Y185452D01*
X238037Y18545D01*
X238049Y185356D01*
X238086Y185268D01*
X238143Y185193D01*
X238218Y185135D01*
X238306Y185099D01*
X2384Y185086D01*
X238494Y185099D01*
X238582Y185135D01*
X238657Y185193D01*
X238714Y185268D01*
X238728Y185302D01*
X238778Y185312D01*
X239087Y185002D01*
X239087Y185D01*
X239099Y184906D01*
X239136Y184818D01*
X239193Y184743D01*
X239268Y184685D01*
X239356Y184649D01*
X23945Y184636D01*
X239544Y184649D01*
X239632Y184685D01*
X239707Y184743D01*
X239764Y184818D01*
X239801Y184906D01*
X239813Y185D01*
X239801Y185094D01*
X239764Y185181D01*
X239707Y185256D01*
X239632Y185314D01*
X239544Y18535D01*
X23945Y185363D01*
X239448Y185362D01*
X238741Y186069D01*
X238757Y186117D01*
X238778Y186119D01*
X238866Y186156D01*
X238941Y186213D01*
X238999Y186289D01*
X23901Y186316D01*
X239059Y186325D01*
X240045Y185339D01*
Y184855D01*
X239594Y184405D01*
X238058D01*
X238057Y184406D01*
X237982Y184464D01*
X237894Y1845D01*
X2378Y184513D01*
X237706Y1845D01*
X237618Y184464D01*
X237543Y184406D01*
X237486Y184331D01*
X237449Y184244D01*
X237437Y18415D01*
X237449Y184056D01*
X237486Y183968D01*
X237543Y183893D01*
X237618Y183835D01*
X237706Y183799D01*
X2378Y183786D01*
X237894Y183799D01*
X237982Y183835D01*
X238057Y183893D01*
X238058Y183895D01*
X2397D01*
X239798Y183914D01*
X23988Y183969D01*
X24048Y184569D01*
X240536Y184652D01*
X240555Y18475D01*
Y185445D01*
X240536Y185542D01*
X24048Y185625D01*
X239492Y186613D01*
X239505Y186649D01*
X239592Y186685D01*
X239667Y186743D01*
X239725Y186818D01*
X239761Y186906D01*
X239767Y18695D01*
X239411D01*
Y186999D01*
X239361D01*
Y187356D01*
X239317Y18735D01*
X239229Y187314D01*
X239154Y187256D01*
X239096Y187181D01*
X239063Y187101D01*
X239014Y187091D01*
X238939Y187166D01*
Y189416D01*
X238983Y18952D01*
X239Y18965D01*
X238983Y189779D01*
X238933Y189899D01*
X238853Y190003D01*
X238755Y190078D01*
Y190221D01*
X238853Y190296D01*
X238933Y1904D01*
X238983Y19052D01*
X239Y19065D01*
X238983Y190779D01*
X238933Y190899D01*
X238853Y191003D01*
X238755Y191078D01*
Y191221D01*
X238853Y191296D01*
X238933Y1914D01*
X238983Y19152D01*
X239Y19165D01*
X238983Y191779D01*
X238933Y191899D01*
X238853Y192003D01*
X238755Y192078D01*
Y192154D01*
X238995D01*
Y193145D01*
X238005D01*
Y192154D01*
X238245D01*
Y192078D01*
X238147Y192003D01*
X238067Y191899D01*
X238017Y191779D01*
X238Y19165D01*
X238017Y19152D01*
X238067Y1914D01*
X238147Y191296D01*
X238245Y191221D01*
Y191078D01*
X238147Y191003D01*
X238067Y190899D01*
X238017Y190779D01*
X238Y19065D01*
X238011Y190566D01*
X237978Y190528D01*
X237632D01*
Y190013D01*
Y189498D01*
X238027D01*
X238067Y1894D01*
X238147Y189296D01*
X23825Y189217D01*
X238371Y189167D01*
X238429Y189159D01*
Y187151D01*
X238383Y187132D01*
X237723Y187792D01*
X23764Y187847D01*
X237543Y187867D01*
X236143D01*
Y188068D01*
X235144D01*
X235125Y188114D01*
X236106Y189095D01*
X236342D01*
X236343Y189093D01*
X236418Y189035D01*
X236506Y188999D01*
X236576Y18899D01*
X236589Y188941D01*
X236543Y188906D01*
X236486Y188831D01*
X236449Y188744D01*
X236443Y1887D01*
X23675D01*
Y189006D01*
X2368Y189013D01*
X236824Y18901D01*
X236811Y189058D01*
X236857Y189093D01*
X236914Y189168D01*
X236951Y189256D01*
X236963Y18935D01*
X236963Y189352D01*
X23698Y189369D01*
X237036Y189452D01*
X237045Y189498D01*
X237067D01*
Y189498D01*
X237532D01*
Y190013D01*
Y190528D01*
X237067D01*
D01*
X237067D01*
X237055Y19054D01*
Y190638D01*
X237187D01*
Y191346D01*
Y191654D01*
X236413D01*
Y191346D01*
Y190638D01*
X236545D01*
Y190528D01*
X235728D01*
Y189498D01*
X235728Y189498D01*
X235728D01*
X235746Y189456D01*
X234458Y188168D01*
X234412Y188187D01*
Y194239D01*
X235808Y195635D01*
X235836Y195616D01*
X235864Y195595D01*
X235869Y195594D01*
X235873Y195592D01*
X235907Y195585D01*
X235942Y195576D01*
X236622Y195546D01*
X236638Y195549D01*
X236654Y195547D01*
X236677Y195555D01*
X2367Y195558D01*
X236714Y195567D01*
X23673Y195572D01*
X236748Y195587D01*
X236768Y1956D01*
X236778Y195613D01*
X236791Y195624D01*
X23758Y196623D01*
X237757Y196845D01*
X238116D01*
X238144Y196804D01*
X23814Y196794D01*
X238134Y19675D01*
X238291Y1971D01*
Y201037D01*
X239051D01*
X239078Y20101D01*
D02*
G37*
G36*
X234595Y183495D02*
X234677Y183439D01*
X234758Y183423D01*
Y183219D01*
Y182431D01*
X235345D01*
Y181945D01*
X235105D01*
Y180954D01*
X236095D01*
Y181945D01*
X235855D01*
Y182431D01*
X236143D01*
Y183219D01*
Y18342D01*
X236869D01*
X237745Y182544D01*
Y181678D01*
X237647Y181603D01*
X237567Y181499D01*
X237544Y181444D01*
X237495Y181453D01*
Y181745D01*
X236505D01*
Y180754D01*
X237495D01*
Y181046D01*
X237544Y181056D01*
X237567Y181D01*
X237647Y180896D01*
X23775Y180817D01*
X237871Y180767D01*
X238Y18075D01*
X238123Y180766D01*
X238197Y180692D01*
X238178Y180646D01*
X234412D01*
Y183612D01*
X234458Y183631D01*
X234595Y183495D01*
D02*
G37*
%LPC*%
G36*
X235535Y19392D02*
X235441Y193907D01*
X235353Y193871D01*
X235278Y193813D01*
X23522Y193738D01*
X235184Y193651D01*
X235172Y193557D01*
X235184Y193463D01*
X23522Y193375D01*
X235278Y1933D01*
X23528Y193299D01*
Y192067D01*
X235278Y192063D01*
X235258Y191966D01*
Y191019D01*
X235278Y190922D01*
X235333Y190839D01*
X235357Y190815D01*
X235439Y19076D01*
X235513Y190745D01*
Y190638D01*
X236287D01*
Y191346D01*
Y191654D01*
X2359D01*
Y191704D01*
X23585D01*
Y192061D01*
X23579D01*
Y193299D01*
X235791Y1933D01*
X235849Y193375D01*
X235885Y193463D01*
X235898Y193557D01*
X235885Y193651D01*
X235849Y193738D01*
X235791Y193813D01*
X235716Y193871D01*
X235629Y193907D01*
X235535Y19392D01*
D02*
G37*
G36*
X239856Y190106D02*
X239509D01*
Y1897D01*
X239856D01*
Y190106D01*
D02*
G37*
G36*
Y1906D02*
X239509D01*
Y190194D01*
X239856D01*
Y1906D01*
D02*
G37*
G36*
Y192106D02*
X239509D01*
Y1917D01*
X239856D01*
Y192106D01*
D02*
G37*
G36*
Y1916D02*
X239509D01*
Y191194D01*
X239856D01*
Y1916D01*
D02*
G37*
G36*
Y191106D02*
X239509D01*
Y1907D01*
X239856D01*
Y191106D01*
D02*
G37*
G36*
X23675Y1886D02*
X236443D01*
X236449Y188556D01*
X236486Y188468D01*
X236543Y188393D01*
X236618Y188335D01*
X236706Y188299D01*
X23675Y188293D01*
Y1886D01*
D02*
G37*
G36*
X239461Y187356D02*
Y18705D01*
X239767D01*
X239761Y187094D01*
X239725Y187181D01*
X239667Y187256D01*
X239592Y187314D01*
X239505Y18735D01*
X239461Y187356D01*
D02*
G37*
G36*
X242442Y182837D02*
X2418D01*
Y182431D01*
X242442D01*
Y182837D01*
D02*
G37*
G36*
X239856Y1896D02*
X239509D01*
Y189194D01*
X239856D01*
Y1896D01*
D02*
G37*
G36*
X23685Y189006D02*
Y1887D01*
X237157D01*
X237151Y188744D01*
X237114Y188831D01*
X237057Y188906D01*
X236982Y188964D01*
X236894Y189D01*
X23685Y189006D01*
D02*
G37*
G36*
X237157Y1886D02*
X23685D01*
Y188293D01*
X236894Y188299D01*
X236982Y188335D01*
X237057Y188393D01*
X237114Y188468D01*
X237151Y188556D01*
X237157Y1886D01*
D02*
G37*
G36*
X238093Y195594D02*
X238091Y195594D01*
Y195593D01*
X238093Y195594D01*
D02*
G37*
G36*
X240112Y194307D02*
Y194D01*
X240419D01*
X240413Y194044D01*
X240377Y194132D01*
X240319Y194207D01*
X240244Y194265D01*
X240156Y194301D01*
X240112Y194307D01*
D02*
G37*
G36*
X240012D02*
X239968Y194301D01*
X239881Y194265D01*
X239805Y194207D01*
X239748Y194132D01*
X239711Y194044D01*
X239706Y194D01*
X240012D01*
Y194307D01*
D02*
G37*
G36*
X238396Y19589D02*
X238259Y195664D01*
X238297Y195693D01*
X238355Y195768D01*
X238391Y195856D01*
X238396Y19589D01*
D02*
G37*
G36*
X238845Y196634D02*
X238714Y196418D01*
X238747Y196443D01*
X238805Y196518D01*
X238841Y196606D01*
X238845Y196634D01*
D02*
G37*
G36*
X237929Y196294D02*
X237859Y196264D01*
X237784Y196207D01*
X237726Y196132D01*
X23769Y196044D01*
X237684Y196D01*
X237796D01*
X237929Y196294D01*
D02*
G37*
G36*
X237751Y1959D02*
X237684D01*
X23769Y195856D01*
X237709Y195809D01*
X237751Y1959D01*
D02*
G37*
G36*
X240419Y1939D02*
X240112D01*
Y193594D01*
X240156Y1936D01*
X240244Y193636D01*
X240319Y193694D01*
X240377Y193769D01*
X240413Y193856D01*
X240419Y1939D01*
D02*
G37*
G36*
X237187Y192061D02*
X23685D01*
Y191754D01*
X237187D01*
Y192061D01*
D02*
G37*
G36*
X23675D02*
X236413D01*
Y191754D01*
X23675D01*
Y192061D01*
D02*
G37*
G36*
X236287D02*
X23595D01*
Y191754D01*
X236287D01*
Y192061D01*
D02*
G37*
G36*
X239856Y1926D02*
X239509D01*
Y192194D01*
X239856D01*
Y1926D01*
D02*
G37*
G36*
X240012Y1939D02*
X239706D01*
X239711Y193856D01*
X239748Y193769D01*
X239805Y193694D01*
X239881Y193636D01*
X239968Y1936D01*
X240012Y193594D01*
Y1939D01*
D02*
G37*
G36*
X2415Y193149D02*
X241371Y193132D01*
X24125Y193082D01*
X241147Y193003D01*
X241138Y192991D01*
X241091Y193007D01*
Y193106D01*
X239956D01*
Y192649D01*
Y192194D01*
X241091D01*
Y192292D01*
X241138Y192308D01*
X241147Y192296D01*
X24125Y192217D01*
X241353Y192175D01*
Y192125D01*
X24125Y192082D01*
X241147Y192003D01*
X241138Y191991D01*
X241091Y192007D01*
Y192106D01*
X239956D01*
Y191649D01*
Y191194D01*
X241091D01*
Y191292D01*
X241138Y191308D01*
X241147Y191296D01*
X24125Y191217D01*
X241353Y191175D01*
Y191125D01*
X24125Y191082D01*
X241147Y191003D01*
X241138Y190991D01*
X241091Y191007D01*
Y191106D01*
X239956D01*
Y19065D01*
Y190194D01*
X241091D01*
Y190292D01*
X241138Y190308D01*
X241147Y190296D01*
X24125Y190217D01*
X241353Y190175D01*
Y190125D01*
X24125Y190082D01*
X241147Y190003D01*
X241138Y189991D01*
X241091Y190007D01*
Y190106D01*
X239956D01*
Y18965D01*
Y189194D01*
X241091D01*
Y189292D01*
X241138Y189308D01*
X241147Y189296D01*
X24125Y189217D01*
X241371Y189167D01*
X2415Y18915D01*
X241629Y189167D01*
X24175Y189217D01*
X241853Y189296D01*
X241933Y1894D01*
X241983Y18952D01*
X242Y18965D01*
X241983Y189779D01*
X241933Y189899D01*
X241853Y190003D01*
X24175Y190082D01*
X241647Y190125D01*
Y190175D01*
X24175Y190217D01*
X241853Y190296D01*
X241933Y1904D01*
X241983Y19052D01*
X242Y19065D01*
X241983Y190779D01*
X241933Y190899D01*
X241853Y191003D01*
X24175Y191082D01*
X241647Y191125D01*
Y191175D01*
X24175Y191217D01*
X241853Y191296D01*
X241933Y1914D01*
X241983Y19152D01*
X242Y19165D01*
X241983Y191779D01*
X241933Y191899D01*
X241853Y192003D01*
X24175Y192082D01*
X241647Y192125D01*
Y192175D01*
X24175Y192217D01*
X241853Y192296D01*
X241933Y1924D01*
X241983Y19252D01*
X242Y19265D01*
X241983Y192779D01*
X241933Y192899D01*
X241853Y193003D01*
X24175Y193082D01*
X241629Y193132D01*
X2415Y193149D01*
D02*
G37*
G36*
X239856Y193106D02*
X239509D01*
Y1927D01*
X239856D01*
Y193106D01*
D02*
G37*
%LPD*%
D15*
X240694Y19165D02*
D03*
X239906D02*
D03*
X240694Y19265D02*
D03*
X239906D02*
D03*
X240694Y19065D02*
D03*
X239906D02*
D03*
X240694Y18965D02*
D03*
X239906D02*
D03*
D18*
X2377Y189423D02*
Y193163D01*
X2368Y191704D02*
X2377D01*
X2346Y18385D02*
Y18795D01*
X2368Y190013D02*
Y190995D01*
Y18955D02*
Y190013D01*
X236243D02*
X2368D01*
X240653Y182887D02*
Y186076D01*
Y182887D02*
X24175D01*
X239138D02*
X240653D01*
X239865Y187454D02*
X239906Y187495D01*
X239411Y187D02*
X239865Y187454D01*
Y186864D02*
Y187454D01*
Y186864D02*
X240653Y186076D01*
X239906Y187495D02*
Y18965D01*
X2403Y18475D02*
Y185445D01*
X238684Y187061D02*
X2403Y185445D01*
X238684Y187061D02*
Y189465D01*
X237543Y187612D02*
X238684Y18647D01*
X23545Y187612D02*
X237543D01*
X2385Y18965D02*
X238684Y189465D01*
X235535Y191988D02*
Y193557D01*
X235513Y191019D02*
Y191966D01*
Y191019D02*
X235537Y190995D01*
X235513Y191966D02*
X235535Y191988D01*
X235537Y190995D02*
X2359D01*
X2366Y18935D02*
X2368Y18955D01*
Y18865D02*
X236927D01*
X2377Y189423D01*
X239906Y19165D02*
Y19265D01*
Y19065D02*
Y19165D01*
Y18965D02*
Y19065D01*
Y19265D02*
X240062Y192806D01*
Y19395D01*
X238487D02*
X240062D01*
X2377Y193163D02*
X238487Y19395D01*
X2359Y191704D02*
X2368D01*
X240694Y18965D02*
X2415D01*
X240694Y19065D02*
X2415D01*
X240694Y19165D02*
X2415D01*
X240694Y19265D02*
X2415D01*
X2346Y18795D02*
X236Y18935D01*
X2367Y18875D02*
X2368Y18865D01*
X236Y18935D02*
X2366D01*
X2385Y19165D02*
Y19265D01*
Y19065D02*
Y19165D01*
Y18965D02*
Y19065D01*
X2397Y18415D02*
X2403Y18475D01*
X2378Y18415D02*
X2397D01*
X2383Y18275D02*
X239D01*
X236587Y184462D02*
X2383Y18275D01*
X23545Y184462D02*
X236587D01*
X2346Y18385D02*
X234775Y183675D01*
X23545D01*
X2385Y18075D02*
X2412D01*
X2413Y181845D02*
Y18215D01*
Y181845D02*
X241495Y18165D01*
Y181044D02*
Y18165D01*
X2412Y18075D02*
X241495Y181044D01*
X238Y18125D02*
X2385Y18075D01*
X242675Y183675D02*
X2427Y18365D01*
X24175Y183675D02*
X242675D01*
X2427Y18365D02*
Y18595D01*
X242613Y186037D02*
X2427Y18595D01*
X24175Y186037D02*
X242613D01*
X239Y18275D02*
X239138Y182887D01*
X239Y18125D02*
Y18275D01*
X238Y18125D02*
Y18265D01*
X236975Y183675D02*
X238Y18265D01*
X23545Y183675D02*
X236975D01*
X24175Y187612D02*
X241787Y18765D01*
X2425D01*
X24175Y186824D02*
X242575D01*
X2426Y18685D01*
X23545Y182887D02*
X2356Y182738D01*
Y18145D02*
Y182738D01*
X23545Y186037D02*
X237813D01*
X2384Y18545D01*
X23545Y186824D02*
X237625D01*
X23945Y185D01*
D19*
X237Y18125D02*
D03*
X2356Y18145D02*
D03*
X2385Y19265D02*
D03*
D20*
X238Y18125D02*
D03*
X239D02*
D03*
X24D02*
D03*
X241D02*
D03*
X242D02*
D03*
X2385Y19165D02*
D03*
Y19065D02*
D03*
Y18965D02*
D03*
X2415Y19265D02*
D03*
Y19165D02*
D03*
Y19065D02*
D03*
Y18965D02*
D03*
D21*
X236241Y196D02*
D03*
X237141Y1968D02*
D03*
X238041Y19595D02*
D03*
X238491Y1967D02*
D03*
X239411Y187D02*
D03*
X238684Y18647D02*
D03*
X235535Y193557D02*
D03*
X240062Y19395D02*
D03*
X2368Y18865D02*
D03*
X2366Y18935D02*
D03*
X234606Y184443D02*
D03*
X2378Y18415D02*
D03*
X2413Y18215D02*
D03*
X2427Y18365D02*
D03*
X2425Y18765D02*
D03*
X2426Y18685D02*
D03*
X2384Y18545D02*
D03*
X23945Y185D02*
D03*
D22*
X236243Y190013D02*
D03*
X237582D02*
D03*
D23*
X2359Y191704D02*
D03*
Y190995D02*
D03*
X2368D02*
D03*
Y191704D02*
D03*
D24*
X24175Y187612D02*
D03*
Y186824D02*
D03*
Y186037D02*
D03*
Y18525D02*
D03*
Y184462D02*
D03*
Y183675D02*
D03*
Y182887D02*
D03*
X23545Y187612D02*
D03*
Y186824D02*
D03*
Y186037D02*
D03*
Y18525D02*
D03*
Y184462D02*
D03*
Y183675D02*
D03*
Y182887D02*
D03*
M02*
