%FSTAX24Y24*%
%MOIN*%
G70*
G01*
G75*
G04 Layer_Color=8421504*
%ADD10R,0.2200X0.0900*%
%ADD11R,0.0315X0.0374*%
%ADD12R,0.0551X0.1181*%
%ADD13R,0.3937X0.3937*%
%ADD14R,0.1575X0.2165*%
%ADD15R,0.0374X0.1004*%
%ADD16R,0.1299X0.1004*%
%ADD17R,0.0374X0.0315*%
%ADD18R,0.0630X0.0630*%
%ADD19R,0.0630X0.0630*%
%ADD20R,0.1575X0.0591*%
%ADD21R,0.1500X0.1100*%
%ADD22R,0.0394X0.1300*%
%ADD23R,0.4300X0.4500*%
%ADD24O,0.0236X0.0945*%
%ADD25R,0.0236X0.0945*%
%ADD26O,0.0709X0.0118*%
%ADD27O,0.0118X0.0709*%
G04:AMPARAMS|DCode=28|XSize=59.1mil|YSize=39.4mil|CornerRadius=0mil|HoleSize=0mil|Usage=FLASHONLY|Rotation=90.000|XOffset=0mil|YOffset=0mil|HoleType=Round|Shape=Octagon|*
%AMOCTAGOND28*
4,1,8,0.0098,0.0295,-0.0098,0.0295,-0.0197,0.0197,-0.0197,-0.0197,-0.0098,-0.0295,0.0098,-0.0295,0.0197,-0.0197,0.0197,0.0197,0.0098,0.0295,0.0*
%
%ADD28OCTAGOND28*%

%ADD29R,0.0394X0.0591*%
%ADD30R,0.0472X0.0256*%
G04:AMPARAMS|DCode=31|XSize=21.7mil|YSize=47.2mil|CornerRadius=0mil|HoleSize=0mil|Usage=FLASHONLY|Rotation=0.000|XOffset=0mil|YOffset=0mil|HoleType=Round|Shape=Octagon|*
%AMOCTAGOND31*
4,1,8,-0.0054,0.0236,0.0054,0.0236,0.0108,0.0182,0.0108,-0.0182,0.0054,-0.0236,-0.0054,-0.0236,-0.0108,-0.0182,-0.0108,0.0182,-0.0054,0.0236,0.0*
%
%ADD31OCTAGOND31*%

%ADD32R,0.0217X0.0472*%
%ADD33R,0.0866X0.0236*%
%ADD34O,0.0866X0.0236*%
%ADD35C,0.0100*%
%ADD36C,0.0200*%
%ADD37C,0.0550*%
%ADD38C,0.0600*%
%ADD39C,0.0250*%
%ADD40C,0.0300*%
%ADD41C,0.0400*%
%ADD42C,0.2362*%
%ADD43C,0.0984*%
%ADD44R,0.0551X0.0551*%
%ADD45C,0.0551*%
%ADD46C,0.1181*%
%ADD47C,0.0700*%
%ADD48C,0.0320*%
%ADD49C,0.0500*%
%ADD50C,0.0098*%
%ADD51C,0.0079*%
%ADD52C,0.0236*%
%ADD53C,0.0050*%
%ADD54C,0.0040*%
%ADD55C,0.0157*%
D10*
X04195Y0177D02*
D03*
X038604D02*
D03*
D11*
X042004Y0191D02*
D03*
X041296D02*
D03*
X040704D02*
D03*
X039996D02*
D03*
X039304D02*
D03*
X038596D02*
D03*
X030924Y025394D02*
D03*
X030215D02*
D03*
X031593D02*
D03*
X032302D02*
D03*
X016633Y019094D02*
D03*
X017341D02*
D03*
X026987Y024213D02*
D03*
X026278D02*
D03*
X037696Y0265D02*
D03*
X038404D02*
D03*
X036496Y0296D02*
D03*
X037204D02*
D03*
X037096Y0347D02*
D03*
X037804D02*
D03*
X035904Y0296D02*
D03*
X035196D02*
D03*
X037204Y0288D02*
D03*
X036496D02*
D03*
X035096Y0347D02*
D03*
X035804D02*
D03*
X042904Y0385D02*
D03*
X042196D02*
D03*
X042904Y0399D02*
D03*
X042196D02*
D03*
X042904Y042D02*
D03*
X042196D02*
D03*
X042904Y0378D02*
D03*
X042196D02*
D03*
X041696Y04725D02*
D03*
X042404D02*
D03*
X042904Y0371D02*
D03*
X042196D02*
D03*
X042904Y0392D02*
D03*
X042196D02*
D03*
X040664Y04654D02*
D03*
X039956D02*
D03*
X040654Y04581D02*
D03*
X039946D02*
D03*
X042904Y0406D02*
D03*
X042196D02*
D03*
X042904Y0413D02*
D03*
X042196D02*
D03*
X042424Y04655D02*
D03*
X041716D02*
D03*
X042414Y0458D02*
D03*
X041706D02*
D03*
X040654Y04725D02*
D03*
X039946D02*
D03*
X042904Y0344D02*
D03*
X042196D02*
D03*
X040896D02*
D03*
X041604D02*
D03*
X041696Y043D02*
D03*
X042404D02*
D03*
X039896Y04315D02*
D03*
X040604D02*
D03*
X035196Y0288D02*
D03*
X035904D02*
D03*
X045146Y02455D02*
D03*
X045854D02*
D03*
X045146Y02385D02*
D03*
X045854D02*
D03*
X045146Y02315D02*
D03*
X045854D02*
D03*
X045146Y02245D02*
D03*
X045854D02*
D03*
D12*
X019389Y022972D02*
D03*
X020058D02*
D03*
X020727D02*
D03*
X021396D02*
D03*
X022066D02*
D03*
D13*
X020727Y027028D02*
D03*
D14*
X018956Y019291D02*
D03*
X022893D02*
D03*
D15*
X030255Y026388D02*
D03*
X03116D02*
D03*
X032066D02*
D03*
D16*
X03116Y02873D02*
D03*
D17*
X026042Y022008D02*
D03*
Y021299D02*
D03*
Y022677D02*
D03*
Y023386D02*
D03*
X03685Y021146D02*
D03*
Y021854D02*
D03*
X04315Y025854D02*
D03*
Y025146D02*
D03*
X04325Y022154D02*
D03*
Y021446D02*
D03*
Y020754D02*
D03*
Y020046D02*
D03*
X04405Y020046D02*
D03*
Y020754D02*
D03*
X04055Y036946D02*
D03*
Y037654D02*
D03*
X03615Y021116D02*
D03*
Y021824D02*
D03*
X04055Y035546D02*
D03*
Y036254D02*
D03*
X03545Y021854D02*
D03*
Y021146D02*
D03*
X03955Y032846D02*
D03*
Y033554D02*
D03*
Y032154D02*
D03*
Y031446D02*
D03*
Y030754D02*
D03*
Y030046D02*
D03*
X0393Y027146D02*
D03*
Y027854D02*
D03*
X04Y027146D02*
D03*
Y027854D02*
D03*
D18*
X029192Y027835D02*
D03*
Y026496D02*
D03*
X033129Y027835D02*
D03*
Y026496D02*
D03*
D19*
X02616Y025197D02*
D03*
X027499D02*
D03*
X017263Y020079D02*
D03*
X015924D02*
D03*
D20*
X027066Y027953D02*
D03*
X023837D02*
D03*
X014192Y022835D02*
D03*
X01742D02*
D03*
Y027165D02*
D03*
X014192D02*
D03*
D21*
X014852Y033233D02*
D03*
Y030233D02*
D03*
X0243Y025162D02*
D03*
Y022162D02*
D03*
D22*
X023803Y043307D02*
D03*
X025803D02*
D03*
X024803D02*
D03*
X024303D02*
D03*
X025303D02*
D03*
X023303D02*
D03*
X026303D02*
D03*
X030102D02*
D03*
X032102D02*
D03*
X031102D02*
D03*
X030602D02*
D03*
X031602D02*
D03*
X029602D02*
D03*
X032602D02*
D03*
X023803Y034252D02*
D03*
X025803D02*
D03*
X024803D02*
D03*
X024303D02*
D03*
X025303D02*
D03*
X023303D02*
D03*
X026303D02*
D03*
X030102D02*
D03*
X032102D02*
D03*
X031102D02*
D03*
X030602D02*
D03*
X031602D02*
D03*
X029602D02*
D03*
X032602D02*
D03*
D23*
X024803Y047307D02*
D03*
X031102D02*
D03*
X024803Y038252D02*
D03*
X031102D02*
D03*
D24*
X0367Y032684D02*
D03*
X0362D02*
D03*
X0357D02*
D03*
X0352D02*
D03*
X0367Y030716D02*
D03*
X0362D02*
D03*
X0357D02*
D03*
D25*
X0352D02*
D03*
D26*
X037865Y021924D02*
D03*
Y02212D02*
D03*
Y022317D02*
D03*
Y022514D02*
D03*
Y022711D02*
D03*
Y022908D02*
D03*
Y023105D02*
D03*
Y023302D02*
D03*
Y023498D02*
D03*
Y023695D02*
D03*
Y023892D02*
D03*
Y024089D02*
D03*
Y024286D02*
D03*
Y024483D02*
D03*
Y02468D02*
D03*
Y024876D02*
D03*
X042235D02*
D03*
Y02468D02*
D03*
Y024483D02*
D03*
Y024286D02*
D03*
Y024089D02*
D03*
Y023892D02*
D03*
Y023695D02*
D03*
Y023498D02*
D03*
Y023302D02*
D03*
Y023105D02*
D03*
Y022908D02*
D03*
Y022711D02*
D03*
Y022514D02*
D03*
Y022317D02*
D03*
Y02212D02*
D03*
Y021924D02*
D03*
D27*
X038574Y025585D02*
D03*
X03877D02*
D03*
X038967D02*
D03*
X039164D02*
D03*
X039361D02*
D03*
X039558D02*
D03*
X039755D02*
D03*
X039952D02*
D03*
X040148D02*
D03*
X040345D02*
D03*
X040542D02*
D03*
X040739D02*
D03*
X040936D02*
D03*
X041133D02*
D03*
X04133D02*
D03*
X041526D02*
D03*
Y021215D02*
D03*
X04133D02*
D03*
X041133D02*
D03*
X040936D02*
D03*
X040739D02*
D03*
X040542D02*
D03*
X040345D02*
D03*
X040148D02*
D03*
X039952D02*
D03*
X039755D02*
D03*
X039558D02*
D03*
X039361D02*
D03*
X039164D02*
D03*
X038967D02*
D03*
X03877D02*
D03*
X038574D02*
D03*
D28*
X036957Y03808D02*
D03*
X037942D02*
D03*
X037961Y035542D02*
D03*
X034989Y03808D02*
D03*
X035973D02*
D03*
X035993Y035542D02*
D03*
D29*
X036957Y035542D02*
D03*
X034989Y035542D02*
D03*
D30*
X038848Y03723D02*
D03*
X039893Y036856D02*
D03*
Y037604D02*
D03*
X038828Y0359D02*
D03*
X039872Y035526D02*
D03*
Y036274D02*
D03*
D31*
X042424Y044028D02*
D03*
X041676D02*
D03*
X04205Y045062D02*
D03*
X041676D02*
D03*
X040674Y044038D02*
D03*
X039926D02*
D03*
X0403Y045072D02*
D03*
X039926D02*
D03*
D32*
X042424Y045062D02*
D03*
X040674Y045072D02*
D03*
D33*
X04067Y033593D02*
D03*
D34*
Y033093D02*
D03*
Y032593D02*
D03*
Y032093D02*
D03*
Y031593D02*
D03*
Y031093D02*
D03*
Y030593D02*
D03*
X04256Y033093D02*
D03*
Y032593D02*
D03*
Y032093D02*
D03*
Y031593D02*
D03*
Y031093D02*
D03*
Y030593D02*
D03*
Y030093D02*
D03*
Y033593D02*
D03*
X04067Y030093D02*
D03*
M02*
