%FSTAX24Y24*%
%MOIN*%
G70*
G01*
G75*
G04 Layer_Color=65535*
%ADD10R,0.2200X0.0900*%
%ADD11R,0.0315X0.0374*%
%ADD12R,0.0551X0.1181*%
%ADD13R,0.3937X0.3937*%
%ADD14R,0.1575X0.2165*%
%ADD15R,0.0374X0.1004*%
%ADD16R,0.1299X0.1004*%
%ADD17R,0.0374X0.0315*%
%ADD18R,0.0630X0.0630*%
%ADD19R,0.0630X0.0630*%
%ADD20R,0.1575X0.0591*%
%ADD21R,0.1500X0.1100*%
%ADD22R,0.0394X0.1300*%
%ADD23R,0.4300X0.4500*%
%ADD24O,0.0236X0.0945*%
%ADD25R,0.0236X0.0945*%
%ADD26O,0.0709X0.0118*%
%ADD27O,0.0118X0.0709*%
G04:AMPARAMS|DCode=28|XSize=59.1mil|YSize=39.4mil|CornerRadius=0mil|HoleSize=0mil|Usage=FLASHONLY|Rotation=90.000|XOffset=0mil|YOffset=0mil|HoleType=Round|Shape=Octagon|*
%AMOCTAGOND28*
4,1,8,0.0098,0.0295,-0.0098,0.0295,-0.0197,0.0197,-0.0197,-0.0197,-0.0098,-0.0295,0.0098,-0.0295,0.0197,-0.0197,0.0197,0.0197,0.0098,0.0295,0.0*
%
%ADD28OCTAGOND28*%

%ADD29R,0.0394X0.0591*%
%ADD30R,0.0472X0.0256*%
G04:AMPARAMS|DCode=31|XSize=21.7mil|YSize=47.2mil|CornerRadius=0mil|HoleSize=0mil|Usage=FLASHONLY|Rotation=0.000|XOffset=0mil|YOffset=0mil|HoleType=Round|Shape=Octagon|*
%AMOCTAGOND31*
4,1,8,-0.0054,0.0236,0.0054,0.0236,0.0108,0.0182,0.0108,-0.0182,0.0054,-0.0236,-0.0054,-0.0236,-0.0108,-0.0182,-0.0108,0.0182,-0.0054,0.0236,0.0*
%
%ADD31OCTAGOND31*%

%ADD32R,0.0217X0.0472*%
%ADD33R,0.0866X0.0236*%
%ADD34O,0.0866X0.0236*%
%ADD35C,0.0100*%
%ADD36C,0.0200*%
%ADD37C,0.0550*%
%ADD38C,0.0600*%
%ADD39C,0.0250*%
%ADD40C,0.0300*%
%ADD41C,0.0400*%
%ADD42C,0.2362*%
%ADD43C,0.0984*%
%ADD44R,0.0551X0.0551*%
%ADD45C,0.0551*%
%ADD46C,0.1181*%
%ADD47C,0.0700*%
%ADD48C,0.0320*%
%ADD49C,0.0500*%
%ADD50C,0.0098*%
%ADD51C,0.0079*%
%ADD52C,0.0236*%
%ADD53C,0.0050*%
%ADD54C,0.0040*%
%ADD55C,0.0157*%
D35*
X017323Y046555D02*
X02126D01*
X017323D02*
Y04813D01*
X019291Y046555D02*
Y04813D01*
X02126Y046555D02*
Y04813D01*
X043602Y025D02*
Y030906D01*
Y027165D02*
X045177D01*
X043602Y025D02*
X045177D01*
X043602Y028937D02*
X045177D01*
X043602Y030906D02*
X045177D01*
X044743Y035827D02*
X045137D01*
X043562Y03189D02*
X045137D01*
X043562Y039764D02*
X045177D01*
X043562Y047638D02*
X045137D01*
X043562Y043701D02*
X045137D01*
X043562Y03189D02*
Y047638D01*
Y035827D02*
X044743D01*
X038046Y0183D02*
Y0186D01*
Y0168D02*
Y0171D01*
X042596Y0168D02*
Y0171D01*
Y0183D02*
Y0186D01*
X038046Y0168D02*
X042596D01*
X038046Y0186D02*
X042596D01*
X041059Y018824D02*
Y019376D01*
Y018824D02*
X042241D01*
Y019376D01*
X041059D02*
X042241D01*
X039759Y018824D02*
X040941D01*
X039759D02*
Y019376D01*
X040941D01*
Y018824D02*
Y019376D01*
X038359Y018824D02*
X039541D01*
X038359D02*
Y019376D01*
X039541D01*
Y018824D02*
Y019376D01*
X022956Y020691D02*
Y021291D01*
X018956Y020691D02*
Y021291D01*
Y016941D02*
Y017891D01*
X022956Y016941D02*
Y017891D01*
X018956Y021654D02*
X022956D01*
X018956Y016929D02*
X022956D01*
X018956Y020691D02*
Y021641D01*
X022956Y020691D02*
Y021641D01*
X025767Y021063D02*
X026318D01*
Y022244D01*
X025767D02*
X026318D01*
X025767Y021063D02*
Y022244D01*
Y023622D02*
X026318D01*
X025767Y022441D02*
Y023622D01*
Y022441D02*
X026318D01*
Y023622D01*
X028759Y026063D02*
X029625D01*
Y028268D01*
X028759D02*
X029625D01*
X028759Y026063D02*
Y028268D01*
X029979Y025118D02*
X03116D01*
X029979D02*
Y025669D01*
X03116D01*
Y025118D02*
Y025669D01*
X032696Y026063D02*
X033562D01*
Y028268D01*
X032696D02*
X033562D01*
X032696Y026063D02*
Y028268D01*
X031357Y025669D02*
X032538D01*
Y025118D02*
Y025669D01*
X031357Y025118D02*
X032538D01*
X031357D02*
Y025669D01*
X016396Y01937D02*
X017578D01*
Y018819D02*
Y01937D01*
X016396Y018819D02*
X017578D01*
X016396D02*
Y01937D01*
X026042Y023937D02*
X027223D01*
X026042D02*
Y024488D01*
X027223D01*
Y023937D02*
Y024488D01*
X025727Y02563D02*
X027932D01*
Y024764D02*
Y02563D01*
X025727Y024764D02*
X027932D01*
X025727D02*
Y02563D01*
X015491Y019646D02*
X017696D01*
X015491D02*
Y020512D01*
X017696D01*
Y019646D02*
Y020512D01*
X026928Y025984D02*
X027617Y026673D01*
X023286Y025984D02*
X026928D01*
X023286Y029921D02*
X026928D01*
X027617Y029232D01*
Y026673D02*
Y029232D01*
X023286Y025984D02*
Y029921D01*
X013641Y024114D02*
X01433Y024803D01*
X017971D01*
X01433Y020866D02*
X017971D01*
X013641Y021555D02*
X01433Y020866D01*
X013641Y021555D02*
Y024114D01*
X017971Y020866D02*
Y024803D01*
X036574Y022091D02*
X037126D01*
X036574Y020909D02*
Y022091D01*
Y020909D02*
X037126D01*
Y022091D01*
X038641Y026224D02*
Y026776D01*
X037459D02*
X038641D01*
X037459Y026224D02*
Y026776D01*
Y026224D02*
X038641D01*
X042874Y024909D02*
X043426D01*
Y026091D01*
X042874D02*
X043426D01*
X042874Y024909D02*
Y026091D01*
X042974Y021209D02*
X043526D01*
Y022391D01*
X042974D02*
X043526D01*
X042974Y021209D02*
Y022391D01*
Y019809D02*
X043526D01*
Y020991D01*
X042974D02*
X043526D01*
X042974Y019809D02*
Y020991D01*
X036259Y029876D02*
X037441D01*
Y029324D02*
Y029876D01*
X036259Y029324D02*
X037441D01*
X036259D02*
Y029876D01*
X043774Y019809D02*
Y020991D01*
X044326D01*
Y019809D02*
Y020991D01*
X043774Y019809D02*
X044326D01*
X022503Y044807D02*
X027103D01*
X022503D02*
Y049607D01*
X022703Y049807D01*
X027103Y044807D02*
Y049607D01*
X026903Y049807D02*
X027103Y049607D01*
X022703Y049807D02*
X026903D01*
X028802Y044807D02*
X033402D01*
X028802D02*
Y049607D01*
X029002Y049807D01*
X033402Y044807D02*
Y049607D01*
X033202Y049807D02*
X033402Y049607D01*
X029002Y049807D02*
X033202D01*
X022503Y035752D02*
X027103D01*
X022503D02*
Y040552D01*
X022703Y040752D01*
X027103Y035752D02*
Y040552D01*
X026903Y040752D02*
X027103Y040552D01*
X022703Y040752D02*
X026903D01*
X028802Y035752D02*
X033402D01*
X028802D02*
Y040552D01*
X029002Y040752D01*
X033402Y035752D02*
Y040552D01*
X033202Y040752D02*
X033402Y040552D01*
X029002Y040752D02*
X033202D01*
X040274Y036709D02*
Y037891D01*
X040826D01*
Y036709D02*
Y037891D01*
X040274Y036709D02*
X040826D01*
X017323Y051083D02*
X02126D01*
Y04813D02*
Y051083D01*
X017323Y04813D02*
X02126D01*
X017323D02*
Y051083D01*
X034646D02*
X038583D01*
Y04813D02*
Y051083D01*
X034646Y04813D02*
X038583D01*
X034646D02*
Y051083D01*
X036859Y034976D02*
X038041D01*
Y034424D02*
Y034976D01*
X036859Y034424D02*
X038041D01*
X036859D02*
Y034976D01*
X035874Y020879D02*
Y022061D01*
X036426D01*
Y020879D02*
Y022061D01*
X035874Y020879D02*
X036426D01*
X040274Y035309D02*
Y036491D01*
X040826D01*
Y035309D02*
Y036491D01*
X040274Y035309D02*
X040826D01*
X034959Y029324D02*
X036141D01*
X034959D02*
Y029876D01*
X036141D01*
Y029324D02*
Y029876D01*
X035726Y020909D02*
Y022091D01*
X035174Y020909D02*
X035726D01*
X035174D02*
Y022091D01*
X035726D01*
X036259Y028524D02*
X037441D01*
X036259D02*
Y029076D01*
X037441D01*
Y028524D02*
Y029076D01*
X034859Y034976D02*
X036041D01*
Y034424D02*
Y034976D01*
X034859Y034424D02*
X036041D01*
X034859D02*
Y034976D01*
X041959Y038224D02*
Y038776D01*
Y038224D02*
X043141D01*
Y038776D01*
X041959D02*
X043141D01*
X041959Y039624D02*
Y040176D01*
Y039624D02*
X043141D01*
Y040176D01*
X041959D02*
X043141D01*
X041959Y041724D02*
Y042276D01*
Y041724D02*
X043141D01*
Y042276D01*
X041959D02*
X043141D01*
X041959Y037524D02*
Y038076D01*
Y037524D02*
X043141D01*
Y038076D01*
X041959D02*
X043141D01*
X044032Y048469D02*
Y051269D01*
X039432D02*
X044032D01*
X039432Y048469D02*
Y051269D01*
Y048469D02*
X044032D01*
X041459Y047526D02*
X042641D01*
Y046974D02*
Y047526D01*
X041459Y046974D02*
X042641D01*
X041459D02*
Y047526D01*
X041959Y036824D02*
X043141D01*
X041959D02*
Y037376D01*
X043141D01*
Y036824D02*
Y037376D01*
X041959Y038924D02*
X043141D01*
X041959D02*
Y039476D01*
X043141D01*
Y038924D02*
Y039476D01*
X039719Y046264D02*
X040901D01*
X039719D02*
Y046816D01*
X040901D01*
Y046264D02*
Y046816D01*
X039709Y045534D02*
X040891D01*
X039709D02*
Y046086D01*
X040891D01*
Y045534D02*
Y046086D01*
X041959Y040324D02*
X043141D01*
X041959D02*
Y040876D01*
X043141D01*
Y040324D02*
Y040876D01*
X041959Y041024D02*
X043141D01*
X041959D02*
Y041576D01*
X043141D01*
Y041024D02*
Y041576D01*
X041479Y046274D02*
X042661D01*
X041479D02*
Y046826D01*
X042661D01*
Y046274D02*
Y046826D01*
X041469Y045524D02*
X042651D01*
X041469D02*
Y046076D01*
X042651D01*
Y045524D02*
Y046076D01*
X039709Y046974D02*
X040891D01*
X039709D02*
Y047526D01*
X040891D01*
Y046974D02*
Y047526D01*
X041959Y034124D02*
Y034676D01*
Y034124D02*
X043141D01*
Y034676D01*
X041959D02*
X043141D01*
X045177Y047638D02*
X04813D01*
X045177Y03189D02*
Y047638D01*
Y03189D02*
X04813D01*
Y047638D01*
X035104Y051464D02*
X038124D01*
Y043414D02*
Y051464D01*
X035104Y043414D02*
X038124D01*
X035104D02*
Y051464D01*
X04813Y025D02*
Y030906D01*
X045177Y025D02*
X04813D01*
X045177D02*
Y030906D01*
X04813D01*
X017971Y025197D02*
Y029134D01*
X013641Y025886D02*
Y028445D01*
Y025886D02*
X01433Y025197D01*
X017971D01*
X01433Y029134D02*
X017971D01*
X013641Y028445D02*
X01433Y029134D01*
X039274Y033791D02*
X039826D01*
X039274Y032609D02*
Y033791D01*
Y032609D02*
X039826D01*
Y033791D01*
X041841Y034124D02*
Y034676D01*
X040659D02*
X041841D01*
X040659Y034124D02*
Y034676D01*
Y034124D02*
X041841D01*
X039274Y031209D02*
X039826D01*
Y032391D01*
X039274D02*
X039826D01*
X039274Y031209D02*
Y032391D01*
Y029809D02*
X039826D01*
Y030991D01*
X039274D02*
X039826D01*
X039274Y029809D02*
Y030991D01*
X041459Y043276D02*
X042641D01*
Y042724D02*
Y043276D01*
X041459Y042724D02*
X042641D01*
X041459D02*
Y043276D01*
X039659Y043426D02*
X040841D01*
Y042874D02*
Y043426D01*
X039659Y042874D02*
X040841D01*
X039659D02*
Y043426D01*
X034959Y029076D02*
X036141D01*
Y028524D02*
Y029076D01*
X034959Y028524D02*
X036141D01*
X034959D02*
Y029076D01*
X039024Y026909D02*
Y028091D01*
X039576D01*
Y026909D02*
Y028091D01*
X039024Y026909D02*
X039576D01*
X039724D02*
Y028091D01*
X040276D01*
Y026909D02*
Y028091D01*
X039724Y026909D02*
X040276D01*
X044909Y024826D02*
X046091D01*
Y024274D02*
Y024826D01*
X044909Y024274D02*
X046091D01*
X044909D02*
Y024826D01*
Y024126D02*
X046091D01*
Y023574D02*
Y024126D01*
X044909Y023574D02*
X046091D01*
X044909D02*
Y024126D01*
Y023426D02*
X046091D01*
Y022874D02*
Y023426D01*
X044909Y022874D02*
X046091D01*
X044909D02*
Y023426D01*
Y022726D02*
X046091D01*
Y022174D02*
Y022726D01*
X044909Y022174D02*
X046091D01*
X044909D02*
Y022726D01*
X031495Y016467D02*
X035545D01*
X031495D02*
Y016717D01*
X030495D02*
X031495D01*
X030495Y016467D02*
Y016717D01*
X026445Y016467D02*
X030495D01*
X026445D02*
Y020017D01*
X035545D01*
Y016467D02*
Y020017D01*
D50*
X030186Y027274D02*
G03*
X030186Y027274I-000049J0D01*
G01*
X038347Y021215D02*
G03*
X038347Y021215I-000049J0D01*
G01*
X04072Y033928D02*
G03*
X04072Y033928I-000049J0D01*
G01*
D51*
X03532Y031582D02*
G03*
X03532Y031582I-000118J0D01*
G01*
X022814Y022146D02*
Y029213D01*
X018641Y022146D02*
Y029213D01*
Y022146D02*
X022814D01*
X018641Y029213D02*
X022814D01*
X029841Y027047D02*
X032479D01*
X029841Y028071D02*
X032479D01*
X029841Y027047D02*
Y028071D01*
X032479Y027047D02*
Y028071D01*
X036934Y031346D02*
Y032054D01*
X034966Y031346D02*
Y032054D01*
X036934D01*
X034966Y031346D02*
X036934D01*
X041723Y021727D02*
Y025073D01*
X038377Y021727D02*
Y025073D01*
X041723D01*
X038377Y021727D02*
X041723D01*
X036669Y037741D02*
X038249D01*
Y035881D02*
Y037741D01*
X036669Y035881D02*
X038249D01*
X036669D02*
Y037741D01*
X034701Y037741D02*
X036281D01*
Y035881D02*
Y037741D01*
X034701Y035881D02*
X036281D01*
X034701D02*
Y037741D01*
X03912Y037782D02*
X03962D01*
X03912Y036679D02*
X03962D01*
X03912D02*
Y037782D01*
X03962Y036679D02*
Y037782D01*
X0391Y036451D02*
X0396D01*
X0391Y035349D02*
X0396D01*
X0391D02*
Y036451D01*
X0396Y035349D02*
Y036451D01*
X042661Y044289D02*
Y04479D01*
X04144Y044289D02*
Y04479D01*
X042661D01*
X04144Y044289D02*
X042661D01*
X04091Y0443D02*
Y0448D01*
X03969Y0443D02*
Y0448D01*
X04091D01*
X03969Y0443D02*
X04091D01*
X041261Y030361D02*
Y033833D01*
X041995Y029861D02*
Y033833D01*
X041261D02*
X041995D01*
X041261Y029861D02*
X041995D01*
X041261D02*
Y033333D01*
D52*
X038889Y02212D02*
G03*
X038889Y02212I-000118J0D01*
G01*
D53*
X013592Y031103D02*
X015992D01*
X015742Y030353D02*
X015992D01*
Y033153D01*
X015742D02*
X015992D01*
X013592D02*
X013842D01*
X013592Y030353D02*
Y033153D01*
Y030353D02*
X013842D01*
X02304Y023032D02*
X02544D01*
X02519Y022282D02*
X02544D01*
Y025082D01*
X02519D02*
X02544D01*
X02304D02*
X02329D01*
X02304Y022282D02*
Y025082D01*
Y022282D02*
X02329D01*
D54*
X03089Y0184D02*
X03109D01*
Y0183D01*
X031057Y018267D01*
X03099D01*
X030957Y0183D01*
Y0184D01*
X03089Y0182D02*
Y018133D01*
Y018167D01*
X03109D01*
X031057Y0182D01*
X04523Y02235D02*
Y02255D01*
X04533D01*
X045363Y022517D01*
Y02245D01*
X04533Y022417D01*
X04523D01*
X045297D02*
X045363Y02235D01*
X045563D02*
X04543D01*
X045563Y022483D01*
Y022517D01*
X04553Y02255D01*
X045463D01*
X04543Y022517D01*
X04563D02*
X045663Y02255D01*
X04573D01*
X045763Y022517D01*
Y022483D01*
X04573Y02245D01*
X045697D01*
X04573D01*
X045763Y022417D01*
Y022383D01*
X04573Y02235D01*
X045663D01*
X04563Y022383D01*
X04523Y02305D02*
Y02325D01*
X04533D01*
X045363Y023217D01*
Y02315D01*
X04533Y023117D01*
X04523D01*
X045297D02*
X045363Y02305D01*
X045563D02*
X04543D01*
X045563Y023183D01*
Y023217D01*
X04553Y02325D01*
X045463D01*
X04543Y023217D01*
X04573Y02305D02*
Y02325D01*
X04563Y02315D01*
X045763D01*
X04523Y02375D02*
Y02395D01*
X04533D01*
X045363Y023917D01*
Y02385D01*
X04533Y023817D01*
X04523D01*
X045297D02*
X045363Y02375D01*
X045563D02*
X04543D01*
X045563Y023883D01*
Y023917D01*
X04553Y02395D01*
X045463D01*
X04543Y023917D01*
X045763Y02375D02*
X04563D01*
X045763Y023883D01*
Y023917D01*
X04573Y02395D01*
X045663D01*
X04563Y023917D01*
X04527Y02445D02*
Y02465D01*
X04537D01*
X045403Y024617D01*
Y02455D01*
X04537Y024517D01*
X04527D01*
X045337D02*
X045403Y02445D01*
X045603D02*
X04547D01*
X045603Y024583D01*
Y024617D01*
X04557Y02465D01*
X045503D01*
X04547Y024617D01*
X04567Y02445D02*
X045737D01*
X045703D01*
Y02465D01*
X04567Y024617D01*
X0401Y02723D02*
X0399D01*
Y02733D01*
X039933Y027363D01*
X04D01*
X040033Y02733D01*
Y02723D01*
Y027297D02*
X0401Y027363D01*
Y027563D02*
Y02743D01*
X039967Y027563D01*
X039933D01*
X0399Y02753D01*
Y027463D01*
X039933Y02743D01*
X0399Y027763D02*
X039933Y027697D01*
X04Y02763D01*
X040067D01*
X0401Y027663D01*
Y02773D01*
X040067Y027763D01*
X040033D01*
X04Y02773D01*
Y02763D01*
X0394Y02727D02*
X0392D01*
Y02737D01*
X039233Y027403D01*
X0393D01*
X039333Y02737D01*
Y02727D01*
Y027337D02*
X0394Y027403D01*
X039233Y02747D02*
X0392Y027503D01*
Y02757D01*
X039233Y027603D01*
X039267D01*
X0393Y02757D01*
Y027537D01*
Y02757D01*
X039333Y027603D01*
X039367D01*
X0394Y02757D01*
Y027503D01*
X039367Y02747D01*
X0394Y02767D02*
Y027737D01*
Y027703D01*
X0392D01*
X039233Y02767D01*
X03545Y02907D02*
X03565D01*
Y02897D01*
X035617Y028937D01*
X03555D01*
X035517Y02897D01*
Y02907D01*
Y029003D02*
X03545Y028937D01*
Y028737D02*
Y02887D01*
X035583Y028737D01*
X035617D01*
X03565Y02877D01*
Y028837D01*
X035617Y02887D01*
X035483Y02867D02*
X03545Y028637D01*
Y02857D01*
X035483Y028537D01*
X035617D01*
X03565Y02857D01*
Y028637D01*
X035617Y02867D01*
X035583D01*
X03555Y028637D01*
Y028537D01*
X04015Y04342D02*
X04035D01*
Y04332D01*
X040317Y043287D01*
X04025D01*
X040217Y04332D01*
Y04342D01*
Y043353D02*
X04015Y043287D01*
Y043087D02*
Y04322D01*
X040283Y043087D01*
X040317D01*
X04035Y04312D01*
Y043187D01*
X040317Y04322D01*
X04035Y04302D02*
Y042887D01*
X040317D01*
X040183Y04302D01*
X04015D01*
X04188Y0429D02*
Y0431D01*
X04198D01*
X042013Y043067D01*
Y043D01*
X04198Y042967D01*
X04188D01*
X041947D02*
X042013Y0429D01*
X04208Y043067D02*
X042113Y0431D01*
X04218D01*
X042213Y043067D01*
Y043033D01*
X04218Y043D01*
X042213Y042967D01*
Y042933D01*
X04218Y0429D01*
X042113D01*
X04208Y042933D01*
Y042967D01*
X042113Y043D01*
X04208Y043033D01*
Y043067D01*
X042113Y043D02*
X04218D01*
X039433Y030467D02*
X0394Y0305D01*
X039333D01*
X0393Y030467D01*
Y030333D01*
X039333Y0303D01*
X0394D01*
X039433Y030333D01*
X0395Y0303D02*
X039567D01*
X039533D01*
Y0305D01*
X0395Y030467D01*
X0398Y0305D02*
X039667D01*
Y0304D01*
X039733Y030433D01*
X039767D01*
X0398Y0304D01*
Y030333D01*
X039767Y0303D01*
X0397D01*
X039667Y030333D01*
X039433Y031867D02*
X0394Y0319D01*
X039333D01*
X0393Y031867D01*
Y031733D01*
X039333Y0317D01*
X0394D01*
X039433Y031733D01*
X0395Y0317D02*
X039567D01*
X039533D01*
Y0319D01*
X0395Y031867D01*
X0398Y0317D02*
X039667D01*
X0398Y031833D01*
Y031867D01*
X039767Y0319D01*
X0397D01*
X039667Y031867D01*
X041287Y034333D02*
X04132Y0343D01*
X041387D01*
X04142Y034333D01*
Y034467D01*
X041387Y0345D01*
X04132D01*
X041287Y034467D01*
X041087Y0343D02*
X041153Y034333D01*
X04122Y0344D01*
Y034467D01*
X041187Y0345D01*
X04112D01*
X041087Y034467D01*
Y034433D01*
X04112Y0344D01*
X04122D01*
X039617Y033237D02*
X03965Y03327D01*
Y033337D01*
X039617Y03337D01*
X039483D01*
X03945Y033337D01*
Y03327D01*
X039483Y033237D01*
X03965Y033037D02*
Y03317D01*
X03955D01*
X039583Y033103D01*
Y03307D01*
X03955Y033037D01*
X039483D01*
X03945Y03307D01*
Y033137D01*
X039483Y03317D01*
X015493Y027247D02*
X01546Y02728D01*
X015393D01*
X01536Y027247D01*
Y027113D01*
X015393Y02708D01*
X01546D01*
X015493Y027113D01*
X015693Y02708D02*
X01556D01*
X015693Y027213D01*
Y027247D01*
X01566Y02728D01*
X015593D01*
X01556Y027247D01*
X01576Y02708D02*
X015827D01*
X015793D01*
Y02728D01*
X01576Y027247D01*
X015926Y027047D02*
X01606D01*
X016226Y02708D02*
X01616D01*
X016126Y027113D01*
Y02718D01*
X01616Y027213D01*
X016226D01*
X01626Y02718D01*
Y027147D01*
X016126D01*
X04655Y02812D02*
X04675D01*
Y02802D01*
X046717Y027987D01*
X04665D01*
X046617Y02802D01*
Y02812D01*
X04675Y02792D02*
Y027787D01*
X046717D01*
X046583Y02792D01*
X04655D01*
X03645Y04734D02*
Y04754D01*
X03655D01*
X036583Y047507D01*
Y04744D01*
X03655Y047407D01*
X03645D01*
X03675Y04734D02*
Y04754D01*
X03665Y04744D01*
X036783D01*
X04655Y03993D02*
X04675D01*
Y03983D01*
X046717Y039797D01*
X04665D01*
X046617Y03983D01*
Y03993D01*
X04675Y039597D02*
X046717Y039663D01*
X04665Y03973D01*
X046583D01*
X04655Y039697D01*
Y03963D01*
X046583Y039597D01*
X046617D01*
X04665Y03963D01*
Y03973D01*
X04137Y03202D02*
Y031853D01*
X041403Y03182D01*
X04147D01*
X041503Y031853D01*
Y03202D01*
X04157Y03182D02*
X041637D01*
X041603D01*
Y03202D01*
X04157Y031987D01*
X041737D02*
X04177Y03202D01*
X041837D01*
X04187Y031987D01*
Y031853D01*
X041837Y03182D01*
X04177D01*
X041737Y031853D01*
Y031987D01*
X042513Y034467D02*
X04248Y0345D01*
X042413D01*
X04238Y034467D01*
Y034333D01*
X042413Y0343D01*
X04248D01*
X042513Y034333D01*
X04258Y0345D02*
X042713D01*
Y034467D01*
X04258Y034333D01*
Y0343D01*
X0404Y04472D02*
X040233D01*
X0402Y044687D01*
Y04462D01*
X040233Y044587D01*
X0404D01*
X040233Y04452D02*
X0402Y044487D01*
Y04442D01*
X040233Y044387D01*
X040367D01*
X0404Y04442D01*
Y044487D01*
X040367Y04452D01*
X040333D01*
X0403Y044487D01*
Y044387D01*
X04215Y04471D02*
X041983D01*
X04195Y044677D01*
Y04461D01*
X041983Y044577D01*
X04215D01*
Y044377D02*
Y04451D01*
X04205D01*
X042083Y044443D01*
Y04441D01*
X04205Y044377D01*
X041983D01*
X04195Y04441D01*
Y044477D01*
X041983Y04451D01*
X0404Y04698D02*
X0402D01*
Y04708D01*
X040233Y047113D01*
X0403D01*
X040333Y04708D01*
Y04698D01*
Y047047D02*
X0404Y047113D01*
X040233Y04718D02*
X0402Y047213D01*
Y04728D01*
X040233Y047313D01*
X040267D01*
X0403Y04728D01*
Y047247D01*
Y04728D01*
X040333Y047313D01*
X040367D01*
X0404Y04728D01*
Y047213D01*
X040367Y04718D01*
X040233Y04738D02*
X0402Y047413D01*
Y04748D01*
X040233Y047513D01*
X040367D01*
X0404Y04748D01*
Y047413D01*
X040367Y04738D01*
X040233D01*
X04216Y04555D02*
X04196D01*
Y04565D01*
X041993Y045683D01*
X04206D01*
X042093Y04565D01*
Y04555D01*
Y045617D02*
X04216Y045683D01*
Y04575D02*
Y045817D01*
Y045783D01*
X04196D01*
X041993Y04575D01*
X042127Y045917D02*
X04216Y04595D01*
Y046017D01*
X042127Y04605D01*
X041993D01*
X04196Y046017D01*
Y04595D01*
X041993Y045917D01*
X042027D01*
X04206Y04595D01*
Y04605D01*
X04217Y0463D02*
X04197D01*
Y0464D01*
X042003Y046433D01*
X04207D01*
X042103Y0464D01*
Y0463D01*
Y046367D02*
X04217Y046433D01*
Y0465D02*
Y046567D01*
Y046533D01*
X04197D01*
X042003Y0465D01*
Y046667D02*
X04197Y0467D01*
Y046767D01*
X042003Y0468D01*
X042037D01*
X04207Y046767D01*
X042103Y0468D01*
X042137D01*
X04217Y046767D01*
Y0467D01*
X042137Y046667D01*
X042103D01*
X04207Y0467D01*
X042037Y046667D01*
X042003D01*
X04207Y0467D02*
Y046767D01*
X04265Y04105D02*
X04245D01*
Y04115D01*
X042483Y041183D01*
X04255D01*
X042583Y04115D01*
Y04105D01*
Y041117D02*
X04265Y041183D01*
Y04125D02*
Y041317D01*
Y041283D01*
X04245D01*
X042483Y04125D01*
X04245Y041417D02*
Y04155D01*
X042483D01*
X042617Y041417D01*
X04265D01*
Y04035D02*
X04245D01*
Y04045D01*
X042483Y040483D01*
X04255D01*
X042583Y04045D01*
Y04035D01*
Y040417D02*
X04265Y040483D01*
Y04055D02*
Y040617D01*
Y040583D01*
X04245D01*
X042483Y04055D01*
X04245Y04085D02*
X042483Y040783D01*
X04255Y040717D01*
X042617D01*
X04265Y04075D01*
Y040817D01*
X042617Y04085D01*
X042583D01*
X04255Y040817D01*
Y040717D01*
X0404Y04556D02*
X0402D01*
Y04566D01*
X040233Y045693D01*
X0403D01*
X040333Y04566D01*
Y04556D01*
Y045627D02*
X0404Y045693D01*
Y04576D02*
Y045827D01*
Y045793D01*
X0402D01*
X040233Y04576D01*
X0402Y04606D02*
Y045927D01*
X0403D01*
X040267Y045993D01*
Y046027D01*
X0403Y04606D01*
X040367D01*
X0404Y046027D01*
Y04596D01*
X040367Y045927D01*
X04041Y04629D02*
X04021D01*
Y04639D01*
X040243Y046423D01*
X04031D01*
X040343Y04639D01*
Y04629D01*
Y046357D02*
X04041Y046423D01*
Y04649D02*
Y046557D01*
Y046523D01*
X04021D01*
X040243Y04649D01*
X04041Y046757D02*
X04021D01*
X04031Y046657D01*
Y04679D01*
X04265Y03895D02*
X04245D01*
Y03905D01*
X042483Y039083D01*
X04255D01*
X042583Y03905D01*
Y03895D01*
Y039017D02*
X04265Y039083D01*
Y03915D02*
Y039217D01*
Y039183D01*
X04245D01*
X042483Y03915D01*
Y039317D02*
X04245Y03935D01*
Y039417D01*
X042483Y03945D01*
X042517D01*
X04255Y039417D01*
Y039383D01*
Y039417D01*
X042583Y03945D01*
X042617D01*
X04265Y039417D01*
Y03935D01*
X042617Y039317D01*
X04265Y03685D02*
X04245D01*
Y03695D01*
X042483Y036983D01*
X04255D01*
X042583Y03695D01*
Y03685D01*
Y036917D02*
X04265Y036983D01*
Y03705D02*
Y037117D01*
Y037083D01*
X04245D01*
X042483Y03705D01*
X04265Y03735D02*
Y037217D01*
X042517Y03735D01*
X042483D01*
X04245Y037317D01*
Y03725D01*
X042483Y037217D01*
X04183Y04715D02*
Y04735D01*
X04193D01*
X041963Y047317D01*
Y04725D01*
X04193Y047217D01*
X04183D01*
X041897D02*
X041963Y04715D01*
X04203D02*
X042097D01*
X042063D01*
Y04735D01*
X04203Y047317D01*
X042197Y04715D02*
X042263D01*
X04223D01*
Y04735D01*
X042197Y047317D01*
X04157Y04977D02*
Y04997D01*
X04167D01*
X041703Y049937D01*
Y04987D01*
X04167Y049837D01*
X04157D01*
X041903Y04997D02*
X04177D01*
Y04987D01*
X041837Y049903D01*
X04187D01*
X041903Y04987D01*
Y049803D01*
X04187Y04977D01*
X041803D01*
X04177Y049803D01*
X042617Y037917D02*
X04265Y03795D01*
Y038017D01*
X042617Y03805D01*
X042483D01*
X04245Y038017D01*
Y03795D01*
X042483Y037917D01*
X04245Y03785D02*
Y037783D01*
Y037817D01*
X04265D01*
X042617Y03785D01*
X04265Y03755D02*
X042617Y037617D01*
X04255Y037683D01*
X042483D01*
X04245Y03765D01*
Y037583D01*
X042483Y03755D01*
X042517D01*
X04255Y037583D01*
Y037683D01*
X042513Y042067D02*
X04248Y0421D01*
X042413D01*
X04238Y042067D01*
Y041933D01*
X042413Y0419D01*
X04248D01*
X042513Y041933D01*
X04258Y042067D02*
X042613Y0421D01*
X04268D01*
X042713Y042067D01*
Y042033D01*
X04268Y042D01*
X042647D01*
X04268D01*
X042713Y041967D01*
Y041933D01*
X04268Y0419D01*
X042613D01*
X04258Y041933D01*
X042513Y039967D02*
X04248Y04D01*
X042413D01*
X04238Y039967D01*
Y039833D01*
X042413Y0398D01*
X04248D01*
X042513Y039833D01*
X042713Y0398D02*
X04258D01*
X042713Y039933D01*
Y039967D01*
X04268Y04D01*
X042613D01*
X04258Y039967D01*
X042553Y038567D02*
X04252Y0386D01*
X042453D01*
X04242Y038567D01*
Y038433D01*
X042453Y0384D01*
X04252D01*
X042553Y038433D01*
X04262Y0384D02*
X042687D01*
X042653D01*
Y0386D01*
X04262Y038567D01*
X03918Y036D02*
X039313D01*
X039247D01*
Y0358D01*
X039513Y036D02*
X039447Y035967D01*
X03938Y0359D01*
Y035833D01*
X039413Y0358D01*
X03948D01*
X039513Y035833D01*
Y035867D01*
X03948Y0359D01*
X03938D01*
X0392Y03733D02*
X039333D01*
X039267D01*
Y03713D01*
X039533Y03733D02*
X0394D01*
Y03723D01*
X039467Y037263D01*
X0395D01*
X039533Y03723D01*
Y037163D01*
X0395Y03713D01*
X039433D01*
X0394Y037163D01*
X03535Y03497D02*
X03555D01*
Y03487D01*
X035517Y034837D01*
X03545D01*
X035417Y03487D01*
Y03497D01*
Y034903D02*
X03535Y034837D01*
X035383Y03477D02*
X03535Y034737D01*
Y03467D01*
X035383Y034637D01*
X035517D01*
X03555Y03467D01*
Y034737D01*
X035517Y03477D01*
X035483D01*
X03545Y034737D01*
Y034637D01*
X03555Y034437D02*
X035517Y034503D01*
X03545Y03457D01*
X035383D01*
X03535Y034537D01*
Y03447D01*
X035383Y034437D01*
X035417D01*
X03545Y03447D01*
Y03457D01*
X03695Y02855D02*
X03675D01*
Y02865D01*
X036783Y028683D01*
X03685D01*
X036883Y02865D01*
Y02855D01*
Y028617D02*
X03695Y028683D01*
Y02875D02*
Y028817D01*
Y028783D01*
X03675D01*
X036783Y02875D01*
Y028917D02*
X03675Y02895D01*
Y029017D01*
X036783Y02905D01*
X036917D01*
X03695Y029017D01*
Y02895D01*
X036917Y028917D01*
X036783D01*
X03572Y0216D02*
Y0214D01*
X03562D01*
X035587Y021433D01*
Y0215D01*
X03562Y021533D01*
X03572D01*
X035653D02*
X035587Y0216D01*
X035387D02*
X03552D01*
X035387Y021467D01*
Y021433D01*
X03542Y0214D01*
X035487D01*
X03552Y021433D01*
X03532D02*
X035287Y0214D01*
X03522D01*
X035187Y021433D01*
Y021467D01*
X03522Y0215D01*
X035187Y021533D01*
Y021567D01*
X03522Y0216D01*
X035287D01*
X03532Y021567D01*
Y021533D01*
X035287Y0215D01*
X03532Y021467D01*
Y021433D01*
X035287Y0215D02*
X03522D01*
X03572Y0297D02*
Y0295D01*
X03562D01*
X035587Y029533D01*
Y0296D01*
X03562Y029633D01*
X03572D01*
X035653D02*
X035587Y0297D01*
X035387Y0295D02*
X035453Y029533D01*
X03552Y0296D01*
Y029667D01*
X035487Y0297D01*
X03542D01*
X035387Y029667D01*
Y029633D01*
X03542Y0296D01*
X03552D01*
X04065Y03573D02*
X04045D01*
Y03583D01*
X040483Y035863D01*
X04055D01*
X040583Y03583D01*
Y03573D01*
Y035797D02*
X04065Y035863D01*
Y03603D02*
X04045D01*
X04055Y03593D01*
Y036063D01*
X03625Y0213D02*
X03605D01*
Y0214D01*
X036083Y021433D01*
X03615D01*
X036183Y0214D01*
Y0213D01*
Y021367D02*
X03625Y021433D01*
X036083Y0215D02*
X03605Y021533D01*
Y0216D01*
X036083Y021633D01*
X036117D01*
X03615Y0216D01*
Y021567D01*
Y0216D01*
X036183Y021633D01*
X036217D01*
X03625Y0216D01*
Y021533D01*
X036217Y0215D01*
X03728Y0346D02*
Y0348D01*
X03738D01*
X037413Y034767D01*
Y0347D01*
X03738Y034667D01*
X03728D01*
X037347D02*
X037413Y0346D01*
X037613D02*
X03748D01*
X037613Y034733D01*
Y034767D01*
X03758Y0348D01*
X037513D01*
X03748Y034767D01*
X03645Y04951D02*
Y04971D01*
X03655D01*
X036583Y049677D01*
Y04961D01*
X03655Y049577D01*
X03645D01*
X03665Y049677D02*
X036683Y04971D01*
X03675D01*
X036783Y049677D01*
Y049643D01*
X03675Y04961D01*
X036717D01*
X03675D01*
X036783Y049577D01*
Y049543D01*
X03675Y04951D01*
X036683D01*
X03665Y049543D01*
X01912Y04951D02*
Y04971D01*
X01922D01*
X019253Y049677D01*
Y04961D01*
X01922Y049577D01*
X01912D01*
X019453Y04951D02*
X01932D01*
X019453Y049643D01*
Y049677D01*
X01942Y04971D01*
X019353D01*
X01932Y049677D01*
X04065Y03717D02*
X04045D01*
Y03727D01*
X040483Y037303D01*
X04055D01*
X040583Y03727D01*
Y03717D01*
Y037237D02*
X04065Y037303D01*
Y03737D02*
Y037437D01*
Y037403D01*
X04045D01*
X040483Y03737D01*
X03532Y03691D02*
Y036743D01*
X035353Y03671D01*
X03542D01*
X035453Y036743D01*
Y03691D01*
X03562Y03671D02*
Y03691D01*
X03552Y03681D01*
X035653D01*
X03729Y03691D02*
Y036743D01*
X037323Y03671D01*
X03739D01*
X037423Y036743D01*
Y03691D01*
X037623Y03671D02*
X03749D01*
X037623Y036843D01*
Y036877D01*
X03759Y03691D01*
X037523D01*
X03749Y036877D01*
X03094Y03728D02*
X031073D01*
X031007D01*
Y03708D01*
X03124D02*
Y03728D01*
X03114Y03718D01*
X031273D01*
X02464Y03728D02*
X024773D01*
X024707D01*
Y03708D01*
X02484Y037247D02*
X024873Y03728D01*
X02494D01*
X024973Y037247D01*
Y037213D01*
X02494Y03718D01*
X024907D01*
X02494D01*
X024973Y037147D01*
Y037113D01*
X02494Y03708D01*
X024873D01*
X02484Y037113D01*
X03094Y04634D02*
X031073D01*
X031007D01*
Y04614D01*
X031273D02*
X03114D01*
X031273Y046273D01*
Y046307D01*
X03124Y04634D01*
X031173D01*
X03114Y046307D01*
X03995Y02323D02*
X040117D01*
X04015Y023263D01*
Y02333D01*
X040117Y023363D01*
X03995D01*
X039983Y02343D02*
X03995Y023463D01*
Y02353D01*
X039983Y023563D01*
X040017D01*
X04005Y02353D01*
Y023497D01*
Y02353D01*
X040083Y023563D01*
X040117D01*
X04015Y02353D01*
Y023463D01*
X040117Y02343D01*
X03585Y03157D02*
X036017D01*
X03605Y031603D01*
Y03167D01*
X036017Y031703D01*
X03585D01*
X03605Y03177D02*
Y031837D01*
Y031803D01*
X03585D01*
X035883Y03177D01*
X02467Y04634D02*
X024803D01*
X024737D01*
Y04614D01*
X02487D02*
X024937D01*
X024903D01*
Y04634D01*
X02487Y046307D01*
X04388Y0203D02*
Y0205D01*
X04398D01*
X044013Y020467D01*
Y0204D01*
X04398Y020367D01*
X04388D01*
X043947D02*
X044013Y0203D01*
X044213Y0205D02*
X04408D01*
Y0204D01*
X044147Y020433D01*
X04418D01*
X044213Y0204D01*
Y020333D01*
X04418Y0203D01*
X044113D01*
X04408Y020333D01*
X03668Y0295D02*
Y0297D01*
X03678D01*
X036813Y029667D01*
Y0296D01*
X03678Y029567D01*
X03668D01*
X036747D02*
X036813Y0295D01*
X03688Y0297D02*
X037013D01*
Y029667D01*
X03688Y029533D01*
Y0295D01*
X043113Y020467D02*
X04308Y0205D01*
X043013D01*
X04298Y020467D01*
Y020333D01*
X043013Y0203D01*
X04308D01*
X043113Y020333D01*
X043313Y0203D02*
X04318D01*
X043313Y020433D01*
Y020467D01*
X04328Y0205D01*
X043213D01*
X04318Y020467D01*
X04338D02*
X043413Y0205D01*
X04348D01*
X043513Y020467D01*
Y020433D01*
X04348Y0204D01*
X043513Y020367D01*
Y020333D01*
X04348Y0203D01*
X043413D01*
X04338Y020333D01*
Y020367D01*
X043413Y0204D01*
X04338Y020433D01*
Y020467D01*
X043413Y0204D02*
X04348D01*
X043183Y021713D02*
X04315Y02168D01*
Y021613D01*
X043183Y02158D01*
X043317D01*
X04335Y021613D01*
Y02168D01*
X043317Y021713D01*
X04335Y02178D02*
Y021847D01*
Y021813D01*
X04315D01*
X043183Y02178D01*
X04335Y021947D02*
Y022013D01*
Y02198D01*
X04315D01*
X043183Y021947D01*
X043033Y025567D02*
X043Y0256D01*
X042933D01*
X0429Y025567D01*
Y025433D01*
X042933Y0254D01*
X043D01*
X043033Y025433D01*
X0431Y0254D02*
X043167D01*
X043133D01*
Y0256D01*
X0431Y025567D01*
X043267D02*
X0433Y0256D01*
X043367D01*
X0434Y025567D01*
Y025433D01*
X043367Y0254D01*
X0433D01*
X043267Y025433D01*
Y025567D01*
X038087Y026433D02*
X03812Y0264D01*
X038187D01*
X03822Y026433D01*
Y026567D01*
X038187Y0266D01*
X03812D01*
X038087Y026567D01*
X03802D02*
X037987Y0266D01*
X03792D01*
X037887Y026567D01*
Y026433D01*
X03792Y0264D01*
X037987D01*
X03802Y026433D01*
Y026467D01*
X037987Y0265D01*
X037887D01*
X036917Y021537D02*
X03695Y02157D01*
Y021637D01*
X036917Y02167D01*
X036783D01*
X03675Y021637D01*
Y02157D01*
X036783Y021537D01*
X036917Y02147D02*
X03695Y021437D01*
Y02137D01*
X036917Y021337D01*
X036883D01*
X03685Y02137D01*
X036817Y021337D01*
X036783D01*
X03675Y02137D01*
Y021437D01*
X036783Y02147D01*
X036817D01*
X03685Y021437D01*
X036883Y02147D01*
X036917D01*
X03685Y021437D02*
Y02137D01*
X015473Y022917D02*
X01544Y02295D01*
X015373D01*
X01534Y022917D01*
Y022783D01*
X015373Y02275D01*
X01544D01*
X015473Y022783D01*
X015673Y02275D02*
X01554D01*
X015673Y022883D01*
Y022917D01*
X01564Y02295D01*
X015573D01*
X01554Y022917D01*
X015873Y02275D02*
X01574D01*
X015873Y022883D01*
Y022917D01*
X01584Y02295D01*
X015773D01*
X01574Y022917D01*
X01594Y022717D02*
X016073D01*
X01624Y02275D02*
X016173D01*
X01614Y022783D01*
Y02285D01*
X016173Y022883D01*
X01624D01*
X016273Y02285D01*
Y022817D01*
X01614D01*
X02451Y02356D02*
Y02376D01*
X02441D01*
X024377Y023727D01*
Y023593D01*
X02441Y02356D01*
X02451D01*
X024177Y02376D02*
X02431D01*
X024177Y023627D01*
Y023593D01*
X02421Y02356D01*
X024277D01*
X02431Y023593D01*
X023977Y02376D02*
X02411D01*
X023977Y023627D01*
Y023593D01*
X02401Y02356D01*
X024077D01*
X02411Y023593D01*
X01506Y03163D02*
Y03183D01*
X01496D01*
X014927Y031797D01*
Y031663D01*
X01496Y03163D01*
X01506D01*
X014727Y03183D02*
X01486D01*
X014727Y031697D01*
Y031663D01*
X01476Y03163D01*
X014827D01*
X01486Y031663D01*
X01466D02*
X014627Y03163D01*
X01456D01*
X014527Y031663D01*
Y031697D01*
X01456Y03173D01*
X014593D01*
X01456D01*
X014527Y031763D01*
Y031797D01*
X01456Y03183D01*
X014627D01*
X01466Y031797D01*
X025487Y027883D02*
X02552Y02785D01*
X025587D01*
X02562Y027883D01*
Y028017D01*
X025587Y02805D01*
X02552D01*
X025487Y028017D01*
X02532Y02805D02*
Y02785D01*
X02542Y02795D01*
X025287D01*
X016523Y019963D02*
X01649Y01993D01*
Y019863D01*
X016523Y01983D01*
X016657D01*
X01669Y019863D01*
Y01993D01*
X016657Y019963D01*
X01669Y02003D02*
Y020097D01*
Y020063D01*
X01649D01*
X016523Y02003D01*
X01649Y020197D02*
Y02033D01*
X016523D01*
X016657Y020197D01*
X01669D01*
X026897Y025317D02*
X02693Y02535D01*
Y025417D01*
X026897Y02545D01*
X026763D01*
X02673Y025417D01*
Y02535D01*
X026763Y025317D01*
X02673Y02525D02*
Y025183D01*
Y025217D01*
X02693D01*
X026897Y02525D01*
Y025083D02*
X02693Y02505D01*
Y024983D01*
X026897Y02495D01*
X026863D01*
X02683Y024983D01*
X026797Y02495D01*
X026763D01*
X02673Y024983D01*
Y02505D01*
X026763Y025083D01*
X026797D01*
X02683Y02505D01*
X026863Y025083D01*
X026897D01*
X02683Y02505D02*
Y024983D01*
X026563Y024083D02*
X02653Y02405D01*
Y023983D01*
X026563Y02395D01*
X026697D01*
X02673Y023983D01*
Y02405D01*
X026697Y024083D01*
X02673Y024283D02*
Y02415D01*
X026597Y024283D01*
X026563D01*
X02653Y02425D01*
Y024183D01*
X026563Y02415D01*
Y02435D02*
X02653Y024383D01*
Y02445D01*
X026563Y024483D01*
X026697D01*
X02673Y02445D01*
Y024383D01*
X026697Y02435D01*
X026563D01*
X016883Y019157D02*
X01685Y01919D01*
X016783D01*
X01675Y019157D01*
Y019023D01*
X016783Y01899D01*
X01685D01*
X016883Y019023D01*
X017083Y01899D02*
X01695D01*
X017083Y019123D01*
Y019157D01*
X01705Y01919D01*
X016983D01*
X01695Y019157D01*
X01715Y01899D02*
X017217D01*
X017183D01*
Y01919D01*
X01715Y019157D01*
X032017Y025527D02*
X03205Y02556D01*
Y025627D01*
X032017Y02566D01*
X031883D01*
X03185Y025627D01*
Y02556D01*
X031883Y025527D01*
X03185Y025327D02*
Y02546D01*
X031983Y025327D01*
X032017D01*
X03205Y02536D01*
Y025427D01*
X032017Y02546D01*
X031883Y02526D02*
X03185Y025227D01*
Y02516D01*
X031883Y025127D01*
X032017D01*
X03205Y02516D01*
Y025227D01*
X032017Y02526D01*
X031983D01*
X03195Y025227D01*
Y025127D01*
X032993Y027237D02*
X03296Y02727D01*
X032893D01*
X03286Y027237D01*
Y027103D01*
X032893Y02707D01*
X03296D01*
X032993Y027103D01*
X03306Y027237D02*
X033093Y02727D01*
X03316D01*
X033193Y027237D01*
Y027203D01*
X03316Y02717D01*
X033127D01*
X03316D01*
X033193Y027137D01*
Y027103D01*
X03316Y02707D01*
X033093D01*
X03306Y027103D01*
X03326Y027237D02*
X033293Y02727D01*
X03336D01*
X033393Y027237D01*
Y027103D01*
X03336Y02707D01*
X033293D01*
X03326Y027103D01*
Y027237D01*
X030667Y025323D02*
X0307Y02529D01*
X030767D01*
X0308Y025323D01*
Y025457D01*
X030767Y02549D01*
X0307D01*
X030667Y025457D01*
X0306Y025323D02*
X030567Y02529D01*
X0305D01*
X030467Y025323D01*
Y025357D01*
X0305Y02539D01*
X030533D01*
X0305D01*
X030467Y025423D01*
Y025457D01*
X0305Y02549D01*
X030567D01*
X0306Y025457D01*
X0304Y02549D02*
X030333D01*
X030367D01*
Y02529D01*
X0304Y025323D01*
X029063Y027237D02*
X02903Y02727D01*
X028963D01*
X02893Y027237D01*
Y027103D01*
X028963Y02707D01*
X02903D01*
X029063Y027103D01*
X02913Y027237D02*
X029163Y02727D01*
X02923D01*
X029263Y027237D01*
Y027203D01*
X02923Y02717D01*
X029197D01*
X02923D01*
X029263Y027137D01*
Y027103D01*
X02923Y02707D01*
X029163D01*
X02913Y027103D01*
X029463Y02707D02*
X02933D01*
X029463Y027203D01*
Y027237D01*
X02943Y02727D01*
X029363D01*
X02933Y027237D01*
X02594Y0232D02*
X02614D01*
Y0231D01*
X026107Y023067D01*
X02604D01*
X026007Y0231D01*
Y0232D01*
Y023133D02*
X02594Y023067D01*
X025973Y023D02*
X02594Y022967D01*
Y0229D01*
X025973Y022867D01*
X026107D01*
X02614Y0229D01*
Y022967D01*
X026107Y023D01*
X026073D01*
X02604Y022967D01*
Y022867D01*
X02578Y02155D02*
Y02175D01*
X02588D01*
X025913Y021717D01*
Y02165D01*
X02588Y021617D01*
X02578D01*
X025847D02*
X025913Y02155D01*
X026113D02*
X02598D01*
X026113Y021683D01*
Y021717D01*
X02608Y02175D01*
X026013D01*
X02598Y021717D01*
X026313Y02175D02*
X02618D01*
Y02165D01*
X026247Y021683D01*
X02628D01*
X026313Y02165D01*
Y021583D01*
X02628Y02155D01*
X026213D01*
X02618Y021583D01*
X03106Y02739D02*
X031227D01*
X03126Y027423D01*
Y02749D01*
X031227Y027523D01*
X03106D01*
Y02759D02*
Y027723D01*
X031093D01*
X031227Y02759D01*
X03126D01*
X02079Y01941D02*
Y01921D01*
X020923D01*
X02099D02*
X021057D01*
X021023D01*
Y01941D01*
X02099Y019377D01*
X02056Y02578D02*
Y025613D01*
X020593Y02558D01*
X02066D01*
X020693Y025613D01*
Y02578D01*
X020893D02*
X020827Y025747D01*
X02076Y02568D01*
Y025613D01*
X020793Y02558D01*
X02086D01*
X020893Y025613D01*
Y025647D01*
X02086Y02568D01*
X02076D01*
X038883Y018983D02*
X03885Y01895D01*
Y018883D01*
X038883Y01885D01*
X039017D01*
X03905Y018883D01*
Y01895D01*
X039017Y018983D01*
X03905Y01905D02*
Y019117D01*
Y019083D01*
X03885D01*
X038883Y01905D01*
Y019217D02*
X03885Y01925D01*
Y019317D01*
X038883Y01935D01*
X038917D01*
X03895Y019317D01*
Y019283D01*
Y019317D01*
X038983Y01935D01*
X039017D01*
X03905Y019317D01*
Y01925D01*
X039017Y019217D01*
X040283Y018983D02*
X04025Y01895D01*
Y018883D01*
X040283Y01885D01*
X040417D01*
X04045Y018883D01*
Y01895D01*
X040417Y018983D01*
X04045Y01905D02*
Y019117D01*
Y019083D01*
X04025D01*
X040283Y01905D01*
X04045Y019317D02*
X04025D01*
X04035Y019217D01*
Y01935D01*
X04155Y01937D02*
X04175D01*
Y01927D01*
X041717Y019237D01*
X04165D01*
X041617Y01927D01*
Y01937D01*
Y019303D02*
X04155Y019237D01*
Y019037D02*
Y01917D01*
X041683Y019037D01*
X041717D01*
X04175Y01907D01*
Y019137D01*
X041717Y01917D01*
Y01897D02*
X04175Y018937D01*
Y01887D01*
X041717Y018837D01*
X041583D01*
X04155Y01887D01*
Y018937D01*
X041583Y01897D01*
X041717D01*
X04018Y01757D02*
X040213D01*
X04028Y017637D01*
X040213Y017703D01*
X04018D01*
X04028Y017637D02*
X04038D01*
Y01777D02*
Y017837D01*
Y017803D01*
X04018D01*
X040213Y01777D01*
D55*
X035294Y046653D02*
X035819D01*
X035556Y046916D02*
Y046391D01*
X037263Y046653D02*
X037787D01*
X037263Y041929D02*
X037787D01*
X035294D02*
X035819D01*
X035556Y042191D02*
Y041667D01*
X0151Y04655D02*
X01573D01*
X01552Y04634D01*
X01573Y04613D01*
X0151D01*
X01573Y045605D02*
Y045815D01*
X015625Y04592D01*
X015205D01*
X0151Y045815D01*
Y045605D01*
X015205Y0455D01*
X015625D01*
X01573Y045605D01*
Y045291D02*
Y044871D01*
Y045081D01*
X0151D01*
X01573Y044346D02*
Y044556D01*
X015625Y044661D01*
X015205D01*
X0151Y044556D01*
Y044346D01*
X015205Y044241D01*
X015625D01*
X01573Y044346D01*
X0151Y044031D02*
X01573D01*
Y043716D01*
X015625Y043611D01*
X015415D01*
X01531Y043716D01*
Y044031D01*
Y043821D02*
X0151Y043611D01*
X015625Y042352D02*
X01573Y042457D01*
Y042667D01*
X015625Y042772D01*
X015205D01*
X0151Y042667D01*
Y042457D01*
X015205Y042352D01*
X01573Y041827D02*
Y042037D01*
X015625Y042142D01*
X015205D01*
X0151Y042037D01*
Y041827D01*
X015205Y041722D01*
X015625D01*
X01573Y041827D01*
X0151Y041512D02*
X01573D01*
X0151Y041092D01*
X01573D01*
Y040883D02*
Y040463D01*
Y040673D01*
X0151D01*
Y040253D02*
X01573D01*
Y039938D01*
X015625Y039833D01*
X015415D01*
X01531Y039938D01*
Y040253D01*
Y040043D02*
X0151Y039833D01*
X01573Y039308D02*
Y039518D01*
X015625Y039623D01*
X015205D01*
X0151Y039518D01*
Y039308D01*
X015205Y039203D01*
X015625D01*
X01573Y039308D01*
Y038993D02*
X0151D01*
Y038574D01*
X01552Y037734D02*
X0151Y037524D01*
X01552Y037314D01*
X0151Y037104D02*
Y036894D01*
Y036999D01*
X01573D01*
X015625Y037104D01*
X01387Y0415D02*
X013555D01*
X01345Y041395D01*
X013555Y04129D01*
X01345Y041185D01*
X013555Y04108D01*
X01387D01*
Y04087D02*
X013555D01*
X01345Y040765D01*
X013555Y04066D01*
X01345Y040555D01*
X013555Y04045D01*
X01387D01*
Y040241D02*
X013555D01*
X01345Y040136D01*
X013555Y040031D01*
X01345Y039926D01*
X013555Y039821D01*
X01387D01*
X01345Y039611D02*
X013555D01*
Y039506D01*
X01345D01*
Y039611D01*
X01408Y038666D02*
X01345D01*
Y038981D01*
X013555Y039086D01*
X013765D01*
X01387Y038981D01*
Y038666D01*
X01345Y038456D02*
Y038246D01*
Y038351D01*
X01387D01*
Y038456D01*
Y037827D02*
Y037617D01*
X013765Y037512D01*
X01345D01*
Y037827D01*
X013555Y037932D01*
X01366Y037827D01*
Y037512D01*
X01324Y037302D02*
X01387D01*
Y036987D01*
X013765Y036882D01*
X013555D01*
X01345Y036987D01*
Y037302D01*
X01387Y036672D02*
X01345D01*
X01366D01*
X013765Y036567D01*
X01387Y036462D01*
Y036357D01*
X01345Y035938D02*
Y035728D01*
X013555Y035623D01*
X013765D01*
X01387Y035728D01*
Y035938D01*
X013765Y036042D01*
X013555D01*
X01345Y035938D01*
Y035413D02*
X013555D01*
Y035308D01*
X01345D01*
Y035413D01*
X01408Y034888D02*
X01345D01*
X013765D01*
X01387Y034783D01*
Y034573D01*
X013765Y034468D01*
X01345D01*
X01387Y034258D02*
X013555D01*
X01345Y034153D01*
Y033838D01*
X01387D01*
X01403Y04805D02*
X0134D01*
Y047735D01*
X013505Y04763D01*
X013925D01*
X01403Y047735D01*
Y04805D01*
Y04742D02*
Y04721D01*
Y047315D01*
X0134D01*
Y04742D01*
Y04721D01*
Y046896D02*
X01382D01*
X01403Y046686D01*
X01382Y046476D01*
X0134D01*
X013715D01*
Y046896D01*
X0134Y046266D02*
X01403D01*
Y045951D01*
X013925Y045846D01*
X013715D01*
X01361Y045951D01*
Y046266D01*
X0134Y045636D02*
X01403D01*
Y045321D01*
X013925Y045216D01*
X013715D01*
X01361Y045321D01*
Y045636D01*
Y045426D02*
X0134Y045216D01*
X01403Y044692D02*
Y044901D01*
X013925Y045006D01*
X013505D01*
X0134Y044901D01*
Y044692D01*
X013505Y044587D01*
X013925D01*
X01403Y044692D01*
Y043747D02*
X0134D01*
X01361D01*
X01403Y043327D01*
X013715Y043642D01*
X0134Y043327D01*
X01403Y042697D02*
Y043117D01*
X013715D01*
Y042907D01*
Y043117D01*
X0134D01*
X01403Y042488D02*
Y042068D01*
Y042278D01*
X0134D01*
X035097Y047244D02*
Y047874D01*
X035307Y047664D01*
X035517Y047874D01*
Y047244D01*
X036042Y047874D02*
X035832D01*
X035727Y047769D01*
Y047349D01*
X035832Y047244D01*
X036042D01*
X036147Y047349D01*
Y047769D01*
X036042Y047874D01*
X036357D02*
X036776D01*
X036567D01*
Y047244D01*
X037301Y047874D02*
X037091D01*
X036986Y047769D01*
Y047349D01*
X037091Y047244D01*
X037301D01*
X037406Y047349D01*
Y047769D01*
X037301Y047874D01*
X037616Y047244D02*
Y047874D01*
X037931D01*
X038036Y047769D01*
Y047559D01*
X037931Y047454D01*
X037616D01*
X037826D02*
X038036Y047244D01*
X035097Y04252D02*
Y043149D01*
X035307Y04294D01*
X035517Y043149D01*
Y04252D01*
X036042Y043149D02*
X035832D01*
X035727Y043044D01*
Y042625D01*
X035832Y04252D01*
X036042D01*
X036147Y042625D01*
Y043044D01*
X036042Y043149D01*
X036357D02*
X036776D01*
X036567D01*
Y04252D01*
X037301Y043149D02*
X037091D01*
X036986Y043044D01*
Y042625D01*
X037091Y04252D01*
X037301D01*
X037406Y042625D01*
Y043044D01*
X037301Y043149D01*
X037616Y04252D02*
Y043149D01*
X037931D01*
X038036Y043044D01*
Y042835D01*
X037931Y04273D01*
X037616D01*
X037826D02*
X038036Y04252D01*
X017929Y047477D02*
X017831Y047575D01*
X017634D01*
X017536Y047477D01*
Y047084D01*
X017634Y046985D01*
X017831D01*
X017929Y047084D01*
Y04728D01*
X017733D01*
X018126Y046985D02*
Y047575D01*
X01852Y046985D01*
Y047575D01*
X018717D02*
Y046985D01*
X019012D01*
X01911Y047084D01*
Y047477D01*
X019012Y047575D01*
X018717D01*
X019894Y047D02*
X0195D01*
X019894Y047394D01*
Y047492D01*
X019795Y04759D01*
X019598D01*
X0195Y047492D01*
X020386Y047D02*
Y04759D01*
X02009Y047295D01*
X020484D01*
X020681Y04759D02*
Y047197D01*
X020878Y047D01*
X021074Y047197D01*
Y04759D01*
X04448Y026549D02*
X044585Y026654D01*
Y026864D01*
X04448Y026969D01*
X04406D01*
X043956Y026864D01*
Y026654D01*
X04406Y026549D01*
X04427D01*
Y026759D01*
X043956Y026339D02*
X044585D01*
X043956Y025919D01*
X044585D01*
Y025709D02*
X043956D01*
Y025394D01*
X04406Y025289D01*
X04448D01*
X044585Y025394D01*
Y025709D01*
X043776Y028616D02*
X044405D01*
Y028301D01*
X0443Y028196D01*
X04409D01*
X043985Y028301D01*
Y028616D01*
Y028406D02*
X043776Y028196D01*
X044405Y027986D02*
X043776Y027566D01*
X044405D02*
X043776Y027986D01*
X044465Y030496D02*
Y030076D01*
Y030286D01*
X043836D01*
X044465Y029866D02*
X043836Y029446D01*
X044465D02*
X043836Y029866D01*
X04448Y034226D02*
X044585Y034331D01*
Y034541D01*
X04448Y034646D01*
X044375D01*
X04427Y034541D01*
Y034331D01*
X044165Y034226D01*
X04406D01*
X043956Y034331D01*
Y034541D01*
X04406Y034646D01*
X044585Y034016D02*
X043956D01*
X044165Y033806D01*
X043956Y033596D01*
X044585D01*
X043956Y033071D02*
X044585D01*
X04427Y033386D01*
Y032966D01*
X04448Y038163D02*
X044585Y038268D01*
Y038478D01*
X04448Y038583D01*
X044375D01*
X04427Y038478D01*
Y038268D01*
X044165Y038163D01*
X04406D01*
X043956Y038268D01*
Y038478D01*
X04406Y038583D01*
X044585Y037953D02*
X043956D01*
X044165Y037743D01*
X043956Y037533D01*
X044585D01*
X04448Y037323D02*
X044585Y037218D01*
Y037008D01*
X04448Y036903D01*
X044375D01*
X04427Y037008D01*
Y037113D01*
Y037008D01*
X044165Y036903D01*
X04406D01*
X043956Y037008D01*
Y037218D01*
X04406Y037323D01*
X04448Y0421D02*
X044585Y042205D01*
Y042415D01*
X04448Y04252D01*
X044375D01*
X04427Y042415D01*
Y042205D01*
X044165Y0421D01*
X04406D01*
X043956Y042205D01*
Y042415D01*
X04406Y04252D01*
X044585Y04189D02*
X043956D01*
X044165Y04168D01*
X043956Y04147D01*
X044585D01*
X043956Y04084D02*
Y04126D01*
X044375Y04084D01*
X04448D01*
X044585Y040945D01*
Y041155D01*
X04448Y04126D01*
Y046037D02*
X044585Y046142D01*
Y046352D01*
X04448Y046457D01*
X044375D01*
X04427Y046352D01*
Y046142D01*
X044165Y046037D01*
X04406D01*
X043956Y046142D01*
Y046352D01*
X04406Y046457D01*
X044585Y045827D02*
X043956D01*
X044165Y045617D01*
X043956Y045407D01*
X044585D01*
X043956Y045197D02*
Y044987D01*
Y045092D01*
X044585D01*
X04448Y045197D01*
M02*
