%FSTAX24Y24*%
%MOIN*%
G70*
G01*
G75*
G04 Layer_Physical_Order=2*
G04 Layer_Color=16711680*
%ADD10R,0.2200X0.0900*%
%ADD11R,0.0315X0.0374*%
%ADD12R,0.0551X0.1181*%
%ADD13R,0.3937X0.3937*%
%ADD14R,0.1575X0.2165*%
%ADD15R,0.0374X0.1004*%
%ADD16R,0.1299X0.1004*%
%ADD17R,0.0374X0.0315*%
%ADD18R,0.0630X0.0630*%
%ADD19R,0.0630X0.0630*%
%ADD20R,0.1575X0.0591*%
%ADD21R,0.1500X0.1100*%
%ADD22R,0.0394X0.1300*%
%ADD23R,0.4300X0.4500*%
%ADD24O,0.0236X0.0945*%
%ADD25R,0.0236X0.0945*%
%ADD26O,0.0709X0.0118*%
%ADD27O,0.0118X0.0709*%
G04:AMPARAMS|DCode=28|XSize=59.1mil|YSize=39.4mil|CornerRadius=0mil|HoleSize=0mil|Usage=FLASHONLY|Rotation=90.000|XOffset=0mil|YOffset=0mil|HoleType=Round|Shape=Octagon|*
%AMOCTAGOND28*
4,1,8,0.0098,0.0295,-0.0098,0.0295,-0.0197,0.0197,-0.0197,-0.0197,-0.0098,-0.0295,0.0098,-0.0295,0.0197,-0.0197,0.0197,0.0197,0.0098,0.0295,0.0*
%
%ADD28OCTAGOND28*%

%ADD29R,0.0394X0.0591*%
%ADD30R,0.0472X0.0256*%
G04:AMPARAMS|DCode=31|XSize=21.7mil|YSize=47.2mil|CornerRadius=0mil|HoleSize=0mil|Usage=FLASHONLY|Rotation=0.000|XOffset=0mil|YOffset=0mil|HoleType=Round|Shape=Octagon|*
%AMOCTAGOND31*
4,1,8,-0.0054,0.0236,0.0054,0.0236,0.0108,0.0182,0.0108,-0.0182,0.0054,-0.0236,-0.0054,-0.0236,-0.0108,-0.0182,-0.0108,0.0182,-0.0054,0.0236,0.0*
%
%ADD31OCTAGOND31*%

%ADD32R,0.0217X0.0472*%
%ADD33R,0.0866X0.0236*%
%ADD34O,0.0866X0.0236*%
%ADD35C,0.0100*%
%ADD36C,0.0200*%
%ADD37C,0.0550*%
%ADD38C,0.0600*%
%ADD39C,0.0250*%
%ADD40C,0.0300*%
%ADD41C,0.0400*%
%ADD42C,0.2362*%
%ADD43C,0.0984*%
%ADD44R,0.0551X0.0551*%
%ADD45C,0.0551*%
%ADD46C,0.1181*%
%ADD47C,0.0700*%
%ADD48C,0.0320*%
%ADD49C,0.0500*%
G36*
X038722Y039355D02*
X029662D01*
Y042445D01*
X036782Y042455D01*
Y050485D01*
X038712D01*
X038722Y039355D01*
D02*
G37*
G36*
X036482Y042755D02*
X029192D01*
X027712Y042745D01*
Y040815D01*
X023322D01*
Y045845D01*
X034452Y045835D01*
Y050485D01*
X036482D01*
Y042755D01*
D02*
G37*
D35*
X030515Y018518D02*
X030995Y018038D01*
Y017717D02*
Y018038D01*
X037Y02435D02*
X03728D01*
X03656Y02399D02*
Y02501D01*
X03688Y02533D01*
X03771D01*
X032475Y018237D02*
X033287D01*
X031995Y018717D02*
X032475Y018237D01*
X032995Y018717D02*
X039268Y02499D01*
X04295Y043D02*
Y044917D01*
X045333Y0473D01*
X04705D02*
X04765Y0467D01*
X045333Y0473D02*
X04705D01*
X04765Y02255D02*
Y0467D01*
X045258Y04748D02*
X04722D01*
X04805Y022384D02*
Y04665D01*
X04722Y04748D02*
X04805Y04665D01*
X03955Y0296D02*
X0453D01*
X0454Y0297D01*
X04045Y0275D02*
X0418D01*
X04044Y02751D02*
X04045Y0275D01*
X03728Y02435D02*
X04044Y02751D01*
X04037Y02795D02*
X04125D01*
X04035Y02797D02*
X04037Y02795D01*
X03771Y02533D02*
X04035Y02797D01*
X0381Y0286D02*
X04155D01*
X037246Y02815D02*
X037876Y02878D01*
X036496Y02815D02*
X037246D01*
X0367Y02025D02*
X04D01*
X03365Y0172D02*
X0367Y02025D01*
X04115Y0204D02*
X04227Y02152D01*
Y02788D01*
X04155Y0286D02*
X04227Y02788D01*
X04185Y0204D02*
Y0206D01*
X04245Y0212D01*
X04103Y02011D02*
X04197D01*
X04086Y02028D02*
X04103Y02011D01*
X04086Y02028D02*
Y02252D01*
X04695Y02185D02*
X04765Y02255D01*
X0459Y02185D02*
X04695D01*
X04371D02*
X0459D01*
X04197Y02011D02*
X04371Y02185D01*
X0459Y02115D02*
X046816D01*
X04805Y022384D01*
X04245Y0212D02*
Y02798D01*
X037876Y02878D02*
X04165D01*
X04245Y02798D01*
X0406Y0425D02*
Y042822D01*
X045258Y04748D01*
X041182Y04945D02*
X04345D01*
X0437Y0492D01*
Y0479D02*
Y0492D01*
X040551Y048819D02*
X041182Y04945D01*
X04305Y04725D02*
X0437Y0479D01*
X031515Y018518D02*
X031796Y018237D01*
X03274Y017717D02*
X032995D01*
X031515Y018518D02*
Y019765D01*
X031796Y018237D02*
X03222D01*
X03274Y017717D01*
X031515Y019765D02*
X0325Y02075D01*
X030515Y018518D02*
Y019515D01*
X0396Y02465D02*
X0397D01*
X033287Y018237D02*
X0397Y02465D01*
X04021Y02499D02*
X04055Y02465D01*
X039268Y02499D02*
X04021D01*
X0342Y0244D02*
X03445Y02465D01*
X0342Y0232D02*
Y0244D01*
X030515Y019515D02*
X0342Y0232D01*
X04086Y02252D02*
X0419Y02356D01*
Y02595D01*
X041Y02685D02*
X0419Y02595D01*
X03025Y019972D02*
Y02435D01*
X028995Y018717D02*
X03025Y019972D01*
X0359Y0279D02*
X03594Y02786D01*
X03736D01*
X0381Y0286D01*
X030995Y018717D02*
X031475Y018237D01*
Y017558D02*
Y018237D01*
X031833Y0172D02*
X03365D01*
X031475Y017558D02*
X031833Y0172D01*
D36*
X017381Y01811D02*
Y024981D01*
X0174Y025D01*
X03895Y0364D02*
Y03865D01*
X03625Y0337D02*
X03895Y0364D01*
X02507Y03729D02*
X03499D01*
X022571Y039789D02*
X02507Y03729D01*
X022571Y039789D02*
Y042063D01*
X02887Y03938D02*
Y04212D01*
X0298Y03845D02*
X03636D01*
X036958Y037852D01*
Y03729D02*
Y037852D01*
X02887Y03938D02*
X0298Y03845D01*
X037938Y03731D02*
Y037991D01*
X03702Y03891D02*
X037938Y037991D01*
X030392Y041605D02*
X0306Y041397D01*
X03114Y03891D02*
X03702D01*
X0306Y03945D02*
X03114Y03891D01*
X0306Y03945D02*
Y041397D01*
X03597Y03731D02*
Y03733D01*
X0354Y0379D02*
X03597Y03733D01*
X024192Y040098D02*
X02639Y0379D01*
X024192Y040098D02*
Y041605D01*
X02639Y0379D02*
X0354D01*
X03705Y03325D02*
Y0337D01*
X0366Y0328D02*
X03705Y03325D01*
X02899Y03376D02*
X02995Y0328D01*
X02899Y03376D02*
Y03424D01*
X02995Y0328D02*
X0366D01*
X0335Y03505D02*
X03475Y0338D01*
X023501Y03505D02*
X0335D01*
X022703Y034252D02*
X023501Y03505D01*
D38*
X01785Y05075D02*
X019132D01*
X020276Y049606D01*
X01685Y04975D02*
X01785Y05075D01*
X01494Y03462D02*
X01685Y03653D01*
Y04975D01*
X0174Y03475D02*
X018307Y035657D01*
Y049606D01*
X0174Y025D02*
Y03475D01*
D40*
X0454Y0266D02*
X046016Y025984D01*
X046654D01*
X0454Y0454D02*
X046654Y046654D01*
X045443Y034843D02*
X046654D01*
X0454Y0348D02*
X045443Y034843D01*
X04543Y03878D02*
X046654D01*
X0454Y0348D02*
Y03875D01*
Y042D01*
Y03875D02*
X04543Y03878D01*
X045467Y042717D02*
X046654D01*
X0454Y04265D02*
X045467Y042717D01*
X0454Y042D02*
Y04265D01*
Y0454D01*
X0412Y042D02*
X0454D01*
X03925Y04255D02*
X0398Y042D01*
X03925Y04509D02*
Y045861D01*
X041339Y04795D02*
Y048819D01*
X03925Y045861D02*
X041339Y04795D01*
X0398Y042D02*
X0412D01*
X03925Y04255D02*
Y04509D01*
X0412Y0378D02*
Y0385D01*
Y0399D01*
X0334Y02905D02*
X0368D01*
X04165Y0339D01*
Y0371D01*
Y0392D01*
Y0406D01*
Y0413D01*
X0454Y0266D02*
Y0297D01*
Y0348D01*
X0334Y0283D02*
X0355Y0262D01*
X0334Y0283D02*
Y02905D01*
X0413Y02385D02*
Y024452D01*
X040482Y02527D02*
X0413Y024452D01*
X03892Y02527D02*
X040482D01*
X03725Y0236D02*
X03892Y02527D01*
X036398Y0236D02*
X03725D01*
X03025Y02435D02*
X031Y0251D01*
X034898D02*
X036398Y0236D01*
X031Y0251D02*
X034898D01*
X0393Y01975D02*
X0405D01*
Y02215D01*
X03935Y0233D02*
Y0234D01*
X04005Y0226D02*
X0405Y02215D01*
X03935Y0233D02*
X04005Y0226D01*
X04085Y0234D01*
X04005Y0242D02*
X04085Y0234D01*
X0413Y02385D01*
X04395Y0203D02*
Y0214D01*
X0434Y01975D02*
X04395Y0203D01*
X0405Y01975D02*
X0434D01*
X0412Y0399D02*
Y042D01*
X0174Y025D02*
X0182Y0242D01*
X01935D01*
X02705Y0319D01*
X0381D01*
X0412Y035D01*
Y0378D01*
D42*
X014961Y049606D02*
D03*
X046457D02*
D03*
X046457Y01811D02*
D03*
X014961D02*
D03*
D43*
X018307Y049606D02*
D03*
X020276D02*
D03*
X03563D02*
D03*
X037598D02*
D03*
X046654Y034843D02*
D03*
Y036811D02*
D03*
Y03878D02*
D03*
Y040748D02*
D03*
Y042717D02*
D03*
Y044685D02*
D03*
Y046654D02*
D03*
Y032874D02*
D03*
Y029921D02*
D03*
Y027953D02*
D03*
Y025984D02*
D03*
X0174Y025D02*
D03*
X01494Y03462D02*
D03*
X033392Y041605D02*
D03*
X032392D02*
D03*
X031392D02*
D03*
X030392D02*
D03*
X027192D02*
D03*
X026192D02*
D03*
X025192D02*
D03*
X024192D02*
D03*
D44*
X042913Y048819D02*
D03*
D45*
X042126D02*
D03*
X041339D02*
D03*
X040551D02*
D03*
D46*
X035835Y044094D02*
D03*
X037394D02*
D03*
D47*
X030995Y018717D02*
D03*
Y017717D02*
D03*
X029995Y018717D02*
D03*
Y017717D02*
D03*
X028995Y018717D02*
D03*
Y017717D02*
D03*
X031995D02*
D03*
Y018717D02*
D03*
X032995Y017717D02*
D03*
Y018717D02*
D03*
D48*
X0325Y02075D02*
D03*
X03955Y0296D02*
D03*
X041Y02685D02*
D03*
X03925Y04509D02*
D03*
X04165Y0413D02*
D03*
Y0406D02*
D03*
Y0392D02*
D03*
Y0371D02*
D03*
X0412Y0378D02*
D03*
Y0385D02*
D03*
Y0399D02*
D03*
Y042D02*
D03*
X04295Y043D02*
D03*
X0406Y0425D02*
D03*
X0459Y02115D02*
D03*
X04305Y04725D02*
D03*
X04185Y0204D02*
D03*
X04115D02*
D03*
X037Y02435D02*
D03*
X03656Y02399D02*
D03*
X04085Y0234D02*
D03*
X04005Y0226D02*
D03*
Y0242D02*
D03*
Y0234D02*
D03*
X03935D02*
D03*
X03895Y03865D02*
D03*
X0418Y0275D02*
D03*
X04125Y02795D02*
D03*
X036496Y02815D02*
D03*
X0393Y01975D02*
D03*
X04Y02025D02*
D03*
X0459Y02185D02*
D03*
X04055Y02465D02*
D03*
X0396D02*
D03*
X03445D02*
D03*
X04395Y0214D02*
D03*
X0359Y0279D02*
D03*
D49*
X03625Y0337D02*
D03*
X03705D02*
D03*
X03475Y0338D02*
D03*
X022703Y034252D02*
D03*
X02899Y03424D02*
D03*
X022571Y042063D02*
D03*
X02887Y04212D02*
D03*
X036958Y03729D02*
D03*
X037938Y03731D02*
D03*
X03597Y03731D02*
D03*
X03499Y03729D02*
D03*
X017381Y01811D02*
D03*
X0334Y02905D02*
D03*
X0355Y0262D02*
D03*
X03025Y02435D02*
D03*
M02*
