%FSTAX24Y24*%
%MOIN*%
G70*
G01*
G75*
G04 Layer_Physical_Order=1*
G04 Layer_Color=255*
%ADD10R,0.2200X0.0900*%
%ADD11R,0.0315X0.0374*%
%ADD12R,0.0551X0.1181*%
%ADD13R,0.3937X0.3937*%
%ADD14R,0.1575X0.2165*%
%ADD15R,0.0374X0.1004*%
%ADD16R,0.1299X0.1004*%
%ADD17R,0.0374X0.0315*%
%ADD18R,0.0630X0.0630*%
%ADD19R,0.0630X0.0630*%
%ADD20R,0.1575X0.0591*%
%ADD21R,0.1500X0.1100*%
%ADD22R,0.0394X0.1300*%
%ADD23R,0.4300X0.4500*%
%ADD24O,0.0236X0.0945*%
%ADD25R,0.0236X0.0945*%
%ADD26O,0.0709X0.0118*%
%ADD27O,0.0118X0.0709*%
G04:AMPARAMS|DCode=28|XSize=59.1mil|YSize=39.4mil|CornerRadius=0mil|HoleSize=0mil|Usage=FLASHONLY|Rotation=90.000|XOffset=0mil|YOffset=0mil|HoleType=Round|Shape=Octagon|*
%AMOCTAGOND28*
4,1,8,0.0098,0.0295,-0.0098,0.0295,-0.0197,0.0197,-0.0197,-0.0197,-0.0098,-0.0295,0.0098,-0.0295,0.0197,-0.0197,0.0197,0.0197,0.0098,0.0295,0.0*
%
%ADD28OCTAGOND28*%

%ADD29R,0.0394X0.0591*%
%ADD30R,0.0472X0.0256*%
G04:AMPARAMS|DCode=31|XSize=21.7mil|YSize=47.2mil|CornerRadius=0mil|HoleSize=0mil|Usage=FLASHONLY|Rotation=0.000|XOffset=0mil|YOffset=0mil|HoleType=Round|Shape=Octagon|*
%AMOCTAGOND31*
4,1,8,-0.0054,0.0236,0.0054,0.0236,0.0108,0.0182,0.0108,-0.0182,0.0054,-0.0236,-0.0054,-0.0236,-0.0108,-0.0182,-0.0108,0.0182,-0.0054,0.0236,0.0*
%
%ADD31OCTAGOND31*%

%ADD32R,0.0217X0.0472*%
%ADD33R,0.0866X0.0236*%
%ADD34O,0.0866X0.0236*%
%ADD35C,0.0100*%
%ADD36C,0.0200*%
%ADD37C,0.0550*%
%ADD38C,0.0600*%
%ADD39C,0.0250*%
%ADD40C,0.0300*%
%ADD41C,0.0400*%
%ADD42C,0.2362*%
%ADD43C,0.0984*%
%ADD44R,0.0551X0.0551*%
%ADD45C,0.0551*%
%ADD46C,0.1181*%
%ADD47C,0.0700*%
%ADD48C,0.0320*%
%ADD49C,0.0500*%
G36*
X027692Y042505D02*
Y036005D01*
X021742D01*
Y040755D01*
X021782Y040805D01*
X022542Y041465D01*
X023602Y042375D01*
Y043955D01*
X026492D01*
X027692Y042505D01*
D02*
G37*
G36*
X019292Y045005D02*
X021292Y043005D01*
X021272Y033115D01*
X023642D01*
Y034905D01*
X028332D01*
Y033115D01*
X029942D01*
Y034905D01*
X034172Y034885D01*
Y029965D01*
X016392Y029955D01*
Y051405D01*
X019292D01*
Y045005D01*
D02*
G37*
G36*
X033292D02*
X020092D01*
X019592Y045505D01*
Y051405D01*
X033292D01*
Y045005D01*
D02*
G37*
G36*
X033992Y042505D02*
Y036005D01*
X028042D01*
Y040755D01*
X028082Y040805D01*
X028842Y041465D01*
X029902Y042375D01*
Y043955D01*
X032792D01*
X033992Y042505D01*
D02*
G37*
D10*
X04195Y0177D02*
D03*
X038604D02*
D03*
D11*
X042004Y0191D02*
D03*
X041296D02*
D03*
X040704D02*
D03*
X039996D02*
D03*
X039304D02*
D03*
X038596D02*
D03*
X030924Y025394D02*
D03*
X030215D02*
D03*
X031593D02*
D03*
X032302D02*
D03*
X016633Y019094D02*
D03*
X017341D02*
D03*
X026987Y024213D02*
D03*
X026278D02*
D03*
X037696Y0265D02*
D03*
X038404D02*
D03*
X036496Y0296D02*
D03*
X037204D02*
D03*
X037096Y0347D02*
D03*
X037804D02*
D03*
X035904Y0296D02*
D03*
X035196D02*
D03*
X037204Y0288D02*
D03*
X036496D02*
D03*
X035096Y0347D02*
D03*
X035804D02*
D03*
X042904Y0385D02*
D03*
X042196D02*
D03*
X042904Y0399D02*
D03*
X042196D02*
D03*
X042904Y042D02*
D03*
X042196D02*
D03*
X042904Y0378D02*
D03*
X042196D02*
D03*
X041696Y04725D02*
D03*
X042404D02*
D03*
X042904Y0371D02*
D03*
X042196D02*
D03*
X042904Y0392D02*
D03*
X042196D02*
D03*
X040664Y04654D02*
D03*
X039956D02*
D03*
X040654Y04581D02*
D03*
X039946D02*
D03*
X042904Y0406D02*
D03*
X042196D02*
D03*
X042904Y0413D02*
D03*
X042196D02*
D03*
X042424Y04655D02*
D03*
X041716D02*
D03*
X042414Y0458D02*
D03*
X041706D02*
D03*
X040654Y04725D02*
D03*
X039946D02*
D03*
X042904Y0344D02*
D03*
X042196D02*
D03*
X040896D02*
D03*
X041604D02*
D03*
X041696Y043D02*
D03*
X042404D02*
D03*
X039896Y04315D02*
D03*
X040604D02*
D03*
X035196Y0288D02*
D03*
X035904D02*
D03*
X045146Y02455D02*
D03*
X045854D02*
D03*
X045146Y02385D02*
D03*
X045854D02*
D03*
X045146Y02315D02*
D03*
X045854D02*
D03*
X045146Y02245D02*
D03*
X045854D02*
D03*
D12*
X019389Y022972D02*
D03*
X020058D02*
D03*
X020727D02*
D03*
X021396D02*
D03*
X022066D02*
D03*
D13*
X020727Y027028D02*
D03*
D14*
X018956Y019291D02*
D03*
X022893D02*
D03*
D15*
X030255Y026388D02*
D03*
X03116D02*
D03*
X032066D02*
D03*
D16*
X03116Y02873D02*
D03*
D17*
X026042Y022008D02*
D03*
Y021299D02*
D03*
Y022677D02*
D03*
Y023386D02*
D03*
X03685Y021146D02*
D03*
Y021854D02*
D03*
X04315Y025854D02*
D03*
Y025146D02*
D03*
X04325Y022154D02*
D03*
Y021446D02*
D03*
Y020754D02*
D03*
Y020046D02*
D03*
X04405Y020046D02*
D03*
Y020754D02*
D03*
X04055Y036946D02*
D03*
Y037654D02*
D03*
X03615Y021116D02*
D03*
Y021824D02*
D03*
X04055Y035546D02*
D03*
Y036254D02*
D03*
X03545Y021854D02*
D03*
Y021146D02*
D03*
X03955Y032846D02*
D03*
Y033554D02*
D03*
Y032154D02*
D03*
Y031446D02*
D03*
Y030754D02*
D03*
Y030046D02*
D03*
X0393Y027146D02*
D03*
Y027854D02*
D03*
X04Y027146D02*
D03*
Y027854D02*
D03*
D18*
X029192Y027835D02*
D03*
Y026496D02*
D03*
X033129Y027835D02*
D03*
Y026496D02*
D03*
D19*
X02616Y025197D02*
D03*
X027499D02*
D03*
X017263Y020079D02*
D03*
X015924D02*
D03*
D20*
X027066Y027953D02*
D03*
X023837D02*
D03*
X014192Y022835D02*
D03*
X01742D02*
D03*
Y027165D02*
D03*
X014192D02*
D03*
D21*
X014852Y033233D02*
D03*
Y030233D02*
D03*
X0243Y025162D02*
D03*
Y022162D02*
D03*
D22*
X023803Y043307D02*
D03*
X025803D02*
D03*
X024803D02*
D03*
X024303D02*
D03*
X025303D02*
D03*
X023303D02*
D03*
X026303D02*
D03*
X030102D02*
D03*
X032102D02*
D03*
X031102D02*
D03*
X030602D02*
D03*
X031602D02*
D03*
X029602D02*
D03*
X032602D02*
D03*
X023803Y034252D02*
D03*
X025803D02*
D03*
X024803D02*
D03*
X024303D02*
D03*
X025303D02*
D03*
X023303D02*
D03*
X026303D02*
D03*
X030102D02*
D03*
X032102D02*
D03*
X031102D02*
D03*
X030602D02*
D03*
X031602D02*
D03*
X029602D02*
D03*
X032602D02*
D03*
D23*
X024803Y047307D02*
D03*
X031102D02*
D03*
X024803Y038252D02*
D03*
X031102D02*
D03*
D24*
X0367Y032684D02*
D03*
X0362D02*
D03*
X0357D02*
D03*
X0352D02*
D03*
X0367Y030716D02*
D03*
X0362D02*
D03*
X0357D02*
D03*
D25*
X0352D02*
D03*
D26*
X037865Y021924D02*
D03*
Y02212D02*
D03*
Y022317D02*
D03*
Y022514D02*
D03*
Y022711D02*
D03*
Y022908D02*
D03*
Y023105D02*
D03*
Y023302D02*
D03*
Y023498D02*
D03*
Y023695D02*
D03*
Y023892D02*
D03*
Y024089D02*
D03*
Y024286D02*
D03*
Y024483D02*
D03*
Y02468D02*
D03*
Y024876D02*
D03*
X042235D02*
D03*
Y02468D02*
D03*
Y024483D02*
D03*
Y024286D02*
D03*
Y024089D02*
D03*
Y023892D02*
D03*
Y023695D02*
D03*
Y023498D02*
D03*
Y023302D02*
D03*
Y023105D02*
D03*
Y022908D02*
D03*
Y022711D02*
D03*
Y022514D02*
D03*
Y022317D02*
D03*
Y02212D02*
D03*
Y021924D02*
D03*
D27*
X038574Y025585D02*
D03*
X03877D02*
D03*
X038967D02*
D03*
X039164D02*
D03*
X039361D02*
D03*
X039558D02*
D03*
X039755D02*
D03*
X039952D02*
D03*
X040148D02*
D03*
X040345D02*
D03*
X040542D02*
D03*
X040739D02*
D03*
X040936D02*
D03*
X041133D02*
D03*
X04133D02*
D03*
X041526D02*
D03*
Y021215D02*
D03*
X04133D02*
D03*
X041133D02*
D03*
X040936D02*
D03*
X040739D02*
D03*
X040542D02*
D03*
X040345D02*
D03*
X040148D02*
D03*
X039952D02*
D03*
X039755D02*
D03*
X039558D02*
D03*
X039361D02*
D03*
X039164D02*
D03*
X038967D02*
D03*
X03877D02*
D03*
X038574D02*
D03*
D28*
X036957Y03808D02*
D03*
X037942D02*
D03*
X037961Y035542D02*
D03*
X034989Y03808D02*
D03*
X035973D02*
D03*
X035993Y035542D02*
D03*
D29*
X036957Y035542D02*
D03*
X034989Y035542D02*
D03*
D30*
X038848Y03723D02*
D03*
X039893Y036856D02*
D03*
Y037604D02*
D03*
X038828Y0359D02*
D03*
X039872Y035526D02*
D03*
Y036274D02*
D03*
D31*
X042424Y044028D02*
D03*
X041676D02*
D03*
X04205Y045062D02*
D03*
X041676D02*
D03*
X040674Y044038D02*
D03*
X039926D02*
D03*
X0403Y045072D02*
D03*
X039926D02*
D03*
D32*
X042424Y045062D02*
D03*
X040674Y045072D02*
D03*
D33*
X04067Y033593D02*
D03*
D34*
Y033093D02*
D03*
Y032593D02*
D03*
Y032093D02*
D03*
Y031593D02*
D03*
Y031093D02*
D03*
Y030593D02*
D03*
X04256Y033093D02*
D03*
Y032593D02*
D03*
Y032093D02*
D03*
Y031593D02*
D03*
Y031093D02*
D03*
Y030593D02*
D03*
Y030093D02*
D03*
Y033593D02*
D03*
X04067Y030093D02*
D03*
D35*
X030475Y019129D02*
X031616Y020271D01*
X032921D01*
X030475Y018197D02*
Y019129D01*
X029995Y017717D02*
X030475Y018197D01*
X035476Y024876D02*
X037865D01*
X0207Y024213D02*
X022066D01*
X03955Y0296D02*
Y030046D01*
X031515Y017237D02*
X031995Y017717D01*
X029796Y017237D02*
X031515D01*
X029515Y017518D02*
X029796Y017237D01*
X029515Y017518D02*
Y018237D01*
X029995Y018717D01*
X030176Y025D02*
Y025354D01*
X038967Y025585D02*
Y026633D01*
X039996Y0191D02*
X04005Y019046D01*
X038404Y0265D02*
X03877Y026134D01*
Y025585D02*
Y026134D01*
X04128Y034724D02*
X041604Y0344D01*
X04128Y034724D02*
Y03772D01*
X0412Y0378D02*
X04128Y03772D01*
X04424Y020944D02*
Y02176D01*
X04405Y020754D02*
X04424Y020944D01*
X043846Y022154D02*
X04424Y02176D01*
X04325Y022154D02*
X043846D01*
X04Y027854D02*
Y02815D01*
X039773Y028377D02*
X04Y02815D01*
X039Y028377D02*
X039773D01*
X03882Y027925D02*
X038891Y027854D01*
X0393D01*
X04Y0268D02*
Y027146D01*
X039361Y026161D02*
X04Y0268D01*
X039361Y025585D02*
Y026161D01*
X0393Y0269D02*
Y027146D01*
X039164Y026764D02*
X0393Y0269D01*
X039164Y025585D02*
Y026764D01*
X039Y028377D02*
Y033745D01*
X039892Y035546D02*
X04055D01*
X039872Y035526D02*
X039892Y035546D01*
X039527Y03662D02*
X039872Y036274D01*
X039527Y03662D02*
Y037238D01*
X039893Y037604D01*
X04315Y024638D02*
Y025146D01*
X042601Y024089D02*
X04315Y024638D01*
X042235Y024089D02*
X042601D01*
X042684Y02468D02*
X04315Y025146D01*
X042235Y02468D02*
X042684D01*
X04115Y0413D02*
X04165D01*
X04115Y0425D02*
X04305D01*
X04335Y0428D01*
Y0443D01*
X04311Y04454D02*
X04335Y0443D01*
X036957Y034838D02*
X037096Y0347D01*
X036957Y034838D02*
Y035542D01*
X034989Y034807D02*
X035096Y0347D01*
X034989Y034807D02*
Y035542D01*
X035993D02*
Y035893D01*
X0365Y0364D01*
X0386D01*
X0388Y0366D01*
Y037182D01*
X038848Y03723D01*
X037961Y035542D02*
X038319Y0359D01*
X038828D01*
X039893Y037604D02*
X039943Y037654D01*
X04055D01*
X039872Y036274D02*
X039892Y036254D01*
X04055D01*
Y037654D02*
X040696Y0378D01*
X0412D01*
X04165Y0413D02*
X042196D01*
X04165Y0406D02*
X042196D01*
X04165Y0392D02*
X042196D01*
X04165Y0371D02*
X042196D01*
X0412Y0378D02*
X042196D01*
X0412Y0385D02*
X042196D01*
X0412Y0399D02*
X042196D01*
X0412Y042D02*
X042196D01*
X042404Y043D02*
X04295D01*
X0406Y0425D02*
X040604Y042504D01*
Y04315D01*
X041676Y043019D02*
X041696Y043D01*
X041676Y043019D02*
Y044028D01*
X039896Y044008D02*
X039926Y044038D01*
X039896Y04315D02*
Y044008D01*
X042235Y022908D02*
X043592D01*
X042235Y023105D02*
X043674D01*
X04648Y02385D02*
X04753Y0249D01*
Y035935D01*
X045854Y02385D02*
X04648D01*
X04735Y0254D02*
Y032178D01*
X0465Y02455D02*
X04735Y0254D01*
X045854Y02455D02*
X0465D01*
X045854Y02245D02*
X04705D01*
X04795Y02335D01*
X04715Y02315D02*
X04771Y02371D01*
X045854Y02315D02*
X04715D01*
X04465Y02245D02*
X045146D01*
X043798Y023302D02*
X04465Y02245D01*
X042235Y023302D02*
X043798D01*
X04465Y02315D02*
X045146D01*
X044302Y023498D02*
X04465Y02315D01*
X042235Y023498D02*
X044302D01*
X04475Y02385D02*
X045146D01*
X044595Y023695D02*
X04475Y02385D01*
X042235Y023695D02*
X044595D01*
X0446Y02455D02*
X045146D01*
X043942Y023892D02*
X0446Y02455D01*
X042235Y023892D02*
X043942D01*
X04795Y02335D02*
Y043389D01*
X046654Y044685D02*
X04795Y043389D01*
X04771Y02371D02*
Y039692D01*
X046654Y040748D02*
X04771Y039692D01*
X046654Y036811D02*
X04753Y035935D01*
X046654Y032874D02*
X04735Y032178D01*
X045589Y044685D02*
X046654D01*
X042904Y042D02*
X045589Y044685D01*
X046506Y0406D02*
X046654Y040748D01*
X042904Y0406D02*
X046506D01*
X044965Y0385D02*
X046654Y036811D01*
X042904Y0385D02*
X044965D01*
X042904Y036623D02*
X046654Y032874D01*
X042904Y036623D02*
Y0371D01*
X042904Y0371D01*
Y0378D01*
X042904Y0385D02*
X042904Y0385D01*
X042904Y0385D02*
Y0392D01*
Y0399D02*
X042904Y0399D01*
X042904Y0399D02*
Y0406D01*
Y0413D02*
X042904Y0413D01*
Y042D01*
X039946Y04725D02*
X04D01*
X042404D02*
X04305D01*
X041696Y047601D02*
X042913Y048819D01*
X041696Y04725D02*
Y047601D01*
Y04725D02*
X041716Y04723D01*
Y04655D02*
Y04723D01*
X040654Y047347D02*
X042126Y048819D01*
X040654Y04725D02*
Y047347D01*
Y047239D02*
Y04725D01*
X039956Y04654D02*
X040654Y047239D01*
X039956Y04654D02*
Y046649D01*
X03675Y023498D02*
X037865D01*
X035452Y0222D02*
X03675Y023498D01*
X03545Y0222D02*
X035452D01*
X03545Y021854D02*
Y0222D01*
Y021146D02*
X035767Y020828D01*
X036533D01*
X03685Y021146D01*
X03615Y0223D02*
X036561Y022711D01*
X03615Y021824D02*
Y0223D01*
X036561Y022711D02*
X037865D01*
X03615Y021116D02*
X03685Y021816D01*
Y021854D01*
X04185Y0203D02*
Y0204D01*
X041526Y020624D02*
Y021215D01*
X04133Y02058D02*
Y021215D01*
X04115Y0204D02*
X04133Y02058D01*
X037204Y0288D02*
X037204Y0288D01*
Y0296D01*
X035196Y0288D02*
X035196Y0288D01*
X035196Y0288D02*
Y0296D01*
X037204D02*
Y029746D01*
X0367Y03025D02*
X037204Y029746D01*
X0367Y03025D02*
Y030716D01*
X0362Y029896D02*
X036496Y0296D01*
X035904D02*
X0362Y029896D01*
Y030716D01*
X035196Y0296D02*
X0357Y030104D01*
Y030716D01*
X039755Y020495D02*
Y021215D01*
X04325Y020754D02*
Y021446D01*
X037Y02435D02*
X037261Y024089D01*
X037865D01*
X03656Y0239D02*
X03658Y02388D01*
X03656Y0239D02*
Y02399D01*
X03658Y02388D02*
X036592Y023892D01*
X037865D01*
X039304Y0191D02*
X039996D01*
X043904Y021446D02*
X04395Y0214D01*
X04325Y021446D02*
X043904D01*
X038231Y02212D02*
X03935Y02324D01*
Y0234D01*
X037865Y02212D02*
X038231D01*
X04005Y0226D02*
X040739Y021911D01*
Y021215D02*
Y021911D01*
X04085Y0234D02*
Y02366D01*
X041869Y02468D01*
X042235D01*
X038574Y021776D02*
Y021924D01*
Y021215D02*
Y021776D01*
X038426Y021924D02*
X038574Y021776D01*
Y021924D02*
X04005Y0234D01*
X040936Y02212D02*
X041133Y022317D01*
X040936Y021215D02*
Y02212D01*
X04005Y0234D02*
X041133Y022317D01*
X042235D01*
X04005Y0234D02*
X041526Y024876D01*
X042235D01*
X04325Y021446D02*
Y0216D01*
X04273Y02212D02*
X04325Y0216D01*
X042235Y02212D02*
X04273D01*
X043087Y022317D02*
X04325Y022154D01*
X042235Y022317D02*
X043087D01*
X042235Y024939D02*
X04315Y025854D01*
X042235Y024876D02*
Y024939D01*
X037696Y026254D02*
Y0265D01*
Y026254D02*
X03795Y026D01*
X038159D01*
X038574Y025585D01*
X037865Y021924D02*
X038426D01*
X03685Y021146D02*
Y0213D01*
X037474Y021924D01*
X037865D01*
X03685Y021854D02*
X037116Y02212D01*
X037865D01*
X041604Y0195D02*
X042004Y0191D01*
X041296Y018354D02*
X04195Y0177D01*
X041296Y018354D02*
Y0191D01*
X040704D02*
X041296D01*
X038596Y017708D02*
Y0191D01*
X04256Y033593D02*
X042904Y033937D01*
Y0344D01*
X03955Y030754D02*
X039889Y031093D01*
X04067D01*
X03955Y031446D02*
X039698Y031593D01*
X04067D01*
X03955Y032154D02*
X039611Y032093D01*
X04067D01*
X03955Y032846D02*
X039802Y032593D01*
X04067D01*
X03955Y033554D02*
X039589Y033593D01*
X04067D01*
X040896Y0344D02*
X04145Y033846D01*
Y0333D02*
Y033846D01*
X041243Y033093D02*
X04145Y0333D01*
X04067Y033093D02*
X041243D01*
X04185Y0333D02*
Y0344D01*
X042196D01*
X041604D02*
X04185D01*
Y0333D02*
X042057Y033093D01*
X04256D01*
X04226Y04454D02*
X04311D01*
X03925Y04509D02*
X039268Y045072D01*
X039926D01*
Y044784D02*
Y045072D01*
Y044784D02*
X0401Y04461D01*
X04059D01*
X04065Y04467D02*
X040897D01*
X041289Y045062D01*
X04059Y04461D02*
X04065Y04467D01*
X041289Y045062D02*
X041676D01*
X040674Y044038D02*
Y044164D01*
X04105Y04454D01*
X04226D01*
X042424Y044376D01*
Y044028D02*
Y044376D01*
X041676Y045062D02*
X041706Y045091D01*
Y0458D01*
X039926Y045072D02*
X039946Y045092D01*
Y04581D01*
X040664Y045082D02*
Y04654D01*
X0403Y045072D02*
X040674D01*
X040664Y045082D02*
X040674Y045072D01*
X042414Y0458D02*
X042424Y04579D01*
Y045062D02*
Y04579D01*
X04205Y045062D02*
X042424D01*
X042414Y0458D02*
X042424Y04581D01*
Y04655D01*
X014852Y033233D02*
X01494Y033321D01*
X023303Y034252D02*
X023315Y034264D01*
X02959Y03424D02*
X029602Y034252D01*
X036957Y037291D02*
Y03808D01*
Y037291D02*
X036958Y03729D01*
X037942Y037313D02*
Y03808D01*
X037938Y03731D02*
X037942Y037313D01*
X03597Y03731D02*
X035973Y037313D01*
Y03808D01*
X034989Y037291D02*
X03499Y03729D01*
X034989Y037291D02*
Y03808D01*
X031003Y024803D02*
X031593Y025394D01*
X030373Y024803D02*
X031003D01*
X032066Y02563D02*
X032302Y025394D01*
X032066Y02563D02*
Y026388D01*
X030176Y025354D02*
X030215Y025394D01*
X02368Y030118D02*
X023837Y029961D01*
X026042Y023386D02*
X02616Y023504D01*
X026125Y025162D02*
X02616Y025197D01*
X026042Y022008D02*
Y022677D01*
X03896Y03866D02*
Y04691D01*
X03895Y03865D02*
X03896Y03866D01*
X04165Y03595D02*
Y0371D01*
Y03595D02*
X042904Y034696D01*
Y0344D02*
Y034696D01*
X04085Y0416D02*
X04115Y0413D01*
X04085Y0422D02*
X04115Y0425D01*
X04085Y0416D02*
Y0422D01*
X0418Y0275D02*
X04183Y02753D01*
X04125Y02795D02*
X04165Y02835D01*
X036496Y02815D02*
Y0288D01*
X038574Y024876D02*
Y025585D01*
X039361Y020561D02*
Y021215D01*
X038596Y0191D02*
Y019796D01*
X039361Y020561D01*
X039558Y020192D02*
X04025Y0195D01*
X041604D01*
X039558Y020192D02*
Y021215D01*
X039304Y0191D02*
Y019746D01*
X0393Y01975D02*
X039304Y019746D01*
X04Y02025D02*
X040204Y020046D01*
X039755Y020495D02*
X04Y02025D01*
X043674Y023105D02*
X044928Y02185D01*
X0459D01*
X04535Y02115D02*
X0459D01*
X043592Y022908D02*
X04535Y02115D01*
X041526Y020624D02*
X04185Y0203D01*
X03577Y02468D02*
X037865D01*
X039952Y026252D02*
X04055Y02685D01*
X041D01*
X039952Y025585D02*
Y026252D01*
X0396Y0242D02*
X04005D01*
X03877Y02503D02*
Y025585D01*
Y02503D02*
X0396Y0242D01*
X039558Y024692D02*
X0396Y02465D01*
X039558Y024692D02*
Y025585D01*
X039755Y024995D02*
X0401Y02465D01*
X039755Y024995D02*
Y025585D01*
X0401Y02465D02*
X04055D01*
X03545Y0193D02*
Y021146D01*
X032475Y017237D02*
X033387D01*
X031995Y017717D02*
X032475Y017237D01*
X033387D02*
X03545Y0193D01*
X03445Y02605D02*
X035366Y026966D01*
X03445Y02465D02*
Y02605D01*
X035366Y026966D02*
X038634D01*
X038967Y026633D01*
X030255Y024921D02*
X030373Y024803D01*
X030176Y025D02*
X030255Y024921D01*
X035904Y027904D02*
Y0288D01*
X0359Y0279D02*
X035904Y027904D01*
X02616Y023504D02*
Y025197D01*
X03955Y0477D02*
X04Y04725D01*
X039893Y036856D02*
X040461D01*
X04055Y036946D01*
X041096Y0364D01*
X039Y033745D02*
X039972Y034717D01*
X040617D02*
X041096Y035196D01*
X039972Y034717D02*
X040617D01*
X041096Y035196D02*
Y0364D01*
X03882Y027925D02*
Y034474D01*
X039872Y035526D01*
X04165Y03135D02*
X041893Y031593D01*
X04165Y02835D02*
Y03135D01*
X041893Y031593D02*
X04256D01*
X04183Y03088D02*
X042043Y031093D01*
X04183Y02753D02*
Y03088D01*
X042043Y031093D02*
X04256D01*
X043507Y032093D02*
X04565Y02995D01*
X04256Y032093D02*
X043507D01*
X04565Y02825D02*
Y02995D01*
Y02825D02*
X04595Y02795D01*
X045953Y027953D01*
X046654D01*
X04256Y032593D02*
X045407D01*
X046654Y031346D01*
Y029921D02*
Y031346D01*
X028515Y018197D02*
X028995Y017717D01*
X028515Y018197D02*
Y018915D01*
X02965Y02005D01*
X03065D01*
X035476Y024876D01*
X032921Y020271D02*
X036345Y023695D01*
X037865D01*
X0325Y02075D02*
Y021409D01*
X03577Y02468D01*
X040204Y020046D02*
X04405D01*
D36*
X030924Y025394D02*
X03116Y02563D01*
Y026388D01*
X030265Y027835D02*
X03116Y02873D01*
X029192Y027835D02*
X030265D01*
X022157Y021943D02*
X023514Y0233D01*
X021607Y021943D02*
X022157D01*
X021396Y022154D02*
X021607Y021943D01*
X023514Y0233D02*
X025419D01*
X026042Y022677D01*
X021396Y022154D02*
Y022972D01*
X017341Y01815D02*
X017381Y01811D01*
X017341Y01815D02*
Y019094D01*
X017263Y019173D02*
X017341Y019094D01*
X017263Y019173D02*
Y020079D01*
X0158Y0219D02*
X015924Y021776D01*
Y020079D02*
Y021776D01*
Y019803D02*
Y020079D01*
Y019803D02*
X016633Y019094D01*
X0355Y0262D02*
X03725D01*
X038574Y024876D02*
X04005Y0234D01*
X03725Y0262D02*
X038574Y024876D01*
X03891Y03869D02*
X03895Y03865D01*
X03891Y03869D02*
Y047178D01*
X040551Y048819D01*
X0357Y032684D02*
Y03345D01*
X03475Y0338D02*
X03535D01*
X0357Y03345D01*
X0367Y032684D02*
Y03335D01*
X03705Y0337D01*
X022703Y034252D02*
X023303D01*
X02899Y03424D02*
X02959D01*
X02887Y04212D02*
X029602Y042852D01*
Y043307D01*
X023303Y042795D02*
Y043307D01*
X022571Y042063D02*
X023303Y042795D01*
X0362Y030716D02*
Y03125D01*
X034Y0317D02*
X03575D01*
X0362Y03125D01*
D37*
X027066Y021866D02*
Y0233D01*
X0316D01*
X033129Y024829D01*
X022893Y019291D02*
X024491D01*
X02205Y0243D02*
X022066Y024284D01*
X0243Y022D02*
Y022162D01*
X023352Y021052D02*
X0243Y022D01*
X020069Y021052D02*
X023352D01*
X020058Y021063D02*
X020069Y021052D01*
X020058Y021063D02*
Y022972D01*
Y020394D02*
Y021063D01*
X018956Y019291D02*
X020058Y020394D01*
X022066Y024213D02*
Y024284D01*
Y022972D02*
Y024213D01*
X0207D02*
X020727Y024185D01*
Y022972D02*
Y024185D01*
X019389Y022539D02*
Y022972D01*
X0188Y02195D02*
X019389Y022539D01*
X033129Y024829D02*
Y026496D01*
X024491Y019291D02*
X027066Y021866D01*
Y0233D02*
Y027953D01*
D38*
X027519Y02912D02*
X0283Y028339D01*
Y027388D02*
Y028339D01*
X023837Y027953D02*
X0243Y02749D01*
Y025162D02*
Y02749D01*
X025005Y02912D02*
X027519D01*
X0283Y027388D02*
X029192Y026496D01*
X0243Y028416D02*
X025005Y02912D01*
X023438Y0243D02*
X0243Y025162D01*
X02205Y0243D02*
X023438D01*
X0181D02*
X02205D01*
X01742Y02498D02*
X0181Y0243D01*
X01742Y022835D02*
Y02498D01*
X0174Y025D02*
X01742Y02498D01*
X0174Y025D02*
Y027145D01*
X01742Y027165D01*
X0158Y0219D02*
X01875D01*
X01515D02*
X0158D01*
X014215Y022835D02*
X01515Y0219D01*
X01875D02*
X0188Y02195D01*
X014192Y027165D02*
X014852Y027825D01*
X014192Y022835D02*
Y027165D01*
X014852Y027825D02*
Y030233D01*
X01494Y033321D02*
Y03462D01*
X0243Y025162D02*
X026125D01*
X0243Y02749D02*
Y028416D01*
D39*
X033646Y026496D02*
X03455Y0274D01*
X0362Y032684D02*
Y03365D01*
X035804Y0347D02*
X03625Y034254D01*
X0362Y03365D02*
X03625Y0337D01*
Y0341D01*
Y034254D01*
Y0341D02*
X03635Y0342D01*
X037304D01*
X037804Y0347D01*
X03455Y0274D02*
X037D01*
X0379Y0283D01*
X0362Y03205D02*
Y032684D01*
Y03205D02*
X03655Y0317D01*
X037125D01*
X0379Y030925D01*
Y0283D02*
Y030925D01*
X032066Y026388D02*
X032174Y026496D01*
X033129D01*
X033646D01*
D40*
X031436Y027835D02*
X033129D01*
X030255Y026654D02*
X031436Y027835D01*
X030255Y026388D02*
Y026654D01*
X029192Y026496D02*
X0293Y026388D01*
X03116Y02873D02*
X03308D01*
X0334Y02905D01*
D41*
X0293Y026388D02*
X030255D01*
Y024405D02*
Y024921D01*
X0302Y02435D02*
X03025D01*
X0302D02*
X030255Y024405D01*
Y024921D02*
Y026388D01*
D42*
X014961Y049606D02*
D03*
X046457D02*
D03*
X046457Y01811D02*
D03*
X014961D02*
D03*
D43*
X018307Y049606D02*
D03*
X020276D02*
D03*
X03563D02*
D03*
X037598D02*
D03*
X046654Y034843D02*
D03*
Y036811D02*
D03*
Y03878D02*
D03*
Y040748D02*
D03*
Y042717D02*
D03*
Y044685D02*
D03*
Y046654D02*
D03*
Y032874D02*
D03*
Y029921D02*
D03*
Y027953D02*
D03*
Y025984D02*
D03*
X0174Y025D02*
D03*
X01494Y03462D02*
D03*
X033392Y041605D02*
D03*
X032392D02*
D03*
X031392D02*
D03*
X030392D02*
D03*
X027192D02*
D03*
X026192D02*
D03*
X025192D02*
D03*
X024192D02*
D03*
D44*
X042913Y048819D02*
D03*
D45*
X042126D02*
D03*
X041339D02*
D03*
X040551D02*
D03*
D46*
X035835Y044094D02*
D03*
X037394D02*
D03*
D47*
X030995Y018717D02*
D03*
Y017717D02*
D03*
X029995Y018717D02*
D03*
Y017717D02*
D03*
X028995Y018717D02*
D03*
Y017717D02*
D03*
X031995D02*
D03*
Y018717D02*
D03*
X032995Y017717D02*
D03*
Y018717D02*
D03*
D48*
X0325Y02075D02*
D03*
X03955Y0296D02*
D03*
X041Y02685D02*
D03*
X03925Y04509D02*
D03*
X04165Y0413D02*
D03*
Y0406D02*
D03*
Y0392D02*
D03*
Y0371D02*
D03*
X0412Y0378D02*
D03*
Y0385D02*
D03*
Y0399D02*
D03*
Y042D02*
D03*
X04295Y043D02*
D03*
X0406Y0425D02*
D03*
X0459Y02115D02*
D03*
X04305Y04725D02*
D03*
X04185Y0204D02*
D03*
X04115D02*
D03*
X037Y02435D02*
D03*
X03656Y02399D02*
D03*
X04085Y0234D02*
D03*
X04005Y0226D02*
D03*
Y0242D02*
D03*
Y0234D02*
D03*
X03935D02*
D03*
X03895Y03865D02*
D03*
X0418Y0275D02*
D03*
X04125Y02795D02*
D03*
X036496Y02815D02*
D03*
X0393Y01975D02*
D03*
X04Y02025D02*
D03*
X0459Y02185D02*
D03*
X04055Y02465D02*
D03*
X0396D02*
D03*
X03445D02*
D03*
X04395Y0214D02*
D03*
X0359Y0279D02*
D03*
D49*
X03625Y0337D02*
D03*
X03705D02*
D03*
X03475Y0338D02*
D03*
X022703Y034252D02*
D03*
X02899Y03424D02*
D03*
X022571Y042063D02*
D03*
X02887Y04212D02*
D03*
X036958Y03729D02*
D03*
X037938Y03731D02*
D03*
X03597Y03731D02*
D03*
X03499Y03729D02*
D03*
X017381Y01811D02*
D03*
X0334Y02905D02*
D03*
X0355Y0262D02*
D03*
X03025Y02435D02*
D03*
M02*
