%FSTAX24Y24*%
%MOIN*%
G70*
G01*
G75*
G04 Layer_Physical_Order=1*
G04 Layer_Color=255*
%ADD10O,0.0472X0.0217*%
%ADD11R,0.0472X0.0217*%
%ADD12R,0.0374X0.0315*%
%ADD13R,0.0630X0.0630*%
%ADD14R,0.0256X0.0472*%
%ADD15R,0.0472X0.0256*%
%ADD16R,0.0315X0.0374*%
%ADD17R,0.0492X0.0630*%
%ADD18R,0.0807X0.0886*%
G04:AMPARAMS|DCode=19|XSize=21.7mil|YSize=47.2mil|CornerRadius=0mil|HoleSize=0mil|Usage=FLASHONLY|Rotation=90.000|XOffset=0mil|YOffset=0mil|HoleType=Round|Shape=Octagon|*
%AMOCTAGOND19*
4,1,8,-0.0236,-0.0054,-0.0236,0.0054,-0.0182,0.0108,0.0182,0.0108,0.0236,0.0054,0.0236,-0.0054,0.0182,-0.0108,-0.0182,-0.0108,-0.0236,-0.0054,0.0*
%
%ADD19OCTAGOND19*%

%ADD20C,0.0100*%
%ADD21C,0.0709*%
%ADD22C,0.1575*%
%ADD23C,0.0591*%
%ADD24C,0.0472*%
%ADD25C,0.0551*%
%ADD26R,0.0591X0.0591*%
%ADD27C,0.0320*%
D10*
X23781Y141712D02*
D03*
Y14246D02*
D03*
X238844Y142086D02*
D03*
Y14246D02*
D03*
D11*
Y141712D02*
D03*
X234535Y14309D02*
D03*
D12*
X23745Y145196D02*
D03*
Y145904D02*
D03*
X23815Y145196D02*
D03*
Y145904D02*
D03*
X23885Y145196D02*
D03*
Y145904D02*
D03*
X243774Y14245D02*
D03*
Y141741D02*
D03*
X245465Y146034D02*
D03*
Y145326D02*
D03*
X233931Y142362D02*
D03*
Y143071D02*
D03*
X233322Y143071D02*
D03*
Y142362D02*
D03*
D13*
X241087Y145847D02*
D03*
X239749D02*
D03*
D14*
X242456Y145087D02*
D03*
X24283Y146132D02*
D03*
X242082D02*
D03*
D15*
X246928Y145726D02*
D03*
X245884Y1461D02*
D03*
Y145352D02*
D03*
D16*
X2405Y142606D02*
D03*
X239792D02*
D03*
X239972Y145096D02*
D03*
X24068D02*
D03*
X248135Y145816D02*
D03*
X247426D02*
D03*
X247948Y14185D02*
D03*
X247239D02*
D03*
X234758Y141732D02*
D03*
X235467D02*
D03*
D17*
X243636Y145944D02*
D03*
X244994D02*
D03*
D18*
X241688Y142056D02*
D03*
X24281D02*
D03*
D19*
X234535Y142342D02*
D03*
Y142716D02*
D03*
X235569Y142342D02*
D03*
Y14309D02*
D03*
D20*
X241373Y144409D02*
X241589D01*
X241117Y142115D02*
Y143724D01*
X240713Y141712D02*
X241117Y142115D01*
X238844Y141712D02*
X240713D01*
X239045Y143788D02*
Y144227D01*
Y143788D02*
X239365Y143468D01*
X239591Y146052D02*
X239749Y145895D01*
X238902Y146052D02*
X239591D01*
X241688Y142056D02*
Y142852D01*
X241427Y143113D02*
X241688Y142852D01*
X238844Y142086D02*
X238864Y142106D01*
X239365D01*
X244538Y141899D02*
X245694D01*
X243774Y142352D02*
Y14245D01*
X241117Y143724D02*
X241463Y14407D01*
X239975Y144731D02*
Y145048D01*
Y144731D02*
X24025Y144456D01*
X237613Y144645D02*
Y144684D01*
X232288Y142676D02*
Y143789D01*
Y145235D02*
X232761Y145708D01*
X24281Y142056D02*
X243125Y141741D01*
X243774D01*
X242229Y142637D02*
X24281Y142056D01*
X242229Y142637D02*
Y143456D01*
X237096Y14246D02*
X23781D01*
X241087Y145344D02*
Y145895D01*
X240792Y145048D02*
X241087Y145344D01*
X240684Y145048D02*
X240792D01*
X240635Y145895D02*
X241087D01*
X247131Y145265D02*
Y145275D01*
X247426Y14557D01*
Y145816D01*
X232761Y145708D02*
X235941D01*
X238193Y143456D01*
X2374Y146D02*
Y146125D01*
X238105Y145915D02*
X238185D01*
X238829Y145271D01*
X24156Y143533D02*
X241869Y143842D01*
X242145Y1456D02*
X242735D01*
X235955Y146092D02*
X237362Y144684D01*
X238829Y142475D02*
Y145271D01*
Y142475D02*
X238844Y14246D01*
X238193Y143456D02*
X238263D01*
X236629Y144438D02*
X2383Y142767D01*
Y14195D02*
Y142767D01*
Y14195D02*
X238538Y141712D01*
X238844D01*
X244267Y146151D02*
X244828D01*
X245034Y145944D01*
X24784Y14621D02*
X248135Y145915D01*
Y145816D02*
Y145915D01*
X24545Y143639D02*
X247239Y14185D01*
X241869Y143842D02*
X242508D01*
X243528Y142822D01*
X243959D01*
X244183Y142598D01*
Y142254D02*
Y142598D01*
Y142254D02*
X244538Y141899D01*
X244537Y141589D02*
X246556D01*
X243774Y142352D02*
X244537Y141589D01*
X246556D02*
X246669Y141702D01*
X242735Y1456D02*
X24296Y145376D01*
X243086Y145294D02*
X243086D01*
X243099Y145308D02*
Y14531D01*
X240457Y145718D02*
X240635Y145895D01*
X240408Y145767D02*
X240457Y145718D01*
X240369Y145767D02*
X240408D01*
X241536Y143557D02*
X24156Y143533D01*
X241536Y143557D02*
Y143646D01*
X244436Y143356D02*
Y143416D01*
X239316Y142971D02*
X239365Y142922D01*
X239316Y142971D02*
Y143106D01*
X244993Y144645D02*
X24545Y144188D01*
X2438Y144645D02*
X244993D01*
X24545Y143639D02*
Y144188D01*
X245002Y145137D02*
X245954Y144186D01*
X245034Y145944D02*
X245156Y146066D01*
X239365Y142106D02*
X240616D01*
X240876Y142366D01*
Y143912D01*
X241373Y144409D01*
X240506Y142686D02*
Y1432D01*
X24025Y143456D02*
X240506Y1432D01*
X239045Y144227D02*
X239486Y144667D01*
X238263Y144456D02*
Y1452D01*
X237491D02*
X238263D01*
X242229Y144456D02*
Y144686D01*
X242475Y144932D01*
Y144989D01*
X243676Y145944D02*
X244264Y145356D01*
X246896Y143994D02*
Y144266D01*
X241463Y14407D02*
X243782D01*
X244436Y143416D01*
X239749Y145895D02*
X240166Y146312D01*
X2374Y146125D02*
X237551Y146276D01*
X238679D01*
X238902Y146052D01*
X246669Y141702D02*
X247091D01*
X247239Y14185D01*
X240166Y146312D02*
X24199D01*
X242082Y14622D01*
X239365Y142106D02*
Y142627D01*
Y142922D01*
Y142627D02*
X239376Y142616D01*
X242082Y146122D02*
Y146132D01*
Y14622D01*
X235036Y14452D02*
X237096Y14246D01*
X239486Y145494D02*
X239749Y145757D01*
X239486Y144667D02*
Y145494D01*
X246732Y14621D02*
X246758Y146183D01*
X246732Y14621D02*
X24784D01*
X245156Y146066D02*
X245586D01*
X231727Y14435D02*
X232288Y143789D01*
X232059Y146092D02*
X235955D01*
X231727Y14435D02*
Y14576D01*
X232059Y146092D01*
X243086Y145294D02*
X243099Y145308D01*
X246896Y143994D02*
X247948Y142942D01*
X24283Y145976D02*
Y146122D01*
Y145976D02*
X243668Y145137D01*
X245002D01*
X24641Y14621D02*
X246732D01*
X246406Y146206D02*
X24641Y14621D01*
X248135Y144829D02*
Y145816D01*
Y144829D02*
X248887Y144077D01*
X247761Y144064D02*
X248747Y143077D01*
X247948Y14185D02*
X248175Y142077D01*
X239355Y143917D02*
X240461D01*
X242145Y1456D01*
X236886Y141712D02*
X23781D01*
X235569Y14309D02*
X235589Y14311D01*
X234286Y142716D02*
X234535D01*
X233931Y143071D02*
X234286Y142716D01*
X233951Y142342D02*
X234535D01*
X233931Y142362D02*
X233951Y142342D01*
X234535Y142716D02*
X234897D01*
X235094Y14252D01*
X234758Y141732D02*
X235094Y142068D01*
Y14252D01*
X235467Y141732D02*
X235569Y141835D01*
X233322Y142362D02*
X233931D01*
X233322Y142362D02*
X233322Y142362D01*
X233322Y143071D02*
Y144202D01*
X232288Y145235D02*
X233322Y144202D01*
X233823Y143701D01*
X234959D02*
X235569Y14309D01*
X233823Y143701D02*
X234959D01*
X235487Y14311D02*
X236886Y141712D01*
X233931Y141948D02*
Y142362D01*
X233913Y141929D02*
X233931Y141948D01*
X237362Y144684D02*
X237613D01*
X243034Y145376D02*
X243099Y14531D01*
X24296Y145376D02*
X243034D01*
X235569Y141899D02*
Y142342D01*
Y141835D02*
Y141899D01*
X248887Y144077D02*
X249139D01*
X24636Y14621D02*
X24641D01*
X246758Y145676D02*
Y146183D01*
X248747Y143077D02*
X249139D01*
X248175Y142077D02*
X249139D01*
X245806Y145356D02*
X246896Y144266D01*
X244264Y145356D02*
X245806D01*
X247948Y14185D02*
Y142942D01*
X235569Y141899D02*
X235881Y141587D01*
X239365Y142922D02*
Y143468D01*
X239376Y142616D02*
X239887D01*
D21*
X232288Y145235D02*
D03*
Y142676D02*
D03*
D22*
X229976Y142381D02*
D03*
X249532Y145531D02*
D03*
D23*
X236031Y14452D02*
D03*
X234041D02*
D03*
X235036D02*
D03*
X2438Y143267D02*
D03*
X250054Y144078D02*
D03*
Y143078D02*
D03*
X249139Y143077D02*
D03*
Y144077D02*
D03*
D24*
X238263Y143456D02*
D03*
Y144456D02*
D03*
X242229Y143456D02*
D03*
Y144456D02*
D03*
D25*
X24025Y144456D02*
D03*
Y143456D02*
D03*
D26*
X2438Y144645D02*
D03*
X250054Y142078D02*
D03*
X249139Y142077D02*
D03*
D27*
X241589Y144409D02*
D03*
X244267Y146151D02*
D03*
X241427Y143113D02*
D03*
X245694Y141899D02*
D03*
X237613Y144645D02*
D03*
X239355Y143917D02*
D03*
X236629Y144438D02*
D03*
X246669Y141702D02*
D03*
X247131Y145265D02*
D03*
X243016Y145334D02*
D03*
X240409Y145797D02*
D03*
X241536Y143646D02*
D03*
X244436Y143416D02*
D03*
X239316Y143106D02*
D03*
X245954Y144166D02*
D03*
X246406Y146206D02*
D03*
X247761Y144064D02*
D03*
X233913Y141929D02*
D03*
X235881Y141587D02*
D03*
M02*
