%FSTAX24Y24*%
%MOIN*%
G70*
G01*
G75*
G04 Layer_Color=8388736*
%ADD10O,0.0472X0.0217*%
%ADD11R,0.0472X0.0217*%
%ADD12R,0.0374X0.0315*%
%ADD13R,0.0630X0.0630*%
%ADD14R,0.0256X0.0472*%
%ADD15R,0.0472X0.0256*%
%ADD16R,0.0315X0.0374*%
%ADD17R,0.0492X0.0630*%
%ADD18R,0.0807X0.0886*%
G04:AMPARAMS|DCode=19|XSize=21.7mil|YSize=47.2mil|CornerRadius=0mil|HoleSize=0mil|Usage=FLASHONLY|Rotation=90.000|XOffset=0mil|YOffset=0mil|HoleType=Round|Shape=Octagon|*
%AMOCTAGOND19*
4,1,8,-0.0236,-0.0054,-0.0236,0.0054,-0.0182,0.0108,0.0182,0.0108,0.0236,0.0054,0.0236,-0.0054,0.0182,-0.0108,-0.0182,-0.0108,-0.0236,-0.0054,0.0*
%
%ADD19OCTAGOND19*%

%ADD20C,0.0100*%
%ADD21C,0.0709*%
%ADD22C,0.1575*%
%ADD23C,0.0591*%
%ADD24C,0.0472*%
%ADD25C,0.0551*%
%ADD26R,0.0591X0.0591*%
%ADD27C,0.0320*%
%ADD28O,0.0236X0.1200*%
%ADD29R,0.0236X0.1200*%
%ADD30O,0.0236X0.1204*%
%ADD31R,0.0630X0.0492*%
%ADD32C,0.0200*%
%ADD33C,0.0197*%
%ADD34C,0.0079*%
%ADD35C,0.0080*%
%ADD36C,0.0039*%
%ADD37C,0.0004*%
%ADD38C,0.0020*%
%ADD39C,0.0030*%
%ADD40O,0.0512X0.0256*%
%ADD41R,0.0512X0.0256*%
%ADD42R,0.0454X0.0395*%
%ADD43R,0.0710X0.0710*%
%ADD44R,0.0336X0.0552*%
%ADD45R,0.0552X0.0336*%
%ADD46R,0.0395X0.0454*%
%ADD47R,0.0572X0.0710*%
%ADD48R,0.0887X0.0966*%
G04:AMPARAMS|DCode=49|XSize=25.6mil|YSize=51.2mil|CornerRadius=0mil|HoleSize=0mil|Usage=FLASHONLY|Rotation=90.000|XOffset=0mil|YOffset=0mil|HoleType=Round|Shape=Octagon|*
%AMOCTAGOND49*
4,1,8,-0.0256,-0.0064,-0.0256,0.0064,-0.0192,0.0128,0.0192,0.0128,0.0256,0.0064,0.0256,-0.0064,0.0192,-0.0128,-0.0192,-0.0128,-0.0256,-0.0064,0.0*
%
%ADD49OCTAGOND49*%

%ADD50C,0.0789*%
%ADD51C,0.1655*%
%ADD52C,0.0671*%
%ADD53C,0.0552*%
%ADD54C,0.0631*%
%ADD55R,0.0671X0.0671*%
%ADD56C,0.0400*%
D40*
X23781Y141712D02*
D03*
Y14246D02*
D03*
X238844Y142086D02*
D03*
Y14246D02*
D03*
D41*
Y141712D02*
D03*
X234535Y14309D02*
D03*
D42*
X23745Y145196D02*
D03*
Y145904D02*
D03*
X23815Y145196D02*
D03*
Y145904D02*
D03*
X23885Y145196D02*
D03*
Y145904D02*
D03*
X243774Y14245D02*
D03*
Y141741D02*
D03*
X245465Y146034D02*
D03*
Y145326D02*
D03*
X233931Y142362D02*
D03*
Y143071D02*
D03*
X233322Y143071D02*
D03*
Y142362D02*
D03*
D43*
X241087Y145847D02*
D03*
X239749D02*
D03*
D44*
X242456Y145087D02*
D03*
X24283Y146132D02*
D03*
X242082D02*
D03*
D45*
X246928Y145726D02*
D03*
X245884Y1461D02*
D03*
Y145352D02*
D03*
D46*
X2405Y142606D02*
D03*
X239792D02*
D03*
X239972Y145096D02*
D03*
X24068D02*
D03*
X248135Y145816D02*
D03*
X247426D02*
D03*
X247948Y14185D02*
D03*
X247239D02*
D03*
X234758Y141732D02*
D03*
X235467D02*
D03*
D47*
X243636Y145944D02*
D03*
X244994D02*
D03*
D48*
X241688Y142056D02*
D03*
X24281D02*
D03*
D49*
X234535Y142342D02*
D03*
Y142716D02*
D03*
X235569Y142342D02*
D03*
Y14309D02*
D03*
D50*
X232288Y145235D02*
D03*
Y142676D02*
D03*
D51*
X229976Y142381D02*
D03*
X249532Y145531D02*
D03*
D52*
X236031Y14452D02*
D03*
X234041D02*
D03*
X235036D02*
D03*
X2438Y143267D02*
D03*
X250054Y144078D02*
D03*
Y143078D02*
D03*
X249139Y143077D02*
D03*
Y144077D02*
D03*
D53*
X238263Y143456D02*
D03*
Y144456D02*
D03*
X242229Y143456D02*
D03*
Y144456D02*
D03*
D54*
X24025Y144456D02*
D03*
Y143456D02*
D03*
D55*
X2438Y144645D02*
D03*
X250054Y142078D02*
D03*
X249139Y142077D02*
D03*
D56*
X241589Y144409D02*
D03*
X244267Y146151D02*
D03*
X241427Y143113D02*
D03*
X245694Y141899D02*
D03*
X237613Y144645D02*
D03*
X239355Y143917D02*
D03*
X236629Y144438D02*
D03*
X246669Y141702D02*
D03*
X247131Y145265D02*
D03*
X243016Y145334D02*
D03*
X240409Y145797D02*
D03*
X241536Y143646D02*
D03*
X244436Y143416D02*
D03*
X239316Y143106D02*
D03*
X245954Y144166D02*
D03*
X246406Y146206D02*
D03*
X247761Y144064D02*
D03*
X233913Y141929D02*
D03*
X235881Y141587D02*
D03*
M02*
