M48
;Layer_Color=9474304
;FILE_FORMAT=2:4
INCH,LZ
;TYPE=PLATED
T1F00S00C0.0200
T2F00S00C0.0236
T3F00S00C0.0280
T4F00S00C0.0354
T5F00S00C0.0394
T6F00S00C0.0472
T7F00S00C0.0551
T8F00S00C0.1180
T9F00S00C0.1260
%
T01
X18682Y1384
X18808Y1394
X1979Y1398
X2003
X19831Y14475
X19703Y14603
X1924Y1469
X19185Y14735
X1884Y14835
Y14885
X18855Y1501
X1883Y1463
X1944Y1503
X2017Y1494
Y1487
Y1479
X1862Y1516
X18635Y1698
X18545Y1696
X1886Y1705
X195Y1732
X19395Y17725
X1972
X1856Y1761
T02
X201928Y135024
X201435Y134937
X200943Y134851
X198375Y134808
X197892Y134937
X197409Y135067
T03
X1931Y1503
X1909Y1502
X1928Y145
X19878Y16503
X190829Y1702
X19555Y1726
X1962Y17415
Y17515
X188Y17465
Y17565
T04
X1859Y1354
Y1364
Y1374
Y1384
Y1394
Y1404
X191077Y140822
X192077
X193077
X194077
Y143822
X193077
X192077
X191077
X19814Y1511
X192593Y176772
X191593
T05
X186899Y1636
X185639Y1606
X188159
X1956
Y1636
T06
X1983Y15555
X196332Y154566
Y153581
Y156534
Y157519
T07
X187655Y155344
Y156722
Y1581
T08
X187427Y167224
X189927
X188677Y165224
X193955Y167815
X196455
X195205Y169815
T09
X188443Y137696
X19205Y16573
M30
