M48
;Layer_Color=9474304
;FILE_FORMAT=2:4
INCH,LZ
;TYPE=PLATED
T1F00S00C0.0200
T2F00S00C0.0354
%
T01
X24259Y18685
X242582Y183688
X242769Y181936
X239044Y182162
X2378Y18415
X2384Y18545
X238684Y18647
X239411Y187
X23945Y185
X234606Y184443
X2368Y18865
X2366Y18935
X239718Y188343
X2425Y18765
X242415Y190469
X242011Y192084
X240052Y193521
X235535Y193557
T02
X242Y18125
X241
X24
X239
X238
X237
X2356Y18145
X2385Y18965
Y19065
Y19165
Y19265
X2415
Y19165
Y19065
Y18965
M30
