M48
;Layer_Color=9474304
;FILE_FORMAT=2:4
INCH,LZ
;TYPE=PLATED
T1F00S00C0.0200
T2F00S00C0.0236
T3F00S00C0.0280
T4F00S00C0.0354
T5F00S00C0.0394
T6F00S00C0.0472
T7F00S00C0.0551
T8F00S00C0.1180
%
T01
X2003Y1398
X1979
X1881Y1384
X1892Y1372
X1883Y1463
X1884Y14835
Y14885
X19185Y14735
X1924Y1469
X1944Y1503
X2017Y1494
Y1487
Y1479
X1862Y1516
X1913Y1593
X195Y1732
T02
X201928Y135024
X201435Y134937
X200943Y134851
X198375Y134808
X197892Y134937
X197409Y135067
T03
X1931Y1503
X1909Y1502
X1928Y145
X1923Y1652
X190829Y1702
X1955Y1727
T04
X1859Y1354
Y1364
Y1374
Y1384
Y1394
Y1404
X191Y1398
X194
Y1408
Y1418
Y1428
X191
Y1418
Y1408
X2008Y1429
X187475Y172539
X186475
T05
X185639Y1636
X186899Y1606
X188159Y1636
X1956
Y1606
T06
X1983Y15555
X196332Y154566
Y153581
Y156534
Y157519
T07
X1881Y155344
Y156722
Y1581
T08
X195205Y169815
X193955Y167815
X196455
M30
