M48
;Layer_Color=9474304
;FILE_FORMAT=2:4
INCH,LZ
;TYPE=PLATED
T1F00S00C0.0080
T2F00S00C0.0100
T3F00S00C0.0236
T4F00S00C0.0315
T5F00S00C0.0354
T6F00S00C0.0394
T7F00S00C0.0433
T8F00S00C0.0492
T9F00S00C0.0510
T10F00S00C0.0551
T11F00S00C0.0591
T12F00S00C0.0650
T13F00S00C0.1378
%
T01
X0555Y035
X05655Y0354
X05865Y03725
T02
X02355Y0155
X02655Y0152
X034
X03535
X04175Y01495
X04775Y0145
X05125
X06285Y0241
X06205Y0247
X0619Y0271
X0591Y0297
X0586Y03025
X05905Y0308
X05795Y03115
X0531Y0298
X0523Y0305
X0508Y0297
X05155Y02815
X0495Y0284
X0491Y0287
X04855Y0292
X0478Y0297
X0473Y0293
X0478Y0272
X04815Y02325
X05015Y0231
X04955Y0223
X0504Y021391
X05095
X051591Y02145
X0513Y02185
X0515Y0228
X0523Y0231
Y021441
X05285Y02175
X05345Y0212
X05445Y02115
X0542Y0239
X05375Y0236
X054Y02535
X0531Y0266
X055Y02695
X05545Y02645
X05965Y02345
X05765Y018617
X0566Y018611
X0556
X05365
X05245Y01795
X05195Y01765
Y019891
X0528Y019791
X04995Y0202
X0492Y01985
X0486Y01945
X04815Y0198
X0473Y0199
X04765Y02145
X046941Y021459
X0473Y01785
X0478Y01805
X0453Y0202
X0447Y0198
X04415Y0197
X04245Y0185
X04195Y01785
X04015Y0185
X0402Y01905
X0396Y01895
X0394Y01945
X039397Y020153
X038609Y019859
X03825Y02015
X0378Y0215
X039003Y021497
X040184Y021684
X0409Y02195
X041672Y022622
X04165Y024
X0416Y02495
X04155Y02565
X04065Y0253
X0408Y02645
X0402
Y0276
X0401Y0288
Y0293
Y0297
X04075Y02865
X0413Y0309
X04175Y0305
X0424Y03055
X04265Y0297
X0431Y0293
X0436Y0287
X0438Y02795
X04415Y0276
Y0283
X04385Y0272
X04455Y0266
Y02605
X043Y0251
X042737Y023213
X0438Y0228
X04525Y02155
X04575Y0214
X0463
X04685Y02395
Y0257
Y0297
X0423Y0272
X0389Y0276
X039Y02645
X0386
X037822Y026472
X036962Y026362
X03695Y02585
X036831Y025181
X03685Y0244
X0378Y0247
X03775Y0235
X037131Y022819
X03685Y02205
X03835Y0227
X03565Y02335
X0352Y0245
X03535Y0249
X0353Y027
X03565Y02745
X0349Y0274
X03455Y02695
X03395Y02645
X03305Y02775
X03195
X03205Y02875
X03255Y02845
X03155Y02905
X03125Y0304
X03195Y02455
X03155Y023
X0314Y0225
X0326Y0229
X033759Y023409
X0355Y021168
X03595Y0193
X0365Y01895
X03165Y0191
X04125Y0157
X0378Y028
X03785Y02845
X0308Y0303
X03025
X0297Y03025
X028291Y02995
Y0292
Y0279
Y02715
X02665Y0248
X0264Y0244
X0266Y02235
X0283Y02215
X0284Y023096
X02965Y021354
X03055Y02215
X03025Y0197
X028481Y019819
Y018219
X0291Y01755
X02595Y016881
X02565Y01965
X02395Y02415
X02275Y02465
X0221Y0251
X02155Y02415
X0216Y02795
X02185Y0289
X0232Y0294
X0285Y03115
X0297Y03175
X0302Y03205
X0307Y0323
X03105Y03255
Y034
X0307
X0302Y0339
X0297
X0292
X02445Y03395
Y0334
X025991Y031891
X03365Y0352
X04185Y03165
X0491Y0343
X0496Y0339
X05005Y0335
X0511Y0344
X0516Y03405
X0521
X052048Y033198
X05285Y03245
Y03455
X0553Y0375
X058999Y037525
X059062Y036538
X059099Y036025
X06155Y0342
T03
X042463Y02045
X04325
T04
X06215Y01795
Y01895
Y02095
T05
X05365Y01775
X05465
X05565
X05665
X05765
X05865
X05965
X02697Y0267
Y0277
Y0287
Y0297
X02597Y0292
Y0282
Y0272
Y0302
X02215Y02995
X02147Y03095
Y02695
X02215Y02595
X05705Y032948
X05805
X05905
X06005
X05955Y033948
X05855
X05755
X06055
T06
X04855Y0261
Y0271
X04955Y0271
X05055
X05155
X05255
Y0261
X05155
X05055
X04955
X039361Y0299
X037439
X0346Y021961
Y020039
X023523Y02111
X022421Y023
X024704
X02146Y032665
Y034435
X03625Y03405
Y03505
X03635Y03275
X03535
X0438Y0317
X0448
X046
X047
X0563Y031548
X0573
X05855
X05955
T07
X03775Y033
Y035
X04075
X04175
X0429
Y033
X04175
X04075
X0459
Y035
X0469
Y033
T08
X05312Y0227
X05568
T09
X02244Y03217
Y03493
T10
X047084Y01635
X048462
X04984
X052588
X053966
X055344
X056722
X0581
X059478
X045706
X044328
X04295
X040168Y01635
X03879
X037412
X036034
X034656
X033278
X0319
X030522
X029144
X029534Y0364
X028156
X026778
X0254
X030912
X03229
X033668
X035046
X036424
X0391
X040478
X041856
X043234
X044612
X04599
X04865
X050028
X051406
X052784
X054162
T11
X058182Y0264
X06015
T12
X02467Y0254
Y0315
T13
X062Y01575
X0225Y0368
M30
