%FSAX24Y24*%
%MOIN*%
G70*
G01*
G75*
G04 Layer_Color=16711935*
%ADD10C,0.0100*%
%ADD11R,0.1378X0.0748*%
%ADD12R,0.1732X0.0866*%
%ADD13O,0.0276X0.0984*%
%ADD14R,0.0118X0.0591*%
%ADD15R,0.0591X0.0118*%
%ADD16C,0.0394*%
%ADD17R,0.0472X0.0532*%
%ADD18R,0.0532X0.0472*%
%ADD19R,0.1969X0.2756*%
%ADD20R,0.0551X0.0472*%
%ADD21R,0.0472X0.0551*%
%ADD22R,0.0787X0.0571*%
%ADD23R,0.0591X0.0315*%
%ADD24R,0.0177X0.0453*%
%ADD25C,0.0300*%
%ADD26C,0.0120*%
%ADD27C,0.0591*%
%ADD28C,0.0787*%
%ADD29C,0.0472*%
%ADD30C,0.0650*%
%ADD31C,0.0630*%
%ADD32R,0.0787X0.0787*%
%ADD33C,0.0600*%
%ADD34R,0.0728X0.0728*%
%ADD35C,0.0728*%
%ADD36C,0.1161*%
%ADD37C,0.1043*%
%ADD38C,0.0591*%
%ADD39R,0.0591X0.0591*%
%ADD40R,0.0650X0.0650*%
%ADD41C,0.0984*%
%ADD42R,0.0984X0.0984*%
%ADD43R,0.0591X0.0591*%
%ADD44C,0.1181*%
%ADD45R,0.0591X0.0591*%
%ADD46O,0.1890X0.0787*%
%ADD47O,0.0787X0.1890*%
%ADD48C,0.0240*%
%ADD49R,0.0906X0.0906*%
%ADD50R,0.1634X0.0374*%
%ADD51R,0.3701X0.3228*%
%ADD52O,0.0236X0.0906*%
%ADD53R,0.0374X0.0335*%
%ADD54O,0.0709X0.0177*%
%ADD55O,0.0866X0.0236*%
%ADD56C,0.0200*%
%ADD57C,0.0079*%
%ADD58C,0.0050*%
%ADD59C,0.0098*%
%ADD60C,0.0236*%
%ADD61C,0.0039*%
%ADD62C,0.0080*%
%ADD63C,0.0059*%
%ADD64R,0.1614X0.0748*%
%ADD65R,0.1458X0.0828*%
%ADD66R,0.1812X0.0946*%
%ADD67O,0.0356X0.1064*%
%ADD68R,0.0198X0.0671*%
%ADD69R,0.0671X0.0198*%
%ADD70C,0.0474*%
%ADD71R,0.0552X0.0612*%
%ADD72R,0.0612X0.0552*%
%ADD73R,0.2049X0.2836*%
%ADD74R,0.0631X0.0552*%
%ADD75R,0.0552X0.0631*%
%ADD76R,0.0867X0.0651*%
%ADD77R,0.0671X0.0395*%
%ADD78R,0.0257X0.0533*%
%ADD79C,0.0671*%
%ADD80C,0.0867*%
%ADD81C,0.0552*%
%ADD82C,0.0730*%
%ADD83C,0.0710*%
%ADD84R,0.0867X0.0867*%
%ADD85C,0.0680*%
%ADD86R,0.0808X0.0808*%
%ADD87C,0.0808*%
%ADD88C,0.1241*%
%ADD89C,0.1123*%
%ADD90C,0.0671*%
%ADD91R,0.0671X0.0671*%
%ADD92R,0.0730X0.0730*%
%ADD93C,0.1064*%
%ADD94R,0.1064X0.1064*%
%ADD95R,0.0671X0.0671*%
%ADD96C,0.1261*%
%ADD97R,0.0671X0.0671*%
%ADD98O,0.1970X0.0867*%
%ADD99O,0.0867X0.1970*%
%ADD100C,0.0320*%
%ADD101R,0.0986X0.0986*%
%ADD102R,0.1714X0.0454*%
%ADD103R,0.3781X0.3308*%
%ADD104O,0.0316X0.0986*%
%ADD105R,0.0454X0.0415*%
%ADD106O,0.0789X0.0257*%
%ADD107O,0.0946X0.0316*%
D71*
X051496Y022200D02*
D03*
X052204D02*
D03*
X022446Y028800D02*
D03*
X023154D02*
D03*
X022441Y027950D02*
D03*
X023150D02*
D03*
X058396Y027600D02*
D03*
X059104D02*
D03*
X041450Y017400D02*
D03*
X040741D02*
D03*
X041450Y018200D02*
D03*
X040741D02*
D03*
D72*
X062450Y027059D02*
D03*
Y026350D02*
D03*
X032600Y022359D02*
D03*
Y021650D02*
D03*
X032250Y019296D02*
D03*
Y020004D02*
D03*
X051500Y023196D02*
D03*
Y023904D02*
D03*
X053650Y033154D02*
D03*
Y032446D02*
D03*
Y030950D02*
D03*
Y031659D02*
D03*
X056250Y033748D02*
D03*
Y033039D02*
D03*
X060500Y032002D02*
D03*
Y031293D02*
D03*
D74*
X039000Y021991D02*
D03*
Y022700D02*
D03*
X039300Y025950D02*
D03*
Y025241D02*
D03*
X049950Y018591D02*
D03*
Y019300D02*
D03*
X041050Y024841D02*
D03*
Y025550D02*
D03*
X040200Y026000D02*
D03*
Y025291D02*
D03*
X037800Y022000D02*
D03*
Y022709D02*
D03*
X051200Y018583D02*
D03*
Y019291D02*
D03*
X052300Y018591D02*
D03*
Y019300D02*
D03*
X024650Y027250D02*
D03*
Y027959D02*
D03*
Y028941D02*
D03*
Y029650D02*
D03*
X033400Y020046D02*
D03*
Y020754D02*
D03*
Y022354D02*
D03*
Y021646D02*
D03*
X038450Y029746D02*
D03*
Y030454D02*
D03*
X036450Y029696D02*
D03*
Y030404D02*
D03*
X045300Y018600D02*
D03*
Y019309D02*
D03*
X046550Y018591D02*
D03*
Y019300D02*
D03*
X047650Y018600D02*
D03*
Y019309D02*
D03*
D75*
X041150Y024000D02*
D03*
X040441D02*
D03*
X037400Y025200D02*
D03*
X038109D02*
D03*
X037791Y026000D02*
D03*
X038500D02*
D03*
X041159Y022600D02*
D03*
X040450D02*
D03*
X050050Y020741D02*
D03*
X050759D02*
D03*
X052300D02*
D03*
X051591D02*
D03*
X025991Y031100D02*
D03*
X026700D02*
D03*
X029000Y027900D02*
D03*
X028291D02*
D03*
X029000Y027150D02*
D03*
X028291D02*
D03*
X029000Y029950D02*
D03*
X028291D02*
D03*
X029000Y029200D02*
D03*
X028291D02*
D03*
X045400Y020750D02*
D03*
X046109D02*
D03*
X047650D02*
D03*
X046941D02*
D03*
X061504Y035250D02*
D03*
X060796D02*
D03*
D78*
X034730Y035200D02*
D03*
X035045D02*
D03*
Y034432D02*
D03*
X034730D02*
D03*
X034415D02*
D03*
X034100D02*
D03*
Y035200D02*
D03*
X034415D02*
D03*
X027830Y035400D02*
D03*
X028145D02*
D03*
Y034632D02*
D03*
X027830D02*
D03*
X027515D02*
D03*
X027200D02*
D03*
Y035400D02*
D03*
X027515D02*
D03*
D79*
X021000Y035000D02*
D03*
Y036000D02*
D03*
Y037000D02*
D03*
X062150Y017950D02*
D03*
Y018950D02*
D03*
Y020950D02*
D03*
X057650Y017750D02*
D03*
X058650D02*
D03*
X056650D02*
D03*
X055650D02*
D03*
X054650D02*
D03*
X053650D02*
D03*
D80*
X034600Y021961D02*
D03*
Y020039D02*
D03*
X039361Y029900D02*
D03*
X037439D02*
D03*
X045900Y033000D02*
D03*
X046900D02*
D03*
X042900Y035000D02*
D03*
X045900D02*
D03*
X046900D02*
D03*
X041750D02*
D03*
X040750D02*
D03*
X037750D02*
D03*
X041750Y033000D02*
D03*
X040750D02*
D03*
D81*
X043250Y020450D02*
D03*
X042463D02*
D03*
D82*
X059550Y031548D02*
D03*
X058550D02*
D03*
X057300D02*
D03*
X056300D02*
D03*
X047000Y031700D02*
D03*
X046000D02*
D03*
X043800D02*
D03*
X044800D02*
D03*
X036250Y035050D02*
D03*
Y034050D02*
D03*
X035350Y032750D02*
D03*
X036350D02*
D03*
X052550Y027100D02*
D03*
Y026100D02*
D03*
X051550Y027100D02*
D03*
Y026100D02*
D03*
X050550Y027100D02*
D03*
Y026100D02*
D03*
X049550Y027100D02*
D03*
Y026100D02*
D03*
X048550Y027100D02*
D03*
X058850Y020200D02*
D03*
Y021200D02*
D03*
X057350Y020200D02*
D03*
Y021200D02*
D03*
D83*
X061500Y031850D02*
D03*
Y030850D02*
D03*
D84*
X042900Y033000D02*
D03*
X037750D02*
D03*
D85*
X022500Y036800D02*
D03*
X062000Y015750D02*
D03*
D86*
X055680Y022700D02*
D03*
D87*
X053120D02*
D03*
D88*
X023470Y026200D02*
D03*
Y030700D02*
D03*
X056550Y036448D02*
D03*
X061050D02*
D03*
D89*
X024670Y025400D02*
D03*
Y031500D02*
D03*
D90*
X025970Y029200D02*
D03*
Y028200D02*
D03*
X026970Y028700D02*
D03*
Y027700D02*
D03*
X025970Y027200D02*
D03*
X026970Y029700D02*
D03*
Y026700D02*
D03*
X022150Y025950D02*
D03*
X021470Y026950D02*
D03*
X022150Y029950D02*
D03*
X021470Y030950D02*
D03*
X059550Y033948D02*
D03*
X058550D02*
D03*
X059050Y032948D02*
D03*
X058050D02*
D03*
X057550Y033948D02*
D03*
X060050Y032948D02*
D03*
X057050D02*
D03*
D91*
X025970Y030200D02*
D03*
D92*
X048550Y026100D02*
D03*
D93*
X026778Y036400D02*
D03*
X029534D02*
D03*
X032290D02*
D03*
X033668D02*
D03*
X028156D02*
D03*
X035046D02*
D03*
X030912D02*
D03*
X036424D02*
D03*
X038790Y016350D02*
D03*
X036034D02*
D03*
X033278D02*
D03*
X031900D02*
D03*
X037412D02*
D03*
X030522D02*
D03*
X034656D02*
D03*
X029144D02*
D03*
X044328Y016350D02*
D03*
X047084D02*
D03*
X042950D02*
D03*
X045706D02*
D03*
X048462D02*
D03*
X044612Y036400D02*
D03*
X041856D02*
D03*
X045990D02*
D03*
X043234D02*
D03*
X040478D02*
D03*
X053966Y016350D02*
D03*
X056722D02*
D03*
X052588D02*
D03*
X055344D02*
D03*
X058100D02*
D03*
X050028Y036400D02*
D03*
X052784D02*
D03*
X051406D02*
D03*
X054162D02*
D03*
D94*
X025400D02*
D03*
X040168Y016350D02*
D03*
X049840Y016350D02*
D03*
X039100Y036400D02*
D03*
X059478Y016350D02*
D03*
X048650Y036400D02*
D03*
D95*
X060550Y033948D02*
D03*
D96*
X060150Y026400D02*
D03*
X058182D02*
D03*
D97*
X059650Y017750D02*
D03*
D98*
X023523Y021110D02*
D03*
D99*
X022421Y023000D02*
D03*
X024704D02*
D03*
D100*
X035500Y024700D02*
D03*
X054450Y021150D02*
D03*
X055450Y026450D02*
D03*
X055000Y026950D02*
D03*
X053900Y021150D02*
D03*
X062850Y024100D02*
D03*
X061900Y027100D02*
D03*
X049100Y034300D02*
D03*
X049600Y033900D02*
D03*
X052850Y034550D02*
D03*
X052100Y034050D02*
D03*
X051600D02*
D03*
X051100Y034400D02*
D03*
X028500Y031150D02*
D03*
X025991Y031891D02*
D03*
X023200Y029400D02*
D03*
X021850Y028900D02*
D03*
X021600Y027950D02*
D03*
X022750Y024650D02*
D03*
X021550Y024150D02*
D03*
X023950D02*
D03*
X022100Y025100D02*
D03*
X026400Y024400D02*
D03*
X031400Y022500D02*
D03*
X036500Y018950D02*
D03*
X038609Y019859D02*
D03*
X026650Y024800D02*
D03*
X031550Y023000D02*
D03*
X035950Y019300D02*
D03*
X038250Y020150D02*
D03*
X026600Y022350D02*
D03*
X031950Y027750D02*
D03*
Y024550D02*
D03*
X028291Y029950D02*
D03*
Y029200D02*
D03*
Y027150D02*
D03*
Y027900D02*
D03*
X035650Y023350D02*
D03*
X033759Y023409D02*
D03*
X025950Y016881D02*
D03*
X023550Y015500D02*
D03*
X028481Y018219D02*
D03*
Y019819D02*
D03*
X026550Y015200D02*
D03*
X031650Y019100D02*
D03*
X052300Y021441D02*
D03*
X051591Y021450D02*
D03*
X050950Y021391D02*
D03*
X050400D02*
D03*
X051950Y019891D02*
D03*
X049950Y020200D02*
D03*
X037822Y026472D02*
D03*
X039003Y021497D02*
D03*
X039000Y026450D02*
D03*
X037800Y021500D02*
D03*
X041600Y024950D02*
D03*
X041650Y024000D02*
D03*
X042737Y023213D02*
D03*
X041550Y025650D02*
D03*
X038600Y026450D02*
D03*
X037800Y024700D02*
D03*
X036850Y024400D02*
D03*
X037750Y023500D02*
D03*
X037131Y022819D02*
D03*
X038350Y022700D02*
D03*
X040800Y026450D02*
D03*
X040650Y025300D02*
D03*
X040184Y021684D02*
D03*
X041672Y022622D02*
D03*
X040900Y021950D02*
D03*
X031050Y034000D02*
D03*
Y032550D02*
D03*
X030700Y034000D02*
D03*
Y032300D02*
D03*
X030200Y033900D02*
D03*
Y032050D02*
D03*
X029700Y033900D02*
D03*
Y031750D02*
D03*
X033050Y027750D02*
D03*
X032550Y028450D02*
D03*
X032050Y028750D02*
D03*
X031550Y029050D02*
D03*
X032600Y022900D02*
D03*
X031250Y030400D02*
D03*
X030800Y030300D02*
D03*
X030250D02*
D03*
X029700Y030250D02*
D03*
X035500Y021168D02*
D03*
X049550Y022300D02*
D03*
X052300Y023100D02*
D03*
X050150D02*
D03*
X048150Y023250D02*
D03*
X040750Y028650D02*
D03*
X040100Y028800D02*
D03*
X038900Y027600D02*
D03*
X040200D02*
D03*
X040100Y029300D02*
D03*
Y029700D02*
D03*
X040200Y026450D02*
D03*
X036962Y026362D02*
D03*
X036950Y025850D02*
D03*
X035650Y027450D02*
D03*
X035300Y027000D02*
D03*
X034900Y027400D02*
D03*
X036831Y025181D02*
D03*
X034550Y026950D02*
D03*
X044550Y026600D02*
D03*
X029200Y033900D02*
D03*
X025650Y019650D02*
D03*
X028400Y023096D02*
D03*
X030250Y019700D02*
D03*
X029100Y017550D02*
D03*
X028300Y022150D02*
D03*
X030550D02*
D03*
X033650Y035200D02*
D03*
X029650Y021354D02*
D03*
X036850Y022050D02*
D03*
X039397Y020153D02*
D03*
X039400Y019450D02*
D03*
X039600Y018950D02*
D03*
X040150Y018500D02*
D03*
X040200Y019050D02*
D03*
X042450Y018500D02*
D03*
X041950Y017850D02*
D03*
X046850Y023950D02*
D03*
Y025700D02*
D03*
X037800Y028000D02*
D03*
X043000Y025100D02*
D03*
X037850Y028450D02*
D03*
X043800Y022800D02*
D03*
X048150Y019800D02*
D03*
X045300Y020200D02*
D03*
X047300Y019900D02*
D03*
X045750Y021400D02*
D03*
X046300D02*
D03*
X046941Y021459D02*
D03*
X047650Y021450D02*
D03*
X041750Y015400D02*
D03*
X047800Y018050D02*
D03*
X047750Y014800D02*
D03*
X047300Y017850D02*
D03*
X051950Y017650D02*
D03*
X052450Y017950D02*
D03*
X051250Y014800D02*
D03*
X052800Y019791D02*
D03*
X058999Y037525D02*
D03*
X059099Y036025D02*
D03*
X059062Y036538D02*
D03*
X044150Y019700D02*
D03*
X051500Y022800D02*
D03*
X045250Y021550D02*
D03*
X044700Y019800D02*
D03*
X054000Y025350D02*
D03*
X053750Y023600D02*
D03*
X054200Y023900D02*
D03*
X041300Y030900D02*
D03*
X041850Y031650D02*
D03*
X041750Y030500D02*
D03*
X042400Y030550D02*
D03*
X052300Y030500D02*
D03*
X052048Y033198D02*
D03*
X052850Y032450D02*
D03*
X050050Y033500D02*
D03*
X053750Y018350D02*
D03*
X055650D02*
D03*
X056939Y018611D02*
D03*
X053100Y026600D02*
D03*
X052850Y021750D02*
D03*
X051300Y021850D02*
D03*
X042650Y029700D02*
D03*
X046850D02*
D03*
X043100Y029300D02*
D03*
X047300D02*
D03*
X044150Y027600D02*
D03*
X043800Y027950D02*
D03*
X051550Y028150D02*
D03*
X044150Y028300D02*
D03*
X043600Y028700D02*
D03*
X048600Y019450D02*
D03*
X049200Y019850D02*
D03*
X062050Y024700D02*
D03*
X049100Y028700D02*
D03*
X049500Y028400D02*
D03*
X042300Y027200D02*
D03*
X043850D02*
D03*
X047800D02*
D03*
Y029700D02*
D03*
X050800D02*
D03*
X048550Y029200D02*
D03*
X059050Y030800D02*
D03*
X057950Y031150D02*
D03*
X058100Y021700D02*
D03*
X059550D02*
D03*
X058600Y030250D02*
D03*
X059100Y029700D02*
D03*
X061550Y034200D02*
D03*
X055300Y037500D02*
D03*
X044550Y026050D02*
D03*
X053100Y029800D02*
D03*
D101*
X027450Y023022D02*
D03*
Y021250D02*
D03*
D102*
X027161Y018889D02*
D03*
Y018219D02*
D03*
Y017550D02*
D03*
Y016881D02*
D03*
Y016211D02*
D03*
D103*
X023243Y017550D02*
D03*
D104*
X029050Y034850D02*
D03*
X029550D02*
D03*
X030050D02*
D03*
X030550D02*
D03*
X031050D02*
D03*
X031550D02*
D03*
X032050D02*
D03*
X032550D02*
D03*
X033050D02*
D03*
X029050Y031031D02*
D03*
X029550D02*
D03*
X030050D02*
D03*
X030550D02*
D03*
X031050D02*
D03*
X031550D02*
D03*
X032050D02*
D03*
X032550D02*
D03*
X033050D02*
D03*
X048600Y035159D02*
D03*
X049100D02*
D03*
X049600D02*
D03*
X050100D02*
D03*
X050600D02*
D03*
X051100D02*
D03*
X051600D02*
D03*
X052100D02*
D03*
X052600D02*
D03*
X048600Y031341D02*
D03*
X049100D02*
D03*
X049600D02*
D03*
X050100D02*
D03*
X050600D02*
D03*
X051100D02*
D03*
X051600D02*
D03*
X052100D02*
D03*
X052600D02*
D03*
D105*
X054600Y018611D02*
D03*
Y019989D02*
D03*
Y019300D02*
D03*
X053650Y018611D02*
D03*
Y019989D02*
D03*
Y019300D02*
D03*
X056600Y018611D02*
D03*
Y019989D02*
D03*
Y019300D02*
D03*
X055600Y018611D02*
D03*
Y019989D02*
D03*
Y019300D02*
D03*
D106*
X043026Y019784D02*
D03*
Y019528D02*
D03*
Y019272D02*
D03*
Y019016D02*
D03*
X041274Y019784D02*
D03*
Y019528D02*
D03*
Y019272D02*
D03*
Y019016D02*
D03*
D107*
X057841Y035038D02*
D03*
Y035538D02*
D03*
Y036038D02*
D03*
Y036538D02*
D03*
Y037038D02*
D03*
Y037538D02*
D03*
Y038038D02*
D03*
X059731Y035038D02*
D03*
Y035538D02*
D03*
Y036038D02*
D03*
Y036538D02*
D03*
Y037038D02*
D03*
Y037538D02*
D03*
Y038038D02*
D03*
M02*
