%FSAX24Y24*%
%MOIN*%
G70*
G01*
G75*
G04 Layer_Color=32896*
%ADD10C,0.0100*%
%ADD11R,0.1378X0.0748*%
%ADD12R,0.1732X0.0866*%
%ADD13O,0.0276X0.0984*%
%ADD14R,0.0118X0.0591*%
%ADD15R,0.0591X0.0118*%
%ADD16C,0.0394*%
%ADD17R,0.0472X0.0532*%
%ADD18R,0.0532X0.0472*%
%ADD19R,0.1969X0.2756*%
%ADD20R,0.0551X0.0472*%
%ADD21R,0.0472X0.0551*%
%ADD22R,0.0787X0.0571*%
%ADD23R,0.0591X0.0315*%
%ADD24R,0.0177X0.0453*%
%ADD25C,0.0300*%
%ADD26C,0.0120*%
%ADD27C,0.0591*%
%ADD28C,0.0787*%
%ADD29C,0.0472*%
%ADD30C,0.0650*%
%ADD31C,0.0630*%
%ADD32R,0.0787X0.0787*%
%ADD33C,0.0600*%
%ADD34R,0.0728X0.0728*%
%ADD35C,0.0728*%
%ADD36C,0.1161*%
%ADD37C,0.1043*%
%ADD38C,0.0591*%
%ADD39R,0.0591X0.0591*%
%ADD40R,0.0650X0.0650*%
%ADD41C,0.0984*%
%ADD42R,0.0984X0.0984*%
%ADD43R,0.0591X0.0591*%
%ADD44C,0.1181*%
%ADD45R,0.0591X0.0591*%
%ADD46O,0.1890X0.0787*%
%ADD47O,0.0787X0.1890*%
%ADD48C,0.0240*%
%ADD49R,0.0906X0.0906*%
%ADD50R,0.1634X0.0374*%
%ADD51R,0.3701X0.3228*%
%ADD52O,0.0236X0.0906*%
%ADD53R,0.0374X0.0335*%
%ADD54O,0.0709X0.0177*%
%ADD55O,0.0866X0.0236*%
%ADD56C,0.0200*%
%ADD57C,0.0079*%
%ADD58C,0.0050*%
%ADD59C,0.0098*%
%ADD60C,0.0236*%
%ADD61C,0.0039*%
%ADD62C,0.0080*%
%ADD63C,0.0059*%
%ADD64R,0.1614X0.0748*%
%ADD65R,0.1458X0.0828*%
%ADD66R,0.1812X0.0946*%
%ADD67O,0.0356X0.1064*%
%ADD68R,0.0198X0.0671*%
%ADD69R,0.0671X0.0198*%
%ADD70C,0.0474*%
%ADD71R,0.0552X0.0612*%
%ADD72R,0.0612X0.0552*%
%ADD73R,0.2049X0.2836*%
%ADD74R,0.0631X0.0552*%
%ADD75R,0.0552X0.0631*%
%ADD76R,0.0867X0.0651*%
%ADD77R,0.0671X0.0395*%
%ADD78R,0.0257X0.0533*%
%ADD79C,0.0671*%
%ADD80C,0.0867*%
%ADD81C,0.0552*%
%ADD82C,0.0730*%
%ADD83C,0.0710*%
%ADD84R,0.0867X0.0867*%
%ADD85C,0.0680*%
%ADD86R,0.0808X0.0808*%
%ADD87C,0.0808*%
%ADD88C,0.1241*%
%ADD89C,0.1123*%
%ADD90C,0.0671*%
%ADD91R,0.0671X0.0671*%
%ADD92R,0.0730X0.0730*%
%ADD93C,0.1064*%
%ADD94R,0.1064X0.1064*%
%ADD95R,0.0671X0.0671*%
%ADD96C,0.1261*%
%ADD97R,0.0671X0.0671*%
%ADD98O,0.1970X0.0867*%
%ADD99O,0.0867X0.1970*%
%ADD100C,0.0320*%
%ADD101R,0.0986X0.0986*%
%ADD102R,0.1714X0.0454*%
%ADD103R,0.3781X0.3308*%
%ADD104O,0.0316X0.0986*%
%ADD105R,0.0454X0.0415*%
%ADD106O,0.0789X0.0257*%
%ADD107O,0.0946X0.0316*%
D57*
X062224Y026665D02*
Y026744D01*
X062676Y026665D02*
Y026744D01*
X026840Y023632D02*
X028060D01*
X027883Y020522D02*
X028060Y020699D01*
X026840D02*
X027017Y020522D01*
X027883D01*
X028060Y022608D02*
Y023632D01*
X026840Y022608D02*
Y023632D01*
Y020699D02*
Y021663D01*
X028060Y020699D02*
Y021663D01*
X039236Y022306D02*
Y022385D01*
X038764Y022306D02*
Y022385D01*
X039064Y025556D02*
Y025635D01*
X039536Y025556D02*
Y025635D01*
X040756Y024236D02*
X040835D01*
X040756Y023764D02*
X040835D01*
X050186Y018906D02*
Y018985D01*
X049714Y018906D02*
Y018985D01*
X037715Y024964D02*
X037794D01*
X037715Y025436D02*
X037794D01*
X041286Y025156D02*
Y025235D01*
X040814Y025156D02*
Y025235D01*
X038106Y025764D02*
X038185D01*
X038106Y026236D02*
X038185D01*
X039964Y025606D02*
Y025685D01*
X040436Y025606D02*
Y025685D01*
X040765Y022836D02*
X040844D01*
X040765Y022364D02*
X040844D01*
X038036Y022315D02*
Y022394D01*
X037564Y022315D02*
Y022394D01*
X050365Y020505D02*
X050444D01*
X050365Y020978D02*
X050444D01*
X051436Y018898D02*
Y018976D01*
X050964Y018898D02*
Y018976D01*
X051906Y020978D02*
X051985D01*
X051906Y020505D02*
X051985D01*
X052536Y018906D02*
Y018985D01*
X052064Y018906D02*
Y018985D01*
X026306Y030864D02*
X026385D01*
X026306Y031336D02*
X026385D01*
X024886Y027565D02*
Y027644D01*
X024414Y027565D02*
Y027644D01*
X024886Y029256D02*
Y029335D01*
X024414Y029256D02*
Y029335D01*
X033636Y020361D02*
Y020439D01*
X033164Y020361D02*
Y020439D01*
X033164Y021961D02*
Y022039D01*
X033636Y021961D02*
Y022039D01*
X028606Y028136D02*
X028685D01*
X028606Y027664D02*
X028685D01*
X028606Y027386D02*
X028685D01*
X028606Y026914D02*
X028685D01*
X038686Y030061D02*
Y030139D01*
X038214Y030061D02*
Y030139D01*
X036686Y030011D02*
Y030089D01*
X036214Y030011D02*
Y030089D01*
X028606Y030186D02*
X028685D01*
X028606Y029714D02*
X028685D01*
X028606Y029436D02*
X028685D01*
X028606Y028964D02*
X028685D01*
X032374Y021965D02*
Y022044D01*
X032826Y021965D02*
Y022044D01*
X051811Y021974D02*
X051889D01*
X051811Y022426D02*
X051889D01*
X022761Y028574D02*
X022839D01*
X022761Y029026D02*
X022839D01*
X022756Y027724D02*
X022835D01*
X022756Y028176D02*
X022835D01*
X032476Y019611D02*
Y019689D01*
X032024Y019611D02*
Y019689D01*
X025251Y019558D02*
X025527D01*
Y015542D02*
Y019558D01*
X025251Y015542D02*
X025527D01*
X035399Y034098D02*
Y035515D01*
X033746Y034098D02*
Y035515D01*
Y034098D02*
X035399D01*
X033746Y035515D02*
X035399D01*
X028499Y034298D02*
Y035715D01*
X026846Y034298D02*
Y035715D01*
Y034298D02*
X028499D01*
X026846Y035715D02*
X028499D01*
X028727Y031759D02*
Y034122D01*
X033373Y031759D02*
Y034122D01*
X028727D02*
X033373D01*
X028727Y031759D02*
X033373D01*
X048277Y032069D02*
Y034431D01*
X052923Y032069D02*
Y034431D01*
X048277D02*
X052923D01*
X048277Y032069D02*
X052923D01*
X045536Y018915D02*
Y018994D01*
X045064Y018915D02*
Y018994D01*
X045715Y020514D02*
X045794D01*
X045715Y020986D02*
X045794D01*
X046786Y018906D02*
Y018985D01*
X046314Y018906D02*
Y018985D01*
X047256Y020986D02*
X047335D01*
X047256Y020514D02*
X047335D01*
X047886Y018915D02*
Y018994D01*
X047414Y018915D02*
Y018994D01*
X061111Y035486D02*
X061189D01*
X061111Y035014D02*
X061189D01*
X058711Y027374D02*
X058789D01*
X058711Y027826D02*
X058789D01*
X054748Y018936D02*
Y018975D01*
X054452Y018936D02*
Y018975D01*
Y019625D02*
Y019664D01*
X054748Y019625D02*
Y019664D01*
X053798Y018936D02*
Y018975D01*
X053502Y018936D02*
Y018975D01*
Y019625D02*
Y019664D01*
X053798Y019625D02*
Y019664D01*
X056748Y018936D02*
Y018975D01*
X056452Y018936D02*
Y018975D01*
Y019625D02*
Y019664D01*
X056748Y019625D02*
Y019664D01*
X055748Y018936D02*
Y018975D01*
X055452Y018936D02*
Y018975D01*
Y019625D02*
Y019664D01*
X055748Y019625D02*
Y019664D01*
X041056Y017626D02*
X041135D01*
X041056Y017174D02*
X041135D01*
X041056Y018426D02*
X041135D01*
X041056Y017974D02*
X041135D01*
X042514Y018809D02*
Y019991D01*
X041786Y018809D02*
Y019991D01*
X042514D01*
X041786Y018809D02*
X042514D01*
X051726Y023511D02*
Y023589D01*
X051274Y023511D02*
Y023589D01*
X053424Y032761D02*
Y032839D01*
X053876Y032761D02*
Y032839D01*
Y031265D02*
Y031344D01*
X053424Y031265D02*
Y031344D01*
X056024Y033354D02*
Y033433D01*
X056476Y033354D02*
Y033433D01*
X058432Y034806D02*
Y038270D01*
X059141Y034806D02*
Y038270D01*
X058432Y034806D02*
X059141D01*
X058432Y038270D02*
X059141D01*
X060274Y031608D02*
Y031687D01*
X060726Y031608D02*
Y031687D01*
D59*
X027210Y019292D02*
G03*
X027210Y019292I-000049J000000D01*
G01*
X033434Y031149D02*
G03*
X033434Y031149I-000049J000000D01*
G01*
X052984Y031459D02*
G03*
X052984Y031459I-000049J000000D01*
G01*
X043075Y020089D02*
G03*
X043075Y020089I-000049J000000D01*
G01*
X057891Y034704D02*
G03*
X057891Y034704I-000049J000000D01*
G01*
D60*
X033097Y032153D02*
G03*
X033097Y032153I-000118J000000D01*
G01*
X052647Y032463D02*
G03*
X052647Y032463I-000118J000000D01*
G01*
X042239Y019597D02*
G03*
X042239Y019597I-000118J000000D01*
G01*
D61*
X043486Y021237D02*
Y024466D01*
X042226Y021237D02*
Y024466D01*
Y021237D02*
X043486D01*
X042226Y024466D02*
X043486D01*
X043256Y020800D02*
Y021237D01*
X042456Y020800D02*
Y021237D01*
D62*
X062750Y027690D02*
Y028190D01*
X062500D01*
X062417Y028107D01*
Y027940D01*
X062500Y027857D01*
X062750D01*
X062583D02*
X062417Y027690D01*
X061917D02*
X062250D01*
X061917Y028023D01*
Y028107D01*
X062000Y028190D01*
X062167D01*
X062250Y028107D01*
X061500Y027690D02*
Y028190D01*
X061750Y027940D01*
X061417D01*
X054750Y033350D02*
X054250D01*
Y033100D01*
X054333Y033017D01*
X054500D01*
X054583Y033100D01*
Y033350D01*
Y033183D02*
X054750Y033017D01*
X054250Y032517D02*
Y032850D01*
X054500D01*
X054417Y032684D01*
Y032600D01*
X054500Y032517D01*
X054667D01*
X054750Y032600D01*
Y032767D01*
X054667Y032850D01*
X054750Y031800D02*
X054250D01*
Y031550D01*
X054333Y031467D01*
X054500D01*
X054583Y031550D01*
Y031800D01*
Y031633D02*
X054750Y031467D01*
Y030967D02*
Y031300D01*
X054417Y030967D01*
X054333D01*
X054250Y031050D01*
Y031217D01*
X054333Y031300D01*
X030117Y029267D02*
X030200Y029350D01*
X030367D01*
X030450Y029267D01*
Y028933D01*
X030367Y028850D01*
X030200D01*
X030117Y028933D01*
X029950Y029267D02*
X029867Y029350D01*
X029700D01*
X029617Y029267D01*
Y029183D01*
X029700Y029100D01*
X029784D01*
X029700D01*
X029617Y029017D01*
Y028933D01*
X029700Y028850D01*
X029867D01*
X029950Y028933D01*
X030117Y030117D02*
X030200Y030200D01*
X030367D01*
X030450Y030117D01*
Y029783D01*
X030367Y029700D01*
X030200D01*
X030117Y029783D01*
X029700Y029700D02*
Y030200D01*
X029950Y029950D01*
X029617D01*
X036517Y031317D02*
X036600Y031400D01*
X036767D01*
X036850Y031317D01*
Y030983D01*
X036767Y030900D01*
X036600D01*
X036517Y030983D01*
X036017Y031400D02*
X036350D01*
Y031150D01*
X036184Y031233D01*
X036100D01*
X036017Y031150D01*
Y030983D01*
X036100Y030900D01*
X036267D01*
X036350Y030983D01*
X038567Y031317D02*
X038650Y031400D01*
X038817D01*
X038900Y031317D01*
Y030983D01*
X038817Y030900D01*
X038650D01*
X038567Y030983D01*
X038067Y031400D02*
X038234Y031317D01*
X038400Y031150D01*
Y030983D01*
X038317Y030900D01*
X038150D01*
X038067Y030983D01*
Y031067D01*
X038150Y031150D01*
X038400D01*
X030117Y027267D02*
X030200Y027350D01*
X030367D01*
X030450Y027267D01*
Y026933D01*
X030367Y026850D01*
X030200D01*
X030117Y026933D01*
X029950Y027350D02*
X029617D01*
Y027267D01*
X029950Y026933D01*
Y026850D01*
X030117Y028117D02*
X030200Y028200D01*
X030367D01*
X030450Y028117D01*
Y027783D01*
X030367Y027700D01*
X030200D01*
X030117Y027783D01*
X029950Y028117D02*
X029867Y028200D01*
X029700D01*
X029617Y028117D01*
Y028033D01*
X029700Y027950D01*
X029617Y027867D01*
Y027783D01*
X029700Y027700D01*
X029867D01*
X029950Y027783D01*
Y027867D01*
X029867Y027950D01*
X029950Y028033D01*
Y028117D01*
X029867Y027950D02*
X029700D01*
X033817Y023167D02*
X033900Y023250D01*
X034067D01*
X034150Y023167D01*
Y022833D01*
X034067Y022750D01*
X033900D01*
X033817Y022833D01*
X033650D02*
X033567Y022750D01*
X033400D01*
X033317Y022833D01*
Y023167D01*
X033400Y023250D01*
X033567D01*
X033650Y023167D01*
Y023083D01*
X033567Y023000D01*
X033317D01*
X033867Y019467D02*
X033950Y019550D01*
X034117D01*
X034200Y019467D01*
Y019133D01*
X034117Y019050D01*
X033950D01*
X033867Y019133D01*
X033700Y019050D02*
X033534D01*
X033617D01*
Y019550D01*
X033700Y019467D01*
X033284D02*
X033200Y019550D01*
X033034D01*
X032950Y019467D01*
Y019133D01*
X033034Y019050D01*
X033200D01*
X033284Y019133D01*
Y019467D01*
X025283Y029567D02*
X025200Y029650D01*
Y029817D01*
X025283Y029900D01*
X025617D01*
X025700Y029817D01*
Y029650D01*
X025617Y029567D01*
X025700Y029400D02*
Y029234D01*
Y029317D01*
X025200D01*
X025283Y029400D01*
X025700Y028984D02*
Y028817D01*
Y028900D01*
X025200D01*
X025283Y028984D01*
X025367Y026617D02*
X025450Y026700D01*
X025617D01*
X025700Y026617D01*
Y026283D01*
X025617Y026200D01*
X025450D01*
X025367Y026283D01*
X025200Y026200D02*
X025034D01*
X025117D01*
Y026700D01*
X025200Y026617D01*
X024450Y026200D02*
X024784D01*
X024450Y026533D01*
Y026617D01*
X024534Y026700D01*
X024700D01*
X024784Y026617D01*
X026817Y032017D02*
X026900Y032100D01*
X027067D01*
X027150Y032017D01*
Y031683D01*
X027067Y031600D01*
X026900D01*
X026817Y031683D01*
X026650Y031600D02*
X026484D01*
X026567D01*
Y032100D01*
X026650Y032017D01*
X026234D02*
X026150Y032100D01*
X025984D01*
X025900Y032017D01*
Y031933D01*
X025984Y031850D01*
X026067D01*
X025984D01*
X025900Y031767D01*
Y031683D01*
X025984Y031600D01*
X026150D01*
X026234Y031683D01*
X052883Y019467D02*
X052800Y019550D01*
Y019717D01*
X052883Y019800D01*
X053217D01*
X053300Y019717D01*
Y019550D01*
X053217Y019467D01*
X052883Y019300D02*
X052800Y019217D01*
Y019050D01*
X052883Y018967D01*
X052967D01*
X053050Y019050D01*
Y019134D01*
Y019050D01*
X053133Y018967D01*
X053217D01*
X053300Y019050D01*
Y019217D01*
X053217Y019300D01*
X052883Y018800D02*
X052800Y018717D01*
Y018550D01*
X052883Y018467D01*
X052967D01*
X053050Y018550D01*
Y018634D01*
Y018550D01*
X053133Y018467D01*
X053217D01*
X053300Y018550D01*
Y018717D01*
X053217Y018800D01*
X052933Y021517D02*
X052850Y021600D01*
Y021767D01*
X052933Y021850D01*
X053267D01*
X053350Y021767D01*
Y021600D01*
X053267Y021517D01*
X052933Y021350D02*
X052850Y021267D01*
Y021100D01*
X052933Y021017D01*
X053017D01*
X053100Y021100D01*
Y021184D01*
Y021100D01*
X053183Y021017D01*
X053267D01*
X053350Y021100D01*
Y021267D01*
X053267Y021350D01*
X053350Y020600D02*
X052850D01*
X053100Y020850D01*
Y020517D01*
X051467Y017867D02*
X051550Y017950D01*
X051717D01*
X051800Y017867D01*
Y017533D01*
X051717Y017450D01*
X051550D01*
X051467Y017533D01*
X051300Y017867D02*
X051217Y017950D01*
X051050D01*
X050967Y017867D01*
Y017783D01*
X051050Y017700D01*
X051134D01*
X051050D01*
X050967Y017617D01*
Y017533D01*
X051050Y017450D01*
X051217D01*
X051300Y017533D01*
X050467Y017950D02*
X050800D01*
Y017700D01*
X050634Y017783D01*
X050550D01*
X050467Y017700D01*
Y017533D01*
X050550Y017450D01*
X050717D01*
X050800Y017533D01*
X049083Y021617D02*
X049000Y021700D01*
Y021867D01*
X049083Y021950D01*
X049417D01*
X049500Y021867D01*
Y021700D01*
X049417Y021617D01*
X049083Y021450D02*
X049000Y021367D01*
Y021200D01*
X049083Y021117D01*
X049167D01*
X049250Y021200D01*
Y021284D01*
Y021200D01*
X049333Y021117D01*
X049417D01*
X049500Y021200D01*
Y021367D01*
X049417Y021450D01*
X049000Y020617D02*
X049083Y020784D01*
X049250Y020950D01*
X049417D01*
X049500Y020867D01*
Y020700D01*
X049417Y020617D01*
X049333D01*
X049250Y020700D01*
Y020950D01*
X037717Y023517D02*
X037800Y023600D01*
X037967D01*
X038050Y023517D01*
Y023183D01*
X037967Y023100D01*
X037800D01*
X037717Y023183D01*
X037550Y023100D02*
X037384D01*
X037467D01*
Y023600D01*
X037550Y023517D01*
X036884Y023100D02*
Y023600D01*
X037134Y023350D01*
X036800D01*
X041217Y021917D02*
X041300Y022000D01*
X041467D01*
X041550Y021917D01*
Y021583D01*
X041467Y021500D01*
X041300D01*
X041217Y021583D01*
X041050Y021500D02*
X040884D01*
X040967D01*
Y022000D01*
X041050Y021917D01*
X040300Y022000D02*
X040634D01*
Y021750D01*
X040467Y021833D01*
X040384D01*
X040300Y021750D01*
Y021583D01*
X040384Y021500D01*
X040550D01*
X040634Y021583D01*
X041317Y026917D02*
X041400Y027000D01*
X041567D01*
X041650Y026917D01*
Y026583D01*
X041567Y026500D01*
X041400D01*
X041317Y026583D01*
X041150Y026500D02*
X040984D01*
X041067D01*
Y027000D01*
X041150Y026917D01*
X040400Y027000D02*
X040567Y026917D01*
X040734Y026750D01*
Y026583D01*
X040650Y026500D01*
X040484D01*
X040400Y026583D01*
Y026667D01*
X040484Y026750D01*
X040734D01*
X037017Y026117D02*
X037100Y026200D01*
X037267D01*
X037350Y026117D01*
Y025783D01*
X037267Y025700D01*
X037100D01*
X037017Y025783D01*
X036850Y025700D02*
X036684D01*
X036767D01*
Y026200D01*
X036850Y026117D01*
X036434Y026200D02*
X036100D01*
Y026117D01*
X036434Y025783D01*
Y025700D01*
X042967Y026217D02*
X043050Y026300D01*
X043217D01*
X043300Y026217D01*
Y025883D01*
X043217Y025800D01*
X043050D01*
X042967Y025883D01*
X042800Y025800D02*
X042634D01*
X042717D01*
Y026300D01*
X042800Y026217D01*
X042384D02*
X042300Y026300D01*
X042134D01*
X042050Y026217D01*
Y026133D01*
X042134Y026050D01*
X042050Y025967D01*
Y025883D01*
X042134Y025800D01*
X042300D01*
X042384Y025883D01*
Y025967D01*
X042300Y026050D01*
X042384Y026133D01*
Y026217D01*
X042300Y026050D02*
X042134D01*
X036417Y025267D02*
X036500Y025350D01*
X036667D01*
X036750Y025267D01*
Y024933D01*
X036667Y024850D01*
X036500D01*
X036417Y024933D01*
X036250Y024850D02*
X036084D01*
X036167D01*
Y025350D01*
X036250Y025267D01*
X035834Y024933D02*
X035750Y024850D01*
X035584D01*
X035500Y024933D01*
Y025267D01*
X035584Y025350D01*
X035750D01*
X035834Y025267D01*
Y025183D01*
X035750Y025100D01*
X035500D01*
X049083Y019417D02*
X049000Y019500D01*
Y019667D01*
X049083Y019750D01*
X049417D01*
X049500Y019667D01*
Y019500D01*
X049417Y019417D01*
X049083Y019250D02*
X049000Y019167D01*
Y019000D01*
X049083Y018917D01*
X049167D01*
X049250Y019000D01*
Y019084D01*
Y019000D01*
X049333Y018917D01*
X049417D01*
X049500Y019000D01*
Y019167D01*
X049417Y019250D01*
X049000Y018750D02*
Y018417D01*
X049083D01*
X049417Y018750D01*
X049500D01*
X039567Y024117D02*
X039650Y024200D01*
X039817D01*
X039900Y024117D01*
Y023783D01*
X039817Y023700D01*
X039650D01*
X039567Y023783D01*
X039067Y023700D02*
X039400D01*
X039067Y024033D01*
Y024117D01*
X039150Y024200D01*
X039317D01*
X039400Y024117D01*
X038900D02*
X038817Y024200D01*
X038650D01*
X038567Y024117D01*
Y023783D01*
X038650Y023700D01*
X038817D01*
X038900Y023783D01*
Y024117D01*
X039267Y026917D02*
X039350Y027000D01*
X039517D01*
X039600Y026917D01*
Y026583D01*
X039517Y026500D01*
X039350D01*
X039267Y026583D01*
X038767Y026500D02*
X039100D01*
X038767Y026833D01*
Y026917D01*
X038850Y027000D01*
X039017D01*
X039100Y026917D01*
X038600Y026500D02*
X038434D01*
X038517D01*
Y027000D01*
X038600Y026917D01*
X038917Y021317D02*
X039000Y021400D01*
X039167D01*
X039250Y021317D01*
Y020983D01*
X039167Y020900D01*
X039000D01*
X038917Y020983D01*
X038417Y020900D02*
X038750D01*
X038417Y021233D01*
Y021317D01*
X038500Y021400D01*
X038667D01*
X038750Y021317D01*
X037917Y020900D02*
X038250D01*
X037917Y021233D01*
Y021317D01*
X038000Y021400D01*
X038167D01*
X038250Y021317D01*
X062667Y034517D02*
X062750Y034600D01*
X062917D01*
X063000Y034517D01*
Y034183D01*
X062917Y034100D01*
X062750D01*
X062667Y034183D01*
X062167Y034100D02*
X062500D01*
X062167Y034433D01*
Y034517D01*
X062250Y034600D01*
X062417D01*
X062500Y034517D01*
X062000D02*
X061917Y034600D01*
X061750D01*
X061667Y034517D01*
Y034433D01*
X061750Y034350D01*
X061834D01*
X061750D01*
X061667Y034267D01*
Y034183D01*
X061750Y034100D01*
X061917D01*
X062000Y034183D01*
X027900Y024450D02*
Y023950D01*
X027650D01*
X027567Y024033D01*
Y024367D01*
X027650Y024450D01*
X027900D01*
X027067Y023950D02*
X027400D01*
X027067Y024283D01*
Y024367D01*
X027150Y024450D01*
X027317D01*
X027400Y024367D01*
X031750Y019396D02*
Y019896D01*
X031500D01*
X031417Y019812D01*
Y019646D01*
X031500Y019562D01*
X031750D01*
X031583D02*
X031417Y019396D01*
X031250D02*
X031084D01*
X031167D01*
Y019896D01*
X031250Y019812D01*
X028100Y033450D02*
Y033950D01*
X027850D01*
X027767Y033867D01*
Y033700D01*
X027850Y033617D01*
X028100D01*
X027933D02*
X027767Y033450D01*
X027600Y033950D02*
X027267D01*
Y033867D01*
X027600Y033533D01*
Y033450D01*
X035045Y033200D02*
Y033700D01*
X034795D01*
X034712Y033617D01*
Y033450D01*
X034795Y033367D01*
X035045D01*
X034878D02*
X034712Y033200D01*
X034545Y033617D02*
X034462Y033700D01*
X034295D01*
X034212Y033617D01*
Y033533D01*
X034295Y033450D01*
X034212Y033367D01*
Y033283D01*
X034295Y033200D01*
X034462D01*
X034545Y033283D01*
Y033367D01*
X034462Y033450D01*
X034545Y033533D01*
Y033617D01*
X034462Y033450D02*
X034295D01*
X023050Y026900D02*
Y027400D01*
X022800D01*
X022717Y027317D01*
Y027150D01*
X022800Y027067D01*
X023050D01*
X022883D02*
X022717Y026900D01*
X022550Y026983D02*
X022467Y026900D01*
X022300D01*
X022217Y026983D01*
Y027317D01*
X022300Y027400D01*
X022467D01*
X022550Y027317D01*
Y027233D01*
X022467Y027150D01*
X022217D01*
X023600Y029300D02*
Y029800D01*
X023350D01*
X023267Y029717D01*
Y029550D01*
X023350Y029467D01*
X023600D01*
X023433D02*
X023267Y029300D01*
X023100D02*
X022934D01*
X023017D01*
Y029800D01*
X023100Y029717D01*
X022684D02*
X022600Y029800D01*
X022434D01*
X022350Y029717D01*
Y029383D01*
X022434Y029300D01*
X022600D01*
X022684Y029383D01*
Y029717D01*
X051000Y022100D02*
Y022600D01*
X050750D01*
X050667Y022517D01*
Y022350D01*
X050750Y022267D01*
X051000D01*
X050833D02*
X050667Y022100D01*
X050500D02*
X050334D01*
X050417D01*
Y022600D01*
X050500Y022517D01*
X049750Y022600D02*
X049917Y022517D01*
X050084Y022350D01*
Y022183D01*
X050000Y022100D01*
X049834D01*
X049750Y022183D01*
Y022267D01*
X049834Y022350D01*
X050084D01*
X025550Y020500D02*
Y020083D01*
X025467Y020000D01*
X025300D01*
X025217Y020083D01*
Y020500D01*
X025050Y020000D02*
X024884D01*
X024967D01*
Y020500D01*
X025050Y020417D01*
X048000Y034300D02*
Y033883D01*
X047917Y033800D01*
X047750D01*
X047667Y033883D01*
Y034300D01*
X047500Y034217D02*
X047417Y034300D01*
X047250D01*
X047167Y034217D01*
Y034133D01*
X047250Y034050D01*
X047167Y033967D01*
Y033883D01*
X047250Y033800D01*
X047417D01*
X047500Y033883D01*
Y033967D01*
X047417Y034050D01*
X047500Y034133D01*
Y034217D01*
X047417Y034050D02*
X047250D01*
X034643Y032243D02*
Y031826D01*
X034560Y031743D01*
X034393D01*
X034310Y031826D01*
Y032243D01*
X034143Y032159D02*
X034060Y032243D01*
X033893D01*
X033810Y032159D01*
Y032076D01*
X033893Y031993D01*
X033976D01*
X033893D01*
X033810Y031909D01*
Y031826D01*
X033893Y031743D01*
X034060D01*
X034143Y031826D01*
X032000Y021750D02*
Y022250D01*
X031750D01*
X031667Y022167D01*
Y022000D01*
X031750Y021917D01*
X032000D01*
X031833D02*
X031667Y021750D01*
X031500D02*
X031334D01*
X031417D01*
Y022250D01*
X031500Y022167D01*
X030834Y021750D02*
Y022250D01*
X031084Y022000D01*
X030750D01*
X059446Y028400D02*
Y028900D01*
X059196D01*
X059112Y028817D01*
Y028650D01*
X059196Y028567D01*
X059446D01*
X059279D02*
X059112Y028400D01*
X058613D02*
X058946D01*
X058613Y028733D01*
Y028817D01*
X058696Y028900D01*
X058863D01*
X058946Y028817D01*
X058446Y028400D02*
X058279D01*
X058363D01*
Y028900D01*
X058446Y028817D01*
X040200Y017900D02*
Y018400D01*
X039950D01*
X039867Y018317D01*
Y018150D01*
X039950Y018067D01*
X040200D01*
X040033D02*
X039867Y017900D01*
X039450D02*
Y018400D01*
X039700Y018150D01*
X039367D01*
X040200Y017050D02*
Y017550D01*
X039950D01*
X039867Y017467D01*
Y017300D01*
X039950Y017217D01*
X040200D01*
X040033D02*
X039867Y017050D01*
X039700Y017467D02*
X039617Y017550D01*
X039450D01*
X039367Y017467D01*
Y017383D01*
X039450Y017300D01*
X039534D01*
X039450D01*
X039367Y017217D01*
Y017133D01*
X039450Y017050D01*
X039617D01*
X039700Y017133D01*
X041850Y020750D02*
Y020333D01*
X041767Y020250D01*
X041600D01*
X041517Y020333D01*
Y020750D01*
X041017D02*
X041184Y020667D01*
X041350Y020500D01*
Y020333D01*
X041267Y020250D01*
X041100D01*
X041017Y020333D01*
Y020417D01*
X041100Y020500D01*
X041350D01*
X044700Y024250D02*
X044367Y023750D01*
Y024250D02*
X044700Y023750D01*
X044200Y024167D02*
X044117Y024250D01*
X043950D01*
X043867Y024167D01*
Y024083D01*
X043950Y024000D01*
X044034D01*
X043950D01*
X043867Y023917D01*
Y023833D01*
X043950Y023750D01*
X044117D01*
X044200Y023833D01*
X044283Y019117D02*
X044200Y019200D01*
Y019367D01*
X044283Y019450D01*
X044617D01*
X044700Y019367D01*
Y019200D01*
X044617Y019117D01*
X044283Y018950D02*
X044200Y018867D01*
Y018700D01*
X044283Y018617D01*
X044367D01*
X044450Y018700D01*
Y018784D01*
Y018700D01*
X044533Y018617D01*
X044617D01*
X044700Y018700D01*
Y018867D01*
X044617Y018950D01*
X044700Y018117D02*
Y018450D01*
X044367Y018117D01*
X044283D01*
X044200Y018200D01*
Y018367D01*
X044283Y018450D01*
X045683Y022817D02*
X045600Y022900D01*
Y023067D01*
X045683Y023150D01*
X046017D01*
X046100Y023067D01*
Y022900D01*
X046017Y022817D01*
X045683Y022650D02*
X045600Y022567D01*
Y022400D01*
X045683Y022317D01*
X045767D01*
X045850Y022400D01*
Y022484D01*
Y022400D01*
X045933Y022317D01*
X046017D01*
X046100Y022400D01*
Y022567D01*
X046017Y022650D01*
X046100Y022150D02*
Y021984D01*
Y022067D01*
X045600D01*
X045683Y022150D01*
X046867Y017917D02*
X046950Y018000D01*
X047117D01*
X047200Y017917D01*
Y017583D01*
X047117Y017500D01*
X046950D01*
X046867Y017583D01*
X046700Y017917D02*
X046617Y018000D01*
X046450D01*
X046367Y017917D01*
Y017833D01*
X046450Y017750D01*
X046534D01*
X046450D01*
X046367Y017667D01*
Y017583D01*
X046450Y017500D01*
X046617D01*
X046700Y017583D01*
X046200Y017917D02*
X046117Y018000D01*
X045950D01*
X045867Y017917D01*
Y017583D01*
X045950Y017500D01*
X046117D01*
X046200Y017583D01*
Y017917D01*
X047233Y022967D02*
X047150Y023050D01*
Y023217D01*
X047233Y023300D01*
X047567D01*
X047650Y023217D01*
Y023050D01*
X047567Y022967D01*
X047650Y022467D02*
Y022800D01*
X047317Y022467D01*
X047233D01*
X047150Y022550D01*
Y022717D01*
X047233Y022800D01*
X047567Y022300D02*
X047650Y022217D01*
Y022050D01*
X047567Y021967D01*
X047233D01*
X047150Y022050D01*
Y022217D01*
X047233Y022300D01*
X047317D01*
X047400Y022217D01*
Y021967D01*
X048283Y019417D02*
X048200Y019500D01*
Y019667D01*
X048283Y019750D01*
X048617D01*
X048700Y019667D01*
Y019500D01*
X048617Y019417D01*
X048700Y018917D02*
Y019250D01*
X048367Y018917D01*
X048283D01*
X048200Y019000D01*
Y019167D01*
X048283Y019250D01*
Y018750D02*
X048200Y018667D01*
Y018500D01*
X048283Y018417D01*
X048367D01*
X048450Y018500D01*
X048533Y018417D01*
X048617D01*
X048700Y018500D01*
Y018667D01*
X048617Y018750D01*
X048533D01*
X048450Y018667D01*
X048367Y018750D01*
X048283D01*
X048450Y018667D02*
Y018500D01*
X050950Y023300D02*
Y023800D01*
X050700D01*
X050617Y023717D01*
Y023550D01*
X050700Y023467D01*
X050950D01*
X050783D02*
X050617Y023300D01*
X050117D02*
X050450D01*
X050117Y023633D01*
Y023717D01*
X050200Y023800D01*
X050367D01*
X050450Y023717D01*
X049617Y023300D02*
X049950D01*
X049617Y023633D01*
Y023717D01*
X049700Y023800D01*
X049867D01*
X049950Y023717D01*
X062700Y031450D02*
Y031950D01*
X062450D01*
X062367Y031867D01*
Y031700D01*
X062450Y031617D01*
X062700D01*
X062533D02*
X062367Y031450D01*
X061867D02*
X062200D01*
X061867Y031783D01*
Y031867D01*
X061950Y031950D01*
X062117D01*
X062200Y031867D01*
X061700D02*
X061617Y031950D01*
X061450D01*
X061367Y031867D01*
Y031533D01*
X061450Y031450D01*
X061617D01*
X061700Y031533D01*
Y031867D01*
X061550Y038250D02*
Y037833D01*
X061467Y037750D01*
X061300D01*
X061217Y037833D01*
Y038250D01*
X060717D02*
X061050D01*
Y038000D01*
X060884Y038083D01*
X060800D01*
X060717Y038000D01*
Y037833D01*
X060800Y037750D01*
X060967D01*
X061050Y037833D01*
X056500Y034250D02*
Y034750D01*
X056250D01*
X056167Y034667D01*
Y034500D01*
X056250Y034417D01*
X056500D01*
X056333D02*
X056167Y034250D01*
X056000D02*
X055834D01*
X055917D01*
Y034750D01*
X056000Y034667D01*
X055584Y034333D02*
X055500Y034250D01*
X055334D01*
X055250Y034333D01*
Y034667D01*
X055334Y034750D01*
X055500D01*
X055584Y034667D01*
Y034583D01*
X055500Y034500D01*
X055250D01*
X056350Y021450D02*
X056850D01*
X056683Y021283D01*
X056850Y021117D01*
X056350D01*
X056433Y020950D02*
X056350Y020867D01*
Y020700D01*
X056433Y020617D01*
X056517D01*
X056600Y020700D01*
X056683Y020617D01*
X056767D01*
X056850Y020700D01*
Y020867D01*
X056767Y020950D01*
X056683D01*
X056600Y020867D01*
X056517Y020950D01*
X056433D01*
X056600Y020867D02*
Y020700D01*
X055400Y021450D02*
X055900D01*
X055733Y021283D01*
X055900Y021117D01*
X055400D01*
X055817Y020950D02*
X055900Y020867D01*
Y020700D01*
X055817Y020617D01*
X055483D01*
X055400Y020700D01*
Y020867D01*
X055483Y020950D01*
X055567D01*
X055650Y020867D01*
Y020617D01*
X054550Y021900D02*
X055050D01*
X054883Y021733D01*
X055050Y021567D01*
X054550D01*
X055050Y021400D02*
Y021234D01*
Y021317D01*
X054550D01*
X054633Y021400D01*
Y020984D02*
X054550Y020900D01*
Y020734D01*
X054633Y020650D01*
X054967D01*
X055050Y020734D01*
Y020900D01*
X054967Y020984D01*
X054633D01*
X053700Y021700D02*
X054200D01*
X054033Y021533D01*
X054200Y021367D01*
X053700D01*
X054200Y021200D02*
Y021034D01*
Y021117D01*
X053700D01*
X053783Y021200D01*
X054200Y020784D02*
Y020617D01*
Y020700D01*
X053700D01*
X053783Y020784D01*
M02*
