M48
;Layer_Color=9474304
;FILE_FORMAT=2:4
INCH
;TYPE=PLATED
T1F00S00C0.0080
T2F00S00C0.0236
T3F00S00C0.0315
T4F00S00C0.0354
T5F00S00C0.0394
T6F00S00C0.0433
T7F00S00C0.0492
T8F00S00C0.0551
T9F00S00C0.0591
T10F00S00C0.0650
T11F00S00C0.1378
;TYPE=NON_PLATED
T12F00S00C0.1280
T13F00S00C0.1300
%
T01
X023550Y015500
X026550Y015200
X041750Y015400
X047750Y014800
X051250
X062850Y024100
X062050Y024700
X061900Y027100
X059100Y029700
X058600Y030250
X059050Y030800
X057950Y031150
X053100Y029800
X052300Y030500
X050800Y029700
X051550Y028150
X049500Y028400
X049100Y028700
X048550Y029200
X047800Y029700
X047300Y029300
X047800Y027200
X048150Y023250
X050150Y023100
X049550Y022300
X050400Y021391
X050950
X051591Y021450
X051300Y021850
X051500Y022800
X052300Y023100
Y021441
X052850Y021750
X053900Y021150
X054450
X054200Y023900
X053750Y023600
X054000Y025350
X053100Y026600
X055000Y026950
X055450Y026450
X058100Y021700
X059550
X056939Y018611
X055650Y018350
X053750
X052450Y017950
X051950Y017650
Y019891
X052800Y019791
X049950Y020200
X049200Y019850
X048600Y019450
X048150Y019800
X047300Y019900
X047650Y021450
X046941Y021459
X047300Y017850
X047800Y018050
X045300Y020200
X044700Y019800
X044150Y019700
X042450Y018500
X041950Y017850
X040150Y018500
X040200Y019050
X039600Y018950
X039400Y019450
X039397Y020153
X038609Y019859
X038250Y020150
X037800Y021500
X039003Y021497
X040184Y021684
X040900Y021950
X041672Y022622
X041650Y024000
X041600Y024950
X041550Y025650
X040650Y025300
X040800Y026450
X040200
Y027600
X040100Y028800
Y029300
Y029700
X040750Y028650
X041300Y030900
X041750Y030500
X042400Y030550
X042650Y029700
X043100Y029300
X043600Y028700
X043800Y027950
X044150Y027600
Y028300
X043850Y027200
X044550Y026600
Y026050
X043000Y025100
X042737Y023213
X043800Y022800
X045250Y021550
X045750Y021400
X046300
X046850Y023950
Y025700
Y029700
X042300Y027200
X038900Y027600
X039000Y026450
X038600
X037822Y026472
X036962Y026362
X036950Y025850
X036831Y025181
X036850Y024400
X037800Y024700
X037750Y023500
X037131Y022819
X036850Y022050
X038350Y022700
X035650Y023350
X035500Y024700
X035300Y027000
X035650Y027450
X034900Y027400
X034550Y026950
X033050Y027750
X031950
X032050Y028750
X032550Y028450
X031550Y029050
X031250Y030400
X031950Y024550
X031550Y023000
X031400Y022500
X032600Y022900
X033759Y023409
X035500Y021168
X035950Y019300
X036500Y018950
X031650Y019100
X037800Y028000
X037850Y028450
X030800Y030300
X030250
X029700Y030250
X028291Y029950
Y029200
Y027900
Y027150
X026650Y024800
X026400Y024400
X026600Y022350
X028300Y022150
X028400Y023096
X029650Y021354
X030550Y022150
X030250Y019700
X028481Y019819
Y018219
X029100Y017550
X025950Y016881
X025650Y019650
X023950Y024150
X022750Y024650
X022100Y025100
X021550Y024150
X021600Y027950
X021850Y028900
X023200Y029400
X028500Y031150
X029700Y031750
X030200Y032050
X030700Y032300
X031050Y032550
Y034000
X030700
X030200Y033900
X029700
X029200
X025991Y031891
X033650Y035200
X041850Y031650
X049100Y034300
X049600Y033900
X050050Y033500
X051100Y034400
X051600Y034050
X052100
X052048Y033198
X052850Y032450
Y034550
X055300Y037500
X058999Y037525
X059062Y036538
X059099Y036025
X061550Y034200
T02
X042463Y020450
X043250
T03
X062150Y017950
Y018950
Y020950
X061500Y030850
X021000Y035000
Y036000
Y037000
X061500Y031850
T04
X053650Y017750
X054650
X055650
X056650
X057650
X058650
X059650
X026970Y026700
Y027700
Y028700
Y029700
X025970Y029200
Y028200
Y027200
Y030200
X022150Y029950
X021470Y030950
Y026950
X022150Y025950
X057050Y032948
X058050
X059050
X060050
X059550Y033948
X058550
X057550
X060550
T05
X048550Y026100
Y027100
X049550Y027100
X050550
X051550
X052550
Y026100
X051550
X050550
X049550
X057350Y021200
Y020200
X058850
Y021200
X034600Y021961
Y020039
X037439Y029900
X039361
X024704Y023000
X022421
X023523Y021110
X035350Y032750
X036350
X036250Y034050
Y035050
X043800Y031700
X044800
X046000
X047000
X056300Y031548
X057300
X058550
X059550
T06
X037750Y033000
Y035000
X040750
X041750
X042900
Y033000
X041750
X040750
X045900
Y035000
X046900
Y033000
T07
X053120Y022700
X055680
T08
X047084Y016350
X048462
X049840
X052588
X053966
X055344
X056722
X058100
X059478
X045706
X044328
X042950
X040168Y016350
X038790
X037412
X036034
X034656
X033278
X031900
X030522
X029144
X029534Y036400
X028156
X026778
X025400
X030912
X032290
X033668
X035046
X036424
X039100
X040478
X041856
X043234
X044612
X045990
X048650
X050028
X051406
X052784
X054162
T09
X058182Y026400
X060150
T10
X024670Y025400
Y031500
T11
X062000Y015750
X022500Y036800
T12
X056550Y036448
X061050
T13
X023470Y026200
Y030700
M30
