%FSAX24Y24*%
%MOIN*%
G70*
G01*
G75*
G04 Layer_Color=65535*
%ADD10C,0.0100*%
%ADD11R,0.1378X0.0748*%
%ADD12R,0.1732X0.0866*%
%ADD13O,0.0276X0.0984*%
%ADD14R,0.0118X0.0591*%
%ADD15R,0.0591X0.0118*%
%ADD16C,0.0394*%
%ADD17R,0.0472X0.0532*%
%ADD18R,0.0532X0.0472*%
%ADD19R,0.1969X0.2756*%
%ADD20R,0.0551X0.0472*%
%ADD21R,0.0472X0.0551*%
%ADD22R,0.0787X0.0571*%
%ADD23R,0.0591X0.0315*%
%ADD24R,0.0177X0.0453*%
%ADD25C,0.0300*%
%ADD26C,0.0120*%
%ADD27C,0.0591*%
%ADD28C,0.0787*%
%ADD29C,0.0472*%
%ADD30C,0.0650*%
%ADD31C,0.0630*%
%ADD32R,0.0787X0.0787*%
%ADD33C,0.0600*%
%ADD34R,0.0728X0.0728*%
%ADD35C,0.0728*%
%ADD36C,0.1161*%
%ADD37C,0.1043*%
%ADD38C,0.0591*%
%ADD39R,0.0591X0.0591*%
%ADD40R,0.0650X0.0650*%
%ADD41C,0.0984*%
%ADD42R,0.0984X0.0984*%
%ADD43R,0.0591X0.0591*%
%ADD44C,0.1181*%
%ADD45R,0.0591X0.0591*%
%ADD46O,0.1890X0.0787*%
%ADD47O,0.0787X0.1890*%
%ADD48C,0.0240*%
%ADD49R,0.0906X0.0906*%
%ADD50R,0.1634X0.0374*%
%ADD51R,0.3701X0.3228*%
%ADD52O,0.0236X0.0906*%
%ADD53R,0.0374X0.0335*%
%ADD54O,0.0709X0.0177*%
%ADD55O,0.0866X0.0236*%
%ADD56C,0.0200*%
%ADD57C,0.0079*%
%ADD58C,0.0050*%
%ADD59C,0.0098*%
%ADD60C,0.0236*%
%ADD61C,0.0039*%
%ADD62C,0.0080*%
%ADD63C,0.0059*%
%ADD64R,0.1614X0.0748*%
D10*
X028801Y021312D02*
Y022099D01*
X031006D01*
X031399Y021706D01*
Y021312D02*
Y021706D01*
X028801Y019501D02*
Y020288D01*
Y019501D02*
X031006D01*
X031399Y019894D01*
Y020288D01*
X030887Y021391D02*
Y021784D01*
X030691Y021587D02*
X031084D01*
X032118Y023022D02*
Y023809D01*
X031528Y022431D02*
X032118Y023022D01*
X028182Y022431D02*
X031528D01*
X028182D02*
Y023809D01*
X032118Y024991D02*
Y025778D01*
X031528Y026369D02*
X032118Y025778D01*
X028182Y026369D02*
X031528D01*
X028182Y024991D02*
Y026369D01*
X031528Y025187D02*
Y025581D01*
X031331Y025384D02*
X031725D01*
X053809Y022306D02*
X054991D01*
X053809D02*
Y023094D01*
X054991D01*
Y022306D02*
Y023094D01*
X062500Y030300D02*
Y029700D01*
X062800D01*
X062900Y029800D01*
Y030200D01*
X062800Y030300D01*
X062500D01*
X063100Y030200D02*
X063200Y030300D01*
X063400D01*
X063500Y030200D01*
Y030100D01*
X063400Y030000D01*
X063300D01*
X063400D01*
X063500Y029900D01*
Y029800D01*
X063400Y029700D01*
X063200D01*
X063100Y029800D01*
X058739Y019211D02*
X058339D01*
Y018611D01*
X058739D01*
X058339Y018911D02*
X058539D01*
X058939Y019011D02*
X059339Y018611D01*
X059139Y018811D01*
X059339Y019011D01*
X058939Y018611D01*
X059639Y019111D02*
Y019011D01*
X059539D01*
X059739D01*
X059639D01*
Y018711D01*
X059739Y018611D01*
X060038D02*
Y018711D01*
X060138D01*
Y018611D01*
X060038D01*
X048900Y040650D02*
X049100D01*
X049000D01*
Y040050D01*
X048900D01*
X049100D01*
X049400D02*
Y040650D01*
X049800Y040050D01*
Y040650D01*
X050400D02*
X050000D01*
Y040350D01*
X050200D01*
X050000D01*
Y040050D01*
X050599D02*
Y040650D01*
X050899D01*
X050999Y040550D01*
Y040350D01*
X050899Y040250D01*
X050599D01*
X050799D02*
X050999Y040050D01*
X051199D02*
Y040450D01*
X051399Y040650D01*
X051599Y040450D01*
Y040050D01*
Y040350D01*
X051199D01*
X052699Y040650D02*
X052499D01*
X052399Y040550D01*
Y040150D01*
X052499Y040050D01*
X052699D01*
X052799Y040150D01*
Y040550D01*
X052699Y040650D01*
X052999D02*
Y040150D01*
X053099Y040050D01*
X053299D01*
X053399Y040150D01*
Y040650D01*
X053598D02*
X053998D01*
X053798D01*
Y040050D01*
X048600Y035350D02*
X048500Y035450D01*
X048300D01*
X048200Y035350D01*
Y034950D01*
X048300Y034850D01*
X048500D01*
X048600Y034950D01*
X049100Y035450D02*
X048900D01*
X048800Y035350D01*
Y034950D01*
X048900Y034850D01*
X049100D01*
X049200Y034950D01*
Y035350D01*
X049100Y035450D01*
X049400Y034850D02*
Y035450D01*
X049600Y035250D01*
X049799Y035450D01*
Y034850D01*
X047850Y017200D02*
Y017800D01*
X048150D01*
X048250Y017700D01*
Y017500D01*
X048150Y017400D01*
X047850D01*
X048050D02*
X048250Y017200D01*
X048850Y017700D02*
X048750Y017800D01*
X048550D01*
X048450Y017700D01*
Y017600D01*
X048550Y017500D01*
X048750D01*
X048850Y017400D01*
Y017300D01*
X048750Y017200D01*
X048550D01*
X048450Y017300D01*
X049449Y017200D02*
X049050D01*
X049449Y017600D01*
Y017700D01*
X049350Y017800D01*
X049150D01*
X049050Y017700D01*
X049649D02*
X049749Y017800D01*
X049949D01*
X050049Y017700D01*
Y017600D01*
X049949Y017500D01*
X049849D01*
X049949D01*
X050049Y017400D01*
Y017300D01*
X049949Y017200D01*
X049749D01*
X049649Y017300D01*
X050649Y017200D02*
X050249D01*
X050649Y017600D01*
Y017700D01*
X050549Y017800D01*
X050349D01*
X050249Y017700D01*
X053100Y012850D02*
X053300D01*
X053200D01*
Y012250D01*
X053100D01*
X053300D01*
X053600D02*
Y012850D01*
X054000Y012250D01*
Y012850D01*
X054799D02*
Y012250D01*
X055099D01*
X055199Y012350D01*
Y012450D01*
X055099Y012550D01*
X054799D01*
X055099D01*
X055199Y012650D01*
Y012750D01*
X055099Y012850D01*
X054799D01*
X057000D02*
X057200D01*
X057100D01*
Y012250D01*
X057000D01*
X057200D01*
X057500D02*
Y012850D01*
X057900Y012250D01*
Y012850D01*
X058699Y012250D02*
Y012650D01*
X058899Y012850D01*
X059099Y012650D01*
Y012250D01*
Y012550D01*
X058699D01*
X062950Y032950D02*
X062350D01*
Y033250D01*
X062450Y033350D01*
X062650D01*
X062750Y033250D01*
Y032950D01*
X062550Y033650D02*
Y033850D01*
X062650Y033950D01*
X062950D01*
Y033650D01*
X062850Y033550D01*
X062750Y033650D01*
Y033950D01*
X062950Y034150D02*
X062550D01*
Y034450D01*
X062650Y034549D01*
X062950D01*
X062350Y034749D02*
X062950D01*
Y035049D01*
X062850Y035149D01*
X062750D01*
X062650Y035049D01*
Y034749D01*
Y035049D01*
X062550Y035149D01*
X062450D01*
X062350Y035049D01*
Y034749D01*
X062950Y035649D02*
Y035449D01*
X062850Y035349D01*
X062650D01*
X062550Y035449D01*
Y035649D01*
X062650Y035749D01*
X062750D01*
Y035349D01*
X062550Y036049D02*
Y036249D01*
X062650Y036349D01*
X062950D01*
Y036049D01*
X062850Y035949D01*
X062750Y036049D01*
Y036349D01*
X062950Y036549D02*
X062550D01*
Y036649D01*
X062650Y036749D01*
X062950D01*
X062650D01*
X062550Y036849D01*
X062650Y036949D01*
X062950D01*
X038700Y017900D02*
Y017300D01*
X039000D01*
X039100Y017400D01*
Y017500D01*
X039000Y017600D01*
X038700D01*
X039000D01*
X039100Y017700D01*
Y017800D01*
X039000Y017900D01*
X038700D01*
X039300D02*
X039700D01*
X039500D01*
Y017300D01*
X039900D02*
Y017900D01*
X040299Y017300D01*
Y017900D01*
X040499D02*
X040899D01*
Y017800D01*
X040499Y017400D01*
Y017300D01*
X030000Y017900D02*
Y017300D01*
X030300D01*
X030400Y017400D01*
Y017500D01*
X030300Y017600D01*
X030000D01*
X030300D01*
X030400Y017700D01*
Y017800D01*
X030300Y017900D01*
X030000D01*
X030600D02*
X031000D01*
X030800D01*
Y017300D01*
X031200D02*
Y017900D01*
X031599Y017300D01*
Y017900D01*
X031799Y017800D02*
X031899Y017900D01*
X032099D01*
X032199Y017800D01*
Y017400D01*
X032099Y017300D01*
X031899D01*
X031799Y017400D01*
Y017800D01*
X028950Y017850D02*
X028850Y017750D01*
Y017550D01*
X028950Y017450D01*
X029350D01*
X029450Y017550D01*
Y017750D01*
X029350Y017850D01*
X028850Y018350D02*
Y018150D01*
X028950Y018050D01*
X029350D01*
X029450Y018150D01*
Y018350D01*
X029350Y018450D01*
X028950D01*
X028850Y018350D01*
X029450Y018650D02*
X028850D01*
X029050Y018850D01*
X028850Y019049D01*
X029450D01*
X025800Y022000D02*
Y021600D01*
X026100D01*
X026000Y021800D01*
Y021900D01*
X026100Y022000D01*
X026300D01*
X026400Y021900D01*
Y021700D01*
X026300Y021600D01*
X025800Y022200D02*
X026200D01*
X026400Y022400D01*
X026200Y022600D01*
X025800D01*
Y023399D02*
Y023599D01*
Y023499D01*
X026400D01*
Y023399D01*
Y023599D01*
Y023899D02*
X025800D01*
X026400Y024299D01*
X025800D01*
X028450Y031550D02*
X028050D01*
Y030950D01*
X028450D01*
X028050Y031250D02*
X028250D01*
X028750Y031450D02*
Y031350D01*
X028650D01*
X028850D01*
X028750D01*
Y031050D01*
X028850Y030950D01*
X029150Y031550D02*
Y030950D01*
Y031250D01*
X029250Y031350D01*
X029450D01*
X029550Y031250D01*
Y030950D01*
X030049D02*
X029849D01*
X029749Y031050D01*
Y031250D01*
X029849Y031350D01*
X030049D01*
X030149Y031250D01*
Y031150D01*
X029749D01*
X030349Y031350D02*
Y030950D01*
Y031150D01*
X030449Y031250D01*
X030549Y031350D01*
X030649D01*
X030949Y030950D02*
Y031350D01*
X031249D01*
X031349Y031250D01*
Y030950D01*
X031849D02*
X031649D01*
X031549Y031050D01*
Y031250D01*
X031649Y031350D01*
X031849D01*
X031949Y031250D01*
Y031150D01*
X031549D01*
X032249Y031450D02*
Y031350D01*
X032149D01*
X032349D01*
X032249D01*
Y031050D01*
X032349Y030950D01*
X025700Y035450D02*
X025100D01*
Y035050D01*
X025700Y034450D02*
Y034850D01*
X025100D01*
Y034450D01*
X025400Y034850D02*
Y034650D01*
X025700Y034250D02*
X025100D01*
Y033950D01*
X025200Y033851D01*
X025600D01*
X025700Y033950D01*
Y034250D01*
Y033651D02*
Y033251D01*
X025600D01*
X025200Y033651D01*
X025100D01*
X031850Y035550D02*
Y034950D01*
X032250D01*
X032850Y035550D02*
X032450D01*
Y034950D01*
X032850D01*
X032450Y035250D02*
X032650D01*
X033050Y035550D02*
Y034950D01*
X033350D01*
X033449Y035050D01*
Y035450D01*
X033350Y035550D01*
X033050D01*
X033649Y035450D02*
X033749Y035550D01*
X033949D01*
X034049Y035450D01*
Y035050D01*
X033949Y034950D01*
X033749D01*
X033649Y035050D01*
Y035450D01*
X035100Y035150D02*
X035200Y035250D01*
Y035450D01*
X035100Y035550D01*
X034700D01*
X034600Y035450D01*
Y035250D01*
X034700Y035150D01*
X035200Y034650D02*
Y034850D01*
X035100Y034950D01*
X034700D01*
X034600Y034850D01*
Y034650D01*
X034700Y034550D01*
X035100D01*
X035200Y034650D01*
X034600Y034350D02*
X035200D01*
X035000Y034150D01*
X035200Y033951D01*
X034600D01*
X043450Y041300D02*
Y041900D01*
X043750D01*
X043850Y041800D01*
Y041600D01*
X043750Y041500D01*
X043450D01*
X043650D02*
X043850Y041300D01*
X044450Y041900D02*
X044050D01*
Y041300D01*
X044450D01*
X044050Y041600D02*
X044250D01*
X044650Y041900D02*
Y041300D01*
X045049D01*
X045249D02*
X045449D01*
X045349D01*
Y041900D01*
X045249Y041800D01*
X039050Y041350D02*
Y041950D01*
X039350D01*
X039450Y041850D01*
Y041650D01*
X039350Y041550D01*
X039050D01*
X039250D02*
X039450Y041350D01*
X040050Y041950D02*
X039650D01*
Y041350D01*
X040050D01*
X039650Y041650D02*
X039850D01*
X040250Y041950D02*
Y041350D01*
X040649D01*
X040849Y041850D02*
X040949Y041950D01*
X041149D01*
X041249Y041850D01*
Y041450D01*
X041149Y041350D01*
X040949D01*
X040849Y041450D01*
Y041850D01*
X039200Y039750D02*
X038600D01*
X039200Y040150D01*
X038600D01*
X038700Y040750D02*
X038600Y040650D01*
Y040450D01*
X038700Y040350D01*
X039100D01*
X039200Y040450D01*
Y040650D01*
X039100Y040750D01*
X043350Y039750D02*
X042750D01*
X043350Y040150D01*
X042750D01*
X042850Y040750D02*
X042750Y040650D01*
Y040450D01*
X042850Y040350D01*
X043250D01*
X043350Y040450D01*
Y040650D01*
X043250Y040750D01*
X046450Y039850D02*
X045850D01*
X046450Y040250D01*
X045850D01*
Y040750D02*
Y040550D01*
X045950Y040450D01*
X046350D01*
X046450Y040550D01*
Y040750D01*
X046350Y040850D01*
X045950D01*
X045850Y040750D01*
X042050Y039850D02*
X041450D01*
X042050Y040250D01*
X041450D01*
Y040750D02*
Y040550D01*
X041550Y040450D01*
X041950D01*
X042050Y040550D01*
Y040750D01*
X041950Y040850D01*
X041550D01*
X041450Y040750D01*
X041600Y029450D02*
X041200D01*
Y028850D01*
X041600D01*
X041200Y029150D02*
X041400D01*
X041900Y029350D02*
Y029250D01*
X041800D01*
X042000D01*
X041900D01*
Y028950D01*
X042000Y028850D01*
X042300Y029450D02*
Y028850D01*
Y029150D01*
X042400Y029250D01*
X042600D01*
X042700Y029150D01*
Y028850D01*
X043199D02*
X042999D01*
X042899Y028950D01*
Y029150D01*
X042999Y029250D01*
X043199D01*
X043299Y029150D01*
Y029050D01*
X042899D01*
X043499Y029250D02*
Y028850D01*
Y029050D01*
X043599Y029150D01*
X043699Y029250D01*
X043799D01*
X044099Y029450D02*
X044299D01*
X044199D01*
Y028850D01*
X044099D01*
X044299D01*
X044899Y029450D02*
X044699D01*
X044599Y029350D01*
Y028950D01*
X044699Y028850D01*
X044899D01*
X044999Y028950D01*
Y029350D01*
X044899Y029450D01*
X045199Y029250D02*
X045399Y028850D01*
X045599Y029250D01*
X045799Y029350D02*
X045898Y029450D01*
X046098D01*
X046198Y029350D01*
Y029250D01*
X046098Y029150D01*
X045998D01*
X046098D01*
X046198Y029050D01*
Y028950D01*
X046098Y028850D01*
X045898D01*
X045799Y028950D01*
X040950Y030500D02*
Y029900D01*
X041250D01*
X041350Y030000D01*
Y030400D01*
X041250Y030500D01*
X040950D01*
X041550Y029900D02*
X041750D01*
X041650D01*
Y030300D01*
X041550D01*
X042150D02*
X042350D01*
X042450Y030200D01*
Y029900D01*
X042150D01*
X042050Y030000D01*
X042150Y030100D01*
X042450D01*
X042649Y029700D02*
Y030300D01*
X042949D01*
X043049Y030200D01*
Y030000D01*
X042949Y029900D01*
X042649D01*
X043249Y030300D02*
Y029900D01*
Y030100D01*
X043349Y030200D01*
X043449Y030300D01*
X043549D01*
X043949Y029900D02*
X044149D01*
X044249Y030000D01*
Y030200D01*
X044149Y030300D01*
X043949D01*
X043849Y030200D01*
Y030000D01*
X043949Y029900D01*
X045049Y030500D02*
Y029900D01*
Y030100D01*
X045449Y030500D01*
X045149Y030200D01*
X045449Y029900D01*
X045748D02*
Y030400D01*
Y030200D01*
X045648D01*
X045848D01*
X045748D01*
Y030400D01*
X045848Y030500D01*
X046248Y030400D02*
Y030300D01*
X046148D01*
X046348D01*
X046248D01*
Y030000D01*
X046348Y029900D01*
X046648D02*
Y030000D01*
X046748D01*
Y029900D01*
X046648D01*
X038850Y028400D02*
Y028100D01*
X038950Y028000D01*
X039050Y028100D01*
X039150Y028000D01*
X039250Y028100D01*
Y028400D01*
X039450D02*
Y028100D01*
X039550Y028000D01*
X039650Y028100D01*
X039750Y028000D01*
X039850Y028100D01*
Y028400D01*
X040050D02*
Y028100D01*
X040150Y028000D01*
X040250Y028100D01*
X040350Y028000D01*
X040449Y028100D01*
Y028400D01*
X040649Y028000D02*
Y028100D01*
X040749D01*
Y028000D01*
X040649D01*
X041549Y028600D02*
Y028000D01*
X041249D01*
X041149Y028100D01*
Y028300D01*
X041249Y028400D01*
X041549D01*
X041749Y028000D02*
X041949D01*
X041849D01*
Y028400D01*
X041749D01*
X042349D02*
X042549D01*
X042649Y028300D01*
Y028000D01*
X042349D01*
X042249Y028100D01*
X042349Y028200D01*
X042649D01*
X042849Y027800D02*
Y028400D01*
X043149D01*
X043249Y028300D01*
Y028100D01*
X043149Y028000D01*
X042849D01*
X043449Y028400D02*
Y028000D01*
Y028200D01*
X043548Y028300D01*
X043648Y028400D01*
X043748D01*
X044148Y028000D02*
X044348D01*
X044448Y028100D01*
Y028300D01*
X044348Y028400D01*
X044148D01*
X044048Y028300D01*
Y028100D01*
X044148Y028000D01*
X044648D02*
Y028100D01*
X044748D01*
Y028000D01*
X044648D01*
X045148Y028600D02*
Y028000D01*
Y028300D01*
X045248Y028400D01*
X045448D01*
X045548Y028300D01*
Y028000D01*
X045748Y028400D02*
Y028100D01*
X045848Y028000D01*
X046148D01*
Y028400D01*
X044900Y027500D02*
X044500D01*
Y026900D01*
X044900D01*
X044500Y027200D02*
X044700D01*
X045500Y027400D02*
X045400Y027500D01*
X045200D01*
X045100Y027400D01*
Y027000D01*
X045200Y026900D01*
X045400D01*
X045500Y027000D01*
X045700Y026900D02*
X046000D01*
X046099Y027000D01*
X046000Y027100D01*
X045800D01*
X045700Y027200D01*
X045800Y027300D01*
X046099D01*
D57*
X033675Y019750D02*
G03*
X035525Y019750I000925J000000D01*
G01*
Y022250D02*
G03*
X033675Y022250I-000925J000000D01*
G01*
X037150Y030825D02*
G03*
X037150Y028975I000000J-000925D01*
G01*
X039650D02*
G03*
X039650Y030825I000000J000925D01*
G01*
X033675Y019750D02*
Y022250D01*
X035525Y019750D02*
Y022250D01*
X037150Y030825D02*
X039650D01*
X037150Y028975D02*
X039650D01*
X058046Y030918D02*
Y032178D01*
X060054Y030918D02*
Y032178D01*
X058046Y030918D02*
X060054D01*
X058046Y032178D02*
X060054D01*
X055796Y030918D02*
Y032178D01*
X057804Y030918D02*
Y032178D01*
X055796Y030918D02*
X057804D01*
X055796Y032178D02*
X057804D01*
X045496Y031070D02*
Y032330D01*
X047504Y031070D02*
Y032330D01*
X045496Y031070D02*
X047504D01*
X045496Y032330D02*
X047504D01*
X043296D02*
X045304D01*
X043296Y031070D02*
X045304D01*
Y032330D01*
X043296Y031070D02*
Y032330D01*
X035620Y033546D02*
X036880D01*
X035620Y035554D02*
X036880D01*
Y033546D02*
Y035554D01*
X035620Y033546D02*
Y035554D01*
X034846Y033380D02*
X036854D01*
X034846Y032120D02*
X036854D01*
Y033380D01*
X034846Y032120D02*
Y033380D01*
X047400Y032500D02*
Y035500D01*
X042400Y032500D02*
X047400D01*
X042400Y035500D02*
X047400D01*
X042400Y032500D02*
Y035500D01*
X037250Y032500D02*
Y035500D01*
X042250D01*
X037250Y032500D02*
X042250D01*
Y035500D01*
X048731Y019326D02*
Y019956D01*
X052668Y019326D02*
Y019956D01*
X048731Y019326D02*
X052668D01*
X048731Y019956D02*
X052668D01*
X036621Y021421D02*
Y026579D01*
Y021421D02*
X041779D01*
Y026579D01*
X036621D02*
X041779D01*
X053219Y023153D02*
Y023409D01*
X055581Y021991D02*
Y022228D01*
X053219Y021991D02*
Y022228D01*
X055581Y023153D02*
Y023409D01*
X053219Y021991D02*
X055581D01*
X053219Y023409D02*
X055581D01*
X028606Y027674D02*
X028685D01*
X028606Y028126D02*
X028685D01*
X028606Y026924D02*
X028685D01*
X028606Y027376D02*
X028685D01*
X032961Y023174D02*
X033039D01*
X032961Y023626D02*
X033039D01*
X028606Y029724D02*
X028685D01*
X028606Y030176D02*
X028685D01*
X028606Y028974D02*
X028685D01*
X028606Y029426D02*
X028685D01*
X037611Y019776D02*
X037689D01*
X037611Y019324D02*
X037689D01*
X042974Y023561D02*
Y023639D01*
X043426Y023561D02*
Y023639D01*
X019350Y025330D02*
X023991D01*
X025349D02*
X027750D01*
Y031570D01*
X025349D02*
X027750D01*
X019350Y025330D02*
Y031570D01*
X023991D01*
X046550Y028411D02*
X054550D01*
X046550Y024789D02*
X054550D01*
X046550D02*
Y028411D01*
X054550Y024789D02*
Y028411D01*
X021541Y019709D02*
X026659D01*
X021541Y014591D02*
X026659D01*
X021541Y018685D02*
Y019709D01*
X026659Y018685D02*
Y019709D01*
X021541Y014591D02*
Y015615D01*
X026659Y014591D02*
Y015615D01*
X032426Y018706D02*
Y018785D01*
X031974Y018706D02*
Y018785D01*
X031924Y019427D02*
X032476D01*
X037388Y035809D02*
Y039550D01*
X024435Y035809D02*
X037388D01*
X024435Y039550D02*
X037388D01*
X024435Y035809D02*
Y039550D01*
X028180Y013200D02*
Y016940D01*
X041132D01*
X028180Y013200D02*
X041132D01*
Y016940D01*
X050804Y013200D02*
Y016941D01*
X041985Y013200D02*
X050804D01*
X041985Y016941D02*
X050804D01*
X041985Y013200D02*
Y016941D01*
X043636Y019311D02*
Y019389D01*
X043164Y019311D02*
Y019389D01*
X042811Y017614D02*
X042889D01*
X042811Y018086D02*
X042889D01*
X042686Y019311D02*
Y019389D01*
X042214Y019311D02*
Y019389D01*
X038135Y035809D02*
Y039550D01*
X046954D01*
X038135Y035809D02*
X046954D01*
Y039550D01*
X044082Y019335D02*
Y019965D01*
X048018Y019335D02*
Y019965D01*
X044082Y019335D02*
X048018D01*
X044082Y019965D02*
X048018D01*
X055800Y036718D02*
Y039550D01*
Y032424D02*
Y036177D01*
Y032424D02*
X061800D01*
Y036177D01*
Y036718D02*
Y039550D01*
X055800D02*
X061800D01*
X060443Y013200D02*
Y016941D01*
X051624Y013200D02*
X060443D01*
X051624Y016941D02*
X060443D01*
X051624Y013200D02*
Y016941D01*
X055126Y035809D02*
Y039550D01*
X047685Y035809D02*
X055126D01*
X047685Y039550D02*
X055126D01*
X047685Y035809D02*
Y039550D01*
X054981Y028720D02*
Y034074D01*
X049076Y028720D02*
Y034074D01*
Y028720D02*
X049725D01*
X050808D02*
X052973D01*
X054056D02*
X054981D01*
X049076Y034074D02*
X049725D01*
X050808D02*
X052973D01*
X054056D02*
X054981D01*
X051166Y034265D02*
Y035683D01*
X052819Y034265D02*
Y035683D01*
X051166Y034265D02*
X052819D01*
X051166Y035683D02*
X052819D01*
X058220Y019696D02*
Y021704D01*
X059480Y019696D02*
Y021704D01*
X058220D02*
X059480D01*
X058220Y019696D02*
X059480D01*
X056720D02*
Y021704D01*
X057980Y019696D02*
Y021704D01*
X056720D02*
X057980D01*
X056720Y019696D02*
X057980D01*
X053150Y017250D02*
Y018250D01*
X060150D01*
Y017250D02*
Y018250D01*
X053150Y017250D02*
X060150D01*
X025098Y024772D02*
X025098Y023866D01*
X019350Y024772D02*
X025098D01*
X019350Y021228D02*
Y024772D01*
X025098Y021228D02*
Y022134D01*
X024586Y021228D02*
X025098D01*
X019350D02*
X022460D01*
D58*
X063665Y030779D02*
G03*
X063665Y031921I000000J000571D01*
G01*
X060713Y030484D02*
Y032216D01*
X063232D01*
Y030484D02*
Y032216D01*
X060713Y030484D02*
X063232D01*
Y031921D02*
X063665D01*
X063232Y030779D02*
X063665D01*
D59*
X052854Y020606D02*
G03*
X052854Y020606I-000049J000000D01*
G01*
X041887Y027228D02*
G03*
X041887Y027228I-000049J000000D01*
G01*
X048599Y024533D02*
G03*
X048599Y024533I-000049J000000D01*
G01*
X048204Y020615D02*
G03*
X048204Y020615I-000049J000000D01*
G01*
D60*
X041503Y026185D02*
G03*
X041503Y026185I-000118J000000D01*
G01*
D61*
X063398Y026400D02*
G03*
X063398Y026400I-004232J000000D01*
G01*
X063095Y018466D02*
G03*
X063095Y020434I-000394J000984D01*
G01*
X061520Y017481D02*
Y021418D01*
Y017481D02*
X063095D01*
X061520Y021418D02*
X063095D01*
Y017481D02*
Y018466D01*
Y020434D02*
Y021418D01*
X057315Y026400D02*
X057053D01*
X057184Y026269D02*
Y026531D01*
D62*
X062150Y022250D02*
Y021833D01*
X062233Y021750D01*
X062400D01*
X062483Y021833D01*
Y022250D01*
X062900Y021750D02*
Y022250D01*
X062650Y022000D01*
X062983D01*
X053250Y034700D02*
Y035200D01*
X053500D01*
X053583Y035117D01*
Y034950D01*
X053500Y034867D01*
X053250D01*
X053417D02*
X053583Y034700D01*
X054083D02*
X053750D01*
X054083Y035033D01*
Y035117D01*
X054000Y035200D01*
X053833D01*
X053750Y035117D01*
X054250D02*
X054333Y035200D01*
X054500D01*
X054583Y035117D01*
Y035033D01*
X054500Y034950D01*
X054416D01*
X054500D01*
X054583Y034867D01*
Y034783D01*
X054500Y034700D01*
X054333D01*
X054250Y034783D01*
X048283Y038350D02*
X048117D01*
X048200D01*
Y037933D01*
X048117Y037850D01*
X048033D01*
X047950Y037933D01*
X048450D02*
X048533Y037850D01*
X048700D01*
X048783Y037933D01*
Y038267D01*
X048700Y038350D01*
X048533D01*
X048450Y038267D01*
Y038183D01*
X048533Y038100D01*
X048783D01*
X027633Y020967D02*
X027550Y021050D01*
X027383D01*
X027300Y020967D01*
Y020633D01*
X027383Y020550D01*
X027550D01*
X027633Y020633D01*
X027800Y020550D02*
X027966D01*
X027883D01*
Y021050D01*
X027800Y020967D01*
X032833Y026117D02*
X032750Y026200D01*
X032583D01*
X032500Y026117D01*
Y025783D01*
X032583Y025700D01*
X032750D01*
X032833Y025783D01*
X033333Y025700D02*
X033000D01*
X033333Y026033D01*
Y026117D01*
X033250Y026200D01*
X033083D01*
X033000Y026117D01*
X030800Y019050D02*
Y018550D01*
X031050D01*
X031133Y018633D01*
Y018967D01*
X031050Y019050D01*
X030800D01*
X031300Y018550D02*
X031466D01*
X031383D01*
Y019050D01*
X031300Y018967D01*
X045933Y038350D02*
X045767D01*
X045850D01*
Y037933D01*
X045767Y037850D01*
X045683D01*
X045600Y037933D01*
X046100Y038350D02*
X046433D01*
Y038267D01*
X046100Y037933D01*
Y037850D01*
X021433Y020900D02*
X021267D01*
X021350D01*
Y020483D01*
X021267Y020400D01*
X021183D01*
X021100Y020483D01*
X021933Y020400D02*
X021600D01*
X021933Y020733D01*
Y020817D01*
X021850Y020900D01*
X021683D01*
X021600Y020817D01*
X027333Y014850D02*
X027167D01*
X027250D01*
Y014433D01*
X027167Y014350D01*
X027083D01*
X027000Y014433D01*
X027500Y014350D02*
X027666D01*
X027583D01*
Y014850D01*
X027500Y014767D01*
X023383Y038250D02*
X023217D01*
X023300D01*
Y037833D01*
X023217Y037750D01*
X023133D01*
X023050Y037833D01*
X023800Y037750D02*
Y038250D01*
X023550Y038000D01*
X023883D01*
X021333Y032300D02*
X021167D01*
X021250D01*
Y031883D01*
X021167Y031800D01*
X021083D01*
X021000Y031883D01*
X021833Y032300D02*
X021500D01*
Y032050D01*
X021666Y032133D01*
X021750D01*
X021833Y032050D01*
Y031883D01*
X021750Y031800D01*
X021583D01*
X021500Y031883D01*
X042583Y014800D02*
X042417D01*
X042500D01*
Y014383D01*
X042417Y014300D01*
X042333D01*
X042250Y014383D01*
X042750Y014300D02*
X042916D01*
X042833D01*
Y014800D01*
X042750Y014717D01*
X043166D02*
X043250Y014800D01*
X043416D01*
X043500Y014717D01*
Y014383D01*
X043416Y014300D01*
X043250D01*
X043166Y014383D01*
Y014717D01*
X039000Y032200D02*
Y031700D01*
Y031867D01*
X039333Y032200D01*
X039083Y031950D01*
X039333Y031700D01*
X039500D02*
X039666D01*
X039583D01*
Y032200D01*
X039500Y032117D01*
X047800Y033300D02*
Y032800D01*
Y032967D01*
X048133Y033300D01*
X047883Y033050D01*
X048133Y032800D01*
X048633D02*
X048300D01*
X048633Y033133D01*
Y033217D01*
X048550Y033300D01*
X048383D01*
X048300Y033217D01*
X025450Y020450D02*
Y019950D01*
X025783D01*
X025950D02*
X026116D01*
X026033D01*
Y020450D01*
X025950Y020367D01*
X050250Y023800D02*
Y024300D01*
X050500D01*
X050583Y024217D01*
Y024050D01*
X050500Y023967D01*
X050250D01*
X050750Y023800D02*
X050916D01*
X050833D01*
Y024300D01*
X050750Y024217D01*
X043885Y024205D02*
X044385D01*
Y023955D01*
X044302Y023872D01*
X044135D01*
X044052Y023955D01*
Y024205D01*
Y024038D02*
X043885Y023872D01*
X044385Y023372D02*
X044302Y023539D01*
X044135Y023705D01*
X043968D01*
X043885Y023622D01*
Y023455D01*
X043968Y023372D01*
X044052D01*
X044135Y023455D01*
Y023705D01*
X036978Y018478D02*
Y018978D01*
X037228D01*
X037311Y018894D01*
Y018728D01*
X037228Y018644D01*
X036978D01*
X037144D02*
X037311Y018478D01*
X037478D02*
X037644D01*
X037561D01*
Y018978D01*
X037478Y018894D01*
X037894Y018478D02*
X038061D01*
X037977D01*
Y018978D01*
X037894Y018894D01*
X029450Y028850D02*
Y029350D01*
X029700D01*
X029783Y029267D01*
Y029100D01*
X029700Y029017D01*
X029450D01*
X029617D02*
X029783Y028850D01*
X029950D02*
X030116D01*
X030033D01*
Y029350D01*
X029950Y029267D01*
X030700Y028850D02*
X030366D01*
X030700Y029183D01*
Y029267D01*
X030616Y029350D01*
X030450D01*
X030366Y029267D01*
X029450Y029700D02*
Y030200D01*
X029700D01*
X029783Y030117D01*
Y029950D01*
X029700Y029867D01*
X029450D01*
X029617D02*
X029783Y029700D01*
X029950D02*
X030116D01*
X030033D01*
Y030200D01*
X029950Y030117D01*
X030366D02*
X030450Y030200D01*
X030616D01*
X030700Y030117D01*
Y030033D01*
X030616Y029950D01*
X030533D01*
X030616D01*
X030700Y029867D01*
Y029783D01*
X030616Y029700D01*
X030450D01*
X030366Y029783D01*
X033350Y024000D02*
Y024500D01*
X033600D01*
X033683Y024417D01*
Y024250D01*
X033600Y024167D01*
X033350D01*
X033517D02*
X033683Y024000D01*
X033850D02*
X034016D01*
X033933D01*
Y024500D01*
X033850Y024417D01*
X034600Y024500D02*
X034266D01*
Y024250D01*
X034433Y024333D01*
X034516D01*
X034600Y024250D01*
Y024083D01*
X034516Y024000D01*
X034350D01*
X034266Y024083D01*
X029450Y026800D02*
Y027300D01*
X029700D01*
X029783Y027217D01*
Y027050D01*
X029700Y026967D01*
X029450D01*
X029617D02*
X029783Y026800D01*
X029950D02*
X030116D01*
X030033D01*
Y027300D01*
X029950Y027217D01*
X030366Y027300D02*
X030700D01*
Y027217D01*
X030366Y026883D01*
Y026800D01*
X029450Y027650D02*
Y028150D01*
X029700D01*
X029783Y028067D01*
Y027900D01*
X029700Y027817D01*
X029450D01*
X029617D02*
X029783Y027650D01*
X029950D02*
X030116D01*
X030033D01*
Y028150D01*
X029950Y028067D01*
X030366D02*
X030450Y028150D01*
X030616D01*
X030700Y028067D01*
Y027983D01*
X030616Y027900D01*
X030700Y027817D01*
Y027733D01*
X030616Y027650D01*
X030450D01*
X030366Y027733D01*
Y027817D01*
X030450Y027900D01*
X030366Y027983D01*
Y028067D01*
X030450Y027900D02*
X030616D01*
X054333Y024117D02*
X054250Y024200D01*
X054083D01*
X054000Y024117D01*
Y024033D01*
X054083Y023950D01*
X054250D01*
X054333Y023867D01*
Y023783D01*
X054250Y023700D01*
X054083D01*
X054000Y023783D01*
X054500Y023700D02*
X054666D01*
X054583D01*
Y024200D01*
X054500Y024117D01*
X034500Y026300D02*
Y025883D01*
X034583Y025800D01*
X034750D01*
X034833Y025883D01*
Y026300D01*
X035333Y025800D02*
X035000D01*
X035333Y026133D01*
Y026217D01*
X035250Y026300D01*
X035083D01*
X035000Y026217D01*
X049950Y022150D02*
Y021733D01*
X050033Y021650D01*
X050200D01*
X050283Y021733D01*
Y022150D01*
X050450Y021733D02*
X050533Y021650D01*
X050700D01*
X050783Y021733D01*
Y022067D01*
X050700Y022150D01*
X050533D01*
X050450Y022067D01*
Y021983D01*
X050533Y021900D01*
X050783D01*
X038000Y031700D02*
X038333Y031200D01*
Y031700D02*
X038000Y031200D01*
X038500D02*
X038666D01*
X038583D01*
Y031700D01*
X038500Y031617D01*
X032350Y021250D02*
X032683Y020750D01*
Y021250D02*
X032350Y020750D01*
X033183D02*
X032850D01*
X033183Y021083D01*
Y021167D01*
X033100Y021250D01*
X032933D01*
X032850Y021167D01*
X044083Y017817D02*
X044000Y017900D01*
X043833D01*
X043750Y017817D01*
Y017483D01*
X043833Y017400D01*
X044000D01*
X044083Y017483D01*
X044583Y017400D02*
X044250D01*
X044583Y017733D01*
Y017817D01*
X044500Y017900D01*
X044333D01*
X044250Y017817D01*
X044750Y017900D02*
X045083D01*
Y017817D01*
X044750Y017483D01*
Y017400D01*
X061633Y026567D02*
X061550Y026650D01*
X061383D01*
X061300Y026567D01*
Y026233D01*
X061383Y026150D01*
X061550D01*
X061633Y026233D01*
X062133Y026150D02*
X061800D01*
X062133Y026483D01*
Y026567D01*
X062050Y026650D01*
X061883D01*
X061800Y026567D01*
X062550Y026150D02*
Y026650D01*
X062300Y026400D01*
X062633D01*
X043283Y021133D02*
X043200Y021050D01*
Y020883D01*
X043283Y020800D01*
X043617D01*
X043700Y020883D01*
Y021050D01*
X043617Y021133D01*
X043700Y021633D02*
Y021300D01*
X043367Y021633D01*
X043283D01*
X043200Y021550D01*
Y021383D01*
X043283Y021300D01*
X043200Y022133D02*
Y021800D01*
X043450D01*
X043367Y021966D01*
Y022050D01*
X043450Y022133D01*
X043617D01*
X043700Y022050D01*
Y021883D01*
X043617Y021800D01*
X041233Y018883D02*
X041150Y018800D01*
Y018633D01*
X041233Y018550D01*
X041567D01*
X041650Y018633D01*
Y018800D01*
X041567Y018883D01*
X041650Y019383D02*
Y019050D01*
X041317Y019383D01*
X041233D01*
X041150Y019300D01*
Y019133D01*
X041233Y019050D01*
X041150Y019883D02*
X041233Y019716D01*
X041400Y019550D01*
X041567D01*
X041650Y019633D01*
Y019800D01*
X041567Y019883D01*
X041483D01*
X041400Y019800D01*
Y019550D01*
X056050Y018450D02*
Y018950D01*
X056300D01*
X056383Y018867D01*
Y018700D01*
X056300Y018617D01*
X056050D01*
X056883Y018450D02*
X056550D01*
X056883Y018783D01*
Y018867D01*
X056800Y018950D01*
X056633D01*
X056550Y018867D01*
X049794Y031710D02*
X049627D01*
X049710D01*
Y031294D01*
X049627Y031210D01*
X049544D01*
X049460Y031294D01*
X049960Y031627D02*
X050043Y031710D01*
X050210D01*
X050293Y031627D01*
Y031544D01*
X050210Y031460D01*
X050127D01*
X050210D01*
X050293Y031377D01*
Y031294D01*
X050210Y031210D01*
X050043D01*
X049960Y031294D01*
X045650Y022200D02*
Y021783D01*
X045733Y021700D01*
X045900D01*
X045983Y021783D01*
Y022200D01*
X046150D02*
X046483D01*
Y022117D01*
X046150Y021783D01*
Y021700D01*
X062433Y038150D02*
X062267D01*
X062350D01*
Y037733D01*
X062267Y037650D01*
X062183D01*
X062100Y037733D01*
X062933Y038150D02*
X062766Y038067D01*
X062600Y037900D01*
Y037733D01*
X062683Y037650D01*
X062850D01*
X062933Y037733D01*
Y037817D01*
X062850Y037900D01*
X062600D01*
X059600Y030150D02*
Y029650D01*
X059767Y029817D01*
X059933Y029650D01*
Y030150D01*
X060433Y029650D02*
X060100D01*
X060433Y029983D01*
Y030067D01*
X060350Y030150D01*
X060183D01*
X060100Y030067D01*
X055550Y030500D02*
Y030000D01*
X055717Y030167D01*
X055883Y030000D01*
Y030500D01*
X056050Y030000D02*
X056216D01*
X056133D01*
Y030500D01*
X056050Y030417D01*
X051993Y017760D02*
X051827D01*
X051910D01*
Y017343D01*
X051827Y017260D01*
X051743D01*
X051660Y017343D01*
X052160Y017677D02*
X052243Y017760D01*
X052410D01*
X052493Y017677D01*
Y017593D01*
X052410Y017510D01*
X052493Y017427D01*
Y017343D01*
X052410Y017260D01*
X052243D01*
X052160Y017343D01*
Y017427D01*
X052243Y017510D01*
X052160Y017593D01*
Y017677D01*
X052243Y017510D02*
X052410D01*
X059950Y019950D02*
X060450D01*
X060283Y020117D01*
X060450Y020283D01*
X059950D01*
X060450Y020450D02*
Y020616D01*
Y020533D01*
X059950D01*
X060033Y020450D01*
X060450Y021200D02*
Y020866D01*
X060117Y021200D01*
X060033D01*
X059950Y021116D01*
Y020950D01*
X060033Y020866D01*
X055950Y020000D02*
X056450D01*
X056283Y020167D01*
X056450Y020333D01*
X055950D01*
X056450Y020500D02*
Y020666D01*
Y020583D01*
X055950D01*
X056033Y020500D01*
Y020916D02*
X055950Y021000D01*
Y021166D01*
X056033Y021250D01*
X056117D01*
X056200Y021166D01*
Y021083D01*
Y021166D01*
X056283Y021250D01*
X056367D01*
X056450Y021166D01*
Y021000D01*
X056367Y020916D01*
D63*
X053022Y025903D02*
X053121Y025805D01*
X053318D01*
X053416Y025903D01*
Y026297D01*
X053318Y026395D01*
X053121D01*
X053022Y026297D01*
Y026198D01*
X053121Y026100D01*
X053416D01*
X053022Y026805D02*
X053219D01*
X053121D01*
Y027395D01*
X053022Y027297D01*
X053514D02*
X053613Y027395D01*
X053810D01*
X053908Y027297D01*
Y026903D01*
X053810Y026805D01*
X053613D01*
X053514Y026903D01*
Y027297D01*
X047881Y025805D02*
X048078D01*
X047979D01*
Y026395D01*
X047881Y026297D01*
X048078Y026805D02*
X047684D01*
X048078Y027198D01*
Y027297D01*
X047979Y027395D01*
X047782D01*
X047684Y027297D01*
D64*
X050550Y025163D02*
D03*
M02*
