%FSTAX24Y24*%
%MOIN*%
G70*
G01*
G75*
G04 Layer_Color=16711935*
%ADD10R,0.0315X0.0374*%
%ADD11R,0.0374X0.0315*%
%ADD12R,0.0472X0.0256*%
G04:AMPARAMS|DCode=13|XSize=21.7mil|YSize=47.2mil|CornerRadius=0mil|HoleSize=0mil|Usage=FLASHONLY|Rotation=270.000|XOffset=0mil|YOffset=0mil|HoleType=Round|Shape=Octagon|*
%AMOCTAGOND13*
4,1,8,0.0236,0.0054,0.0236,-0.0054,0.0182,-0.0108,-0.0182,-0.0108,-0.0236,-0.0054,-0.0236,0.0054,-0.0182,0.0108,0.0182,0.0108,0.0236,0.0054,0.0*
%
%ADD13OCTAGOND13*%

%ADD14R,0.0472X0.0217*%
%ADD15O,0.0236X0.0866*%
%ADD16R,0.0236X0.0866*%
%ADD17R,0.0630X0.0630*%
%ADD18R,0.1299X0.1004*%
%ADD19R,0.0374X0.1004*%
%ADD20R,0.0630X0.0630*%
%ADD21C,0.0100*%
%ADD22C,0.0200*%
%ADD23C,0.0150*%
%ADD24C,0.0039*%
%ADD25R,0.0787X0.0787*%
%ADD26C,0.0787*%
%ADD27C,0.0591*%
%ADD28R,0.0591X0.0591*%
%ADD29C,0.0709*%
%ADD30R,0.0591X0.0591*%
%ADD31C,0.1800*%
%ADD32C,0.0984*%
%ADD33R,0.0984X0.0984*%
G04:AMPARAMS|DCode=34|XSize=78.7mil|YSize=60mil|CornerRadius=0mil|HoleSize=0mil|Usage=FLASHONLY|Rotation=270.000|XOffset=0mil|YOffset=0mil|HoleType=Round|Shape=Octagon|*
%AMOCTAGOND34*
4,1,8,-0.0150,-0.0394,0.0150,-0.0394,0.0300,-0.0244,0.0300,0.0244,0.0150,0.0394,-0.0150,0.0394,-0.0300,0.0244,-0.0300,-0.0244,-0.0150,-0.0394,0.0*
%
%ADD34OCTAGOND34*%

%ADD35C,0.2441*%
%ADD36C,0.0320*%
%ADD37R,0.0472X0.0728*%
%ADD38C,0.0300*%
%ADD39R,0.0395X0.0454*%
%ADD40R,0.0454X0.0395*%
%ADD41R,0.0552X0.0336*%
G04:AMPARAMS|DCode=42|XSize=25.6mil|YSize=51.2mil|CornerRadius=0mil|HoleSize=0mil|Usage=FLASHONLY|Rotation=270.000|XOffset=0mil|YOffset=0mil|HoleType=Round|Shape=Octagon|*
%AMOCTAGOND42*
4,1,8,0.0256,0.0064,0.0256,-0.0064,0.0192,-0.0128,-0.0192,-0.0128,-0.0256,-0.0064,-0.0256,0.0064,-0.0192,0.0128,0.0192,0.0128,0.0256,0.0064,0.0*
%
%ADD42OCTAGOND42*%

%ADD43R,0.0512X0.0256*%
%ADD44O,0.0316X0.0946*%
%ADD45R,0.0316X0.0946*%
%ADD46R,0.0710X0.0710*%
%ADD47R,0.1379X0.1084*%
%ADD48R,0.0454X0.1084*%
%ADD49R,0.0710X0.0710*%
%ADD50R,0.0867X0.0867*%
%ADD51C,0.0867*%
%ADD52C,0.0671*%
%ADD53R,0.0671X0.0671*%
%ADD54C,0.0789*%
%ADD55R,0.0671X0.0671*%
%ADD56C,0.1880*%
%ADD57C,0.1064*%
%ADD58R,0.1064X0.1064*%
G04:AMPARAMS|DCode=59|XSize=86.7mil|YSize=68mil|CornerRadius=0mil|HoleSize=0mil|Usage=FLASHONLY|Rotation=270.000|XOffset=0mil|YOffset=0mil|HoleType=Round|Shape=Octagon|*
%AMOCTAGOND59*
4,1,8,-0.0170,-0.0434,0.0170,-0.0434,0.0340,-0.0264,0.0340,0.0264,0.0170,0.0434,-0.0170,0.0434,-0.0340,0.0264,-0.0340,-0.0264,-0.0170,-0.0434,0.0*
%
%ADD59OCTAGOND59*%

%ADD60C,0.2521*%
%ADD61C,0.0400*%
%ADD62R,0.0552X0.0808*%
%ADD63C,0.0472*%
D21*
X061902Y074274D02*
G03*
X06072Y073093I0J-001181D01*
G01*
X073319Y074274D02*
G03*
X0745Y075455I0J001181D01*
G01*
X06072Y067581D02*
G03*
X061902Y0664I001181J0D01*
G01*
X075681Y088447D02*
G03*
X0745Y087266I0J-001181D01*
G01*
X100091D02*
G03*
X098909Y088447I-001181J0D01*
G01*
Y0664D02*
G03*
X100091Y067581I0J001181D01*
G01*
X0745Y086872D02*
G03*
X075681Y085691I001181J0D01*
G01*
X076862Y08451D02*
G03*
X075681Y085691I-001181J0D01*
G01*
Y083329D02*
G03*
X076862Y08451I0J001181D01*
G01*
X075681Y083329D02*
G03*
X0745Y082148I0J-001181D01*
G01*
X061902Y074274D02*
X073319D01*
X0745Y075455D02*
Y082148D01*
X06072Y067581D02*
Y073093D01*
X061902Y0664D02*
X098909D01*
X100091Y067581D02*
Y087266D01*
X075681Y088447D02*
X098909D01*
X0745Y086872D02*
Y087266D01*
D63*
X07822Y084195D02*
Y084825D01*
X078535Y084825D01*
Y084195D02*
Y084825D01*
X07822Y084195D02*
X078535Y084195D01*
X07822Y080258D02*
Y080888D01*
X078535Y080888D01*
Y080258D02*
Y080888D01*
X07822Y080258D02*
X078535Y080258D01*
X07822Y076321D02*
Y076951D01*
X078535Y076951D01*
Y076321D02*
Y076951D01*
X07822Y076321D02*
X078535Y076321D01*
X07822Y072384D02*
Y073014D01*
X078535Y073014D01*
Y072384D02*
Y073014D01*
X07822Y072384D02*
X078535Y072384D01*
M02*
