%FSTAX24Y24*%
%MOIN*%
G70*
G01*
G75*
G04 Layer_Physical_Order=1*
G04 Layer_Color=255*
%ADD10R,0.0315X0.0374*%
%ADD11R,0.0374X0.0315*%
%ADD12R,0.0472X0.0256*%
G04:AMPARAMS|DCode=13|XSize=21.7mil|YSize=47.2mil|CornerRadius=0mil|HoleSize=0mil|Usage=FLASHONLY|Rotation=270.000|XOffset=0mil|YOffset=0mil|HoleType=Round|Shape=Octagon|*
%AMOCTAGOND13*
4,1,8,0.0236,0.0054,0.0236,-0.0054,0.0182,-0.0108,-0.0182,-0.0108,-0.0236,-0.0054,-0.0236,0.0054,-0.0182,0.0108,0.0182,0.0108,0.0236,0.0054,0.0*
%
%ADD13OCTAGOND13*%

%ADD14R,0.0472X0.0217*%
%ADD15O,0.0236X0.0866*%
%ADD16R,0.0236X0.0866*%
%ADD17R,0.0630X0.0630*%
%ADD18R,0.1299X0.1004*%
%ADD19R,0.0374X0.1004*%
%ADD20R,0.0630X0.0630*%
%ADD21C,0.0100*%
%ADD22C,0.0200*%
%ADD23C,0.0150*%
%ADD24C,0.0039*%
%ADD25R,0.0787X0.0787*%
%ADD26C,0.0787*%
%ADD27C,0.0591*%
%ADD28R,0.0591X0.0591*%
%ADD29C,0.0709*%
%ADD30R,0.0591X0.0591*%
%ADD31C,0.1800*%
%ADD32C,0.0984*%
%ADD33R,0.0984X0.0984*%
G04:AMPARAMS|DCode=34|XSize=78.7mil|YSize=60mil|CornerRadius=0mil|HoleSize=0mil|Usage=FLASHONLY|Rotation=270.000|XOffset=0mil|YOffset=0mil|HoleType=Round|Shape=Octagon|*
%AMOCTAGOND34*
4,1,8,-0.0150,-0.0394,0.0150,-0.0394,0.0300,-0.0244,0.0300,0.0244,0.0150,0.0394,-0.0150,0.0394,-0.0300,0.0244,-0.0300,-0.0244,-0.0150,-0.0394,0.0*
%
%ADD34OCTAGOND34*%

%ADD35C,0.2441*%
%ADD36C,0.0320*%
D10*
X094567Y085278D02*
D03*
X093858D02*
D03*
X098367Y084478D02*
D03*
X097658D02*
D03*
X094567Y084378D02*
D03*
X093858D02*
D03*
X096467Y080478D02*
D03*
X095758D02*
D03*
X095067D02*
D03*
X094358D02*
D03*
X099567Y077278D02*
D03*
X098858D02*
D03*
X096967Y072278D02*
D03*
X096258D02*
D03*
X080642Y08451D02*
D03*
X08135D02*
D03*
X096258Y073078D02*
D03*
X096967D02*
D03*
X080642Y080573D02*
D03*
X08135D02*
D03*
X080642Y076636D02*
D03*
X08135D02*
D03*
X080642Y072699D02*
D03*
X08135D02*
D03*
X093158Y074778D02*
D03*
X093867D02*
D03*
X095858Y085278D02*
D03*
X096567D02*
D03*
X096277Y08261D02*
D03*
X095568D02*
D03*
D11*
X092713Y079832D02*
D03*
Y079124D02*
D03*
X091513Y082932D02*
D03*
Y082224D02*
D03*
X090913Y079732D02*
D03*
Y079024D02*
D03*
X081213Y069824D02*
D03*
Y070532D02*
D03*
X079813Y069924D02*
D03*
Y070632D02*
D03*
X093413Y079832D02*
D03*
Y079124D02*
D03*
X073713Y072857D02*
D03*
Y072148D02*
D03*
X072335Y072857D02*
D03*
Y072148D02*
D03*
X070957Y072857D02*
D03*
Y072148D02*
D03*
X069579Y072857D02*
D03*
Y072148D02*
D03*
X068201Y072857D02*
D03*
Y072148D02*
D03*
X066823Y072857D02*
D03*
Y072148D02*
D03*
X065445Y072857D02*
D03*
Y072148D02*
D03*
X064067Y072857D02*
D03*
Y072148D02*
D03*
X092013Y079832D02*
D03*
Y079124D02*
D03*
X091713Y074224D02*
D03*
Y074932D02*
D03*
X073713Y070691D02*
D03*
Y069983D02*
D03*
X072335Y070691D02*
D03*
Y069983D02*
D03*
X070957Y070691D02*
D03*
Y069983D02*
D03*
X069579Y070691D02*
D03*
Y069983D02*
D03*
X068201Y070691D02*
D03*
Y069983D02*
D03*
X066823Y070691D02*
D03*
Y069983D02*
D03*
X065445Y070691D02*
D03*
Y069983D02*
D03*
X064067Y070691D02*
D03*
Y069983D02*
D03*
X074413Y072854D02*
D03*
Y072146D02*
D03*
X073013Y072854D02*
D03*
Y072146D02*
D03*
X071643Y072854D02*
D03*
Y072146D02*
D03*
X070263Y072854D02*
D03*
Y072146D02*
D03*
X068893Y072854D02*
D03*
Y072146D02*
D03*
X067513Y072854D02*
D03*
Y072146D02*
D03*
X066133Y072854D02*
D03*
Y072146D02*
D03*
X064753Y072854D02*
D03*
Y072146D02*
D03*
D12*
X090635Y082952D02*
D03*
Y082204D02*
D03*
X08959Y082578D02*
D03*
X09539Y083304D02*
D03*
Y084052D02*
D03*
X096435Y083678D02*
D03*
X093435Y082952D02*
D03*
Y082204D02*
D03*
X09239Y082578D02*
D03*
X090635Y081452D02*
D03*
Y080704D02*
D03*
X08959Y081078D02*
D03*
D13*
X095835Y079752D02*
D03*
Y079378D02*
D03*
X094801Y079752D02*
D03*
Y079004D02*
D03*
D14*
X095835Y079004D02*
D03*
D15*
X085113Y082423D02*
D03*
X088613Y078533D02*
D03*
X085113D02*
D03*
X085613D02*
D03*
X086113D02*
D03*
X086613D02*
D03*
X087113D02*
D03*
X087613D02*
D03*
X088113D02*
D03*
X085613Y082423D02*
D03*
X086113D02*
D03*
X086613D02*
D03*
X087113D02*
D03*
X087613D02*
D03*
X088113D02*
D03*
X084613D02*
D03*
Y078533D02*
D03*
X090257Y077996D02*
D03*
X093757Y076106D02*
D03*
X090257D02*
D03*
X090757D02*
D03*
X091257D02*
D03*
X091757D02*
D03*
X092257D02*
D03*
X092757D02*
D03*
X093257D02*
D03*
X090757Y077996D02*
D03*
X091257D02*
D03*
X091757D02*
D03*
X092257D02*
D03*
X092757D02*
D03*
X093257D02*
D03*
D16*
X088613Y082423D02*
D03*
X093757Y077996D02*
D03*
D17*
X097913Y070947D02*
D03*
Y069609D02*
D03*
X095213Y074509D02*
D03*
Y075847D02*
D03*
D18*
X097213Y076549D02*
D03*
D19*
X098118Y074207D02*
D03*
X097213D02*
D03*
X096307D02*
D03*
D20*
X098782Y080378D02*
D03*
X097443D02*
D03*
X098782Y081778D02*
D03*
X097443D02*
D03*
X098782Y083178D02*
D03*
X097443D02*
D03*
X098802Y07903D02*
D03*
X097463D02*
D03*
D21*
X064067Y072857D02*
X065445D01*
X066823D01*
X068201D01*
X069579D01*
X070957D01*
X072335D01*
X073713D01*
X073348Y068565D02*
Y069185D01*
X073516Y069353D01*
Y069353D01*
X073713Y06955D01*
Y069983D01*
X073713Y069983D02*
X073713Y069983D01*
X07197Y068565D02*
Y069185D01*
X072335Y06955D01*
Y069983D01*
X072335Y069983D02*
X072335Y069983D01*
X070593Y068565D02*
Y069185D01*
X070957Y06955D01*
Y069983D01*
X069215Y068565D02*
Y069185D01*
X069579Y06955D01*
Y069983D01*
X069579Y069983D02*
X069579Y069983D01*
X067837Y068565D02*
Y069185D01*
X068201Y06955D01*
Y069675D01*
X068201Y069675D02*
X068201Y069675D01*
X068201Y069675D02*
Y069983D01*
X066459Y068565D02*
Y069185D01*
X066823Y06955D01*
Y069983D01*
X066823Y069983D02*
X066823Y069983D01*
X065081Y068565D02*
Y069185D01*
X065445Y06955D01*
Y069983D01*
X064067D02*
X064067Y069983D01*
X063703Y068565D02*
Y069185D01*
X064067Y06955D01*
Y069983D01*
X070957Y071321D02*
Y072148D01*
Y070691D02*
Y071321D01*
X072335Y070691D02*
Y071321D01*
X073713D02*
Y072148D01*
Y070691D02*
Y071321D01*
X080012Y072699D02*
X080642D01*
X080012Y076636D02*
X080642D01*
X080012Y080573D02*
X080642D01*
X080012Y08451D02*
X080642D01*
X065445Y070691D02*
Y071321D01*
Y072148D01*
X064067Y070691D02*
Y071321D01*
Y072148D01*
X092257Y073623D02*
Y076106D01*
X088093Y069458D02*
X092257Y073623D01*
X088093Y068565D02*
Y069458D01*
X092757Y073023D02*
Y076106D01*
X08947Y068565D02*
Y069736D01*
X091757Y074932D02*
Y076106D01*
X091513Y079578D02*
X091767Y079832D01*
X092013D01*
X091257Y077996D02*
Y078633D01*
X090913Y078978D02*
X091257Y078633D01*
X090913Y078978D02*
Y079024D01*
X091513Y078878D02*
Y079578D01*
Y078878D02*
X091757Y078633D01*
Y077996D02*
Y078633D01*
X092257Y077996D02*
Y078633D01*
X092013Y078878D02*
X092257Y078633D01*
X092013Y078878D02*
Y079124D01*
X093413Y079832D02*
Y080478D01*
X093257Y077996D02*
Y078523D01*
X093413Y078678D01*
Y079124D01*
X088613Y082423D02*
Y083378D01*
X087613Y082423D02*
Y084378D01*
X088813Y085578D01*
Y086552D01*
X088795Y086569D02*
X088813Y086552D01*
X08947Y069736D02*
X092757Y073023D01*
X087613Y076932D02*
Y078533D01*
X087113Y077078D02*
Y078533D01*
X086113D02*
Y078727D01*
X08135Y072699D02*
Y074616D01*
X081213Y070532D02*
Y071378D01*
X086013Y071778D02*
Y072778D01*
X088613Y075378D01*
Y078533D01*
X085613Y082423D02*
Y083478D01*
X084313Y085878D02*
Y086878D01*
X084535Y0871D01*
X085326D01*
X085795Y087569D01*
X086113Y082423D02*
Y084678D01*
X097841Y070819D02*
X097913Y070747D01*
X098118Y070953D01*
X097213Y074207D02*
Y076549D01*
Y073324D02*
Y074207D01*
X096967Y073078D02*
X097213Y073324D01*
X096258Y072278D02*
X096307Y072327D01*
X096195Y069569D02*
X096356Y069409D01*
X099303Y068369D02*
Y069451D01*
X098713Y067778D02*
X099303Y068369D01*
X097913Y068578D02*
X098713Y067778D01*
X099567Y073532D02*
Y077278D01*
X099303Y073268D02*
X099567Y073532D01*
X099303Y07201D02*
Y073268D01*
X095313Y087087D02*
X095795Y087569D01*
X095313Y084778D02*
Y087087D01*
X095795Y085341D02*
Y086569D01*
Y085341D02*
X095858Y085278D01*
X096795Y085961D02*
Y086569D01*
X096567Y085732D02*
X096795Y085961D01*
X096567Y085278D02*
Y085732D01*
X09635Y088015D02*
X096795Y087569D01*
X094449Y088015D02*
X09635D01*
X094313Y087878D02*
X094449Y088015D01*
X094313Y085732D02*
Y087878D01*
X093858Y085278D02*
X094313Y085732D01*
X092757Y077996D02*
Y078633D01*
X092713Y078678D02*
X092757Y078633D01*
X092713Y078678D02*
Y079124D01*
X093757Y077996D02*
Y078723D01*
X093913Y078878D01*
Y080678D01*
X093713Y080878D02*
X093913Y080678D01*
X093113Y080878D02*
X093713D01*
X092713Y080478D02*
X093113Y080878D01*
X092713Y079832D02*
Y080478D01*
X094358D02*
Y080832D01*
X094013Y081178D02*
X094358Y080832D01*
X091813Y081178D02*
X094013D01*
X091339Y080704D02*
X091813Y081178D01*
X090635Y080704D02*
X091339D01*
X08959Y081078D02*
Y082578D01*
X083713Y081078D02*
X08959D01*
X08135Y08344D02*
X083713Y081078D01*
X08135Y08344D02*
Y08451D01*
X090113Y082778D02*
X090287Y082952D01*
X090635D01*
X090655Y082224D02*
X091513D01*
X090635Y082204D02*
X090655Y082224D01*
X090113Y079878D02*
X090258Y079732D01*
X090913D01*
X094567Y084378D02*
Y085278D01*
Y084378D02*
X094567Y084378D01*
X094893Y084052D01*
X09539D01*
X097658Y083294D02*
Y084478D01*
X097542Y083178D02*
X097658Y083294D01*
X098367Y084478D02*
Y085024D01*
X098113Y085278D02*
X098367Y085024D01*
X097713Y085278D02*
X098113D01*
X09539Y083304D02*
X095839D01*
X095913Y083378D01*
Y084078D01*
X097113Y085278D02*
X098713Y086878D01*
Y087069D01*
X098683Y080378D02*
Y081778D01*
Y083178D01*
X097542Y078978D02*
Y081778D01*
X094358Y079924D02*
Y080478D01*
X095835Y079378D02*
X096113D01*
X096467Y079732D01*
Y080478D01*
X095835Y079752D02*
Y080401D01*
X095758Y080478D02*
X095835Y080401D01*
X095213Y074509D02*
X096213D01*
X093158Y074778D02*
Y074824D01*
X093757Y074888D02*
Y076106D01*
Y074888D02*
X093867Y074778D01*
X097542Y081978D02*
Y083178D01*
X093787Y083304D02*
X09539D01*
X093435Y082952D02*
X093787Y083304D01*
X090635Y082952D02*
Y083D01*
X091513Y082932D02*
X092013Y083432D01*
Y083578D01*
X08135Y080573D02*
X082279Y079644D01*
X085195D01*
X086113Y078727D01*
X080313Y087087D02*
X080795Y087569D01*
X080313Y086078D02*
Y087087D01*
X079613Y083778D02*
Y085378D01*
X080313Y086078D01*
X084313Y085878D02*
X085613Y084578D01*
X085113Y081878D02*
Y082423D01*
Y081878D02*
X085413Y081578D01*
X088413D01*
X088613Y081778D01*
Y082423D01*
X082313Y083778D02*
X084713D01*
X078447Y068565D02*
Y068844D01*
X075713Y078478D02*
X075768Y078533D01*
X079813Y068578D02*
Y069924D01*
Y068578D02*
X079825Y068565D01*
X081213Y068575D02*
Y069824D01*
X081203Y068565D02*
X081213Y068575D01*
X075213Y070278D02*
Y072078D01*
X074434Y072857D02*
X075213Y072078D01*
X073713Y072857D02*
X074434D01*
X086287Y088078D02*
X086795Y087569D01*
X084213Y088078D02*
X086287D01*
X083795Y087661D02*
X084213Y088078D01*
X083795Y087569D02*
Y087661D01*
X086795Y087569D02*
X087287Y087078D01*
X089413D01*
X089795Y086695D01*
Y086569D02*
Y086695D01*
Y086569D02*
X09035Y087124D01*
X09135D02*
X091795Y087569D01*
X09035Y087124D02*
X09135D01*
X091795Y087569D02*
X092241Y087124D01*
X09335D02*
X093795Y087569D01*
X092241Y087124D02*
X09335D01*
X093858Y083375D02*
Y084378D01*
X093787Y083304D02*
X093858Y083375D01*
X095387Y079752D02*
X095835D01*
X095313Y079678D02*
X095387Y079752D01*
X093257Y076923D02*
X093413Y077078D01*
X093257Y076106D02*
Y076923D01*
X098683Y078978D02*
Y080378D01*
X095213Y072278D02*
X096258D01*
X085613Y083378D02*
Y084578D01*
X084795Y085995D02*
Y086569D01*
Y085995D02*
X086113Y084678D01*
X086795Y084078D02*
Y086569D01*
Y084078D02*
X087113Y083761D01*
Y082423D02*
Y083761D01*
X090635Y083D02*
X091613Y083978D01*
X092409D01*
X093435Y082952D01*
X088613Y083378D02*
X090013Y084778D01*
X092004D01*
X093795Y086569D01*
X097542Y083178D02*
Y083449D01*
X091513Y082224D02*
X091858D01*
X092213Y082578D01*
X09239D01*
X095313Y081878D02*
X095739D01*
X096813Y080804D01*
X090139Y081452D02*
X090635D01*
X094358Y079924D02*
X09453Y079752D01*
X094801D01*
X095967Y080978D02*
X096467Y080478D01*
X095067D02*
X095567Y080978D01*
X095967D01*
X098683Y080378D02*
X098783Y080278D01*
X099713D01*
X096813Y078378D02*
Y080804D01*
Y078378D02*
X097113Y078078D01*
X098767D01*
X099567Y077278D01*
X085613Y077178D02*
Y078533D01*
X086013Y075978D02*
X087113Y077078D01*
X086358Y075678D02*
X087613Y076932D01*
X082113Y074878D02*
X083213Y075978D01*
X086013D01*
X083513Y075678D02*
X086358D01*
X081213Y071378D02*
X082613Y072778D01*
Y074778D01*
X083513Y075678D01*
X082113Y072678D02*
Y074878D01*
X081313Y071878D02*
X082113Y072678D01*
X080313Y071878D02*
X081313D01*
X079813Y071378D02*
X080313Y071878D01*
X079813Y070632D02*
Y071378D01*
X08135Y076636D02*
X083871D01*
X085113Y077878D01*
Y078533D01*
X08135Y074616D02*
X083013Y076278D01*
X084713D01*
X085613Y077178D01*
X079613Y083778D02*
X082713Y080678D01*
X088013Y080278D02*
X089213Y079078D01*
X082713Y080678D02*
X088213D01*
X089613Y079278D01*
X079313Y083478D02*
X082513Y080278D01*
X088013D01*
X081287Y088078D02*
X081795Y087569D01*
X079313Y083478D02*
Y087778D01*
X079613Y088078D01*
X081287D01*
X084613Y082278D02*
Y082423D01*
X093757Y075847D02*
X095213D01*
X093158Y074232D02*
Y074778D01*
Y074232D02*
X094313Y073078D01*
X096258D01*
X097113Y084878D02*
Y085278D01*
X095913Y084078D02*
X096213Y084378D01*
X096613D01*
X097113Y084878D01*
X096926Y076263D02*
X097213Y076549D01*
X095628Y076263D02*
X096926D01*
X095213Y075847D02*
X095628Y076263D01*
X097213Y076549D02*
X097384D01*
X098113Y077278D01*
X098858D01*
X093413Y077078D02*
X094213D01*
X095313Y078178D01*
Y079678D01*
X089613Y075078D02*
Y079278D01*
X091257Y074923D02*
Y076106D01*
X089613Y075078D02*
X090013Y074678D01*
X091013D01*
X091257Y074923D01*
X089213Y074878D02*
Y079078D01*
Y074878D02*
X089867Y074224D01*
X091713D01*
X094713Y078278D02*
Y078916D01*
X094801Y079004D01*
X090113Y079878D02*
Y081478D01*
Y082778D01*
Y081478D02*
X090139Y081452D01*
X093158Y074824D02*
X093257Y074725D01*
Y076106D01*
X083713Y082278D02*
X084613D01*
X096307Y072327D02*
Y074207D01*
X064069Y072146D02*
X064753D01*
X064067Y072148D02*
X064069Y072146D01*
X065447D02*
X066133D01*
X065445Y072148D02*
X065447Y072146D01*
X066825D02*
X067513D01*
X066823Y071321D02*
Y072148D01*
X066825Y072146D01*
X068203D02*
X068893D01*
X068201Y072148D02*
X068203Y072146D01*
X069581D02*
X070263D01*
X069579Y071321D02*
Y072148D01*
X069581Y072146D01*
X070959D02*
X071643D01*
X070957Y072148D02*
X070959Y072146D01*
X072337D02*
X073013D01*
X072335Y071321D02*
Y072148D01*
X072337Y072146D01*
X073715D02*
X074413D01*
X073713Y072148D02*
X073715Y072146D01*
X066823Y070691D02*
Y071321D01*
X066823Y071321D01*
X069579Y070691D02*
Y071321D01*
X069579Y071321D01*
X068201Y071321D02*
X068201Y071321D01*
X068201Y070691D02*
Y071321D01*
X068201Y071321D02*
Y072148D01*
X084753Y08444D02*
X084783Y08447D01*
X082463Y08444D02*
X084753D01*
X082393Y08442D02*
Y08451D01*
X082463Y08444D01*
X096435Y082768D02*
Y083678D01*
X096277Y08261D02*
X096435Y082768D01*
X095568Y08222D02*
Y08261D01*
X093435Y082204D02*
X095553D01*
X095568Y08222D01*
X095553Y082204D02*
X095939D01*
X096365Y081778D01*
X097542D01*
D22*
X082581Y068565D02*
Y069546D01*
X082813Y069778D01*
Y070778D01*
X084013D01*
X086013D02*
X087213D01*
X083959Y068565D02*
Y069224D01*
X085013Y070278D01*
Y074778D01*
X084013D02*
X086013D01*
X094195Y070819D02*
X097841D01*
X096356Y069409D02*
X097913D01*
Y068578D02*
Y069409D01*
X075713Y081578D02*
X077313Y083178D01*
X078447Y068565D02*
X079634Y067378D01*
X090754D02*
X094195Y070819D01*
X075768Y078533D02*
X084613D01*
X075713Y071578D02*
Y078478D01*
Y081578D01*
X076413Y070878D02*
X078447Y068844D01*
X075713Y071578D02*
X076413Y070878D01*
X079634Y067378D02*
X090754D01*
X096967Y072278D02*
X098118D01*
Y070953D02*
Y072278D01*
Y074207D01*
X077313Y083178D02*
Y085778D01*
X085337Y068565D02*
Y069002D01*
X086013Y069678D01*
Y070778D01*
D23*
X077313Y087087D02*
X077795Y087569D01*
X078313Y087087D02*
X078795Y087569D01*
X078313Y085978D02*
Y087087D01*
X078113Y085778D02*
X078313Y085978D01*
X077313Y085778D02*
X078113D01*
X077313D02*
Y087087D01*
D24*
X076155Y077661D02*
Y078054D01*
X076352D01*
X076417Y077989D01*
Y077857D01*
X076352Y077792D01*
X076155D01*
X076286D02*
X076417Y077661D01*
X076614Y077923D02*
X076745D01*
X076811Y077857D01*
Y077661D01*
X076614D01*
X076548Y077726D01*
X076614Y077792D01*
X076811D01*
X076942Y077661D02*
X077139D01*
X077204Y077726D01*
X077139Y077792D01*
X077007D01*
X076942Y077857D01*
X077007Y077923D01*
X077204D01*
X077335Y077529D02*
Y077923D01*
X077532D01*
X077598Y077857D01*
Y077726D01*
X077532Y077661D01*
X077335D01*
X077729Y078054D02*
Y077661D01*
X077926D01*
X077991Y077726D01*
Y077792D01*
Y077857D01*
X077926Y077923D01*
X077729D01*
X078319Y077661D02*
X078188D01*
X078123Y077726D01*
Y077857D01*
X078188Y077923D01*
X078319D01*
X078385Y077857D01*
Y077792D01*
X078123D01*
X078516Y077923D02*
Y077661D01*
Y077792D01*
X078582Y077857D01*
X078647Y077923D01*
X078713D01*
X07891D02*
Y077661D01*
Y077792D01*
X078975Y077857D01*
X079041Y077923D01*
X079107D01*
X079303D02*
Y077726D01*
X079369Y077661D01*
X079566D01*
Y077595D01*
X0795Y077529D01*
X079435D01*
X079566Y077661D02*
Y077923D01*
X079697Y077595D02*
X079959D01*
X080287Y077661D02*
X080156D01*
X08009Y077726D01*
Y077857D01*
X080156Y077923D01*
X080287D01*
X080353Y077857D01*
Y077792D01*
X08009D01*
X08055Y077989D02*
Y077923D01*
X080484D01*
X080615D01*
X08055D01*
Y077726D01*
X080615Y077661D01*
X080812Y078054D02*
Y077661D01*
Y077857D01*
X080878Y077923D01*
X081009D01*
X081074Y077857D01*
Y077661D01*
X081402D02*
X081271D01*
X081206Y077726D01*
Y077857D01*
X081271Y077923D01*
X081402D01*
X081468Y077857D01*
Y077792D01*
X081206D01*
X081599Y077923D02*
Y077661D01*
Y077792D01*
X081665Y077857D01*
X08173Y077923D01*
X081796D01*
X081993Y078054D02*
X082124D01*
X082058D01*
Y077661D01*
X081993D01*
X082124D01*
X082517Y078054D02*
X082386D01*
X082321Y077989D01*
Y077726D01*
X082386Y077661D01*
X082517D01*
X082583Y077726D01*
Y077989D01*
X082517Y078054D01*
X082714Y077595D02*
X082977D01*
X083108Y077923D02*
X083239Y077661D01*
X08337Y077923D01*
X083764Y077661D02*
X083501D01*
X083764Y077923D01*
Y077989D01*
X083698Y078054D01*
X083567D01*
X083501Y077989D01*
X076302Y075344D02*
Y07495D01*
X076499D01*
X076564Y075016D01*
Y075278D01*
X076499Y075344D01*
X076302D01*
X076696Y07495D02*
X076827D01*
X076761D01*
Y075213D01*
X076696D01*
X077089D02*
X07722D01*
X077286Y075147D01*
Y07495D01*
X077089D01*
X077024Y075016D01*
X077089Y075082D01*
X077286D01*
X077417Y074819D02*
Y075213D01*
X077614D01*
X077679Y075147D01*
Y075016D01*
X077614Y07495D01*
X077417D01*
X077811Y075213D02*
Y07495D01*
Y075082D01*
X077876Y075147D01*
X077942Y075213D01*
X078007D01*
X07827Y07495D02*
X078401D01*
X078467Y075016D01*
Y075147D01*
X078401Y075213D01*
X07827D01*
X078204Y075147D01*
Y075016D01*
X07827Y07495D01*
X078991Y075344D02*
Y07495D01*
Y075082D01*
X079254Y075344D01*
X079057Y075147D01*
X079254Y07495D01*
X079451D02*
Y075278D01*
Y075147D01*
X079385D01*
X079516D01*
X079451D01*
Y075278D01*
X079516Y075344D01*
X079779Y075278D02*
Y075213D01*
X079713D01*
X079844D01*
X079779D01*
Y075016D01*
X079844Y07495D01*
X080041D02*
Y075016D01*
X080107D01*
Y07495D01*
X080041D01*
X076285Y074354D02*
Y074157D01*
X076351Y074091D01*
X076417Y074157D01*
X076482Y074091D01*
X076548Y074157D01*
Y074354D01*
X076679D02*
Y074157D01*
X076745Y074091D01*
X07681Y074157D01*
X076876Y074091D01*
X076941Y074157D01*
Y074354D01*
X077073D02*
Y074157D01*
X077138Y074091D01*
X077204Y074157D01*
X077269Y074091D01*
X077335Y074157D01*
Y074354D01*
X077466Y074091D02*
Y074157D01*
X077532D01*
Y074091D01*
X077466D01*
X078057Y074485D02*
Y074091D01*
X07786D01*
X077794Y074157D01*
Y074288D01*
X07786Y074354D01*
X078057D01*
X078188Y074091D02*
X078319D01*
X078253D01*
Y074354D01*
X078188D01*
X078581D02*
X078712D01*
X078778Y074288D01*
Y074091D01*
X078581D01*
X078516Y074157D01*
X078581Y074223D01*
X078778D01*
X078909Y07396D02*
Y074354D01*
X079106D01*
X079172Y074288D01*
Y074157D01*
X079106Y074091D01*
X078909D01*
X079303Y074354D02*
Y074091D01*
Y074223D01*
X079368Y074288D01*
X079434Y074354D01*
X0795D01*
X079762Y074091D02*
X079893D01*
X079959Y074157D01*
Y074288D01*
X079893Y074354D01*
X079762D01*
X079696Y074288D01*
Y074157D01*
X079762Y074091D01*
X08009D02*
Y074157D01*
X080156D01*
Y074091D01*
X08009D01*
X080418Y074485D02*
Y074091D01*
Y074288D01*
X080484Y074354D01*
X080615D01*
X08068Y074288D01*
Y074091D01*
X080812Y074354D02*
Y074157D01*
X080877Y074091D01*
X081074D01*
Y074354D01*
D25*
X084013Y074778D02*
D03*
D26*
Y071778D02*
D03*
Y070778D02*
D03*
X086013Y074778D02*
D03*
Y071778D02*
D03*
Y070778D02*
D03*
D27*
X082813D02*
D03*
X087213D02*
D03*
X077795Y087569D02*
D03*
X078795Y086569D02*
D03*
Y087569D02*
D03*
X079795Y086569D02*
D03*
Y087569D02*
D03*
X080795Y086569D02*
D03*
Y087569D02*
D03*
X081795Y086569D02*
D03*
Y087569D02*
D03*
X082795Y086569D02*
D03*
Y087569D02*
D03*
X083795Y086569D02*
D03*
Y087569D02*
D03*
X084795Y086569D02*
D03*
Y087569D02*
D03*
X085795Y086569D02*
D03*
Y087569D02*
D03*
X086795Y086569D02*
D03*
Y087569D02*
D03*
X087795Y086569D02*
D03*
Y087569D02*
D03*
X088795Y086569D02*
D03*
Y087569D02*
D03*
X089795Y086569D02*
D03*
Y087569D02*
D03*
X090795Y086569D02*
D03*
Y087569D02*
D03*
X091795Y086569D02*
D03*
Y087569D02*
D03*
X092795Y086569D02*
D03*
Y087569D02*
D03*
X093795Y086569D02*
D03*
Y087569D02*
D03*
X094795Y086569D02*
D03*
Y087569D02*
D03*
X095795Y086569D02*
D03*
Y087569D02*
D03*
X096795Y086569D02*
D03*
Y087569D02*
D03*
D28*
X082813Y071778D02*
D03*
X087213D02*
D03*
D29*
X099303Y069451D02*
D03*
Y07201D02*
D03*
D30*
X077795Y086569D02*
D03*
D31*
X096195Y069569D02*
D03*
X094195Y068319D02*
D03*
Y070819D02*
D03*
D32*
X078447Y068565D02*
D03*
X083959D02*
D03*
X079825D02*
D03*
X086715D02*
D03*
X081203D02*
D03*
X082581D02*
D03*
X085337D02*
D03*
X088093D02*
D03*
X062325Y068565D02*
D03*
X067837D02*
D03*
X063703D02*
D03*
X070593D02*
D03*
X065081D02*
D03*
X066459D02*
D03*
X069215D02*
D03*
X07197D02*
D03*
D33*
X08947Y068565D02*
D03*
X073348Y068565D02*
D03*
D34*
X078378Y08451D02*
D03*
Y080573D02*
D03*
X078378Y076636D02*
D03*
X078378Y072699D02*
D03*
D35*
X098713Y087069D02*
D03*
X075878Y067778D02*
D03*
X098713D02*
D03*
X075878Y087069D02*
D03*
X062098Y072896D02*
D03*
D36*
X069579Y071321D02*
D03*
X070957D02*
D03*
X072335D02*
D03*
X073713D02*
D03*
X080012Y072699D02*
D03*
Y076636D02*
D03*
Y080573D02*
D03*
Y08451D02*
D03*
X066823Y071321D02*
D03*
X065445D02*
D03*
X064067D02*
D03*
X093413Y080478D02*
D03*
X097713Y085278D02*
D03*
X092013Y083578D02*
D03*
X082313Y083778D02*
D03*
X076413Y070878D02*
D03*
X094413Y075847D02*
D03*
X075213Y070278D02*
D03*
X084713Y083778D02*
D03*
X095313Y081878D02*
D03*
Y084778D02*
D03*
X094713Y078278D02*
D03*
X099713Y080278D02*
D03*
X083713Y082278D02*
D03*
X095213Y072278D02*
D03*
X068201Y071321D02*
D03*
X084783Y08447D02*
D03*
X082393Y08442D02*
D03*
M02*
