M48
;Layer_Color=9474304
;FILE_FORMAT=2:5
INCH,TZ
;TYPE=PLATED
T1F00S00C0.02800
T2F00S00C0.03543
T3F00S00C0.16535
;TYPE=NON_PLATED
%
T01
X245600Y180200
X253500Y210000
X286300Y212500
X280800Y287300
X248500Y269410
X235540Y251400
X231400Y241600
X216600Y305500
X196900Y267700
X190440Y234000
X173740Y222400
X164340Y223200
X132000Y233900
X118000Y235000
X104970Y221700
X105040Y265300
X94000Y269000
X97500Y299000
X85400Y304900
X56100Y305700
X44000Y264000
X46737Y220663
X70940Y203300
X131340Y204300
X199340Y201600
X154500Y306000
X138000Y299000
X27140Y288400
X4600Y243100
X17100Y223300
T02
X209040Y184500
X199040
X189040
X179040
X169040
X159040
T03
X301161Y298516
X13759Y188279
M30
