%FSTAX24Y24*%
%MOIN*%
G70*
G01*
G75*
G04 Layer_Color=65535*
%ADD10C,0.0100*%
%ADD11R,0.0512X0.0394*%
%ADD12O,0.0945X0.0236*%
%ADD13R,0.0945X0.0236*%
%ADD14R,0.1575X0.0670*%
%ADD15R,0.0177X0.0453*%
%ADD16R,0.1378X0.0748*%
%ADD17R,0.1732X0.0866*%
%ADD18R,0.0532X0.0472*%
%ADD19R,0.1969X0.2756*%
%ADD20R,0.0472X0.0532*%
%ADD21C,0.0394*%
%ADD22R,0.0591X0.0118*%
%ADD23R,0.0118X0.0591*%
%ADD24O,0.0276X0.0984*%
%ADD25R,0.0472X0.0551*%
%ADD26R,0.0551X0.0472*%
%ADD27R,0.0591X0.0315*%
%ADD28R,0.0787X0.0571*%
%ADD29C,0.0120*%
%ADD30C,0.0300*%
%ADD31C,0.2362*%
%ADD32C,0.0800*%
%ADD33C,0.0700*%
%ADD34C,0.0591*%
%ADD35C,0.0984*%
%ADD36R,0.0984X0.0984*%
%ADD37O,0.0787X0.1890*%
%ADD38O,0.1890X0.0787*%
%ADD39C,0.0591*%
%ADD40C,0.1043*%
%ADD41R,0.0591X0.0591*%
%ADD42C,0.1161*%
%ADD43R,0.0787X0.0787*%
%ADD44C,0.0787*%
%ADD45R,0.0650X0.0650*%
%ADD46C,0.0650*%
%ADD47C,0.0728*%
%ADD48R,0.0728X0.0728*%
%ADD49C,0.1181*%
%ADD50R,0.0591X0.0591*%
%ADD51R,0.0591X0.0591*%
%ADD52C,0.0472*%
%ADD53C,0.0240*%
%ADD54R,0.0374X0.0335*%
%ADD55R,0.0472X0.0256*%
%ADD56R,0.0906X0.0906*%
%ADD57R,0.3701X0.3228*%
%ADD58R,0.1634X0.0374*%
%ADD59O,0.0236X0.0906*%
%ADD60O,0.0709X0.0177*%
%ADD61O,0.0866X0.0236*%
%ADD62C,0.0200*%
%ADD63C,0.0079*%
%ADD64C,0.0039*%
%ADD65C,0.0098*%
%ADD66C,0.0236*%
%ADD67C,0.0030*%
%ADD68C,0.0050*%
%ADD69C,0.0040*%
%ADD70C,0.0059*%
%ADD71R,0.1614X0.0748*%
D10*
X020043Y032819D02*
G03*
X020042Y034222I-00002J000702D01*
G01*
X02139Y032121D02*
X023074D01*
X020003D02*
Y034921D01*
X023074D01*
Y032121D02*
Y034921D01*
X020003Y032121D02*
X023074D01*
X023346Y031841D02*
Y033259D01*
X024054D01*
Y031841D02*
Y033259D01*
X023346Y031841D02*
X024054D01*
X030691Y021587D02*
X031084D01*
X030887Y021391D02*
Y021784D01*
X031399Y019894D02*
Y020288D01*
X031006Y019501D02*
X031399Y019894D01*
X028801Y019501D02*
X031006D01*
X028801D02*
Y020288D01*
X031399Y021312D02*
Y021706D01*
X031006Y022099D02*
X031399Y021706D01*
X028801Y022099D02*
X031006D01*
X028801Y021312D02*
Y022099D01*
X031331Y025384D02*
X031725D01*
X031528Y025187D02*
Y025581D01*
X028182Y024991D02*
Y026369D01*
X031528D01*
X032118Y025778D01*
Y024991D02*
Y025778D01*
X028182Y022431D02*
Y023809D01*
Y022431D02*
X031528D01*
X032118Y023022D01*
Y023809D01*
X054991Y022306D02*
Y023094D01*
X053809D02*
X054991D01*
X053809Y022306D02*
Y023094D01*
Y022306D02*
X054991D01*
X02985Y028D02*
Y0277D01*
X02995Y0276D01*
X03005Y0277D01*
X03015Y0276D01*
X03025Y0277D01*
Y028D01*
X03045D02*
Y0277D01*
X03055Y0276D01*
X03065Y0277D01*
X03075Y0276D01*
X03085Y0277D01*
Y028D01*
X03105D02*
Y0277D01*
X03115Y0276D01*
X03125Y0277D01*
X03135Y0276D01*
X031449Y0277D01*
Y028D01*
X031649Y0276D02*
Y0277D01*
X031749D01*
Y0276D01*
X031649D01*
X032549Y0282D02*
Y0276D01*
X032249D01*
X032149Y0277D01*
Y0279D01*
X032249Y028D01*
X032549D01*
X032749Y0276D02*
X032949D01*
X032849D01*
Y028D01*
X032749D01*
X033349D02*
X033549D01*
X033649Y0279D01*
Y0276D01*
X033349D01*
X033249Y0277D01*
X033349Y0278D01*
X033649D01*
X033849Y0274D02*
Y028D01*
X034149D01*
X034249Y0279D01*
Y0277D01*
X034149Y0276D01*
X033849D01*
X034449Y028D02*
Y0276D01*
Y0278D01*
X034548Y0279D01*
X034648Y028D01*
X034748D01*
X035148Y0276D02*
X035348D01*
X035448Y0277D01*
Y0279D01*
X035348Y028D01*
X035148D01*
X035048Y0279D01*
Y0277D01*
X035148Y0276D01*
X035648D02*
Y0277D01*
X035748D01*
Y0276D01*
X035648D01*
X036148Y0282D02*
Y0276D01*
Y0279D01*
X036248Y028D01*
X036448D01*
X036548Y0279D01*
Y0276D01*
X036748Y028D02*
Y0277D01*
X036848Y0276D01*
X037148D01*
Y028D01*
X0298Y0301D02*
Y0295D01*
X0301D01*
X0302Y0296D01*
Y03D01*
X0301Y0301D01*
X0298D01*
X0304Y0295D02*
X0306D01*
X0305D01*
Y0299D01*
X0304D01*
X031D02*
X0312D01*
X0313Y0298D01*
Y0295D01*
X031D01*
X0309Y0296D01*
X031Y0297D01*
X0313D01*
X031499Y0293D02*
Y0299D01*
X031799D01*
X031899Y0298D01*
Y0296D01*
X031799Y0295D01*
X031499D01*
X032099Y0299D02*
Y0295D01*
Y0297D01*
X032199Y0298D01*
X032299Y0299D01*
X032399D01*
X032799Y0295D02*
X032999D01*
X033099Y0296D01*
Y0298D01*
X032999Y0299D01*
X032799D01*
X032699Y0298D01*
Y0296D01*
X032799Y0295D01*
X033899Y0301D02*
Y0295D01*
Y0297D01*
X034299Y0301D01*
X033999Y0298D01*
X034299Y0295D01*
X034598D02*
Y03D01*
Y0298D01*
X034498D01*
X034698D01*
X034598D01*
Y03D01*
X034698Y0301D01*
X035098Y03D02*
Y0299D01*
X034998D01*
X035198D01*
X035098D01*
Y0296D01*
X035198Y0295D01*
X035498D02*
Y0296D01*
X035598D01*
Y0295D01*
X035498D01*
X03025Y0292D02*
X02985D01*
Y0286D01*
X03025D01*
X02985Y0289D02*
X03005D01*
X03055Y0291D02*
Y029D01*
X03045D01*
X03065D01*
X03055D01*
Y0287D01*
X03065Y0286D01*
X03095Y0292D02*
Y0286D01*
Y0289D01*
X03105Y029D01*
X03125D01*
X03135Y0289D01*
Y0286D01*
X031849D02*
X031649D01*
X031549Y0287D01*
Y0289D01*
X031649Y029D01*
X031849D01*
X031949Y0289D01*
Y0288D01*
X031549D01*
X032149Y029D02*
Y0286D01*
Y0288D01*
X032249Y0289D01*
X032349Y029D01*
X032449D01*
X032749Y0292D02*
X032949D01*
X032849D01*
Y0286D01*
X032749D01*
X032949D01*
X033549Y0292D02*
X033349D01*
X033249Y0291D01*
Y0287D01*
X033349Y0286D01*
X033549D01*
X033649Y0287D01*
Y0291D01*
X033549Y0292D01*
X033849Y029D02*
X034049Y0286D01*
X034249Y029D01*
X034449Y0291D02*
X034548Y0292D01*
X034748D01*
X034848Y0291D01*
Y029D01*
X034748Y0289D01*
X034648D01*
X034748D01*
X034848Y0288D01*
Y0287D01*
X034748Y0286D01*
X034548D01*
X034449Y0287D01*
X035048Y0285D02*
X035448D01*
X035648Y0286D02*
X035848D01*
X035748D01*
Y0292D01*
X035648Y0291D01*
X02845Y03155D02*
X02805D01*
Y03095D01*
X02845D01*
X02805Y03125D02*
X02825D01*
X02875Y03145D02*
Y03135D01*
X02865D01*
X02885D01*
X02875D01*
Y03105D01*
X02885Y03095D01*
X02915Y03155D02*
Y03095D01*
Y03125D01*
X02925Y03135D01*
X02945D01*
X02955Y03125D01*
Y03095D01*
X030049D02*
X029849D01*
X029749Y03105D01*
Y03125D01*
X029849Y03135D01*
X030049D01*
X030149Y03125D01*
Y03115D01*
X029749D01*
X030349Y03135D02*
Y03095D01*
Y03115D01*
X030449Y03125D01*
X030549Y03135D01*
X030649D01*
X030949Y03095D02*
Y03135D01*
X031249D01*
X031349Y03125D01*
Y03095D01*
X031849D02*
X031649D01*
X031549Y03105D01*
Y03125D01*
X031649Y03135D01*
X031849D01*
X031949Y03125D01*
Y03115D01*
X031549D01*
X032249Y03145D02*
Y03135D01*
X032149D01*
X032349D01*
X032249D01*
Y03105D01*
X032349Y03095D01*
X0258Y022D02*
Y0216D01*
X0261D01*
X026Y0218D01*
Y0219D01*
X0261Y022D01*
X0263D01*
X0264Y0219D01*
Y0217D01*
X0263Y0216D01*
X0258Y0222D02*
X0262D01*
X0264Y0224D01*
X0262Y0226D01*
X0258D01*
Y023399D02*
Y023599D01*
Y023499D01*
X0264D01*
Y023399D01*
Y023599D01*
Y023899D02*
X0258D01*
X0264Y024299D01*
X0258D01*
X06315Y034806D02*
X06255D01*
Y035105D01*
X06265Y035205D01*
X06285D01*
X06295Y035105D01*
Y034806D01*
X06275Y035505D02*
Y035705D01*
X06285Y035805D01*
X06315D01*
Y035505D01*
X06305Y035405D01*
X06295Y035505D01*
Y035805D01*
X06315Y036005D02*
X06275D01*
Y036305D01*
X06285Y036405D01*
X06315D01*
X06265Y037005D02*
X06255Y036905D01*
Y036705D01*
X06265Y036605D01*
X06305D01*
X06315Y036705D01*
Y036905D01*
X06305Y037005D01*
X06315Y037305D02*
Y037505D01*
X06305Y037605D01*
X06285D01*
X06275Y037505D01*
Y037305D01*
X06285Y037205D01*
X06305D01*
X06315Y037305D01*
Y037805D02*
X06275D01*
Y038104D01*
X06285Y038204D01*
X06315D01*
X06045Y01775D02*
Y01735D01*
X06105D01*
Y01775D01*
X06075Y01735D02*
Y01755D01*
X06065Y01795D02*
X06105Y01835D01*
X06085Y01815D01*
X06065Y01835D01*
X06105Y01795D01*
X06055Y01865D02*
X06065D01*
Y01855D01*
Y01875D01*
Y01865D01*
X06095D01*
X06105Y01875D01*
Y019049D02*
X06095D01*
Y019149D01*
X06105D01*
Y019049D01*
X0617Y0222D02*
X0619D01*
X0618D01*
Y0216D01*
X0617D01*
X0619D01*
X0622D02*
Y0222D01*
X0625D01*
X0626Y0221D01*
Y0219D01*
X0625Y0218D01*
X0622D01*
X0624D02*
X0626Y0216D01*
D63*
X026736Y032702D02*
G03*
X026736Y032702I-000118J0D01*
G01*
X03965Y028975D02*
G03*
X03965Y030825I0J000925D01*
G01*
X03715D02*
G03*
X03715Y028975I0J-000925D01*
G01*
X035525Y02225D02*
G03*
X033675Y02225I-000925J0D01*
G01*
Y01975D02*
G03*
X035525Y01975I000925J0D01*
G01*
X026146Y034434D02*
X026854D01*
X026146Y032466D02*
X026854D01*
X026146D02*
Y034434D01*
X026854Y032466D02*
Y034434D01*
X051166Y035683D02*
X052819D01*
X051166Y034265D02*
X052819D01*
Y035683D01*
X051166Y034265D02*
Y035683D01*
X047685Y035809D02*
Y03955D01*
X055126D01*
X047685Y035809D02*
X055126D01*
Y03955D01*
X031924Y019427D02*
X032476D01*
X031974Y018706D02*
Y018785D01*
X032426Y018706D02*
Y018785D01*
X046954Y035809D02*
Y03955D01*
X038135Y035809D02*
X046954D01*
X038135Y03955D02*
X046954D01*
X038135Y035809D02*
Y03955D01*
X01935Y021228D02*
X02246D01*
X024586D02*
X025098D01*
Y022134D01*
X01935Y021228D02*
Y024772D01*
X025098D01*
X025098Y023866D01*
X041132Y0132D02*
Y01694D01*
X02818Y0132D02*
X041132D01*
X02818Y01694D02*
X041132D01*
X02818Y0132D02*
Y01694D01*
X024435Y035809D02*
Y03955D01*
X037388D01*
X024435Y035809D02*
X037388D01*
Y03955D01*
X01935Y03157D02*
X023991D01*
X01935Y02533D02*
Y03157D01*
X025349D02*
X02775D01*
Y02533D02*
Y03157D01*
X025349Y02533D02*
X02775D01*
X01935D02*
X023991D01*
X041985Y0132D02*
Y016941D01*
X050804D01*
X041985Y0132D02*
X050804D01*
Y016941D01*
X04225Y0325D02*
Y0355D01*
X03725Y0325D02*
X04225D01*
X03725Y0355D02*
X04225D01*
X03725Y0325D02*
Y0355D01*
X0424Y0325D02*
Y0355D01*
X0474D01*
X0424Y0325D02*
X0474D01*
Y0355D01*
X026659Y014591D02*
Y015615D01*
X021541Y014591D02*
Y015615D01*
X026659Y018685D02*
Y019709D01*
X021541Y018685D02*
Y019709D01*
Y014591D02*
X026659D01*
X021541Y019709D02*
X026659D01*
X05455Y024789D02*
Y028411D01*
X04655Y024789D02*
Y028411D01*
Y024789D02*
X05455D01*
X04655Y028411D02*
X05455D01*
X043426Y023561D02*
Y023639D01*
X042974Y023561D02*
Y023639D01*
X037611Y019324D02*
X037689D01*
X037611Y019776D02*
X037689D01*
X028606Y029426D02*
X028685D01*
X028606Y028974D02*
X028685D01*
X028606Y030176D02*
X028685D01*
X028606Y029724D02*
X028685D01*
X032961Y023626D02*
X033039D01*
X032961Y023174D02*
X033039D01*
X028606Y027376D02*
X028685D01*
X028606Y026924D02*
X028685D01*
X028606Y028126D02*
X028685D01*
X028606Y027674D02*
X028685D01*
X053219Y023409D02*
X055581D01*
X053219Y021991D02*
X055581D01*
Y023153D02*
Y023409D01*
X053219Y021991D02*
Y022228D01*
X055581Y021991D02*
Y022228D01*
X053219Y023153D02*
Y023409D01*
X036621Y026579D02*
X041779D01*
Y021421D02*
Y026579D01*
X036621Y021421D02*
X041779D01*
X036621D02*
Y026579D01*
X048731Y019956D02*
X052668D01*
X048731Y019326D02*
X052668D01*
Y019956D01*
X048731Y019326D02*
Y019956D01*
X03715Y028975D02*
X03965D01*
X03715Y030825D02*
X03965D01*
X035525Y01975D02*
Y02225D01*
X033675Y01975D02*
Y02225D01*
X034846Y03212D02*
Y03338D01*
X036854Y03212D02*
Y03338D01*
X034846Y03212D02*
X036854D01*
X034846Y03338D02*
X036854D01*
X03562Y033546D02*
Y035554D01*
X03688Y033546D02*
Y035554D01*
X03562D02*
X03688D01*
X03562Y033546D02*
X03688D01*
X043296Y03107D02*
Y03233D01*
X045304Y03107D02*
Y03233D01*
X043296Y03107D02*
X045304D01*
X043296Y03233D02*
X045304D01*
X045496D02*
X047504D01*
X045496Y03107D02*
X047504D01*
Y03233D01*
X045496Y03107D02*
Y03233D01*
X042811Y018086D02*
X042889D01*
X042811Y017614D02*
X042889D01*
X043164Y019311D02*
Y019389D01*
X043636Y019311D02*
Y019389D01*
X042214Y019311D02*
Y019389D01*
X042686Y019311D02*
Y019389D01*
X05315Y01725D02*
X06015D01*
Y01825D01*
X05315D02*
X06015D01*
X05315Y01725D02*
Y01825D01*
X054056Y034074D02*
X054981D01*
X050808D02*
X052973D01*
X049076D02*
X049725D01*
X054056Y02872D02*
X054981D01*
X050808D02*
X052973D01*
X049076D02*
X049725D01*
X049076D02*
Y034074D01*
X054981Y02872D02*
Y034074D01*
X044082Y019965D02*
X048018D01*
X044082Y019335D02*
X048018D01*
Y019965D01*
X044082Y019335D02*
Y019965D01*
X0558Y03955D02*
X0618D01*
Y036718D02*
Y03955D01*
Y032424D02*
Y036177D01*
X0558Y032424D02*
X0618D01*
X0558D02*
Y036177D01*
Y036718D02*
Y03955D01*
X058046Y032178D02*
X060054D01*
X058046Y030918D02*
X060054D01*
Y032178D01*
X058046Y030918D02*
Y032178D01*
X055796D02*
X057804D01*
X055796Y030918D02*
X057804D01*
Y032178D01*
X055796Y030918D02*
Y032178D01*
X051624Y0132D02*
Y016941D01*
X060443D01*
X051624Y0132D02*
X060443D01*
Y016941D01*
D64*
X063095Y018466D02*
G03*
X063095Y020434I-000394J000984D01*
G01*
X063398Y0264D02*
G03*
X063398Y0264I-004232J0D01*
G01*
X063095Y020434D02*
Y021418D01*
Y017481D02*
Y018466D01*
X06152Y021418D02*
X063095D01*
X06152Y017481D02*
X063095D01*
X06152D02*
Y021418D01*
X057315Y0264D02*
X057053D01*
X057184Y026269D02*
Y026531D01*
D65*
X048599Y024533D02*
G03*
X048599Y024533I-000049J0D01*
G01*
X041887Y027228D02*
G03*
X041887Y027228I-000049J0D01*
G01*
X052854Y020606D02*
G03*
X052854Y020606I-000049J0D01*
G01*
X048204Y020615D02*
G03*
X048204Y020615I-000049J0D01*
G01*
D66*
X041503Y026185D02*
G03*
X041503Y026185I-000118J0D01*
G01*
D67*
X06187Y0312D02*
X06341D01*
D68*
X06038Y030916D02*
X060555Y031219D01*
X060706Y031131D01*
X060728Y031051D01*
X060669Y03095D01*
X06059Y030929D01*
X060438Y031017D01*
X060539Y030958D02*
X060582Y030799D01*
X060858Y031044D02*
X060885Y030624D01*
X06106Y030927D02*
X060683Y030741D01*
X061073Y030717D02*
X061276Y030601D01*
X061233Y03076D02*
X061116Y030558D01*
X061767Y030519D02*
X061969Y030402D01*
X061868Y03046D01*
X061693Y030157D01*
X06207Y030344D02*
X062097Y029924D01*
X062272Y030227D02*
X061895Y030041D01*
X062286Y030017D02*
X062488Y029901D01*
X062445Y03006D02*
X062328Y029858D01*
X05535Y029396D02*
X055175Y029699D01*
X055327Y029786D01*
X055406Y029765D01*
X055465Y029664D01*
X055443Y029584D01*
X055292Y029497D01*
X055393Y029555D02*
X055552Y029512D01*
X055478Y029873D02*
X055855Y029687D01*
X05568Y02999D02*
X055653Y02957D01*
X055869Y029897D02*
X056071Y030014D01*
X056387Y030398D02*
X056589Y030515D01*
X056488Y030457D01*
X056663Y030154D01*
X05669Y030573D02*
X057067Y030387D01*
X056892Y03069D02*
X056865Y03027D01*
X057081Y030597D02*
X057283Y030713D01*
X05555Y032506D02*
X055317D01*
X0552Y032622D01*
X055317Y032739D01*
X05555D01*
X055375D01*
Y032506D01*
X055608Y032855D02*
Y033089D01*
X0552Y03338D02*
Y033264D01*
X055258Y033205D01*
X055492D01*
X05555Y033264D01*
Y03338D01*
X055492Y033439D01*
X055258D01*
X0552Y03338D01*
Y033555D02*
X055492D01*
X05555Y033613D01*
Y03373D01*
X055492Y033788D01*
X0552D01*
Y033905D02*
Y034138D01*
Y034022D01*
X05555D01*
Y034255D02*
X055317Y034488D01*
X0552Y034605D02*
Y034838D01*
Y034721D01*
X05555D01*
X0552Y034955D02*
X05555Y035188D01*
X0552D02*
X05555Y034955D01*
X055375Y035305D02*
Y035538D01*
X06235Y032406D02*
X062117D01*
X062Y032522D01*
X062117Y032639D01*
X06235D01*
X062175D01*
Y032406D01*
X062408Y032755D02*
Y032989D01*
X062Y033105D02*
Y033222D01*
Y033164D01*
X06235D01*
Y033105D01*
Y033222D01*
Y033397D02*
X062D01*
X06235Y03363D01*
X062D01*
X06235Y033747D02*
X062117Y03398D01*
X062Y034097D02*
Y03433D01*
Y034213D01*
X06235D01*
X062Y034447D02*
X06235Y03468D01*
X062D02*
X06235Y034447D01*
X062175Y034796D02*
Y03503D01*
X062058Y034913D02*
X062292D01*
X029Y01735D02*
X02895Y0173D01*
Y0172D01*
X029Y01715D01*
X0292D01*
X02925Y0172D01*
Y0173D01*
X0292Y01735D01*
X02895Y0176D02*
Y0175D01*
X029Y01745D01*
X0292D01*
X02925Y0175D01*
Y0176D01*
X0292Y01765D01*
X029D01*
X02895Y0176D01*
X02925Y01775D02*
X02895D01*
X02905Y01785D01*
X02895Y01795D01*
X02925D01*
X029Y01855D02*
X02895Y0185D01*
Y0184D01*
X029Y01835D01*
X0292D01*
X02925Y0184D01*
Y0185D01*
X0292Y01855D01*
X0291D01*
Y01845D01*
X02925Y01865D02*
X02895D01*
X02925Y018849D01*
X02895D01*
Y018949D02*
X02925D01*
Y019099D01*
X0292Y019149D01*
X029D01*
X02895Y019099D01*
Y018949D01*
X0304Y01715D02*
X0307D01*
Y0173D01*
X03065Y01735D01*
X0306D01*
X03055Y0173D01*
Y01715D01*
Y0173D01*
X0305Y01735D01*
X03045D01*
X0304Y0173D01*
Y01715D01*
Y01745D02*
Y01765D01*
Y01755D01*
X0307D01*
Y01775D02*
X0304D01*
X0307Y01795D01*
X0304D01*
X03045Y01805D02*
X0304Y0181D01*
Y0182D01*
X03045Y01825D01*
X03065D01*
X0307Y0182D01*
Y0181D01*
X03065Y01805D01*
X03045D01*
X031778Y01715D02*
X032078D01*
Y0173D01*
X032028Y01735D01*
X031978D01*
X031928Y0173D01*
Y01715D01*
Y0173D01*
X031878Y01735D01*
X031828D01*
X031778Y0173D01*
Y01715D01*
Y01745D02*
Y01765D01*
Y01755D01*
X032078D01*
Y01775D02*
X031778D01*
X032078Y01795D01*
X031778D01*
X032078Y01805D02*
Y01815D01*
Y0181D01*
X031778D01*
X031828Y01805D01*
X033156Y01715D02*
X033456D01*
Y0173D01*
X033406Y01735D01*
X033356D01*
X033306Y0173D01*
Y01715D01*
Y0173D01*
X033256Y01735D01*
X033206D01*
X033156Y0173D01*
Y01715D01*
Y01745D02*
Y01765D01*
Y01755D01*
X033456D01*
Y01775D02*
X033156D01*
X033456Y01795D01*
X033156D01*
X033456Y01825D02*
Y01805D01*
X033256Y01825D01*
X033206D01*
X033156Y0182D01*
Y0181D01*
X033206Y01805D01*
X034534Y01715D02*
X034834D01*
Y0173D01*
X034784Y01735D01*
X034734D01*
X034684Y0173D01*
Y01715D01*
Y0173D01*
X034634Y01735D01*
X034584D01*
X034534Y0173D01*
Y01715D01*
Y01745D02*
Y01765D01*
Y01755D01*
X034834D01*
Y01775D02*
X034534D01*
X034834Y01795D01*
X034534D01*
X034584Y01805D02*
X034534Y0181D01*
Y0182D01*
X034584Y01825D01*
X034634D01*
X034684Y0182D01*
Y01815D01*
Y0182D01*
X034734Y01825D01*
X034784D01*
X034834Y0182D01*
Y0181D01*
X034784Y01805D01*
X035912Y01715D02*
X036212D01*
Y0173D01*
X036162Y01735D01*
X036112D01*
X036062Y0173D01*
Y01715D01*
Y0173D01*
X036012Y01735D01*
X035962D01*
X035912Y0173D01*
Y01715D01*
Y01745D02*
Y01765D01*
Y01755D01*
X036212D01*
Y01775D02*
X035912D01*
X036212Y01795D01*
X035912D01*
X036212Y0182D02*
X035912D01*
X036062Y01805D01*
Y01825D01*
X03729Y01715D02*
X03759D01*
Y0173D01*
X03754Y01735D01*
X03749D01*
X03744Y0173D01*
Y01715D01*
Y0173D01*
X03739Y01735D01*
X03734D01*
X03729Y0173D01*
Y01715D01*
Y01745D02*
Y01765D01*
Y01755D01*
X03759D01*
Y01775D02*
X03729D01*
X03759Y01795D01*
X03729D01*
Y01825D02*
Y01805D01*
X03744D01*
X03739Y01815D01*
Y0182D01*
X03744Y01825D01*
X03754D01*
X03759Y0182D01*
Y0181D01*
X03754Y01805D01*
X038668Y01715D02*
X038968D01*
Y0173D01*
X038918Y01735D01*
X038868D01*
X038818Y0173D01*
Y01715D01*
Y0173D01*
X038768Y01735D01*
X038718D01*
X038668Y0173D01*
Y01715D01*
Y01745D02*
Y01765D01*
Y01755D01*
X038968D01*
Y01775D02*
X038668D01*
X038968Y01795D01*
X038668D01*
Y01825D02*
X038718Y01815D01*
X038818Y01805D01*
X038918D01*
X038968Y0181D01*
Y0182D01*
X038918Y01825D01*
X038868D01*
X038818Y0182D01*
Y01805D01*
X039978Y01715D02*
X040278D01*
Y0173D01*
X040228Y01735D01*
X040178D01*
X040128Y0173D01*
Y01715D01*
Y0173D01*
X040078Y01735D01*
X040028D01*
X039978Y0173D01*
Y01715D01*
Y01745D02*
Y01765D01*
Y01755D01*
X040278D01*
Y01775D02*
X039978D01*
X040278Y01795D01*
X039978D01*
Y01805D02*
Y01825D01*
X040028D01*
X040228Y01805D01*
X040278D01*
X042501Y017298D02*
X042542Y01734D01*
X042626D01*
X042667Y017298D01*
Y017131D01*
X042626Y01709D01*
X042542D01*
X042501Y017131D01*
Y017298D01*
X042751Y017048D02*
X042917D01*
X043001Y01709D02*
Y01734D01*
X043126D01*
X043167Y017298D01*
Y017215D01*
X043126Y017173D01*
X043001D01*
X043084D02*
X043167Y01709D01*
X043251Y01734D02*
X043417Y01709D01*
Y01734D02*
X043251Y01709D01*
X043879Y017298D02*
X04392Y01734D01*
X044004D01*
X044045Y017298D01*
Y017131D01*
X044004Y01709D01*
X04392D01*
X043879Y017131D01*
Y017298D01*
X044129Y017048D02*
X044295D01*
X044379Y01734D02*
X044545D01*
X044462D01*
Y01709D01*
X044628Y01734D02*
X044795Y01709D01*
Y01734D02*
X044628Y01709D01*
X045423Y017298D02*
X045382Y01734D01*
X045298D01*
X045257Y017298D01*
Y017131D01*
X045298Y01709D01*
X045382D01*
X045423Y017131D01*
Y017215D01*
X04534D01*
X045507Y01709D02*
Y01734D01*
X045673Y01709D01*
Y01734D01*
X045757D02*
Y01709D01*
X045881D01*
X045923Y017131D01*
Y017298D01*
X045881Y01734D01*
X045757D01*
X046635Y01709D02*
X046718D01*
X046676D01*
Y01734D01*
X046635Y017298D01*
X046843Y017048D02*
X04701D01*
X047093Y01709D02*
Y01734D01*
X047218D01*
X047259Y017298D01*
Y017215D01*
X047218Y017173D01*
X047093D01*
X047176D02*
X047259Y01709D01*
X047343Y01734D02*
X047509Y01709D01*
Y01734D02*
X047343Y01709D01*
X048013D02*
X048096D01*
X048054D01*
Y01734D01*
X048013Y017298D01*
X048221Y017048D02*
X048387D01*
X048471Y01734D02*
X048637D01*
X048554D01*
Y01709D01*
X048721Y01734D02*
X048887Y01709D01*
Y01734D02*
X048721Y01709D01*
X049557Y017298D02*
X049516Y01734D01*
X049432D01*
X049391Y017298D01*
Y017131D01*
X049432Y01709D01*
X049516D01*
X049557Y017131D01*
Y017215D01*
X049474D01*
X04964Y01709D02*
Y01734D01*
X049807Y01709D01*
Y01734D01*
X04989D02*
Y01709D01*
X050015D01*
X050057Y017131D01*
Y017298D01*
X050015Y01734D01*
X04989D01*
X0541Y02178D02*
X05375D01*
Y021605D01*
X053808Y021547D01*
X053867D01*
X053925Y021605D01*
Y02178D01*
Y021605D01*
X053983Y021547D01*
X054042D01*
X0541Y021605D01*
Y02178D01*
X053925Y02143D02*
Y021197D01*
X05375Y02108D02*
X053983Y020847D01*
X0541Y02073D02*
X053867D01*
X05375Y020614D01*
X053867Y020497D01*
X0541D01*
X054042Y020147D02*
X0541Y020206D01*
Y020322D01*
X054042Y02038D01*
X053808D01*
X05375Y020322D01*
Y020206D01*
X053808Y020147D01*
X054042Y019797D02*
X0541Y019856D01*
Y019972D01*
X054042Y020031D01*
X053808D01*
X05375Y019972D01*
Y019856D01*
X053808Y019797D01*
X0541Y019447D02*
Y019681D01*
X053925D01*
X053983Y019564D01*
Y019506D01*
X053925Y019447D01*
X053808D01*
X05375Y019506D01*
Y019622D01*
X053808Y019681D01*
X0541Y019331D02*
X053867D01*
X05375Y019214D01*
X053867Y019098D01*
X0541D01*
X055Y02178D02*
X05465D01*
Y021605D01*
X054708Y021547D01*
X054767D01*
X054825Y021605D01*
Y02178D01*
Y021605D01*
X054883Y021547D01*
X054942D01*
X055Y021605D01*
Y02178D01*
X054825Y02143D02*
Y021197D01*
X054942Y021313D02*
X054708D01*
X05465Y02108D02*
X054883Y020847D01*
X055Y02073D02*
X054708D01*
X05465Y020672D01*
Y020555D01*
X054708Y020497D01*
X055D01*
X054942Y02038D02*
X055Y020322D01*
Y020206D01*
X054942Y020147D01*
X054708D01*
X05465Y020206D01*
Y020322D01*
X054708Y02038D01*
X054942D01*
X05465Y020031D02*
X055D01*
Y019856D01*
X054942Y019797D01*
X054825D01*
X054767Y019856D01*
Y020031D01*
Y019914D02*
X05465Y019797D01*
X055Y019681D02*
X05465Y019447D01*
X055D02*
X05465Y019681D01*
X05555Y02178D02*
X055783D01*
X0559Y021663D01*
X055783Y021547D01*
X05555D01*
X055725D01*
Y02178D01*
Y02143D02*
Y021197D01*
X05555Y02108D02*
X055783Y020847D01*
X0559Y02073D02*
X055608D01*
X05555Y020672D01*
Y020555D01*
X055608Y020497D01*
X0559D01*
X055842Y02038D02*
X0559Y020322D01*
Y020206D01*
X055842Y020147D01*
X055608D01*
X05555Y020206D01*
Y020322D01*
X055608Y02038D01*
X055842D01*
X0559Y020031D02*
Y019797D01*
Y019914D01*
X05555D01*
X0559Y019681D02*
X05555Y019447D01*
X0559D02*
X05555Y019681D01*
X0565Y02173D02*
X056733D01*
X05685Y021613D01*
X056733Y021497D01*
X0565D01*
X056675D01*
Y02173D01*
Y02138D02*
Y021147D01*
X056792Y021263D02*
X056558D01*
X0565Y02103D02*
X056733Y020797D01*
X056792Y020447D02*
X05685Y020505D01*
Y020622D01*
X056792Y02068D01*
X056733D01*
X056675Y020622D01*
Y020505D01*
X056617Y020447D01*
X056558D01*
X0565Y020505D01*
Y020622D01*
X056558Y02068D01*
X056792Y020097D02*
X05685Y020156D01*
Y020272D01*
X056792Y02033D01*
X056558D01*
X0565Y020272D01*
Y020156D01*
X056558Y020097D01*
X05685Y019981D02*
X0565D01*
Y019747D01*
X05745Y02173D02*
X057683D01*
X0578Y021613D01*
X057683Y021497D01*
X05745D01*
X057625D01*
Y02173D01*
X057392Y02138D02*
Y021147D01*
X0578Y020855D02*
Y020972D01*
X057742Y02103D01*
X057508D01*
X05745Y020972D01*
Y020855D01*
X057508Y020797D01*
X057742D01*
X0578Y020855D01*
Y02068D02*
X057508D01*
X05745Y020622D01*
Y020505D01*
X057508Y020447D01*
X0578D01*
Y02033D02*
Y020097D01*
Y020214D01*
X05745D01*
Y019981D02*
X057683Y019747D01*
X057742Y019397D02*
X0578Y019456D01*
Y019572D01*
X057742Y019631D01*
X057683D01*
X057625Y019572D01*
Y019456D01*
X057567Y019397D01*
X057508D01*
X05745Y019456D01*
Y019572D01*
X057508Y019631D01*
X0578Y019281D02*
X05745D01*
Y019106D01*
X057508Y019048D01*
X057742D01*
X0578Y019106D01*
Y019281D01*
X05745Y018931D02*
X057683D01*
X0578Y018814D01*
X057683Y018698D01*
X05745D01*
X057625D01*
Y018931D01*
X0584Y02173D02*
X058633D01*
X05875Y021613D01*
X058633Y021497D01*
X0584D01*
X058575D01*
Y02173D01*
X058342Y02138D02*
Y021147D01*
X05875Y02103D02*
Y020914D01*
Y020972D01*
X0584D01*
Y02103D01*
Y020914D01*
Y020739D02*
X05875D01*
X0584Y020505D01*
X05875D01*
X0584Y020389D02*
X058633Y020156D01*
X058692Y019806D02*
X05875Y019864D01*
Y019981D01*
X058692Y020039D01*
X058458D01*
X0584Y019981D01*
Y019864D01*
X058458Y019806D01*
X058575D01*
Y019922D01*
X0584Y019689D02*
X05875D01*
X0584Y019456D01*
X05875D01*
Y019339D02*
X0584D01*
Y019164D01*
X058458Y019106D01*
X058692D01*
X05875Y019164D01*
Y019339D01*
X0324Y03525D02*
X03245Y0353D01*
Y0354D01*
X0324Y03545D01*
X0322D01*
X03215Y0354D01*
Y0353D01*
X0322Y03525D01*
X03245Y035D02*
Y0351D01*
X0324Y03515D01*
X0322D01*
X03215Y0351D01*
Y035D01*
X0322Y03495D01*
X0324D01*
X03245Y035D01*
X03215Y03485D02*
X03245D01*
X03235Y03475D01*
X03245Y03465D01*
X03215D01*
X03245Y03405D02*
Y03425D01*
X0323D01*
X03235Y03415D01*
Y0341D01*
X0323Y03405D01*
X0322D01*
X03215Y0341D01*
Y0342D01*
X0322Y03425D01*
X03245Y03395D02*
X03225D01*
X03215Y033851D01*
X03225Y033751D01*
X03245D01*
X032Y03545D02*
X0317D01*
Y03525D01*
X032Y03495D02*
Y03515D01*
X0317D01*
Y03495D01*
X03185Y03515D02*
Y03505D01*
X032Y03485D02*
X0317D01*
Y0347D01*
X03175Y03465D01*
X03195D01*
X032Y0347D01*
Y03485D01*
Y03455D02*
Y03435D01*
X03195D01*
X03175Y03455D01*
X0317D01*
X03155Y03545D02*
X03125D01*
Y03525D01*
X03155Y03495D02*
Y03515D01*
X03125D01*
Y03495D01*
X0314Y03515D02*
Y03505D01*
X03155Y03485D02*
X03125D01*
Y0347D01*
X0313Y03465D01*
X0315D01*
X03155Y0347D01*
Y03485D01*
Y03435D02*
X0315Y03445D01*
X0314Y03455D01*
X0313D01*
X03125Y0345D01*
Y0344D01*
X0313Y03435D01*
X03135D01*
X0314Y0344D01*
Y03455D01*
X0311Y03545D02*
X0308D01*
Y03525D01*
X0311Y03495D02*
Y03515D01*
X0308D01*
Y03495D01*
X03095Y03515D02*
Y03505D01*
X0311Y03485D02*
X0308D01*
Y0347D01*
X03085Y03465D01*
X03105D01*
X0311Y0347D01*
Y03485D01*
Y03435D02*
Y03455D01*
X03095D01*
X031Y03445D01*
Y0344D01*
X03095Y03435D01*
X03085D01*
X0308Y0344D01*
Y0345D01*
X03085Y03455D01*
X03065Y03545D02*
X03035D01*
Y03525D01*
X03065Y03495D02*
Y03515D01*
X03035D01*
Y03495D01*
X0305Y03515D02*
Y03505D01*
X03065Y03485D02*
X03035D01*
Y0347D01*
X0304Y03465D01*
X0306D01*
X03065Y0347D01*
Y03485D01*
X03035Y0344D02*
X03065D01*
X0305Y03455D01*
Y03435D01*
X0302Y03545D02*
X0299D01*
Y03525D01*
X0302Y03495D02*
Y03515D01*
X0299D01*
Y03495D01*
X03005Y03515D02*
Y03505D01*
X0302Y03485D02*
X0299D01*
Y0347D01*
X02995Y03465D01*
X03015D01*
X0302Y0347D01*
Y03485D01*
X03015Y03455D02*
X0302Y0345D01*
Y0344D01*
X03015Y03435D01*
X0301D01*
X03005Y0344D01*
Y03445D01*
Y0344D01*
X03Y03435D01*
X02995D01*
X0299Y0344D01*
Y0345D01*
X02995Y03455D01*
X0297Y03545D02*
X0294D01*
Y03525D01*
X0297Y03495D02*
Y03515D01*
X0294D01*
Y03495D01*
X02955Y03515D02*
Y03505D01*
X0297Y03485D02*
X0294D01*
Y0347D01*
X02945Y03465D01*
X02965D01*
X0297Y0347D01*
Y03485D01*
X0294Y03435D02*
Y03455D01*
X0296Y03435D01*
X02965D01*
X0297Y0344D01*
Y0345D01*
X02965Y03455D01*
X0292Y03545D02*
X0289D01*
Y03525D01*
X0292Y03495D02*
Y03515D01*
X0289D01*
Y03495D01*
X02905Y03515D02*
Y03505D01*
X0292Y03485D02*
X0289D01*
Y0347D01*
X02895Y03465D01*
X02915D01*
X0292Y0347D01*
Y03485D01*
X0289Y03455D02*
Y03445D01*
Y0345D01*
X0292D01*
X02915Y03455D01*
X02865Y03545D02*
X02835D01*
Y03525D01*
X02865Y03495D02*
Y03515D01*
X02835D01*
Y03495D01*
X0285Y03515D02*
Y03505D01*
X02865Y03485D02*
X02835D01*
Y0347D01*
X0284Y03465D01*
X0286D01*
X02865Y0347D01*
Y03485D01*
X0286Y03455D02*
X02865Y0345D01*
Y0344D01*
X0286Y03435D01*
X0284D01*
X02835Y0344D01*
Y0345D01*
X0284Y03455D01*
X0286D01*
X04825Y03545D02*
X0483Y0355D01*
Y0356D01*
X04825Y03565D01*
X04805D01*
X048Y0356D01*
Y0355D01*
X04805Y03545D01*
X0483Y0352D02*
Y0353D01*
X04825Y03535D01*
X04805D01*
X048Y0353D01*
Y0352D01*
X04805Y03515D01*
X04825D01*
X0483Y0352D01*
X048Y03505D02*
X0483D01*
X0482Y03495D01*
X0483Y03485D01*
X048D01*
X0483Y03425D02*
Y03445D01*
X04815D01*
X0482Y03435D01*
Y0343D01*
X04815Y03425D01*
X04805D01*
X048Y0343D01*
Y0344D01*
X04805Y03445D01*
X0483Y03415D02*
X0481D01*
X048Y034051D01*
X0481Y033951D01*
X0483D01*
X0489Y03565D02*
Y035567D01*
Y035608D01*
X04865D01*
Y03565D01*
Y035567D01*
Y035442D02*
X0489D01*
Y035317D01*
X048858Y035275D01*
X048775D01*
X048733Y035317D01*
Y035442D01*
Y035358D02*
X04865Y035275D01*
X0489Y034817D02*
Y0349D01*
X048858Y034942D01*
X048692D01*
X04865Y0349D01*
Y034817D01*
X048692Y034775D01*
X048858D01*
X0489Y034817D01*
Y034692D02*
X048692D01*
X04865Y03465D01*
Y034567D01*
X048692Y034525D01*
X0489D01*
Y034442D02*
Y034275D01*
Y034359D01*
X04865D01*
X04955Y03565D02*
Y035567D01*
Y035608D01*
X0493D01*
Y03565D01*
Y035567D01*
Y035442D02*
X04955D01*
Y035317D01*
X049508Y035275D01*
X049425D01*
X049383Y035317D01*
Y035442D01*
Y035358D02*
X0493Y035275D01*
X04955Y034817D02*
Y0349D01*
X049508Y034942D01*
X049342D01*
X0493Y0349D01*
Y034817D01*
X049342Y034775D01*
X049508D01*
X04955Y034817D01*
Y034692D02*
X049342D01*
X0493Y03465D01*
Y034567D01*
X049342Y034525D01*
X04955D01*
Y034442D02*
Y034275D01*
Y034359D01*
X0493D01*
X05425Y03565D02*
Y035567D01*
Y035608D01*
X054D01*
Y03565D01*
Y035567D01*
Y035442D02*
X05425D01*
Y035317D01*
X054208Y035275D01*
X054125D01*
X054083Y035317D01*
Y035442D01*
Y035358D02*
X054Y035275D01*
X05425Y034817D02*
Y0349D01*
X054208Y034942D01*
X054042D01*
X054Y0349D01*
Y034817D01*
X054042Y034775D01*
X054208D01*
X05425Y034817D01*
Y034692D02*
X054042D01*
X054Y03465D01*
Y034567D01*
X054042Y034525D01*
X05425D01*
Y034442D02*
Y034275D01*
Y034359D01*
X054D01*
X0546Y03565D02*
Y035567D01*
Y035608D01*
X05435D01*
Y03565D01*
Y035567D01*
Y035442D02*
X0546D01*
Y035317D01*
X054558Y035275D01*
X054475D01*
X054433Y035317D01*
Y035442D01*
Y035358D02*
X05435Y035275D01*
X0546Y034817D02*
Y0349D01*
X054558Y034942D01*
X054392D01*
X05435Y0349D01*
Y034817D01*
X054392Y034775D01*
X054558D01*
X0546Y034817D01*
Y034692D02*
X054392D01*
X05435Y03465D01*
Y034567D01*
X054392Y034525D01*
X0546D01*
Y034442D02*
Y034275D01*
Y034359D01*
X05435D01*
X055Y03565D02*
Y035567D01*
Y035608D01*
X05475D01*
Y03565D01*
Y035567D01*
Y035442D02*
X055D01*
Y035317D01*
X054958Y035275D01*
X054875D01*
X054833Y035317D01*
Y035442D01*
Y035358D02*
X05475Y035275D01*
X055Y034817D02*
Y0349D01*
X054958Y034942D01*
X054792D01*
X05475Y0349D01*
Y034817D01*
X054792Y034775D01*
X054958D01*
X055Y034817D01*
Y034692D02*
X054792D01*
X05475Y03465D01*
Y034567D01*
X054792Y034525D01*
X055D01*
Y034442D02*
Y034275D01*
Y034359D01*
X05475D01*
X03735Y03235D02*
X0377D01*
X03735Y032117D01*
X0377D01*
X037642Y031767D02*
X0377Y031825D01*
Y031942D01*
X037642Y032D01*
X037408D01*
X03735Y031942D01*
Y031825D01*
X037408Y031767D01*
X0378Y03235D02*
X03815D01*
Y032175D01*
X038092Y032117D01*
X037975D01*
X037917Y032175D01*
Y03235D01*
Y032233D02*
X0378Y032117D01*
X03815Y031767D02*
Y032D01*
X0378D01*
Y031767D01*
X037975Y032D02*
Y031883D01*
X03815Y03165D02*
X0378D01*
Y031417D01*
X038092Y0313D02*
X03815Y031242D01*
Y031125D01*
X038092Y031067D01*
X037858D01*
X0378Y031125D01*
Y031242D01*
X037858Y0313D01*
X038092D01*
X0382Y03235D02*
X03855D01*
X0382Y032117D01*
X03855D01*
Y031825D02*
Y031942D01*
X038492Y032D01*
X038258D01*
X0382Y031942D01*
Y031825D01*
X038258Y031767D01*
X038492D01*
X03855Y031825D01*
X0418Y03225D02*
X04215D01*
X0418Y032017D01*
X04215D01*
X042092Y031667D02*
X04215Y031725D01*
Y031842D01*
X042092Y0319D01*
X041858D01*
X0418Y031842D01*
Y031725D01*
X041858Y031667D01*
X04225Y03225D02*
X0426D01*
Y032075D01*
X042542Y032017D01*
X042425D01*
X042367Y032075D01*
Y03225D01*
Y032133D02*
X04225Y032017D01*
X0426Y031667D02*
Y0319D01*
X04225D01*
Y031667D01*
X042425Y0319D02*
Y031783D01*
X0426Y03155D02*
X04225D01*
Y031317D01*
Y0312D02*
Y031084D01*
Y031142D01*
X0426D01*
X042542Y0312D01*
X0427Y03225D02*
X04305D01*
X0427Y032017D01*
X04305D01*
Y031725D02*
Y031842D01*
X042992Y0319D01*
X042758D01*
X0427Y031842D01*
Y031725D01*
X042758Y031667D01*
X042992D01*
X04305Y031725D01*
X02335Y035D02*
Y03475D01*
X0234Y0347D01*
X0235D01*
X02355Y03475D01*
Y035D01*
X02385Y03495D02*
X0238Y035D01*
X0237D01*
X02365Y03495D01*
Y0349D01*
X0237Y03485D01*
X0238D01*
X02385Y0348D01*
Y03475D01*
X0238Y0347D01*
X0237D01*
X02365Y03475D01*
X02415Y035D02*
X02395D01*
Y0347D01*
X02415D01*
X02395Y03485D02*
X02405D01*
X02425Y0347D02*
Y035D01*
X0244D01*
X02445Y03495D01*
Y03485D01*
X0244Y0348D01*
X02425D01*
X02435D02*
X02445Y0347D01*
X02455Y03465D02*
X02475D01*
X02485Y035D02*
Y0347D01*
X024999D01*
X025049Y03475D01*
Y0348D01*
X024999Y03485D01*
X02485D01*
X024999D01*
X025049Y0349D01*
Y03495D01*
X024999Y035D01*
X02485D01*
X025149D02*
X025349D01*
X025249D01*
Y0347D01*
X025449D02*
Y035D01*
X025649Y0347D01*
Y035D01*
X05275Y0236D02*
Y0239D01*
X0529D01*
X05295Y02385D01*
Y02375D01*
X0529Y0237D01*
X05275D01*
X05285D02*
X05295Y0236D01*
X05325Y02385D02*
X0532Y0239D01*
X0531D01*
X05305Y02385D01*
Y0238D01*
X0531Y02375D01*
X0532D01*
X05325Y0237D01*
Y02365D01*
X0532Y0236D01*
X0531D01*
X05305Y02365D01*
X05335Y0239D02*
X05355D01*
X05345D01*
Y0236D01*
X0354Y035267D02*
Y0355D01*
X035225D01*
X035283Y035383D01*
Y035325D01*
X035225Y035267D01*
X035108D01*
X03505Y035325D01*
Y035442D01*
X035108Y0355D01*
X0354Y03515D02*
X035167D01*
X03505Y035033D01*
X035167Y034917D01*
X0354D01*
X035225Y0348D02*
Y034567D01*
X03505Y03445D02*
X035225Y034275D01*
X0354Y03445D01*
X03505Y034159D02*
X0354D01*
X03505Y033926D01*
X0354D01*
Y033634D02*
Y033751D01*
X035342Y033809D01*
X035108D01*
X03505Y033751D01*
Y033634D01*
X035108Y033576D01*
X035342D01*
X0354Y033634D01*
X034833Y031892D02*
X034775Y03195D01*
X034658D01*
X0346Y031892D01*
Y031658D01*
X034658Y0316D01*
X034775D01*
X034833Y031658D01*
Y031775D01*
X034717D01*
X03495Y0316D02*
Y03195D01*
X035183Y0316D01*
Y03195D01*
X0353D02*
Y0316D01*
X035475D01*
X035533Y031658D01*
Y031892D01*
X035475Y03195D01*
X0353D01*
X03565Y031775D02*
X035883D01*
X036Y0316D02*
X036174Y031775D01*
X036Y03195D01*
X036291Y0316D02*
Y03195D01*
X036524Y0316D01*
Y03195D01*
X036874Y031892D02*
X036816Y03195D01*
X036699D01*
X036641Y031892D01*
Y031658D01*
X036699Y0316D01*
X036816D01*
X036874Y031658D01*
X043333Y030842D02*
X043275Y0309D01*
X043158D01*
X0431Y030842D01*
Y030608D01*
X043158Y03055D01*
X043275D01*
X043333Y030608D01*
Y030725D01*
X043217D01*
X04345Y03055D02*
Y0309D01*
X043683Y03055D01*
Y0309D01*
X0438D02*
Y03055D01*
X043975D01*
X044033Y030608D01*
Y030842D01*
X043975Y0309D01*
X0438D01*
X04415Y030725D02*
X044383D01*
X0445Y03055D02*
X044674Y030725D01*
X0445Y0309D01*
X044791Y03055D02*
Y0309D01*
X045024Y03055D01*
Y0309D01*
X045374Y030842D02*
X045316Y0309D01*
X045199D01*
X045141Y030842D01*
Y030608D01*
X045199Y03055D01*
X045316D01*
X045374Y030608D01*
X045783Y0309D02*
X04555D01*
Y030725D01*
X045667Y030783D01*
X045725D01*
X045783Y030725D01*
Y030608D01*
X045725Y03055D01*
X045608D01*
X04555Y030608D01*
X0459Y0309D02*
Y030667D01*
X046017Y03055D01*
X046133Y030667D01*
Y0309D01*
X04625Y030725D02*
X046483D01*
X0466Y03055D02*
X046775Y030725D01*
X0466Y0309D01*
X046891Y03055D02*
Y0309D01*
X047124Y03055D01*
Y0309D01*
X047416D02*
X047299D01*
X047241Y030842D01*
Y030608D01*
X047299Y03055D01*
X047416D01*
X047474Y030608D01*
Y030842D01*
X047416Y0309D01*
D69*
X056003Y01517D02*
X055937D01*
X05597D01*
Y015003D01*
X055937Y01497D01*
X055903D01*
X05587Y015003D01*
X05607Y015137D02*
X056103Y01517D01*
X05617D01*
X056203Y015137D01*
Y015103D01*
X05617Y01507D01*
X056203Y015037D01*
Y015003D01*
X05617Y01497D01*
X056103D01*
X05607Y015003D01*
Y015037D01*
X056103Y01507D01*
X05607Y015103D01*
Y015137D01*
X056103Y01507D02*
X05617D01*
X05667Y03165D02*
Y03145D01*
X056737Y031517D01*
X056803Y03145D01*
Y03165D01*
X05687Y03145D02*
X056937D01*
X056903D01*
Y03165D01*
X05687Y031617D01*
X05888Y03165D02*
Y03145D01*
X058947Y031517D01*
X059013Y03145D01*
Y03165D01*
X059213Y03145D02*
X05908D01*
X059213Y031583D01*
Y031617D01*
X05918Y03165D01*
X059113D01*
X05908Y031617D01*
X058763Y03609D02*
X058697D01*
X05873D01*
Y035923D01*
X058697Y03589D01*
X058663D01*
X05863Y035923D01*
X058963Y03609D02*
X058897Y036057D01*
X05883Y03599D01*
Y035923D01*
X058863Y03589D01*
X05893D01*
X058963Y035923D01*
Y035957D01*
X05893Y03599D01*
X05883D01*
X04589Y01975D02*
Y019583D01*
X045923Y01955D01*
X04599D01*
X046023Y019583D01*
Y01975D01*
X04609D02*
X046223D01*
Y019717D01*
X04609Y019583D01*
Y01955D01*
X051993Y0315D02*
X051927D01*
X05196D01*
Y031333D01*
X051927Y0313D01*
X051893D01*
X05186Y031333D01*
X05206Y031467D02*
X052093Y0315D01*
X05216D01*
X052193Y031467D01*
Y031433D01*
X05216Y0314D01*
X052127D01*
X05216D01*
X052193Y031367D01*
Y031333D01*
X05216Y0313D01*
X052093D01*
X05206Y031333D01*
X05648Y01765D02*
Y01785D01*
X05658D01*
X056613Y017817D01*
Y01775D01*
X05658Y017717D01*
X05648D01*
X056813Y01765D02*
X05668D01*
X056813Y017783D01*
Y017817D01*
X05678Y01785D01*
X056713D01*
X05668Y017817D01*
X042383Y019213D02*
X04235Y01918D01*
Y019113D01*
X042383Y01908D01*
X042517D01*
X04255Y019113D01*
Y01918D01*
X042517Y019213D01*
X04255Y019413D02*
Y01928D01*
X042417Y019413D01*
X042383D01*
X04235Y01938D01*
Y019313D01*
X042383Y01928D01*
X04235Y019613D02*
X042383Y019547D01*
X04245Y01948D01*
X042517D01*
X04255Y019513D01*
Y01958D01*
X042517Y019613D01*
X042483D01*
X04245Y01958D01*
Y01948D01*
X043333Y019213D02*
X0433Y01918D01*
Y019113D01*
X043333Y01908D01*
X043467D01*
X0435Y019113D01*
Y01918D01*
X043467Y019213D01*
X0435Y019413D02*
Y01928D01*
X043367Y019413D01*
X043333D01*
X0433Y01938D01*
Y019313D01*
X043333Y01928D01*
X0433Y019613D02*
Y01948D01*
X0434D01*
X043367Y019547D01*
Y01958D01*
X0434Y019613D01*
X043467D01*
X0435Y01958D01*
Y019513D01*
X043467Y01948D01*
X059033Y026467D02*
X059Y0265D01*
X058933D01*
X0589Y026467D01*
Y026333D01*
X058933Y0263D01*
X059D01*
X059033Y026333D01*
X059233Y0263D02*
X0591D01*
X059233Y026433D01*
Y026467D01*
X0592Y0265D01*
X059133D01*
X0591Y026467D01*
X0594Y0263D02*
Y0265D01*
X0593Y0264D01*
X059433D01*
X042713Y017917D02*
X04268Y01795D01*
X042613D01*
X04258Y017917D01*
Y017783D01*
X042613Y01775D01*
X04268D01*
X042713Y017783D01*
X042913Y01775D02*
X04278D01*
X042913Y017883D01*
Y017917D01*
X04288Y01795D01*
X042813D01*
X04278Y017917D01*
X04298Y01795D02*
X043113D01*
Y017917D01*
X04298Y017783D01*
Y01775D01*
X03443Y0211D02*
X034563Y0209D01*
Y0211D02*
X03443Y0209D01*
X034763D02*
X03463D01*
X034763Y021033D01*
Y021067D01*
X03473Y0211D01*
X034663D01*
X03463Y021067D01*
X03827Y03D02*
X038403Y0298D01*
Y03D02*
X03827Y0298D01*
X03847D02*
X038537D01*
X038503D01*
Y03D01*
X03847Y029967D01*
X05054Y01974D02*
Y019573D01*
X050573Y01954D01*
X05064D01*
X050673Y019573D01*
Y01974D01*
X05074Y019573D02*
X050773Y01954D01*
X05084D01*
X050873Y019573D01*
Y019707D01*
X05084Y01974D01*
X050773D01*
X05074Y019707D01*
Y019673D01*
X050773Y01964D01*
X050873D01*
X03903Y0241D02*
Y023933D01*
X039063Y0239D01*
X03913D01*
X039163Y023933D01*
Y0241D01*
X039363Y0239D02*
X03923D01*
X039363Y024033D01*
Y024067D01*
X03933Y0241D01*
X039263D01*
X03923Y024067D01*
X054403Y022767D02*
X05437Y0228D01*
X054303D01*
X05427Y022767D01*
Y022733D01*
X054303Y0227D01*
X05437D01*
X054403Y022667D01*
Y022633D01*
X05437Y0226D01*
X054303D01*
X05427Y022633D01*
X05447Y0226D02*
X054537D01*
X054503D01*
Y0228D01*
X05447Y022767D01*
X0284Y0278D02*
Y028D01*
X0285D01*
X028533Y027967D01*
Y0279D01*
X0285Y027867D01*
X0284D01*
X028467D02*
X028533Y0278D01*
X0286D02*
X028667D01*
X028633D01*
Y028D01*
X0286Y027967D01*
X028767D02*
X0288Y028D01*
X028867D01*
X0289Y027967D01*
Y027933D01*
X028867Y0279D01*
X0289Y027867D01*
Y027833D01*
X028867Y0278D01*
X0288D01*
X028767Y027833D01*
Y027867D01*
X0288Y0279D01*
X028767Y027933D01*
Y027967D01*
X0288Y0279D02*
X028867D01*
X0284Y02705D02*
Y02725D01*
X0285D01*
X028533Y027217D01*
Y02715D01*
X0285Y027117D01*
X0284D01*
X028467D02*
X028533Y02705D01*
X0286D02*
X028667D01*
X028633D01*
Y02725D01*
X0286Y027217D01*
X028767Y02725D02*
X0289D01*
Y027217D01*
X028767Y027083D01*
Y02705D01*
X03275Y0233D02*
Y0235D01*
X03285D01*
X032883Y023467D01*
Y0234D01*
X03285Y023367D01*
X03275D01*
X032817D02*
X032883Y0233D01*
X03295D02*
X033017D01*
X032983D01*
Y0235D01*
X03295Y023467D01*
X03325Y0235D02*
X033117D01*
Y0234D01*
X033183Y023433D01*
X033217D01*
X03325Y0234D01*
Y023333D01*
X033217Y0233D01*
X03315D01*
X033117Y023333D01*
X0284Y02985D02*
Y03005D01*
X0285D01*
X028533Y030017D01*
Y02995D01*
X0285Y029917D01*
X0284D01*
X028467D02*
X028533Y02985D01*
X0286D02*
X028667D01*
X028633D01*
Y03005D01*
X0286Y030017D01*
X028767D02*
X0288Y03005D01*
X028867D01*
X0289Y030017D01*
Y029983D01*
X028867Y02995D01*
X028833D01*
X028867D01*
X0289Y029917D01*
Y029883D01*
X028867Y02985D01*
X0288D01*
X028767Y029883D01*
X0284Y0291D02*
Y0293D01*
X0285D01*
X028533Y029267D01*
Y0292D01*
X0285Y029167D01*
X0284D01*
X028467D02*
X028533Y0291D01*
X0286D02*
X028667D01*
X028633D01*
Y0293D01*
X0286Y029267D01*
X0289Y0291D02*
X028767D01*
X0289Y029233D01*
Y029267D01*
X028867Y0293D01*
X0288D01*
X028767Y029267D01*
X03743Y01945D02*
Y01965D01*
X03753D01*
X037563Y019617D01*
Y01955D01*
X03753Y019517D01*
X03743D01*
X037497D02*
X037563Y01945D01*
X03763D02*
X037697D01*
X037663D01*
Y01965D01*
X03763Y019617D01*
X037797Y01945D02*
X037863D01*
X03783D01*
Y01965D01*
X037797Y019617D01*
X0431Y02377D02*
X0433D01*
Y02367D01*
X043267Y023637D01*
X0432D01*
X043167Y02367D01*
Y02377D01*
Y023703D02*
X0431Y023637D01*
X0433Y023437D02*
X043267Y023503D01*
X0432Y02357D01*
X043133D01*
X0431Y023537D01*
Y02347D01*
X043133Y023437D01*
X043167D01*
X0432Y02347D01*
Y02357D01*
X05042Y02634D02*
Y02654D01*
X05052D01*
X050553Y026507D01*
Y02644D01*
X05052Y026407D01*
X05042D01*
X05062Y02634D02*
X050687D01*
X050653D01*
Y02654D01*
X05062Y026507D01*
X02397Y01725D02*
Y01705D01*
X024103D01*
X02417D02*
X024237D01*
X024203D01*
Y01725D01*
X02417Y017217D01*
X04473Y0341D02*
Y0339D01*
Y033967D01*
X044863Y0341D01*
X044763Y034D01*
X044863Y0339D01*
X045063D02*
X04493D01*
X045063Y034033D01*
Y034067D01*
X04503Y0341D01*
X044963D01*
X04493Y034067D01*
X03962Y0341D02*
Y0339D01*
Y033967D01*
X039753Y0341D01*
X039653Y034D01*
X039753Y0339D01*
X03982D02*
X039887D01*
X039853D01*
Y0341D01*
X03982Y034067D01*
X046273Y01517D02*
X046207D01*
X04624D01*
Y015003D01*
X046207Y01497D01*
X046173D01*
X04614Y015003D01*
X04634Y01497D02*
X046407D01*
X046373D01*
Y01517D01*
X04634Y015137D01*
X046507D02*
X04654Y01517D01*
X046607D01*
X04664Y015137D01*
Y015003D01*
X046607Y01497D01*
X04654D01*
X046507Y015003D01*
Y015137D01*
X023513Y02855D02*
X023447D01*
X02348D01*
Y028383D01*
X023447Y02835D01*
X023413D01*
X02338Y028383D01*
X023713Y02855D02*
X02358D01*
Y02845D01*
X023647Y028483D01*
X02368D01*
X023713Y02845D01*
Y028383D01*
X02368Y02835D01*
X023613D01*
X02358Y028383D01*
X030883Y03778D02*
X030817D01*
X03085D01*
Y037613D01*
X030817Y03758D01*
X030783D01*
X03075Y037613D01*
X03105Y03758D02*
Y03778D01*
X03095Y03768D01*
X031083D01*
X034653Y01517D02*
X034587D01*
X03462D01*
Y015003D01*
X034587Y01497D01*
X034553D01*
X03452Y015003D01*
X03472Y01497D02*
X034787D01*
X034753D01*
Y01517D01*
X03472Y015137D01*
X022193Y02284D02*
X022127D01*
X02216D01*
Y022673D01*
X022127Y02264D01*
X022093D01*
X02206Y022673D01*
X022393Y02264D02*
X02226D01*
X022393Y022773D01*
Y022807D01*
X02236Y02284D01*
X022293D01*
X02226Y022807D01*
X042513Y03778D02*
X042447D01*
X04248D01*
Y037613D01*
X042447Y03758D01*
X042413D01*
X04238Y037613D01*
X04258Y03778D02*
X042713D01*
Y037747D01*
X04258Y037613D01*
Y03758D01*
X03207Y01885D02*
Y01865D01*
X03217D01*
X032203Y018683D01*
Y018817D01*
X03217Y01885D01*
X03207D01*
X03227Y01865D02*
X032337D01*
X032303D01*
Y01885D01*
X03227Y018817D01*
X030113Y024467D02*
X03008Y0245D01*
X030013D01*
X02998Y024467D01*
Y024333D01*
X030013Y0243D01*
X03008D01*
X030113Y024333D01*
X030313Y0243D02*
X03018D01*
X030313Y024433D01*
Y024467D01*
X03028Y0245D01*
X030213D01*
X03018Y024467D01*
X030103Y020867D02*
X03007Y0209D01*
X030003D01*
X02997Y020867D01*
Y020733D01*
X030003Y0207D01*
X03007D01*
X030103Y020733D01*
X03017Y0207D02*
X030237D01*
X030203D01*
Y0209D01*
X03017Y020867D01*
X051373Y03778D02*
X051307D01*
X05134D01*
Y037613D01*
X051307Y03758D01*
X051273D01*
X05124Y037613D01*
X05144D02*
X051473Y03758D01*
X05154D01*
X051573Y037613D01*
Y037747D01*
X05154Y03778D01*
X051473D01*
X05144Y037747D01*
Y037713D01*
X051473Y03768D01*
X051573D01*
X05173Y03487D02*
Y03507D01*
X05183D01*
X051863Y035037D01*
Y03497D01*
X05183Y034937D01*
X05173D01*
X051797D02*
X051863Y03487D01*
X052063D02*
X05193D01*
X052063Y035003D01*
Y035037D01*
X05203Y03507D01*
X051963D01*
X05193Y035037D01*
X05213D02*
X052163Y03507D01*
X05223D01*
X052263Y035037D01*
Y035003D01*
X05223Y03497D01*
X052197D01*
X05223D01*
X052263Y034937D01*
Y034903D01*
X05223Y03487D01*
X052163D01*
X05213Y034903D01*
X06247Y01955D02*
Y019383D01*
X062503Y01935D01*
X06257D01*
X062603Y019383D01*
Y01955D01*
X06277Y01935D02*
Y01955D01*
X06267Y01945D01*
X062803D01*
X06255Y03113D02*
X06275D01*
Y03123D01*
X062717Y031263D01*
X062583D01*
X06255Y03123D01*
Y03113D01*
X062583Y03133D02*
X06255Y031363D01*
Y03143D01*
X062583Y031463D01*
X062617D01*
X06265Y03143D01*
Y031397D01*
Y03143D01*
X062683Y031463D01*
X062717D01*
X06275Y03143D01*
Y031363D01*
X062717Y03133D01*
X021443Y033617D02*
X02141Y03365D01*
X021343D01*
X02131Y033617D01*
Y033583D01*
X021343Y03355D01*
X02141D01*
X021443Y033517D01*
Y033483D01*
X02141Y03345D01*
X021343D01*
X02131Y033483D01*
X02151Y03365D02*
Y03345D01*
X021577Y033517D01*
X021643Y03345D01*
Y03365D01*
X02171Y03345D02*
X021777D01*
X021743D01*
Y03365D01*
X02171Y033617D01*
X02625Y03355D02*
Y033383D01*
X026283Y03335D01*
X02635D01*
X026383Y033383D01*
Y03355D01*
X02645Y03335D02*
X026517D01*
X026483D01*
Y03355D01*
X02645Y033517D01*
X026617D02*
X02665Y03355D01*
X026717D01*
X02675Y033517D01*
Y033383D01*
X026717Y03335D01*
X02665D01*
X026617Y033383D01*
Y033517D01*
X023633Y032413D02*
X0236Y03238D01*
Y032313D01*
X023633Y03228D01*
X023767D01*
X0238Y032313D01*
Y03238D01*
X023767Y032413D01*
X023633Y03248D02*
X0236Y032513D01*
Y03258D01*
X023633Y032613D01*
X023667D01*
X0237Y03258D01*
Y032547D01*
Y03258D01*
X023733Y032613D01*
X023767D01*
X0238Y03258D01*
Y032513D01*
X023767Y03248D01*
X023633Y03268D02*
X0236Y032713D01*
Y03278D01*
X023633Y032813D01*
X023667D01*
X0237Y03278D01*
X023733Y032813D01*
X023767D01*
X0238Y03278D01*
Y032713D01*
X023767Y03268D01*
X023733D01*
X0237Y032713D01*
X023667Y03268D01*
X023633D01*
X0237Y032713D02*
Y03278D01*
D70*
X048078Y026805D02*
X047684D01*
X048078Y027198D01*
Y027297D01*
X047979Y027395D01*
X047782D01*
X047684Y027297D01*
X047881Y025805D02*
X048078D01*
X047979D01*
Y026395D01*
X047881Y026297D01*
X053022Y026805D02*
X053219D01*
X053121D01*
Y027395D01*
X053022Y027297D01*
X053514D02*
X053613Y027395D01*
X05381D01*
X053908Y027297D01*
Y026903D01*
X05381Y026805D01*
X053613D01*
X053514Y026903D01*
Y027297D01*
X053022Y025903D02*
X053121Y025805D01*
X053318D01*
X053416Y025903D01*
Y026297D01*
X053318Y026395D01*
X053121D01*
X053022Y026297D01*
Y026198D01*
X053121Y0261D01*
X053416D01*
D71*
X05055Y025163D02*
D03*
M02*
