%FSTAX24Y24*%
%MOIN*%
G70*
G01*
G75*
G04 Layer_Color=128*
%ADD10C,0.0100*%
%ADD11R,0.0512X0.0394*%
%ADD12O,0.0945X0.0236*%
%ADD13R,0.0945X0.0236*%
%ADD14R,0.1575X0.0670*%
%ADD15R,0.0177X0.0453*%
%ADD16R,0.1378X0.0748*%
%ADD17R,0.1732X0.0866*%
%ADD18R,0.0532X0.0472*%
%ADD19R,0.1969X0.2756*%
%ADD20R,0.0472X0.0532*%
%ADD21C,0.0394*%
%ADD22R,0.0591X0.0118*%
%ADD23R,0.0118X0.0591*%
%ADD24O,0.0276X0.0984*%
%ADD25R,0.0472X0.0551*%
%ADD26R,0.0551X0.0472*%
%ADD27R,0.0591X0.0315*%
%ADD28R,0.0787X0.0571*%
%ADD29C,0.0120*%
%ADD30C,0.0300*%
%ADD31C,0.2362*%
%ADD32C,0.0800*%
%ADD33C,0.0700*%
%ADD34C,0.0591*%
%ADD35C,0.0984*%
%ADD36R,0.0984X0.0984*%
%ADD37O,0.0787X0.1890*%
%ADD38O,0.1890X0.0787*%
%ADD39C,0.0591*%
%ADD40C,0.1043*%
%ADD41R,0.0591X0.0591*%
%ADD42C,0.1161*%
%ADD43R,0.0787X0.0787*%
%ADD44C,0.0787*%
%ADD45R,0.0650X0.0650*%
%ADD46C,0.0650*%
%ADD47C,0.0728*%
%ADD48R,0.0728X0.0728*%
%ADD49C,0.1181*%
%ADD50R,0.0591X0.0591*%
%ADD51R,0.0591X0.0591*%
%ADD52C,0.0472*%
%ADD53C,0.0240*%
%ADD54R,0.0374X0.0335*%
%ADD55R,0.0472X0.0256*%
%ADD56R,0.0906X0.0906*%
%ADD57R,0.3701X0.3228*%
%ADD58R,0.1634X0.0374*%
%ADD59O,0.0236X0.0906*%
%ADD60O,0.0709X0.0177*%
%ADD61O,0.0866X0.0236*%
%ADD62C,0.0200*%
%ADD63C,0.0079*%
%ADD64C,0.0039*%
%ADD65C,0.0098*%
%ADD66C,0.0236*%
%ADD67C,0.0030*%
%ADD68C,0.0050*%
%ADD69C,0.0040*%
%ADD70C,0.0059*%
%ADD71R,0.1614X0.0748*%
%ADD72R,0.0592X0.0474*%
%ADD73O,0.1025X0.0316*%
%ADD74R,0.1025X0.0316*%
%ADD75R,0.1655X0.0750*%
%ADD76R,0.0257X0.0533*%
%ADD77R,0.1458X0.0828*%
%ADD78R,0.1812X0.0946*%
%ADD79R,0.0612X0.0552*%
%ADD80R,0.2049X0.2836*%
%ADD81R,0.0552X0.0612*%
%ADD82C,0.0474*%
%ADD83R,0.0671X0.0198*%
%ADD84R,0.0198X0.0671*%
%ADD85O,0.0356X0.1064*%
%ADD86R,0.0552X0.0631*%
%ADD87R,0.0631X0.0552*%
%ADD88R,0.0671X0.0395*%
%ADD89R,0.0867X0.0651*%
%ADD90C,0.2442*%
%ADD91C,0.0880*%
%ADD92C,0.0780*%
%ADD93C,0.0671*%
%ADD94C,0.1064*%
%ADD95R,0.1064X0.1064*%
%ADD96O,0.0867X0.1970*%
%ADD97O,0.1970X0.0867*%
%ADD98C,0.0671*%
%ADD99C,0.1123*%
%ADD100R,0.0671X0.0671*%
%ADD101C,0.1241*%
%ADD102R,0.0867X0.0867*%
%ADD103C,0.0867*%
%ADD104R,0.0730X0.0730*%
%ADD105C,0.0730*%
%ADD106C,0.0808*%
%ADD107R,0.0808X0.0808*%
%ADD108C,0.1261*%
%ADD109R,0.0671X0.0671*%
%ADD110R,0.0671X0.0671*%
%ADD111C,0.0552*%
%ADD112C,0.0320*%
%ADD113R,0.0454X0.0415*%
%ADD114R,0.0552X0.0336*%
%ADD115R,0.0986X0.0986*%
%ADD116R,0.3781X0.3308*%
%ADD117R,0.1714X0.0454*%
%ADD118O,0.0316X0.0986*%
%ADD119O,0.0789X0.0257*%
%ADD120O,0.0946X0.0316*%
D11*
X0257Y032756D02*
D03*
Y033544D02*
D03*
D15*
X027515Y0354D02*
D03*
X0272D02*
D03*
Y034632D02*
D03*
X027515D02*
D03*
X02783D02*
D03*
X028145D02*
D03*
Y0354D02*
D03*
X02783D02*
D03*
X034415Y0352D02*
D03*
X0341D02*
D03*
Y034432D02*
D03*
X034415D02*
D03*
X03473D02*
D03*
X035045D02*
D03*
Y0352D02*
D03*
X03473D02*
D03*
D18*
X06245Y02635D02*
D03*
Y027059D02*
D03*
X05365Y032446D02*
D03*
Y033154D02*
D03*
Y031659D02*
D03*
Y03095D02*
D03*
X03225Y020004D02*
D03*
Y019296D02*
D03*
X0326Y02165D02*
D03*
Y022359D02*
D03*
X0584Y028504D02*
D03*
Y027796D02*
D03*
X0515Y023904D02*
D03*
Y023196D02*
D03*
X0605Y031293D02*
D03*
Y032002D02*
D03*
X05625Y033039D02*
D03*
Y033748D02*
D03*
D20*
X02315Y02795D02*
D03*
X022441D02*
D03*
X023154Y0288D02*
D03*
X022446D02*
D03*
X052204Y0222D02*
D03*
X051496D02*
D03*
X040741Y0182D02*
D03*
X04145D02*
D03*
X040741Y0174D02*
D03*
X04145D02*
D03*
D25*
X028291Y0292D02*
D03*
X029D02*
D03*
X028291Y02995D02*
D03*
X029D02*
D03*
X028291Y02715D02*
D03*
X029D02*
D03*
X028291Y0279D02*
D03*
X029D02*
D03*
X0267Y0311D02*
D03*
X025991D02*
D03*
X051591Y020741D02*
D03*
X0523D02*
D03*
X050759D02*
D03*
X05005D02*
D03*
X04045Y0226D02*
D03*
X041159D02*
D03*
X0385Y026D02*
D03*
X037791D02*
D03*
X038109Y0252D02*
D03*
X0374D02*
D03*
X040441Y024D02*
D03*
X04115D02*
D03*
X060796Y03525D02*
D03*
X061504D02*
D03*
X046109Y02075D02*
D03*
X0454D02*
D03*
X046941D02*
D03*
X04765D02*
D03*
D26*
X03645Y030404D02*
D03*
Y029696D02*
D03*
X03845Y030454D02*
D03*
Y029746D02*
D03*
X0334Y021646D02*
D03*
Y022354D02*
D03*
Y020754D02*
D03*
Y020046D02*
D03*
X02465Y02965D02*
D03*
Y028941D02*
D03*
Y027959D02*
D03*
Y02725D02*
D03*
X0523Y0193D02*
D03*
Y018591D02*
D03*
X0512Y019291D02*
D03*
Y018583D02*
D03*
X0378Y022709D02*
D03*
Y022D02*
D03*
X0402Y025291D02*
D03*
Y026D02*
D03*
X04105Y02555D02*
D03*
Y024841D02*
D03*
X04995Y0193D02*
D03*
Y018591D02*
D03*
X0393Y025241D02*
D03*
Y02595D02*
D03*
X039Y0227D02*
D03*
Y021991D02*
D03*
X0453Y019309D02*
D03*
Y0186D02*
D03*
X04655Y0193D02*
D03*
Y018591D02*
D03*
X04765Y019309D02*
D03*
Y0186D02*
D03*
D54*
X0587Y019276D02*
D03*
Y019965D02*
D03*
Y018587D02*
D03*
X05537Y031876D02*
D03*
Y032565D02*
D03*
Y031187D02*
D03*
X06146Y031916D02*
D03*
Y032605D02*
D03*
Y031227D02*
D03*
X05765Y019306D02*
D03*
Y019994D02*
D03*
Y018617D02*
D03*
X0566Y0193D02*
D03*
Y019989D02*
D03*
Y018611D02*
D03*
X0556Y0193D02*
D03*
Y019989D02*
D03*
Y018611D02*
D03*
X0546Y0193D02*
D03*
Y019989D02*
D03*
Y018611D02*
D03*
X05365Y0193D02*
D03*
Y019989D02*
D03*
Y018611D02*
D03*
D55*
X060322Y0285D02*
D03*
X059278Y028126D02*
D03*
Y028874D02*
D03*
D56*
X02745Y02125D02*
D03*
Y023022D02*
D03*
D57*
X023243Y01755D02*
D03*
D58*
X027161Y016211D02*
D03*
Y016881D02*
D03*
Y01755D02*
D03*
Y018219D02*
D03*
Y018889D02*
D03*
D59*
X0526Y031341D02*
D03*
X0521D02*
D03*
X0516D02*
D03*
X0511D02*
D03*
X0506D02*
D03*
X0501D02*
D03*
X0496D02*
D03*
X0491D02*
D03*
X0486D02*
D03*
X0526Y035159D02*
D03*
X0521D02*
D03*
X0516D02*
D03*
X0511D02*
D03*
X0506D02*
D03*
X0501D02*
D03*
X0496D02*
D03*
X0491D02*
D03*
X0486D02*
D03*
X03305Y031031D02*
D03*
X03255D02*
D03*
X03205D02*
D03*
X03155D02*
D03*
X03105D02*
D03*
X03055D02*
D03*
X03005D02*
D03*
X02955D02*
D03*
X02905D02*
D03*
X03305Y03485D02*
D03*
X03255D02*
D03*
X03205D02*
D03*
X03155D02*
D03*
X03105D02*
D03*
X03055D02*
D03*
X03005D02*
D03*
X02955D02*
D03*
X02905D02*
D03*
D60*
X041274Y019016D02*
D03*
Y019272D02*
D03*
Y019528D02*
D03*
Y019784D02*
D03*
X043026Y019016D02*
D03*
Y019272D02*
D03*
Y019528D02*
D03*
Y019784D02*
D03*
D61*
X059731Y038038D02*
D03*
Y037538D02*
D03*
Y037038D02*
D03*
Y036538D02*
D03*
Y036038D02*
D03*
Y035538D02*
D03*
Y035038D02*
D03*
X057841Y038038D02*
D03*
Y037538D02*
D03*
Y037038D02*
D03*
Y036538D02*
D03*
Y036038D02*
D03*
Y035538D02*
D03*
Y035038D02*
D03*
M02*
