%FSTAX24Y24*%
%MOIN*%
G70*
G01*
G75*
G04 Layer_Color=8421504*
%ADD10R,0.0532X0.0472*%
%ADD11R,0.0728X0.0472*%
%ADD12R,0.0472X0.0532*%
%ADD13R,0.0807X0.0157*%
%ADD14R,0.0433X0.0256*%
%ADD15R,0.0472X0.0551*%
%ADD16R,0.0551X0.0472*%
%ADD17C,0.0100*%
%ADD18C,0.0200*%
G04:AMPARAMS|DCode=19|XSize=78.7mil|YSize=60mil|CornerRadius=0mil|HoleSize=0mil|Usage=FLASHONLY|Rotation=0.000|XOffset=0mil|YOffset=0mil|HoleType=Round|Shape=Octagon|*
%AMOCTAGOND19*
4,1,8,0.0394,-0.0150,0.0394,0.0150,0.0244,0.0300,-0.0244,0.0300,-0.0394,0.0150,-0.0394,-0.0150,-0.0244,-0.0300,0.0244,-0.0300,0.0394,-0.0150,0.0*
%
%ADD19OCTAGOND19*%

%ADD20C,0.0600*%
%ADD21R,0.0591X0.0591*%
%ADD22C,0.0591*%
%ADD23R,0.0591X0.0591*%
%ADD24C,0.0984*%
%ADD25R,0.0984X0.0984*%
%ADD26C,0.0320*%
%ADD27R,0.0551X0.0236*%
%ADD28O,0.0276X0.0984*%
%ADD29R,0.0315X0.0374*%
%ADD30C,0.0039*%
D10*
X048563Y044104D02*
D03*
Y043395D02*
D03*
X0525Y044104D02*
D03*
Y043395D02*
D03*
X056437Y044104D02*
D03*
Y043395D02*
D03*
X060374Y044104D02*
D03*
Y043395D02*
D03*
D11*
X048563Y045082D02*
D03*
Y046341D02*
D03*
X0525Y045082D02*
D03*
Y046341D02*
D03*
X056437Y045082D02*
D03*
Y046341D02*
D03*
X060374Y045082D02*
D03*
Y046341D02*
D03*
D12*
X065807Y046348D02*
D03*
X066516D02*
D03*
X078052Y049458D02*
D03*
X077343D02*
D03*
X077343Y048592D02*
D03*
X078052D02*
D03*
D13*
X067894Y04931D02*
D03*
Y049054D02*
D03*
Y048798D02*
D03*
Y048543D02*
D03*
Y048287D02*
D03*
Y048031D02*
D03*
Y047775D02*
D03*
Y047519D02*
D03*
Y047263D02*
D03*
Y047007D02*
D03*
Y046751D02*
D03*
Y046495D02*
D03*
Y046239D02*
D03*
Y045983D02*
D03*
X070571Y04931D02*
D03*
Y049054D02*
D03*
Y048798D02*
D03*
Y048543D02*
D03*
Y048287D02*
D03*
Y048031D02*
D03*
Y047775D02*
D03*
Y047519D02*
D03*
Y047263D02*
D03*
Y047007D02*
D03*
Y046751D02*
D03*
Y046495D02*
D03*
Y046239D02*
D03*
Y045983D02*
D03*
D14*
X062225Y046044D02*
D03*
Y04567D02*
D03*
Y045296D02*
D03*
X06317D02*
D03*
Y046044D02*
D03*
D15*
X068957Y045127D02*
D03*
X068248D02*
D03*
X066244Y048244D02*
D03*
X065536D02*
D03*
X078052Y047726D02*
D03*
X077343D02*
D03*
X062965Y044517D02*
D03*
X062256D02*
D03*
D16*
X064138Y044226D02*
D03*
Y044934D02*
D03*
X064016Y046025D02*
D03*
Y046733D02*
D03*
M02*
