%FSTAX24Y24*%
%MOIN*%
G70*
G01*
G75*
G04 Layer_Physical_Order=1*
G04 Layer_Color=255*
%ADD10R,0.0532X0.0472*%
%ADD11R,0.0728X0.0472*%
%ADD12R,0.0472X0.0532*%
%ADD13R,0.0807X0.0157*%
%ADD14R,0.0433X0.0256*%
%ADD15R,0.0472X0.0551*%
%ADD16R,0.0551X0.0472*%
%ADD17C,0.0100*%
%ADD18C,0.0200*%
G04:AMPARAMS|DCode=19|XSize=78.7mil|YSize=60mil|CornerRadius=0mil|HoleSize=0mil|Usage=FLASHONLY|Rotation=0.000|XOffset=0mil|YOffset=0mil|HoleType=Round|Shape=Octagon|*
%AMOCTAGOND19*
4,1,8,0.0394,-0.0150,0.0394,0.0150,0.0244,0.0300,-0.0244,0.0300,-0.0394,0.0150,-0.0394,-0.0150,-0.0244,-0.0300,0.0244,-0.0300,0.0394,-0.0150,0.0*
%
%ADD19OCTAGOND19*%

%ADD20C,0.0600*%
%ADD21R,0.0591X0.0591*%
%ADD22C,0.0591*%
%ADD23R,0.0591X0.0591*%
%ADD24C,0.0984*%
%ADD25R,0.0984X0.0984*%
%ADD26C,0.0320*%
D10*
X048563Y044104D02*
D03*
Y043395D02*
D03*
X0525Y044104D02*
D03*
Y043395D02*
D03*
X056437Y044104D02*
D03*
Y043395D02*
D03*
X060374Y044104D02*
D03*
Y043395D02*
D03*
D11*
X048563Y045082D02*
D03*
Y046341D02*
D03*
X0525Y045082D02*
D03*
Y046341D02*
D03*
X056437Y045082D02*
D03*
Y046341D02*
D03*
X060374Y045082D02*
D03*
Y046341D02*
D03*
D12*
X065807Y046348D02*
D03*
X066516D02*
D03*
X078052Y049458D02*
D03*
X077343D02*
D03*
X077343Y048592D02*
D03*
X078052D02*
D03*
D13*
X067894Y04931D02*
D03*
Y049054D02*
D03*
Y048798D02*
D03*
Y048543D02*
D03*
Y048287D02*
D03*
Y048031D02*
D03*
Y047775D02*
D03*
Y047519D02*
D03*
Y047263D02*
D03*
Y047007D02*
D03*
Y046751D02*
D03*
Y046495D02*
D03*
Y046239D02*
D03*
Y045983D02*
D03*
X070571Y04931D02*
D03*
Y049054D02*
D03*
Y048798D02*
D03*
Y048543D02*
D03*
Y048287D02*
D03*
Y048031D02*
D03*
Y047775D02*
D03*
Y047519D02*
D03*
Y047263D02*
D03*
Y047007D02*
D03*
Y046751D02*
D03*
Y046495D02*
D03*
Y046239D02*
D03*
Y045983D02*
D03*
D14*
X062225Y046044D02*
D03*
Y04567D02*
D03*
Y045296D02*
D03*
X06317D02*
D03*
Y046044D02*
D03*
D15*
X068957Y045127D02*
D03*
X068248D02*
D03*
X066244Y048244D02*
D03*
X065536D02*
D03*
X078052Y047726D02*
D03*
X077343D02*
D03*
X062965Y044517D02*
D03*
X062256D02*
D03*
D16*
X064138Y044226D02*
D03*
Y044934D02*
D03*
X064016Y046025D02*
D03*
Y046733D02*
D03*
D17*
X055817Y046341D02*
X056437D01*
X055626Y046151D02*
X055817Y046341D01*
X055626Y042698D02*
Y046151D01*
Y042698D02*
X055733Y042592D01*
X048563Y044104D02*
X048563Y044104D01*
X048563Y044104D02*
Y045082D01*
X0525Y044104D02*
X0525Y044104D01*
X0525Y044104D02*
Y045082D01*
X056437Y044104D02*
X056437Y044104D01*
X056437Y044104D02*
Y045082D01*
X060374Y044104D02*
X060374Y044104D01*
X060374Y044104D02*
Y045082D01*
X04815Y042592D02*
X051615D01*
X047469Y043273D02*
X04815Y042592D01*
X047469Y043273D02*
Y046123D01*
X047687Y046341D01*
X055733Y042592D02*
X057776D01*
X051615D02*
X055733D01*
X051615D02*
Y046068D01*
X051888Y046341D01*
X0525D01*
X047687D02*
X048563D01*
X057776Y042592D02*
X059189Y044005D01*
Y046737D01*
X048563Y043395D02*
X048615Y043344D01*
X049284D01*
X049764Y043824D01*
X049756Y047182D02*
X049764Y04719D01*
X0525Y043395D02*
X052567Y043462D01*
X053363D01*
X053433Y043533D01*
Y049088D01*
X056437Y043395D02*
X056469Y043363D01*
X05702D01*
X057713Y044056D01*
Y04856D01*
X058993Y04984D01*
X063851Y043832D02*
X06489Y042793D01*
X068508D02*
X068729Y043013D01*
X06489Y042793D02*
X068508D01*
X069174Y044446D02*
X071906D01*
X068729Y044001D02*
X069174Y044446D01*
X068729Y043013D02*
Y044001D01*
X058993Y04984D02*
X066231D01*
X063823Y049017D02*
X064198Y048642D01*
X064603D01*
X064823Y048946D02*
Y0493D01*
X063823Y049017D02*
Y0493D01*
X070571Y048798D02*
X071257D01*
X059536Y043395D02*
X060374D01*
X059259Y043118D02*
X059536Y043395D01*
X062729Y043822D02*
Y043832D01*
X062225Y045296D02*
X062256Y045265D01*
Y044517D02*
Y045265D01*
X061272Y045352D02*
X061327Y045296D01*
X062225D01*
X061272Y046037D02*
X06128Y046044D01*
X062225D01*
X064016Y047263D02*
X067894D01*
X062983D02*
X064016D01*
Y046733D02*
Y047263D01*
X063662Y04567D02*
X064016Y046025D01*
X062225Y04567D02*
X063662D01*
X06317Y045296D02*
X063532Y044934D01*
X064138D01*
X070571Y047519D02*
X074681D01*
X07485Y04735D01*
X070571Y047263D02*
X073737D01*
X078138Y049371D02*
X079233D01*
X078052Y049458D02*
X078138Y049371D01*
X079012Y048592D02*
X079233Y048371D01*
X078052Y048592D02*
X079012D01*
X078878Y047726D02*
X079233Y047371D01*
X078052Y047726D02*
X078878D01*
X077343D02*
Y049458D01*
X065807Y049285D02*
X065823Y0493D01*
X067894Y047263D02*
X068537D01*
X067894Y045983D02*
X068483D01*
X065507Y047007D02*
X067894D01*
X06495Y04645D02*
X065507Y047007D01*
X069756Y04855D02*
X070564D01*
X070571Y048543D01*
X074403Y049497D02*
X07655Y04735D01*
X065807Y045584D02*
Y046348D01*
Y045584D02*
X066382Y045009D01*
X067382D02*
X06813D01*
X068248Y045127D01*
X069951Y046751D02*
X070571D01*
X069418Y046218D02*
X069951Y046751D01*
X069443Y047007D02*
X070571D01*
X070098Y048287D02*
X070571D01*
X069754Y049054D02*
X070571D01*
X067894Y048543D02*
X068598D01*
X068785Y048085D02*
X068788D01*
X069186Y048484D01*
Y048486D01*
X069754Y049054D01*
X068484Y048798D02*
X068784Y049098D01*
X067894Y048798D02*
X068484D01*
X0693Y04715D02*
X069443Y047007D01*
X069Y04715D02*
X0693D01*
X068922Y047657D02*
X069469D01*
X070098Y048287D01*
X066231Y04984D02*
X066469Y049602D01*
X068598Y048543D02*
X068689Y048634D01*
X068867D01*
X068784Y049098D02*
X069213D01*
X070571Y048031D02*
X071728D01*
X072036Y048339D02*
Y048709D01*
X071728Y048031D02*
X072036Y048339D01*
X070571Y045983D02*
X071143D01*
X072489Y046087D02*
X072897Y046495D01*
X073385Y045983D02*
X077517D01*
X071143D02*
X071496Y04563D01*
X073032D01*
X073385Y045983D01*
X072788Y045835D02*
X073193Y046239D01*
X073737Y047263D02*
X073988Y047012D01*
X075312D01*
X07565Y04735D01*
X070571Y046495D02*
X071344D01*
X071752Y046087D01*
X072489D01*
X070571Y046239D02*
X071253D01*
X071658Y045835D01*
X072788D01*
X068587Y046087D02*
Y047887D01*
X068785Y048085D01*
X068483Y045983D02*
X068587Y046087D01*
X06846Y04596D02*
X068483Y045983D01*
X06846Y045339D02*
Y04596D01*
X068248Y045127D02*
X06846Y045339D01*
X071257Y048798D02*
X071449Y048606D01*
X072097Y049497D02*
X074403D01*
X062729Y043832D02*
X063851D01*
X069781Y04931D02*
X070571D01*
X049764Y043824D02*
Y04719D01*
X069697Y049394D02*
X069781Y04931D01*
X064016Y046025D02*
X065032Y045009D01*
X065382D01*
X062965Y044517D02*
X063224D01*
X063575Y044165D01*
X064078D01*
X064138Y044226D01*
X064583D01*
X065296Y043513D01*
X064693Y041874D02*
X06517D01*
X06365Y042917D02*
X064693Y041874D01*
X061153Y042917D02*
X06365D01*
X060449Y042214D02*
X061153Y042917D01*
X067291Y046239D02*
X067894D01*
X06689Y045839D02*
X067291Y046239D01*
X06689Y044657D02*
Y045839D01*
X066082Y044299D02*
X066532D01*
X065382Y0436D02*
Y045009D01*
X065296Y043513D02*
X065382Y0436D01*
X066082Y044299D01*
X06692Y046751D02*
X067894D01*
X066664Y046495D02*
X067894D01*
X066516Y046348D02*
X066664Y046495D01*
X06692Y046751D01*
X070571Y047775D02*
X074074D01*
X07441Y04811D01*
X075414D01*
X07613Y047394D01*
Y047004D02*
Y047394D01*
X075918Y046791D02*
X07613Y047004D01*
X07217Y046791D02*
X075918D01*
X071973Y046594D02*
X07217Y046791D01*
X073193Y046239D02*
X077106D01*
X072897Y046495D02*
X076637D01*
X076855Y046712D01*
X078012D01*
X07835Y04705D01*
X077106Y046239D02*
X07726Y046394D01*
X07921D01*
X079233Y046371D01*
X078052Y047579D02*
Y047726D01*
X077477Y047004D02*
X078052Y047579D01*
X07613Y047004D02*
X077477D01*
X072185Y043185D02*
Y043513D01*
Y043749D01*
X067174Y04931D02*
X067894D01*
X068957Y045127D02*
X074705D01*
X076319Y043513D01*
X068957Y045112D02*
Y045127D01*
X068268Y044398D02*
Y044423D01*
X068957Y045112D01*
X066532Y044299D02*
X06663Y044398D01*
X06689Y044657D01*
X06663Y044398D02*
X068268D01*
X066973Y049512D02*
X067174Y04931D01*
X065807Y048598D02*
Y048846D01*
Y049285D01*
X070571Y049054D02*
X071216D01*
X071441Y04928D01*
X071879D01*
X072097Y049497D01*
X060278Y046341D02*
X060374D01*
X059882Y046737D02*
X060278Y046341D01*
X059189Y046737D02*
X059882D01*
X064603Y048642D02*
X064819Y048426D01*
Y047657D02*
Y048426D01*
Y047657D02*
X064958Y047519D01*
X067894D01*
X064823Y048946D02*
X065048Y048722D01*
X065163Y047775D02*
X067894D01*
X065048Y04789D02*
X065163Y047775D01*
X065048Y04789D02*
Y048722D01*
X065611Y048402D02*
X065807Y048598D01*
X066364Y048125D02*
X066458Y048031D01*
X067894D01*
X065807Y048846D02*
X066528D01*
X067088Y048287D02*
X067894D01*
X066469Y049382D02*
Y049602D01*
Y049382D02*
X066796Y049054D01*
X067894D01*
X066528Y048846D02*
X067088Y048287D01*
X069418Y045886D02*
Y046218D01*
X06185Y04675D02*
X06247D01*
X062983Y047263D01*
X062467Y046747D02*
X06317Y046044D01*
X048091Y047849D02*
Y047249D01*
X048491D01*
X048691Y047749D02*
X048791Y047849D01*
X048991D01*
X049091Y047749D01*
Y047649D01*
X048991Y047549D01*
X048891D01*
X048991D01*
X049091Y047449D01*
Y047349D01*
X048991Y047249D01*
X048791D01*
X048691Y047349D01*
X052028Y047739D02*
Y047139D01*
X052428D01*
X053028D02*
X052628D01*
X053028Y047539D01*
Y047639D01*
X052928Y047739D01*
X052728D01*
X052628Y047639D01*
X056075Y047739D02*
Y047139D01*
X056475D01*
X056675D02*
X056875D01*
X056775D01*
Y047739D01*
X056675Y047639D01*
X059772Y047695D02*
Y047096D01*
X060172D01*
X060372Y047596D02*
X060472Y047695D01*
X060672D01*
X060772Y047596D01*
Y047196D01*
X060672Y047096D01*
X060472D01*
X060372Y047196D01*
Y047596D01*
D18*
X061272Y043728D02*
Y045352D01*
Y046037D01*
Y047072D01*
X0623Y0481D01*
X061272Y043728D02*
X06165Y04335D01*
X06385D01*
X06475Y04245D01*
X07145D01*
X072185Y043185D01*
X0623Y0481D02*
Y048777D01*
X062823Y0493D01*
D19*
X060374Y045711D02*
D03*
X056437D02*
D03*
X0525D02*
D03*
X048563D02*
D03*
D20*
X081914Y044623D02*
D03*
X046284D02*
D03*
X078485Y042962D02*
D03*
X061162Y048474D02*
D03*
D21*
X067382Y045009D02*
D03*
X063311Y047911D02*
D03*
X062823Y0493D02*
D03*
D22*
X066382Y045009D02*
D03*
X065382D02*
D03*
X064311Y047911D02*
D03*
X060449Y042214D02*
D03*
X061449D02*
D03*
X063449D02*
D03*
X065823Y0493D02*
D03*
X064823D02*
D03*
X063823D02*
D03*
X079233Y044371D02*
D03*
Y045371D02*
D03*
Y046371D02*
D03*
Y047371D02*
D03*
Y048371D02*
D03*
D23*
Y049371D02*
D03*
D24*
X065296Y043513D02*
D03*
X070807D02*
D03*
X066674D02*
D03*
X073563D02*
D03*
X068052D02*
D03*
X06943D02*
D03*
X072185D02*
D03*
X074941D02*
D03*
D25*
X076319D02*
D03*
D26*
X059189Y046737D02*
D03*
X049756Y047182D02*
D03*
X053433Y049088D02*
D03*
X059259Y043118D02*
D03*
X062729Y043822D02*
D03*
X071906Y044446D02*
D03*
X06185Y04675D02*
D03*
X07485Y04735D02*
D03*
X07565D02*
D03*
X077517Y045983D02*
D03*
X07835Y04705D02*
D03*
X06495Y04645D02*
D03*
X069418Y045886D02*
D03*
X07655Y04735D02*
D03*
X068922Y047657D02*
D03*
X071973Y046594D02*
D03*
X069756Y04855D02*
D03*
X068859Y048642D02*
D03*
X069213Y049098D02*
D03*
X069Y04715D02*
D03*
X071449Y048606D02*
D03*
X066973Y049512D02*
D03*
X072036Y048709D02*
D03*
X071441Y04928D02*
D03*
X069721Y049409D02*
D03*
X06517Y041874D02*
D03*
X066996Y04837D02*
D03*
M02*
