%FSTAX24Y24*%
%MOIN*%
G70*
G01*
G75*
G04 Layer_Color=8388736*
%ADD10R,0.0532X0.0472*%
%ADD11R,0.0728X0.0472*%
%ADD12R,0.0472X0.0532*%
%ADD13R,0.0807X0.0157*%
%ADD14R,0.0433X0.0256*%
%ADD15R,0.0472X0.0551*%
%ADD16R,0.0551X0.0472*%
%ADD17C,0.0100*%
%ADD18C,0.0200*%
G04:AMPARAMS|DCode=19|XSize=78.7mil|YSize=60mil|CornerRadius=0mil|HoleSize=0mil|Usage=FLASHONLY|Rotation=0.000|XOffset=0mil|YOffset=0mil|HoleType=Round|Shape=Octagon|*
%AMOCTAGOND19*
4,1,8,0.0394,-0.0150,0.0394,0.0150,0.0244,0.0300,-0.0244,0.0300,-0.0394,0.0150,-0.0394,-0.0150,-0.0244,-0.0300,0.0244,-0.0300,0.0394,-0.0150,0.0*
%
%ADD19OCTAGOND19*%

%ADD20C,0.0600*%
%ADD21R,0.0591X0.0591*%
%ADD22C,0.0591*%
%ADD23R,0.0591X0.0591*%
%ADD24C,0.0984*%
%ADD25R,0.0984X0.0984*%
%ADD26C,0.0320*%
%ADD27R,0.0551X0.0236*%
%ADD28O,0.0276X0.0984*%
%ADD29R,0.0315X0.0374*%
%ADD30C,0.0039*%
%ADD31R,0.0612X0.0552*%
%ADD32R,0.0808X0.0552*%
%ADD33R,0.0552X0.0612*%
%ADD34R,0.0887X0.0237*%
%ADD35R,0.0513X0.0336*%
%ADD36R,0.0552X0.0631*%
%ADD37R,0.0631X0.0552*%
G04:AMPARAMS|DCode=38|XSize=86.7mil|YSize=68mil|CornerRadius=0mil|HoleSize=0mil|Usage=FLASHONLY|Rotation=0.000|XOffset=0mil|YOffset=0mil|HoleType=Round|Shape=Octagon|*
%AMOCTAGOND38*
4,1,8,0.0434,-0.0170,0.0434,0.0170,0.0264,0.0340,-0.0264,0.0340,-0.0434,0.0170,-0.0434,-0.0170,-0.0264,-0.0340,0.0264,-0.0340,0.0434,-0.0170,0.0*
%
%ADD38OCTAGOND38*%

%ADD39C,0.0680*%
%ADD40R,0.0671X0.0671*%
%ADD41C,0.0671*%
%ADD42R,0.0671X0.0671*%
%ADD43C,0.1064*%
%ADD44R,0.1064X0.1064*%
%ADD45C,0.0400*%
%ADD46R,0.0631X0.0316*%
%ADD47O,0.0356X0.1064*%
%ADD48R,0.0395X0.0454*%
D30*
X050815Y042033D02*
Y041639D01*
X050619D01*
X050553Y041705D01*
Y041967D01*
X050619Y042033D01*
X050815D01*
X050422Y041639D02*
X050291D01*
X050356D01*
Y041901D01*
X050422D01*
X050028D02*
X049897D01*
X049831Y041836D01*
Y041639D01*
X050028D01*
X050094Y041705D01*
X050028Y04177D01*
X049831D01*
X0497Y041508D02*
Y041901D01*
X049503D01*
X049438Y041836D01*
Y041705D01*
X049503Y041639D01*
X0497D01*
X049307Y041901D02*
Y041639D01*
Y04177D01*
X049241Y041836D01*
X049175Y041901D01*
X04911D01*
X048847Y041639D02*
X048716D01*
X048651Y041705D01*
Y041836D01*
X048716Y041901D01*
X048847D01*
X048913Y041836D01*
Y041705D01*
X048847Y041639D01*
X048126Y042033D02*
Y041639D01*
Y04177D01*
X047864Y042033D01*
X04806Y041836D01*
X047864Y041639D01*
X047667D02*
Y041967D01*
Y041836D01*
X047732D01*
X047601D01*
X047667D01*
Y041967D01*
X047601Y042033D01*
X047339Y041967D02*
Y041901D01*
X047404D01*
X047273D01*
X047339D01*
Y041705D01*
X047273Y041639D01*
X047076D02*
Y041705D01*
X047011D01*
Y041639D01*
X047076D01*
X057099Y041842D02*
Y041646D01*
X057033Y04158D01*
X056968Y041646D01*
X056902Y04158D01*
X056836Y041646D01*
Y041842D01*
X056705D02*
Y041646D01*
X05664Y04158D01*
X056574Y041646D01*
X056508Y04158D01*
X056443Y041646D01*
Y041842D01*
X056312D02*
Y041646D01*
X056246Y04158D01*
X05618Y041646D01*
X056115Y04158D01*
X056049Y041646D01*
Y041842D01*
X055918Y04158D02*
Y041646D01*
X055852D01*
Y04158D01*
X055918D01*
X055328Y041974D02*
Y04158D01*
X055525D01*
X05559Y041646D01*
Y041777D01*
X055525Y041842D01*
X055328D01*
X055197Y04158D02*
X055065D01*
X055131D01*
Y041842D01*
X055197D01*
X054803D02*
X054672D01*
X054606Y041777D01*
Y04158D01*
X054803D01*
X054869Y041646D01*
X054803Y041711D01*
X054606D01*
X054475Y041449D02*
Y041842D01*
X054278D01*
X054213Y041777D01*
Y041646D01*
X054278Y04158D01*
X054475D01*
X054081Y041842D02*
Y04158D01*
Y041711D01*
X054016Y041777D01*
X05395Y041842D01*
X053885D01*
X053622Y04158D02*
X053491D01*
X053425Y041646D01*
Y041777D01*
X053491Y041842D01*
X053622D01*
X053688Y041777D01*
Y041646D01*
X053622Y04158D01*
X053294D02*
Y041646D01*
X053229D01*
Y04158D01*
X053294D01*
X052966Y041974D02*
Y04158D01*
Y041777D01*
X052901Y041842D01*
X05277D01*
X052704Y041777D01*
Y04158D01*
X052573Y041842D02*
Y041646D01*
X052507Y04158D01*
X05231D01*
Y041842D01*
X057367Y04839D02*
Y047996D01*
X057235Y048127D01*
X057104Y047996D01*
Y04839D01*
X056973D02*
Y047996D01*
X056776D01*
X056711Y048062D01*
Y048324D01*
X056776Y04839D01*
X056973D01*
X056579D02*
Y048062D01*
X056514Y047996D01*
X056383D01*
X056317Y048062D01*
Y04839D01*
X055923D02*
X056186D01*
Y047996D01*
X055923D01*
X056186Y048193D02*
X056055D01*
X055792Y048258D02*
X05553Y047996D01*
X055661Y048127D01*
X05553Y048258D01*
X055792Y047996D01*
X055333Y048324D02*
Y048258D01*
X055399D01*
X055267D01*
X055333D01*
Y048062D01*
X055267Y047996D01*
X054874D02*
X055005D01*
X055071Y048062D01*
Y048193D01*
X055005Y048258D01*
X054874D01*
X054808Y048193D01*
Y048127D01*
X055071D01*
X054677Y047996D02*
Y048258D01*
X05448D01*
X054415Y048193D01*
Y047996D01*
X054284D02*
X054087D01*
X054021Y048062D01*
X054087Y048127D01*
X054218D01*
X054284Y048193D01*
X054218Y048258D01*
X054021D01*
X05389Y047996D02*
X053759D01*
X053824D01*
Y048258D01*
X05389D01*
X053496Y047996D02*
X053365D01*
X0533Y048062D01*
Y048193D01*
X053365Y048258D01*
X053496D01*
X053562Y048193D01*
Y048062D01*
X053496Y047996D01*
X053168D02*
Y048258D01*
X052972D01*
X052906Y048193D01*
Y047996D01*
X052775Y04839D02*
Y047996D01*
X052578D01*
X052512Y048062D01*
Y048127D01*
X052578Y048193D01*
X052775D01*
X052578D01*
X052512Y048258D01*
Y048324D01*
X052578Y04839D01*
X052775D01*
X052316Y047996D02*
X052184D01*
X052119Y048062D01*
Y048193D01*
X052184Y048258D01*
X052316D01*
X052381Y048193D01*
Y048062D01*
X052316Y047996D01*
X051922Y048258D02*
X051791D01*
X051725Y048193D01*
Y047996D01*
X051922D01*
X051988Y048062D01*
X051922Y048127D01*
X051725D01*
X051594Y048258D02*
Y047996D01*
Y048127D01*
X051529Y048193D01*
X051463Y048258D01*
X051397D01*
X050938Y04839D02*
Y047996D01*
X051135D01*
X051201Y048062D01*
Y048193D01*
X051135Y048258D01*
X050938D01*
X050807Y04793D02*
X050545D01*
X050413Y048258D02*
X050282Y047996D01*
X050151Y048258D01*
X049757Y047996D02*
X05002D01*
X049757Y048258D01*
Y048324D01*
X049823Y04839D01*
X049954D01*
X05002Y048324D01*
D31*
X070689Y044852D02*
D03*
Y04556D02*
D03*
D33*
X06715Y041949D02*
D03*
X066441D02*
D03*
D36*
X075698Y049489D02*
D03*
X076407D02*
D03*
X074241D02*
D03*
X07495D02*
D03*
X073493D02*
D03*
X072785D02*
D03*
X072697Y045206D02*
D03*
X073406D02*
D03*
D37*
X071973Y047862D02*
D03*
Y047154D02*
D03*
D38*
X060374Y045711D02*
D03*
X056437D02*
D03*
X0525D02*
D03*
X048563D02*
D03*
D39*
X081914Y044623D02*
D03*
X046284D02*
D03*
X078485Y042962D02*
D03*
X061162Y048474D02*
D03*
D40*
X067382Y045009D02*
D03*
X063311Y047911D02*
D03*
X062823Y0493D02*
D03*
D41*
X066382Y045009D02*
D03*
X065382D02*
D03*
X064311Y047911D02*
D03*
X060449Y042214D02*
D03*
X061449D02*
D03*
X063449D02*
D03*
X065823Y0493D02*
D03*
X064823D02*
D03*
X063823D02*
D03*
X079233Y044371D02*
D03*
Y045371D02*
D03*
Y046371D02*
D03*
Y047371D02*
D03*
Y048371D02*
D03*
D42*
Y049371D02*
D03*
D43*
X065296Y043513D02*
D03*
X070807D02*
D03*
X066674D02*
D03*
X073563D02*
D03*
X068052D02*
D03*
X06943D02*
D03*
X072185D02*
D03*
X074941D02*
D03*
D44*
X076319D02*
D03*
D45*
X059189Y046737D02*
D03*
X049756Y047182D02*
D03*
X053433Y049088D02*
D03*
X059259Y043118D02*
D03*
X062729Y043822D02*
D03*
X071906Y044446D02*
D03*
X06185Y04675D02*
D03*
X07485Y04735D02*
D03*
X07565D02*
D03*
X077517Y045983D02*
D03*
X07835Y04705D02*
D03*
X06495Y04645D02*
D03*
X069418Y045886D02*
D03*
X07655Y04735D02*
D03*
X068922Y047657D02*
D03*
X071973Y046594D02*
D03*
X069756Y04855D02*
D03*
X068859Y048642D02*
D03*
X069213Y049098D02*
D03*
X069Y04715D02*
D03*
X071449Y048606D02*
D03*
X066973Y049512D02*
D03*
X072036Y048709D02*
D03*
X071441Y04928D02*
D03*
X069721Y049409D02*
D03*
X06517Y041874D02*
D03*
X066996Y04837D02*
D03*
D46*
X068103Y041819D02*
D03*
Y042567D02*
D03*
X068851Y042193D02*
D03*
X070654Y042201D02*
D03*
X071402Y041827D02*
D03*
Y042575D02*
D03*
X072524Y041819D02*
D03*
Y042567D02*
D03*
X073272Y042193D02*
D03*
D47*
X072846Y048327D02*
D03*
X073346D02*
D03*
X073846D02*
D03*
X074346D02*
D03*
X074846D02*
D03*
X075346D02*
D03*
X075846D02*
D03*
X076346D02*
D03*
X072846Y046398D02*
D03*
X073346D02*
D03*
X073846D02*
D03*
X074346D02*
D03*
X074846D02*
D03*
X075346D02*
D03*
X075846D02*
D03*
X076346D02*
D03*
D48*
X068721Y045909D02*
D03*
X068012D02*
D03*
X066721Y045909D02*
D03*
X06743D02*
D03*
M02*
