%FSTAX24Y24*%
%MOIN*%
G70*
G01*
G75*
G04 Layer_Color=8388736*
%ADD10R,0.0532X0.0472*%
%ADD11R,0.0728X0.0472*%
%ADD12R,0.0472X0.0532*%
%ADD13R,0.0807X0.0157*%
%ADD14R,0.0433X0.0256*%
%ADD15R,0.0472X0.0551*%
%ADD16R,0.0551X0.0472*%
%ADD17C,0.0100*%
%ADD18C,0.0200*%
G04:AMPARAMS|DCode=19|XSize=78.7mil|YSize=60mil|CornerRadius=0mil|HoleSize=0mil|Usage=FLASHONLY|Rotation=0.000|XOffset=0mil|YOffset=0mil|HoleType=Round|Shape=Octagon|*
%AMOCTAGOND19*
4,1,8,0.0394,-0.0150,0.0394,0.0150,0.0244,0.0300,-0.0244,0.0300,-0.0394,0.0150,-0.0394,-0.0150,-0.0244,-0.0300,0.0244,-0.0300,0.0394,-0.0150,0.0*
%
%ADD19OCTAGOND19*%

%ADD20C,0.0600*%
%ADD21R,0.0591X0.0591*%
%ADD22C,0.0591*%
%ADD23R,0.0591X0.0591*%
%ADD24C,0.0984*%
%ADD25R,0.0984X0.0984*%
%ADD26C,0.0320*%
%ADD27R,0.0551X0.0236*%
%ADD28O,0.0276X0.0984*%
%ADD29R,0.0315X0.0374*%
%ADD30C,0.0039*%
%ADD31R,0.0612X0.0552*%
%ADD32R,0.0808X0.0552*%
%ADD33R,0.0552X0.0612*%
%ADD34R,0.0887X0.0237*%
%ADD35R,0.0513X0.0336*%
%ADD36R,0.0552X0.0631*%
%ADD37R,0.0631X0.0552*%
G04:AMPARAMS|DCode=38|XSize=86.7mil|YSize=68mil|CornerRadius=0mil|HoleSize=0mil|Usage=FLASHONLY|Rotation=0.000|XOffset=0mil|YOffset=0mil|HoleType=Round|Shape=Octagon|*
%AMOCTAGOND38*
4,1,8,0.0434,-0.0170,0.0434,0.0170,0.0264,0.0340,-0.0264,0.0340,-0.0434,0.0170,-0.0434,-0.0170,-0.0264,-0.0340,0.0264,-0.0340,0.0434,-0.0170,0.0*
%
%ADD38OCTAGOND38*%

%ADD39C,0.0680*%
%ADD40R,0.0671X0.0671*%
%ADD41C,0.0671*%
%ADD42R,0.0671X0.0671*%
%ADD43C,0.1064*%
%ADD44R,0.1064X0.1064*%
%ADD45C,0.0400*%
D31*
X048563Y044104D02*
D03*
Y043395D02*
D03*
X0525Y044104D02*
D03*
Y043395D02*
D03*
X056437Y044104D02*
D03*
Y043395D02*
D03*
X060374Y044104D02*
D03*
Y043395D02*
D03*
D32*
X048563Y045082D02*
D03*
Y046341D02*
D03*
X0525Y045082D02*
D03*
Y046341D02*
D03*
X056437Y045082D02*
D03*
Y046341D02*
D03*
X060374Y045082D02*
D03*
Y046341D02*
D03*
D33*
X065807Y046348D02*
D03*
X066516D02*
D03*
X078052Y049458D02*
D03*
X077343D02*
D03*
X077343Y048592D02*
D03*
X078052D02*
D03*
D34*
X067894Y04931D02*
D03*
Y049054D02*
D03*
Y048798D02*
D03*
Y048543D02*
D03*
Y048287D02*
D03*
Y048031D02*
D03*
Y047775D02*
D03*
Y047519D02*
D03*
Y047263D02*
D03*
Y047007D02*
D03*
Y046751D02*
D03*
Y046495D02*
D03*
Y046239D02*
D03*
Y045983D02*
D03*
X070571Y04931D02*
D03*
Y049054D02*
D03*
Y048798D02*
D03*
Y048543D02*
D03*
Y048287D02*
D03*
Y048031D02*
D03*
Y047775D02*
D03*
Y047519D02*
D03*
Y047263D02*
D03*
Y047007D02*
D03*
Y046751D02*
D03*
Y046495D02*
D03*
Y046239D02*
D03*
Y045983D02*
D03*
D35*
X062225Y046044D02*
D03*
Y04567D02*
D03*
Y045296D02*
D03*
X06317D02*
D03*
Y046044D02*
D03*
D36*
X068957Y045127D02*
D03*
X068248D02*
D03*
X066244Y048244D02*
D03*
X065536D02*
D03*
X078052Y047726D02*
D03*
X077343D02*
D03*
X062965Y044517D02*
D03*
X062256D02*
D03*
D37*
X064138Y044226D02*
D03*
Y044934D02*
D03*
X064016Y046025D02*
D03*
Y046733D02*
D03*
D38*
X060374Y045711D02*
D03*
X056437D02*
D03*
X0525D02*
D03*
X048563D02*
D03*
D39*
X081914Y044623D02*
D03*
X046284D02*
D03*
X078485Y042962D02*
D03*
X061162Y048474D02*
D03*
D40*
X067382Y045009D02*
D03*
X063311Y047911D02*
D03*
X062823Y0493D02*
D03*
D41*
X066382Y045009D02*
D03*
X065382D02*
D03*
X064311Y047911D02*
D03*
X060449Y042214D02*
D03*
X061449D02*
D03*
X063449D02*
D03*
X065823Y0493D02*
D03*
X064823D02*
D03*
X063823D02*
D03*
X079233Y044371D02*
D03*
Y045371D02*
D03*
Y046371D02*
D03*
Y047371D02*
D03*
Y048371D02*
D03*
D42*
Y049371D02*
D03*
D43*
X065296Y043513D02*
D03*
X070807D02*
D03*
X066674D02*
D03*
X073563D02*
D03*
X068052D02*
D03*
X06943D02*
D03*
X072185D02*
D03*
X074941D02*
D03*
D44*
X076319D02*
D03*
D45*
X059189Y046737D02*
D03*
X049756Y047182D02*
D03*
X053433Y049088D02*
D03*
X059259Y043118D02*
D03*
X062729Y043822D02*
D03*
X071906Y044446D02*
D03*
X06185Y04675D02*
D03*
X07485Y04735D02*
D03*
X07565D02*
D03*
X077517Y045983D02*
D03*
X07835Y04705D02*
D03*
X06495Y04645D02*
D03*
X069418Y045886D02*
D03*
X07655Y04735D02*
D03*
X068922Y047657D02*
D03*
X071973Y046594D02*
D03*
X069756Y04855D02*
D03*
X068859Y048642D02*
D03*
X069213Y049098D02*
D03*
X069Y04715D02*
D03*
X071449Y048606D02*
D03*
X066973Y049512D02*
D03*
X072036Y048709D02*
D03*
X071441Y04928D02*
D03*
X069721Y049409D02*
D03*
X06517Y041874D02*
D03*
X066996Y04837D02*
D03*
M02*
