%FSTAX24Y24*%
%MOIN*%
G70*
G01*
G75*
G04 Layer_Color=16711935*
%ADD10R,0.0532X0.0472*%
%ADD11R,0.0728X0.0472*%
%ADD12R,0.0472X0.0532*%
%ADD13R,0.0807X0.0157*%
%ADD14R,0.0433X0.0256*%
%ADD15R,0.0472X0.0551*%
%ADD16R,0.0551X0.0472*%
%ADD17C,0.0100*%
%ADD18C,0.0200*%
G04:AMPARAMS|DCode=19|XSize=78.7mil|YSize=60mil|CornerRadius=0mil|HoleSize=0mil|Usage=FLASHONLY|Rotation=0.000|XOffset=0mil|YOffset=0mil|HoleType=Round|Shape=Octagon|*
%AMOCTAGOND19*
4,1,8,0.0394,-0.0150,0.0394,0.0150,0.0244,0.0300,-0.0244,0.0300,-0.0394,0.0150,-0.0394,-0.0150,-0.0244,-0.0300,0.0244,-0.0300,0.0394,-0.0150,0.0*
%
%ADD19OCTAGOND19*%

%ADD20C,0.0600*%
%ADD21R,0.0591X0.0591*%
%ADD22C,0.0591*%
%ADD23R,0.0591X0.0591*%
%ADD24C,0.0984*%
%ADD25R,0.0984X0.0984*%
%ADD26C,0.0320*%
%ADD27R,0.0551X0.0236*%
%ADD28O,0.0276X0.0984*%
%ADD29R,0.0315X0.0374*%
%ADD30C,0.0039*%
%ADD31R,0.0612X0.0552*%
%ADD32R,0.0808X0.0552*%
%ADD33R,0.0552X0.0612*%
%ADD34R,0.0887X0.0237*%
%ADD35R,0.0513X0.0336*%
%ADD36R,0.0552X0.0631*%
%ADD37R,0.0631X0.0552*%
G04:AMPARAMS|DCode=38|XSize=86.7mil|YSize=68mil|CornerRadius=0mil|HoleSize=0mil|Usage=FLASHONLY|Rotation=0.000|XOffset=0mil|YOffset=0mil|HoleType=Round|Shape=Octagon|*
%AMOCTAGOND38*
4,1,8,0.0434,-0.0170,0.0434,0.0170,0.0264,0.0340,-0.0264,0.0340,-0.0434,0.0170,-0.0434,-0.0170,-0.0264,-0.0340,0.0264,-0.0340,0.0434,-0.0170,0.0*
%
%ADD38OCTAGOND38*%

%ADD39C,0.0680*%
%ADD40R,0.0671X0.0671*%
%ADD41C,0.0671*%
%ADD42R,0.0671X0.0671*%
%ADD43C,0.1064*%
%ADD44R,0.1064X0.1064*%
%ADD45C,0.0400*%
%ADD46R,0.0631X0.0316*%
%ADD47O,0.0356X0.1064*%
%ADD48R,0.0395X0.0454*%
D17*
X04502Y048474D02*
X046595Y050048D01*
X04502Y042962D02*
X046595Y041387D01*
X080059D02*
X083209Y043749D01*
X080059Y050048D02*
X083209Y045718D01*
X04502Y042962D02*
Y048474D01*
X046595Y041387D02*
X080059D01*
X046595Y050048D02*
X080059D01*
X083209Y043749D02*
Y045718D01*
X048248Y045869D02*
X048878D01*
X048248D02*
X048248Y045554D01*
X048878D01*
X048878Y045869D01*
X052185D02*
X052815D01*
X052185D02*
X052185Y045554D01*
X052815D01*
X052815Y045869D01*
X056122D02*
X056752D01*
X056122D02*
X056122Y045554D01*
X056752D01*
X056752Y045869D01*
X060059D02*
X060689D01*
X060059D02*
X060059Y045554D01*
X060689D01*
X060689Y045869D01*
M02*
