%FSTAX24Y24*%
%MOIN*%
G70*
G01*
G75*
G04 Layer_Physical_Order=2*
G04 Layer_Color=16711680*
%ADD10R,0.0532X0.0472*%
%ADD11R,0.0728X0.0472*%
%ADD12R,0.0472X0.0532*%
%ADD13R,0.0807X0.0157*%
%ADD14R,0.0433X0.0256*%
%ADD15R,0.0472X0.0551*%
%ADD16R,0.0551X0.0472*%
%ADD17C,0.0100*%
%ADD18C,0.0200*%
G04:AMPARAMS|DCode=19|XSize=78.7mil|YSize=60mil|CornerRadius=0mil|HoleSize=0mil|Usage=FLASHONLY|Rotation=0.000|XOffset=0mil|YOffset=0mil|HoleType=Round|Shape=Octagon|*
%AMOCTAGOND19*
4,1,8,0.0394,-0.0150,0.0394,0.0150,0.0244,0.0300,-0.0244,0.0300,-0.0394,0.0150,-0.0394,-0.0150,-0.0244,-0.0300,0.0244,-0.0300,0.0394,-0.0150,0.0*
%
%ADD19OCTAGOND19*%

%ADD20C,0.0600*%
%ADD21R,0.0591X0.0591*%
%ADD22C,0.0591*%
%ADD23R,0.0591X0.0591*%
%ADD24C,0.0984*%
%ADD25R,0.0984X0.0984*%
%ADD26C,0.0320*%
%ADD27R,0.0551X0.0236*%
%ADD28O,0.0276X0.0984*%
%ADD29R,0.0315X0.0374*%
%ADD30C,0.0039*%
D10*
X070689Y044852D02*
D03*
Y04556D02*
D03*
D12*
X06715Y041949D02*
D03*
X066441D02*
D03*
D15*
X075698Y049489D02*
D03*
X076407D02*
D03*
X074241D02*
D03*
X07495D02*
D03*
X073493D02*
D03*
X072785D02*
D03*
X072697Y045206D02*
D03*
X073406D02*
D03*
D16*
X071973Y047862D02*
D03*
Y047154D02*
D03*
D17*
X059189Y046737D02*
X059202Y04675D01*
X06185D01*
X049756Y047174D02*
Y047182D01*
X053402Y049088D02*
X053433D01*
X059259Y042577D02*
Y043118D01*
X071906Y044446D02*
Y045063D01*
X064609Y0479D02*
X068679D01*
X059259Y042577D02*
X060201Y041635D01*
X061882D01*
X071906Y044446D02*
X071906Y044446D01*
X072052D01*
X061449Y042214D02*
X06185Y042615D01*
Y04675D01*
X072846Y048327D02*
Y049428D01*
X072785Y049489D02*
X072846Y049428D01*
X073846Y048327D02*
Y048954D01*
X073493Y049307D02*
X073846Y048954D01*
X073493Y049307D02*
Y049489D01*
X074346Y048327D02*
Y049384D01*
X074241Y049489D02*
X074346Y049384D01*
X074846Y048327D02*
Y049384D01*
X07495Y049489D01*
X075346Y048327D02*
Y048946D01*
X075698Y049298D01*
Y049489D01*
X073346Y045266D02*
Y046398D01*
Y045266D02*
X073406Y045206D01*
X072846Y045354D02*
Y046398D01*
X072697Y045206D02*
X072846Y045354D01*
X073846Y044032D02*
Y046398D01*
X073563Y043749D02*
X073846Y044032D01*
X074346Y044345D02*
Y046398D01*
Y044345D02*
X074941Y043749D01*
X073346Y047646D02*
Y048327D01*
X073111Y047411D02*
X073346Y047646D01*
X072539Y047411D02*
X073111D01*
X07485Y046402D02*
Y04735D01*
X074846Y046398D02*
X07485Y046402D01*
X075346Y047046D02*
X07565Y04735D01*
X075346Y046398D02*
Y047046D01*
X077517Y045983D02*
Y048417D01*
X078471Y049371D01*
X079233D01*
X063449Y044949D02*
X06495Y04645D01*
X063449Y042214D02*
Y044949D01*
X067107Y042686D02*
X06735Y04293D01*
X07655Y04735D02*
X07685Y04705D01*
Y04565D02*
Y04705D01*
Y04565D02*
X0772Y0453D01*
X0778D01*
X078121Y045621D01*
Y046379D01*
X078521Y048371D02*
X079233D01*
X07855Y046054D02*
X079233Y045371D01*
X07855Y046054D02*
Y04685D01*
X07835Y04705D02*
X07855Y04685D01*
X06735Y04293D02*
Y04405D01*
X070689Y044852D02*
X071048D01*
X07065Y043592D02*
X070807Y043749D01*
X0715Y042571D02*
Y0444D01*
X071048Y044852D02*
X0715Y0444D01*
X068679Y0479D02*
X068922Y047657D01*
X066674Y043513D02*
X06689Y04373D01*
X072237Y047713D02*
X072539Y047411D01*
X071441Y049267D02*
Y04928D01*
X071449Y048606D02*
X07189Y049047D01*
Y049398D01*
X071678Y04961D02*
X07189Y049398D01*
X072036Y048709D02*
X072209Y048882D01*
Y049528D01*
X071901Y049836D02*
X072209Y049528D01*
X053402Y049088D02*
Y049107D01*
X05413Y049836D01*
X049756Y047174D02*
X049985Y047403D01*
X072409Y045206D02*
X072697D01*
X065296Y042055D02*
Y043513D01*
X066722Y042686D02*
X067107D01*
X066441Y042406D02*
X066722Y042686D01*
X066441Y041949D02*
Y042406D01*
X069268Y042193D02*
X06943Y042354D01*
X068851Y042193D02*
X069268D01*
X06943Y042354D02*
Y043513D01*
Y043749D01*
X07065Y042189D02*
Y043592D01*
X067107Y041978D02*
X067281Y041803D01*
X067956D01*
X068052Y043513D02*
Y044012D01*
X077957Y046543D02*
X078121Y046379D01*
X077957Y046543D02*
Y047807D01*
X078521Y048371D01*
X071973Y046594D02*
Y047154D01*
X073346Y046398D02*
Y046859D01*
X073052Y047154D02*
X073346Y046859D01*
X071973Y047154D02*
X073052D01*
X072201Y042193D02*
X073272D01*
X072185Y042969D02*
Y043513D01*
X071961Y042744D02*
X072185Y042969D01*
X071961Y042433D02*
Y042744D01*
Y042433D02*
X072201Y042193D01*
X072185Y043749D02*
X072301D01*
X073406Y044563D02*
Y045206D01*
X07287Y044028D02*
X073406Y044563D01*
X07287Y043134D02*
Y044028D01*
Y043134D02*
X073339Y042665D01*
X075472D02*
X076319Y043513D01*
X068103Y042567D02*
X068311D01*
X068721Y042976D01*
Y044098D01*
X069083Y044461D01*
X069933D01*
X070142Y044252D01*
Y042047D02*
Y044252D01*
X070363Y041827D02*
X071402D01*
X070142Y042047D02*
X070363Y041827D01*
X071402D02*
X071693Y041535D01*
X073453D01*
X074374Y042457D01*
X073339Y042665D02*
X074374D01*
X075472D01*
X074374Y042457D02*
Y042665D01*
X076407Y049489D02*
X076735Y049817D01*
X079617D02*
X080134Y049299D01*
X076735Y049817D02*
X079617D01*
X080134Y048273D02*
Y049299D01*
X079233Y047371D02*
X080134Y048273D01*
X061882Y041635D02*
X062729Y042481D01*
Y043822D01*
X06739Y049409D02*
X069721D01*
X062823Y0493D02*
X063313Y04881D01*
X049985Y047403D02*
X061561D01*
X065382Y045009D02*
X0655Y045127D01*
X063311Y047911D02*
X063943Y04728D01*
X066264D01*
X066394Y04715D01*
X069D01*
X063313Y04881D02*
X066271D01*
X066973Y049512D01*
X071035Y04658D02*
X072409Y045206D01*
X071035Y04658D02*
Y048862D01*
X071036D01*
X071441Y049267D01*
X070831Y046138D02*
X071906Y045063D01*
X05413Y049836D02*
X071901D01*
X071056Y04961D02*
X071678D01*
X070831Y046138D02*
Y049386D01*
X071056Y04961D01*
X070453Y045796D02*
X070689Y04556D01*
X070453Y045796D02*
Y047853D01*
X069756Y04855D02*
X070453Y047853D01*
X068052Y044012D02*
X070225Y046185D01*
X069213Y048535D02*
Y049098D01*
Y048535D02*
X070225Y047524D01*
Y046185D02*
Y047524D01*
X06891Y048512D02*
Y048677D01*
X066996Y04837D02*
X067035Y048332D01*
X069142Y046791D02*
X069329Y046979D01*
X066201Y046791D02*
X069142D01*
X0655Y045127D02*
Y046091D01*
X066201Y046791D01*
X065103Y041862D02*
X065296Y042055D01*
X061561Y047403D02*
X062642Y048484D01*
X066465D01*
X06739Y049409D01*
X067035Y048332D02*
X068747D01*
X069329Y04775D01*
Y046979D02*
Y04775D01*
X069181Y0465D02*
X069685Y047004D01*
Y047736D01*
X06891Y048512D02*
X069685Y047736D01*
X06689Y04373D02*
Y046197D01*
X067193Y0465D01*
X069181D01*
X068721Y045917D02*
X069044Y04624D01*
X07017D01*
X070225Y046185D01*
X067382Y045009D02*
Y045894D01*
X067422Y045933D01*
X067437Y045917D01*
X068012D01*
X06735Y04405D02*
X067568Y044268D01*
X0678D01*
X069418Y045886D01*
X072205Y041803D02*
X072405D01*
X07065Y042189D02*
X071819D01*
X072205Y041803D01*
D19*
X060374Y045711D02*
D03*
X056437D02*
D03*
X0525D02*
D03*
X048563D02*
D03*
D20*
X081914Y044623D02*
D03*
X046284D02*
D03*
X078485Y042962D02*
D03*
X061162Y048474D02*
D03*
D21*
X067382Y045009D02*
D03*
X063311Y047911D02*
D03*
X062823Y0493D02*
D03*
D22*
X066382Y045009D02*
D03*
X065382D02*
D03*
X064311Y047911D02*
D03*
X060449Y042214D02*
D03*
X061449D02*
D03*
X063449D02*
D03*
X065823Y0493D02*
D03*
X064823D02*
D03*
X063823D02*
D03*
X079233Y044371D02*
D03*
Y045371D02*
D03*
Y046371D02*
D03*
Y047371D02*
D03*
Y048371D02*
D03*
D23*
Y049371D02*
D03*
D24*
X065296Y043513D02*
D03*
X070807D02*
D03*
X066674D02*
D03*
X073563D02*
D03*
X068052D02*
D03*
X06943D02*
D03*
X072185D02*
D03*
X074941D02*
D03*
D25*
X076319D02*
D03*
D26*
X059189Y046737D02*
D03*
X049756Y047182D02*
D03*
X053433Y049088D02*
D03*
X059259Y043118D02*
D03*
X062729Y043822D02*
D03*
X071906Y044446D02*
D03*
X06185Y04675D02*
D03*
X07485Y04735D02*
D03*
X07565D02*
D03*
X077517Y045983D02*
D03*
X07835Y04705D02*
D03*
X06495Y04645D02*
D03*
X069418Y045886D02*
D03*
X07655Y04735D02*
D03*
X068922Y047657D02*
D03*
X071973Y046594D02*
D03*
X069756Y04855D02*
D03*
X068859Y048642D02*
D03*
X069213Y049098D02*
D03*
X069Y04715D02*
D03*
X071449Y048606D02*
D03*
X066973Y049512D02*
D03*
X072036Y048709D02*
D03*
X071441Y04928D02*
D03*
X069721Y049409D02*
D03*
X06517Y041874D02*
D03*
X066996Y04837D02*
D03*
D27*
X068103Y041819D02*
D03*
Y042567D02*
D03*
X068851Y042193D02*
D03*
X070654Y042201D02*
D03*
X071402Y041827D02*
D03*
Y042575D02*
D03*
X072524Y041819D02*
D03*
Y042567D02*
D03*
X073272Y042193D02*
D03*
D28*
X072846Y048327D02*
D03*
X073346D02*
D03*
X073846D02*
D03*
X074346D02*
D03*
X074846D02*
D03*
X075346D02*
D03*
X075846D02*
D03*
X076346D02*
D03*
X072846Y046398D02*
D03*
X073346D02*
D03*
X073846D02*
D03*
X074346D02*
D03*
X074846D02*
D03*
X075346D02*
D03*
X075846D02*
D03*
X076346D02*
D03*
D29*
X068721Y045909D02*
D03*
X068012D02*
D03*
X066721Y045909D02*
D03*
X06743D02*
D03*
D30*
X057367Y04839D02*
Y047996D01*
X057235Y048127D01*
X057104Y047996D01*
Y04839D01*
X056973D02*
Y047996D01*
X056776D01*
X056711Y048062D01*
Y048324D01*
X056776Y04839D01*
X056973D01*
X056579D02*
Y048062D01*
X056514Y047996D01*
X056383D01*
X056317Y048062D01*
Y04839D01*
X055923D02*
X056186D01*
Y047996D01*
X055923D01*
X056186Y048193D02*
X056055D01*
X055792Y048258D02*
X05553Y047996D01*
X055661Y048127D01*
X05553Y048258D01*
X055792Y047996D01*
X055333Y048324D02*
Y048258D01*
X055399D01*
X055267D01*
X055333D01*
Y048062D01*
X055267Y047996D01*
X054874D02*
X055005D01*
X055071Y048062D01*
Y048193D01*
X055005Y048258D01*
X054874D01*
X054808Y048193D01*
Y048127D01*
X055071D01*
X054677Y047996D02*
Y048258D01*
X05448D01*
X054415Y048193D01*
Y047996D01*
X054284D02*
X054087D01*
X054021Y048062D01*
X054087Y048127D01*
X054218D01*
X054284Y048193D01*
X054218Y048258D01*
X054021D01*
X05389Y047996D02*
X053759D01*
X053824D01*
Y048258D01*
X05389D01*
X053496Y047996D02*
X053365D01*
X0533Y048062D01*
Y048193D01*
X053365Y048258D01*
X053496D01*
X053562Y048193D01*
Y048062D01*
X053496Y047996D01*
X053168D02*
Y048258D01*
X052972D01*
X052906Y048193D01*
Y047996D01*
X052775Y04839D02*
Y047996D01*
X052578D01*
X052512Y048062D01*
Y048127D01*
X052578Y048193D01*
X052775D01*
X052578D01*
X052512Y048258D01*
Y048324D01*
X052578Y04839D01*
X052775D01*
X052316Y047996D02*
X052184D01*
X052119Y048062D01*
Y048193D01*
X052184Y048258D01*
X052316D01*
X052381Y048193D01*
Y048062D01*
X052316Y047996D01*
X051922Y048258D02*
X051791D01*
X051725Y048193D01*
Y047996D01*
X051922D01*
X051988Y048062D01*
X051922Y048127D01*
X051725D01*
X051594Y048258D02*
Y047996D01*
Y048127D01*
X051529Y048193D01*
X051463Y048258D01*
X051397D01*
X050938Y04839D02*
Y047996D01*
X051135D01*
X051201Y048062D01*
Y048193D01*
X051135Y048258D01*
X050938D01*
X050807Y04793D02*
X050545D01*
X050413Y048258D02*
X050282Y047996D01*
X050151Y048258D01*
X049757Y047996D02*
X05002D01*
X049757Y048258D01*
Y048324D01*
X049823Y04839D01*
X049954D01*
X05002Y048324D01*
X057099Y041842D02*
Y041646D01*
X057033Y04158D01*
X056968Y041646D01*
X056902Y04158D01*
X056836Y041646D01*
Y041842D01*
X056705D02*
Y041646D01*
X05664Y04158D01*
X056574Y041646D01*
X056508Y04158D01*
X056443Y041646D01*
Y041842D01*
X056312D02*
Y041646D01*
X056246Y04158D01*
X05618Y041646D01*
X056115Y04158D01*
X056049Y041646D01*
Y041842D01*
X055918Y04158D02*
Y041646D01*
X055852D01*
Y04158D01*
X055918D01*
X055328Y041974D02*
Y04158D01*
X055525D01*
X05559Y041646D01*
Y041777D01*
X055525Y041842D01*
X055328D01*
X055197Y04158D02*
X055065D01*
X055131D01*
Y041842D01*
X055197D01*
X054803D02*
X054672D01*
X054606Y041777D01*
Y04158D01*
X054803D01*
X054869Y041646D01*
X054803Y041711D01*
X054606D01*
X054475Y041449D02*
Y041842D01*
X054278D01*
X054213Y041777D01*
Y041646D01*
X054278Y04158D01*
X054475D01*
X054081Y041842D02*
Y04158D01*
Y041711D01*
X054016Y041777D01*
X05395Y041842D01*
X053885D01*
X053622Y04158D02*
X053491D01*
X053425Y041646D01*
Y041777D01*
X053491Y041842D01*
X053622D01*
X053688Y041777D01*
Y041646D01*
X053622Y04158D01*
X053294D02*
Y041646D01*
X053229D01*
Y04158D01*
X053294D01*
X052966Y041974D02*
Y04158D01*
Y041777D01*
X052901Y041842D01*
X05277D01*
X052704Y041777D01*
Y04158D01*
X052573Y041842D02*
Y041646D01*
X052507Y04158D01*
X05231D01*
Y041842D01*
X050815Y042033D02*
Y041639D01*
X050619D01*
X050553Y041705D01*
Y041967D01*
X050619Y042033D01*
X050815D01*
X050422Y041639D02*
X050291D01*
X050356D01*
Y041901D01*
X050422D01*
X050028D02*
X049897D01*
X049831Y041836D01*
Y041639D01*
X050028D01*
X050094Y041705D01*
X050028Y04177D01*
X049831D01*
X0497Y041508D02*
Y041901D01*
X049503D01*
X049438Y041836D01*
Y041705D01*
X049503Y041639D01*
X0497D01*
X049307Y041901D02*
Y041639D01*
Y04177D01*
X049241Y041836D01*
X049175Y041901D01*
X04911D01*
X048847Y041639D02*
X048716D01*
X048651Y041705D01*
Y041836D01*
X048716Y041901D01*
X048847D01*
X048913Y041836D01*
Y041705D01*
X048847Y041639D01*
X048126Y042033D02*
Y041639D01*
Y04177D01*
X047864Y042033D01*
X04806Y041836D01*
X047864Y041639D01*
X047667D02*
Y041967D01*
Y041836D01*
X047732D01*
X047601D01*
X047667D01*
Y041967D01*
X047601Y042033D01*
X047339Y041967D02*
Y041901D01*
X047404D01*
X047273D01*
X047339D01*
Y041705D01*
X047273Y041639D01*
X047076D02*
Y041705D01*
X047011D01*
Y041639D01*
X047076D01*
M02*
