%FSTAX24Y24*%
%MOIN*%
G70*
G01*
G75*
G04 Layer_Color=8388736*
%ADD10R,0.0374X0.0315*%
%ADD11R,0.0709X0.0709*%
%ADD12R,0.0472X0.0256*%
%ADD13R,0.0315X0.0374*%
%ADD14R,0.0670X0.1575*%
%ADD15C,0.0200*%
%ADD16C,0.0079*%
%ADD17C,0.2362*%
%ADD18C,0.0787*%
%ADD19R,0.0787X0.0787*%
%ADD20R,0.0591X0.0591*%
%ADD21C,0.0591*%
%ADD22C,0.1181*%
%ADD23C,0.1800*%
%ADD24C,0.0709*%
%ADD25C,0.0500*%
%ADD26R,0.0454X0.0395*%
%ADD27R,0.0789X0.0789*%
%ADD28R,0.0552X0.0336*%
%ADD29R,0.0395X0.0454*%
%ADD30R,0.0750X0.1655*%
%ADD31C,0.2442*%
%ADD32C,0.0867*%
%ADD33R,0.0867X0.0867*%
%ADD34R,0.0671X0.0671*%
%ADD35C,0.0671*%
%ADD36C,0.1261*%
%ADD37C,0.1880*%
%ADD38C,0.0789*%
%ADD39C,0.0580*%
D16*
X052997Y02013D02*
X05339D01*
X053259Y019999D01*
X05339Y019868D01*
X052997D01*
X05339Y019737D02*
Y019606D01*
Y019671D01*
X052997D01*
Y019737D01*
Y019606D01*
X053325Y019146D02*
X05339Y019212D01*
Y019343D01*
X053325Y019409D01*
X053062D01*
X052997Y019343D01*
Y019212D01*
X053062Y019146D01*
X052997Y019015D02*
X053259D01*
Y01895D01*
X053193Y018884D01*
X052997D01*
X053193D01*
X053259Y018818D01*
X053193Y018753D01*
X052997D01*
X053259Y018622D02*
X053062D01*
X052997Y018556D01*
Y018359D01*
X053259D01*
X053325Y018162D02*
X053259D01*
Y018228D01*
Y018097D01*
Y018162D01*
X053062D01*
X052997Y018097D01*
Y017703D02*
Y017834D01*
X053062Y0179D01*
X053193D01*
X053259Y017834D01*
Y017703D01*
X053193Y017638D01*
X053128D01*
Y0179D01*
X053259Y017506D02*
X052997D01*
X053128D01*
X053193Y017441D01*
X053259Y017375D01*
Y01731D01*
X052931Y017113D02*
Y016851D01*
X053259Y016719D02*
X052997Y016588D01*
X053259Y016457D01*
X052997Y016063D02*
Y016326D01*
X053259Y016063D01*
X053325D01*
X05339Y016129D01*
Y01626D01*
X053325Y016326D01*
X052099Y020614D02*
X051706D01*
Y020417D01*
X051771Y020351D01*
X052034D01*
X052099Y020417D01*
Y020614D01*
X051706Y02022D02*
Y020089D01*
Y020155D01*
X051968D01*
Y02022D01*
Y019827D02*
Y019695D01*
X051902Y01963D01*
X051706D01*
Y019827D01*
X051771Y019892D01*
X051837Y019827D01*
Y01963D01*
X051574Y019499D02*
X051968D01*
Y019302D01*
X051902Y019236D01*
X051771D01*
X051706Y019302D01*
Y019499D01*
X051968Y019105D02*
X051706D01*
X051837D01*
X051902Y019039D01*
X051968Y018974D01*
Y018908D01*
X051706Y018646D02*
Y018515D01*
X051771Y018449D01*
X051902D01*
X051968Y018515D01*
Y018646D01*
X051902Y018712D01*
X051771D01*
X051706Y018646D01*
X052099Y017924D02*
X051706D01*
X051837D01*
X052099Y017662D01*
X051902Y017859D01*
X051706Y017662D01*
Y017465D02*
X052034D01*
X051902D01*
Y017531D01*
Y0174D01*
Y017465D01*
X052034D01*
X052099Y0174D01*
X052034Y017137D02*
X051968D01*
Y017203D01*
Y017072D01*
Y017137D01*
X051771D01*
X051706Y017072D01*
Y016875D02*
X051771D01*
Y016809D01*
X051706D01*
Y016875D01*
X054659Y02048D02*
X054462D01*
X054397Y020415D01*
X054462Y020349D01*
X054397Y020284D01*
X054462Y020218D01*
X054659D01*
Y020087D02*
X054462D01*
X054397Y020021D01*
X054462Y019956D01*
X054397Y01989D01*
X054462Y019824D01*
X054659D01*
Y019693D02*
X054462D01*
X054397Y019628D01*
X054462Y019562D01*
X054397Y019496D01*
X054462Y019431D01*
X054659D01*
X054397Y0193D02*
X054462D01*
Y019234D01*
X054397D01*
Y0193D01*
X05479Y018709D02*
X054397D01*
Y018906D01*
X054462Y018972D01*
X054593D01*
X054659Y018906D01*
Y018709D01*
X054397Y018578D02*
Y018447D01*
Y018512D01*
X054659D01*
Y018578D01*
Y018184D02*
Y018053D01*
X054593Y017988D01*
X054397D01*
Y018184D01*
X054462Y01825D01*
X054528Y018184D01*
Y017988D01*
X054265Y017856D02*
X054659D01*
Y01766D01*
X054593Y017594D01*
X054462D01*
X054397Y01766D01*
Y017856D01*
X054659Y017463D02*
X054397D01*
X054528D01*
X054593Y017397D01*
X054659Y017332D01*
Y017266D01*
X054397Y017004D02*
Y016873D01*
X054462Y016807D01*
X054593D01*
X054659Y016873D01*
Y017004D01*
X054593Y017069D01*
X054462D01*
X054397Y017004D01*
Y016676D02*
X054462D01*
Y01661D01*
X054397D01*
Y016676D01*
X05479Y016348D02*
X054397D01*
X054593D01*
X054659Y016282D01*
Y016151D01*
X054593Y016085D01*
X054397D01*
X054659Y015954D02*
X054462D01*
X054397Y015889D01*
Y015692D01*
X054659D01*
D26*
X042323Y012953D02*
D03*
Y012244D02*
D03*
X048228Y012047D02*
D03*
Y012756D02*
D03*
X04626Y022402D02*
D03*
Y021693D02*
D03*
X047835Y021693D02*
D03*
Y022402D02*
D03*
Y020315D02*
D03*
Y021024D02*
D03*
Y018937D02*
D03*
Y019646D02*
D03*
Y017559D02*
D03*
Y018268D02*
D03*
Y016181D02*
D03*
Y01689D02*
D03*
X051575Y016102D02*
D03*
Y015394D02*
D03*
X050591Y022283D02*
D03*
Y022992D02*
D03*
Y020906D02*
D03*
Y021614D02*
D03*
Y019528D02*
D03*
Y020236D02*
D03*
Y01815D02*
D03*
Y018858D02*
D03*
Y016772D02*
D03*
Y01748D02*
D03*
Y015394D02*
D03*
Y016102D02*
D03*
X042126Y016181D02*
D03*
Y01689D02*
D03*
X042913Y016181D02*
D03*
Y01689D02*
D03*
X042126Y015512D02*
D03*
Y014803D02*
D03*
X042913Y015512D02*
D03*
Y014803D02*
D03*
D27*
X044409Y020472D02*
D03*
X046063D02*
D03*
D28*
X045601Y022421D02*
D03*
Y021673D02*
D03*
X044556Y022047D02*
D03*
X04869Y022638D02*
D03*
X049735Y022264D02*
D03*
Y023012D02*
D03*
X04869Y02126D02*
D03*
X049735Y020886D02*
D03*
Y021634D02*
D03*
X04869Y019882D02*
D03*
X049735Y019508D02*
D03*
Y020256D02*
D03*
X04869Y018504D02*
D03*
X049735Y01813D02*
D03*
Y018878D02*
D03*
X04869Y017126D02*
D03*
X049735Y016752D02*
D03*
Y0175D02*
D03*
X04869Y015748D02*
D03*
X049735Y015374D02*
D03*
Y016122D02*
D03*
D29*
X026614Y019291D02*
D03*
X027323D02*
D03*
X028583D02*
D03*
X029291D02*
D03*
D30*
X04325Y01085D02*
D03*
X04225D02*
D03*
X04915D02*
D03*
X04815D02*
D03*
D31*
X05315Y021654D02*
D03*
X023622D02*
D03*
D32*
X037433Y022654D02*
D03*
X036433D02*
D03*
X033433D02*
D03*
X037433Y020654D02*
D03*
X036433D02*
D03*
X043142Y022654D02*
D03*
X042142D02*
D03*
X039142D02*
D03*
X043142Y020654D02*
D03*
X042142D02*
D03*
X026378Y017776D02*
D03*
X036614Y018024D02*
D03*
Y016024D02*
D03*
D33*
X033433Y020654D02*
D03*
X039142D02*
D03*
D34*
X030512Y022343D02*
D03*
X026969D02*
D03*
D35*
X030512Y020965D02*
D03*
X026969D02*
D03*
D36*
X024878Y014524D02*
D03*
Y016274D02*
D03*
X027878Y016024D02*
D03*
Y012524D02*
D03*
X035114Y014524D02*
D03*
Y018024D02*
D03*
X038114D02*
D03*
Y012524D02*
D03*
D37*
X04565Y01545D02*
D03*
Y01295D02*
D03*
X04765Y0142D02*
D03*
D38*
X05215Y01115D02*
D03*
X050181Y013118D02*
D03*
X054118D02*
D03*
X051166D02*
D03*
X053134D02*
D03*
D39*
X04325Y01235D02*
D03*
X04915Y01215D02*
D03*
X04715Y01185D02*
D03*
X04625Y01775D02*
D03*
M02*
