%FSTAX24Y24*%
%MOIN*%
G70*
G01*
G75*
G04 Layer_Physical_Order=2*
G04 Layer_Color=16711680*
%ADD10R,0.0374X0.0315*%
%ADD11R,0.0709X0.0709*%
%ADD12R,0.0472X0.0256*%
%ADD13R,0.0315X0.0374*%
%ADD14R,0.0670X0.1575*%
%ADD15C,0.0200*%
%ADD16C,0.0079*%
%ADD17C,0.2362*%
%ADD18C,0.0787*%
%ADD19R,0.0787X0.0787*%
%ADD20R,0.0591X0.0591*%
%ADD21C,0.0591*%
%ADD22C,0.1181*%
%ADD23C,0.1800*%
%ADD24C,0.0709*%
%ADD25C,0.0500*%
D15*
X04325Y01235D02*
Y01305D01*
X04565Y01545D01*
X0494Y0141D02*
Y0146D01*
X04625Y01775D02*
X0494Y0146D01*
X04715Y01185D02*
X0494Y0141D01*
X04325Y01235D02*
X04495Y01065D01*
X04765D01*
X04915Y01215D01*
X049068Y013118D02*
X050181D01*
X0467Y01105D02*
X04755D01*
X04565Y0121D02*
Y01295D01*
Y0121D02*
X0467Y01105D01*
X04755D02*
X04805Y01155D01*
Y0121D01*
X049068Y013118D01*
D17*
X05315Y021654D02*
D03*
X023622D02*
D03*
D18*
X037433Y022654D02*
D03*
X036433D02*
D03*
X033433D02*
D03*
X037433Y020654D02*
D03*
X036433D02*
D03*
X043142Y022654D02*
D03*
X042142D02*
D03*
X039142D02*
D03*
X043142Y020654D02*
D03*
X042142D02*
D03*
X026378Y017776D02*
D03*
X036614Y018024D02*
D03*
Y016024D02*
D03*
D19*
X033433Y020654D02*
D03*
X039142D02*
D03*
D20*
X030512Y022343D02*
D03*
X026969D02*
D03*
D21*
X030512Y020965D02*
D03*
X026969D02*
D03*
D22*
X024878Y014524D02*
D03*
Y016274D02*
D03*
X027878Y016024D02*
D03*
Y012524D02*
D03*
X035114Y014524D02*
D03*
Y018024D02*
D03*
X038114D02*
D03*
Y012524D02*
D03*
D23*
X04565Y01545D02*
D03*
Y01295D02*
D03*
X04765Y0142D02*
D03*
D24*
X05215Y01115D02*
D03*
X050181Y013118D02*
D03*
X054118D02*
D03*
X051166D02*
D03*
X053134D02*
D03*
D25*
X04325Y01235D02*
D03*
X04915Y01215D02*
D03*
X04715Y01185D02*
D03*
X04625Y01775D02*
D03*
M02*
