%FSTAX24Y24*%
%MOIN*%
G70*
G01*
G75*
G04 Layer_Color=8388736*
%ADD10C,0.0100*%
%ADD11O,0.0276X0.0984*%
%ADD12R,0.0787X0.0571*%
%ADD13R,0.0591X0.0315*%
%ADD14R,0.0551X0.0472*%
%ADD15R,0.0472X0.0551*%
%ADD16R,0.0118X0.0591*%
%ADD17R,0.0591X0.0118*%
%ADD18C,0.0394*%
%ADD19R,0.0472X0.0532*%
%ADD20R,0.0532X0.0472*%
%ADD21R,0.1969X0.2756*%
%ADD22R,0.1732X0.0866*%
%ADD23R,0.1378X0.0748*%
%ADD24R,0.0177X0.0453*%
%ADD25R,0.1575X0.0670*%
%ADD26R,0.0945X0.0236*%
%ADD27O,0.0945X0.0236*%
%ADD28R,0.0512X0.0394*%
%ADD29C,0.0300*%
%ADD30C,0.0120*%
%ADD31C,0.0472*%
%ADD32C,0.0984*%
%ADD33R,0.0984X0.0984*%
%ADD34C,0.0650*%
%ADD35C,0.1161*%
%ADD36C,0.0591*%
%ADD37R,0.0591X0.0591*%
%ADD38C,0.0591*%
%ADD39R,0.0591X0.0591*%
%ADD40C,0.1181*%
%ADD41C,0.0787*%
%ADD42R,0.0728X0.0728*%
%ADD43C,0.0728*%
%ADD44R,0.0650X0.0650*%
%ADD45R,0.0787X0.0787*%
%ADD46C,0.1043*%
%ADD47R,0.0591X0.0591*%
%ADD48O,0.1890X0.0787*%
%ADD49O,0.0787X0.1890*%
%ADD50C,0.0700*%
%ADD51C,0.0800*%
%ADD52C,0.2362*%
%ADD53C,0.0240*%
%ADD54R,0.0374X0.0335*%
%ADD55O,0.0866X0.0236*%
%ADD56O,0.0709X0.0177*%
%ADD57O,0.0236X0.0906*%
%ADD58R,0.1634X0.0374*%
%ADD59R,0.3701X0.3228*%
%ADD60R,0.0906X0.0906*%
%ADD61R,0.0472X0.0256*%
%ADD62C,0.0200*%
%ADD63O,0.0356X0.1064*%
%ADD64R,0.0867X0.0651*%
%ADD65R,0.0671X0.0395*%
%ADD66R,0.0631X0.0552*%
%ADD67R,0.0552X0.0631*%
%ADD68R,0.0198X0.0671*%
%ADD69R,0.0671X0.0198*%
%ADD70C,0.0474*%
%ADD71R,0.0552X0.0612*%
%ADD72R,0.0612X0.0552*%
%ADD73R,0.2049X0.2836*%
%ADD74R,0.1812X0.0946*%
%ADD75R,0.1458X0.0828*%
%ADD76R,0.0257X0.0533*%
%ADD77R,0.1655X0.0750*%
%ADD78R,0.1025X0.0316*%
%ADD79O,0.1025X0.0316*%
%ADD80R,0.0592X0.0474*%
%ADD81C,0.0552*%
%ADD82C,0.1064*%
%ADD83R,0.1064X0.1064*%
%ADD84C,0.0730*%
%ADD85C,0.1241*%
%ADD86C,0.0671*%
%ADD87R,0.0671X0.0671*%
%ADD88C,0.0671*%
%ADD89R,0.0671X0.0671*%
%ADD90C,0.1261*%
%ADD91C,0.0867*%
%ADD92R,0.0808X0.0808*%
%ADD93C,0.0808*%
%ADD94R,0.0730X0.0730*%
%ADD95R,0.0867X0.0867*%
%ADD96C,0.1123*%
%ADD97R,0.0671X0.0671*%
%ADD98O,0.1970X0.0867*%
%ADD99O,0.0867X0.1970*%
%ADD100C,0.0780*%
%ADD101C,0.0880*%
%ADD102C,0.2442*%
%ADD103C,0.0320*%
D63*
X0443Y018685D02*
D03*
X0448D02*
D03*
X0453D02*
D03*
X0458D02*
D03*
X0463D02*
D03*
X0468D02*
D03*
X0473D02*
D03*
X0478D02*
D03*
X0443Y020615D02*
D03*
X0448D02*
D03*
X0453D02*
D03*
X0458D02*
D03*
X0463D02*
D03*
X0468D02*
D03*
X0473D02*
D03*
X0478D02*
D03*
X04895Y018677D02*
D03*
X04945D02*
D03*
X04995D02*
D03*
X05045D02*
D03*
X05095D02*
D03*
X05145D02*
D03*
X05195D02*
D03*
X05245D02*
D03*
X04895Y020606D02*
D03*
X04945D02*
D03*
X04995D02*
D03*
X05045D02*
D03*
X05095D02*
D03*
X05145D02*
D03*
X05195D02*
D03*
X05245D02*
D03*
D64*
X050316Y034074D02*
D03*
X053544D02*
D03*
X050276Y02872D02*
D03*
X053544D02*
D03*
D65*
X0513Y031033D02*
D03*
Y030167D02*
D03*
Y033198D02*
D03*
Y031899D02*
D03*
Y0306D02*
D03*
Y031466D02*
D03*
Y032332D02*
D03*
Y032765D02*
D03*
D66*
X04245Y019704D02*
D03*
Y018996D02*
D03*
X0434Y019704D02*
D03*
Y018996D02*
D03*
D67*
X043204Y01785D02*
D03*
X042496D02*
D03*
D68*
X041562Y027032D02*
D03*
X041365D02*
D03*
X041168D02*
D03*
X040972D02*
D03*
X040775D02*
D03*
X040578D02*
D03*
X040381D02*
D03*
X040184D02*
D03*
X039987D02*
D03*
X039791D02*
D03*
X039594D02*
D03*
X039397D02*
D03*
X0392D02*
D03*
X039003D02*
D03*
X038806D02*
D03*
X038609D02*
D03*
X038413D02*
D03*
X038216D02*
D03*
X038019D02*
D03*
X037822D02*
D03*
X037625D02*
D03*
X037428D02*
D03*
X037232D02*
D03*
X037035D02*
D03*
X036838D02*
D03*
Y020968D02*
D03*
X037035D02*
D03*
X037232D02*
D03*
X037428D02*
D03*
X037625D02*
D03*
X037822D02*
D03*
X038019D02*
D03*
X038216D02*
D03*
X038413D02*
D03*
X038609D02*
D03*
X038806D02*
D03*
X039003D02*
D03*
X0392D02*
D03*
X039397D02*
D03*
X039594D02*
D03*
X039791D02*
D03*
X039987D02*
D03*
X040184D02*
D03*
X040381D02*
D03*
X040578D02*
D03*
X040775D02*
D03*
X040972D02*
D03*
X041168D02*
D03*
X041365D02*
D03*
X041562D02*
D03*
D69*
X036168Y026362D02*
D03*
Y026165D02*
D03*
Y025968D02*
D03*
Y025772D02*
D03*
Y025575D02*
D03*
Y025378D02*
D03*
Y025181D02*
D03*
Y024984D02*
D03*
Y024787D02*
D03*
Y024591D02*
D03*
Y024394D02*
D03*
Y024197D02*
D03*
Y024D02*
D03*
Y023803D02*
D03*
Y023606D02*
D03*
Y023409D02*
D03*
Y023213D02*
D03*
Y023016D02*
D03*
Y022819D02*
D03*
Y022622D02*
D03*
Y022425D02*
D03*
Y022228D02*
D03*
Y022032D02*
D03*
Y021835D02*
D03*
Y021638D02*
D03*
X042231D02*
D03*
Y021835D02*
D03*
Y022032D02*
D03*
Y022228D02*
D03*
Y022425D02*
D03*
Y022622D02*
D03*
Y022819D02*
D03*
Y023016D02*
D03*
Y023213D02*
D03*
Y023409D02*
D03*
Y023606D02*
D03*
Y023803D02*
D03*
Y024D02*
D03*
Y024197D02*
D03*
Y024394D02*
D03*
Y024591D02*
D03*
Y024787D02*
D03*
Y024984D02*
D03*
Y025181D02*
D03*
Y025378D02*
D03*
Y025575D02*
D03*
Y025772D02*
D03*
Y025968D02*
D03*
Y026165D02*
D03*
Y026362D02*
D03*
D70*
X036168Y027032D02*
D03*
X042231Y020968D02*
D03*
D71*
X029Y0279D02*
D03*
X028291D02*
D03*
X029Y02715D02*
D03*
X028291D02*
D03*
X033354Y0234D02*
D03*
X032646D02*
D03*
X029Y02995D02*
D03*
X028291D02*
D03*
X029Y0292D02*
D03*
X028291D02*
D03*
X037296Y01955D02*
D03*
X038004D02*
D03*
D72*
X0432Y023246D02*
D03*
Y023954D02*
D03*
X0322Y0191D02*
D03*
Y018391D02*
D03*
D73*
X022013Y01715D02*
D03*
X026187D02*
D03*
D74*
X028398Y0244D02*
D03*
X031902D02*
D03*
D75*
X029096Y0208D02*
D03*
X031104D02*
D03*
D76*
X051835Y035368D02*
D03*
X05152D02*
D03*
Y0346D02*
D03*
X051835D02*
D03*
X05215D02*
D03*
X052465D02*
D03*
Y035368D02*
D03*
X05215D02*
D03*
D77*
X06265Y0308D02*
D03*
Y0318D02*
D03*
D78*
X027484Y0327D02*
D03*
D79*
Y0332D02*
D03*
Y0337D02*
D03*
Y0342D02*
D03*
X025516Y0327D02*
D03*
Y0332D02*
D03*
Y0337D02*
D03*
Y0342D02*
D03*
D80*
X0237Y032944D02*
D03*
Y032156D02*
D03*
D81*
X04325Y02045D02*
D03*
X042463D02*
D03*
D82*
X053966Y01635D02*
D03*
X056722D02*
D03*
X052588D02*
D03*
X055344D02*
D03*
X0581D02*
D03*
X044328D02*
D03*
X047084D02*
D03*
X04295D02*
D03*
X045706D02*
D03*
X048462D02*
D03*
X026778Y0364D02*
D03*
X029534D02*
D03*
X03229D02*
D03*
X033668D02*
D03*
X028156D02*
D03*
X035046D02*
D03*
X030912D02*
D03*
X036424D02*
D03*
X03879Y01635D02*
D03*
X036034D02*
D03*
X033278D02*
D03*
X0319D02*
D03*
X037412D02*
D03*
X030522D02*
D03*
X034656D02*
D03*
X029144D02*
D03*
X044612Y0364D02*
D03*
X041856D02*
D03*
X04599D02*
D03*
X043234D02*
D03*
X040478D02*
D03*
X050028D02*
D03*
X052784D02*
D03*
X051406D02*
D03*
X054162D02*
D03*
D83*
X059478Y01635D02*
D03*
X04984D02*
D03*
X0254Y0364D02*
D03*
X040168Y01635D02*
D03*
X0391Y0364D02*
D03*
X04865D02*
D03*
D84*
X0573Y031548D02*
D03*
X0563D02*
D03*
X05955D02*
D03*
X05855D02*
D03*
X047Y0317D02*
D03*
X046D02*
D03*
X0438D02*
D03*
X0448D02*
D03*
X03625Y03505D02*
D03*
Y03405D02*
D03*
X03535Y03275D02*
D03*
X03635D02*
D03*
X05255Y0271D02*
D03*
Y0261D02*
D03*
X05155Y0271D02*
D03*
Y0261D02*
D03*
X05055Y0271D02*
D03*
Y0261D02*
D03*
X04955Y0271D02*
D03*
Y0261D02*
D03*
X04855Y0271D02*
D03*
D85*
X05655Y036448D02*
D03*
X06105D02*
D03*
X02347Y0262D02*
D03*
Y0307D02*
D03*
D86*
X05955Y033948D02*
D03*
X05855D02*
D03*
X05905Y032948D02*
D03*
X05805D02*
D03*
X05755Y033948D02*
D03*
X06005Y032948D02*
D03*
X05705D02*
D03*
X02597Y0292D02*
D03*
Y0282D02*
D03*
X02697Y0287D02*
D03*
Y0277D02*
D03*
X02597Y0272D02*
D03*
X02697Y0297D02*
D03*
Y0267D02*
D03*
X02215Y02595D02*
D03*
X02147Y02695D02*
D03*
X02215Y02995D02*
D03*
X02147Y03095D02*
D03*
D87*
X06055Y033948D02*
D03*
D88*
X05765Y01775D02*
D03*
X05865D02*
D03*
X05665D02*
D03*
X05565D02*
D03*
X05465D02*
D03*
X05365D02*
D03*
X06215Y01795D02*
D03*
Y01895D02*
D03*
Y02095D02*
D03*
D89*
X05965Y01775D02*
D03*
D90*
X06015Y0264D02*
D03*
X058182D02*
D03*
D91*
X0346Y021961D02*
D03*
Y020039D02*
D03*
X039361Y0299D02*
D03*
X037439D02*
D03*
X0459Y033D02*
D03*
X0469D02*
D03*
X0429Y035D02*
D03*
X0459D02*
D03*
X0469D02*
D03*
X04175D02*
D03*
X04075D02*
D03*
X03775D02*
D03*
X04175Y033D02*
D03*
X04075D02*
D03*
D92*
X05568Y0227D02*
D03*
D93*
X05312D02*
D03*
D94*
X04855Y0261D02*
D03*
D95*
X0429Y033D02*
D03*
X03775D02*
D03*
D96*
X02467Y0254D02*
D03*
Y0315D02*
D03*
D97*
X02597Y0302D02*
D03*
D98*
X023523Y02111D02*
D03*
D99*
X022421Y023D02*
D03*
X024704D02*
D03*
D100*
X02146Y034435D02*
D03*
Y032665D02*
D03*
D101*
X02244Y03493D02*
D03*
Y03217D02*
D03*
D102*
X0225Y0368D02*
D03*
X062Y01575D02*
D03*
D103*
X0555Y035D02*
D03*
X05865Y03725D02*
D03*
X05655Y0354D02*
D03*
X0619Y0271D02*
D03*
X03395Y02645D02*
D03*
X0352Y0245D02*
D03*
X02445Y0334D02*
D03*
Y03395D02*
D03*
X03535Y0152D02*
D03*
X034D02*
D03*
X03535Y0249D02*
D03*
X05445Y02115D02*
D03*
X05545Y02645D02*
D03*
X055Y02695D02*
D03*
X06285Y0241D02*
D03*
X0491Y0343D02*
D03*
X0496Y0339D02*
D03*
X05285Y03455D02*
D03*
X0521Y03405D02*
D03*
X0516D02*
D03*
X0511Y0344D02*
D03*
X0285Y03115D02*
D03*
X025991Y031891D02*
D03*
X0232Y0294D02*
D03*
X02185Y0289D02*
D03*
X0216Y02795D02*
D03*
X02275Y02465D02*
D03*
X02155Y02415D02*
D03*
X02395D02*
D03*
X0221Y0251D02*
D03*
X0264Y0244D02*
D03*
X0314Y0225D02*
D03*
X0365Y01895D02*
D03*
X038609Y019859D02*
D03*
X02665Y0248D02*
D03*
X03155Y023D02*
D03*
X03595Y0193D02*
D03*
X03825Y02015D02*
D03*
X0266Y02235D02*
D03*
X03195Y02775D02*
D03*
Y02455D02*
D03*
X028291Y02995D02*
D03*
Y0292D02*
D03*
Y02715D02*
D03*
Y0279D02*
D03*
X03565Y02335D02*
D03*
X033759Y023409D02*
D03*
X02595Y016881D02*
D03*
X02355Y0155D02*
D03*
X028481Y018219D02*
D03*
Y019819D02*
D03*
X02655Y0152D02*
D03*
X03165Y0191D02*
D03*
X0523Y021441D02*
D03*
X051591Y02145D02*
D03*
X05095Y021391D02*
D03*
X0504D02*
D03*
X05195Y019891D02*
D03*
X04995Y0202D02*
D03*
X037822Y026472D02*
D03*
X039003Y021497D02*
D03*
X039Y02645D02*
D03*
X0378Y0215D02*
D03*
X0416Y02495D02*
D03*
X04165Y024D02*
D03*
X042737Y023213D02*
D03*
X04155Y02565D02*
D03*
X0386Y02645D02*
D03*
X0378Y0247D02*
D03*
X03685Y0244D02*
D03*
X03775Y0235D02*
D03*
X037131Y022819D02*
D03*
X03835Y0227D02*
D03*
X0408Y02645D02*
D03*
X04065Y0253D02*
D03*
X040184Y021684D02*
D03*
X041672Y022622D02*
D03*
X0409Y02195D02*
D03*
X03105Y034D02*
D03*
Y03255D02*
D03*
X0307Y034D02*
D03*
Y0323D02*
D03*
X0302Y0339D02*
D03*
Y03205D02*
D03*
X0297Y0339D02*
D03*
Y03175D02*
D03*
X03305Y02775D02*
D03*
X03255Y02845D02*
D03*
X03205Y02875D02*
D03*
X03155Y02905D02*
D03*
X0326Y0229D02*
D03*
X03125Y0304D02*
D03*
X0308Y0303D02*
D03*
X03025D02*
D03*
X0297Y03025D02*
D03*
X0355Y021168D02*
D03*
X04955Y0223D02*
D03*
X0523Y0231D02*
D03*
X05015D02*
D03*
X04815Y02325D02*
D03*
X04075Y02865D02*
D03*
X0401Y0288D02*
D03*
X0389Y0276D02*
D03*
X0402D02*
D03*
X0401Y0293D02*
D03*
Y0297D02*
D03*
X0402Y02645D02*
D03*
X036962Y026362D02*
D03*
X03695Y02585D02*
D03*
X03565Y02745D02*
D03*
X0353Y027D02*
D03*
X0349Y0274D02*
D03*
X036831Y025181D02*
D03*
X03455Y02695D02*
D03*
X04455Y0266D02*
D03*
X0292Y0339D02*
D03*
X02565Y01965D02*
D03*
X0284Y023096D02*
D03*
X03025Y0197D02*
D03*
X0291Y01755D02*
D03*
X0283Y02215D02*
D03*
X03055D02*
D03*
X03365Y0352D02*
D03*
X02965Y021354D02*
D03*
X03685Y02205D02*
D03*
X039397Y020153D02*
D03*
X0394Y01945D02*
D03*
X0396Y01895D02*
D03*
X04015Y0185D02*
D03*
X0402Y01905D02*
D03*
X04245Y0185D02*
D03*
X04195Y01785D02*
D03*
X04685Y02395D02*
D03*
Y0257D02*
D03*
X0378Y028D02*
D03*
X043Y0251D02*
D03*
X03785Y02845D02*
D03*
X0438Y0228D02*
D03*
X04815Y0198D02*
D03*
X0453Y0202D02*
D03*
X0473Y0199D02*
D03*
X04575Y0214D02*
D03*
X0463D02*
D03*
X046941Y021459D02*
D03*
X04765Y02145D02*
D03*
X0478Y01805D02*
D03*
X04775Y0145D02*
D03*
X0473Y01785D02*
D03*
X05195Y01765D02*
D03*
X05245Y01795D02*
D03*
X05125Y0145D02*
D03*
X0528Y019791D02*
D03*
X058999Y037525D02*
D03*
X059099Y036025D02*
D03*
X059062Y036538D02*
D03*
X04415Y0197D02*
D03*
X0515Y0228D02*
D03*
X04525Y02155D02*
D03*
X0447Y0198D02*
D03*
X054Y02535D02*
D03*
X05375Y0236D02*
D03*
X0542Y0239D02*
D03*
X0413Y0309D02*
D03*
X04185Y03165D02*
D03*
X04175Y0305D02*
D03*
X0424Y03055D02*
D03*
X0523Y0305D02*
D03*
X052048Y033198D02*
D03*
X05285Y03245D02*
D03*
X05005Y0335D02*
D03*
X0531Y0266D02*
D03*
X05285Y02175D02*
D03*
X0513Y02185D02*
D03*
X04265Y0297D02*
D03*
X04685D02*
D03*
X0431Y0293D02*
D03*
X0473D02*
D03*
X04415Y0276D02*
D03*
X0438Y02795D02*
D03*
X05155Y02815D02*
D03*
X04415Y0283D02*
D03*
X0436Y0287D02*
D03*
X0486Y01945D02*
D03*
X0492Y01985D02*
D03*
X06205Y0247D02*
D03*
X0491Y0287D02*
D03*
X0495Y0284D02*
D03*
X0423Y0272D02*
D03*
X04385D02*
D03*
X0478D02*
D03*
Y0297D02*
D03*
X0508D02*
D03*
X04855Y0292D02*
D03*
X05905Y0308D02*
D03*
X05795Y03115D02*
D03*
X0586Y03025D02*
D03*
X0591Y0297D02*
D03*
X06155Y0342D02*
D03*
X0553Y0375D02*
D03*
X04455Y02605D02*
D03*
X0531Y0298D02*
D03*
X04175Y01495D02*
D03*
X0566Y018611D02*
D03*
X05765Y018617D02*
D03*
X04125Y0157D02*
D03*
X0556Y018611D02*
D03*
X05365D02*
D03*
X05345Y0212D02*
D03*
X05965Y02345D02*
D03*
M02*
