%FSTAX24Y24*%
%MOIN*%
G70*
G01*
G75*
G04 Layer_Color=8421504*
%ADD10C,0.0100*%
%ADD11O,0.0276X0.0984*%
%ADD12R,0.0787X0.0571*%
%ADD13R,0.0591X0.0315*%
%ADD14R,0.0551X0.0472*%
%ADD15R,0.0472X0.0551*%
%ADD16R,0.0118X0.0591*%
%ADD17R,0.0591X0.0118*%
%ADD18C,0.0394*%
%ADD19R,0.0472X0.0532*%
%ADD20R,0.0532X0.0472*%
%ADD21R,0.1969X0.2756*%
%ADD22R,0.1732X0.0866*%
%ADD23R,0.1378X0.0748*%
%ADD24R,0.0177X0.0453*%
%ADD25R,0.1575X0.0670*%
%ADD26R,0.0945X0.0236*%
%ADD27O,0.0945X0.0236*%
%ADD28R,0.0512X0.0394*%
%ADD29C,0.0300*%
%ADD30C,0.0120*%
%ADD31C,0.0472*%
%ADD32C,0.0984*%
%ADD33R,0.0984X0.0984*%
%ADD34C,0.0650*%
%ADD35C,0.1161*%
%ADD36C,0.0591*%
%ADD37R,0.0591X0.0591*%
%ADD38C,0.0591*%
%ADD39R,0.0591X0.0591*%
%ADD40C,0.1181*%
%ADD41C,0.0787*%
%ADD42R,0.0728X0.0728*%
%ADD43C,0.0728*%
%ADD44R,0.0650X0.0650*%
%ADD45R,0.0787X0.0787*%
%ADD46C,0.1043*%
%ADD47R,0.0591X0.0591*%
%ADD48O,0.1890X0.0787*%
%ADD49O,0.0787X0.1890*%
%ADD50C,0.0700*%
%ADD51C,0.0800*%
%ADD52C,0.2362*%
%ADD53C,0.0240*%
%ADD54R,0.0374X0.0335*%
%ADD55O,0.0866X0.0236*%
%ADD56O,0.0709X0.0177*%
%ADD57O,0.0236X0.0906*%
%ADD58R,0.1634X0.0374*%
%ADD59R,0.3701X0.3228*%
%ADD60R,0.0906X0.0906*%
%ADD61R,0.0472X0.0256*%
%ADD62C,0.0200*%
D11*
X0443Y018685D02*
D03*
X0448D02*
D03*
X0453D02*
D03*
X0458D02*
D03*
X0463D02*
D03*
X0468D02*
D03*
X0473D02*
D03*
X0478D02*
D03*
X0443Y020615D02*
D03*
X0448D02*
D03*
X0453D02*
D03*
X0458D02*
D03*
X0463D02*
D03*
X0468D02*
D03*
X0473D02*
D03*
X0478D02*
D03*
X04895Y018677D02*
D03*
X04945D02*
D03*
X04995D02*
D03*
X05045D02*
D03*
X05095D02*
D03*
X05145D02*
D03*
X05195D02*
D03*
X05245D02*
D03*
X04895Y020606D02*
D03*
X04945D02*
D03*
X04995D02*
D03*
X05045D02*
D03*
X05095D02*
D03*
X05145D02*
D03*
X05195D02*
D03*
X05245D02*
D03*
D12*
X050316Y034074D02*
D03*
X053544D02*
D03*
X050276Y02872D02*
D03*
X053544D02*
D03*
D13*
X0513Y031033D02*
D03*
Y030167D02*
D03*
Y033198D02*
D03*
Y031899D02*
D03*
Y0306D02*
D03*
Y031466D02*
D03*
Y032332D02*
D03*
Y032765D02*
D03*
D14*
X04245Y019704D02*
D03*
Y018996D02*
D03*
X0434Y019704D02*
D03*
Y018996D02*
D03*
D15*
X043204Y01785D02*
D03*
X042496D02*
D03*
D16*
X041562Y027032D02*
D03*
X041365D02*
D03*
X041168D02*
D03*
X040972D02*
D03*
X040775D02*
D03*
X040578D02*
D03*
X040381D02*
D03*
X040184D02*
D03*
X039987D02*
D03*
X039791D02*
D03*
X039594D02*
D03*
X039397D02*
D03*
X0392D02*
D03*
X039003D02*
D03*
X038806D02*
D03*
X038609D02*
D03*
X038413D02*
D03*
X038216D02*
D03*
X038019D02*
D03*
X037822D02*
D03*
X037625D02*
D03*
X037428D02*
D03*
X037232D02*
D03*
X037035D02*
D03*
X036838D02*
D03*
Y020968D02*
D03*
X037035D02*
D03*
X037232D02*
D03*
X037428D02*
D03*
X037625D02*
D03*
X037822D02*
D03*
X038019D02*
D03*
X038216D02*
D03*
X038413D02*
D03*
X038609D02*
D03*
X038806D02*
D03*
X039003D02*
D03*
X0392D02*
D03*
X039397D02*
D03*
X039594D02*
D03*
X039791D02*
D03*
X039987D02*
D03*
X040184D02*
D03*
X040381D02*
D03*
X040578D02*
D03*
X040775D02*
D03*
X040972D02*
D03*
X041168D02*
D03*
X041365D02*
D03*
X041562D02*
D03*
D17*
X036168Y026362D02*
D03*
Y026165D02*
D03*
Y025968D02*
D03*
Y025772D02*
D03*
Y025575D02*
D03*
Y025378D02*
D03*
Y025181D02*
D03*
Y024984D02*
D03*
Y024787D02*
D03*
Y024591D02*
D03*
Y024394D02*
D03*
Y024197D02*
D03*
Y024D02*
D03*
Y023803D02*
D03*
Y023606D02*
D03*
Y023409D02*
D03*
Y023213D02*
D03*
Y023016D02*
D03*
Y022819D02*
D03*
Y022622D02*
D03*
Y022425D02*
D03*
Y022228D02*
D03*
Y022032D02*
D03*
Y021835D02*
D03*
Y021638D02*
D03*
X042231D02*
D03*
Y021835D02*
D03*
Y022032D02*
D03*
Y022228D02*
D03*
Y022425D02*
D03*
Y022622D02*
D03*
Y022819D02*
D03*
Y023016D02*
D03*
Y023213D02*
D03*
Y023409D02*
D03*
Y023606D02*
D03*
Y023803D02*
D03*
Y024D02*
D03*
Y024197D02*
D03*
Y024394D02*
D03*
Y024591D02*
D03*
Y024787D02*
D03*
Y024984D02*
D03*
Y025181D02*
D03*
Y025378D02*
D03*
Y025575D02*
D03*
Y025772D02*
D03*
Y025968D02*
D03*
Y026165D02*
D03*
Y026362D02*
D03*
D18*
X036168Y027032D02*
D03*
X042231Y020968D02*
D03*
D19*
X029Y0279D02*
D03*
X028291D02*
D03*
X029Y02715D02*
D03*
X028291D02*
D03*
X033354Y0234D02*
D03*
X032646D02*
D03*
X029Y02995D02*
D03*
X028291D02*
D03*
X029Y0292D02*
D03*
X028291D02*
D03*
X037296Y01955D02*
D03*
X038004D02*
D03*
D20*
X0432Y023246D02*
D03*
Y023954D02*
D03*
X0322Y0191D02*
D03*
Y018391D02*
D03*
D21*
X022013Y01715D02*
D03*
X026187D02*
D03*
D22*
X028398Y0244D02*
D03*
X031902D02*
D03*
D23*
X029096Y0208D02*
D03*
X031104D02*
D03*
D24*
X051835Y035368D02*
D03*
X05152D02*
D03*
Y0346D02*
D03*
X051835D02*
D03*
X05215D02*
D03*
X052465D02*
D03*
Y035368D02*
D03*
X05215D02*
D03*
D25*
X06265Y0308D02*
D03*
Y0318D02*
D03*
D26*
X027484Y0327D02*
D03*
D27*
Y0332D02*
D03*
Y0337D02*
D03*
Y0342D02*
D03*
X025516Y0327D02*
D03*
Y0332D02*
D03*
Y0337D02*
D03*
Y0342D02*
D03*
D28*
X0237Y032944D02*
D03*
Y032156D02*
D03*
M02*
