%FSTAX24Y24*%
%MOIN*%
G70*
G01*
G75*
G04 Layer_Color=128*
%ADD10C,0.0100*%
%ADD11O,0.0276X0.0984*%
%ADD12R,0.0787X0.0571*%
%ADD13R,0.0591X0.0315*%
%ADD14R,0.0551X0.0472*%
%ADD15R,0.0472X0.0551*%
%ADD16R,0.0118X0.0591*%
%ADD17R,0.0591X0.0118*%
%ADD18C,0.0394*%
%ADD19R,0.0472X0.0532*%
%ADD20R,0.0532X0.0472*%
%ADD21R,0.1969X0.2756*%
%ADD22R,0.1732X0.0866*%
%ADD23R,0.1378X0.0748*%
%ADD24R,0.0177X0.0453*%
%ADD25R,0.1575X0.0670*%
%ADD26R,0.0945X0.0236*%
%ADD27O,0.0945X0.0236*%
%ADD28R,0.0512X0.0394*%
%ADD29C,0.0300*%
%ADD30C,0.0120*%
%ADD31C,0.0472*%
%ADD32C,0.0984*%
%ADD33R,0.0984X0.0984*%
%ADD34C,0.0650*%
%ADD35C,0.1161*%
%ADD36C,0.0591*%
%ADD37R,0.0591X0.0591*%
%ADD38C,0.0591*%
%ADD39R,0.0591X0.0591*%
%ADD40C,0.1181*%
%ADD41C,0.0787*%
%ADD42R,0.0728X0.0728*%
%ADD43C,0.0728*%
%ADD44R,0.0650X0.0650*%
%ADD45R,0.0787X0.0787*%
%ADD46C,0.1043*%
%ADD47R,0.0591X0.0591*%
%ADD48O,0.1890X0.0787*%
%ADD49O,0.0787X0.1890*%
%ADD50C,0.0700*%
%ADD51C,0.0800*%
%ADD52C,0.2362*%
%ADD53C,0.0240*%
%ADD54R,0.0374X0.0335*%
%ADD55O,0.0866X0.0236*%
%ADD56O,0.0709X0.0177*%
%ADD57O,0.0236X0.0906*%
%ADD58R,0.1634X0.0374*%
%ADD59R,0.3701X0.3228*%
%ADD60R,0.0906X0.0906*%
%ADD61R,0.0472X0.0256*%
%ADD62C,0.0200*%
%ADD63O,0.0356X0.1064*%
%ADD64R,0.0867X0.0651*%
%ADD65R,0.0671X0.0395*%
%ADD66R,0.0631X0.0552*%
%ADD67R,0.0552X0.0631*%
%ADD68R,0.0198X0.0671*%
%ADD69R,0.0671X0.0198*%
%ADD70C,0.0474*%
%ADD71R,0.0552X0.0612*%
%ADD72R,0.0612X0.0552*%
%ADD73R,0.2049X0.2836*%
%ADD74R,0.1812X0.0946*%
%ADD75R,0.1458X0.0828*%
%ADD76R,0.0257X0.0533*%
%ADD77R,0.1655X0.0750*%
%ADD78R,0.1025X0.0316*%
%ADD79O,0.1025X0.0316*%
%ADD80R,0.0592X0.0474*%
%ADD81C,0.0552*%
%ADD82C,0.1064*%
%ADD83R,0.1064X0.1064*%
%ADD84C,0.0730*%
%ADD85C,0.1241*%
%ADD86C,0.0671*%
%ADD87R,0.0671X0.0671*%
%ADD88C,0.0671*%
%ADD89R,0.0671X0.0671*%
%ADD90C,0.1261*%
%ADD91C,0.0867*%
%ADD92R,0.0808X0.0808*%
%ADD93C,0.0808*%
%ADD94R,0.0730X0.0730*%
%ADD95R,0.0867X0.0867*%
%ADD96C,0.1123*%
%ADD97R,0.0671X0.0671*%
%ADD98O,0.1970X0.0867*%
%ADD99O,0.0867X0.1970*%
%ADD100C,0.0780*%
%ADD101C,0.0880*%
%ADD102C,0.2442*%
%ADD103C,0.0320*%
%ADD104R,0.0454X0.0415*%
%ADD105O,0.0946X0.0316*%
%ADD106O,0.0789X0.0257*%
%ADD107O,0.0316X0.0986*%
%ADD108R,0.1714X0.0454*%
%ADD109R,0.3781X0.3308*%
%ADD110R,0.0986X0.0986*%
%ADD111R,0.0552X0.0336*%
D14*
X04765Y0186D02*
D03*
Y019309D02*
D03*
X04655Y018591D02*
D03*
Y0193D02*
D03*
X0453Y0186D02*
D03*
Y019309D02*
D03*
X039Y021991D02*
D03*
Y0227D02*
D03*
X0393Y02595D02*
D03*
Y025241D02*
D03*
X04995Y018591D02*
D03*
Y0193D02*
D03*
X04105Y024841D02*
D03*
Y02555D02*
D03*
X0402Y026D02*
D03*
Y025291D02*
D03*
X0378Y022D02*
D03*
Y022709D02*
D03*
X0512Y018583D02*
D03*
Y019291D02*
D03*
X0523Y018591D02*
D03*
Y0193D02*
D03*
X02465Y02725D02*
D03*
Y027959D02*
D03*
Y028941D02*
D03*
Y02965D02*
D03*
X0334Y020046D02*
D03*
Y020754D02*
D03*
Y022354D02*
D03*
Y021646D02*
D03*
X03845Y029746D02*
D03*
Y030454D02*
D03*
X03645Y029696D02*
D03*
Y030404D02*
D03*
D15*
X04765Y02075D02*
D03*
X046941D02*
D03*
X0454D02*
D03*
X046109D02*
D03*
X061504Y03525D02*
D03*
X060796D02*
D03*
X04115Y024D02*
D03*
X040441D02*
D03*
X0374Y0252D02*
D03*
X038109D02*
D03*
X037791Y026D02*
D03*
X0385D02*
D03*
X041159Y0226D02*
D03*
X04045D02*
D03*
X05005Y020741D02*
D03*
X050759D02*
D03*
X0523D02*
D03*
X051591D02*
D03*
X025991Y0311D02*
D03*
X0267D02*
D03*
X029Y0279D02*
D03*
X028291D02*
D03*
X029Y02715D02*
D03*
X028291D02*
D03*
X029Y02995D02*
D03*
X028291D02*
D03*
X029Y0292D02*
D03*
X028291D02*
D03*
D19*
X04145Y0174D02*
D03*
X040741D02*
D03*
X04145Y0182D02*
D03*
X040741D02*
D03*
X051496Y0222D02*
D03*
X052204D02*
D03*
X022446Y0288D02*
D03*
X023154D02*
D03*
X022441Y02795D02*
D03*
X02315D02*
D03*
D20*
X05625Y033748D02*
D03*
Y033039D02*
D03*
X0605Y032002D02*
D03*
Y031293D02*
D03*
X0515Y023196D02*
D03*
Y023904D02*
D03*
X0584Y027796D02*
D03*
Y028504D02*
D03*
X0326Y022359D02*
D03*
Y02165D02*
D03*
X03225Y019296D02*
D03*
Y020004D02*
D03*
X05365Y03095D02*
D03*
Y031659D02*
D03*
Y033154D02*
D03*
Y032446D02*
D03*
X06245Y027059D02*
D03*
Y02635D02*
D03*
D24*
X03473Y0352D02*
D03*
X035045D02*
D03*
Y034432D02*
D03*
X03473D02*
D03*
X034415D02*
D03*
X0341D02*
D03*
Y0352D02*
D03*
X034415D02*
D03*
X02783Y0354D02*
D03*
X028145D02*
D03*
Y034632D02*
D03*
X02783D02*
D03*
X027515D02*
D03*
X0272D02*
D03*
Y0354D02*
D03*
X027515D02*
D03*
D28*
X0257Y033544D02*
D03*
Y032756D02*
D03*
D54*
X05365Y018611D02*
D03*
Y019989D02*
D03*
Y0193D02*
D03*
X0546Y018611D02*
D03*
Y019989D02*
D03*
Y0193D02*
D03*
X0556Y018611D02*
D03*
Y019989D02*
D03*
Y0193D02*
D03*
X0566Y018611D02*
D03*
Y019989D02*
D03*
Y0193D02*
D03*
X05765Y018617D02*
D03*
Y019994D02*
D03*
Y019306D02*
D03*
D55*
X057841Y035038D02*
D03*
Y035538D02*
D03*
Y036038D02*
D03*
Y036538D02*
D03*
Y037038D02*
D03*
Y037538D02*
D03*
Y038038D02*
D03*
X059731Y035038D02*
D03*
Y035538D02*
D03*
Y036038D02*
D03*
Y036538D02*
D03*
Y037038D02*
D03*
Y037538D02*
D03*
Y038038D02*
D03*
D56*
X043026Y019784D02*
D03*
Y019528D02*
D03*
Y019272D02*
D03*
Y019016D02*
D03*
X041274Y019784D02*
D03*
Y019528D02*
D03*
Y019272D02*
D03*
Y019016D02*
D03*
D57*
X02905Y03485D02*
D03*
X02955D02*
D03*
X03005D02*
D03*
X03055D02*
D03*
X03105D02*
D03*
X03155D02*
D03*
X03205D02*
D03*
X03255D02*
D03*
X03305D02*
D03*
X02905Y031031D02*
D03*
X02955D02*
D03*
X03005D02*
D03*
X03055D02*
D03*
X03105D02*
D03*
X03155D02*
D03*
X03205D02*
D03*
X03255D02*
D03*
X03305D02*
D03*
X0486Y035159D02*
D03*
X0491D02*
D03*
X0496D02*
D03*
X0501D02*
D03*
X0506D02*
D03*
X0511D02*
D03*
X0516D02*
D03*
X0521D02*
D03*
X0526D02*
D03*
X0486Y031341D02*
D03*
X0491D02*
D03*
X0496D02*
D03*
X0501D02*
D03*
X0506D02*
D03*
X0511D02*
D03*
X0516D02*
D03*
X0521D02*
D03*
X0526D02*
D03*
D58*
X027161Y018889D02*
D03*
Y018219D02*
D03*
Y01755D02*
D03*
Y016881D02*
D03*
Y016211D02*
D03*
D59*
X023243Y01755D02*
D03*
D60*
X02745Y023022D02*
D03*
Y02125D02*
D03*
D61*
X059278Y028874D02*
D03*
Y028126D02*
D03*
X060322Y0285D02*
D03*
M02*
