M48
;Layer_Color=9474304
;FILE_FORMAT=2:4
INCH,LZ
;TYPE=PLATED
T1F00S00C0.0200
T2F00S00C0.0300
T3F00S00C0.0315
T4F00S00C0.0354
T5F00S00C0.0394
T6F00S00C0.0866
%
T01
X246669Y141702
X245694Y141899
X244493Y142391
X244436Y143416
X244954Y144166
X245954
X247131Y145265
X246356Y146206
X244267Y146151
X243066Y145334
X241589Y144409
X241536Y143646
X241427Y143113
X239316Y143106
X239355Y143917
X237613Y144645
X236629Y144438
X240409Y145797
T02
X242229Y143456
Y144456
X238263
Y143456
T03
X24025Y143456
Y144456
X23591Y144951
Y143956
Y142961
T04
X247879Y142952
Y143952
Y144952
X2438Y144645
Y143267
T05
X234139Y142676
Y145235
T06
X249532Y143956
X231826
M30
