%FSTAX24Y24*%
%MOIN*%
G70*
G01*
G75*
G04 Layer_Color=8388736*
%ADD10R,0.0315X0.0374*%
%ADD11R,0.0374X0.0315*%
%ADD12R,0.0472X0.0256*%
G04:AMPARAMS|DCode=13|XSize=21.7mil|YSize=47.2mil|CornerRadius=0mil|HoleSize=0mil|Usage=FLASHONLY|Rotation=270.000|XOffset=0mil|YOffset=0mil|HoleType=Round|Shape=Octagon|*
%AMOCTAGOND13*
4,1,8,0.0236,0.0054,0.0236,-0.0054,0.0182,-0.0108,-0.0182,-0.0108,-0.0236,-0.0054,-0.0236,0.0054,-0.0182,0.0108,0.0182,0.0108,0.0236,0.0054,0.0*
%
%ADD13OCTAGOND13*%

%ADD14R,0.0472X0.0217*%
%ADD15R,0.0512X0.1063*%
%ADD16O,0.0236X0.0866*%
%ADD17R,0.0236X0.0866*%
%ADD18R,0.0630X0.0630*%
%ADD19R,0.1299X0.1004*%
%ADD20R,0.0374X0.1004*%
%ADD21C,0.0100*%
%ADD22C,0.0200*%
%ADD23C,0.0150*%
%ADD24C,0.0039*%
%ADD25R,0.0787X0.0787*%
%ADD26C,0.0787*%
%ADD27C,0.0591*%
%ADD28R,0.0591X0.0591*%
%ADD29C,0.0709*%
%ADD30R,0.0591X0.0591*%
%ADD31C,0.1800*%
%ADD32C,0.0984*%
%ADD33R,0.0984X0.0984*%
G04:AMPARAMS|DCode=34|XSize=78.7mil|YSize=60mil|CornerRadius=0mil|HoleSize=0mil|Usage=FLASHONLY|Rotation=270.000|XOffset=0mil|YOffset=0mil|HoleType=Round|Shape=Octagon|*
%AMOCTAGOND34*
4,1,8,-0.0150,-0.0394,0.0150,-0.0394,0.0300,-0.0244,0.0300,0.0244,0.0150,0.0394,-0.0150,0.0394,-0.0300,0.0244,-0.0300,-0.0244,-0.0150,-0.0394,0.0*
%
%ADD34OCTAGOND34*%

%ADD35C,0.2441*%
%ADD36C,0.0320*%
%ADD37R,0.0472X0.0728*%
%ADD38C,0.0300*%
%ADD39R,0.0395X0.0454*%
%ADD40R,0.0454X0.0395*%
%ADD41R,0.0552X0.0336*%
G04:AMPARAMS|DCode=42|XSize=25.6mil|YSize=51.2mil|CornerRadius=0mil|HoleSize=0mil|Usage=FLASHONLY|Rotation=270.000|XOffset=0mil|YOffset=0mil|HoleType=Round|Shape=Octagon|*
%AMOCTAGOND42*
4,1,8,0.0256,0.0064,0.0256,-0.0064,0.0192,-0.0128,-0.0192,-0.0128,-0.0256,-0.0064,-0.0256,0.0064,-0.0192,0.0128,0.0192,0.0128,0.0256,0.0064,0.0*
%
%ADD42OCTAGOND42*%

%ADD43R,0.0512X0.0256*%
%ADD44R,0.0592X0.1143*%
%ADD45O,0.0316X0.0946*%
%ADD46R,0.0316X0.0946*%
%ADD47R,0.0710X0.0710*%
%ADD48R,0.1379X0.1084*%
%ADD49R,0.0454X0.1084*%
%ADD50R,0.0867X0.0867*%
%ADD51C,0.0867*%
%ADD52C,0.0671*%
%ADD53R,0.0671X0.0671*%
%ADD54C,0.0789*%
%ADD55R,0.0671X0.0671*%
%ADD56C,0.1880*%
%ADD57C,0.1064*%
%ADD58R,0.1064X0.1064*%
G04:AMPARAMS|DCode=59|XSize=86.7mil|YSize=68mil|CornerRadius=0mil|HoleSize=0mil|Usage=FLASHONLY|Rotation=270.000|XOffset=0mil|YOffset=0mil|HoleType=Round|Shape=Octagon|*
%AMOCTAGOND59*
4,1,8,-0.0170,-0.0434,0.0170,-0.0434,0.0340,-0.0264,0.0340,0.0264,0.0170,0.0434,-0.0170,0.0434,-0.0340,0.0264,-0.0340,-0.0264,-0.0170,-0.0434,0.0*
%
%ADD59OCTAGOND59*%

%ADD60C,0.2521*%
%ADD61C,0.0400*%
D24*
X076155Y077661D02*
Y078054D01*
X076352D01*
X076417Y077989D01*
Y077857D01*
X076352Y077792D01*
X076155D01*
X076286D02*
X076417Y077661D01*
X076614Y077923D02*
X076745D01*
X076811Y077857D01*
Y077661D01*
X076614D01*
X076548Y077726D01*
X076614Y077792D01*
X076811D01*
X076942Y077661D02*
X077139D01*
X077204Y077726D01*
X077139Y077792D01*
X077007D01*
X076942Y077857D01*
X077007Y077923D01*
X077204D01*
X077335Y077529D02*
Y077923D01*
X077532D01*
X077598Y077857D01*
Y077726D01*
X077532Y077661D01*
X077335D01*
X077729Y078054D02*
Y077661D01*
X077926D01*
X077991Y077726D01*
Y077792D01*
Y077857D01*
X077926Y077923D01*
X077729D01*
X078319Y077661D02*
X078188D01*
X078123Y077726D01*
Y077857D01*
X078188Y077923D01*
X078319D01*
X078385Y077857D01*
Y077792D01*
X078123D01*
X078516Y077923D02*
Y077661D01*
Y077792D01*
X078582Y077857D01*
X078647Y077923D01*
X078713D01*
X07891D02*
Y077661D01*
Y077792D01*
X078975Y077857D01*
X079041Y077923D01*
X079107D01*
X079303D02*
Y077726D01*
X079369Y077661D01*
X079566D01*
Y077595D01*
X0795Y077529D01*
X079435D01*
X079566Y077661D02*
Y077923D01*
X079697Y077595D02*
X079959D01*
X080287Y077661D02*
X080156D01*
X08009Y077726D01*
Y077857D01*
X080156Y077923D01*
X080287D01*
X080353Y077857D01*
Y077792D01*
X08009D01*
X08055Y077989D02*
Y077923D01*
X080484D01*
X080615D01*
X08055D01*
Y077726D01*
X080615Y077661D01*
X080812Y078054D02*
Y077661D01*
Y077857D01*
X080878Y077923D01*
X081009D01*
X081074Y077857D01*
Y077661D01*
X081402D02*
X081271D01*
X081206Y077726D01*
Y077857D01*
X081271Y077923D01*
X081402D01*
X081468Y077857D01*
Y077792D01*
X081206D01*
X081599Y077923D02*
Y077661D01*
Y077792D01*
X081665Y077857D01*
X08173Y077923D01*
X081796D01*
X081993Y078054D02*
X082124D01*
X082058D01*
Y077661D01*
X081993D01*
X082124D01*
X082517Y078054D02*
X082386D01*
X082321Y077989D01*
Y077726D01*
X082386Y077661D01*
X082517D01*
X082583Y077726D01*
Y077989D01*
X082517Y078054D01*
X082714Y077595D02*
X082977D01*
X083108Y077923D02*
X083239Y077661D01*
X08337Y077923D01*
X083501Y077661D02*
X083633D01*
X083567D01*
Y078054D01*
X083501Y077989D01*
X076302Y075344D02*
Y07495D01*
X076499D01*
X076564Y075016D01*
Y075278D01*
X076499Y075344D01*
X076302D01*
X076696Y07495D02*
X076827D01*
X076761D01*
Y075213D01*
X076696D01*
X077089D02*
X07722D01*
X077286Y075147D01*
Y07495D01*
X077089D01*
X077024Y075016D01*
X077089Y075082D01*
X077286D01*
X077417Y074819D02*
Y075213D01*
X077614D01*
X077679Y075147D01*
Y075016D01*
X077614Y07495D01*
X077417D01*
X077811Y075213D02*
Y07495D01*
Y075082D01*
X077876Y075147D01*
X077942Y075213D01*
X078007D01*
X07827Y07495D02*
X078401D01*
X078467Y075016D01*
Y075147D01*
X078401Y075213D01*
X07827D01*
X078204Y075147D01*
Y075016D01*
X07827Y07495D01*
X078991Y075344D02*
Y07495D01*
Y075082D01*
X079254Y075344D01*
X079057Y075147D01*
X079254Y07495D01*
X079451D02*
Y075278D01*
Y075147D01*
X079385D01*
X079516D01*
X079451D01*
Y075278D01*
X079516Y075344D01*
X079779Y075278D02*
Y075213D01*
X079713D01*
X079844D01*
X079779D01*
Y075016D01*
X079844Y07495D01*
X080041D02*
Y075016D01*
X080107D01*
Y07495D01*
X080041D01*
X076285Y074354D02*
Y074157D01*
X076351Y074091D01*
X076417Y074157D01*
X076482Y074091D01*
X076548Y074157D01*
Y074354D01*
X076679D02*
Y074157D01*
X076745Y074091D01*
X07681Y074157D01*
X076876Y074091D01*
X076941Y074157D01*
Y074354D01*
X077073D02*
Y074157D01*
X077138Y074091D01*
X077204Y074157D01*
X077269Y074091D01*
X077335Y074157D01*
Y074354D01*
X077466Y074091D02*
Y074157D01*
X077532D01*
Y074091D01*
X077466D01*
X078057Y074485D02*
Y074091D01*
X07786D01*
X077794Y074157D01*
Y074288D01*
X07786Y074354D01*
X078057D01*
X078188Y074091D02*
X078319D01*
X078253D01*
Y074354D01*
X078188D01*
X078581D02*
X078712D01*
X078778Y074288D01*
Y074091D01*
X078581D01*
X078516Y074157D01*
X078581Y074223D01*
X078778D01*
X078909Y07396D02*
Y074354D01*
X079106D01*
X079172Y074288D01*
Y074157D01*
X079106Y074091D01*
X078909D01*
X079303Y074354D02*
Y074091D01*
Y074223D01*
X079368Y074288D01*
X079434Y074354D01*
X0795D01*
X079762Y074091D02*
X079893D01*
X079959Y074157D01*
Y074288D01*
X079893Y074354D01*
X079762D01*
X079696Y074288D01*
Y074157D01*
X079762Y074091D01*
X08009D02*
Y074157D01*
X080156D01*
Y074091D01*
X08009D01*
X080418Y074485D02*
Y074091D01*
Y074288D01*
X080484Y074354D01*
X080615D01*
X08068Y074288D01*
Y074091D01*
X080812Y074354D02*
Y074157D01*
X080877Y074091D01*
X081074D01*
Y074354D01*
D39*
X094567Y085278D02*
D03*
X093858D02*
D03*
X098367Y084478D02*
D03*
X097658D02*
D03*
X094567Y084378D02*
D03*
X093858D02*
D03*
X096467Y080478D02*
D03*
X095758D02*
D03*
X095067D02*
D03*
X094358D02*
D03*
X099567Y077278D02*
D03*
X098858D02*
D03*
X096967Y072278D02*
D03*
X096258D02*
D03*
X080642Y08451D02*
D03*
X08135D02*
D03*
X096258Y073078D02*
D03*
X096967D02*
D03*
X080642Y080573D02*
D03*
X08135D02*
D03*
X080642Y076636D02*
D03*
X08135D02*
D03*
X080642Y072699D02*
D03*
X08135D02*
D03*
X093158Y074778D02*
D03*
X093867D02*
D03*
X095858Y085278D02*
D03*
X096567D02*
D03*
D40*
X092713Y079832D02*
D03*
Y079124D02*
D03*
X091513Y082932D02*
D03*
Y082224D02*
D03*
X090913Y079732D02*
D03*
Y079024D02*
D03*
X081213Y069824D02*
D03*
Y070532D02*
D03*
X079813Y069924D02*
D03*
Y070632D02*
D03*
X093413Y079832D02*
D03*
Y079124D02*
D03*
X073713Y072857D02*
D03*
Y072148D02*
D03*
X072335Y072857D02*
D03*
Y072148D02*
D03*
X070957Y072857D02*
D03*
Y072148D02*
D03*
X069579Y072857D02*
D03*
Y072148D02*
D03*
X068201Y072857D02*
D03*
Y072148D02*
D03*
X066823Y072857D02*
D03*
Y072148D02*
D03*
X065445Y072857D02*
D03*
Y072148D02*
D03*
X064067Y072857D02*
D03*
Y072148D02*
D03*
X092013Y079832D02*
D03*
Y079124D02*
D03*
X091713Y074224D02*
D03*
Y074932D02*
D03*
X073713Y070691D02*
D03*
Y069983D02*
D03*
X072335Y070691D02*
D03*
Y069983D02*
D03*
X070957Y070691D02*
D03*
Y069983D02*
D03*
X069579Y070691D02*
D03*
Y069983D02*
D03*
X068201Y070691D02*
D03*
Y069983D02*
D03*
X066823Y070691D02*
D03*
Y069983D02*
D03*
X065445Y070691D02*
D03*
Y069983D02*
D03*
X064067Y070691D02*
D03*
Y069983D02*
D03*
D41*
X090635Y082952D02*
D03*
Y082204D02*
D03*
X08959Y082578D02*
D03*
X09539Y083304D02*
D03*
Y084052D02*
D03*
X096435Y083678D02*
D03*
X093435Y082952D02*
D03*
Y082204D02*
D03*
X09239Y082578D02*
D03*
X090635Y081452D02*
D03*
Y080704D02*
D03*
X08959Y081078D02*
D03*
D42*
X095835Y079752D02*
D03*
Y079378D02*
D03*
X094801Y079752D02*
D03*
Y079004D02*
D03*
D43*
X095835Y079004D02*
D03*
D44*
X097542Y083178D02*
D03*
X098683D02*
D03*
X097542Y081778D02*
D03*
X098683D02*
D03*
X097542Y080378D02*
D03*
X098683D02*
D03*
X097542Y078978D02*
D03*
X098683D02*
D03*
D45*
X085113Y082423D02*
D03*
X088613Y078533D02*
D03*
X085113D02*
D03*
X085613D02*
D03*
X086113D02*
D03*
X086613D02*
D03*
X087113D02*
D03*
X087613D02*
D03*
X088113D02*
D03*
X085613Y082423D02*
D03*
X086113D02*
D03*
X086613D02*
D03*
X087113D02*
D03*
X087613D02*
D03*
X088113D02*
D03*
X084613D02*
D03*
Y078533D02*
D03*
X090257Y077996D02*
D03*
X093757Y076106D02*
D03*
X090257D02*
D03*
X090757D02*
D03*
X091257D02*
D03*
X091757D02*
D03*
X092257D02*
D03*
X092757D02*
D03*
X093257D02*
D03*
X090757Y077996D02*
D03*
X091257D02*
D03*
X091757D02*
D03*
X092257D02*
D03*
X092757D02*
D03*
X093257D02*
D03*
D46*
X088613Y082423D02*
D03*
X093757Y077996D02*
D03*
D47*
X097913Y070947D02*
D03*
Y069609D02*
D03*
X095213Y074509D02*
D03*
Y075847D02*
D03*
D48*
X097213Y076549D02*
D03*
D49*
X098118Y074207D02*
D03*
X097213D02*
D03*
X096307D02*
D03*
D50*
X084013Y074778D02*
D03*
D51*
Y071778D02*
D03*
Y070778D02*
D03*
X086013Y074778D02*
D03*
Y071778D02*
D03*
Y070778D02*
D03*
D52*
X082813D02*
D03*
X087213D02*
D03*
X077795Y087569D02*
D03*
X078795Y086569D02*
D03*
Y087569D02*
D03*
X079795Y086569D02*
D03*
Y087569D02*
D03*
X080795Y086569D02*
D03*
Y087569D02*
D03*
X081795Y086569D02*
D03*
Y087569D02*
D03*
X082795Y086569D02*
D03*
Y087569D02*
D03*
X083795Y086569D02*
D03*
Y087569D02*
D03*
X084795Y086569D02*
D03*
Y087569D02*
D03*
X085795Y086569D02*
D03*
Y087569D02*
D03*
X086795Y086569D02*
D03*
Y087569D02*
D03*
X087795Y086569D02*
D03*
Y087569D02*
D03*
X088795Y086569D02*
D03*
Y087569D02*
D03*
X089795Y086569D02*
D03*
Y087569D02*
D03*
X090795Y086569D02*
D03*
Y087569D02*
D03*
X091795Y086569D02*
D03*
Y087569D02*
D03*
X092795Y086569D02*
D03*
Y087569D02*
D03*
X093795Y086569D02*
D03*
Y087569D02*
D03*
X094795Y086569D02*
D03*
Y087569D02*
D03*
X095795Y086569D02*
D03*
Y087569D02*
D03*
X096795Y086569D02*
D03*
Y087569D02*
D03*
D53*
X082813Y071778D02*
D03*
X087213D02*
D03*
D54*
X099303Y069451D02*
D03*
Y07201D02*
D03*
D55*
X077795Y086569D02*
D03*
D56*
X096195Y069569D02*
D03*
X094195Y068319D02*
D03*
Y070819D02*
D03*
D57*
X078447Y068565D02*
D03*
X083959D02*
D03*
X079825D02*
D03*
X086715D02*
D03*
X081203D02*
D03*
X082581D02*
D03*
X085337D02*
D03*
X088093D02*
D03*
X062325Y068565D02*
D03*
X067837D02*
D03*
X063703D02*
D03*
X070593D02*
D03*
X065081D02*
D03*
X066459D02*
D03*
X069215D02*
D03*
X07197D02*
D03*
D58*
X08947Y068565D02*
D03*
X073348Y068565D02*
D03*
D59*
X078378Y08451D02*
D03*
Y080573D02*
D03*
X078378Y076636D02*
D03*
X078378Y072699D02*
D03*
D60*
X098713Y087069D02*
D03*
X075878Y067778D02*
D03*
X098713D02*
D03*
X075878Y087069D02*
D03*
X062098Y072896D02*
D03*
D61*
X068201Y071321D02*
D03*
X069579D02*
D03*
X070957D02*
D03*
X072335D02*
D03*
X073713D02*
D03*
X080012Y072699D02*
D03*
Y076636D02*
D03*
Y080573D02*
D03*
Y08451D02*
D03*
X066823Y071321D02*
D03*
X065445D02*
D03*
X064067D02*
D03*
X093413Y080478D02*
D03*
X097713Y085278D02*
D03*
X092013Y083578D02*
D03*
X082313Y083778D02*
D03*
Y084778D02*
D03*
X076413Y070878D02*
D03*
X094413Y075847D02*
D03*
X075213Y070278D02*
D03*
X084713Y083778D02*
D03*
Y084778D02*
D03*
X095313Y081878D02*
D03*
Y084778D02*
D03*
X094713Y078278D02*
D03*
X099713Y080278D02*
D03*
X083713Y082278D02*
D03*
X095213Y072278D02*
D03*
M02*
