%FSTAX24Y24*%
%MOIN*%
G70*
G01*
G75*
G04 Layer_Color=8388736*
%ADD10R,0.0315X0.0374*%
%ADD11R,0.0374X0.0315*%
%ADD12R,0.0472X0.0256*%
G04:AMPARAMS|DCode=13|XSize=21.7mil|YSize=47.2mil|CornerRadius=0mil|HoleSize=0mil|Usage=FLASHONLY|Rotation=270.000|XOffset=0mil|YOffset=0mil|HoleType=Round|Shape=Octagon|*
%AMOCTAGOND13*
4,1,8,0.0236,0.0054,0.0236,-0.0054,0.0182,-0.0108,-0.0182,-0.0108,-0.0236,-0.0054,-0.0236,0.0054,-0.0182,0.0108,0.0182,0.0108,0.0236,0.0054,0.0*
%
%ADD13OCTAGOND13*%

%ADD14R,0.0472X0.0217*%
%ADD15R,0.0512X0.1063*%
%ADD16O,0.0236X0.0866*%
%ADD17R,0.0236X0.0866*%
%ADD18R,0.0630X0.0630*%
%ADD19R,0.1299X0.1004*%
%ADD20R,0.0374X0.1004*%
%ADD21C,0.0100*%
%ADD22C,0.0200*%
%ADD23C,0.0150*%
%ADD24C,0.0039*%
%ADD25R,0.0787X0.0787*%
%ADD26C,0.0787*%
%ADD27C,0.0591*%
%ADD28R,0.0591X0.0591*%
%ADD29C,0.0709*%
%ADD30R,0.0591X0.0591*%
%ADD31C,0.1800*%
%ADD32C,0.0984*%
%ADD33R,0.0984X0.0984*%
G04:AMPARAMS|DCode=34|XSize=78.7mil|YSize=60mil|CornerRadius=0mil|HoleSize=0mil|Usage=FLASHONLY|Rotation=270.000|XOffset=0mil|YOffset=0mil|HoleType=Round|Shape=Octagon|*
%AMOCTAGOND34*
4,1,8,-0.0150,-0.0394,0.0150,-0.0394,0.0300,-0.0244,0.0300,0.0244,0.0150,0.0394,-0.0150,0.0394,-0.0300,0.0244,-0.0300,-0.0244,-0.0150,-0.0394,0.0*
%
%ADD34OCTAGOND34*%

%ADD35C,0.2441*%
%ADD36C,0.0320*%
%ADD37R,0.0472X0.0728*%
%ADD38C,0.0300*%
%ADD39R,0.0395X0.0454*%
%ADD40R,0.0454X0.0395*%
%ADD41R,0.0552X0.0336*%
G04:AMPARAMS|DCode=42|XSize=25.6mil|YSize=51.2mil|CornerRadius=0mil|HoleSize=0mil|Usage=FLASHONLY|Rotation=270.000|XOffset=0mil|YOffset=0mil|HoleType=Round|Shape=Octagon|*
%AMOCTAGOND42*
4,1,8,0.0256,0.0064,0.0256,-0.0064,0.0192,-0.0128,-0.0192,-0.0128,-0.0256,-0.0064,-0.0256,0.0064,-0.0192,0.0128,0.0192,0.0128,0.0256,0.0064,0.0*
%
%ADD42OCTAGOND42*%

%ADD43R,0.0512X0.0256*%
%ADD44R,0.0592X0.1143*%
%ADD45O,0.0316X0.0946*%
%ADD46R,0.0316X0.0946*%
%ADD47R,0.0710X0.0710*%
%ADD48R,0.1379X0.1084*%
%ADD49R,0.0454X0.1084*%
%ADD50R,0.0867X0.0867*%
%ADD51C,0.0867*%
%ADD52C,0.0671*%
%ADD53R,0.0671X0.0671*%
%ADD54C,0.0789*%
%ADD55R,0.0671X0.0671*%
%ADD56C,0.1880*%
%ADD57C,0.1064*%
%ADD58R,0.1064X0.1064*%
G04:AMPARAMS|DCode=59|XSize=86.7mil|YSize=68mil|CornerRadius=0mil|HoleSize=0mil|Usage=FLASHONLY|Rotation=270.000|XOffset=0mil|YOffset=0mil|HoleType=Round|Shape=Octagon|*
%AMOCTAGOND59*
4,1,8,-0.0170,-0.0434,0.0170,-0.0434,0.0340,-0.0264,0.0340,0.0264,0.0170,0.0434,-0.0170,0.0434,-0.0340,0.0264,-0.0340,-0.0264,-0.0170,-0.0434,0.0*
%
%ADD59OCTAGOND59*%

%ADD60C,0.2521*%
%ADD61C,0.0400*%
%ADD62R,0.0552X0.0808*%
D50*
X084013Y074778D02*
D03*
D51*
Y071778D02*
D03*
Y070778D02*
D03*
X086013Y074778D02*
D03*
Y071778D02*
D03*
Y070778D02*
D03*
D52*
X082813D02*
D03*
X087213D02*
D03*
X077795Y087569D02*
D03*
X078795Y086569D02*
D03*
Y087569D02*
D03*
X079795Y086569D02*
D03*
Y087569D02*
D03*
X080795Y086569D02*
D03*
Y087569D02*
D03*
X081795Y086569D02*
D03*
Y087569D02*
D03*
X082795Y086569D02*
D03*
Y087569D02*
D03*
X083795Y086569D02*
D03*
Y087569D02*
D03*
X084795Y086569D02*
D03*
Y087569D02*
D03*
X085795Y086569D02*
D03*
Y087569D02*
D03*
X086795Y086569D02*
D03*
Y087569D02*
D03*
X087795Y086569D02*
D03*
Y087569D02*
D03*
X088795Y086569D02*
D03*
Y087569D02*
D03*
X089795Y086569D02*
D03*
Y087569D02*
D03*
X090795Y086569D02*
D03*
Y087569D02*
D03*
X091795Y086569D02*
D03*
Y087569D02*
D03*
X092795Y086569D02*
D03*
Y087569D02*
D03*
X093795Y086569D02*
D03*
Y087569D02*
D03*
X094795Y086569D02*
D03*
Y087569D02*
D03*
X095795Y086569D02*
D03*
Y087569D02*
D03*
X096795Y086569D02*
D03*
Y087569D02*
D03*
D53*
X082813Y071778D02*
D03*
X087213D02*
D03*
D54*
X099303Y069451D02*
D03*
Y07201D02*
D03*
D55*
X077795Y086569D02*
D03*
D56*
X096195Y069569D02*
D03*
X094195Y068319D02*
D03*
Y070819D02*
D03*
D57*
X078447Y068565D02*
D03*
X083959D02*
D03*
X079825D02*
D03*
X086715D02*
D03*
X081203D02*
D03*
X082581D02*
D03*
X085337D02*
D03*
X088093D02*
D03*
X062325Y068565D02*
D03*
X067837D02*
D03*
X063703D02*
D03*
X070593D02*
D03*
X065081D02*
D03*
X066459D02*
D03*
X069215D02*
D03*
X07197D02*
D03*
D58*
X08947Y068565D02*
D03*
X073348Y068565D02*
D03*
D59*
X078378Y08451D02*
D03*
Y080573D02*
D03*
X078378Y076636D02*
D03*
X078378Y072699D02*
D03*
D60*
X098713Y087069D02*
D03*
X075878Y067778D02*
D03*
X098713D02*
D03*
X075878Y087069D02*
D03*
X062098Y072896D02*
D03*
D61*
X068201Y071321D02*
D03*
X069579D02*
D03*
X070957D02*
D03*
X072335D02*
D03*
X073713D02*
D03*
X080012Y072699D02*
D03*
Y076636D02*
D03*
Y080573D02*
D03*
Y08451D02*
D03*
X066823Y071321D02*
D03*
X065445D02*
D03*
X064067D02*
D03*
X093413Y080478D02*
D03*
X097713Y085278D02*
D03*
X092013Y083578D02*
D03*
X082313Y083778D02*
D03*
Y084778D02*
D03*
X076413Y070878D02*
D03*
X094413Y075847D02*
D03*
X075213Y070278D02*
D03*
X084713Y083778D02*
D03*
Y084778D02*
D03*
X095313Y081878D02*
D03*
Y084778D02*
D03*
X094713Y078278D02*
D03*
X099713Y080278D02*
D03*
X083713Y082278D02*
D03*
X095213Y072278D02*
D03*
D62*
X079008Y08451D02*
D03*
X077748D02*
D03*
X079008Y080573D02*
D03*
X077748D02*
D03*
X079008Y076636D02*
D03*
X077748D02*
D03*
X079008Y072699D02*
D03*
X077748D02*
D03*
M02*
