%FSTAX24Y24*%
%MOIN*%
G70*
G01*
G75*
G04 Layer_Physical_Order=2*
G04 Layer_Color=16711680*
%ADD10R,0.0315X0.0374*%
%ADD11R,0.0374X0.0315*%
%ADD12R,0.0472X0.0256*%
G04:AMPARAMS|DCode=13|XSize=21.7mil|YSize=47.2mil|CornerRadius=0mil|HoleSize=0mil|Usage=FLASHONLY|Rotation=270.000|XOffset=0mil|YOffset=0mil|HoleType=Round|Shape=Octagon|*
%AMOCTAGOND13*
4,1,8,0.0236,0.0054,0.0236,-0.0054,0.0182,-0.0108,-0.0182,-0.0108,-0.0236,-0.0054,-0.0236,0.0054,-0.0182,0.0108,0.0182,0.0108,0.0236,0.0054,0.0*
%
%ADD13OCTAGOND13*%

%ADD14R,0.0472X0.0217*%
%ADD15R,0.0512X0.1063*%
%ADD16O,0.0236X0.0866*%
%ADD17R,0.0236X0.0866*%
%ADD18R,0.0630X0.0630*%
%ADD19R,0.1299X0.1004*%
%ADD20R,0.0374X0.1004*%
%ADD21C,0.0100*%
%ADD22C,0.0200*%
%ADD23C,0.0150*%
%ADD24C,0.0039*%
%ADD25R,0.0787X0.0787*%
%ADD26C,0.0787*%
%ADD27C,0.0591*%
%ADD28R,0.0591X0.0591*%
%ADD29C,0.0709*%
%ADD30R,0.0591X0.0591*%
%ADD31C,0.1800*%
%ADD32C,0.0984*%
%ADD33R,0.0984X0.0984*%
G04:AMPARAMS|DCode=34|XSize=78.7mil|YSize=60mil|CornerRadius=0mil|HoleSize=0mil|Usage=FLASHONLY|Rotation=270.000|XOffset=0mil|YOffset=0mil|HoleType=Round|Shape=Octagon|*
%AMOCTAGOND34*
4,1,8,-0.0150,-0.0394,0.0150,-0.0394,0.0300,-0.0244,0.0300,0.0244,0.0150,0.0394,-0.0150,0.0394,-0.0300,0.0244,-0.0300,-0.0244,-0.0150,-0.0394,0.0*
%
%ADD34OCTAGOND34*%

%ADD35C,0.2441*%
%ADD36C,0.0320*%
%ADD37R,0.0472X0.0728*%
%ADD38C,0.0300*%
D21*
X079008Y072699D02*
X080012D01*
X080012Y072699D01*
X079008Y076636D02*
X080012D01*
X079008Y080573D02*
X080012D01*
X079008Y08451D02*
X080012D01*
X079008Y08451D02*
X079008Y08451D01*
X073813Y073978D02*
X075013Y075178D01*
X066724Y073978D02*
X073813D01*
X064067Y071321D02*
X066724Y073978D01*
X077795Y087569D02*
X078313Y087052D01*
Y085778D02*
Y087052D01*
X077748Y085213D02*
X078313Y085778D01*
X077748Y08451D02*
Y085213D01*
X072335Y071321D02*
X072991Y071978D01*
X075113D01*
X073713Y071321D02*
X075456D01*
X08835Y087124D02*
X088795Y087569D01*
X08772Y087124D02*
X08835D01*
X089187Y088178D02*
X089795Y087569D01*
X087241Y086106D02*
Y086644D01*
X08772Y087124D01*
X093654Y067778D02*
X094195Y068319D01*
X075278Y067178D02*
X075878Y067778D01*
X086713Y085578D02*
X087241Y086106D01*
X079795Y087569D02*
X079821D01*
X081795Y086569D02*
X082241Y087015D01*
X083241D02*
X083795Y087569D01*
X082241Y087015D02*
X083241D01*
X093795Y087569D02*
X09435Y087015D01*
X09635D01*
X096795Y086569D01*
X098213D02*
X098713Y087069D01*
X094913Y084378D02*
X095313Y084778D01*
X091813Y086478D02*
Y086678D01*
X084713Y083778D02*
X090004D01*
X092795Y086569D01*
X090813Y083078D02*
X093413Y080478D01*
X081287Y087078D02*
X081795Y086569D01*
X079821Y087569D02*
X080313Y087078D01*
X081287D01*
X078795Y086569D02*
X080513Y084852D01*
X080795Y086569D02*
X081313Y086052D01*
X079795Y086569D02*
X080913Y085452D01*
X077713Y081578D02*
X082113D01*
X075456Y071321D02*
X077113Y072978D01*
Y080978D01*
X077713Y081578D01*
X075013Y075178D02*
Y081778D01*
X076813Y083578D01*
X080013D01*
X080513Y084078D02*
Y084852D01*
X080013Y083578D02*
X080513Y084078D01*
X077013Y083278D02*
X080195D01*
X077613Y081878D02*
X081813D01*
X083513Y083578D01*
X077413Y082078D02*
X081513D01*
X083213Y083778D01*
X07733Y082378D02*
X080913D01*
X082313Y083778D01*
X080195Y083278D02*
X080913Y083995D01*
Y085452D01*
X077213Y082678D02*
X080613D01*
X082313Y084378D01*
Y084778D01*
X077113Y082978D02*
X080413D01*
X081313Y083878D01*
Y086052D01*
X075113Y071978D02*
X076813Y073678D01*
Y081078D01*
X077613Y081878D01*
X076513Y074078D02*
Y081178D01*
X077413Y082078D01*
X076213Y074478D02*
Y081261D01*
X07733Y082378D01*
X075913Y081378D02*
X077213Y082678D01*
X075613Y081478D02*
X077113Y082978D01*
X075313Y081578D02*
X077013Y083278D01*
X074313Y073078D02*
X075913Y074678D01*
Y081378D01*
X075613Y074878D02*
Y081478D01*
X075313Y075078D02*
Y081578D01*
X069579Y071321D02*
X070935Y072678D01*
X074413D01*
X076213Y074478D01*
X070957Y071321D02*
X071913Y072278D01*
X074713D01*
X076513Y074078D01*
X066823Y071321D02*
X06888Y073378D01*
X074113D01*
X075613Y074878D01*
X065445Y071321D02*
X067802Y073678D01*
X073913D01*
X075313Y075078D01*
X068201Y071321D02*
X069957Y073078D01*
X074313D01*
X083513Y083578D02*
Y084578D01*
X084513Y085578D01*
X086713D01*
X086313Y086078D02*
Y087878D01*
X086613Y088178D01*
X089187D01*
X086113Y085878D02*
X086313Y086078D01*
X083213Y083778D02*
Y084778D01*
X084313Y085878D01*
X086113D01*
X082113Y081578D02*
X083913Y083378D01*
Y084578D01*
X084513Y085178D01*
X086913D01*
X087795Y086061D01*
Y086569D01*
X094195Y068319D02*
X094654D01*
X095904Y069569D02*
X096195D01*
X086713Y067778D02*
X086715Y06778D01*
X075213Y070278D02*
X078513D01*
X08259Y075155D02*
X083282Y075847D01*
X094413D01*
X078513Y070278D02*
X08259Y074354D01*
Y075155D01*
X093313Y087087D02*
X093795Y087569D01*
X093313Y086178D02*
Y087087D01*
X092213Y084378D02*
X094913D01*
X091513Y083678D02*
X092213Y084378D01*
X091513Y083478D02*
Y083678D01*
Y083478D02*
X093113Y081878D01*
X095313D01*
X090813Y083678D02*
X093313Y086178D01*
X090813Y083078D02*
Y083678D01*
X083713Y082278D02*
X084813Y083378D01*
X090813D01*
X084713Y084778D02*
X090113D01*
X091813Y086478D01*
D22*
X087213Y071778D02*
X093236D01*
X094195Y070819D01*
X084013Y071778D02*
Y072278D01*
X084713Y072978D01*
X081813Y070778D02*
X082813Y071778D01*
X085402Y069878D02*
X086715Y068565D01*
X075878Y067778D02*
X086713D01*
X093654D01*
X062325Y068565D02*
X063712Y067178D01*
X075278D01*
X092013Y083578D02*
X096013D01*
X097713Y085278D01*
X096795Y086569D02*
X098213D01*
X097713Y078278D02*
Y085278D01*
X094713Y078278D02*
X097713D01*
X098713Y080278D02*
Y087069D01*
Y080278D02*
X099713D01*
X094195Y070819D02*
Y07296D01*
X097713Y076478D01*
Y078278D01*
X077648Y072599D02*
Y080473D01*
X086715Y06778D02*
Y068565D01*
X082213Y069878D02*
X085402D01*
X081813Y070278D02*
X082213Y069878D01*
X081813Y070278D02*
Y070778D01*
X084713Y072978D02*
X086413D01*
X087213Y072178D01*
Y071778D02*
Y072178D01*
X096195Y07286D02*
X098713Y075378D01*
Y080278D01*
X096195Y069569D02*
Y072278D01*
Y07286D01*
X095213Y072278D02*
X096195D01*
X076413Y070878D02*
X077613Y072078D01*
Y072564D01*
X077648Y072599D01*
D25*
X084013Y074778D02*
D03*
D26*
Y071778D02*
D03*
Y070778D02*
D03*
X086013Y074778D02*
D03*
Y071778D02*
D03*
Y070778D02*
D03*
D27*
X082813D02*
D03*
X087213D02*
D03*
X077795Y087569D02*
D03*
X078795Y086569D02*
D03*
Y087569D02*
D03*
X079795Y086569D02*
D03*
Y087569D02*
D03*
X080795Y086569D02*
D03*
Y087569D02*
D03*
X081795Y086569D02*
D03*
Y087569D02*
D03*
X082795Y086569D02*
D03*
Y087569D02*
D03*
X083795Y086569D02*
D03*
Y087569D02*
D03*
X084795Y086569D02*
D03*
Y087569D02*
D03*
X085795Y086569D02*
D03*
Y087569D02*
D03*
X086795Y086569D02*
D03*
Y087569D02*
D03*
X087795Y086569D02*
D03*
Y087569D02*
D03*
X088795Y086569D02*
D03*
Y087569D02*
D03*
X089795Y086569D02*
D03*
Y087569D02*
D03*
X090795Y086569D02*
D03*
Y087569D02*
D03*
X091795Y086569D02*
D03*
Y087569D02*
D03*
X092795Y086569D02*
D03*
Y087569D02*
D03*
X093795Y086569D02*
D03*
Y087569D02*
D03*
X094795Y086569D02*
D03*
Y087569D02*
D03*
X095795Y086569D02*
D03*
Y087569D02*
D03*
X096795Y086569D02*
D03*
Y087569D02*
D03*
D28*
X082813Y071778D02*
D03*
X087213D02*
D03*
D29*
X099303Y069451D02*
D03*
Y07201D02*
D03*
D30*
X077795Y086569D02*
D03*
D31*
X096195Y069569D02*
D03*
X094195Y068319D02*
D03*
Y070819D02*
D03*
D32*
X078447Y068565D02*
D03*
X083959D02*
D03*
X079825D02*
D03*
X086715D02*
D03*
X081203D02*
D03*
X082581D02*
D03*
X085337D02*
D03*
X088093D02*
D03*
X062325Y068565D02*
D03*
X067837D02*
D03*
X063703D02*
D03*
X070593D02*
D03*
X065081D02*
D03*
X066459D02*
D03*
X069215D02*
D03*
X07197D02*
D03*
D33*
X08947Y068565D02*
D03*
X073348Y068565D02*
D03*
D34*
X078378Y08451D02*
D03*
Y080573D02*
D03*
X078378Y076636D02*
D03*
X078378Y072699D02*
D03*
D35*
X098713Y087069D02*
D03*
X075878Y067778D02*
D03*
X098713D02*
D03*
X075878Y087069D02*
D03*
X062098Y072896D02*
D03*
D36*
X068201Y071321D02*
D03*
X069579D02*
D03*
X070957D02*
D03*
X072335D02*
D03*
X073713D02*
D03*
X080012Y072699D02*
D03*
Y076636D02*
D03*
Y080573D02*
D03*
Y08451D02*
D03*
X066823Y071321D02*
D03*
X065445D02*
D03*
X064067D02*
D03*
X093413Y080478D02*
D03*
X097713Y085278D02*
D03*
X092013Y083578D02*
D03*
X082313Y083778D02*
D03*
Y084778D02*
D03*
X076413Y070878D02*
D03*
X094413Y075847D02*
D03*
X075213Y070278D02*
D03*
X084713Y083778D02*
D03*
Y084778D02*
D03*
X095313Y081878D02*
D03*
Y084778D02*
D03*
X094713Y078278D02*
D03*
X099713Y080278D02*
D03*
X083713Y082278D02*
D03*
X095213Y072278D02*
D03*
D37*
X079008Y08451D02*
D03*
X077748D02*
D03*
X079008Y080573D02*
D03*
X077748D02*
D03*
X079008Y076636D02*
D03*
X077748D02*
D03*
X079008Y072699D02*
D03*
X077748D02*
D03*
D38*
X094654Y068319D02*
X095904Y069569D01*
M02*
