%FSTAX24Y24*%
%MOIN*%
G70*
G01*
G75*
G04 Layer_Color=128*
%ADD10R,0.0374X0.0315*%
%ADD11R,0.0807X0.0886*%
%ADD12R,0.0492X0.0630*%
%ADD13R,0.0315X0.0374*%
%ADD14R,0.0472X0.0256*%
%ADD15R,0.0256X0.0472*%
%ADD16R,0.0630X0.0630*%
%ADD17O,0.0472X0.0217*%
%ADD18R,0.0472X0.0217*%
%ADD19C,0.0100*%
%ADD20C,0.0591*%
%ADD21R,0.0591X0.0591*%
%ADD22C,0.0472*%
%ADD23C,0.0551*%
%ADD24C,0.1575*%
%ADD25C,0.0709*%
%ADD26C,0.0320*%
%ADD27R,0.0630X0.0492*%
%ADD28O,0.0236X0.1204*%
%ADD29O,0.0236X0.1200*%
%ADD30R,0.0236X0.1200*%
%ADD31C,0.0197*%
%ADD32C,0.0079*%
%ADD33C,0.0080*%
%ADD34C,0.0039*%
%ADD35C,0.0004*%
%ADD36R,0.0454X0.0395*%
%ADD37R,0.0887X0.0966*%
%ADD38R,0.0572X0.0710*%
%ADD39R,0.0395X0.0454*%
%ADD40R,0.0552X0.0336*%
%ADD41R,0.0336X0.0552*%
%ADD42R,0.0710X0.0710*%
%ADD43O,0.0512X0.0256*%
%ADD44R,0.0512X0.0256*%
%ADD45C,0.0671*%
%ADD46R,0.0671X0.0671*%
%ADD47C,0.0552*%
%ADD48C,0.0631*%
%ADD49C,0.1655*%
%ADD50C,0.0789*%
%ADD51C,0.0400*%
%ADD52R,0.0710X0.0572*%
%ADD53O,0.0316X0.1284*%
%ADD54O,0.0316X0.1280*%
%ADD55R,0.0316X0.1280*%
D10*
X234455Y142246D02*
D03*
Y142954D02*
D03*
X241936Y1458D02*
D03*
Y145092D02*
D03*
X24249Y145804D02*
D03*
Y145096D02*
D03*
X236944Y142688D02*
D03*
Y141979D02*
D03*
X233575Y145824D02*
D03*
Y145116D02*
D03*
X247081Y144753D02*
D03*
Y144044D02*
D03*
X247081Y143188D02*
D03*
Y14248D02*
D03*
D13*
X23531Y145619D02*
D03*
X236019D02*
D03*
X236009Y1435D02*
D03*
X235301D02*
D03*
X235301Y1423D02*
D03*
X236009D02*
D03*
X239892Y142566D02*
D03*
X2406D02*
D03*
X241225Y142558D02*
D03*
X241934D02*
D03*
X239882Y141926D02*
D03*
X24059D02*
D03*
X241212D02*
D03*
X24192D02*
D03*
X237515Y143523D02*
D03*
X236806D02*
D03*
X239552Y1456D02*
D03*
X238843D02*
D03*
X237524D02*
D03*
X238233D02*
D03*
D14*
X243478Y141876D02*
D03*
Y142624D02*
D03*
X242433Y14225D02*
D03*
D15*
X232881Y143334D02*
D03*
X233629D02*
D03*
X233255Y144379D02*
D03*
X24142Y145268D02*
D03*
X240672D02*
D03*
X241046Y144223D02*
D03*
D17*
X238778Y142062D02*
D03*
Y142436D02*
D03*
X237744Y142062D02*
D03*
Y14281D02*
D03*
D18*
X238778Y14281D02*
D03*
D27*
X243105Y144479D02*
D03*
Y143121D02*
D03*
D28*
X246454Y145106D02*
D03*
D29*
X244954D02*
D03*
X245954Y142806D02*
D03*
X245454D02*
D03*
X244954D02*
D03*
X245954Y145106D02*
D03*
X245454D02*
D03*
D30*
X246454Y142806D02*
D03*
M02*
