%FSTAX24Y24*%
%MOIN*%
G70*
G01*
G75*
G04 Layer_Physical_Order=2*
G04 Layer_Color=16711680*
%ADD10R,0.0374X0.0315*%
%ADD11R,0.0807X0.0886*%
%ADD12R,0.0492X0.0630*%
%ADD13R,0.0315X0.0374*%
%ADD14R,0.0472X0.0256*%
%ADD15R,0.0256X0.0472*%
%ADD16R,0.0630X0.0630*%
%ADD17O,0.0472X0.0217*%
%ADD18R,0.0472X0.0217*%
%ADD19C,0.0100*%
%ADD20C,0.0591*%
%ADD21R,0.0591X0.0591*%
%ADD22C,0.0472*%
%ADD23C,0.0551*%
%ADD24C,0.1575*%
%ADD25C,0.0709*%
%ADD26C,0.0320*%
%ADD27R,0.0630X0.0492*%
%ADD28O,0.0236X0.1204*%
%ADD29O,0.0236X0.1200*%
%ADD30R,0.0236X0.1200*%
D10*
X234455Y142246D02*
D03*
Y142954D02*
D03*
X241936Y1458D02*
D03*
Y145092D02*
D03*
X24249Y145804D02*
D03*
Y145096D02*
D03*
X236944Y142688D02*
D03*
Y141979D02*
D03*
X233575Y145824D02*
D03*
Y145116D02*
D03*
X247081Y144753D02*
D03*
Y144044D02*
D03*
X247081Y143188D02*
D03*
Y14248D02*
D03*
D13*
X23531Y145619D02*
D03*
X236019D02*
D03*
X236009Y1435D02*
D03*
X235301D02*
D03*
X235301Y1423D02*
D03*
X236009D02*
D03*
X239892Y142566D02*
D03*
X2406D02*
D03*
X241225Y142558D02*
D03*
X241934D02*
D03*
X239882Y141926D02*
D03*
X24059D02*
D03*
X241212D02*
D03*
X24192D02*
D03*
X237515Y143523D02*
D03*
X236806D02*
D03*
X239552Y1456D02*
D03*
X238843D02*
D03*
X237524D02*
D03*
X238233D02*
D03*
D14*
X243478Y141876D02*
D03*
Y142624D02*
D03*
X242433Y14225D02*
D03*
D15*
X232881Y143334D02*
D03*
X233629D02*
D03*
X233255Y144379D02*
D03*
X24142Y145268D02*
D03*
X240672D02*
D03*
X241046Y144223D02*
D03*
D17*
X238778Y142062D02*
D03*
Y142436D02*
D03*
X237744Y142062D02*
D03*
Y14281D02*
D03*
D18*
X238778Y14281D02*
D03*
D19*
X247081Y144064D02*
X247761D01*
X246873Y143856D02*
X247081Y144064D01*
X243075Y142941D02*
X243255Y143121D01*
X232901Y143288D02*
Y143831D01*
X23854Y14244D02*
X23914D01*
X236657Y141804D02*
X238176D01*
X244914Y14621D02*
X246423D01*
X230522Y143759D02*
X231197Y143085D01*
Y142265D02*
Y143085D01*
Y142265D02*
X231875Y141587D01*
X246668Y141701D02*
X24743D01*
X24249Y144D02*
X243135Y144645D01*
X241096Y144D02*
Y144248D01*
X240394Y14495D02*
X241096Y144248D01*
X248324Y142595D02*
Y143434D01*
X24743Y141701D02*
X248324Y142595D01*
X247854Y145265D02*
X248324Y144795D01*
Y143434D02*
Y144795D01*
X247131Y145265D02*
X247854D01*
X230989Y144759D02*
X231892Y143857D01*
X232875D01*
X229976Y143759D02*
X230522D01*
X231875Y141587D02*
X237208D01*
X229976Y144759D02*
X230989D01*
X229976Y145759D02*
X231214D01*
X231555Y1461D01*
X247879Y142836D02*
Y142952D01*
Y14272D02*
Y142836D01*
X247761Y144064D02*
X247767D01*
X24264Y14284D02*
Y143429D01*
X242395Y142595D02*
X24264Y14284D01*
X242395Y142288D02*
X242433Y14225D01*
X242395Y142288D02*
Y142595D01*
X243107Y143896D02*
X244046D01*
X24264Y143429D02*
X243107Y143896D01*
X243711Y142391D02*
X244493D01*
X243478Y142624D02*
X243711Y142391D01*
X243319Y142949D02*
X243637Y143267D01*
X243065Y141926D02*
X243428D01*
X24192D02*
X243065D01*
X243075Y141936D01*
Y142941D01*
X243428Y141926D02*
X243478Y141876D01*
X241934Y142558D02*
X242242Y14225D01*
X242433D01*
X234345Y14546D02*
X234985Y1461D01*
X233155Y14546D02*
X234345D01*
X232515Y1461D02*
X233155Y14546D01*
X231555Y1461D02*
X232515D01*
X236249Y141806D02*
X236655D01*
X236009Y142046D02*
X236249Y141806D01*
X236009Y142046D02*
Y1423D01*
X233555Y14222D02*
X235221D01*
X232745D02*
X233555D01*
X235221D02*
X235301Y1423D01*
X232875Y143857D02*
X233998D01*
X234455Y142954D02*
Y1434D01*
X233998Y143857D02*
X234455Y1434D01*
Y142954D02*
X234509Y1429D01*
X236009D01*
Y1435D01*
Y1423D02*
Y1429D01*
X236009Y1435D02*
X236009Y1435D01*
X235061Y1435D02*
X235301D01*
X234041Y14452D02*
X235061Y1435D01*
X232875Y143857D02*
X232901Y143831D01*
X233649Y14222D02*
Y143288D01*
X233275Y144332D02*
X233575Y144632D01*
Y145116D01*
X234985Y1461D02*
X239052D01*
X234076Y146325D02*
X243725D01*
X233575Y145824D02*
X234076Y146325D01*
X232288Y142676D02*
X232745Y14222D01*
X236655Y141806D02*
X236657Y141804D01*
X238272Y1419D02*
Y142172D01*
X238176Y141804D02*
X238272Y1419D01*
X237208Y141587D02*
X237208Y141587D01*
X239052Y1461D02*
X239552Y1456D01*
X237208Y141587D02*
X243842D01*
X243855Y1416D01*
X240255Y142261D02*
Y142955D01*
X241258D01*
X239398D02*
X240255D01*
Y142261D02*
X24059Y141926D01*
X241533Y142314D02*
X24192Y141926D01*
X241533Y142314D02*
Y143007D01*
X241427Y143113D02*
X241533Y143007D01*
X243866Y141589D02*
X245823D01*
X243855Y1416D02*
X243866Y141589D01*
X245823D02*
X245834Y1416D01*
X245868D01*
X246324Y142056D01*
X247215D02*
X247879Y14272D01*
X246324Y142056D02*
X247215D01*
X241096Y144D02*
X24249D01*
X23591Y144641D02*
X236031Y14452D01*
X23591Y144641D02*
Y144951D01*
X239726Y143686D02*
Y144681D01*
X239496Y143456D02*
X239726Y143686D01*
X238263Y143456D02*
X239496D01*
X239726Y144681D02*
X239995Y14495D01*
X237466Y142066D02*
X23778D01*
X237091Y142441D02*
X237466Y142066D01*
X237091Y142441D02*
Y142531D01*
X236906Y142716D02*
X237091Y142531D01*
X236906Y142716D02*
Y143423D01*
X236806Y143523D02*
X236906Y143423D01*
X237973Y142456D02*
X238332Y142814D01*
X237544Y142456D02*
X237973D01*
X237356Y142644D02*
X237544Y142456D01*
X239806Y141989D02*
X239867Y141928D01*
X239806Y141989D02*
Y14248D01*
X239892Y142566D01*
X2406D02*
X24064Y142526D01*
X241186Y142647D02*
X241307Y142526D01*
X24064D02*
X241307D01*
X241589Y144409D02*
Y144689D01*
X241856Y144956D01*
X241806D02*
Y14503D01*
X241874Y145098D01*
X239552Y1456D02*
X240066Y146114D01*
X243725Y146325D02*
X243899Y146151D01*
X244389Y143856D02*
X246873D01*
X2438Y143267D02*
X244389Y143856D01*
X245226Y143636D02*
X245454Y143409D01*
X244656Y143636D02*
X245226D01*
X244436Y143416D02*
X244656Y143636D01*
X243637Y143267D02*
X2438D01*
X237356Y143364D02*
X237515Y143523D01*
X237356Y142644D02*
Y143364D01*
X244436Y143356D02*
Y143416D01*
X241536Y143557D02*
Y143646D01*
Y143557D02*
X24156Y143533D01*
X240408Y145767D02*
X240752Y145423D01*
X240369Y145767D02*
X240408D01*
X242633Y14495D02*
X24318D01*
X243445Y145216D02*
X244237D01*
X24318Y14495D02*
X243445Y145216D01*
X242484Y145048D02*
X242583Y14495D01*
X239995D02*
X240394D01*
X23778Y142974D02*
X238263Y143456D01*
X23778Y142814D02*
Y142974D01*
X244493Y144343D02*
Y14496D01*
X244046Y143896D02*
X244493Y144343D01*
X244545Y145841D02*
X244914Y14621D01*
X243899Y146151D02*
X244267D01*
X241922Y145757D02*
X242543D01*
X241915Y14575D02*
X241922Y145757D01*
X24145Y14545D02*
X24175Y14575D01*
X2417D02*
X241915D01*
X236019Y145619D02*
X236629Y145009D01*
Y144438D02*
Y145009D01*
X237515Y143523D02*
Y143635D01*
X23725Y1439D02*
X237515Y143635D01*
X23725Y1439D02*
Y145325D01*
X237524Y1456D01*
X238133Y143917D02*
X239355D01*
X237613Y144437D02*
X238133Y143917D01*
X237613Y144437D02*
Y144645D01*
X239365Y142665D02*
Y142922D01*
X23914Y14244D02*
X239365Y142665D01*
X238272Y142172D02*
X23854Y14244D01*
X246454Y145106D02*
X246972D01*
X247131Y145265D01*
X246668Y141701D02*
X246669Y141702D01*
X247767Y144064D02*
X247879Y143952D01*
X247328Y143434D02*
X248324D01*
X24678Y14248D02*
X247081D01*
X246454Y142806D02*
X24678Y14248D01*
X245954Y14408D02*
Y145106D01*
X239729Y142066D02*
X239867Y141928D01*
X238815Y142066D02*
X239729D01*
X241186Y141928D02*
Y142647D01*
X23531Y145551D02*
Y145619D01*
Y145551D02*
X23591Y144951D01*
X244316Y142751D02*
X244899D01*
X244954Y142806D01*
X245454D02*
Y143409D01*
X232101Y142489D02*
X232288Y142676D01*
X245454Y145106D02*
Y145594D01*
X244685Y145699D02*
X244842Y145856D01*
X244685Y145694D02*
Y145699D01*
X245191Y145856D02*
X245454Y145594D01*
X244842Y145856D02*
X245191D01*
X243053Y1454D02*
X243213Y14556D01*
X245954Y142109D02*
Y142806D01*
X245743Y141899D02*
X245954Y142109D01*
X245694Y141899D02*
X245743D01*
X238233Y1456D02*
X238843D01*
X238332Y142814D02*
X238815D01*
X244954Y14418D02*
Y145106D01*
X244237Y145216D02*
X244493Y14496D01*
X243135Y144645D02*
X2438D01*
X247131Y144773D02*
Y145265D01*
X2438Y143267D02*
X244316Y142751D01*
X239365Y142922D02*
X239398Y142955D01*
X241258D02*
X241415Y143113D01*
X241427D01*
X246423Y14621D02*
Y146229D01*
X24025Y144232D02*
Y144456D01*
Y144232D02*
X24095Y143533D01*
X24156D01*
X244552Y14556D02*
X244685Y145694D01*
X243213Y14556D02*
X244552D01*
X240066Y146114D02*
X243533D01*
X243806Y145841D02*
X244545D01*
X243533Y146114D02*
X243806Y145841D01*
X247081Y143188D02*
X247328Y143434D01*
D20*
X249532Y144077D02*
D03*
Y143077D02*
D03*
X229976Y144759D02*
D03*
Y145759D02*
D03*
X2438Y143267D02*
D03*
X235036Y14452D02*
D03*
X234041D02*
D03*
X236031D02*
D03*
D21*
X249532Y142077D02*
D03*
X229976Y143759D02*
D03*
X2438Y144645D02*
D03*
D22*
X242229Y144456D02*
D03*
Y143456D02*
D03*
X238263Y144456D02*
D03*
Y143456D02*
D03*
D23*
X24025Y143456D02*
D03*
Y144456D02*
D03*
D24*
X249532Y145531D02*
D03*
X229976Y142381D02*
D03*
D25*
X232288Y142676D02*
D03*
Y145235D02*
D03*
D26*
X247879Y142836D02*
D03*
X247761Y144064D02*
D03*
X246406Y146206D02*
D03*
X245954Y144166D02*
D03*
X244954D02*
D03*
X239316Y143106D02*
D03*
X244436Y143416D02*
D03*
X241536Y143646D02*
D03*
X240409Y145797D02*
D03*
X243016Y145334D02*
D03*
X247131Y145265D02*
D03*
X246669Y141702D02*
D03*
X236629Y144438D02*
D03*
X239355Y143917D02*
D03*
X237613Y144645D02*
D03*
X245694Y141899D02*
D03*
X244493Y142391D02*
D03*
X241427Y143113D02*
D03*
X244267Y146151D02*
D03*
X241589Y144409D02*
D03*
D27*
X243105Y144479D02*
D03*
Y143121D02*
D03*
D28*
X246454Y145106D02*
D03*
D29*
X244954D02*
D03*
X245954Y142806D02*
D03*
X245454D02*
D03*
X244954D02*
D03*
X245954Y145106D02*
D03*
X245454D02*
D03*
D30*
X246454Y142806D02*
D03*
M02*
