%FSTAX24Y24*%
%MOIN*%
G70*
G01*
G75*
G04 Layer_Color=65535*
%ADD10R,0.0374X0.0315*%
%ADD11R,0.0807X0.0886*%
%ADD12R,0.0492X0.0630*%
%ADD13R,0.0315X0.0374*%
%ADD14R,0.0472X0.0256*%
%ADD15R,0.0256X0.0472*%
%ADD16R,0.0630X0.0630*%
%ADD17O,0.0472X0.0217*%
%ADD18R,0.0472X0.0217*%
%ADD19C,0.0100*%
%ADD20C,0.0591*%
%ADD21R,0.0591X0.0591*%
%ADD22C,0.0472*%
%ADD23C,0.0551*%
%ADD24C,0.1575*%
%ADD25C,0.0709*%
%ADD26C,0.0320*%
%ADD27R,0.0630X0.0492*%
%ADD28O,0.0236X0.1204*%
%ADD29O,0.0236X0.1200*%
%ADD30R,0.0236X0.1200*%
%ADD31C,0.0197*%
%ADD32C,0.0079*%
%ADD33C,0.0080*%
%ADD34C,0.0039*%
%ADD35C,0.0004*%
D19*
X241659Y144943D02*
G03*
X242799Y144943I00057J-000987D01*
G01*
X24088Y143956D02*
G03*
X24088Y143956I-00063J0D01*
G01*
X237693Y144943D02*
G03*
X238833Y144943I00057J-000987D01*
G01*
X24519Y145089D02*
Y146271D01*
X245741D01*
Y145089D02*
Y146271D01*
X24519Y145089D02*
X245741D01*
X24285Y144676D02*
X24335D01*
X2431Y144426D02*
Y144926D01*
X241659Y144943D02*
X242799D01*
X240053Y143759D02*
X240427D01*
X237693Y144943D02*
X238833D01*
X247003Y142125D02*
X248184D01*
Y141574D02*
Y142125D01*
X247003Y141574D02*
X248184D01*
X247003D02*
Y142125D01*
X24719Y146092D02*
X248371D01*
Y145541D02*
Y146092D01*
X24719Y145541D02*
X248371D01*
X24719D02*
Y146092D01*
X239735Y14482D02*
X240917D01*
X239735D02*
Y145372D01*
X240917D01*
Y14482D02*
Y145372D01*
X243499Y141505D02*
Y142686D01*
X24405D01*
Y141505D02*
Y142686D01*
X243499Y141505D02*
X24405D01*
X239555Y142881D02*
X240737D01*
Y14233D02*
Y142881D01*
X239555Y14233D02*
X240737D01*
X239555D02*
Y142881D01*
X239316Y14628D02*
X24152D01*
Y145414D02*
Y14628D01*
X239316Y145414D02*
X24152D01*
X239316D02*
Y14628D01*
X232988Y142756D02*
Y145156D01*
X231588D02*
X232988D01*
X231588Y142756D02*
Y145156D01*
Y142756D02*
X232988D01*
X239126Y144959D02*
Y146141D01*
X238574Y144959D02*
X239126D01*
X238574D02*
Y146141D01*
X239126D01*
X237874Y144959D02*
X238426D01*
Y146141D01*
X237874D02*
X238426D01*
X237874Y144959D02*
Y146141D01*
X237726Y144959D02*
Y146141D01*
X237174Y144959D02*
X237726D01*
X237174D02*
Y146141D01*
X237726D01*
D31*
X236806Y14392D02*
G03*
X236806Y14392I-00025J0D01*
G01*
D32*
X249032Y141577D02*
X250032D01*
X249032D02*
Y144577D01*
X250032D01*
Y141577D02*
Y144577D01*
X230476Y143259D02*
Y146259D01*
X229476D02*
X230476D01*
X229476Y143259D02*
Y146259D01*
Y143259D02*
X230476D01*
X244Y145668D02*
Y14622D01*
X246156Y145175D02*
Y146277D01*
X246656Y145175D02*
Y146277D01*
X246156D02*
X246656D01*
X246156Y145175D02*
X246656D01*
X241904Y14586D02*
X243007D01*
X241904Y14536D02*
X243007D01*
Y14586D01*
X241904Y14536D02*
Y14586D01*
X238072Y141476D02*
Y142696D01*
X238572Y141476D02*
Y142696D01*
X238072D02*
X238572D01*
X238072Y141476D02*
X238572D01*
X230626Y145907D02*
X230691Y145973D01*
X230822D01*
X230888Y145907D01*
Y145841D01*
X230822Y145776D01*
X230757D01*
X230822D01*
X230888Y14571D01*
Y145645D01*
X230822Y145579D01*
X230691D01*
X230626Y145645D01*
X231019Y145776D02*
X231282D01*
X230646Y144549D02*
X230777D01*
X230711D01*
Y144943D01*
X230646Y144877D01*
X231236D02*
X23117Y144943D01*
X231039D01*
X230974Y144877D01*
Y144811D01*
X231039Y144746D01*
X23117D01*
X231236Y14468D01*
Y144615D01*
X23117Y144549D01*
X231039D01*
X230974Y144615D01*
X230918Y143549D02*
X230656D01*
X230918Y143811D01*
Y143877D01*
X230852Y143943D01*
X230721D01*
X230656Y143877D01*
X231049Y143746D02*
X231312D01*
X23118Y143877D02*
Y143615D01*
X248558Y141869D02*
X248296D01*
X248558Y142131D01*
Y142197D01*
X248492Y142263D01*
X248361D01*
X248296Y142197D01*
X248689Y142066D02*
X248952D01*
X24882Y142197D02*
Y141935D01*
X248316Y142889D02*
X248447D01*
X248381D01*
Y143283D01*
X248316Y143217D01*
X248906D02*
X24884Y143283D01*
X248709D01*
X248644Y143217D01*
Y143151D01*
X248709Y143086D01*
X24884D01*
X248906Y14302D01*
Y142955D01*
X24884Y142889D01*
X248709D01*
X248644Y142955D01*
X248296Y144207D02*
X248361Y144273D01*
X248492D01*
X248558Y144207D01*
Y144141D01*
X248492Y144076D01*
X248427D01*
X248492D01*
X248558Y14401D01*
Y143945D01*
X248492Y143879D01*
X248361D01*
X248296Y143945D01*
X248689Y144076D02*
X248952D01*
D33*
X24385Y145526D02*
X24815D01*
Y142376D02*
Y145526D01*
X24385Y142376D02*
X24815D01*
X24385D02*
Y145526D01*
X243305Y146344D02*
X245325D01*
Y145544D02*
Y146344D01*
X243305Y145544D02*
X245325D01*
X243305D02*
Y146344D01*
X233116Y14549D02*
X236976D01*
X233116Y14347D02*
Y14549D01*
Y14347D02*
X236976D01*
Y14549D01*
X232013Y143365D02*
Y143956D01*
Y143365D02*
X232524D01*
Y144546D01*
X232013D02*
X232524D01*
X232013Y143956D02*
Y144546D01*
D34*
X242999Y142556D02*
Y142647D01*
Y141466D02*
Y141556D01*
X241199Y142647D02*
X243299D01*
X241199Y141466D02*
X243299D01*
X241199D02*
Y142647D01*
X243299Y141466D02*
Y142647D01*
X249397Y142977D02*
Y143174D01*
X249496D01*
X249528Y143141D01*
Y143076D01*
X249496Y143043D01*
X249397D01*
X249594Y142977D02*
X24966D01*
X249627D01*
Y143174D01*
X249594Y143141D01*
X22981Y144657D02*
Y144854D01*
X229909D01*
X229942Y144821D01*
Y144755D01*
X229909Y144723D01*
X22981D01*
X230007Y144821D02*
X23004Y144854D01*
X230106D01*
X230138Y144821D01*
Y144788D01*
X230106Y144755D01*
X230073D01*
X230106D01*
X230138Y144723D01*
Y14469D01*
X230106Y144657D01*
X23004D01*
X230007Y14469D01*
X232202Y143831D02*
X232169Y143798D01*
Y143733D01*
X232202Y1437D01*
X232234D01*
X232267Y143733D01*
Y143798D01*
X2323Y143831D01*
X232333D01*
X232366Y143798D01*
Y143733D01*
X232333Y1437D01*
X232169Y143897D02*
X232366D01*
X2323Y143962D01*
X232366Y144028D01*
X232169D01*
X232366Y144094D02*
Y144159D01*
Y144126D01*
X232169D01*
X232202Y144094D01*
X23816Y142184D02*
Y14202D01*
X238192Y141987D01*
X238258D01*
X238291Y14202D01*
Y142184D01*
X238488Y141987D02*
X238356D01*
X238488Y142119D01*
Y142151D01*
X238455Y142184D01*
X238389D01*
X238356Y142151D01*
X242291Y145707D02*
X242422D01*
X242356D01*
Y145511D01*
X242586D02*
Y145707D01*
X242487Y145609D01*
X242619D01*
X246277Y145824D02*
X246409D01*
X246343D01*
Y145627D01*
X246474D02*
X24654D01*
X246507D01*
Y145824D01*
X246474Y145791D01*
X238103Y143987D02*
Y14379D01*
X238201D01*
X238234Y143823D01*
Y143954D01*
X238201Y143987D01*
X238103D01*
X238398Y14379D02*
Y143987D01*
X238299Y143888D01*
X238431D01*
X24009Y144057D02*
Y14386D01*
X240188D01*
X240221Y143893D01*
Y144024D01*
X240188Y144057D01*
X24009D01*
X240287Y144024D02*
X24032Y144057D01*
X240385D01*
X240418Y144024D01*
Y143991D01*
X240385Y143958D01*
X240352D01*
X240385D01*
X240418Y143926D01*
Y143893D01*
X240385Y14386D01*
X24032D01*
X240287Y143893D01*
X242069Y143987D02*
Y14379D01*
X242168D01*
X2422Y143823D01*
Y143954D01*
X242168Y143987D01*
X242069D01*
X242397Y14379D02*
X242266D01*
X242397Y143921D01*
Y143954D01*
X242364Y143987D01*
X242299D01*
X242266Y143954D01*
X24418Y146047D02*
Y14585D01*
X244278D01*
X244311Y145883D01*
Y146014D01*
X244278Y146047D01*
X24418D01*
X244377Y14585D02*
X244442D01*
X24441D01*
Y146047D01*
X244377Y146014D01*
X242131Y142124D02*
X242098Y142157D01*
X242033D01*
X242Y142124D01*
Y141993D01*
X242033Y14196D01*
X242098D01*
X242131Y141993D01*
X242197Y14196D02*
X242262D01*
X24223D01*
Y142157D01*
X242197Y142124D01*
X242361D02*
X242394Y142157D01*
X242459D01*
X242492Y142124D01*
Y141993D01*
X242459Y14196D01*
X242394D01*
X242361Y141993D01*
Y142124D01*
X240386Y145914D02*
X240353Y145947D01*
X240288D01*
X240255Y145914D01*
Y145783D01*
X240288Y14575D01*
X240353D01*
X240386Y145783D01*
X240452Y145947D02*
X240583D01*
Y145914D01*
X240452Y145783D01*
Y14575D01*
X245461Y144014D02*
X245428Y144047D01*
X245363D01*
X24533Y144014D01*
Y143883D01*
X245363Y14385D01*
X245428D01*
X245461Y143883D01*
X245658Y14385D02*
X245527D01*
X245658Y143981D01*
Y144014D01*
X245625Y144047D01*
X24556D01*
X245527Y144014D01*
X23488Y14438D02*
Y144577D01*
X234978D01*
X235011Y144544D01*
Y144478D01*
X234978Y144446D01*
X23488D01*
X235208Y14438D02*
X235077D01*
X235208Y144511D01*
Y144544D01*
X235175Y144577D01*
X23511D01*
X235077Y144544D01*
X233322Y14309D02*
Y142775D01*
X233479D01*
X233532Y142827D01*
Y143037D01*
X233479Y14309D01*
X233322D01*
X233637Y142775D02*
X233742D01*
X233689D01*
Y142985D01*
X233637D01*
X233952D02*
X234057D01*
X234109Y142932D01*
Y142775D01*
X233952D01*
X233899Y142827D01*
X233952Y14288D01*
X234109D01*
X234214Y14267D02*
Y142985D01*
X234372D01*
X234424Y142932D01*
Y142827D01*
X234372Y142775D01*
X234214D01*
X234529Y142985D02*
Y142775D01*
Y14288D01*
X234581Y142932D01*
X234634Y142985D01*
X234686D01*
X234896Y142775D02*
X235001D01*
X235054Y142827D01*
Y142932D01*
X235001Y142985D01*
X234896D01*
X234844Y142932D01*
Y142827D01*
X234896Y142775D01*
X235474Y14309D02*
Y142775D01*
Y14288D01*
X235683Y14309D01*
X235526Y142932D01*
X235683Y142775D01*
X235841D02*
Y143037D01*
Y142932D01*
X235788D01*
X235893D01*
X235841D01*
Y143037D01*
X235893Y14309D01*
X236103Y143037D02*
Y142985D01*
X236051D01*
X236156D01*
X236103D01*
Y142827D01*
X236156Y142775D01*
X236313D02*
Y142827D01*
X236366D01*
Y142775D01*
X236313D01*
X233322Y141804D02*
Y141646D01*
X233375Y141594D01*
X233427Y141646D01*
X233479Y141594D01*
X233532Y141646D01*
Y141804D01*
X233637D02*
Y141646D01*
X233689Y141594D01*
X233742Y141646D01*
X233794Y141594D01*
X233847Y141646D01*
Y141804D01*
X233952D02*
Y141646D01*
X234004Y141594D01*
X234057Y141646D01*
X234109Y141594D01*
X234162Y141646D01*
Y141804D01*
X234267Y141594D02*
Y141646D01*
X234319D01*
Y141594D01*
X234267D01*
X234739Y141909D02*
Y141594D01*
X234581D01*
X234529Y141646D01*
Y141751D01*
X234581Y141804D01*
X234739D01*
X234844Y141594D02*
X234949D01*
X234896D01*
Y141804D01*
X234844D01*
X235159D02*
X235264D01*
X235316Y141751D01*
Y141594D01*
X235159D01*
X235106Y141646D01*
X235159Y141699D01*
X235316D01*
X235421Y141489D02*
Y141804D01*
X235579D01*
X235631Y141751D01*
Y141646D01*
X235579Y141594D01*
X235421D01*
X235736Y141804D02*
Y141594D01*
Y141699D01*
X235788Y141751D01*
X235841Y141804D01*
X235893D01*
X236103Y141594D02*
X236208D01*
X236261Y141646D01*
Y141751D01*
X236208Y141804D01*
X236103D01*
X236051Y141751D01*
Y141646D01*
X236103Y141594D01*
X236366D02*
Y141646D01*
X236418D01*
Y141594D01*
X236366D01*
X236628Y141909D02*
Y141594D01*
Y141751D01*
X236681Y141804D01*
X236786D01*
X236838Y141751D01*
Y141594D01*
X236943Y141804D02*
Y141646D01*
X236995Y141594D01*
X237153D01*
Y141804D01*
X23344Y14242D02*
X233361D01*
X233322Y142381D01*
Y142224D01*
X233361Y142184D01*
X23344D01*
X233479Y142224D01*
Y142381D01*
X23344Y14242D01*
X233558Y142106D02*
Y142342D01*
X233676D01*
X233716Y142302D01*
Y142224D01*
X233676Y142184D01*
X233558D01*
X233834Y142381D02*
Y142342D01*
X233794D01*
X233873D01*
X233834D01*
Y142224D01*
X233873Y142184D01*
X23403D02*
X234109D01*
X234149Y142224D01*
Y142302D01*
X234109Y142342D01*
X23403D01*
X233991Y142302D01*
Y142224D01*
X23403Y142184D01*
X234385Y142381D02*
X234345Y14242D01*
X234267D01*
X234227Y142381D01*
Y142342D01*
X234267Y142302D01*
X234345D01*
X234385Y142263D01*
Y142224D01*
X234345Y142184D01*
X234267D01*
X234227Y142224D01*
X234581Y142184D02*
X234503D01*
X234463Y142224D01*
Y142302D01*
X234503Y142342D01*
X234581D01*
X234621Y142302D01*
Y142263D01*
X234463D01*
X2347Y142184D02*
Y142342D01*
X234818D01*
X234857Y142302D01*
Y142184D01*
X234936D02*
X235054D01*
X235093Y142224D01*
X235054Y142263D01*
X234975D01*
X234936Y142302D01*
X234975Y142342D01*
X235093D01*
X23529Y142184D02*
X235211D01*
X235172Y142224D01*
Y142302D01*
X235211Y142342D01*
X23529D01*
X235329Y142302D01*
Y142263D01*
X235172D01*
X235644Y142342D02*
X235723Y142184D01*
X235802Y142342D01*
X236038Y142184D02*
X23588D01*
X236038Y142342D01*
Y142381D01*
X235998Y14242D01*
X23592D01*
X23588Y142381D01*
X247116Y14496D02*
Y144693D01*
X247249Y144827D02*
X246983D01*
X246936Y14286D02*
X247203D01*
X246593Y144103D02*
X246526Y14417D01*
X246393D01*
X246326Y144103D01*
Y143837D01*
X246393Y14377D01*
X246526D01*
X246593Y143837D01*
Y14397D01*
X246459D01*
X246726Y14377D02*
Y14417D01*
X246992Y14377D01*
Y14417D01*
X247126D02*
Y14377D01*
X247326D01*
X247392Y143837D01*
Y144103D01*
X247326Y14417D01*
X247126D01*
D35*
X24545Y14567D02*
Y14569D01*
X24546D01*
X245463Y145686D01*
Y14568D01*
X24546Y145677D01*
X24545D01*
X245457D02*
X245463Y14567D01*
X24547Y145686D02*
X245473Y14569D01*
X24548D01*
X245483Y145686D01*
Y145683D01*
X24548Y14568D01*
X245476D01*
X24548D01*
X245483Y145677D01*
Y145673D01*
X24548Y14567D01*
X245473D01*
X24547Y145673D01*
X23883Y14554D02*
Y14556D01*
X23884D01*
X238843Y145556D01*
Y14555D01*
X23884Y145547D01*
X23883D01*
X238837D02*
X238843Y14554D01*
X23885D02*
X238856D01*
X238853D01*
Y14556D01*
X23885Y145556D01*
X238866D02*
X238869Y14556D01*
X238876D01*
X238879Y145556D01*
Y145553D01*
X238876Y14555D01*
X238879Y145547D01*
Y145543D01*
X238876Y14554D01*
X238869D01*
X238866Y145543D01*
Y145547D01*
X238869Y14555D01*
X238866Y145553D01*
Y145556D01*
X238869Y14555D02*
X238876D01*
X23743Y14554D02*
Y14556D01*
X23744D01*
X237443Y145556D01*
Y14555D01*
X23744Y145547D01*
X23743D01*
X237437D02*
X237443Y14554D01*
X23745D02*
X237456D01*
X237453D01*
Y14556D01*
X23745Y145556D01*
X237466Y14556D02*
X237479D01*
Y145556D01*
X237466Y145543D01*
Y14554D01*
X24012Y1426D02*
Y14262D01*
X24013D01*
X240133Y142616D01*
Y14261D01*
X24013Y142607D01*
X24012D01*
X240127D02*
X240133Y1426D01*
X24014D02*
X240146D01*
X240143D01*
Y14262D01*
X24014Y142616D01*
X240169Y14262D02*
X240163Y142616D01*
X240156Y14261D01*
Y142603D01*
X240159Y1426D01*
X240166D01*
X240169Y142603D01*
Y142607D01*
X240166Y14261D01*
X240156D01*
X24375Y14209D02*
Y14211D01*
X24376D01*
X243763Y142106D01*
Y1421D01*
X24376Y142097D01*
X24375D01*
X243757D02*
X243763Y14209D01*
X24377D02*
X243776D01*
X243773D01*
Y14211D01*
X24377Y142106D01*
X243786D02*
X243789Y14211D01*
X243796D01*
X243799Y142106D01*
Y142103D01*
X243796Y1421D01*
X243793D01*
X243796D01*
X243799Y142097D01*
Y142093D01*
X243796Y14209D01*
X243789D01*
X243786Y142093D01*
X24031Y14509D02*
Y14511D01*
X24032D01*
X240323Y145106D01*
Y1451D01*
X24032Y145097D01*
X24031D01*
X240317D02*
X240323Y14509D01*
X24033Y145106D02*
X240333Y14511D01*
X24034D01*
X240343Y145106D01*
Y145103D01*
X24034Y1451D01*
X240343Y145097D01*
Y145093D01*
X24034Y14509D01*
X240333D01*
X24033Y145093D01*
Y145097D01*
X240333Y1451D01*
X24033Y145103D01*
Y145106D01*
X240333Y1451D02*
X24034D01*
X24776Y14581D02*
Y14583D01*
X24777D01*
X247773Y145826D01*
Y14582D01*
X24777Y145817D01*
X24776D01*
X247767D02*
X247773Y14581D01*
X24779D02*
Y14583D01*
X24778Y14582D01*
X247793D01*
X24758Y14184D02*
Y14186D01*
X24759D01*
X247593Y141856D01*
Y14185D01*
X24759Y141847D01*
X24758D01*
X247587D02*
X247593Y14184D01*
X247613D02*
X2476D01*
X247613Y141853D01*
Y141856D01*
X24761Y14186D01*
X247603D01*
X2476Y141856D01*
X238143Y145556D02*
X23814Y14556D01*
X238133D01*
X23813Y145556D01*
Y145543D01*
X238133Y14554D01*
X23814D01*
X238143Y145543D01*
X23815Y14554D02*
X238156D01*
X238153D01*
Y14556D01*
X23815Y145556D01*
X238166Y14554D02*
X238173D01*
X238169D01*
Y14556D01*
X238166Y145556D01*
M02*
