M48
;Layer_Color=9474304
;FILE_FORMAT=2:4
INCH,LZ
;TYPE=PLATED
T1F00S00C0.0200
T2F00S00C0.0315
T3F00S00C0.0354
T4F00S00C0.0551
T5F00S00C0.1693
%
T01
X059259Y043118
X059189Y046737
X06185Y04675
X06495Y04645
X06517Y041874
X062729Y043822
X069418Y045886
X071973Y046594
X071906Y044446
X077517Y045983
X07835Y04705
X07655Y04735
X07565
X07485
X072036Y048709
X071449Y048606
X071441Y04928
X069721Y049409
X069213Y049098
X068859Y048642
X069756Y04855
X068922Y047657
X069Y04715
X066996Y04837
X066973Y049512
X053433Y049088
X049756Y047182
T02
X060449Y042214
X061449
X063449
T03
X065382Y045009
X066382
X067382
X079233Y045371
Y044371
Y046371
Y047371
Y048371
Y049371
X065823Y0493
X064823
X063823
X062823
X063311Y047911
X064311
T04
X065296Y043513
X066674
X068052
X06943
X070807
X072185
X073563
X074941
X076319
T05
X046284Y044623
X078485Y042962
X081914Y044623
X061162Y048474
M30
