%FSTAX24Y24*%
%MOIN*%
G70*
G01*
G75*
G04 Layer_Physical_Order=1*
G04 Layer_Color=255*
%ADD10O,0.0394X0.0984*%
%ADD11R,0.0394X0.0984*%
%ADD12R,0.0394X0.0512*%
%ADD13R,0.0709X0.0709*%
%ADD14R,0.0472X0.0512*%
%ADD15R,0.1004X0.0374*%
%ADD16R,0.1004X0.1299*%
%ADD17R,0.0512X0.0394*%
%ADD18R,0.0630X0.0630*%
%ADD19R,0.0374X0.0315*%
%ADD20R,0.0984X0.0512*%
%ADD21O,0.0906X0.0236*%
%ADD22R,0.0709X0.0709*%
%ADD23R,0.0256X0.0472*%
%ADD24R,0.1575X0.0866*%
%ADD25R,0.0512X0.0236*%
%ADD26O,0.0512X0.0236*%
%ADD27R,0.0315X0.0374*%
%ADD28R,0.0472X0.0256*%
%ADD29C,0.0100*%
%ADD30C,0.0300*%
%ADD31C,0.0250*%
%ADD32C,0.0600*%
%ADD33C,0.0200*%
%ADD34C,0.0080*%
%ADD35C,0.0060*%
%ADD36C,0.2756*%
%ADD37C,0.0709*%
%ADD38C,0.0984*%
%ADD39R,0.0984X0.0984*%
G04:AMPARAMS|DCode=40|XSize=37.4mil|YSize=57.1mil|CornerRadius=0mil|HoleSize=0mil|Usage=FLASHONLY|Rotation=345.000|XOffset=0mil|YOffset=0mil|HoleType=Round|Shape=Round|*
%AMOVALD40*
21,1,0.0197,0.0374,0.0000,0.0000,75.0*
1,1,0.0374,-0.0025,-0.0095*
1,1,0.0374,0.0025,0.0095*
%
%ADD40OVALD40*%

G04:AMPARAMS|DCode=41|XSize=37.4mil|YSize=57.1mil|CornerRadius=0mil|HoleSize=0mil|Usage=FLASHONLY|Rotation=10.000|XOffset=0mil|YOffset=0mil|HoleType=Round|Shape=Round|*
%AMOVALD41*
21,1,0.0197,0.0374,0.0000,0.0000,100.0*
1,1,0.0374,0.0017,-0.0097*
1,1,0.0374,-0.0017,0.0097*
%
%ADD41OVALD41*%

%ADD42R,0.0591X0.0591*%
%ADD43C,0.0591*%
%ADD44R,0.0591X0.0591*%
%ADD45C,0.1800*%
%ADD46C,0.0320*%
%ADD47C,0.0500*%
G36*
X186727Y14905D02*
X186696Y14901D01*
X186664Y148933D01*
X186653Y14885D01*
X186664Y148767D01*
X186696Y14869D01*
X186747Y148623D01*
Y148577D01*
X186696Y14851D01*
X186664Y148433D01*
X186653Y14835D01*
X186664Y148267D01*
X186696Y14819D01*
X186727Y14815D01*
X186705Y148105D01*
X18625D01*
X186152Y148085D01*
X18607Y14803D01*
X185701Y147662D01*
X185655Y147681D01*
Y148294D01*
X186456Y149095D01*
X186705D01*
X186727Y14905D01*
D02*
G37*
G36*
X193758Y149132D02*
Y149006D01*
Y14893D01*
X193675D01*
X193577Y14891D01*
X193495Y148855D01*
X19292Y14828D01*
X192864Y148198D01*
X192845Y1481D01*
Y147006D01*
X1928Y146961D01*
X192753Y146977D01*
X192751Y146994D01*
X192714Y147082D01*
X192657Y147157D01*
X192582Y147214D01*
X192494Y147251D01*
X1924Y147263D01*
X192306Y147251D01*
X19226Y147232D01*
X192201Y147256D01*
X192213Y14735D01*
X192201Y147444D01*
X192164Y147532D01*
X192132Y147574D01*
X192148Y147615D01*
X19223Y14767D01*
X193712Y149152D01*
X193758Y149132D01*
D02*
G37*
G36*
X195209Y150544D02*
X196045D01*
Y148142D01*
X195143D01*
Y148219D01*
Y149006D01*
Y149918D01*
X194547D01*
X194537Y149967D01*
X194582Y149986D01*
X194657Y150043D01*
X194714Y150118D01*
X194751Y150206D01*
X194763Y1503D01*
X194751Y150394D01*
X194714Y150482D01*
X194657Y150557D01*
X194582Y150614D01*
X194494Y150651D01*
X1944Y150663D01*
X194409Y150672D01*
X195209D01*
Y150544D01*
D02*
G37*
G36*
X188714Y14809D02*
Y147306D01*
X188513Y147105D01*
X187913D01*
X187891Y14715D01*
X187921Y14719D01*
X187953Y147267D01*
X187964Y14735D01*
X187953Y147433D01*
X187921Y14751D01*
X18787Y147577D01*
Y147623D01*
X187921Y14769D01*
X187953Y147767D01*
X187964Y14785D01*
X187953Y147933D01*
X187921Y14801D01*
X18787Y148077D01*
X187876Y148095D01*
X188142D01*
X188143Y148093D01*
X188218Y148036D01*
X188306Y147999D01*
X1884Y147987D01*
X188494Y147999D01*
X188582Y148036D01*
X188657Y148093D01*
X188666Y148106D01*
X188714Y14809D01*
D02*
G37*
G36*
X185422Y172517D02*
Y171936D01*
X186078D01*
Y172396D01*
X186124Y172415D01*
X186671Y171868D01*
Y171614D01*
X186598D01*
Y170741D01*
X186638D01*
Y170089D01*
X186593Y170067D01*
X186532Y170114D01*
X186444Y170151D01*
X1864Y170157D01*
Y1698D01*
Y169443D01*
X186444Y169449D01*
X186532Y169486D01*
X186607Y169543D01*
X186664Y169618D01*
X186692Y169684D01*
X186741Y169675D01*
Y169041D01*
X18608Y16838D01*
X185701Y16876D01*
Y169338D01*
X185707Y169343D01*
X185764Y169418D01*
X185801Y169506D01*
X185813Y1696D01*
X185801Y169694D01*
X185764Y169782D01*
X185707Y169857D01*
X185701Y169862D01*
Y170213D01*
X186104D01*
Y1706D01*
X186154D01*
Y17065D01*
X186512D01*
Y170987D01*
X186452D01*
Y171278D01*
X185796D01*
Y170987D01*
X185704D01*
Y171764D01*
X185155D01*
Y172719D01*
X185201Y172738D01*
X185422Y172517D01*
D02*
G37*
G36*
X186285Y141354D02*
Y140895D01*
X185765D01*
X185655Y141006D01*
Y141919D01*
X185701Y141938D01*
X186285Y141354D01*
D02*
G37*
G36*
X196045Y146006D02*
X19582Y14578D01*
X195143D01*
Y145857D01*
Y146644D01*
Y147431D01*
Y147633D01*
X196045D01*
Y146006D01*
D02*
G37*
G36*
X201872Y149864D02*
Y149763D01*
X201831Y149736D01*
X201794Y149751D01*
X2017Y149763D01*
X201606Y149751D01*
X201518Y149714D01*
X201487Y14969D01*
X201442Y149712D01*
Y149918D01*
X200057D01*
Y149006D01*
Y148219D01*
Y147431D01*
Y146644D01*
Y146363D01*
X201442D01*
Y146644D01*
Y147431D01*
Y147588D01*
X201487Y14761D01*
X201518Y147586D01*
X201606Y147549D01*
X2017Y147537D01*
X201794Y147549D01*
X201831Y147564D01*
X201872Y147537D01*
Y145853D01*
X201442D01*
Y145857D01*
Y146263D01*
X200057D01*
Y145857D01*
Y145069D01*
Y145053D01*
X198507D01*
X198492Y145064D01*
X198404Y145101D01*
X19831Y145113D01*
X198216Y145101D01*
X198128Y145064D01*
X198053Y145007D01*
X197996Y144932D01*
X197959Y144844D01*
X197947Y14475D01*
X197959Y144656D01*
X197996Y144568D01*
X198053Y144493D01*
X198128Y144436D01*
X198216Y144399D01*
X19831Y144387D01*
X198404Y144399D01*
X198492Y144436D01*
X198507Y144447D01*
X200057D01*
Y144282D01*
X201442D01*
Y145069D01*
Y145197D01*
X201872D01*
Y140736D01*
X200361Y139225D01*
X200315Y139244D01*
Y139439D01*
X200315Y139439D01*
Y139646D01*
X20025D01*
Y13975D01*
X199943D01*
X199949Y139706D01*
X199957Y139688D01*
X199929Y139646D01*
X198271D01*
X198243Y139688D01*
X198251Y139706D01*
X198257Y13975D01*
X197543D01*
X197549Y139706D01*
X197557Y139688D01*
X197529Y139646D01*
X196966D01*
Y140256D01*
X196947Y140353D01*
X196891Y140436D01*
X196809Y140491D01*
X196711Y14051D01*
X194519D01*
X194496Y140555D01*
X19451Y140573D01*
X19456Y140693D01*
X194562Y140713D01*
X194608Y140734D01*
X194645Y140709D01*
X194743Y14069D01*
X198384D01*
X198482Y140709D01*
X198564Y140764D01*
X198564Y140764D01*
X198564Y140764D01*
X19903Y14123D01*
X199086Y141313D01*
X199105Y14141D01*
X199105Y14141D01*
X199105Y14141D01*
Y14141D01*
Y141759D01*
X199306D01*
Y142547D01*
Y142894D01*
X198394D01*
Y142547D01*
Y141759D01*
X198595D01*
Y141516D01*
X198279Y141199D01*
X197884D01*
X197865Y141246D01*
X19803Y141411D01*
X198085Y141494D01*
X198105Y141591D01*
X198105Y141591D01*
X198105Y141591D01*
Y141591D01*
Y141759D01*
X198306D01*
Y142547D01*
Y142894D01*
X197394D01*
Y142547D01*
Y141759D01*
X197595D01*
Y141697D01*
X197491Y141593D01*
X197084D01*
X19706Y141637D01*
X197085Y141675D01*
X197088Y14169D01*
X197102Y141759D01*
X197306D01*
Y142547D01*
Y142894D01*
X196394D01*
Y142547D01*
Y141888D01*
X196306D01*
Y142547D01*
Y142894D01*
X195394D01*
Y142547D01*
Y142411D01*
X195258D01*
X194332Y143337D01*
Y143394D01*
X19443Y143469D01*
X19451Y143573D01*
X19456Y143693D01*
X194577Y143822D01*
X19456Y143952D01*
X19451Y144072D01*
X19443Y144176D01*
X194327Y144255D01*
X194332Y144282D01*
X1944D01*
Y144688D01*
X193758D01*
Y144282D01*
X193785D01*
X193801Y144235D01*
X193724Y144176D01*
X193645Y144072D01*
X193602Y14397D01*
X193552D01*
X19351Y144072D01*
X19343Y144176D01*
X193327Y144255D01*
X193206Y144305D01*
X193077Y144322D01*
X192948Y144305D01*
X192827Y144255D01*
X192724Y144176D01*
X192645Y144072D01*
X192602Y14397D01*
X192552D01*
X19251Y144072D01*
X19243Y144176D01*
X192327Y144255D01*
X192206Y144305D01*
X192077Y144322D01*
X191948Y144305D01*
X191827Y144255D01*
X191724Y144176D01*
X191645Y144072D01*
X191602Y14397D01*
X191552D01*
X19151Y144072D01*
X19143Y144176D01*
X191327Y144255D01*
X191206Y144305D01*
X191077Y144322D01*
X190948Y144305D01*
X190827Y144255D01*
X190724Y144176D01*
X190645Y144072D01*
X190595Y143952D01*
X190578Y143822D01*
X190595Y143693D01*
X190645Y143573D01*
X190724Y143469D01*
X190827Y14339D01*
X190948Y14334D01*
X191077Y143323D01*
X191113Y143328D01*
X19161Y142831D01*
X191692Y142776D01*
X19179Y142757D01*
X19257D01*
X193973Y141354D01*
X193957Y141306D01*
X193948Y141305D01*
X193827Y141255D01*
X193724Y141176D01*
X193645Y141072D01*
X193606Y140979D01*
X193548D01*
X19351Y141072D01*
X19343Y141176D01*
X193327Y141255D01*
X193206Y141305D01*
X193077Y141322D01*
X192948Y141305D01*
X192827Y141255D01*
X192724Y141176D01*
X192645Y141072D01*
X192606Y140979D01*
X192548D01*
X19251Y141072D01*
X19243Y141176D01*
X192327Y141255D01*
X192206Y141305D01*
X192077Y141322D01*
X191948Y141305D01*
X191827Y141255D01*
X191724Y141176D01*
X191645Y141072D01*
X191621Y141017D01*
X191572Y141026D01*
Y141318D01*
X190582D01*
Y140957D01*
X190503Y140904D01*
X189914Y140315D01*
X189831D01*
Y140516D01*
X188249D01*
Y13993D01*
X188082Y139763D01*
X18808Y139763D01*
X187986Y139751D01*
X187898Y139714D01*
X187823Y139657D01*
X187766Y139582D01*
X187729Y139494D01*
X187717Y1394D01*
X187729Y139306D01*
X187766Y139218D01*
X187796Y139179D01*
X187783Y139131D01*
X187725Y139107D01*
X187513Y138977D01*
X187324Y138816D01*
X187163Y138627D01*
X187158Y138619D01*
X187108Y138616D01*
X187077Y138657D01*
X187002Y138714D01*
X186914Y138751D01*
X18687Y138757D01*
Y1384D01*
Y138043D01*
X186861Y138042D01*
X186895Y138005D01*
X18688Y137944D01*
X18686Y137696D01*
X18688Y137449D01*
X186938Y137207D01*
X187033Y136978D01*
X187163Y136766D01*
X187324Y136577D01*
X187513Y136416D01*
X187725Y136286D01*
X187954Y136191D01*
X188196Y136133D01*
X188443Y136114D01*
X188691Y136133D01*
X188932Y136191D01*
X189162Y136286D01*
X189374Y136416D01*
X189563Y136577D01*
X189724Y136766D01*
X189854Y136978D01*
X189949Y137207D01*
X190007Y137449D01*
X190026Y137696D01*
X190007Y137944D01*
X189949Y138186D01*
X189854Y138415D01*
X189724Y138627D01*
X189563Y138816D01*
X189374Y138977D01*
X189162Y139107D01*
X188932Y139202D01*
X188691Y13926D01*
X188443Y139279D01*
X188428Y1393D01*
X188431Y139306D01*
X188443Y1394D01*
X188443Y139402D01*
X188645Y139604D01*
X189831D01*
Y139805D01*
X190019D01*
X190117Y139825D01*
X1902Y13988D01*
X190504Y140184D01*
X190551Y140165D01*
Y134605D01*
X185155D01*
Y137573D01*
X185203Y137588D01*
X185224Y137555D01*
X185404Y137376D01*
X185417Y137271D01*
X185467Y13715D01*
X185547Y137047D01*
X18565Y136967D01*
X185753Y136925D01*
Y136875D01*
X18565Y136833D01*
X185547Y136753D01*
X185467Y13665D01*
X185417Y136529D01*
X1854Y1364D01*
X185417Y136271D01*
X185467Y13615D01*
X185547Y136047D01*
X18565Y135967D01*
X185753Y135925D01*
Y135875D01*
X18565Y135833D01*
X185547Y135753D01*
X185467Y13565D01*
X185417Y135529D01*
X1854Y1354D01*
X185417Y135271D01*
X185467Y13515D01*
X185547Y135047D01*
X18565Y134967D01*
X185771Y134917D01*
X1859Y1349D01*
X186029Y134917D01*
X18615Y134967D01*
X186253Y135047D01*
X186333Y13515D01*
X186383Y135271D01*
X1864Y1354D01*
X186383Y135529D01*
X186333Y13565D01*
X186253Y135753D01*
X18615Y135833D01*
X186047Y135875D01*
Y135925D01*
X18615Y135967D01*
X186253Y136047D01*
X186333Y13615D01*
X186383Y136271D01*
X1864Y1364D01*
X186383Y136523D01*
X18664Y13678D01*
X186695Y136862D01*
X186715Y13696D01*
Y138013D01*
X186752Y138046D01*
X18677Y138043D01*
Y1384D01*
Y138757D01*
X186752Y138754D01*
X186715Y138787D01*
Y138894D01*
X18701Y13919D01*
X187066Y139272D01*
X187085Y13937D01*
Y14187D01*
X187066Y141968D01*
X18701Y14205D01*
X186455Y142606D01*
Y146794D01*
X186623Y146963D01*
X186665Y146935D01*
X186664Y146933D01*
X186653Y14685D01*
X186664Y146767D01*
X186696Y14669D01*
X186747Y146623D01*
Y146577D01*
X186696Y14651D01*
X186664Y146433D01*
X186653Y14635D01*
X186664Y146267D01*
X186696Y14619D01*
X186747Y146123D01*
Y146077D01*
X186696Y14601D01*
X186664Y145933D01*
X186653Y14585D01*
X186664Y145767D01*
X186696Y14569D01*
X186747Y145623D01*
Y145577D01*
X186696Y14551D01*
X186664Y145433D01*
X186653Y14535D01*
X186664Y145267D01*
X186696Y14519D01*
X186747Y145123D01*
Y145077D01*
X186696Y14501D01*
X186664Y144933D01*
X186653Y14485D01*
X186664Y144767D01*
X186696Y14469D01*
X186747Y144623D01*
X186814Y144572D01*
X186891Y14454D01*
X186974Y144529D01*
X187054D01*
Y143952D01*
X187073Y143854D01*
X187128Y143772D01*
X187224Y143676D01*
Y143144D01*
X187309D01*
Y14275D01*
X187706D01*
Y1427D01*
X187756D01*
Y142244D01*
X188891D01*
Y143144D01*
X188963D01*
Y144056D01*
X187565D01*
X187564Y144058D01*
Y144529D01*
X187643D01*
X187726Y14454D01*
X187804Y144572D01*
X18787Y144623D01*
X187921Y14469D01*
X187953Y144767D01*
X187964Y14485D01*
X187953Y144933D01*
X187921Y14501D01*
X18787Y145077D01*
X187876Y145095D01*
X18915D01*
X189248Y145115D01*
X18933Y14517D01*
X18933Y14517D01*
X18933Y14517D01*
X189599Y145438D01*
X189645Y145419D01*
Y145D01*
X189645Y145D01*
X189645D01*
X189664Y144902D01*
X18972Y14482D01*
X18987Y14467D01*
X189952Y144615D01*
X19005Y144595D01*
X190366D01*
X190396Y144572D01*
X190474Y14454D01*
X190557Y144529D01*
X191226D01*
X191309Y14454D01*
X191386Y144572D01*
X191453Y144623D01*
X191504Y14469D01*
X191536Y144767D01*
X191547Y14485D01*
X191536Y144933D01*
X191504Y14501D01*
X191453Y145077D01*
Y145123D01*
X191504Y14519D01*
X191536Y145267D01*
X191547Y14535D01*
X191536Y145433D01*
X191504Y14551D01*
X191453Y145577D01*
Y145623D01*
X191504Y14569D01*
X191536Y145767D01*
X191547Y14585D01*
X191536Y145933D01*
X191504Y14601D01*
X191453Y146077D01*
X191459Y146095D01*
X19255D01*
X192648Y146115D01*
X19273Y14617D01*
X19328Y14672D01*
X193335Y146802D01*
X193355Y1469D01*
Y147994D01*
X193712Y148352D01*
X193758Y148332D01*
Y148219D01*
Y147431D01*
Y146644D01*
Y145857D01*
Y145069D01*
Y144788D01*
X195143D01*
Y145069D01*
Y14527D01*
X195925D01*
X196023Y14529D01*
X196105Y145345D01*
X196105Y145345D01*
X196105Y145345D01*
X19648Y14572D01*
X196535Y145802D01*
X196555Y1459D01*
X196555Y1459D01*
X196555Y1459D01*
Y1459D01*
Y150544D01*
X196791D01*
Y151372D01*
X197645D01*
Y150605D01*
X197837D01*
Y149795D01*
X196816Y148774D01*
X196768Y148711D01*
X196759Y14869D01*
X196738Y148638D01*
X196727Y14856D01*
Y146227D01*
X196716Y146212D01*
X196679Y146124D01*
X196667Y14603D01*
X196679Y145936D01*
X196716Y145848D01*
X196773Y145773D01*
X196848Y145716D01*
X196936Y145679D01*
X19703Y145667D01*
X197124Y145679D01*
X197212Y145716D01*
X197287Y145773D01*
X197344Y145848D01*
X197381Y145936D01*
X197393Y14603D01*
X197381Y146124D01*
X197344Y146212D01*
X197333Y146227D01*
Y148435D01*
X198354Y149456D01*
X198402Y149519D01*
X198432Y149592D01*
X198443Y14967D01*
X198443Y14967D01*
X198443Y14967D01*
Y14967D01*
Y150605D01*
X198635D01*
Y151372D01*
X200364D01*
X201872Y149864D01*
D02*
G37*
G36*
X18521Y168557D02*
X185265Y168474D01*
X185685Y168054D01*
Y16656D01*
X185685Y16656D01*
X185685D01*
X185704Y166462D01*
X18576Y16638D01*
X185993Y166146D01*
X185974Y1661D01*
X185155D01*
Y16858D01*
X185205Y168585D01*
X18521Y168557D01*
D02*
G37*
G36*
X195205Y163205D02*
X19532Y163116D01*
X195455Y16306D01*
X1956Y163041D01*
X195684Y163052D01*
X195791Y162946D01*
X195859Y162894D01*
X195938Y162861D01*
X196022Y16285D01*
X196872D01*
Y162754D01*
X196646D01*
Y161646D01*
X197754D01*
D01*
X197754D01*
X197755Y161645D01*
Y161101D01*
X197754D01*
Y161101D01*
X196646D01*
Y160928D01*
X196047D01*
X195995Y160995D01*
X19588Y161084D01*
X195793Y16112D01*
X195139Y161774D01*
Y163212D01*
X195187Y163228D01*
X195205Y163205D01*
D02*
G37*
G36*
X191134Y153708D02*
Y153157D01*
Y153021D01*
X190666D01*
X190569Y153002D01*
X190486Y152947D01*
X189601Y152062D01*
X189555Y152081D01*
Y152194D01*
X191088Y153727D01*
X191134Y153708D01*
D02*
G37*
G36*
X202617Y152321D02*
X199722D01*
Y153248D01*
X199722Y153248D01*
X199722Y153248D01*
Y153248D01*
Y153835D01*
X202617D01*
Y152321D01*
D02*
G37*
G36*
X199212Y153248D02*
X199212Y153248D01*
X199212D01*
Y152067D01*
D01*
X199212Y152067D01*
X199212Y152066D01*
X19918Y152028D01*
X1958D01*
X195715Y152017D01*
X195659Y151993D01*
X195636Y151984D01*
X195607Y151961D01*
X195568Y151932D01*
X195375Y151738D01*
X195322Y15167D01*
X195306Y151631D01*
X19529Y151591D01*
X195284Y151549D01*
X195278Y151506D01*
Y151456D01*
X195209D01*
Y151328D01*
X194028D01*
Y151611D01*
X194057D01*
Y152522D01*
X193459D01*
X19344Y152569D01*
X19367Y152799D01*
X193702Y152795D01*
X193806Y152809D01*
X193902Y152849D01*
X193985Y152912D01*
X194049Y152995D01*
X194089Y153092D01*
X194102Y153195D01*
Y153288D01*
X195763D01*
X195846Y153305D01*
X195847Y153302D01*
X195936Y153186D01*
X196052Y153097D01*
X196187Y153041D01*
X196332Y153022D01*
X196476Y153041D01*
X196611Y153097D01*
X196727Y153186D01*
X196816Y153302D01*
X196872Y153437D01*
X196891Y153581D01*
X196872Y153726D01*
X196816Y153861D01*
X196727Y153977D01*
X196611Y154066D01*
Y154082D01*
X196727Y15417D01*
X196816Y154286D01*
X196872Y154421D01*
X196891Y154566D01*
X196872Y15471D01*
X196816Y154845D01*
X196727Y154961D01*
X196611Y15505D01*
X196476Y155106D01*
X196332Y155125D01*
X196187Y155106D01*
X196052Y15505D01*
X195936Y154961D01*
X195847Y154845D01*
X195791Y15471D01*
X195772Y154566D01*
X195791Y154421D01*
X195847Y154286D01*
X195936Y15417D01*
X195959Y154153D01*
X195962Y154103D01*
X195657Y153798D01*
X194101D01*
X194089Y153889D01*
X194049Y153986D01*
X193985Y154069D01*
X193902Y154132D01*
X193806Y154172D01*
X193702Y154186D01*
X193598Y154172D01*
X193502Y154132D01*
X193419Y154069D01*
X193355Y153986D01*
X193315Y153889D01*
X193302Y153786D01*
Y153195D01*
X193307Y153157D01*
X193068Y152918D01*
X19303Y152951D01*
X193064Y152995D01*
X193104Y153092D01*
X193118Y153195D01*
Y153441D01*
X192768D01*
Y152802D01*
X192821Y152809D01*
X192918Y152849D01*
X192962Y152883D01*
X192995Y152845D01*
X192692Y152542D01*
X192679Y152522D01*
X192476D01*
Y152321D01*
X192046D01*
Y152369D01*
X192046D01*
Y153157D01*
Y153649D01*
X19227Y153873D01*
X192282Y153891D01*
X192329Y153874D01*
X192317Y153786D01*
Y153541D01*
X192668D01*
Y15418D01*
X192614Y154172D01*
X192518Y154132D01*
X192435Y154069D01*
X192385Y154004D01*
X192339Y154024D01*
X192345Y154054D01*
Y156745D01*
X192392Y156761D01*
X192415Y156731D01*
X192498Y156668D01*
X192594Y156628D01*
X192648Y15662D01*
Y15731D01*
X192698D01*
Y157359D01*
X193098D01*
Y157605D01*
X193085Y157708D01*
X193074Y157735D01*
X193115Y157762D01*
X193305Y157573D01*
Y156617D01*
X194099D01*
Y157696D01*
X194143Y157719D01*
X194225Y157665D01*
X194322Y157645D01*
X195751D01*
X195784Y157608D01*
X195772Y157519D01*
X195791Y157374D01*
X195847Y157239D01*
X195936Y157123D01*
X19603Y157051D01*
Y157001D01*
X195936Y15693D01*
X195847Y156814D01*
X195791Y156679D01*
X195772Y156534D01*
X195791Y15639D01*
X195847Y156255D01*
X195936Y156139D01*
X196052Y15605D01*
X196187Y155994D01*
X196332Y155975D01*
X196476Y155994D01*
X196611Y15605D01*
X196727Y156139D01*
X196816Y156255D01*
X196872Y15639D01*
X196891Y156534D01*
X196872Y156679D01*
X196816Y156814D01*
X196727Y15693D01*
X196611Y157018D01*
Y157034D01*
X196727Y157123D01*
X196816Y157239D01*
X196872Y157374D01*
X196891Y157519D01*
X196872Y157663D01*
X196816Y157798D01*
X196727Y157914D01*
X196611Y158003D01*
X196476Y158059D01*
X196332Y158078D01*
X196187Y158059D01*
X196162Y158048D01*
X19613Y15808D01*
X196048Y158135D01*
X19595Y158155D01*
X194428D01*
X194254Y158329D01*
Y158635D01*
X199212D01*
Y153248D01*
D02*
G37*
G36*
X192476Y151611D02*
X193372D01*
Y151328D01*
X1929D01*
X192858Y151322D01*
X192815Y151317D01*
X192776Y1513D01*
X192736Y151284D01*
X192698Y151254D01*
X192668Y151232D01*
X192227Y150791D01*
X191744D01*
Y15072D01*
X191715Y150717D01*
X191636Y150684D01*
X191598Y150654D01*
X191568Y150632D01*
X191345Y150409D01*
X191296Y150419D01*
X191293Y150427D01*
X191221Y150521D01*
X191127Y150593D01*
X191017Y150638D01*
X1909Y150654D01*
X190783Y150638D01*
X190673Y150593D01*
X190579Y150521D01*
X190507Y150427D01*
X190462Y150317D01*
X190446Y1502D01*
X190462Y150083D01*
X190507Y149973D01*
X190572Y149888D01*
Y149671D01*
X190557D01*
X190474Y14966D01*
X190396Y149628D01*
X19033Y149577D01*
X190279Y14951D01*
X190247Y149433D01*
X190236Y14935D01*
X190247Y149267D01*
X190279Y14919D01*
X19033Y149123D01*
Y149077D01*
X190279Y14901D01*
X190247Y148933D01*
X190242Y1489D01*
X19154D01*
X191536Y148933D01*
X191504Y14901D01*
X191453Y149077D01*
Y149123D01*
X191504Y14919D01*
X191536Y149267D01*
X191547Y14935D01*
X191536Y149433D01*
X191504Y14951D01*
X191453Y149577D01*
X191452Y149589D01*
X191698Y149834D01*
X191744Y149815D01*
Y149656D01*
X1922D01*
Y149606D01*
X19225D01*
Y149209D01*
X192284D01*
X192303Y149163D01*
X191744Y148605D01*
X191495D01*
X191473Y14865D01*
X191504Y14869D01*
X191536Y148767D01*
X19154Y1488D01*
X190242D01*
X190247Y148767D01*
X190279Y14869D01*
X19033Y148623D01*
Y148577D01*
X190279Y14851D01*
X190247Y148433D01*
X190236Y14835D01*
X190247Y148267D01*
X190279Y14819D01*
X19033Y148123D01*
Y148077D01*
X190279Y14801D01*
X190247Y147933D01*
X190236Y14785D01*
X190247Y147767D01*
X190279Y14769D01*
X19033Y147623D01*
Y147577D01*
X190279Y14751D01*
X190247Y147433D01*
X190236Y14735D01*
X190247Y147267D01*
X190279Y14719D01*
X19033Y147123D01*
Y147077D01*
X190279Y14701D01*
X190247Y146933D01*
X190236Y14685D01*
X190247Y146767D01*
X190279Y14669D01*
X19033Y146623D01*
Y146577D01*
X190279Y14651D01*
X190247Y146433D01*
X190236Y14635D01*
X190247Y146267D01*
X190279Y14619D01*
X19033Y146123D01*
Y146077D01*
X190279Y14601D01*
X190247Y145933D01*
X190236Y14585D01*
X190247Y145767D01*
X190279Y14569D01*
X19033Y145623D01*
Y145577D01*
X190279Y14551D01*
X190247Y145433D01*
X190236Y14535D01*
X190247Y145267D01*
X190279Y14519D01*
X190309Y14515D01*
X190287Y145105D01*
X190156D01*
X190155Y145106D01*
Y151294D01*
X190672Y151812D01*
X192476D01*
Y151611D01*
D02*
G37*
G36*
X202362Y150367D02*
X202315Y150348D01*
X200898Y151765D01*
X200917Y151812D01*
X202362D01*
Y150367D01*
D02*
G37*
G36*
X186709Y153056D02*
X186709D01*
Y15265D01*
X187106D01*
Y1526D01*
X187156D01*
Y152144D01*
X187639D01*
Y152056D01*
X186709D01*
Y151928D01*
X186349D01*
X186294Y151951D01*
X1862Y151963D01*
X186106Y151951D01*
X186018Y151914D01*
X185943Y151857D01*
X185886Y151782D01*
X185849Y151694D01*
X185837Y1516D01*
X185849Y151506D01*
X185886Y151418D01*
X185943Y151343D01*
X186018Y151286D01*
X186106Y151249D01*
X1862Y151237D01*
X186294Y151249D01*
X186349Y151272D01*
X186709D01*
Y151144D01*
X187639D01*
Y151056D01*
X186709D01*
Y150144D01*
X186851D01*
Y149794D01*
X186851Y149794D01*
X186851D01*
X186871Y149696D01*
X186872Y149694D01*
X186858Y149646D01*
X186814Y149628D01*
X186784Y149605D01*
X18635D01*
X186252Y149585D01*
X18617Y14953D01*
X18522Y14858D01*
X185203Y148555D01*
X185155Y148569D01*
Y1531D01*
X186709D01*
Y153056D01*
D02*
G37*
G36*
X191445Y162884D02*
Y159106D01*
X19122Y15888D01*
X191164Y158798D01*
X191145Y1587D01*
Y155106D01*
X188788Y152749D01*
X188733Y152666D01*
X188714Y152569D01*
Y150467D01*
X188672Y150439D01*
X188644Y150451D01*
X1886Y150457D01*
Y1501D01*
Y149743D01*
X188644Y149749D01*
X188672Y149761D01*
X188714Y149733D01*
Y14911D01*
X188666Y149094D01*
X188657Y149107D01*
X188582Y149164D01*
X188494Y149201D01*
X1884Y149213D01*
X188306Y149201D01*
X188218Y149164D01*
X188143Y149107D01*
X188142Y149105D01*
X187913D01*
X187891Y14915D01*
X187921Y14919D01*
X187953Y149267D01*
X187964Y14935D01*
X187953Y149433D01*
X187921Y14951D01*
X18787Y149577D01*
X187804Y149628D01*
X187726Y14966D01*
X187643Y149671D01*
X187548D01*
X187544Y149689D01*
X187489Y149772D01*
X187361Y149899D01*
Y150144D01*
X188155D01*
X188188Y150107D01*
X188193Y150144D01*
X188291D01*
Y15015D01*
X1885D01*
Y150457D01*
X188456Y150451D01*
X188368Y150414D01*
X188335Y150389D01*
X188291Y150411D01*
Y151056D01*
X188149D01*
Y151144D01*
X188291D01*
Y152056D01*
X188149D01*
Y152144D01*
X188291D01*
Y153056D01*
X188291D01*
Y153065D01*
X188326Y1531D01*
X1886D01*
X1905Y155D01*
Y16362D01*
X19071D01*
X191445Y162884D01*
D02*
G37*
G36*
X199883Y138747D02*
X199568Y138432D01*
X199516Y138364D01*
X1995Y138324D01*
X199483Y138285D01*
X199478Y138242D01*
X199472Y1382D01*
Y137791D01*
X198644D01*
Y137722D01*
X198556D01*
Y137791D01*
X197644D01*
Y137594D01*
X197613Y137574D01*
X197229Y137189D01*
X197174Y137107D01*
X197154Y137009D01*
Y135432D01*
X197097Y135357D01*
X197058Y135263D01*
X197015Y135106D01*
X196966Y135112D01*
Y138793D01*
X199864D01*
X199883Y138747D01*
D02*
G37*
G36*
X197738Y175713D02*
X198677D01*
X198895Y175494D01*
Y175152D01*
X198672D01*
Y174824D01*
Y174496D01*
X19872D01*
X198739Y17445D01*
X198693Y174404D01*
X198186D01*
Y174097D01*
X197956Y173867D01*
X196606D01*
X196584Y173912D01*
X196593Y173923D01*
X196638Y174033D01*
X196646Y174088D01*
X197287D01*
Y174122D01*
X198014D01*
Y174778D01*
X197287D01*
Y174797D01*
Y175438D01*
X197587D01*
Y175822D01*
X19761Y175845D01*
X197738D01*
Y175713D01*
D02*
G37*
G36*
X19505Y1758D02*
Y17395D01*
X1923D01*
X19225Y174D01*
Y1774D01*
X19335D01*
X19505Y1758D01*
D02*
G37*
G36*
X19195Y174D02*
X1919Y17395D01*
X18915D01*
Y1758D01*
X19085Y1774D01*
X19195D01*
Y174D01*
D02*
G37*
G36*
X193813Y173304D02*
X1942D01*
Y173204D01*
X193813D01*
Y173193D01*
X192469D01*
Y172418D01*
X193582D01*
X193668Y172333D01*
X193648Y172287D01*
X192469D01*
Y172253D01*
X191531D01*
Y17275D01*
X1907D01*
X1904Y17305D01*
X190327Y173106D01*
X190241Y173141D01*
X19015Y173153D01*
X190076D01*
Y173256D01*
X188632D01*
X188613Y173302D01*
X188667Y173357D01*
X193813D01*
Y173304D01*
D02*
G37*
G36*
X198644Y136997D02*
Y136209D01*
X198945D01*
Y135738D01*
X198488Y135282D01*
X198401Y135293D01*
X1983Y13528D01*
X198236Y135254D01*
X198194Y135308D01*
X198113Y135371D01*
X198065Y13539D01*
X19794Y134924D01*
X197844Y13495D01*
X197969Y135416D01*
X197918Y135423D01*
X197817Y13541D01*
X197753Y135383D01*
X197711Y135438D01*
X197664Y135474D01*
Y136209D01*
X19805D01*
Y136606D01*
X1981D01*
Y136656D01*
X198556D01*
Y136997D01*
Y137066D01*
X198644D01*
Y136997D01*
D02*
G37*
G36*
X188045Y173455D02*
X187248Y172659D01*
X186972D01*
Y172354D01*
X186926Y172335D01*
X185982Y173279D01*
X186001Y173325D01*
X186326D01*
Y173495D01*
X186863D01*
Y173438D01*
X187637D01*
Y173495D01*
X188D01*
X188021Y173499D01*
X188045Y173455D01*
D02*
G37*
G36*
X199212Y174136D02*
Y165284D01*
X199165Y165268D01*
X199101Y165351D01*
X199007Y165423D01*
X198897Y165468D01*
X19883Y165477D01*
Y16503D01*
Y164583D01*
X198897Y164592D01*
X199007Y164637D01*
X199101Y164709D01*
X199165Y164792D01*
X199212Y164776D01*
Y159486D01*
X197842D01*
X197823Y159532D01*
X19819Y1599D01*
X198246Y159982D01*
X198265Y16008D01*
Y164677D01*
X198246Y164775D01*
X19819Y164858D01*
X197991Y165057D01*
Y165556D01*
X196856D01*
Y1651D01*
X196806D01*
Y16505D01*
X196409D01*
Y164644D01*
X196498D01*
Y164272D01*
X197154D01*
Y164644D01*
X197246D01*
Y163786D01*
X197755D01*
Y162754D01*
X197754D01*
Y162754D01*
X197528D01*
Y163614D01*
X196872D01*
Y163505D01*
X196185D01*
X196152Y163543D01*
X196159Y1636D01*
X19614Y163745D01*
X196084Y16388D01*
X195995Y163995D01*
X19588Y164084D01*
X195745Y16414D01*
X1956Y164159D01*
X19558Y164157D01*
X195558Y164201D01*
X195802Y164446D01*
X196198D01*
Y165554D01*
X195089D01*
Y165159D01*
X194591Y16466D01*
X194544Y164679D01*
Y165554D01*
X194459D01*
Y166833D01*
X194604Y166922D01*
X194735Y167034D01*
X194848Y167166D01*
X194938Y167314D01*
X195005Y167474D01*
X195045Y167642D01*
X195059Y167815D01*
X195045Y167987D01*
X195005Y168156D01*
X194938Y168316D01*
X194848Y168463D01*
X194735Y168595D01*
X194604Y168707D01*
X194456Y168798D01*
X194296Y168864D01*
X194128Y168904D01*
X193955Y168918D01*
X193783Y168904D01*
X193614Y168864D01*
X193454Y168798D01*
X193307Y168707D01*
X193175Y168595D01*
X193062Y168463D01*
X192974Y168319D01*
X190517D01*
X190386Y168302D01*
X190351Y168287D01*
X190293Y168263D01*
X190268Y168274D01*
X190099Y168314D01*
X189927Y168328D01*
X189754Y168314D01*
X189586Y168274D01*
X189426Y168208D01*
X189278Y168117D01*
X189146Y168005D01*
X189034Y167873D01*
X188943Y167725D01*
X188877Y167565D01*
X188837Y167397D01*
X188823Y167224D01*
X188837Y167052D01*
X188877Y166883D01*
X188943Y166723D01*
X189034Y166576D01*
X189146Y166444D01*
X189278Y166332D01*
X189426Y166241D01*
X189586Y166175D01*
X189754Y166135D01*
X189927Y166121D01*
X190099Y166135D01*
X190268Y166175D01*
X190427Y166241D01*
X190528Y166303D01*
X190566Y16627D01*
X190545Y166219D01*
X190487Y165978D01*
X190467Y16573D01*
X190487Y165482D01*
X190545Y165241D01*
X19064Y165011D01*
X190769Y1648D01*
X190931Y164611D01*
X19112Y164449D01*
X191331Y16432D01*
X191561Y164225D01*
X191802Y164167D01*
X19205Y164147D01*
X192298Y164167D01*
X192539Y164225D01*
X192769Y16432D01*
X19298Y164449D01*
X193169Y164611D01*
X193331Y1648D01*
X193388Y164893D01*
X193436Y164879D01*
Y164446D01*
X194311D01*
X19433Y164399D01*
X194278Y164348D01*
X194198Y164244D01*
X194148Y164122D01*
X194131Y163991D01*
Y161565D01*
X194131Y161565D01*
X194131D01*
X194148Y161434D01*
X194198Y161313D01*
X194278Y161208D01*
X19508Y160407D01*
X195116Y16032D01*
X195205Y160205D01*
X19532Y160116D01*
X195455Y16006D01*
X1956Y160041D01*
X195745Y16006D01*
X19588Y160116D01*
X195995Y160205D01*
X196047Y160272D01*
X196646D01*
Y159992D01*
X196646D01*
Y15999D01*
X19661Y159955D01*
X19343D01*
X193332Y159935D01*
X19325Y15988D01*
X192401Y159032D01*
X192355Y159051D01*
Y16306D01*
X192335Y163158D01*
X19228Y16324D01*
X191216Y164305D01*
X191133Y16436D01*
X191036Y164379D01*
X190121D01*
X189694Y164806D01*
X189726Y164883D01*
X189766Y165052D01*
X189776Y165174D01*
X189326D01*
X189226Y165274D01*
X189776D01*
X189766Y165397D01*
X189726Y165565D01*
X18966Y165725D01*
X189569Y165873D01*
X189457Y166005D01*
X189325Y166117D01*
X189177Y166208D01*
X189018Y166274D01*
X188849Y166314D01*
X188727Y166324D01*
Y165773D01*
X188627Y165873D01*
Y166324D01*
X188504Y166314D01*
X188336Y166274D01*
X188176Y166208D01*
X188028Y166117D01*
X188008Y1661D01*
X187668D01*
X187662Y16615D01*
X187768Y166175D01*
X187927Y166241D01*
X188075Y166332D01*
X188207Y166444D01*
X188319Y166576D01*
X18841Y166723D01*
X188476Y166883D01*
X188516Y167052D01*
X188526Y167174D01*
X187426D01*
Y167224D01*
X187377D01*
Y168324D01*
X187254Y168314D01*
X187086Y168274D01*
X186926Y168208D01*
X186778Y168117D01*
X186646Y168005D01*
X186534Y167873D01*
X186493Y167806D01*
X186445Y16782D01*
Y168024D01*
X187176Y168755D01*
X187231Y168838D01*
X187251Y168936D01*
X187251Y168936D01*
X187251Y168936D01*
Y168936D01*
Y170013D01*
X187654D01*
Y1704D01*
X187704D01*
Y17045D01*
X188062D01*
Y170787D01*
X188002D01*
Y171128D01*
X187346D01*
Y170787D01*
X187254D01*
Y171614D01*
X187181D01*
Y171786D01*
X187628D01*
Y172317D01*
X188291Y17298D01*
X188337Y172961D01*
Y172344D01*
X188409D01*
Y171444D01*
X189544D01*
Y1719D01*
X189594D01*
Y17195D01*
X189991D01*
Y172344D01*
X190076D01*
X190076Y172344D01*
Y172344D01*
X190085Y172348D01*
X190127Y17232D01*
Y17105D01*
X190476D01*
Y170479D01*
X190436Y170427D01*
X19039Y170317D01*
X190375Y1702D01*
X19039Y170083D01*
X190436Y169973D01*
X190508Y169879D01*
X190602Y169807D01*
X190711Y169762D01*
X190829Y169746D01*
X190946Y169762D01*
X191056Y169807D01*
X19115Y169879D01*
X191222Y169973D01*
X191267Y170083D01*
X191283Y1702D01*
X191267Y170317D01*
X191222Y170427D01*
X191182Y170479D01*
Y17105D01*
X191531D01*
Y171547D01*
X192469D01*
Y171513D01*
X193688D01*
X193696Y171505D01*
X193769Y171449D01*
X193813Y171431D01*
X193803Y171381D01*
X193221D01*
Y170994D01*
Y170607D01*
X193873D01*
Y170688D01*
X19415D01*
Y171046D01*
X1942D01*
Y171096D01*
X194587D01*
Y171397D01*
Y171401D01*
X196685D01*
Y171354D01*
X197715D01*
Y172384D01*
X196685D01*
Y172107D01*
X195638D01*
X195635Y172157D01*
X195667Y172162D01*
X195777Y172207D01*
X195871Y172279D01*
X195943Y172373D01*
X195988Y172483D01*
X196004Y1726D01*
X196003Y172609D01*
X196036Y172647D01*
X197554D01*
X197985Y172216D01*
Y171354D01*
X199015D01*
Y172384D01*
X1988D01*
X19875Y17245D01*
X19795Y17325D01*
X197877Y173306D01*
X197791Y173341D01*
X1977Y173353D01*
X197704Y173357D01*
X198062D01*
X198159Y173376D01*
X198242Y173432D01*
X198242Y173432D01*
X198242Y173432D01*
X198559Y173748D01*
X199059D01*
Y174048D01*
X199166Y174155D01*
X199212Y174136D01*
D02*
G37*
G36*
X186863Y175062D02*
Y174738D01*
Y174147D01*
Y174005D01*
X186326D01*
Y174197D01*
X186189D01*
X18617Y174244D01*
X186296Y17437D01*
X1867D01*
Y17516D01*
X186746Y175179D01*
X186863Y175062D01*
D02*
G37*
G36*
X199545Y1354D02*
X199564Y135302D01*
X19962Y13522D01*
X200169Y13467D01*
X200169D01*
X200169Y13467D01*
X200169Y13467D01*
Y13467D01*
X200196Y134653D01*
X200181Y134605D01*
X198766D01*
X198735Y134645D01*
X198778Y134802D01*
X198785Y134857D01*
X19938Y135453D01*
X199436Y135535D01*
X199455Y135633D01*
Y136209D01*
X199545D01*
Y1354D01*
D02*
G37*
G36*
X199212Y175964D02*
X199203Y17596D01*
X199162Y175988D01*
Y176487D01*
X197738D01*
Y176355D01*
X197587D01*
Y176862D01*
X197332D01*
X197322Y176911D01*
X197382Y176936D01*
X197457Y176993D01*
X197514Y177068D01*
X197551Y177156D01*
X197557Y1772D01*
X1972D01*
Y1773D01*
X197557D01*
X197551Y177344D01*
X197547Y177354D01*
X197575Y177395D01*
X199212D01*
Y175964D01*
D02*
G37*
G36*
X190498Y177349D02*
X1891Y176033D01*
X188913D01*
Y175968D01*
X188766D01*
Y17565D01*
X188666D01*
Y175968D01*
X188323D01*
X188321Y175971D01*
X188227Y176043D01*
X188117Y176088D01*
Y176088D01*
X188118Y176098D01*
X188609D01*
Y176754D01*
X188205D01*
X188159Y1768D01*
X188178Y176846D01*
X188122D01*
Y177174D01*
X188172D01*
Y177224D01*
X188609D01*
Y177395D01*
X190479D01*
X190498Y177349D01*
D02*
G37*
G36*
X202362Y140233D02*
Y135099D01*
X202312Y135094D01*
X202295Y135189D01*
X202265Y135286D01*
X20221Y135372D01*
X202135Y135441D01*
X202103Y135457D01*
X201655Y135906D01*
Y136209D01*
X201856D01*
Y136997D01*
Y137791D01*
X200944D01*
Y137722D01*
X200856D01*
Y137791D01*
X200128D01*
Y138064D01*
X202315Y140252D01*
X202362Y140233D01*
D02*
G37*
G36*
X200944Y136997D02*
Y136209D01*
X201145D01*
Y1358D01*
X201145Y1358D01*
X201145D01*
X201164Y135702D01*
X20122Y13562D01*
X201374Y135466D01*
X201356Y135419D01*
X201401Y135421D01*
X201485Y134946D01*
X201386Y134929D01*
X201302Y135404D01*
X201253Y135388D01*
X201167Y135333D01*
X201121Y135282D01*
X201059Y135314D01*
X20096Y135336D01*
X200858Y135332D01*
X200761Y135301D01*
X200675Y135247D01*
X200606Y135171D01*
X200572Y135105D01*
X200455D01*
X200055Y135506D01*
Y136209D01*
X20035D01*
Y136606D01*
X2004D01*
Y136656D01*
X200856D01*
Y136997D01*
Y137066D01*
X200944D01*
Y136997D01*
D02*
G37*
%LPC*%
G36*
X192668Y153441D02*
X192317D01*
Y153195D01*
X192331Y153092D01*
X192371Y152995D01*
X192435Y152912D01*
X192518Y152849D01*
X192614Y152809D01*
X192668Y152802D01*
Y153441D01*
D02*
G37*
G36*
X198556Y136556D02*
X19815D01*
Y136209D01*
X198556D01*
Y136556D01*
D02*
G37*
G36*
X192768Y15418D02*
Y153541D01*
X193118D01*
Y153786D01*
X193104Y153889D01*
X193064Y153986D01*
X193001Y154069D01*
X192918Y154132D01*
X192821Y154172D01*
X192768Y15418D01*
D02*
G37*
G36*
X187056Y15255D02*
X186709D01*
Y152144D01*
X187056D01*
Y15255D01*
D02*
G37*
G36*
X1885Y15005D02*
X188193D01*
X188199Y150006D01*
X188236Y149918D01*
X188293Y149843D01*
X188368Y149786D01*
X188456Y149749D01*
X1885Y149743D01*
Y15005D01*
D02*
G37*
G36*
X19215Y149556D02*
X191744D01*
Y149209D01*
X19215D01*
Y149556D01*
D02*
G37*
G36*
X200856Y136556D02*
X20045D01*
Y136209D01*
X200856D01*
Y136556D01*
D02*
G37*
G36*
X1958Y143341D02*
X195394D01*
Y142994D01*
X1958D01*
Y143341D01*
D02*
G37*
G36*
X187656Y14265D02*
X187309D01*
Y142244D01*
X187656D01*
Y14265D01*
D02*
G37*
G36*
X1968Y143341D02*
X196394D01*
Y142994D01*
X1968D01*
Y143341D01*
D02*
G37*
G36*
X196306D02*
X1959D01*
Y142994D01*
X196306D01*
Y143341D01*
D02*
G37*
G36*
X200657Y13975D02*
X20035D01*
Y139443D01*
X200394Y139449D01*
X200482Y139486D01*
X200557Y139543D01*
X200614Y139618D01*
X200651Y139706D01*
X200657Y13975D01*
D02*
G37*
G36*
X19795Y140157D02*
Y13985D01*
X198257D01*
X198251Y139894D01*
X198214Y139982D01*
X198157Y140057D01*
X198082Y140114D01*
X197994Y140151D01*
X19795Y140157D01*
D02*
G37*
G36*
X19785D02*
X197806Y140151D01*
X197718Y140114D01*
X197643Y140057D01*
X197586Y139982D01*
X197549Y139894D01*
X197543Y13985D01*
X19785D01*
Y140157D01*
D02*
G37*
G36*
X20035D02*
Y13985D01*
X200657D01*
X200651Y139894D01*
X200614Y139982D01*
X200557Y140057D01*
X200482Y140114D01*
X200394Y140151D01*
X20035Y140157D01*
D02*
G37*
G36*
X20025D02*
X200206Y140151D01*
X200118Y140114D01*
X200043Y140057D01*
X199986Y139982D01*
X199949Y139894D01*
X199943Y13985D01*
X20025D01*
Y140157D01*
D02*
G37*
G36*
X197306Y143341D02*
X1969D01*
Y142994D01*
X197306D01*
Y143341D01*
D02*
G37*
G36*
X193247Y14495D02*
X19285D01*
Y144553D01*
X192917Y144562D01*
X193027Y144607D01*
X193121Y144679D01*
X193193Y144773D01*
X193238Y144883D01*
X193247Y14495D01*
D02*
G37*
G36*
X19275D02*
X192353D01*
X192362Y144883D01*
X192407Y144773D01*
X192479Y144679D01*
X192573Y144607D01*
X192683Y144562D01*
X19275Y144553D01*
Y14495D01*
D02*
G37*
G36*
X19285Y145447D02*
Y14505D01*
X193247D01*
X193238Y145117D01*
X193193Y145227D01*
X193121Y145321D01*
X193027Y145393D01*
X192917Y145438D01*
X19285Y145447D01*
D02*
G37*
G36*
X19275D02*
X192683Y145438D01*
X192573Y145393D01*
X192479Y145321D01*
X192407Y145227D01*
X192362Y145117D01*
X192353Y14505D01*
X19275D01*
Y145447D01*
D02*
G37*
G36*
X195143Y144688D02*
X1945D01*
Y144282D01*
X195143D01*
Y144688D01*
D02*
G37*
G36*
X198306Y143341D02*
X1979D01*
Y142994D01*
X198306D01*
Y143341D01*
D02*
G37*
G36*
X1978D02*
X197394D01*
Y142994D01*
X1978D01*
Y143341D01*
D02*
G37*
G36*
X199306D02*
X1989D01*
Y142994D01*
X199306D01*
Y143341D01*
D02*
G37*
G36*
X1988D02*
X198394D01*
Y142994D01*
X1988D01*
Y143341D01*
D02*
G37*
G36*
X19825Y1555D02*
X197747D01*
X19776Y155405D01*
X197816Y15527D01*
X197905Y155155D01*
X19802Y155066D01*
X198155Y15501D01*
X19825Y154997D01*
Y1555D01*
D02*
G37*
G36*
X18865Y170857D02*
Y17055D01*
X188957D01*
X188951Y170594D01*
X188914Y170682D01*
X188857Y170757D01*
X188782Y170814D01*
X188694Y170851D01*
X18865Y170857D01*
D02*
G37*
G36*
X18855D02*
X188506Y170851D01*
X188418Y170814D01*
X188343Y170757D01*
X188286Y170682D01*
X188249Y170594D01*
X188243Y17055D01*
X18855D01*
Y170857D01*
D02*
G37*
G36*
X19845Y171046D02*
X197985D01*
Y170581D01*
X19845D01*
Y171046D01*
D02*
G37*
G36*
X19715Y171046D02*
X196685D01*
Y170581D01*
X19715D01*
Y171046D01*
D02*
G37*
G36*
X199015Y171046D02*
X19855D01*
Y170581D01*
X199015D01*
Y171046D01*
D02*
G37*
G36*
X186512Y17055D02*
X186204D01*
Y170213D01*
X186347D01*
X18635Y170163D01*
X18635D01*
X18635D01*
Y170178D01*
X186385Y170213D01*
X186512D01*
Y17055D01*
D02*
G37*
G36*
X19715Y170481D02*
X196685D01*
Y170016D01*
X19715D01*
Y170481D01*
D02*
G37*
G36*
X199015Y170481D02*
X19855D01*
Y170016D01*
X199015D01*
Y170481D01*
D02*
G37*
G36*
X197715Y170481D02*
X19725D01*
Y170016D01*
X197715D01*
Y170481D01*
D02*
G37*
G36*
X188957Y17045D02*
X18865D01*
Y170143D01*
X188694Y170149D01*
X188782Y170186D01*
X188857Y170243D01*
X188914Y170318D01*
X188951Y170406D01*
X188957Y17045D01*
D02*
G37*
G36*
X18855D02*
X188243D01*
X188249Y170406D01*
X188286Y170318D01*
X188343Y170243D01*
X188418Y170186D01*
X188506Y170149D01*
X18855Y170143D01*
Y17045D01*
D02*
G37*
G36*
X189991Y17185D02*
X189644D01*
Y171444D01*
X189991D01*
Y17185D01*
D02*
G37*
G36*
X186452Y171764D02*
X186174D01*
Y171378D01*
X186452D01*
Y171764D01*
D02*
G37*
G36*
X198572Y174774D02*
X198186D01*
Y174496D01*
X198572D01*
Y174774D01*
D02*
G37*
G36*
X188609Y177124D02*
X188222D01*
Y176846D01*
X188609D01*
Y177124D01*
D02*
G37*
G36*
X198572Y175152D02*
X198186D01*
Y174874D01*
X198572D01*
Y175152D01*
D02*
G37*
G36*
X186074Y171764D02*
X185796D01*
Y171378D01*
X186074D01*
Y171764D01*
D02*
G37*
G36*
X193121Y170944D02*
X192469D01*
Y170607D01*
X193121D01*
Y170944D01*
D02*
G37*
G36*
X197715Y171046D02*
X19725D01*
Y170581D01*
X197715D01*
Y171046D01*
D02*
G37*
G36*
X193121Y171381D02*
X192469D01*
Y171044D01*
X193121D01*
Y171381D01*
D02*
G37*
G36*
X188002Y171614D02*
X187724D01*
Y171228D01*
X188002D01*
Y171614D01*
D02*
G37*
G36*
X187624D02*
X187346D01*
Y171228D01*
X187624D01*
Y171614D01*
D02*
G37*
G36*
X19873Y165477D02*
X198663Y165468D01*
X198553Y165423D01*
X198459Y165351D01*
X198387Y165257D01*
X198342Y165147D01*
X198333Y16508D01*
X19873D01*
Y165477D01*
D02*
G37*
G36*
Y16498D02*
X198333D01*
X198342Y164913D01*
X198387Y164803D01*
X198459Y164709D01*
X198553Y164637D01*
X198663Y164592D01*
X19873Y164583D01*
Y16498D01*
D02*
G37*
G36*
X196756Y165556D02*
X196409D01*
Y16515D01*
X196756D01*
Y165556D01*
D02*
G37*
G36*
X197555Y167765D02*
X196505D01*
Y166715D01*
X196628Y166725D01*
X196796Y166765D01*
X196956Y166831D01*
X197104Y166922D01*
X197235Y167034D01*
X197348Y167166D01*
X197438Y167314D01*
X197505Y167474D01*
X197545Y167642D01*
X197555Y167765D01*
D02*
G37*
G36*
X196405D02*
X195356D01*
X195365Y167642D01*
X195406Y167474D01*
X195472Y167314D01*
X195562Y167166D01*
X195675Y167034D01*
X195807Y166922D01*
X195954Y166831D01*
X196114Y166765D01*
X196283Y166725D01*
X196405Y166715D01*
Y167765D01*
D02*
G37*
G36*
X197154Y164172D02*
X196876D01*
Y163786D01*
X197154D01*
Y164172D01*
D02*
G37*
G36*
X19825Y156103D02*
X198155Y15609D01*
X19802Y156034D01*
X197905Y155945D01*
X197816Y15583D01*
X19776Y155695D01*
X197747Y1556D01*
X19825D01*
Y156103D01*
D02*
G37*
G36*
X198853Y1555D02*
X19835D01*
Y154997D01*
X198445Y15501D01*
X19858Y155066D01*
X198695Y155155D01*
X198784Y15527D01*
X19884Y155405D01*
X198853Y1555D01*
D02*
G37*
G36*
X19835Y156103D02*
Y1556D01*
X198853D01*
X19884Y155695D01*
X198784Y15583D01*
X198695Y155945D01*
X19858Y156034D01*
X198445Y15609D01*
X19835Y156103D01*
D02*
G37*
G36*
X196776Y164172D02*
X196498D01*
Y163786D01*
X196776D01*
Y164172D01*
D02*
G37*
G36*
X193098Y157259D02*
X192748D01*
Y15662D01*
X192802Y156628D01*
X192898Y156668D01*
X192981Y156731D01*
X193045Y156814D01*
X193085Y156911D01*
X193098Y157014D01*
Y157259D01*
D02*
G37*
G36*
X194587Y170996D02*
X19425D01*
Y170688D01*
X194462D01*
X194479Y170641D01*
X194425Y170595D01*
X194312Y170463D01*
X194222Y170315D01*
X194156Y170156D01*
X194115Y169987D01*
X194106Y169865D01*
X195155D01*
Y170914D01*
X195033Y170904D01*
X194864Y170864D01*
X194704Y170798D01*
X194631Y170753D01*
X194587Y170777D01*
Y170996D01*
D02*
G37*
G36*
X1863Y170157D02*
X186256Y170151D01*
X186168Y170114D01*
X186093Y170057D01*
X186036Y169982D01*
X185999Y169894D01*
X185993Y16985D01*
X1863D01*
Y170157D01*
D02*
G37*
G36*
X195255Y170914D02*
Y169865D01*
X196305D01*
X196295Y169987D01*
X196255Y170156D01*
X196188Y170315D01*
X196098Y170463D01*
X195985Y170595D01*
X195854Y170707D01*
X195706Y170798D01*
X195546Y170864D01*
X195378Y170904D01*
X195255Y170914D01*
D02*
G37*
G36*
X19845Y170481D02*
X197985D01*
Y170016D01*
X19845D01*
Y170481D01*
D02*
G37*
G36*
X188062Y17035D02*
X187754D01*
Y170013D01*
X188062D01*
Y17035D01*
D02*
G37*
G36*
X1863Y16975D02*
X185993D01*
X185999Y169706D01*
X186036Y169618D01*
X186093Y169543D01*
X186168Y169486D01*
X186256Y169449D01*
X1863Y169443D01*
Y16975D01*
D02*
G37*
G36*
X196405Y168914D02*
X196283Y168904D01*
X196114Y168864D01*
X195954Y168798D01*
X195807Y168707D01*
X195675Y168595D01*
X195562Y168463D01*
X195472Y168316D01*
X195406Y168156D01*
X195365Y167987D01*
X195356Y167865D01*
X196405D01*
Y168914D01*
D02*
G37*
G36*
X187477Y168324D02*
Y167274D01*
X188526D01*
X188516Y167397D01*
X188476Y167565D01*
X18841Y167725D01*
X188319Y167873D01*
X188207Y168005D01*
X188075Y168117D01*
X187927Y168208D01*
X187768Y168274D01*
X187599Y168314D01*
X187477Y168324D01*
D02*
G37*
G36*
X196505Y168914D02*
Y167865D01*
X197555D01*
X197545Y167987D01*
X197505Y168156D01*
X197438Y168316D01*
X197348Y168463D01*
X197235Y168595D01*
X197104Y168707D01*
X196956Y168798D01*
X196796Y168864D01*
X196628Y168904D01*
X196505Y168914D01*
D02*
G37*
G36*
X196305Y169765D02*
X195255D01*
Y168715D01*
X195378Y168725D01*
X195546Y168765D01*
X195706Y168831D01*
X195854Y168922D01*
X195985Y169034D01*
X196098Y169166D01*
X196188Y169314D01*
X196255Y169474D01*
X196295Y169642D01*
X196305Y169765D01*
D02*
G37*
G36*
X195155D02*
X194106D01*
X194115Y169642D01*
X194156Y169474D01*
X194222Y169314D01*
X194312Y169166D01*
X194425Y169034D01*
X194557Y168922D01*
X194704Y168831D01*
X194864Y168765D01*
X195033Y168725D01*
X195155Y168715D01*
Y169765D01*
D02*
G37*
%LPD*%
D10*
X193702Y153491D02*
D03*
X192718D02*
D03*
X192698Y157309D02*
D03*
D11*
X193702Y157309D02*
D03*
D12*
X193069Y158366D02*
D03*
X193857D02*
D03*
X196394Y151D02*
D03*
X195606D02*
D03*
X187706Y1427D02*
D03*
X188494D02*
D03*
X189594Y1719D02*
D03*
X188806D02*
D03*
X187106Y1506D02*
D03*
X187894D02*
D03*
X187106Y1516D02*
D03*
X187894D02*
D03*
Y1526D02*
D03*
X187106D02*
D03*
X197594Y1651D02*
D03*
X196806D02*
D03*
X189434Y14006D02*
D03*
X188646D02*
D03*
X192872Y152067D02*
D03*
X19366D02*
D03*
D13*
X19399Y165D02*
D03*
X195644D02*
D03*
D14*
X188527Y1436D02*
D03*
X187661D02*
D03*
X188773Y1728D02*
D03*
X189639D02*
D03*
D15*
X193171Y170994D02*
D03*
Y1719D02*
D03*
Y172806D02*
D03*
D16*
X190829Y1719D02*
D03*
D17*
X1991Y136606D02*
D03*
Y137394D02*
D03*
X2014Y136606D02*
D03*
Y137394D02*
D03*
X1981D02*
D03*
Y136606D02*
D03*
X2004Y137394D02*
D03*
Y136606D02*
D03*
X1922Y150394D02*
D03*
Y149606D02*
D03*
X19159Y152766D02*
D03*
Y153554D02*
D03*
X19585Y142156D02*
D03*
Y142944D02*
D03*
X19685Y142156D02*
D03*
Y142944D02*
D03*
X19785Y142156D02*
D03*
Y142944D02*
D03*
X19885Y142156D02*
D03*
Y142944D02*
D03*
D18*
X1972Y171869D02*
D03*
Y170531D02*
D03*
X1985Y170531D02*
D03*
Y171869D02*
D03*
D19*
X1942Y171754D02*
D03*
Y171046D02*
D03*
Y173254D02*
D03*
Y172546D02*
D03*
X19645Y176546D02*
D03*
Y177254D02*
D03*
X1972Y176504D02*
D03*
Y175796D02*
D03*
X1969Y174446D02*
D03*
Y175154D02*
D03*
X18725Y173796D02*
D03*
Y174504D02*
D03*
X18625Y176246D02*
D03*
Y176954D02*
D03*
X18725Y175804D02*
D03*
Y175096D02*
D03*
D20*
X19445Y149462D02*
D03*
Y148675D02*
D03*
Y147887D02*
D03*
Y1471D02*
D03*
Y146313D02*
D03*
Y145525D02*
D03*
Y144738D02*
D03*
X20075Y149462D02*
D03*
Y148675D02*
D03*
Y147887D02*
D03*
Y1471D02*
D03*
Y146313D02*
D03*
Y145525D02*
D03*
Y144738D02*
D03*
D21*
X190891Y14485D02*
D03*
Y14535D02*
D03*
Y14585D02*
D03*
Y14635D02*
D03*
Y14685D02*
D03*
Y14735D02*
D03*
Y14785D02*
D03*
Y14835D02*
D03*
Y14885D02*
D03*
Y14935D02*
D03*
X187309Y14485D02*
D03*
Y14535D02*
D03*
Y14585D02*
D03*
Y14635D02*
D03*
Y14685D02*
D03*
Y14735D02*
D03*
Y14785D02*
D03*
Y14835D02*
D03*
Y14885D02*
D03*
Y14935D02*
D03*
D22*
X1972Y160546D02*
D03*
Y1622D02*
D03*
D23*
Y163178D02*
D03*
X197574Y164222D02*
D03*
X196826D02*
D03*
X187674Y171178D02*
D03*
X186926D02*
D03*
X1873Y172222D02*
D03*
X186124Y171328D02*
D03*
X185376D02*
D03*
X18575Y172372D02*
D03*
X185624Y174806D02*
D03*
X186372D02*
D03*
X185998Y173761D02*
D03*
D24*
X1943Y1754D02*
D03*
Y1744D02*
D03*
X1899D02*
D03*
Y1754D02*
D03*
D25*
X195484Y17415D02*
D03*
X188716Y17565D02*
D03*
D26*
X195484Y17465D02*
D03*
Y17515D02*
D03*
Y17565D02*
D03*
X193116Y17415D02*
D03*
Y17465D02*
D03*
Y17515D02*
D03*
Y17565D02*
D03*
X188716Y17515D02*
D03*
Y17465D02*
D03*
Y17415D02*
D03*
X191084Y17565D02*
D03*
Y17515D02*
D03*
Y17465D02*
D03*
Y17415D02*
D03*
D27*
X186996Y1704D02*
D03*
X187704D02*
D03*
X198096Y1761D02*
D03*
X198804D02*
D03*
X185446Y1706D02*
D03*
X186154D02*
D03*
X186304Y17545D02*
D03*
X185596D02*
D03*
D28*
X195672Y177274D02*
D03*
Y176526D02*
D03*
X194628Y1769D02*
D03*
X198622Y174824D02*
D03*
Y174076D02*
D03*
X197578Y17445D02*
D03*
X188172Y177174D02*
D03*
Y176426D02*
D03*
X187128Y1768D02*
D03*
D29*
X194628Y176772D02*
Y1769D01*
Y176772D02*
X195484Y175916D01*
X192189Y144389D02*
X1928Y145D01*
X190789Y144389D02*
X192189D01*
X1892Y1428D02*
X190789Y144389D01*
X190019Y14006D02*
X190683Y140724D01*
X194176D01*
X192676Y143011D02*
X194743Y140944D01*
X19179Y143011D02*
X192676D01*
X191077Y143724D02*
X19179Y143011D01*
X194743Y140944D02*
X198384D01*
X197597Y141338D02*
X19785Y141591D01*
X194743Y141338D02*
X197597D01*
X192357Y143724D02*
X194743Y141338D01*
X192077Y143724D02*
X192357D01*
X195168Y141633D02*
X196711D01*
X193077Y143724D02*
X195168Y141633D01*
X194077Y143232D02*
Y143724D01*
X193857Y158366D02*
X194322Y1579D01*
X19595D01*
X193702Y157309D02*
Y157536D01*
X193069Y158169D02*
X193702Y157536D01*
X193069Y158169D02*
Y158366D01*
X192872Y152067D02*
Y152362D01*
X193702Y153191D01*
Y153491D01*
X190567Y152067D02*
X192872D01*
X1899Y1514D02*
X190567Y152067D01*
X187746Y1412D02*
X188305D01*
X1892Y142095D01*
Y1428D01*
X199467Y1398D02*
Y142815D01*
Y1398D02*
X2003D01*
X1979D02*
X199467D01*
X195894Y142944D02*
X19685D01*
X19585D02*
X195894D01*
X199338D02*
X199467Y142815D01*
X19885Y142944D02*
X199338D01*
X198384Y140944D02*
X19885Y14141D01*
Y142156D01*
X19785Y141591D02*
Y142156D01*
X196711Y141633D02*
X19685Y141772D01*
Y142156D01*
X194077Y143232D02*
X195153Y142156D01*
X19585D01*
X194946Y173254D02*
X195Y1732D01*
X187106Y1526D02*
Y152906D01*
X1909Y149359D02*
Y1495D01*
X190891Y14935D02*
X1909Y149359D01*
X193062Y144738D02*
X19445D01*
X1928Y145D02*
X193062Y144738D01*
X1862Y1425D02*
Y1469D01*
X187309Y14535D02*
X18915D01*
X1931Y1504D02*
Y1505D01*
X1922Y149606D02*
X192306D01*
X1998Y1354D02*
Y137394D01*
X18665Y14735D02*
X187309D01*
X1862Y1469D02*
X18665Y14735D01*
X18625Y14785D02*
X187309D01*
X1858Y1474D02*
X18625Y14785D01*
X1858Y1422D02*
Y1474D01*
X1854Y1484D02*
X18635Y14935D01*
X1854Y1409D02*
Y1484D01*
Y1409D02*
X1859Y1404D01*
X1922Y1492D02*
Y149606D01*
X19185Y14885D02*
X1922Y1492D01*
X190891Y14885D02*
X19185D01*
X187309Y14935D02*
Y149591D01*
X187106Y149794D02*
X187309Y149591D01*
X187106Y149794D02*
Y1506D01*
X187894Y1516D02*
Y1526D01*
Y1506D02*
Y1516D01*
X18635Y14935D02*
X187309D01*
X200349Y134851D02*
X200943D01*
X1998Y1354D02*
X200349Y134851D01*
X200943D02*
X201Y134794D01*
X197794Y137394D02*
X1981D01*
X197409Y137009D02*
X197794Y137394D01*
X197409Y135067D02*
Y137009D01*
X1992Y135633D02*
Y136606D01*
X198375Y134808D02*
X1992Y135633D01*
X2014Y1358D02*
Y136606D01*
Y1358D02*
X201928Y135272D01*
Y135024D02*
Y135272D01*
X2003Y1363D02*
X201435Y135165D01*
Y134937D02*
Y135165D01*
X197892Y134937D02*
Y135192D01*
X1981Y1354D01*
Y136606D01*
X19685Y142944D02*
X19785D01*
X19885D01*
X18825Y14635D02*
X1883Y1463D01*
X187309Y14635D02*
X18825D01*
X188527Y142733D02*
Y1436D01*
X187309Y143952D02*
X187661Y1436D01*
X187309Y143952D02*
Y14485D01*
X192698Y155602D02*
X198248D01*
X192698D02*
Y157309D01*
X19595Y1579D02*
X196332Y157519D01*
Y156534D02*
Y157519D01*
X198248Y155602D02*
X1983Y15555D01*
X196332Y153581D02*
Y154074D01*
X19005Y14485D02*
X190891D01*
X187309Y14885D02*
X1884D01*
X187309Y14835D02*
X1884D01*
X200812Y1494D02*
X2017D01*
X1963Y1459D02*
Y150906D01*
X190891Y14835D02*
X19185D01*
X190891Y14685D02*
X19245D01*
X20075Y148675D02*
X200775Y1487D01*
X2018D01*
X20075Y147887D02*
X200762Y1479D01*
X2017D01*
X19445Y145525D02*
X195925D01*
X1963Y1459D01*
X19445Y147887D02*
X1963D01*
X1924Y1469D02*
X19245Y14685D01*
X1931Y1481D02*
X193675Y148675D01*
X1931Y1469D02*
Y1481D01*
X19255Y14635D02*
X1931Y1469D01*
X190891Y14635D02*
X19255D01*
X190891Y14735D02*
X19185D01*
X193675Y148675D02*
X19445D01*
X193662Y149462D02*
X19445D01*
X19205Y14785D02*
X193662Y149462D01*
X190891Y14785D02*
X19205D01*
X197574Y164222D02*
Y16508D01*
X197085Y171754D02*
X1972Y171869D01*
X195346Y172546D02*
X19555Y1726D01*
X193171Y172806D02*
X193694D01*
X1899Y145D02*
X19005Y14485D01*
X1899Y145D02*
Y1514D01*
X18915Y14535D02*
X1896Y1458D01*
Y1517D01*
X1938Y1503D02*
X1944D01*
X19185Y14835D02*
X1938Y1503D01*
X187106Y152906D02*
X1874Y1532D01*
X187309Y14585D02*
X18895D01*
X1893Y1462D01*
Y1523D01*
X1917Y1547D01*
Y1584D01*
X1921Y1588D01*
X187309Y14685D02*
X188619D01*
X188969Y1472D01*
Y152569D01*
X1914Y155D01*
Y1587D01*
X1917Y159D01*
X19445Y144738D02*
X196948D01*
X198523Y146313D01*
X20075D01*
X193702Y153543D02*
X195763D01*
X196332Y154111D01*
Y154566D01*
X185405Y139605D02*
X185695Y139895D01*
X186269D01*
X185405Y137735D02*
Y139605D01*
Y137735D02*
X18574Y1374D01*
X1859D01*
Y1364D02*
X18646Y13696D01*
X1862Y1425D02*
X18683Y14187D01*
X186269Y139895D02*
X18654Y140167D01*
Y14146D01*
X1858Y1422D02*
X18654Y14146D01*
X18646Y139D02*
X18683Y13937D01*
Y14187D01*
X18646Y13696D02*
Y139D01*
X188646Y139966D02*
Y14006D01*
X18808Y1394D02*
X188646Y139966D01*
X18682Y1384D02*
Y13885D01*
X187706Y139736D01*
Y1427D01*
X189434Y14006D02*
X190019D01*
X187577Y164769D02*
Y165277D01*
Y164769D02*
X188221Y164124D01*
X187327Y164665D02*
Y165173D01*
Y164665D02*
X188117Y163874D01*
X18594Y16656D02*
X187327Y165173D01*
X18619Y166664D02*
Y16813D01*
Y166664D02*
X187577Y165277D01*
X188221Y164124D02*
X191036D01*
X1921Y16306D01*
Y1588D02*
Y16306D01*
X188117Y163874D02*
X190816D01*
X1917Y16299D01*
Y159D02*
Y16299D01*
X1896Y1517D02*
X190666Y152766D01*
X19159D01*
Y153554D02*
X19209Y154054D01*
Y15836D01*
X19343Y1597D01*
X19763D01*
X19801Y16008D01*
X197594Y165094D02*
X19801Y164677D01*
Y16008D02*
Y164677D01*
X196455Y167815D02*
X19652Y16775D01*
X188716Y17565D02*
Y175719D01*
X18725Y175804D02*
Y176678D01*
X187128Y1768D02*
X18725Y176678D01*
X1874Y177198D02*
X188172Y176426D01*
X1874Y177198D02*
Y1772D01*
X18725Y175723D02*
Y175804D01*
Y175723D02*
X187823Y17515D01*
X185624Y174806D02*
Y175422D01*
X185596Y17545D02*
X185624Y175422D01*
X186372Y174806D02*
Y175383D01*
X186304Y17545D02*
X186372Y175383D01*
X18719Y175096D02*
X18725D01*
X186762Y175524D02*
X18719Y175096D01*
X186762Y175524D02*
Y175734D01*
X18625Y176246D02*
X186762Y175734D01*
X185998Y173761D02*
X186009Y17375D01*
X18725Y174504D02*
Y175096D01*
Y174504D02*
X187854D01*
X188Y17465D01*
X186926Y17047D02*
Y171178D01*
Y17047D02*
X186996Y1704D01*
X187674Y17043D02*
X187704Y1704D01*
X187674Y17043D02*
Y171178D01*
X185604Y176954D02*
X18625D01*
X1852Y17655D02*
X185604Y176954D01*
X185596Y17545D02*
Y175954D01*
X18555Y176D02*
X185596Y175954D01*
X18555Y176D02*
Y17605D01*
X1856Y1761D01*
X185376Y17067D02*
Y171328D01*
Y17067D02*
X185446Y1706D01*
X186124Y17063D02*
Y171328D01*
Y17063D02*
X186154Y1706D01*
X196204Y175154D02*
X1969D01*
X1962Y17515D02*
X196204Y175154D01*
X196696Y17465D02*
X1969Y174446D01*
X195484Y17465D02*
X196696D01*
X19638Y177324D02*
X196404Y1773D01*
X1969Y175154D02*
Y175496D01*
X1972Y175796D01*
X197504Y1761D01*
X198096D01*
X19715Y1773D02*
X1972Y17725D01*
X18635Y1698D02*
Y170404D01*
X186154Y1706D02*
X18635Y170404D01*
X188716Y175719D02*
X188797Y1758D01*
X188172Y177174D02*
X18855D01*
X188797Y176927D01*
Y1758D02*
Y176927D01*
X19395Y17725D02*
X194998D01*
X196346Y17565D02*
X1972Y176504D01*
X195484Y17565D02*
X196346D01*
X194628Y1769D02*
Y17695D01*
X195484Y17565D02*
Y175916D01*
X195748Y1765D02*
X196304D01*
X194998Y17725D02*
X19515Y177098D01*
X196304Y1765D02*
X1964Y176596D01*
X195672Y176576D02*
X195748Y1765D01*
X19515Y17695D02*
Y177098D01*
Y17695D02*
X195574Y176526D01*
X195672D01*
X196904Y17445D02*
X197578D01*
X1969Y174446D02*
X196904Y17445D01*
X198804Y175946D02*
Y1761D01*
X19915Y1745D02*
Y1756D01*
X198804Y175946D02*
X19915Y1756D01*
X198324Y174824D02*
X198622D01*
X1981Y1746D02*
X198324Y174824D01*
X1962Y17415D02*
X1963Y17405D01*
X1981Y1742D02*
Y1746D01*
X19795Y17405D02*
X1981Y1742D01*
X1963Y17405D02*
X19795D01*
X1988Y17415D02*
X19915Y1745D01*
X198062Y173612D02*
X19845Y174D01*
X187823Y17515D02*
X188716D01*
X186377Y176977D02*
X1866Y1772D01*
X1874D01*
X1856Y1733D02*
Y174034D01*
X186372Y174806D01*
X186926Y171178D02*
Y171974D01*
X1856Y1733D02*
X186926Y171974D01*
X187704Y1704D02*
X187804Y1705D01*
X1886D01*
X18619Y16813D02*
X186996Y168936D01*
Y1704D01*
X185446Y168654D02*
Y1706D01*
Y168654D02*
X18594Y16816D01*
Y16656D02*
Y16816D01*
X1873Y172222D02*
Y17235D01*
X188562Y173612D01*
X198062D01*
X186009Y17375D02*
X188D01*
X1884Y17415D01*
X188716D01*
X1852Y1731D02*
Y17655D01*
Y1731D02*
X18575Y17255D01*
Y172372D02*
Y17255D01*
X194841Y16945D02*
X195205Y169815D01*
Y169695D02*
Y169815D01*
X18855Y1501D02*
Y1531D01*
X18845Y1532D02*
X18855Y1531D01*
X1874Y1532D02*
X18845D01*
X192698Y153491D02*
Y155602D01*
X195894Y1428D02*
Y142944D01*
X192306Y149606D02*
X1931Y1504D01*
X195894Y142944D02*
Y144731D01*
X2003Y1363D02*
Y136606D01*
X195672Y177324D02*
X19638D01*
X196404Y1773D02*
X19715D01*
X190829Y1719D02*
Y172121D01*
D30*
X1942Y173254D02*
X194946D01*
X190829Y1702D02*
Y1719D01*
X188773Y171933D02*
Y1728D01*
X190829Y1719D02*
X193171D01*
X1942Y17082D02*
X195205Y169815D01*
X195921Y170531D01*
X1942Y17082D02*
Y170996D01*
Y171754D02*
X197085D01*
X193946D02*
X1942D01*
X1938Y1719D02*
X193946Y171754D01*
X193171Y1719D02*
X1938D01*
X19555Y1726D02*
X1958Y173D01*
X1942Y172546D02*
X195346D01*
X193954D02*
X1942D01*
X193694Y172806D02*
X193954Y172546D01*
X1958Y173D02*
X1977D01*
X1985Y1722D01*
Y171869D02*
Y1722D01*
X19878Y16503D02*
Y16549D01*
X196826Y167444D02*
X19878Y16549D01*
X19652Y16775D02*
X196826Y167444D01*
X191593Y176159D02*
Y176772D01*
X191084Y17565D02*
X191593Y176159D01*
X191084Y17415D02*
Y17465D01*
Y17515D01*
Y17565D01*
X192593Y176772D02*
X193116Y176249D01*
Y17415D02*
Y17465D01*
Y17515D01*
Y17565D01*
Y176249D01*
X195484Y17515D02*
X1962D01*
X188Y17465D02*
X188716D01*
X188Y17565D02*
X188716D01*
X195484Y17415D02*
X1962D01*
X189594Y169406D02*
X189601Y169399D01*
X187427Y167224D02*
X189601Y169399D01*
X189594Y16945D02*
Y1719D01*
Y16945D02*
X194841D01*
X187427Y166823D02*
Y167224D01*
Y166823D02*
X188677Y165573D01*
Y165224D02*
Y165573D01*
X195921Y170531D02*
X1985D01*
X193222Y170996D02*
X1942D01*
X189639Y1728D02*
X19015D01*
X190829Y172121D01*
D31*
X1862Y1516D02*
X187106D01*
X1909Y1495D02*
X1918Y1504D01*
X1909Y1495D02*
Y1502D01*
X1998Y137394D02*
Y1382D01*
Y137394D02*
X2004D01*
X1991D02*
X1998D01*
X1937Y151D02*
X195606D01*
X1929D02*
X1937D01*
X1923Y1504D02*
X1929Y151D01*
X2004Y137394D02*
X2014D01*
X1981D02*
X1991D01*
X195606Y151D02*
Y151506D01*
X1956Y1606D02*
X196946D01*
X196022Y163178D02*
X1972D01*
X1956Y1636D02*
X196022Y163178D01*
X1972Y1622D02*
Y163178D01*
X195606Y151506D02*
X1958Y1517D01*
X2005D01*
X2022Y15D01*
X1998Y1382D02*
X2022Y1406D01*
X20075Y145525D02*
X202175D01*
X2022Y1406D02*
Y15D01*
X1918Y1504D02*
X1923D01*
X1937Y151D02*
Y152106D01*
X196826Y164222D02*
Y167444D01*
D32*
X185639Y156361D02*
Y16063D01*
Y156361D02*
X186656Y155344D01*
X187655D01*
Y160096D02*
X188159Y1606D01*
X187655Y1581D02*
Y160096D01*
Y156722D02*
X188412D01*
X18964Y15795D01*
Y16162D01*
X189927Y167224D02*
X190517Y167815D01*
X193955Y165035D02*
Y167815D01*
Y165035D02*
X19399Y165D01*
X194635Y163991D02*
X195644Y165D01*
X194635Y161565D02*
X1956Y1606D01*
X194635Y161565D02*
Y163991D01*
X18877Y16249D02*
X18964Y16162D01*
X18735Y16249D02*
X18877D01*
X186899Y162941D02*
X18735Y16249D01*
X186899Y162941D02*
Y1636D01*
X190517Y167815D02*
X193955D01*
X195205Y169695D02*
X196455Y168445D01*
Y167815D02*
Y168445D01*
D33*
X19831Y14475D02*
X200737D01*
X20075Y144738D01*
X19703Y14603D02*
Y14856D01*
X19814Y14967D01*
Y1511D01*
D34*
X193561Y158956D02*
Y159206D01*
X193686D01*
X193728Y159165D01*
Y159081D01*
X193686Y15904D01*
X193561D01*
X193811Y159123D02*
Y158998D01*
X193853Y158956D01*
X193978D01*
Y159123D01*
X194061Y158956D02*
X194145D01*
X194103D01*
Y159206D01*
X194061D01*
X19427Y158956D02*
X194353D01*
X194311D01*
Y159206D01*
X19427D01*
X194478Y158915D02*
X194644D01*
X194728Y159206D02*
Y158998D01*
X194769Y158956D01*
X194853D01*
X194894Y158998D01*
Y159206D01*
X195061Y158956D02*
X194978Y15904D01*
Y159123D01*
X195061Y159206D01*
X195352D02*
X195186D01*
Y159081D01*
X195269Y159123D01*
X195311D01*
X195352Y159081D01*
Y158998D01*
X195311Y158956D01*
X195228D01*
X195186Y158998D01*
X195436Y159206D02*
Y15904D01*
X195519Y158956D01*
X195602Y15904D01*
Y159206D01*
X195686Y158956D02*
X195769Y15904D01*
Y159123D01*
X195686Y159206D01*
X196394Y158956D02*
Y159206D01*
X196519D01*
X19656Y159165D01*
Y159081D01*
X196519Y15904D01*
X196394D01*
X196644Y159123D02*
Y158998D01*
X196685Y158956D01*
X19681D01*
Y159123D01*
X196894Y158956D02*
X196977D01*
X196935D01*
Y159206D01*
X196894D01*
X197102Y158956D02*
X197185D01*
X197144D01*
Y159206D01*
X197102D01*
X19731Y158915D02*
X197477D01*
X19756Y159206D02*
Y158956D01*
X197685D01*
X197727Y158998D01*
Y159165D01*
X197685Y159206D01*
X19756D01*
X198726Y159165D02*
X198685Y159206D01*
X198601D01*
X19856Y159165D01*
Y158998D01*
X198601Y158956D01*
X198685D01*
X198726Y158998D01*
Y159081D01*
X198643D01*
X19881Y158956D02*
Y159206D01*
X198976Y158956D01*
Y159206D01*
X19906D02*
Y158956D01*
X199185D01*
X199226Y158998D01*
Y159165D01*
X199185Y159206D01*
X19906D01*
D35*
X197014Y139303D02*
Y139178D01*
X197056Y139136D01*
X197097Y139178D01*
X197139Y139136D01*
X197181Y139178D01*
Y139303D01*
X197264D02*
Y139178D01*
X197306Y139136D01*
X197347Y139178D01*
X197389Y139136D01*
X197431Y139178D01*
Y139303D01*
X197514D02*
Y139178D01*
X197556Y139136D01*
X197597Y139178D01*
X197639Y139136D01*
X197681Y139178D01*
Y139303D01*
X197764Y139136D02*
Y139178D01*
X197806D01*
Y139136D01*
X197764D01*
X198139Y139386D02*
Y139136D01*
X198014D01*
X197972Y139178D01*
Y139261D01*
X198014Y139303D01*
X198139D01*
X198222Y139136D02*
X198305D01*
X198264D01*
Y139303D01*
X198222D01*
X198472D02*
X198555D01*
X198597Y139261D01*
Y139136D01*
X198472D01*
X19843Y139178D01*
X198472Y13922D01*
X198597D01*
X19868Y139053D02*
Y139303D01*
X198805D01*
X198847Y139261D01*
Y139178D01*
X198805Y139136D01*
X19868D01*
X19893Y139303D02*
Y139136D01*
Y13922D01*
X198972Y139261D01*
X199014Y139303D01*
X199055D01*
X199222Y139136D02*
X199305D01*
X199347Y139178D01*
Y139261D01*
X199305Y139303D01*
X199222D01*
X19918Y139261D01*
Y139178D01*
X199222Y139136D01*
X19943D02*
Y139178D01*
X199472D01*
Y139136D01*
X19943D01*
X199638Y139386D02*
Y139136D01*
Y139261D01*
X19968Y139303D01*
X199763D01*
X199805Y139261D01*
Y139136D01*
X199888Y139303D02*
Y139178D01*
X19993Y139136D01*
X200055D01*
Y139303D01*
D36*
X19205Y16573D02*
D03*
X188443Y137696D02*
D03*
D37*
X1956Y1636D02*
D03*
Y1606D02*
D03*
X186899Y1636D02*
D03*
X185639Y1606D02*
D03*
X188159D02*
D03*
X1983Y15555D02*
D03*
X196332Y153581D02*
D03*
Y157519D02*
D03*
Y154566D02*
D03*
Y156534D02*
D03*
D38*
X187655Y156722D02*
D03*
Y1581D02*
D03*
D39*
Y155344D02*
D03*
D40*
X198375Y134808D02*
D03*
X197892Y134937D02*
D03*
X197409Y135067D02*
D03*
D41*
X201928Y135024D02*
D03*
X201435Y134937D02*
D03*
X200943Y134851D02*
D03*
D42*
X191593Y176772D02*
D03*
X19814Y1511D02*
D03*
D43*
X192593Y176772D02*
D03*
X1859Y1394D02*
D03*
Y1384D02*
D03*
Y1374D02*
D03*
Y1364D02*
D03*
Y1354D02*
D03*
X192077Y140822D02*
D03*
X193077D02*
D03*
X194077D02*
D03*
X191077Y143822D02*
D03*
X192077D02*
D03*
X193077D02*
D03*
X194077D02*
D03*
D44*
X1859Y1404D02*
D03*
X191077Y140822D02*
D03*
D45*
X195205Y169815D02*
D03*
X196455Y167815D02*
D03*
X193955D02*
D03*
X189927Y167224D02*
D03*
X187427D02*
D03*
X188677Y165224D02*
D03*
D46*
X195Y1732D02*
D03*
X1862Y1516D02*
D03*
X1979Y1398D02*
D03*
X2003D02*
D03*
X1883Y1463D02*
D03*
X1884Y14885D02*
D03*
Y14835D02*
D03*
X2017Y1494D02*
D03*
Y1487D02*
D03*
Y1479D02*
D03*
X1924Y1469D02*
D03*
X19185Y14735D02*
D03*
X1944Y1503D02*
D03*
X19703Y14603D02*
D03*
X19831Y14475D02*
D03*
X18682Y1384D02*
D03*
X18808Y1394D02*
D03*
X1856Y1761D02*
D03*
X1972Y17725D02*
D03*
X1886Y1705D02*
D03*
X18635Y1698D02*
D03*
X18545Y1696D02*
D03*
X19395Y17725D02*
D03*
X18855Y1501D02*
D03*
D47*
X190829Y1702D02*
D03*
X1909Y1502D02*
D03*
X1928Y145D02*
D03*
X1931Y1503D02*
D03*
X19555Y1726D02*
D03*
X19878Y16503D02*
D03*
X188Y17465D02*
D03*
X1962Y17515D02*
D03*
X188Y17565D02*
D03*
X1962Y17415D02*
D03*
M02*
