%FSTAX24Y24*%
%MOIN*%
G70*
G01*
G75*
G04 Layer_Color=65535*
%ADD10O,0.0394X0.0984*%
%ADD11R,0.0394X0.0984*%
%ADD12R,0.0394X0.0512*%
%ADD13R,0.0709X0.0709*%
%ADD14R,0.0472X0.0512*%
%ADD15R,0.1004X0.0374*%
%ADD16R,0.1004X0.1299*%
%ADD17R,0.0512X0.0394*%
%ADD18R,0.0630X0.0630*%
%ADD19R,0.0374X0.0315*%
%ADD20R,0.0984X0.0512*%
%ADD21O,0.0906X0.0236*%
%ADD22R,0.0709X0.0709*%
%ADD23R,0.0256X0.0472*%
%ADD24R,0.1575X0.0866*%
%ADD25R,0.0512X0.0236*%
%ADD26O,0.0512X0.0236*%
%ADD27R,0.0315X0.0374*%
%ADD28R,0.0472X0.0256*%
%ADD29C,0.0100*%
%ADD30C,0.0300*%
%ADD31C,0.0250*%
%ADD32C,0.0600*%
%ADD33C,0.0200*%
%ADD34C,0.0080*%
%ADD35C,0.0060*%
%ADD36C,0.2756*%
%ADD37C,0.0709*%
%ADD38C,0.0984*%
%ADD39R,0.0984X0.0984*%
G04:AMPARAMS|DCode=40|XSize=37.4mil|YSize=57.1mil|CornerRadius=0mil|HoleSize=0mil|Usage=FLASHONLY|Rotation=345.000|XOffset=0mil|YOffset=0mil|HoleType=Round|Shape=Round|*
%AMOVALD40*
21,1,0.0197,0.0374,0.0000,0.0000,75.0*
1,1,0.0374,-0.0025,-0.0095*
1,1,0.0374,0.0025,0.0095*
%
%ADD40OVALD40*%

G04:AMPARAMS|DCode=41|XSize=37.4mil|YSize=57.1mil|CornerRadius=0mil|HoleSize=0mil|Usage=FLASHONLY|Rotation=10.000|XOffset=0mil|YOffset=0mil|HoleType=Round|Shape=Round|*
%AMOVALD41*
21,1,0.0197,0.0374,0.0000,0.0000,100.0*
1,1,0.0374,0.0017,-0.0097*
1,1,0.0374,-0.0017,0.0097*
%
%ADD41OVALD41*%

%ADD42R,0.0591X0.0591*%
%ADD43C,0.0591*%
%ADD44R,0.0591X0.0591*%
%ADD45C,0.1800*%
%ADD46C,0.0320*%
%ADD47C,0.0500*%
%ADD48C,0.0098*%
%ADD49C,0.0079*%
%ADD50C,0.0236*%
%ADD51C,0.0040*%
%ADD52C,0.0030*%
G04:AMPARAMS|DCode=53|XSize=165.4mil|YSize=0mil|CornerRadius=0mil|HoleSize=0mil|Usage=FLASHONLY|Rotation=345.000|XOffset=0mil|YOffset=0mil|HoleType=Round|Shape=Rectangle|*
%AMROTATEDRECTD53*
4,1,4,-0.0799,0.0214,-0.0799,0.0214,0.0799,-0.0214,0.0799,-0.0214,-0.0799,0.0214,0.0*
%
%ADD53ROTATEDRECTD53*%

G04:AMPARAMS|DCode=54|XSize=173.2mil|YSize=15.7mil|CornerRadius=0mil|HoleSize=0mil|Usage=FLASHONLY|Rotation=345.000|XOffset=0mil|YOffset=0mil|HoleType=Round|Shape=Rectangle|*
%AMROTATEDRECTD54*
4,1,4,-0.0857,0.0148,-0.0816,0.0300,0.0857,-0.0148,0.0816,-0.0300,-0.0857,0.0148,0.0*
%
%ADD54ROTATEDRECTD54*%

G04:AMPARAMS|DCode=55|XSize=165.4mil|YSize=0mil|CornerRadius=0mil|HoleSize=0mil|Usage=FLASHONLY|Rotation=10.000|XOffset=0mil|YOffset=0mil|HoleType=Round|Shape=Rectangle|*
%AMROTATEDRECTD55*
4,1,4,-0.0814,-0.0144,-0.0814,-0.0144,0.0814,0.0144,0.0814,0.0144,-0.0814,-0.0144,0.0*
%
%ADD55ROTATEDRECTD55*%

G04:AMPARAMS|DCode=56|XSize=173.2mil|YSize=15.7mil|CornerRadius=0mil|HoleSize=0mil|Usage=FLASHONLY|Rotation=10.000|XOffset=0mil|YOffset=0mil|HoleType=Round|Shape=Rectangle|*
%AMROTATEDRECTD56*
4,1,4,-0.0839,-0.0228,-0.0867,-0.0073,0.0839,0.0228,0.0867,0.0073,-0.0839,-0.0228,0.0*
%
%ADD56ROTATEDRECTD56*%

D29*
X185Y1601D02*
X19625D01*
Y1641D01*
X185D02*
X19625D01*
X185Y1601D02*
Y1641D01*
X192754Y15872D02*
X194172D01*
Y158011D02*
Y15872D01*
X192754Y158011D02*
X194172D01*
X192754D02*
Y15872D01*
X193793Y164449D02*
Y165551D01*
Y164449D02*
X19584D01*
Y165551D01*
X193793D02*
X19584D01*
X195407Y164449D02*
Y165551D01*
X19941Y1531D02*
Y15803D01*
X19483D02*
X19941D01*
X19483Y1531D02*
Y15803D01*
Y1531D02*
X19941D01*
X187385Y143324D02*
Y143876D01*
Y143324D02*
X188802D01*
Y143876D01*
X187385D02*
X188802D01*
X188606Y143324D02*
Y143876D01*
X189915Y172524D02*
Y173076D01*
X188498D02*
X189915D01*
X188498Y172524D02*
Y173076D01*
Y172524D02*
X189915D01*
X188694D02*
Y173076D01*
X198746Y136291D02*
Y137709D01*
X199454D01*
Y136291D02*
Y137709D01*
X198746Y136291D02*
X199454D01*
X201046D02*
Y137709D01*
X201754D01*
Y136291D02*
Y137709D01*
X201046Y136291D02*
X201754D01*
X195291Y150646D02*
X196709D01*
X195291D02*
Y151354D01*
X196709D01*
Y150646D02*
Y151354D01*
X187391Y143054D02*
X188809D01*
Y142346D02*
Y143054D01*
X187391Y142346D02*
X188809D01*
X187391D02*
Y143054D01*
X188491Y171546D02*
X189909D01*
X188491D02*
Y172254D01*
X189909D01*
Y171546D02*
Y172254D01*
X186791Y150954D02*
X188209D01*
Y150246D02*
Y150954D01*
X186791Y150246D02*
X188209D01*
X186791D02*
Y150954D01*
Y151954D02*
X188209D01*
Y151246D02*
Y151954D01*
X186791Y151246D02*
X188209D01*
X186791D02*
Y151954D01*
X196767Y170098D02*
X197633D01*
Y172302D01*
X196767D02*
X197633D01*
X196767Y170098D02*
Y172302D01*
X194476Y170809D02*
Y171991D01*
X193924Y170809D02*
X194476D01*
X193924D02*
Y171991D01*
X194476D01*
X197746Y136291D02*
X198454D01*
Y137709D01*
X197746D02*
X198454D01*
X197746Y136291D02*
Y137709D01*
X198067Y172302D02*
X198933D01*
X198067Y170098D02*
Y172302D01*
Y170098D02*
X198933D01*
Y172302D01*
X194476Y172309D02*
Y173491D01*
X193924Y172309D02*
X194476D01*
X193924D02*
Y173491D01*
X194476D01*
X200046Y136291D02*
X200754D01*
Y137709D01*
X200046D02*
X200754D01*
X200046Y136291D02*
Y137709D01*
X186791Y152246D02*
Y152954D01*
Y152246D02*
X188209D01*
Y152954D01*
X186791D02*
X188209D01*
X191846Y149291D02*
X192554D01*
Y150709D01*
X191846D02*
X192554D01*
X191846Y149291D02*
Y150709D01*
X199368Y165964D02*
Y169744D01*
X19366Y165964D02*
X199368D01*
X19366D02*
Y169744D01*
X199368D01*
X199176Y165964D02*
Y169744D01*
X196649Y160783D02*
X197751D01*
Y16035D02*
Y162397D01*
X196649Y16035D02*
X197751D01*
X196649D02*
Y162397D01*
X197751D01*
X191236Y153869D02*
X191944D01*
X191236Y152451D02*
Y153869D01*
Y152451D02*
X191944D01*
Y153869D01*
X196491Y164746D02*
Y165454D01*
Y164746D02*
X197909D01*
Y165454D01*
X196491D02*
X197909D01*
X188331Y139706D02*
Y140414D01*
Y139706D02*
X189749D01*
Y140414D01*
X188331D02*
X189749D01*
X195496Y143259D02*
X196204D01*
X195496Y141841D02*
Y143259D01*
Y141841D02*
X196204D01*
Y143259D01*
X196496D02*
X197204D01*
X196496Y141841D02*
Y143259D01*
Y141841D02*
X197204D01*
Y143259D01*
X197496D02*
X198204D01*
X197496Y141841D02*
Y143259D01*
Y141841D02*
X198204D01*
Y143259D01*
X198496D02*
X199204D01*
X198496Y141841D02*
Y143259D01*
Y141841D02*
X199204D01*
Y143259D01*
X193975Y151712D02*
Y152421D01*
X192557D02*
X193975D01*
X192557Y151712D02*
Y152421D01*
Y151712D02*
X193975D01*
X184705Y165295D02*
Y169075D01*
X184513Y165295D02*
X190222D01*
Y169075D01*
X184513D02*
X190222D01*
X184513Y165295D02*
Y169075D01*
X187941Y170124D02*
Y170676D01*
X186759D02*
X187941D01*
X186759Y170124D02*
Y170676D01*
Y170124D02*
X187941D01*
X196174Y177491D02*
X196726D01*
X196174Y176309D02*
Y177491D01*
Y176309D02*
X196726D01*
Y177491D01*
X196924Y175559D02*
X197476D01*
Y176741D01*
X196924D02*
X197476D01*
X196924Y175559D02*
Y176741D01*
X199041Y175824D02*
Y176376D01*
X197859D02*
X199041D01*
X197859Y175824D02*
Y176376D01*
Y175824D02*
X199041D01*
X196624Y175391D02*
X197176D01*
X196624Y174209D02*
Y175391D01*
Y174209D02*
X197176D01*
Y175391D01*
X186391Y170324D02*
Y170876D01*
X185209D02*
X186391D01*
X185209Y170324D02*
Y170876D01*
Y170324D02*
X186391D01*
X185359Y175174D02*
Y175726D01*
Y175174D02*
X186541D01*
Y175726D01*
X185359D02*
X186541D01*
X186974Y174741D02*
X187526D01*
X186974Y173559D02*
Y174741D01*
Y173559D02*
X187526D01*
Y174741D01*
X185974Y177191D02*
X186526D01*
X185974Y176009D02*
Y177191D01*
Y176009D02*
X186526D01*
Y177191D01*
X186974Y174859D02*
X187526D01*
Y176041D01*
X186974D02*
X187526D01*
X186974Y174859D02*
Y176041D01*
X1893Y1552D02*
Y1555D01*
X1895Y1552D01*
Y1555D01*
X18975D02*
X18965D01*
X1896Y15545D01*
Y15525D01*
X18965Y1552D01*
X18975D01*
X1898Y15525D01*
Y15545D01*
X18975Y1555D01*
X1893Y1581D02*
Y1584D01*
X1895Y1581D01*
Y1584D01*
X1898Y15835D02*
X18975Y1584D01*
X18965D01*
X1896Y15835D01*
Y15815D01*
X18965Y1581D01*
X18975D01*
X1898Y15815D01*
X1894Y15685D02*
X18935Y1569D01*
X18925D01*
X1892Y15685D01*
Y15665D01*
X18925Y1566D01*
X18935D01*
X1894Y15665D01*
X18965Y1569D02*
X18955D01*
X1895Y15685D01*
Y15665D01*
X18955Y1566D01*
X18965D01*
X1897Y15665D01*
Y15685D01*
X18965Y1569D01*
X1898Y1566D02*
Y1569D01*
X1899Y1568D01*
X19Y1569D01*
Y1566D01*
D34*
X19528Y14076D02*
X195363D01*
X195322D01*
Y14101D01*
X19528Y140968D01*
X195905Y14076D02*
X195738D01*
X195905Y140927D01*
Y140968D01*
X195863Y14101D01*
X19578D01*
X195738Y140968D01*
X196238D02*
X19628Y14101D01*
X196363D01*
X196405Y140968D01*
Y140927D01*
X196363Y140885D01*
X196321D01*
X196363D01*
X196405Y140843D01*
Y140802D01*
X196363Y14076D01*
X19628D01*
X196238Y140802D01*
X196863Y14076D02*
Y14101D01*
X196738Y140885D01*
X196904D01*
X193561Y158956D02*
Y159206D01*
X193686D01*
X193728Y159165D01*
Y159081D01*
X193686Y15904D01*
X193561D01*
X193811Y159123D02*
Y158998D01*
X193853Y158956D01*
X193978D01*
Y159123D01*
X194061Y158956D02*
X194145D01*
X194103D01*
Y159206D01*
X194061D01*
X19427Y158956D02*
X194353D01*
X194311D01*
Y159206D01*
X19427D01*
X194478Y158915D02*
X194644D01*
X194728Y159206D02*
Y158998D01*
X194769Y158956D01*
X194853D01*
X194894Y158998D01*
Y159206D01*
X195061Y158956D02*
X194978Y15904D01*
Y159123D01*
X195061Y159206D01*
X195352D02*
X195186D01*
Y159081D01*
X195269Y159123D01*
X195311D01*
X195352Y159081D01*
Y158998D01*
X195311Y158956D01*
X195228D01*
X195186Y158998D01*
X195436Y159206D02*
Y15904D01*
X195519Y158956D01*
X195602Y15904D01*
Y159206D01*
X195686Y158956D02*
X195769Y15904D01*
Y159123D01*
X195686Y159206D01*
X196394Y158956D02*
Y159206D01*
X196519D01*
X19656Y159165D01*
Y159081D01*
X196519Y15904D01*
X196394D01*
X196644Y159123D02*
Y158998D01*
X196685Y158956D01*
X19681D01*
Y159123D01*
X196894Y158956D02*
X196977D01*
X196935D01*
Y159206D01*
X196894D01*
X197102Y158956D02*
X197185D01*
X197144D01*
Y159206D01*
X197102D01*
X19731Y158915D02*
X197477D01*
X19756Y159206D02*
Y158956D01*
X197685D01*
X197727Y158998D01*
Y159165D01*
X197685Y159206D01*
X19756D01*
X198726Y159165D02*
X198685Y159206D01*
X198601D01*
X19856Y159165D01*
Y158998D01*
X198601Y158956D01*
X198685D01*
X198726Y158998D01*
Y159081D01*
X198643D01*
X19881Y158956D02*
Y159206D01*
X198976Y158956D01*
Y159206D01*
X19906D02*
Y158956D01*
X199185D01*
X199226Y158998D01*
Y159165D01*
X199185Y159206D01*
X19906D01*
D35*
X18686Y13517D02*
Y13542D01*
X186985D01*
X187027Y135378D01*
Y135295D01*
X186985Y135253D01*
X18686D01*
X186943D02*
X187027Y13517D01*
X18711D02*
Y135337D01*
X187193Y13542D01*
X187277Y135337D01*
Y13517D01*
Y135295D01*
X18711D01*
X18736Y13542D02*
Y13517D01*
X187485D01*
X187526Y135212D01*
Y135378D01*
X187485Y13542D01*
X18736D01*
X18761D02*
X187693D01*
X187651D01*
Y13517D01*
X18761D01*
X187693D01*
X187943Y13542D02*
X18786D01*
X187818Y135378D01*
Y135212D01*
X18786Y13517D01*
X187943D01*
X187985Y135212D01*
Y135378D01*
X187943Y13542D01*
X188235Y135378D02*
X188193Y13542D01*
X18811D01*
X188068Y135378D01*
Y135337D01*
X18811Y135295D01*
X188193D01*
X188235Y135253D01*
Y135212D01*
X188193Y13517D01*
X18811D01*
X188068Y135212D01*
X188318Y13542D02*
Y13517D01*
X188484D01*
X188568D02*
Y135337D01*
X188651Y13542D01*
X188734Y135337D01*
Y13517D01*
Y135295D01*
X188568D01*
X188818Y13542D02*
Y135253D01*
X188901Y13517D01*
X188984Y135253D01*
Y13542D01*
X189234D02*
X189068D01*
Y13517D01*
X189234D01*
X189068Y135295D02*
X189151D01*
X189567Y135337D02*
X189651Y13517D01*
X189734Y135337D01*
X189817Y135378D02*
X189859Y13542D01*
X189942D01*
X189984Y135378D01*
Y135337D01*
X189942Y135295D01*
X189901D01*
X189942D01*
X189984Y135253D01*
Y135212D01*
X189942Y13517D01*
X189859D01*
X189817Y135212D01*
X20088Y14139D02*
X20113D01*
Y141515D01*
X201088Y141557D01*
X200922D01*
X20088Y141515D01*
Y14139D01*
X20113Y14164D02*
Y141723D01*
Y141682D01*
X200963D01*
Y14164D01*
Y14189D02*
Y141973D01*
X201005Y142015D01*
X20113D01*
Y14189D01*
X201088Y141848D01*
X201047Y14189D01*
Y142015D01*
X201213Y142098D02*
X200963D01*
Y142223D01*
X201005Y142265D01*
X201088D01*
X20113Y142223D01*
Y142098D01*
X200963Y142348D02*
X20113D01*
X201047D01*
X201005Y14239D01*
X200963Y142431D01*
Y142473D01*
X20113Y14264D02*
Y142723D01*
X201088Y142765D01*
X201005D01*
X200963Y142723D01*
Y14264D01*
X201005Y142598D01*
X201088D01*
X20113Y14264D01*
Y143098D02*
X20088D01*
X201047D02*
X200963Y143223D01*
X201047Y143098D02*
X20113Y143223D01*
Y143389D02*
X200922D01*
X201005D01*
Y143348D01*
Y143431D01*
Y143389D01*
X200922D01*
X20088Y143431D01*
X200922Y143598D02*
X200963D01*
Y143556D01*
Y143639D01*
Y143598D01*
X201088D01*
X20113Y143639D01*
X197014Y139303D02*
Y139178D01*
X197056Y139136D01*
X197097Y139178D01*
X197139Y139136D01*
X197181Y139178D01*
Y139303D01*
X197264D02*
Y139178D01*
X197306Y139136D01*
X197347Y139178D01*
X197389Y139136D01*
X197431Y139178D01*
Y139303D01*
X197514D02*
Y139178D01*
X197556Y139136D01*
X197597Y139178D01*
X197639Y139136D01*
X197681Y139178D01*
Y139303D01*
X197764Y139136D02*
Y139178D01*
X197806D01*
Y139136D01*
X197764D01*
X198139Y139386D02*
Y139136D01*
X198014D01*
X197972Y139178D01*
Y139261D01*
X198014Y139303D01*
X198139D01*
X198222Y139136D02*
X198305D01*
X198264D01*
Y139303D01*
X198222D01*
X198472D02*
X198555D01*
X198597Y139261D01*
Y139136D01*
X198472D01*
X19843Y139178D01*
X198472Y13922D01*
X198597D01*
X19868Y139053D02*
Y139303D01*
X198805D01*
X198847Y139261D01*
Y139178D01*
X198805Y139136D01*
X19868D01*
X19893Y139303D02*
Y139136D01*
Y13922D01*
X198972Y139261D01*
X199014Y139303D01*
X199055D01*
X199222Y139136D02*
X199305D01*
X199347Y139178D01*
Y139261D01*
X199305Y139303D01*
X199222D01*
X19918Y139261D01*
Y139178D01*
X199222Y139136D01*
X19943D02*
Y139178D01*
X199472D01*
Y139136D01*
X19943D01*
X199638Y139386D02*
Y139136D01*
Y139261D01*
X19968Y139303D01*
X199763D01*
X199805Y139261D01*
Y139136D01*
X199888Y139303D02*
Y139178D01*
X19993Y139136D01*
X200055D01*
Y139303D01*
X201583Y14135D02*
X201708D01*
X20175Y141392D01*
X201708Y141433D01*
X20175Y141475D01*
X201708Y141517D01*
X201583D01*
Y1416D02*
X201708D01*
X20175Y141642D01*
X201708Y141683D01*
X20175Y141725D01*
X201708Y141767D01*
X201583D01*
Y14185D02*
X201708D01*
X20175Y141891D01*
X201708Y141933D01*
X20175Y141975D01*
X201708Y142016D01*
X201583D01*
X20175Y1421D02*
X201708D01*
Y142141D01*
X20175D01*
Y1421D01*
X2015Y142475D02*
X20175D01*
Y14235D01*
X201708Y142308D01*
X201625D01*
X201583Y14235D01*
Y142475D01*
X20175Y142558D02*
Y142641D01*
Y1426D01*
X201583D01*
Y142558D01*
Y142808D02*
Y142891D01*
X201625Y142933D01*
X20175D01*
Y142808D01*
X201708Y142766D01*
X201667Y142808D01*
Y142933D01*
X201833Y143016D02*
X201583D01*
Y143141D01*
X201625Y143183D01*
X201708D01*
X20175Y143141D01*
Y143016D01*
X201583Y143266D02*
X20175D01*
X201667D01*
X201625Y143308D01*
X201583Y143349D01*
Y143391D01*
X20175Y143558D02*
Y143641D01*
X201708Y143683D01*
X201625D01*
X201583Y143641D01*
Y143558D01*
X201625Y143516D01*
X201708D01*
X20175Y143558D01*
Y143766D02*
X201708D01*
Y143808D01*
X20175D01*
Y143766D01*
X2015Y143974D02*
X20175D01*
X201625D01*
X201583Y144016D01*
Y144099D01*
X201625Y144141D01*
X20175D01*
X201583Y144224D02*
X201708D01*
X20175Y144266D01*
Y144391D01*
X201583D01*
D48*
X192335Y170876D02*
G03*
X192335Y170876I-000049J0D01*
G01*
X198189Y151907D02*
G03*
X198189Y151907I-000049J0D01*
G01*
X187358Y149685D02*
G03*
X187358Y149685I-000049J0D01*
G01*
X190615Y140822D02*
G03*
X190615Y140822I-000049J0D01*
G01*
D49*
X197403Y150289D02*
G03*
X197797Y150289I000197J0D01*
G01*
X19055Y142072D02*
G03*
X19055Y142572I0J00025D01*
G01*
X194536Y174152D02*
G03*
X194536Y174152I-000118J0D01*
G01*
X1899Y175648D02*
G03*
X1899Y175648I-000118J0D01*
G01*
X184505Y15906D02*
X188245D01*
Y15438D02*
Y15906D01*
X184505Y15438D02*
Y15906D01*
Y15438D02*
X188245D01*
X198788Y135085D02*
X198806Y135153D01*
X198546Y134334D02*
X198584Y134324D01*
X19719Y135513D02*
X197209Y135581D01*
X196987Y134752D02*
X197025Y134742D01*
X202172Y135519D02*
X202185Y135449D01*
X202283Y134667D02*
X202321Y134674D01*
X200544Y135232D02*
X200556Y135162D01*
X200693Y134387D02*
X200732Y134394D01*
X193093Y176272D02*
Y177272D01*
X191093Y176272D02*
X193093D01*
X191093D02*
Y177272D01*
X193093D01*
X1854Y1349D02*
X1864D01*
X1854Y1409D02*
X1864D01*
Y1349D02*
Y1409D01*
X1854Y1349D02*
Y1409D01*
X192512Y170581D02*
Y173219D01*
X191488Y170581D02*
Y173219D01*
Y170581D02*
X192512D01*
X191488Y173219D02*
X192512D01*
X197797Y150289D02*
X199929D01*
Y143911D02*
Y150289D01*
X195271Y150283D02*
X195277Y150289D01*
X197403D01*
X195271Y143911D02*
X199929D01*
X195271D02*
Y150283D01*
X197589Y151651D02*
X198691D01*
X198691Y150549D02*
Y151651D01*
X197589Y150549D02*
X198691D01*
X197589Y150549D02*
Y151651D01*
X187919Y144541D02*
X190281D01*
X187919Y149659D02*
X190281D01*
Y144541D02*
Y149659D01*
X187919Y144541D02*
Y149659D01*
X19055Y141279D02*
X194605D01*
X19055Y143366D02*
X194605D01*
X19055Y141279D02*
Y142072D01*
Y142572D02*
Y143366D01*
X194605Y141279D02*
Y143366D01*
X196649Y16345D02*
Y16395D01*
X197751Y16345D02*
Y16395D01*
X196649Y16345D02*
X197751D01*
X196649Y16395D02*
X197751D01*
X194654Y173916D02*
Y175884D01*
X193946Y173916D02*
Y175884D01*
Y173916D02*
X194654D01*
X193946Y175884D02*
X194654D01*
X186749Y17145D02*
X187851D01*
X186749Y17195D02*
X187851D01*
X186749Y17145D02*
Y17195D01*
X187851Y17145D02*
Y17195D01*
X1954Y176349D02*
Y177451D01*
X1949Y176349D02*
Y177451D01*
Y176349D02*
X1954D01*
X1949Y177451D02*
X1954D01*
X19835Y173899D02*
Y175001D01*
X19785Y173899D02*
Y175001D01*
Y173899D02*
X19835D01*
X19785Y175001D02*
X19835D01*
X185199Y1716D02*
X186301D01*
X185199Y1721D02*
X186301D01*
X185199Y1716D02*
Y1721D01*
X186301Y1716D02*
Y1721D01*
X185446Y174534D02*
X186549D01*
X185446Y174034D02*
X186549D01*
Y174534D01*
X185446Y174034D02*
Y174534D01*
X1879Y176249D02*
Y177351D01*
X1874Y176249D02*
Y177351D01*
Y176249D02*
X1879D01*
X1874Y177351D02*
X1879D01*
X189546Y173916D02*
Y175884D01*
X190254Y173916D02*
Y175884D01*
X189546D02*
X190254D01*
X189546Y173916D02*
X190254D01*
D50*
X188431Y149265D02*
G03*
X188431Y149265I-000118J0D01*
G01*
X191061Y141673D02*
G03*
X191061Y141673I-000118J0D01*
G01*
D51*
X19317Y15199D02*
Y15214D01*
X193245D01*
X19327Y152115D01*
Y152065D01*
X193245Y15204D01*
X19317D01*
X19322D02*
X19327Y15199D01*
X19332D02*
X19337D01*
X193345D01*
Y15214D01*
X19332Y152115D01*
X1971Y16378D02*
X1972D01*
X19715D01*
Y16363D01*
X19725D02*
X1973D01*
X197275D01*
Y16378D01*
X19725Y163755D01*
X1925Y142375D02*
X192475Y1424D01*
X192425D01*
X1924Y142375D01*
Y14235D01*
X192425Y142325D01*
X192475D01*
X1925Y1423D01*
Y142275D01*
X192475Y14225D01*
X192425D01*
X1924Y142275D01*
X19255Y1424D02*
Y14225D01*
X1926Y1423D01*
X19265Y14225D01*
Y1424D01*
X1927Y14225D02*
X19275D01*
X192725D01*
Y1424D01*
X1927Y142375D01*
X19869Y14248D02*
Y14263D01*
X198765D01*
X19879Y142605D01*
Y142555D01*
X198765Y14253D01*
X19869D01*
X19874D02*
X19879Y14248D01*
X19884D02*
X19889D01*
X198865D01*
Y14263D01*
X19884Y142605D01*
X198965Y14248D02*
X199015D01*
X19899D01*
Y14263D01*
X198965Y142605D01*
X19773Y14248D02*
Y14263D01*
X197805D01*
X19783Y142605D01*
Y142555D01*
X197805Y14253D01*
X19773D01*
X19778D02*
X19783Y14248D01*
X19788Y142505D02*
X197905Y14248D01*
X197955D01*
X19798Y142505D01*
Y142605D01*
X197955Y14263D01*
X197905D01*
X19788Y142605D01*
Y14258D01*
X197905Y142555D01*
X19798D01*
X19673Y14248D02*
Y14263D01*
X196805D01*
X19683Y142605D01*
Y142555D01*
X196805Y14253D01*
X19673D01*
X19678D02*
X19683Y14248D01*
X19688Y142605D02*
X196905Y14263D01*
X196955D01*
X19698Y142605D01*
Y14258D01*
X196955Y142555D01*
X19698Y14253D01*
Y142505D01*
X196955Y14248D01*
X196905D01*
X19688Y142505D01*
Y14253D01*
X196905Y142555D01*
X19688Y14258D01*
Y142605D01*
X196905Y142555D02*
X196955D01*
X19573Y14248D02*
Y14263D01*
X195805D01*
X19583Y142605D01*
Y142555D01*
X195805Y14253D01*
X19573D01*
X19578D02*
X19583Y14248D01*
X19588Y14263D02*
X19598D01*
Y142605D01*
X19588Y142505D01*
Y14248D01*
X18892Y13999D02*
Y14014D01*
X188995D01*
X18902Y140115D01*
Y140065D01*
X188995Y14004D01*
X18892D01*
X18897D02*
X18902Y13999D01*
X18917Y14014D02*
X18907D01*
Y140065D01*
X18912Y14009D01*
X189145D01*
X18917Y140065D01*
Y140015D01*
X189145Y13999D01*
X189095D01*
X18907Y140015D01*
X19701Y16503D02*
Y16518D01*
X197085D01*
X19711Y165155D01*
Y165105D01*
X197085Y16508D01*
X19701D01*
X19706D02*
X19711Y16503D01*
X19716D02*
X19721D01*
X197185D01*
Y16518D01*
X19716Y165155D01*
X197385Y16518D02*
X197285D01*
Y165105D01*
X197335Y16513D01*
X19736D01*
X197385Y165105D01*
Y165055D01*
X19736Y16503D01*
X19731D01*
X197285Y165055D01*
X1914Y15309D02*
Y15324D01*
X191475D01*
X1915Y153215D01*
Y153165D01*
X191475Y15314D01*
X1914D01*
X19145D02*
X1915Y15309D01*
X19155D02*
X1916D01*
X191575D01*
Y15324D01*
X19155Y153215D01*
X19175Y15309D02*
Y15324D01*
X191675Y153165D01*
X191775D01*
X19708Y16145D02*
Y1613D01*
X197155D01*
X19718Y161325D01*
Y161425D01*
X197155Y16145D01*
X19708D01*
X197305Y1613D02*
Y16145D01*
X19723Y161375D01*
X19733D01*
X189Y14718D02*
Y147055D01*
X189025Y14703D01*
X189075D01*
X1891Y147055D01*
Y14718D01*
X18915Y14703D02*
X1892D01*
X189175D01*
Y14718D01*
X18915Y147155D01*
X19812Y15133D02*
X19807D01*
X198095D01*
Y151205D01*
X19807Y15118D01*
X198045D01*
X19802Y151205D01*
X19827Y15118D02*
X19817D01*
X19827Y15128D01*
Y151305D01*
X198245Y15133D01*
X198195D01*
X19817Y151305D01*
X19622Y16841D02*
X19617D01*
X196195D01*
Y168285D01*
X19617Y16826D01*
X196145D01*
X19612Y168285D01*
X19627Y16826D02*
X19632D01*
X196295D01*
Y16841D01*
X19627Y168385D01*
X19748Y14718D02*
Y147055D01*
X197505Y14703D01*
X197555D01*
X19758Y147055D01*
Y14718D01*
X19773D02*
X19763D01*
Y147105D01*
X19768Y14713D01*
X197705D01*
X19773Y147105D01*
Y147055D01*
X197705Y14703D01*
X197655D01*
X19763Y147055D01*
X1922Y150055D02*
X192175Y15008D01*
X192125D01*
X1921Y150055D01*
Y149955D01*
X192125Y14993D01*
X192175D01*
X1922Y149955D01*
X19225Y14993D02*
X1923D01*
X192275D01*
Y15008D01*
X19225Y150055D01*
X18748Y152655D02*
X187455Y15268D01*
X187405D01*
X18738Y152655D01*
Y152555D01*
X187405Y15253D01*
X187455D01*
X18748Y152555D01*
X18763Y15253D02*
X18753D01*
X18763Y15263D01*
Y152655D01*
X187605Y15268D01*
X187555D01*
X18753Y152655D01*
X20038Y137055D02*
X200355Y13708D01*
X200305D01*
X20028Y137055D01*
Y136955D01*
X200305Y13693D01*
X200355D01*
X20038Y136955D01*
X20043Y137055D02*
X200455Y13708D01*
X200505D01*
X20053Y137055D01*
Y13703D01*
X200505Y137005D01*
X20048D01*
X200505D01*
X20053Y13698D01*
Y136955D01*
X200505Y13693D01*
X200455D01*
X20043Y136955D01*
X19418Y172955D02*
X194155Y17298D01*
X194105D01*
X19408Y172955D01*
Y172855D01*
X194105Y17283D01*
X194155D01*
X19418Y172855D01*
X194305Y17283D02*
Y17298D01*
X19423Y172905D01*
X19433D01*
X19848Y171255D02*
X198455Y17128D01*
X198405D01*
X19838Y171255D01*
Y171155D01*
X198405Y17113D01*
X198455D01*
X19848Y171155D01*
X19863Y17128D02*
X19853D01*
Y171205D01*
X19858Y17123D01*
X198605D01*
X19863Y171205D01*
Y171155D01*
X198605Y17113D01*
X198555D01*
X19853Y171155D01*
X19808Y137055D02*
X198055Y13708D01*
X198005D01*
X19798Y137055D01*
Y136955D01*
X198005Y13693D01*
X198055D01*
X19808Y136955D01*
X19823Y13708D02*
X19818Y137055D01*
X19813Y137005D01*
Y136955D01*
X198155Y13693D01*
X198205D01*
X19823Y136955D01*
Y13698D01*
X198205Y137005D01*
X19813D01*
X19418Y171455D02*
X194155Y17148D01*
X194105D01*
X19408Y171455D01*
Y171355D01*
X194105Y17133D01*
X194155D01*
X19418Y171355D01*
X19423Y17148D02*
X19433D01*
Y171455D01*
X19423Y171355D01*
Y17133D01*
X19718Y171255D02*
X197155Y17128D01*
X197105D01*
X19708Y171255D01*
Y171155D01*
X197105Y17113D01*
X197155D01*
X19718Y171155D01*
X19723Y171255D02*
X197255Y17128D01*
X197305D01*
X19733Y171255D01*
Y17123D01*
X197305Y171205D01*
X19733Y17118D01*
Y171155D01*
X197305Y17113D01*
X197255D01*
X19723Y171155D01*
Y17118D01*
X197255Y171205D01*
X19723Y17123D01*
Y171255D01*
X197255Y171205D02*
X197305D01*
X18738Y15153D02*
Y15168D01*
X187455D01*
X18748Y151655D01*
Y151605D01*
X187455Y15158D01*
X18738D01*
X18743D02*
X18748Y15153D01*
X18753Y151655D02*
X187555Y15168D01*
X187605D01*
X18763Y151655D01*
Y15163D01*
X187605Y151605D01*
X18758D01*
X187605D01*
X18763Y15158D01*
Y151555D01*
X187605Y15153D01*
X187555D01*
X18753Y151555D01*
X18738Y15053D02*
Y15068D01*
X187455D01*
X18748Y150655D01*
Y150605D01*
X187455Y15058D01*
X18738D01*
X18743D02*
X18748Y15053D01*
X187605D02*
Y15068D01*
X18753Y150605D01*
X18763D01*
X18908Y17183D02*
Y17198D01*
X189155D01*
X18918Y171955D01*
Y171905D01*
X189155Y17188D01*
X18908D01*
X18913D02*
X18918Y17183D01*
X18933Y17198D02*
X18928Y171955D01*
X18923Y171905D01*
Y171855D01*
X189255Y17183D01*
X189305D01*
X18933Y171855D01*
Y17188D01*
X189305Y171905D01*
X18923D01*
X18791Y14263D02*
Y14278D01*
X187985D01*
X18801Y142755D01*
Y142705D01*
X187985Y14268D01*
X18791D01*
X18796D02*
X18801Y14263D01*
X18806D02*
X18811D01*
X188085D01*
Y14278D01*
X18806Y142755D01*
X188185D02*
X18821Y14278D01*
X18826D01*
X188285Y142755D01*
Y142655D01*
X18826Y14263D01*
X18821D01*
X188185Y142655D01*
Y142755D01*
X19581Y15093D02*
Y15108D01*
X195885D01*
X19591Y151055D01*
Y151005D01*
X195885Y15098D01*
X19581D01*
X19586D02*
X19591Y15093D01*
X19596D02*
X19601D01*
X195985D01*
Y15108D01*
X19596Y151055D01*
X196185Y15093D02*
X196085D01*
X196185Y15103D01*
Y151055D01*
X19616Y15108D01*
X19611D01*
X196085Y151055D01*
X20121Y13693D02*
Y13708D01*
X201285D01*
X20131Y137055D01*
Y137005D01*
X201285Y13698D01*
X20121D01*
X20126D02*
X20131Y13693D01*
X20136D02*
X20141D01*
X201385D01*
Y13708D01*
X20136Y137055D01*
X201485D02*
X20151Y13708D01*
X20156D01*
X201585Y137055D01*
Y13703D01*
X20156Y137005D01*
X201535D01*
X20156D01*
X201585Y13698D01*
Y136955D01*
X20156Y13693D01*
X20151D01*
X201485Y136955D01*
X19891Y13693D02*
Y13708D01*
X198985D01*
X19901Y137055D01*
Y137005D01*
X198985Y13698D01*
X19891D01*
X19896D02*
X19901Y13693D01*
X19906D02*
X19911D01*
X199085D01*
Y13708D01*
X19906Y137055D01*
X199285Y13708D02*
X199235Y137055D01*
X199185Y137005D01*
Y136955D01*
X19921Y13693D01*
X19926D01*
X199285Y136955D01*
Y13698D01*
X19926Y137005D01*
X199185D01*
X19188Y17198D02*
Y171855D01*
X191905Y17183D01*
X191955D01*
X19198Y171855D01*
Y17198D01*
X19213D02*
X19208Y171955D01*
X19203Y171905D01*
Y171855D01*
X192055Y17183D01*
X192105D01*
X19213Y171855D01*
Y17188D01*
X192105Y171905D01*
X19203D01*
X18908Y17288D02*
Y17273D01*
X189155D01*
X18918Y172755D01*
Y172855D01*
X189155Y17288D01*
X18908D01*
X18933Y17273D02*
X18923D01*
X18933Y17283D01*
Y172855D01*
X189305Y17288D01*
X189255D01*
X18923Y172855D01*
X18797Y14368D02*
Y14353D01*
X188045D01*
X18807Y143555D01*
Y143655D01*
X188045Y14368D01*
X18797D01*
X18812Y143655D02*
X188145Y14368D01*
X188195D01*
X18822Y143655D01*
Y14363D01*
X188195Y143605D01*
X18817D01*
X188195D01*
X18822Y14358D01*
Y143555D01*
X188195Y14353D01*
X188145D01*
X18812Y143555D01*
X1858Y13783D02*
Y13798D01*
X185875D01*
X1859Y137955D01*
Y137905D01*
X185875Y13788D01*
X1858D01*
X18595Y13783D02*
X186D01*
X185975D01*
Y13798D01*
X18595Y137955D01*
X19197Y1767D02*
Y17685D01*
X192045D01*
X19207Y176825D01*
Y176775D01*
X192045Y17675D01*
X19197D01*
X19222Y1767D02*
X19212D01*
X19222Y1768D01*
Y176825D01*
X192195Y17685D01*
X192145D01*
X19212Y176825D01*
X20133Y13509D02*
Y134965D01*
X201355Y13494D01*
X201405D01*
X20143Y134965D01*
Y13509D01*
X201555Y13494D02*
Y13509D01*
X20148Y135015D01*
X20158D01*
X19779Y13509D02*
Y134965D01*
X197815Y13494D01*
X197865D01*
X19789Y134965D01*
Y13509D01*
X19794D02*
X19804D01*
Y135065D01*
X19794Y134965D01*
Y13494D01*
X18625Y15664D02*
Y15679D01*
X186325D01*
X18635Y156765D01*
Y156715D01*
X186325Y15669D01*
X18625D01*
X1864Y156765D02*
X186425Y15679D01*
X186475D01*
X1865Y156765D01*
Y15674D01*
X186475Y156715D01*
X18645D01*
X186475D01*
X1865Y15669D01*
Y156665D01*
X186475Y15664D01*
X186425D01*
X1864Y156665D01*
X19045Y16203D02*
Y16218D01*
X190525D01*
X19055Y162155D01*
Y162105D01*
X190525Y16208D01*
X19045D01*
X1905D02*
X19055Y16203D01*
X1906Y16218D02*
Y16203D01*
X1907D01*
X19075D02*
X1908D01*
X190775D01*
Y16218D01*
X19075Y162155D01*
X19764Y155615D02*
X197615Y15564D01*
X197565D01*
X19754Y155615D01*
Y155515D01*
X197565Y15549D01*
X197615D01*
X19764Y155515D01*
X197715Y15549D02*
X197765D01*
X19779Y155515D01*
Y155565D01*
X197765Y15559D01*
X197715D01*
X19769Y155565D01*
Y155515D01*
X197715Y15549D01*
X19784D02*
Y15559D01*
X197915D01*
X19794Y155565D01*
Y15549D01*
X19799D02*
X19804D01*
X198015D01*
Y15564D01*
X19799Y155615D01*
X19472Y16508D02*
Y16493D01*
X194795D01*
X19482Y164955D01*
Y165055D01*
X194795Y16508D01*
X19472D01*
X19487Y16493D02*
X19492D01*
X194895D01*
Y16508D01*
X19487Y165055D01*
X19334Y15829D02*
Y15844D01*
X193415D01*
X19344Y158415D01*
Y158365D01*
X193415Y15834D01*
X19334D01*
X19339D02*
X19344Y15829D01*
X19359D02*
X19349D01*
X19359Y15839D01*
Y158415D01*
X193565Y15844D01*
X193515D01*
X19349Y158415D01*
X19308Y15548D02*
Y155355D01*
X193105Y15533D01*
X193155D01*
X19318Y155355D01*
Y15548D01*
X19333Y15533D02*
X19323D01*
X19333Y15543D01*
Y155455D01*
X193305Y15548D01*
X193255D01*
X19323Y155455D01*
X18764Y16678D02*
X18759D01*
X187615D01*
Y166655D01*
X18759Y16663D01*
X187565D01*
X18754Y166655D01*
X18769Y166755D02*
X187715Y16678D01*
X187765D01*
X18779Y166755D01*
Y16673D01*
X187765Y166705D01*
X18774D01*
X187765D01*
X18779Y16668D01*
Y166655D01*
X187765Y16663D01*
X187715D01*
X18769Y166655D01*
X19418Y17498D02*
X19428D01*
X19423D01*
Y17483D01*
X19443Y17498D02*
X19438Y174955D01*
X19433Y174905D01*
Y174855D01*
X194355Y17483D01*
X194405D01*
X19443Y174855D01*
Y17488D01*
X194405Y174905D01*
X19433D01*
X18706Y17538D02*
Y17553D01*
X187135D01*
X18716Y175505D01*
Y175455D01*
X187135Y17543D01*
X18706D01*
X18711D02*
X18716Y17538D01*
X18721D02*
X18726D01*
X187235D01*
Y17553D01*
X18721Y175505D01*
X187335Y17553D02*
X187435D01*
Y175505D01*
X187335Y175405D01*
Y17538D01*
X18606Y17653D02*
Y17668D01*
X186135D01*
X18616Y176655D01*
Y176605D01*
X186135Y17658D01*
X18606D01*
X18611D02*
X18616Y17653D01*
X18621D02*
X18626D01*
X186235D01*
Y17668D01*
X18621Y176655D01*
X186335D02*
X18636Y17668D01*
X18641D01*
X186435Y176655D01*
Y17663D01*
X18641Y176605D01*
X186435Y17658D01*
Y176555D01*
X18641Y17653D01*
X18636D01*
X186335Y176555D01*
Y17658D01*
X18636Y176605D01*
X186335Y17663D01*
Y176655D01*
X18636Y176605D02*
X18641D01*
X18706Y17408D02*
Y17423D01*
X187135D01*
X18716Y174205D01*
Y174155D01*
X187135Y17413D01*
X18706D01*
X18711D02*
X18716Y17408D01*
X18721D02*
X18726D01*
X187235D01*
Y17423D01*
X18721Y174205D01*
X187335Y174105D02*
X18736Y17408D01*
X18741D01*
X187435Y174105D01*
Y174205D01*
X18741Y17423D01*
X18736D01*
X187335Y174205D01*
Y17418D01*
X18736Y174155D01*
X187435D01*
X1856Y17053D02*
Y17068D01*
X185675D01*
X1857Y170655D01*
Y170605D01*
X185675Y17058D01*
X1856D01*
X18565D02*
X1857Y17053D01*
X18585D02*
X18575D01*
X18585Y17063D01*
Y170655D01*
X185825Y17068D01*
X185775D01*
X18575Y170655D01*
X1859D02*
X185925Y17068D01*
X185975D01*
X186Y170655D01*
Y170555D01*
X185975Y17053D01*
X185925D01*
X1859Y170555D01*
Y170655D01*
X18578Y17538D02*
Y17553D01*
X185855D01*
X18588Y175505D01*
Y175455D01*
X185855Y17543D01*
X18578D01*
X18583D02*
X18588Y17538D01*
X18603D02*
X18593D01*
X18603Y17548D01*
Y175505D01*
X186005Y17553D01*
X185955D01*
X18593Y175505D01*
X18608Y17538D02*
X18613D01*
X186105D01*
Y17553D01*
X18608Y175505D01*
X1967Y17473D02*
Y17488D01*
X196775D01*
X1968Y174855D01*
Y174805D01*
X196775Y17478D01*
X1967D01*
X19675D02*
X1968Y17473D01*
X19695D02*
X19685D01*
X19695Y17483D01*
Y174855D01*
X196925Y17488D01*
X196875D01*
X19685Y174855D01*
X1971Y17473D02*
X197D01*
X1971Y17483D01*
Y174855D01*
X197075Y17488D01*
X197025D01*
X197Y174855D01*
X19825Y17603D02*
Y17618D01*
X198325D01*
X19835Y176155D01*
Y176105D01*
X198325Y17608D01*
X19825D01*
X1983D02*
X19835Y17603D01*
X1985D02*
X1984D01*
X1985Y17613D01*
Y176155D01*
X198475Y17618D01*
X198425D01*
X1984Y176155D01*
X19855D02*
X198575Y17618D01*
X198625D01*
X19865Y176155D01*
Y17613D01*
X198625Y176105D01*
X1986D01*
X198625D01*
X19865Y17608D01*
Y176055D01*
X198625Y17603D01*
X198575D01*
X19855Y176055D01*
X197Y17608D02*
Y17623D01*
X197075D01*
X1971Y176205D01*
Y176155D01*
X197075Y17613D01*
X197D01*
X19705D02*
X1971Y17608D01*
X19725D02*
X19715D01*
X19725Y17618D01*
Y176205D01*
X197225Y17623D01*
X197175D01*
X19715Y176205D01*
X197375Y17608D02*
Y17623D01*
X1973Y176155D01*
X1974D01*
X18715Y17033D02*
Y17048D01*
X187225D01*
X18725Y170455D01*
Y170405D01*
X187225Y17038D01*
X18715D01*
X1872D02*
X18725Y17033D01*
X1874D02*
X1873D01*
X1874Y17043D01*
Y170455D01*
X187375Y17048D01*
X187325D01*
X1873Y170455D01*
X18755Y17048D02*
X18745D01*
Y170405D01*
X1875Y17043D01*
X187525D01*
X18755Y170405D01*
Y170355D01*
X187525Y17033D01*
X187475D01*
X18745Y170355D01*
X19625Y17683D02*
Y17698D01*
X196325D01*
X19635Y176955D01*
Y176905D01*
X196325Y17688D01*
X19625D01*
X1963D02*
X19635Y17683D01*
X1965D02*
X1964D01*
X1965Y17693D01*
Y176955D01*
X196475Y17698D01*
X196425D01*
X1964Y176955D01*
X19665Y17698D02*
X1966Y176955D01*
X19655Y176905D01*
Y176855D01*
X196575Y17683D01*
X196625D01*
X19665Y176855D01*
Y17688D01*
X196625Y176905D01*
X19655D01*
X18978Y17498D02*
X18988D01*
X18983D01*
Y17483D01*
X19003D02*
X18993D01*
X19003Y17493D01*
Y174955D01*
X190005Y17498D01*
X189955D01*
X18993Y174955D01*
X18753Y17688D02*
X18763D01*
X18758D01*
Y17673D01*
X18768Y176855D02*
X187705Y17688D01*
X187755D01*
X18778Y176855D01*
Y17683D01*
X187755Y176805D01*
X18773D01*
X187755D01*
X18778Y17678D01*
Y176755D01*
X187755Y17673D01*
X187705D01*
X18768Y176755D01*
X18563Y17193D02*
X18573D01*
X18568D01*
Y17178D01*
X185855D02*
Y17193D01*
X18578Y171855D01*
X18588D01*
X18587Y17436D02*
X18597D01*
X18592D01*
Y17421D01*
X18612Y17436D02*
X18602D01*
Y174285D01*
X18607Y17431D01*
X186095D01*
X18612Y174285D01*
Y174235D01*
X186095Y17421D01*
X186045D01*
X18602Y174235D01*
X19798Y17453D02*
X19808D01*
X19803D01*
Y17438D01*
X19813Y17453D02*
X19823D01*
Y174505D01*
X19813Y174405D01*
Y17438D01*
X18718Y17178D02*
X18728D01*
X18723D01*
Y17163D01*
X18733Y171755D02*
X187355Y17178D01*
X187405D01*
X18743Y171755D01*
Y17173D01*
X187405Y171705D01*
X18743Y17168D01*
Y171655D01*
X187405Y17163D01*
X187355D01*
X18733Y171655D01*
Y17168D01*
X187355Y171705D01*
X18733Y17173D01*
Y171755D01*
X187355Y171705D02*
X187405D01*
X19503Y17698D02*
X19513D01*
X19508D01*
Y17683D01*
X19518Y176855D02*
X195205Y17683D01*
X195255D01*
X19528Y176855D01*
Y176955D01*
X195255Y17698D01*
X195205D01*
X19518Y176955D01*
Y17693D01*
X195205Y176905D01*
X19528D01*
D52*
X198732Y134771D02*
X198763Y134788D01*
X198811Y134775D01*
X198829Y134745D01*
X198822Y134721D01*
X198792Y134703D01*
X198768Y134709D01*
X198792Y134703D01*
X19881Y134672D01*
X198803Y134648D01*
X198772Y134631D01*
X198724Y134644D01*
X198706Y134674D01*
X197Y13515D02*
X197064Y135133D01*
X197032Y135141D01*
X197084Y135335D01*
X197043Y135311D01*
X202278Y135173D02*
X202299Y135202D01*
X202348Y135211D01*
X202377Y13519D01*
X202381Y135166D01*
X202361Y135137D01*
X202336Y135133D01*
X202361Y135137D01*
X20239Y135117D01*
X202394Y135092D01*
X202374Y135063D01*
X202325Y135054D01*
X202296Y135075D01*
X2006Y13465D02*
X200649Y134659D01*
X200625Y134654D01*
X200599Y134802D01*
X200578Y134773D01*
D53*
X198007Y135367D02*
D03*
D54*
X198028Y135443D02*
D03*
D55*
X201358Y135376D02*
D03*
D56*
X201345Y135453D02*
D03*
M02*
