%FSTAX24Y24*%
%MOIN*%
G70*
G01*
G75*
G04 Layer_Color=8421504*
%ADD10O,0.0394X0.0984*%
%ADD11R,0.0394X0.0984*%
%ADD12R,0.0394X0.0512*%
%ADD13R,0.0709X0.0709*%
%ADD14R,0.0472X0.0512*%
%ADD15R,0.1004X0.0374*%
%ADD16R,0.1004X0.1299*%
%ADD17R,0.0512X0.0394*%
%ADD18R,0.0630X0.0630*%
%ADD19R,0.0374X0.0315*%
%ADD20R,0.0984X0.0512*%
%ADD21O,0.0906X0.0236*%
%ADD22R,0.0709X0.0709*%
%ADD23R,0.0256X0.0472*%
%ADD24R,0.1575X0.0866*%
%ADD25R,0.0512X0.0236*%
%ADD26O,0.0512X0.0236*%
%ADD27R,0.0315X0.0374*%
%ADD28R,0.0472X0.0256*%
%ADD29C,0.0100*%
%ADD30C,0.0300*%
%ADD31C,0.0250*%
%ADD32C,0.0600*%
%ADD33C,0.0200*%
%ADD34C,0.0080*%
%ADD35C,0.0060*%
%ADD36C,0.2756*%
%ADD37C,0.0709*%
%ADD38C,0.0984*%
%ADD39R,0.0984X0.0984*%
G04:AMPARAMS|DCode=40|XSize=37.4mil|YSize=57.1mil|CornerRadius=0mil|HoleSize=0mil|Usage=FLASHONLY|Rotation=345.000|XOffset=0mil|YOffset=0mil|HoleType=Round|Shape=Round|*
%AMOVALD40*
21,1,0.0197,0.0374,0.0000,0.0000,75.0*
1,1,0.0374,-0.0025,-0.0095*
1,1,0.0374,0.0025,0.0095*
%
%ADD40OVALD40*%

G04:AMPARAMS|DCode=41|XSize=37.4mil|YSize=57.1mil|CornerRadius=0mil|HoleSize=0mil|Usage=FLASHONLY|Rotation=10.000|XOffset=0mil|YOffset=0mil|HoleType=Round|Shape=Round|*
%AMOVALD41*
21,1,0.0197,0.0374,0.0000,0.0000,100.0*
1,1,0.0374,0.0017,-0.0097*
1,1,0.0374,-0.0017,0.0097*
%
%ADD41OVALD41*%

%ADD42R,0.0591X0.0591*%
%ADD43C,0.0591*%
%ADD44R,0.0591X0.0591*%
%ADD45C,0.1800*%
%ADD46C,0.0320*%
%ADD47C,0.0500*%
%ADD48C,0.0098*%
%ADD49C,0.0079*%
%ADD50C,0.0236*%
%ADD51C,0.0040*%
%ADD52C,0.0030*%
G04:AMPARAMS|DCode=53|XSize=165.4mil|YSize=0mil|CornerRadius=0mil|HoleSize=0mil|Usage=FLASHONLY|Rotation=345.000|XOffset=0mil|YOffset=0mil|HoleType=Round|Shape=Rectangle|*
%AMROTATEDRECTD53*
4,1,4,-0.0799,0.0214,-0.0799,0.0214,0.0799,-0.0214,0.0799,-0.0214,-0.0799,0.0214,0.0*
%
%ADD53ROTATEDRECTD53*%

G04:AMPARAMS|DCode=54|XSize=173.2mil|YSize=15.7mil|CornerRadius=0mil|HoleSize=0mil|Usage=FLASHONLY|Rotation=345.000|XOffset=0mil|YOffset=0mil|HoleType=Round|Shape=Rectangle|*
%AMROTATEDRECTD54*
4,1,4,-0.0857,0.0148,-0.0816,0.0300,0.0857,-0.0148,0.0816,-0.0300,-0.0857,0.0148,0.0*
%
%ADD54ROTATEDRECTD54*%

G04:AMPARAMS|DCode=55|XSize=165.4mil|YSize=0mil|CornerRadius=0mil|HoleSize=0mil|Usage=FLASHONLY|Rotation=10.000|XOffset=0mil|YOffset=0mil|HoleType=Round|Shape=Rectangle|*
%AMROTATEDRECTD55*
4,1,4,-0.0814,-0.0144,-0.0814,-0.0144,0.0814,0.0144,0.0814,0.0144,-0.0814,-0.0144,0.0*
%
%ADD55ROTATEDRECTD55*%

G04:AMPARAMS|DCode=56|XSize=173.2mil|YSize=15.7mil|CornerRadius=0mil|HoleSize=0mil|Usage=FLASHONLY|Rotation=10.000|XOffset=0mil|YOffset=0mil|HoleType=Round|Shape=Rectangle|*
%AMROTATEDRECTD56*
4,1,4,-0.0839,-0.0228,-0.0867,-0.0073,0.0839,0.0228,0.0867,0.0073,-0.0839,-0.0228,0.0*
%
%ADD56ROTATEDRECTD56*%

D10*
X193702Y153491D02*
D03*
X192718D02*
D03*
X192698Y157309D02*
D03*
D11*
X193702Y157309D02*
D03*
D12*
X193069Y158366D02*
D03*
X193857D02*
D03*
X196394Y151D02*
D03*
X195606D02*
D03*
X187706Y1427D02*
D03*
X188494D02*
D03*
X189594Y1719D02*
D03*
X188806D02*
D03*
X187106Y1506D02*
D03*
X187894D02*
D03*
X187106Y1516D02*
D03*
X187894D02*
D03*
Y1526D02*
D03*
X187106D02*
D03*
X197594Y1651D02*
D03*
X196806D02*
D03*
X189434Y14006D02*
D03*
X188646D02*
D03*
X192872Y152067D02*
D03*
X19366D02*
D03*
D13*
X19399Y165D02*
D03*
X195644D02*
D03*
D14*
X188527Y1436D02*
D03*
X187661D02*
D03*
X188773Y1728D02*
D03*
X189639D02*
D03*
D15*
X193171Y170994D02*
D03*
Y1719D02*
D03*
Y172806D02*
D03*
D16*
X190829Y1719D02*
D03*
D17*
X1991Y136606D02*
D03*
Y137394D02*
D03*
X2014Y136606D02*
D03*
Y137394D02*
D03*
X1981D02*
D03*
Y136606D02*
D03*
X2004Y137394D02*
D03*
Y136606D02*
D03*
X1922Y150394D02*
D03*
Y149606D02*
D03*
X19159Y152766D02*
D03*
Y153554D02*
D03*
X19585Y142156D02*
D03*
Y142944D02*
D03*
X19685Y142156D02*
D03*
Y142944D02*
D03*
X19785Y142156D02*
D03*
Y142944D02*
D03*
X19885Y142156D02*
D03*
Y142944D02*
D03*
D18*
X1972Y171869D02*
D03*
Y170531D02*
D03*
X1985Y170531D02*
D03*
Y171869D02*
D03*
D19*
X1942Y171754D02*
D03*
Y171046D02*
D03*
Y173254D02*
D03*
Y172546D02*
D03*
X19645Y176546D02*
D03*
Y177254D02*
D03*
X1972Y176504D02*
D03*
Y175796D02*
D03*
X1969Y174446D02*
D03*
Y175154D02*
D03*
X18725Y173796D02*
D03*
Y174504D02*
D03*
X18625Y176246D02*
D03*
Y176954D02*
D03*
X18725Y175804D02*
D03*
Y175096D02*
D03*
D20*
X19445Y149462D02*
D03*
Y148675D02*
D03*
Y147887D02*
D03*
Y1471D02*
D03*
Y146313D02*
D03*
Y145525D02*
D03*
Y144738D02*
D03*
X20075Y149462D02*
D03*
Y148675D02*
D03*
Y147887D02*
D03*
Y1471D02*
D03*
Y146313D02*
D03*
Y145525D02*
D03*
Y144738D02*
D03*
D21*
X190891Y14485D02*
D03*
Y14535D02*
D03*
Y14585D02*
D03*
Y14635D02*
D03*
Y14685D02*
D03*
Y14735D02*
D03*
Y14785D02*
D03*
Y14835D02*
D03*
Y14885D02*
D03*
Y14935D02*
D03*
X187309Y14485D02*
D03*
Y14535D02*
D03*
Y14585D02*
D03*
Y14635D02*
D03*
Y14685D02*
D03*
Y14735D02*
D03*
Y14785D02*
D03*
Y14835D02*
D03*
Y14885D02*
D03*
Y14935D02*
D03*
D22*
X1972Y160546D02*
D03*
Y1622D02*
D03*
D23*
Y163178D02*
D03*
X197574Y164222D02*
D03*
X196826D02*
D03*
X187674Y171178D02*
D03*
X186926D02*
D03*
X1873Y172222D02*
D03*
X186124Y171328D02*
D03*
X185376D02*
D03*
X18575Y172372D02*
D03*
X185624Y174806D02*
D03*
X186372D02*
D03*
X185998Y173761D02*
D03*
D24*
X1943Y1754D02*
D03*
Y1744D02*
D03*
X1899D02*
D03*
Y1754D02*
D03*
D25*
X195484Y17415D02*
D03*
X188716Y17565D02*
D03*
D26*
X195484Y17465D02*
D03*
Y17515D02*
D03*
Y17565D02*
D03*
X193116Y17415D02*
D03*
Y17465D02*
D03*
Y17515D02*
D03*
Y17565D02*
D03*
X188716Y17515D02*
D03*
Y17465D02*
D03*
Y17415D02*
D03*
X191084Y17565D02*
D03*
Y17515D02*
D03*
Y17465D02*
D03*
Y17415D02*
D03*
D27*
X186996Y1704D02*
D03*
X187704D02*
D03*
X198096Y1761D02*
D03*
X198804D02*
D03*
X185446Y1706D02*
D03*
X186154D02*
D03*
X186304Y17545D02*
D03*
X185596D02*
D03*
D28*
X195672Y177274D02*
D03*
Y176526D02*
D03*
X194628Y1769D02*
D03*
X198622Y174824D02*
D03*
Y174076D02*
D03*
X197578Y17445D02*
D03*
X188172Y177174D02*
D03*
Y176426D02*
D03*
X187128Y1768D02*
D03*
M02*
