M48
;Layer_Color=9474304
;FILE_FORMAT=2:4
INCH,LZ
;TYPE=PLATED
T1F00S00C0.0280
T2F00S00C0.0354
T3F00S00C0.0433
T4F00S00C0.0472
T5F00S00C0.0512
T6F00S00C0.0669
T7F00S00C0.1180
T8F00S00C0.1378
%
T01
X04325Y01235
X04715Y01185
X04915Y01215
X04625Y01775
T02
X026969Y020965
Y022343
X030512
Y020965
T03
X033433Y020654
Y022654
X036433
X037433
X039142
Y020654
X037433
X036433
X042142
X043142
Y022654
X042142
T04
X05215Y01115
X051166Y013118
X050181
X053134
X054118
T05
X036614Y016024
Y018024
X026378Y017776
T06
X024878Y014524
X027878Y012524
X035114Y014524
X038114Y012524
Y018024
X035114
X027878Y016024
X024878Y016274
T07
X04565Y01295
Y01545
X04765Y0142
T08
X05315Y021654
X023622
M30
