%FSLAX25Y25*%
%MOIN*%
G70*
G01*
G75*
G04 Layer_Color=8388736*
%ADD10R,0.04724X0.05315*%
%ADD11R,0.08071X0.01575*%
%ADD12R,0.04331X0.02559*%
%ADD13R,0.05315X0.04724*%
%ADD14R,0.04724X0.05512*%
%ADD15R,0.05512X0.04724*%
%ADD16R,0.07284X0.04724*%
%ADD17C,0.01500*%
%ADD18C,0.02500*%
%ADD19C,0.01000*%
%ADD20C,0.06000*%
%ADD21C,0.05906*%
%ADD22R,0.05906X0.05906*%
%ADD23R,0.05906X0.05906*%
%ADD24C,0.09843*%
%ADD25R,0.09843X0.09843*%
G04:AMPARAMS|DCode=26|XSize=78.74mil|YSize=60mil|CornerRadius=0mil|HoleSize=0mil|Usage=FLASHONLY|Rotation=0.000|XOffset=0mil|YOffset=0mil|HoleType=Round|Shape=Octagon|*
%AMOCTAGOND26*
4,1,8,0.03937,-0.01500,0.03937,0.01500,0.02437,0.03000,-0.02437,0.03000,-0.03937,0.01500,-0.03937,-0.01500,-0.02437,-0.03000,0.02437,-0.03000,0.03937,-0.01500,0.0*
%
%ADD26OCTAGOND26*%

%ADD27C,0.05000*%
%ADD28R,0.05512X0.02362*%
%ADD29O,0.02756X0.09843*%
%ADD30C,0.00394*%
%ADD31R,0.05524X0.06115*%
%ADD32R,0.08871X0.02375*%
%ADD33R,0.05131X0.03359*%
%ADD34R,0.06115X0.05524*%
%ADD35R,0.05524X0.06312*%
%ADD36R,0.06312X0.05524*%
%ADD37R,0.08083X0.05524*%
%ADD38C,0.06800*%
%ADD39C,0.06706*%
%ADD40R,0.06706X0.06706*%
%ADD41R,0.06706X0.06706*%
%ADD42C,0.10642*%
%ADD43R,0.10642X0.10642*%
G04:AMPARAMS|DCode=44|XSize=86.74mil|YSize=68mil|CornerRadius=0mil|HoleSize=0mil|Usage=FLASHONLY|Rotation=0.000|XOffset=0mil|YOffset=0mil|HoleType=Round|Shape=Octagon|*
%AMOCTAGOND44*
4,1,8,0.04337,-0.01700,0.04337,0.01700,0.02637,0.03400,-0.02637,0.03400,-0.04337,0.01700,-0.04337,-0.01700,-0.02637,-0.03400,0.02637,-0.03400,0.04337,-0.01700,0.0*
%
%ADD44OCTAGOND44*%

%ADD45C,0.05800*%
D31*
X-119685Y463476D02*
D03*
X-126772D02*
D03*
X-11417Y494579D02*
D03*
X-4331D02*
D03*
X-4331Y485917D02*
D03*
X-11417D02*
D03*
D32*
X-79134Y459835D02*
D03*
Y462394D02*
D03*
Y464953D02*
D03*
Y467512D02*
D03*
Y470071D02*
D03*
Y472630D02*
D03*
Y475189D02*
D03*
Y477748D02*
D03*
Y480307D02*
D03*
Y482866D02*
D03*
Y485425D02*
D03*
Y487984D02*
D03*
Y490543D02*
D03*
Y493102D02*
D03*
X-105905Y459835D02*
D03*
Y462394D02*
D03*
Y464953D02*
D03*
Y467512D02*
D03*
Y470071D02*
D03*
Y472630D02*
D03*
Y475189D02*
D03*
Y477748D02*
D03*
Y480307D02*
D03*
Y482866D02*
D03*
Y485425D02*
D03*
Y487984D02*
D03*
Y490543D02*
D03*
Y493102D02*
D03*
D33*
X-153150Y460445D02*
D03*
Y452965D02*
D03*
X-162598D02*
D03*
Y456705D02*
D03*
Y460445D02*
D03*
D34*
X-181102Y433949D02*
D03*
Y441035D02*
D03*
X-259842Y433949D02*
D03*
Y441035D02*
D03*
X-220472Y433949D02*
D03*
Y441035D02*
D03*
X-299213Y433949D02*
D03*
Y441035D02*
D03*
D35*
X-102362Y451272D02*
D03*
X-95276D02*
D03*
X-126772Y482768D02*
D03*
X-119685D02*
D03*
X-11417Y477256D02*
D03*
X-4331D02*
D03*
X-162284Y445169D02*
D03*
X-155197D02*
D03*
D36*
X-143465Y449342D02*
D03*
Y442256D02*
D03*
X-144685Y467335D02*
D03*
Y460248D02*
D03*
D37*
X-181102Y463413D02*
D03*
Y450815D02*
D03*
X-299213Y463413D02*
D03*
Y450815D02*
D03*
X-220472Y463413D02*
D03*
Y450815D02*
D03*
X-259842Y463413D02*
D03*
Y450815D02*
D03*
D38*
X-173228Y484736D02*
D03*
X0Y429618D02*
D03*
X-322008Y446232D02*
D03*
X34291D02*
D03*
D39*
X-131024Y450091D02*
D03*
X-121024D02*
D03*
X-141732Y479106D02*
D03*
X-150354Y422138D02*
D03*
X-170354D02*
D03*
X-180354D02*
D03*
X-146614Y493004D02*
D03*
X-136614D02*
D03*
X-126614D02*
D03*
X7480Y483713D02*
D03*
Y473713D02*
D03*
Y463713D02*
D03*
Y453713D02*
D03*
Y443713D02*
D03*
D40*
X-111024Y450091D02*
D03*
X-151732Y479106D02*
D03*
X-156614Y493004D02*
D03*
D41*
X7480Y493713D02*
D03*
D42*
X-35433Y435130D02*
D03*
X-62992D02*
D03*
X-90551D02*
D03*
X-104331D02*
D03*
X-49213D02*
D03*
X-118110D02*
D03*
X-76772D02*
D03*
X-131890D02*
D03*
D43*
X-21654D02*
D03*
D44*
X-299213Y457114D02*
D03*
X-259842D02*
D03*
X-220472D02*
D03*
X-181102D02*
D03*
D45*
X-70346Y481500D02*
D03*
X-91847Y471500D02*
D03*
Y479000D02*
D03*
X-70846Y494437D02*
D03*
X-19346Y473500D02*
D03*
X-90847Y462000D02*
D03*
X-89677Y485500D02*
D03*
X-135346Y464500D02*
D03*
X-117638Y492531D02*
D03*
X-1347Y470500D02*
D03*
X-9681Y459835D02*
D03*
X-28346Y473500D02*
D03*
X-36347D02*
D03*
X-166347Y467500D02*
D03*
X-94685Y495760D02*
D03*
X-113898Y487453D02*
D03*
X-66339Y488083D02*
D03*
X-65787Y444461D02*
D03*
X-157559Y438216D02*
D03*
X-192253Y431184D02*
D03*
X-250512Y490878D02*
D03*
X-287283Y471823D02*
D03*
X-192953Y467374D02*
D03*
X-84409Y497492D02*
D03*
M02*
