%FSLAX25Y25*%
%MOIN*%
G70*
G01*
G75*
G04 Layer_Physical_Order=2*
G04 Layer_Color=16711680*
%ADD10R,0.04724X0.05315*%
%ADD11R,0.08071X0.01575*%
%ADD12R,0.04331X0.02559*%
%ADD13R,0.05315X0.04724*%
%ADD14R,0.04724X0.05512*%
%ADD15R,0.05512X0.04724*%
%ADD16R,0.07284X0.04724*%
%ADD17C,0.01500*%
%ADD18C,0.02500*%
%ADD19C,0.01000*%
%ADD20C,0.06000*%
%ADD21C,0.05906*%
%ADD22R,0.05906X0.05906*%
%ADD23R,0.05906X0.05906*%
%ADD24C,0.09843*%
%ADD25R,0.09843X0.09843*%
G04:AMPARAMS|DCode=26|XSize=78.74mil|YSize=60mil|CornerRadius=0mil|HoleSize=0mil|Usage=FLASHONLY|Rotation=0.000|XOffset=0mil|YOffset=0mil|HoleType=Round|Shape=Octagon|*
%AMOCTAGOND26*
4,1,8,0.03937,-0.01500,0.03937,0.01500,0.02437,0.03000,-0.02437,0.03000,-0.03937,0.01500,-0.03937,-0.01500,-0.02437,-0.03000,0.02437,-0.03000,0.03937,-0.01500,0.0*
%
%ADD26OCTAGOND26*%

%ADD27C,0.05000*%
%ADD28R,0.05512X0.02362*%
%ADD29O,0.02756X0.09843*%
%ADD30C,0.00394*%
G36*
X-67064Y431059D02*
X-65871Y430143D01*
X-64482Y429568D01*
X-62992Y429372D01*
X-61502Y429568D01*
X-60113Y430143D01*
X-58921Y431059D01*
X-58900Y431085D01*
X-58402Y431117D01*
X-56577Y429293D01*
X-56768Y428831D01*
X-62992D01*
Y424894D01*
X-55905D01*
Y424894D01*
X-55865D01*
X-55512Y424540D01*
Y421350D01*
X-55905D01*
Y421350D01*
X-61980D01*
X-65057Y424427D01*
X-65566Y424767D01*
X-65665Y424787D01*
X-66165Y424886D01*
X-67323D01*
Y425091D01*
X-67323D01*
Y429028D01*
X-68279D01*
Y431865D01*
X-67805Y432025D01*
X-67064Y431059D01*
D02*
G37*
G36*
X-53748Y460104D02*
X-53630Y459509D01*
X-53104Y458723D01*
X-52957Y458624D01*
Y455815D01*
X-54150D01*
Y452559D01*
X-50787D01*
Y452059D01*
X-50287D01*
Y448303D01*
X-47957D01*
Y441102D01*
X-48333Y440772D01*
X-49213Y440888D01*
X-50703Y440692D01*
X-52092Y440116D01*
X-53284Y439201D01*
X-54199Y438009D01*
X-54774Y436620D01*
X-54971Y435130D01*
X-54834Y434095D01*
X-55283Y433874D01*
X-57340Y435931D01*
X-57430Y436620D01*
X-58006Y438009D01*
X-58921Y439201D01*
X-60113Y440116D01*
X-61502Y440692D01*
X-62992Y440888D01*
X-64482Y440692D01*
X-65871Y440116D01*
X-67064Y439201D01*
X-67805Y438235D01*
X-68279Y438395D01*
Y441664D01*
X-67830Y441885D01*
X-67445Y441589D01*
X-66645Y441258D01*
X-65787Y441145D01*
X-64929Y441258D01*
X-64129Y441589D01*
X-63443Y442116D01*
X-62916Y442803D01*
X-62585Y443602D01*
X-62471Y444461D01*
X-62585Y445319D01*
X-62916Y446118D01*
X-63443Y446805D01*
X-64129Y447332D01*
X-64220Y447370D01*
Y450234D01*
X-63906Y450492D01*
X-61024D01*
Y448516D01*
X-54724D01*
Y455602D01*
X-54822D01*
Y458885D01*
X-54350Y459592D01*
X-54248Y460104D01*
X-53748D01*
D02*
G37*
G36*
X-87061Y500447D02*
X-86906Y499988D01*
X-87467Y499257D01*
X-87819Y498406D01*
X-87874Y497992D01*
X-84409D01*
Y497492D01*
X-83909D01*
Y494028D01*
X-83496Y494082D01*
X-82644Y494435D01*
X-82259Y494731D01*
X-81834Y494467D01*
X-81883Y494224D01*
Y479557D01*
X-82380Y479508D01*
X-82398Y479600D01*
X-82738Y480108D01*
X-86708Y484078D01*
X-86474Y484642D01*
X-86361Y485500D01*
X-86474Y486358D01*
X-86806Y487158D01*
X-87333Y487845D01*
X-88019Y488372D01*
X-88819Y488703D01*
X-89677Y488816D01*
X-90535Y488703D01*
X-91335Y488372D01*
X-92022Y487845D01*
X-92549Y487158D01*
X-92880Y486358D01*
X-92993Y485500D01*
X-92880Y484642D01*
X-92549Y483842D01*
X-92022Y483155D01*
X-91504Y482758D01*
X-91695Y482296D01*
X-91847Y482316D01*
X-92705Y482203D01*
X-93504Y481872D01*
X-94191Y481345D01*
X-94718Y480658D01*
X-94755Y480568D01*
X-138289D01*
X-138465Y480993D01*
X-139065Y481774D01*
X-139846Y482373D01*
X-140392Y482600D01*
X-140295Y483090D01*
X-118543D01*
X-118043Y483189D01*
X-117943Y483209D01*
X-117435Y483549D01*
X-116035Y484949D01*
X-115556Y484581D01*
X-114756Y484250D01*
X-113898Y484137D01*
X-113040Y484250D01*
X-112240Y484581D01*
X-111553Y485108D01*
X-111026Y485795D01*
X-110695Y486595D01*
X-110582Y487453D01*
X-110695Y488311D01*
X-111026Y489111D01*
X-111553Y489797D01*
X-112240Y490324D01*
X-113040Y490656D01*
X-113898Y490768D01*
X-114367Y490707D01*
X-114671Y491103D01*
X-114435Y491673D01*
X-114322Y492531D01*
X-114435Y493390D01*
X-114766Y494189D01*
X-115293Y494876D01*
X-115980Y495403D01*
X-116780Y495734D01*
X-117638Y495847D01*
X-118496Y495734D01*
X-119296Y495403D01*
X-119982Y494876D01*
X-120509Y494189D01*
X-120841Y493390D01*
X-120954Y492531D01*
X-120841Y491673D01*
X-120509Y490874D01*
X-120370Y490693D01*
X-121689Y489375D01*
X-124073D01*
X-124234Y489848D01*
X-123795Y490185D01*
X-123161Y491011D01*
X-122763Y491972D01*
X-122693Y492504D01*
X-126614D01*
Y493504D01*
X-122693D01*
X-122763Y494036D01*
X-123161Y494997D01*
X-123795Y495823D01*
X-124439Y496317D01*
X-124278Y496791D01*
X-98248D01*
X-97910Y496453D01*
X-98001Y495760D01*
X-97888Y494902D01*
X-97557Y494102D01*
X-97030Y493415D01*
X-96343Y492888D01*
X-95543Y492557D01*
X-94685Y492444D01*
X-93827Y492557D01*
X-93027Y492888D01*
X-92340Y493415D01*
X-91813Y494102D01*
X-91482Y494902D01*
X-91369Y495760D01*
X-91482Y496618D01*
X-91813Y497418D01*
X-92340Y498104D01*
X-93027Y498631D01*
X-93827Y498963D01*
X-94685Y499076D01*
X-95543Y498963D01*
X-95856Y498833D01*
X-96490Y499467D01*
X-96999Y499806D01*
X-97098Y499826D01*
X-97598Y499926D01*
X-243543D01*
X-244143Y499806D01*
X-244652Y499467D01*
X-249993Y494125D01*
X-250512Y494194D01*
X-251370Y494081D01*
X-252170Y493750D01*
X-252856Y493223D01*
X-253383Y492536D01*
X-253715Y491736D01*
X-253828Y490878D01*
X-253715Y490020D01*
X-253383Y489220D01*
X-252856Y488533D01*
X-252170Y488006D01*
X-251370Y487675D01*
X-250512Y487562D01*
X-249654Y487675D01*
X-248854Y488006D01*
X-248167Y488533D01*
X-247640Y489220D01*
X-247309Y490020D01*
X-247196Y490878D01*
X-247309Y491736D01*
X-247496Y492188D01*
X-242894Y496791D01*
X-160354D01*
Y496744D01*
X-160354D01*
Y489264D01*
X-155091D01*
X-152526Y486699D01*
X-152842Y486225D01*
X-154449D01*
X-155049Y486106D01*
X-155557Y485766D01*
X-165728Y475595D01*
X-169787D01*
X-169860Y476090D01*
X-169671Y476147D01*
X-168063Y477006D01*
X-166655Y478162D01*
X-165498Y479571D01*
X-164639Y481179D01*
X-164110Y482923D01*
X-163932Y484736D01*
X-164110Y486550D01*
X-164639Y488294D01*
X-165498Y489901D01*
X-166655Y491310D01*
X-168063Y492466D01*
X-169671Y493325D01*
X-171415Y493854D01*
X-173228Y494033D01*
X-175042Y493854D01*
X-176786Y493325D01*
X-178393Y492466D01*
X-179802Y491310D01*
X-180958Y489901D01*
X-181817Y488294D01*
X-182346Y486550D01*
X-182525Y484736D01*
X-182346Y482923D01*
X-181817Y481179D01*
X-180958Y479571D01*
X-179802Y478162D01*
X-178393Y477006D01*
X-176786Y476147D01*
X-176596Y476090D01*
X-176670Y475595D01*
X-285000D01*
X-285600Y475476D01*
X-285769Y475363D01*
X-286108Y475136D01*
X-286279Y474965D01*
X-286425Y475026D01*
X-287283Y475139D01*
X-288142Y475026D01*
X-288941Y474694D01*
X-289628Y474167D01*
X-290155Y473481D01*
X-290486Y472681D01*
X-290599Y471823D01*
X-290486Y470965D01*
X-290155Y470165D01*
X-289628Y469478D01*
X-288941Y468951D01*
X-288142Y468620D01*
X-287283Y468507D01*
X-286425Y468620D01*
X-285626Y468951D01*
X-284939Y469478D01*
X-284412Y470165D01*
X-284081Y470965D01*
X-283968Y471823D01*
X-284002Y472084D01*
X-283672Y472460D01*
X-165079D01*
X-164578Y472560D01*
X-164479Y472579D01*
X-163970Y472919D01*
X-155934Y480955D01*
X-155472Y480764D01*
Y475366D01*
X-150209D01*
X-145234Y470392D01*
X-144726Y470052D01*
X-144626Y470032D01*
X-144126Y469933D01*
X-94755D01*
X-94718Y469842D01*
X-94191Y469155D01*
X-93504Y468629D01*
X-92705Y468297D01*
X-91847Y468184D01*
X-90988Y468297D01*
X-90189Y468629D01*
X-89502Y469155D01*
X-88975Y469842D01*
X-88644Y470642D01*
X-88531Y471500D01*
X-88644Y472358D01*
X-88975Y473158D01*
X-89502Y473845D01*
X-90189Y474371D01*
X-90988Y474703D01*
X-91847Y474816D01*
X-92705Y474703D01*
X-93504Y474371D01*
X-94191Y473845D01*
X-94718Y473158D01*
X-94755Y473068D01*
X-143477D01*
X-147992Y477583D01*
Y482846D01*
D01*
Y482846D01*
X-147749Y483090D01*
X-143170D01*
X-143072Y482600D01*
X-143619Y482373D01*
X-144400Y481774D01*
X-144999Y480993D01*
X-145376Y480083D01*
X-145505Y479106D01*
X-145376Y478130D01*
X-144999Y477220D01*
X-144400Y476439D01*
X-143619Y475839D01*
X-142709Y475462D01*
X-141732Y475334D01*
X-140756Y475462D01*
X-139846Y475839D01*
X-139065Y476439D01*
X-138465Y477220D01*
X-138377Y477432D01*
X-94755D01*
X-94718Y477342D01*
X-94191Y476655D01*
X-93504Y476128D01*
X-92705Y475797D01*
X-91847Y475684D01*
X-90988Y475797D01*
X-90189Y476128D01*
X-89502Y476655D01*
X-88975Y477342D01*
X-88644Y478142D01*
X-88531Y479000D01*
X-88644Y479858D01*
X-88975Y480658D01*
X-89502Y481345D01*
X-90020Y481742D01*
X-89829Y482204D01*
X-89677Y482184D01*
X-89297Y482234D01*
X-85414Y478351D01*
Y461496D01*
X-85314Y460996D01*
X-85295Y460896D01*
X-84955Y460388D01*
X-81398Y456830D01*
Y452453D01*
X-74508D01*
Y456481D01*
X-74046Y456673D01*
X-67355Y449981D01*
Y447370D01*
X-67445Y447332D01*
X-68132Y446805D01*
X-68659Y446118D01*
X-68806Y445764D01*
X-69296Y445666D01*
X-73254Y449624D01*
X-73762Y449964D01*
X-73862Y449984D01*
X-74362Y450083D01*
X-74508D01*
Y451665D01*
X-81398D01*
Y445366D01*
X-74508D01*
Y445791D01*
X-74046Y445983D01*
X-71414Y443351D01*
Y438303D01*
X-71887Y438142D01*
X-72700Y439201D01*
X-73893Y440116D01*
X-75281Y440692D01*
X-76772Y440888D01*
X-78262Y440692D01*
X-79651Y440116D01*
X-80843Y439201D01*
X-81758Y438009D01*
X-82333Y436620D01*
X-82530Y435130D01*
X-82333Y433640D01*
X-81758Y432251D01*
X-80843Y431059D01*
X-80424Y430737D01*
Y425287D01*
X-81890D01*
Y421350D01*
X-78894D01*
X-78347Y421242D01*
X-77799Y421350D01*
X-74803D01*
D01*
X-74803D01*
X-74622Y421169D01*
Y420079D01*
X-67110D01*
Y421394D01*
X-66648Y421585D01*
X-63337Y418273D01*
X-62992Y418043D01*
Y417413D01*
X-55905D01*
Y421153D01*
X-55512D01*
Y421153D01*
X-52516D01*
X-51968Y421045D01*
X-51421Y421153D01*
X-48425D01*
Y425091D01*
X-49891D01*
Y427622D01*
X-50049Y428417D01*
X-50493Y429081D01*
X-50467Y429124D01*
X-50102Y429489D01*
X-49213Y429372D01*
X-47722Y429568D01*
X-46334Y430143D01*
X-45141Y431059D01*
X-44226Y432251D01*
X-43651Y433640D01*
X-43455Y435130D01*
X-43651Y436620D01*
X-44226Y438009D01*
X-45141Y439201D01*
X-45236Y439274D01*
X-44942Y439715D01*
X-44822Y440315D01*
Y458885D01*
X-44350Y459592D01*
X-44182Y460437D01*
Y467524D01*
X-44350Y468368D01*
X-44829Y469085D01*
X-45545Y469563D01*
X-46390Y469731D01*
X-47235Y469563D01*
X-47951Y469085D01*
X-48430Y468368D01*
X-48531Y467856D01*
X-49031D01*
X-49150Y468451D01*
X-49675Y469238D01*
X-50462Y469764D01*
X-50890Y469849D01*
Y463980D01*
X-51890D01*
Y469849D01*
X-52318Y469764D01*
X-53104Y469238D01*
X-53630Y468451D01*
X-53748Y467856D01*
X-54248D01*
X-54350Y468368D01*
X-54829Y469085D01*
X-55545Y469563D01*
X-56390Y469731D01*
X-57235Y469563D01*
X-57951Y469085D01*
X-58429Y468368D01*
X-58597Y467524D01*
Y460437D01*
X-58429Y459592D01*
X-57957Y458885D01*
Y455602D01*
X-61024D01*
Y453627D01*
X-63256D01*
X-75779Y466149D01*
Y487288D01*
X-71795Y491272D01*
X-71705Y491234D01*
X-70846Y491121D01*
X-69988Y491234D01*
X-69189Y491566D01*
X-68502Y492092D01*
X-68380Y492252D01*
X-67906Y492091D01*
Y490992D01*
X-67997Y490954D01*
X-68683Y490427D01*
X-69210Y489741D01*
X-69541Y488941D01*
X-69654Y488083D01*
X-69541Y487224D01*
X-69210Y486425D01*
X-68683Y485738D01*
X-67997Y485211D01*
X-67597Y485045D01*
X-67694Y484555D01*
X-68579D01*
X-68581Y484557D01*
X-69433Y484910D01*
X-69846Y484964D01*
Y481500D01*
Y478036D01*
X-69433Y478090D01*
X-69110Y477875D01*
Y477831D01*
X-65854D01*
Y481193D01*
X-65354D01*
Y481693D01*
X-61598D01*
Y484555D01*
X-64983D01*
X-65081Y485045D01*
X-64681Y485211D01*
X-63994Y485738D01*
X-63467Y486425D01*
X-63136Y487224D01*
X-63023Y488083D01*
X-63136Y488941D01*
X-63467Y489741D01*
X-63994Y490427D01*
X-64681Y490954D01*
X-64771Y490992D01*
Y496702D01*
X-64890Y497302D01*
X-65003Y497471D01*
X-65230Y497810D01*
X-67401Y499982D01*
X-67210Y500444D01*
X15787Y500430D01*
X15787Y500430D01*
X47244Y457177D01*
Y457059D01*
X47205Y457020D01*
Y437463D01*
X15787Y413900D01*
D01*
X15778Y413909D01*
X14835D01*
Y420117D01*
X2254D01*
X2181Y420611D01*
X3558Y421029D01*
X5165Y421888D01*
X6574Y423044D01*
X7730Y424453D01*
X8589Y426060D01*
X9118Y427804D01*
X9297Y429618D01*
X9118Y431432D01*
X8589Y433176D01*
X7730Y434783D01*
X6574Y436192D01*
X5165Y437348D01*
X3558Y438207D01*
X1814Y438736D01*
X0Y438915D01*
X-1814Y438736D01*
X-3558Y438207D01*
X-5165Y437348D01*
X-6574Y436192D01*
X-7730Y434783D01*
X-8589Y433176D01*
X-9118Y431432D01*
X-9297Y429618D01*
X-9118Y427804D01*
X-8589Y426060D01*
X-7730Y424453D01*
X-6574Y423044D01*
X-5165Y421888D01*
X-3558Y421029D01*
X-2181Y420611D01*
X-2254Y420117D01*
X-12665D01*
Y420117D01*
Y420319D01*
X-12665Y420470D01*
X-12665Y420470D01*
X-12665D01*
Y426617D01*
X-28147D01*
Y420470D01*
X-28147Y420470D01*
X-28147D01*
X-28147Y420319D01*
X-28349Y420117D01*
X-51811D01*
Y413909D01*
X-318937D01*
X-334646Y429618D01*
Y429776D01*
X-334606Y429815D01*
Y484776D01*
X-318898Y500484D01*
X-318858D01*
X-87061Y500447D01*
D02*
G37*
%LPC*%
G36*
X-127103Y449590D02*
X-130524D01*
Y446170D01*
X-129992Y446240D01*
X-129030Y446638D01*
X-128205Y447271D01*
X-127571Y448097D01*
X-127173Y449059D01*
X-127103Y449590D01*
D02*
G37*
G36*
X-131524D02*
X-134945D01*
X-134875Y449059D01*
X-134476Y448097D01*
X-133843Y447271D01*
X-133017Y446638D01*
X-132055Y446240D01*
X-131524Y446170D01*
Y449590D01*
D02*
G37*
G36*
X7480Y447485D02*
X6504Y447357D01*
X5594Y446980D01*
X4813Y446380D01*
X4213Y445599D01*
X3836Y444689D01*
X3708Y443713D01*
X3836Y442736D01*
X4213Y441826D01*
X4813Y441045D01*
X5594Y440446D01*
X6504Y440069D01*
X7480Y439940D01*
X8457Y440069D01*
X9366Y440446D01*
X10148Y441045D01*
X10747Y441826D01*
X11124Y442736D01*
X11253Y443713D01*
X11124Y444689D01*
X10747Y445599D01*
X10148Y446380D01*
X9366Y446980D01*
X8457Y447357D01*
X7480Y447485D01*
D02*
G37*
G36*
X-15732Y441051D02*
X-21154D01*
Y435630D01*
X-15732D01*
Y441051D01*
D02*
G37*
G36*
X-322008Y455529D02*
X-323822Y455350D01*
X-325566Y454821D01*
X-327173Y453962D01*
X-328582Y452806D01*
X-329738Y451397D01*
X-330597Y449790D01*
X-331126Y448046D01*
X-331305Y446232D01*
X-331126Y444419D01*
X-330597Y442675D01*
X-329738Y441067D01*
X-328582Y439658D01*
X-327173Y438502D01*
X-325566Y437643D01*
X-323822Y437114D01*
X-322008Y436936D01*
X-320194Y437114D01*
X-318450Y437643D01*
X-316843Y438502D01*
X-315434Y439658D01*
X-314278Y441067D01*
X-313419Y442675D01*
X-312890Y444419D01*
X-312711Y446232D01*
X-312890Y448046D01*
X-313419Y449790D01*
X-314278Y451397D01*
X-315434Y452806D01*
X-316843Y453962D01*
X-318450Y454821D01*
X-320194Y455350D01*
X-322008Y455529D01*
D02*
G37*
G36*
X34291D02*
X32478Y455350D01*
X30734Y454821D01*
X29126Y453962D01*
X27718Y452806D01*
X26561Y451397D01*
X25702Y449790D01*
X25173Y448046D01*
X24995Y446232D01*
X25173Y444419D01*
X25702Y442675D01*
X26561Y441067D01*
X27718Y439658D01*
X29126Y438502D01*
X30734Y437643D01*
X32478Y437114D01*
X34291Y436936D01*
X36105Y437114D01*
X37849Y437643D01*
X39456Y438502D01*
X40865Y439658D01*
X42021Y441067D01*
X42880Y442675D01*
X43409Y444419D01*
X43588Y446232D01*
X43409Y448046D01*
X42880Y449790D01*
X42021Y451397D01*
X40865Y452806D01*
X39456Y453962D01*
X37849Y454821D01*
X36105Y455350D01*
X34291Y455529D01*
D02*
G37*
G36*
X-130524Y454012D02*
Y450591D01*
X-127103D01*
X-127173Y451122D01*
X-127571Y452084D01*
X-128205Y452910D01*
X-129030Y453543D01*
X-129992Y453942D01*
X-130524Y454012D01*
D02*
G37*
G36*
X-297310Y462499D02*
X-301247Y462451D01*
X-302632Y462251D01*
X-303918Y461700D01*
X-305018Y460834D01*
X-305856Y459714D01*
X-306376Y458414D01*
X-306541Y457025D01*
X-306342Y455640D01*
X-305790Y454353D01*
X-304925Y453253D01*
X-303804Y452415D01*
X-302505Y451895D01*
X-301115Y451730D01*
X-297179Y451778D01*
X-295794Y451977D01*
X-294507Y452529D01*
X-293408Y453394D01*
X-292569Y454515D01*
X-292050Y455814D01*
X-291884Y457204D01*
X-292083Y458589D01*
X-292635Y459875D01*
X-293500Y460975D01*
X-294621Y461813D01*
X-295920Y462333D01*
X-297310Y462499D01*
D02*
G37*
G36*
X-257940D02*
X-261876Y462451D01*
X-263262Y462251D01*
X-264548Y461700D01*
X-265648Y460834D01*
X-266486Y459714D01*
X-267006Y458414D01*
X-267171Y457025D01*
X-266972Y455640D01*
X-266420Y454353D01*
X-265555Y453253D01*
X-264434Y452415D01*
X-263135Y451895D01*
X-261745Y451730D01*
X-257809Y451778D01*
X-256423Y451977D01*
X-255137Y452529D01*
X-254037Y453394D01*
X-253199Y454515D01*
X-252679Y455814D01*
X-252514Y457204D01*
X-252713Y458589D01*
X-253265Y459875D01*
X-254130Y460975D01*
X-255251Y461813D01*
X-256550Y462333D01*
X-257940Y462499D01*
D02*
G37*
G36*
X-121024Y453863D02*
X-122000Y453734D01*
X-122910Y453358D01*
X-123691Y452758D01*
X-124291Y451977D01*
X-124668Y451067D01*
X-124796Y450091D01*
X-124668Y449114D01*
X-124291Y448204D01*
X-123691Y447423D01*
X-122910Y446824D01*
X-122000Y446447D01*
X-121024Y446318D01*
X-120047Y446447D01*
X-119137Y446824D01*
X-118356Y447423D01*
X-117757Y448204D01*
X-117380Y449114D01*
X-117251Y450091D01*
X-117380Y451067D01*
X-117757Y451977D01*
X-118356Y452758D01*
X-119137Y453358D01*
X-120047Y453734D01*
X-121024Y453863D01*
D02*
G37*
G36*
X-51287Y451559D02*
X-54150D01*
Y448303D01*
X-51287D01*
Y451559D01*
D02*
G37*
G36*
X-131524Y454012D02*
X-132055Y453942D01*
X-133017Y453543D01*
X-133843Y452910D01*
X-134476Y452084D01*
X-134875Y451122D01*
X-134945Y450591D01*
X-131524D01*
Y454012D01*
D02*
G37*
G36*
X-22154Y441051D02*
X-27575D01*
Y435630D01*
X-22154D01*
Y441051D01*
D02*
G37*
G36*
X-179854Y426059D02*
Y422638D01*
X-176433D01*
X-176503Y423170D01*
X-176902Y424131D01*
X-177535Y424957D01*
X-178361Y425591D01*
X-179323Y425989D01*
X-179854Y426059D01*
D02*
G37*
G36*
X-104240Y426559D02*
X-107496D01*
Y424878D01*
X-104240D01*
Y426559D01*
D02*
G37*
G36*
X-90551Y440888D02*
X-92041Y440692D01*
X-93430Y440116D01*
X-94623Y439201D01*
X-95538Y438009D01*
X-96113Y436620D01*
X-96309Y435130D01*
X-96113Y433640D01*
X-95538Y432251D01*
X-94667Y431117D01*
X-97729Y428055D01*
X-98179Y427382D01*
X-98337Y426587D01*
Y425287D01*
X-99631D01*
X-99631Y425287D01*
Y425287D01*
X-99803Y425287D01*
Y425287D01*
X-99803D01*
X-99984Y425468D01*
Y426559D01*
X-103240D01*
Y424878D01*
X-100157D01*
X-100157Y424878D01*
Y424878D01*
X-99984Y424878D01*
Y424878D01*
X-99984D01*
X-99803Y424697D01*
Y421547D01*
X-100197D01*
Y421547D01*
X-107283D01*
Y421343D01*
X-110335D01*
Y422925D01*
X-117224D01*
Y416626D01*
X-110335D01*
Y418208D01*
X-107283D01*
Y417610D01*
X-100197D01*
Y421350D01*
X-99803D01*
Y421350D01*
X-96807D01*
X-96260Y421242D01*
X-95713Y421350D01*
X-92716D01*
Y425287D01*
X-93968D01*
X-94159Y425749D01*
X-90535Y429374D01*
X-89061Y429568D01*
X-87672Y430143D01*
X-86480Y431059D01*
X-85565Y432251D01*
X-84990Y433640D01*
X-84793Y435130D01*
X-84990Y436620D01*
X-85565Y438009D01*
X-86480Y439201D01*
X-87672Y440116D01*
X-89061Y440692D01*
X-90551Y440888D01*
D02*
G37*
G36*
X-71366Y419079D02*
X-74622D01*
Y417398D01*
X-71366D01*
Y419079D01*
D02*
G37*
G36*
X-67110D02*
X-70366D01*
Y417398D01*
X-67110D01*
Y419079D01*
D02*
G37*
G36*
X-180854Y426059D02*
X-181386Y425989D01*
X-182348Y425591D01*
X-183174Y424957D01*
X-183807Y424131D01*
X-184205Y423170D01*
X-184275Y422638D01*
X-180854D01*
Y426059D01*
D02*
G37*
G36*
X-22154Y434630D02*
X-27575D01*
Y429209D01*
X-22154D01*
Y434630D01*
D02*
G37*
G36*
X-41390Y469731D02*
X-42235Y469563D01*
X-42951Y469085D01*
X-43429Y468368D01*
X-43597Y467524D01*
Y460437D01*
X-43429Y459592D01*
X-42957Y458885D01*
Y443449D01*
X-42858Y442948D01*
X-42838Y442849D01*
X-42498Y442340D01*
X-39496Y439338D01*
X-39505Y439201D01*
X-40420Y438009D01*
X-40995Y436620D01*
X-41191Y435130D01*
X-40995Y433640D01*
X-40420Y432251D01*
X-39505Y431059D01*
X-38312Y430143D01*
X-36923Y429568D01*
X-35433Y429372D01*
X-33943Y429568D01*
X-32554Y430143D01*
X-31362Y431059D01*
X-30447Y432251D01*
X-29871Y433640D01*
X-29675Y435130D01*
X-29871Y436620D01*
X-30447Y438009D01*
X-31362Y439201D01*
X-32554Y440116D01*
X-33943Y440692D01*
X-35433Y440888D01*
X-36475Y440751D01*
X-39822Y444098D01*
Y458885D01*
X-39350Y459592D01*
X-39182Y460437D01*
Y467524D01*
X-39350Y468368D01*
X-39829Y469085D01*
X-40545Y469563D01*
X-41390Y469731D01*
D02*
G37*
G36*
X-132390Y441031D02*
X-133051Y440966D01*
X-134167Y440627D01*
X-135195Y440077D01*
X-136097Y439337D01*
X-136837Y438436D01*
X-137387Y437407D01*
X-137725Y436291D01*
X-137790Y435630D01*
X-132390D01*
Y441031D01*
D02*
G37*
G36*
X-131390D02*
Y435630D01*
X-125989D01*
X-126054Y436291D01*
X-126393Y437407D01*
X-126943Y438436D01*
X-127682Y439337D01*
X-128584Y440077D01*
X-129613Y440627D01*
X-130729Y440966D01*
X-131390Y441031D01*
D02*
G37*
G36*
X-15732Y434630D02*
X-21154D01*
Y429209D01*
X-15732D01*
Y434630D01*
D02*
G37*
G36*
X-132390D02*
X-137790D01*
X-137725Y433969D01*
X-137387Y432853D01*
X-136837Y431824D01*
X-136097Y430923D01*
X-135195Y430183D01*
X-134167Y429633D01*
X-133051Y429294D01*
X-132390Y429229D01*
Y434630D01*
D02*
G37*
G36*
X-125989D02*
X-131390D01*
Y429229D01*
X-130729Y429294D01*
X-129613Y429633D01*
X-128584Y430183D01*
X-127682Y430923D01*
X-126943Y431824D01*
X-126393Y432853D01*
X-126054Y433969D01*
X-125989Y434630D01*
D02*
G37*
G36*
X-218570Y462499D02*
X-222506Y462451D01*
X-223891Y462251D01*
X-225178Y461700D01*
X-226277Y460834D01*
X-227116Y459714D01*
X-227636Y458414D01*
X-227801Y457025D01*
X-227602Y455640D01*
X-227050Y454353D01*
X-226185Y453253D01*
X-225064Y452415D01*
X-223765Y451895D01*
X-222375Y451730D01*
X-218439Y451778D01*
X-217054Y451977D01*
X-215767Y452529D01*
X-214667Y453394D01*
X-213829Y454515D01*
X-213309Y455814D01*
X-213144Y457204D01*
X-213343Y458589D01*
X-213895Y459875D01*
X-214760Y460975D01*
X-215881Y461813D01*
X-217180Y462333D01*
X-218570Y462499D01*
D02*
G37*
G36*
X-70846Y484964D02*
X-71260Y484910D01*
X-72112Y484557D01*
X-72843Y483996D01*
X-73404Y483265D01*
X-73756Y482414D01*
X-73811Y482000D01*
X-70846D01*
Y484964D01*
D02*
G37*
G36*
X-256693Y498947D02*
X-306940D01*
Y491338D01*
X-300447D01*
Y483739D01*
X-260039D01*
Y491338D01*
X-256693D01*
Y498947D01*
D02*
G37*
G36*
X11220Y497453D02*
X3740D01*
Y495280D01*
X-134D01*
X-734Y495161D01*
X-1242Y494821D01*
X-10790Y485274D01*
X-11129Y484765D01*
X-11149Y484666D01*
X-11249Y484165D01*
Y462744D01*
X-11339Y462706D01*
X-12026Y462179D01*
X-12553Y461492D01*
X-12884Y460693D01*
X-12997Y459835D01*
X-12884Y458977D01*
X-12553Y458177D01*
X-12026Y457490D01*
X-11339Y456963D01*
X-10539Y456632D01*
X-9681Y456519D01*
X-8823Y456632D01*
X-8023Y456963D01*
X-7337Y457490D01*
X-6810Y458177D01*
X-6478Y458977D01*
X-6365Y459835D01*
X-6478Y460693D01*
X-6810Y461492D01*
X-7337Y462179D01*
X-8023Y462706D01*
X-8114Y462744D01*
Y465516D01*
X-7635Y465661D01*
X-7455Y465392D01*
X-5201Y463138D01*
Y456862D01*
X-7496Y454567D01*
X-12197D01*
X-14779Y457149D01*
Y470500D01*
X-14878Y471000D01*
X-14898Y471100D01*
X-15238Y471608D01*
X-16181Y472551D01*
X-16144Y472642D01*
X-16031Y473500D01*
X-16144Y474358D01*
X-16475Y475158D01*
X-17002Y475845D01*
X-17689Y476371D01*
X-18488Y476703D01*
X-19346Y476816D01*
X-20205Y476703D01*
X-21004Y476371D01*
X-21691Y475845D01*
X-22218Y475158D01*
X-22549Y474358D01*
X-22662Y473500D01*
X-22549Y472642D01*
X-22218Y471842D01*
X-21691Y471155D01*
X-21004Y470628D01*
X-20205Y470297D01*
X-19346Y470184D01*
X-18488Y470297D01*
X-18398Y470335D01*
X-17914Y469851D01*
Y456500D01*
X-17814Y456000D01*
X-17795Y455900D01*
X-17455Y455392D01*
X-13955Y451892D01*
X-13446Y451552D01*
X-12846Y451433D01*
X-6847D01*
X-6346Y451532D01*
X-6247Y451552D01*
X-5738Y451892D01*
X-2526Y455104D01*
X-2186Y455613D01*
X-2166Y455712D01*
X-2066Y456213D01*
Y463787D01*
X-2186Y464387D01*
X-2526Y464896D01*
X-4779Y467149D01*
Y468915D01*
X-4289Y469012D01*
X-4218Y468842D01*
X-3691Y468155D01*
X-3004Y467628D01*
X-2205Y467297D01*
X-1347Y467184D01*
X-1290Y467192D01*
X-914Y466862D01*
Y460539D01*
X-814Y460039D01*
X-795Y459939D01*
X-455Y459431D01*
X3968Y455008D01*
X3836Y454689D01*
X3708Y453713D01*
X3836Y452736D01*
X4213Y451826D01*
X4813Y451045D01*
X5594Y450446D01*
X6504Y450069D01*
X7480Y449940D01*
X8457Y450069D01*
X9366Y450446D01*
X10148Y451045D01*
X10747Y451826D01*
X11124Y452736D01*
X11253Y453713D01*
X11124Y454689D01*
X10747Y455599D01*
X10148Y456380D01*
X9366Y456980D01*
X8457Y457357D01*
X7480Y457485D01*
X6504Y457357D01*
X6185Y457225D01*
X2221Y461189D01*
Y468500D01*
X2102Y469100D01*
X1812Y469534D01*
X1856Y469642D01*
X1969Y470500D01*
X1856Y471358D01*
X1525Y472158D01*
X998Y472845D01*
X311Y473372D01*
X-488Y473703D01*
X-1347Y473816D01*
X-2205Y473703D01*
X-3004Y473372D01*
X-3691Y472845D01*
X-4218Y472158D01*
X-4289Y471988D01*
X-4779Y472085D01*
Y476351D01*
X1015Y482145D01*
X4081D01*
X4213Y481826D01*
X4813Y481045D01*
X5594Y480446D01*
X6504Y480069D01*
X7480Y479940D01*
X8457Y480069D01*
X9366Y480446D01*
X10148Y481045D01*
X10747Y481826D01*
X11124Y482736D01*
X11253Y483713D01*
X11124Y484689D01*
X10747Y485599D01*
X10148Y486380D01*
X9366Y486980D01*
X8457Y487357D01*
X7480Y487485D01*
X6504Y487357D01*
X5594Y486980D01*
X4813Y486380D01*
X4213Y485599D01*
X4081Y485280D01*
X366D01*
X-134Y485181D01*
X-234Y485161D01*
X-742Y484821D01*
X-7455Y478108D01*
X-7635Y477839D01*
X-8114Y477984D01*
Y483516D01*
X515Y492145D01*
X3740D01*
Y489972D01*
X11220D01*
Y497453D01*
D02*
G37*
G36*
X-70846Y481000D02*
X-73811D01*
X-73756Y480586D01*
X-73404Y479735D01*
X-72843Y479004D01*
X-72112Y478443D01*
X-71260Y478090D01*
X-70846Y478036D01*
Y481000D01*
D02*
G37*
G36*
X-26390Y489023D02*
X-27235Y488855D01*
X-27951Y488376D01*
X-28429Y487660D01*
X-28598Y486815D01*
Y479728D01*
X-28429Y478884D01*
X-27951Y478167D01*
X-27235Y477689D01*
X-26390Y477521D01*
X-25545Y477689D01*
X-24829Y478167D01*
X-24350Y478884D01*
X-24182Y479728D01*
Y486815D01*
X-24350Y487660D01*
X-24829Y488376D01*
X-25545Y488855D01*
X-26390Y489023D01*
D02*
G37*
G36*
X-21390D02*
X-22235Y488855D01*
X-22951Y488376D01*
X-23429Y487660D01*
X-23597Y486815D01*
Y479728D01*
X-23429Y478884D01*
X-22951Y478167D01*
X-22235Y477689D01*
X-21390Y477521D01*
X-20545Y477689D01*
X-19829Y478167D01*
X-19350Y478884D01*
X-19182Y479728D01*
Y486815D01*
X-19350Y487660D01*
X-19829Y488376D01*
X-20545Y488855D01*
X-21390Y489023D01*
D02*
G37*
G36*
X-61598Y480693D02*
X-64854D01*
Y477831D01*
X-61598D01*
Y480693D01*
D02*
G37*
G36*
X-84909Y496992D02*
X-87874D01*
X-87819Y496578D01*
X-87467Y495727D01*
X-86906Y494996D01*
X-86174Y494435D01*
X-85323Y494082D01*
X-84909Y494028D01*
Y496992D01*
D02*
G37*
G36*
X-21280Y498642D02*
X-24142D01*
Y495386D01*
X-21280D01*
Y498642D01*
D02*
G37*
G36*
X-17417D02*
X-20279D01*
Y495386D01*
X-17417D01*
Y498642D01*
D02*
G37*
G36*
X-39283Y498429D02*
X-45583D01*
Y491606D01*
X-45736Y491543D01*
X-45736Y491543D01*
X-46045Y491415D01*
X-46764Y492134D01*
Y498429D01*
X-53063D01*
Y491342D01*
X-50406D01*
X-47957Y488894D01*
Y488367D01*
X-48430Y487660D01*
X-48597Y486815D01*
Y479728D01*
X-48430Y478884D01*
X-47951Y478167D01*
X-47235Y477689D01*
X-46390Y477521D01*
X-45545Y477689D01*
X-44829Y478167D01*
X-44350Y478884D01*
X-44182Y479728D01*
Y486815D01*
X-44350Y487660D01*
X-44822Y488367D01*
Y489543D01*
X-44922Y490044D01*
X-44942Y490143D01*
X-45281Y490652D01*
X-45510Y490881D01*
X-45382Y491189D01*
X-45382Y491189D01*
X-45319Y491342D01*
X-42957D01*
Y488367D01*
X-43429Y487660D01*
X-43597Y486815D01*
Y479728D01*
X-43429Y478884D01*
X-42951Y478167D01*
X-42235Y477689D01*
X-41390Y477521D01*
X-40545Y477689D01*
X-39829Y478167D01*
X-39350Y478884D01*
X-39182Y479728D01*
Y486815D01*
X-39350Y487660D01*
X-39822Y488367D01*
Y491342D01*
X-39283D01*
Y498429D01*
D02*
G37*
G36*
X-21280Y494386D02*
X-24142D01*
Y491130D01*
X-21280D01*
Y494386D01*
D02*
G37*
G36*
X-17417D02*
X-20279D01*
Y491130D01*
X-17417D01*
Y494386D01*
D02*
G37*
G36*
X-24717Y498429D02*
X-31016D01*
Y492048D01*
X-31735Y491328D01*
X-31896Y491395D01*
Y491395D01*
X-32197Y491520D01*
Y498429D01*
X-38496D01*
Y491342D01*
X-37957D01*
Y488367D01*
X-38429Y487660D01*
X-38598Y486815D01*
Y479728D01*
X-38429Y478884D01*
X-37951Y478167D01*
X-37235Y477689D01*
X-36390Y477521D01*
X-35545Y477689D01*
X-34829Y478167D01*
X-34350Y478884D01*
X-34182Y479728D01*
Y486815D01*
X-34350Y487660D01*
X-34822Y488367D01*
Y491342D01*
X-32374D01*
X-32249Y491041D01*
X-32249D01*
X-32183Y490881D01*
X-32498Y490565D01*
X-32838Y490057D01*
X-32858Y489957D01*
X-32957Y489457D01*
Y488367D01*
X-33430Y487660D01*
X-33597Y486815D01*
Y479728D01*
X-33430Y478884D01*
X-32951Y478167D01*
X-32235Y477689D01*
X-31390Y477521D01*
X-30545Y477689D01*
X-29829Y478167D01*
X-29350Y478884D01*
X-29182Y479728D01*
Y486815D01*
X-29350Y487660D01*
X-29822Y488367D01*
Y488807D01*
X-27287Y491342D01*
X-24717D01*
Y498429D01*
D02*
G37*
G36*
X-53850D02*
X-60150D01*
Y491342D01*
X-57957D01*
Y488367D01*
X-58429Y487660D01*
X-58597Y486815D01*
Y479728D01*
X-58429Y478884D01*
X-57951Y478167D01*
X-57235Y477689D01*
X-56390Y477521D01*
X-55545Y477689D01*
X-54829Y478167D01*
X-54350Y478884D01*
X-54182Y479728D01*
Y486815D01*
X-54350Y487660D01*
X-54822Y488367D01*
Y491342D01*
X-53850D01*
Y498429D01*
D02*
G37*
G36*
X-90847Y465316D02*
X-91705Y465203D01*
X-92504Y464872D01*
X-93191Y464345D01*
X-93718Y463658D01*
X-94049Y462858D01*
X-94162Y462000D01*
X-94049Y461142D01*
X-93719Y460344D01*
X-106822Y447242D01*
X-107283Y447433D01*
Y453831D01*
X-114764D01*
Y446350D01*
X-108366D01*
X-108175Y445889D01*
X-112455Y441608D01*
X-112795Y441100D01*
X-112814Y441000D01*
X-112914Y440500D01*
Y438513D01*
X-113387Y438352D01*
X-114039Y439201D01*
X-115231Y440116D01*
X-116620Y440692D01*
X-118110Y440888D01*
X-119600Y440692D01*
X-120989Y440116D01*
X-122182Y439201D01*
X-123097Y438009D01*
X-123672Y436620D01*
X-123868Y435130D01*
X-123672Y433640D01*
X-123097Y432251D01*
X-122182Y431059D01*
X-120989Y430143D01*
X-119600Y429568D01*
X-118110Y429372D01*
X-117600Y429439D01*
X-117224Y429109D01*
Y423713D01*
X-110335D01*
Y428090D01*
X-110238Y428187D01*
X-109898Y428695D01*
X-109879Y428795D01*
X-109779Y429295D01*
Y432075D01*
X-109306Y432236D01*
X-108402Y431059D01*
X-107210Y430143D01*
X-106213Y429731D01*
X-106310Y429240D01*
X-107496D01*
Y427559D01*
X-99984D01*
Y429240D01*
X-102351D01*
X-102448Y429731D01*
X-101452Y430143D01*
X-100259Y431059D01*
X-99344Y432251D01*
X-98769Y433640D01*
X-98573Y435130D01*
X-98769Y436620D01*
X-99344Y438009D01*
X-100259Y439201D01*
X-101452Y440116D01*
X-102840Y440692D01*
X-104331Y440888D01*
X-105821Y440692D01*
X-107210Y440116D01*
X-108402Y439201D01*
X-109306Y438024D01*
X-109779Y438185D01*
Y439851D01*
X-90934Y458696D01*
X-90847Y458684D01*
X-89988Y458797D01*
X-89189Y459129D01*
X-88502Y459655D01*
X-87975Y460342D01*
X-87644Y461142D01*
X-87531Y462000D01*
X-87644Y462858D01*
X-87975Y463658D01*
X-88502Y464345D01*
X-89189Y464872D01*
X-89988Y465203D01*
X-90847Y465316D01*
D02*
G37*
G36*
X7480Y467485D02*
X6504Y467356D01*
X5594Y466980D01*
X4813Y466380D01*
X4213Y465599D01*
X3836Y464689D01*
X3708Y463713D01*
X3836Y462736D01*
X4213Y461826D01*
X4813Y461045D01*
X5594Y460446D01*
X6504Y460069D01*
X7480Y459940D01*
X8457Y460069D01*
X9366Y460446D01*
X10148Y461045D01*
X10747Y461826D01*
X11124Y462736D01*
X11253Y463713D01*
X11124Y464689D01*
X10747Y465599D01*
X10148Y466380D01*
X9366Y466980D01*
X8457Y467356D01*
X7480Y467485D01*
D02*
G37*
G36*
X-135346Y467816D02*
X-136205Y467703D01*
X-137004Y467372D01*
X-137691Y466845D01*
X-138218Y466158D01*
X-138549Y465358D01*
X-138662Y464500D01*
X-138549Y463642D01*
X-138512Y463552D01*
X-151463Y450600D01*
X-151803Y450092D01*
X-151822Y449993D01*
X-151922Y449492D01*
Y425537D01*
X-152241Y425405D01*
X-153022Y424805D01*
X-153621Y424024D01*
X-153998Y423114D01*
X-154127Y422138D01*
X-153998Y421161D01*
X-153621Y420252D01*
X-153022Y419470D01*
X-152241Y418871D01*
X-151331Y418494D01*
X-150354Y418365D01*
X-149378Y418494D01*
X-148468Y418871D01*
X-147687Y419470D01*
X-147087Y420252D01*
X-146710Y421161D01*
X-146582Y422138D01*
X-146710Y423114D01*
X-147087Y424024D01*
X-147687Y424805D01*
X-148468Y425405D01*
X-148787Y425537D01*
Y448843D01*
X-136295Y461335D01*
X-136205Y461297D01*
X-135346Y461184D01*
X-134488Y461297D01*
X-133689Y461628D01*
X-133002Y462155D01*
X-132475Y462842D01*
X-132144Y463642D01*
X-132031Y464500D01*
X-132144Y465358D01*
X-132475Y466158D01*
X-133002Y466845D01*
X-133689Y467372D01*
X-134488Y467703D01*
X-135346Y467816D01*
D02*
G37*
G36*
X-21390Y469731D02*
X-22235Y469563D01*
X-22951Y469085D01*
X-23429Y468368D01*
X-23597Y467524D01*
Y460437D01*
X-23429Y459592D01*
X-22951Y458876D01*
X-22235Y458397D01*
X-21390Y458229D01*
X-20545Y458397D01*
X-19829Y458876D01*
X-19350Y459592D01*
X-19182Y460437D01*
Y467524D01*
X-19350Y468368D01*
X-19829Y469085D01*
X-20545Y469563D01*
X-21390Y469731D01*
D02*
G37*
G36*
X-179200Y462499D02*
X-183136Y462451D01*
X-184521Y462251D01*
X-185808Y461700D01*
X-186907Y460834D01*
X-187746Y459714D01*
X-188265Y458414D01*
X-188431Y457025D01*
X-188232Y455640D01*
X-187680Y454353D01*
X-186815Y453253D01*
X-185694Y452415D01*
X-184395Y451895D01*
X-183005Y451730D01*
X-179069Y451778D01*
X-177683Y451977D01*
X-176397Y452529D01*
X-175297Y453394D01*
X-174459Y454515D01*
X-173939Y455814D01*
X-173774Y457204D01*
X-173973Y458589D01*
X-174524Y459875D01*
X-175390Y460975D01*
X-176511Y461813D01*
X-177810Y462333D01*
X-179200Y462499D01*
D02*
G37*
G36*
X-36347Y476816D02*
X-37205Y476703D01*
X-38004Y476371D01*
X-38691Y475845D01*
X-39218Y475158D01*
X-39549Y474358D01*
X-39662Y473500D01*
X-39549Y472642D01*
X-39218Y471842D01*
X-38691Y471155D01*
X-38004Y470628D01*
X-37914Y470591D01*
Y469109D01*
X-37951Y469085D01*
X-38429Y468368D01*
X-38598Y467524D01*
Y460437D01*
X-38429Y459592D01*
X-37951Y458876D01*
X-37235Y458397D01*
X-36390Y458229D01*
X-35545Y458397D01*
X-34829Y458876D01*
X-34350Y459592D01*
X-34182Y460437D01*
Y467524D01*
X-34350Y468368D01*
X-34779Y469010D01*
Y470591D01*
X-34689Y470628D01*
X-34002Y471155D01*
X-33475Y471842D01*
X-33144Y472642D01*
X-33031Y473500D01*
X-33144Y474358D01*
X-33475Y475158D01*
X-34002Y475845D01*
X-34689Y476371D01*
X-35488Y476703D01*
X-36347Y476816D01*
D02*
G37*
G36*
X-26390Y469731D02*
X-27235Y469563D01*
X-27951Y469085D01*
X-28429Y468368D01*
X-28598Y467524D01*
Y460437D01*
X-28429Y459592D01*
X-27951Y458876D01*
X-27235Y458397D01*
X-26390Y458229D01*
X-25545Y458397D01*
X-24829Y458876D01*
X-24350Y459592D01*
X-24182Y460437D01*
Y467524D01*
X-24350Y468368D01*
X-24829Y469085D01*
X-25545Y469563D01*
X-26390Y469731D01*
D02*
G37*
G36*
X6980Y477634D02*
X6448Y477564D01*
X5487Y477165D01*
X4661Y476532D01*
X4028Y475706D01*
X3629Y474745D01*
X3559Y474213D01*
X6980D01*
Y477634D01*
D02*
G37*
G36*
X7980D02*
Y474213D01*
X11401D01*
X11331Y474745D01*
X10933Y475706D01*
X10300Y476532D01*
X9474Y477165D01*
X8512Y477564D01*
X7980Y477634D01*
D02*
G37*
G36*
X-51390Y489023D02*
X-52235Y488855D01*
X-52951Y488376D01*
X-53430Y487660D01*
X-53597Y486815D01*
Y479728D01*
X-53430Y478884D01*
X-52957Y478177D01*
Y477106D01*
X-54389Y475674D01*
X-61811D01*
Y477256D01*
X-68898D01*
Y470957D01*
X-61811D01*
Y472539D01*
X-53740D01*
X-53240Y472638D01*
X-53140Y472658D01*
X-52632Y472998D01*
X-50281Y475348D01*
X-50054Y475688D01*
X-49942Y475857D01*
X-49822Y476457D01*
Y478177D01*
X-49350Y478884D01*
X-49182Y479728D01*
Y486815D01*
X-49350Y487660D01*
X-49829Y488376D01*
X-50545Y488855D01*
X-51390Y489023D01*
D02*
G37*
G36*
X-28346Y476816D02*
X-29205Y476703D01*
X-30004Y476371D01*
X-30691Y475845D01*
X-31218Y475158D01*
X-31549Y474358D01*
X-31662Y473500D01*
X-31549Y472642D01*
X-31512Y472551D01*
X-32498Y471565D01*
X-32838Y471057D01*
X-32858Y470957D01*
X-32957Y470457D01*
Y469075D01*
X-33430Y468368D01*
X-33597Y467524D01*
Y460437D01*
X-33430Y459592D01*
X-32951Y458876D01*
X-32235Y458397D01*
X-31390Y458229D01*
X-30545Y458397D01*
X-29829Y458876D01*
X-29350Y459592D01*
X-29182Y460437D01*
Y467524D01*
X-29350Y468368D01*
X-29822Y469075D01*
Y469807D01*
X-29295Y470335D01*
X-29205Y470297D01*
X-28346Y470184D01*
X-27488Y470297D01*
X-26689Y470628D01*
X-26002Y471155D01*
X-25475Y471842D01*
X-25144Y472642D01*
X-25031Y473500D01*
X-25144Y474358D01*
X-25475Y475158D01*
X-26002Y475845D01*
X-26689Y476371D01*
X-27488Y476703D01*
X-28346Y476816D01*
D02*
G37*
G36*
X-166347Y470816D02*
X-167205Y470703D01*
X-168004Y470371D01*
X-168691Y469845D01*
X-169218Y469158D01*
X-169255Y469067D01*
X-190109D01*
X-190608Y469719D01*
X-191295Y470246D01*
X-192095Y470577D01*
X-192953Y470690D01*
X-193811Y470577D01*
X-194611Y470246D01*
X-195297Y469719D01*
X-195824Y469032D01*
X-196156Y468232D01*
X-196268Y467374D01*
X-196156Y466516D01*
X-195824Y465716D01*
X-195297Y465029D01*
X-194611Y464502D01*
X-193811Y464171D01*
X-192953Y464058D01*
X-192095Y464171D01*
X-191295Y464502D01*
X-190608Y465029D01*
X-190081Y465716D01*
X-189992Y465933D01*
X-169255D01*
X-169218Y465842D01*
X-168691Y465155D01*
X-168004Y464629D01*
X-167914Y464591D01*
Y426795D01*
X-169059Y425650D01*
X-169378Y425782D01*
X-170354Y425910D01*
X-171331Y425782D01*
X-172240Y425405D01*
X-173022Y424805D01*
X-173621Y424024D01*
X-173998Y423114D01*
X-174127Y422138D01*
X-173998Y421161D01*
X-173621Y420252D01*
X-173022Y419470D01*
X-172240Y418871D01*
X-171331Y418494D01*
X-170745Y418417D01*
X-170778Y417918D01*
X-178931D01*
X-179029Y418408D01*
X-178361Y418685D01*
X-177535Y419319D01*
X-176902Y420144D01*
X-176503Y421106D01*
X-176433Y421638D01*
X-184275D01*
X-184205Y421106D01*
X-183870Y420296D01*
X-184285Y420018D01*
X-190685Y426418D01*
Y428275D01*
X-190595Y428312D01*
X-189908Y428839D01*
X-189381Y429526D01*
X-189050Y430326D01*
X-188937Y431184D01*
X-189050Y432042D01*
X-189381Y432842D01*
X-189908Y433529D01*
X-190595Y434056D01*
X-191395Y434387D01*
X-192253Y434500D01*
X-193111Y434387D01*
X-193911Y434056D01*
X-194597Y433529D01*
X-195124Y432842D01*
X-195456Y432042D01*
X-195569Y431184D01*
X-195456Y430326D01*
X-195124Y429526D01*
X-194597Y428839D01*
X-193911Y428312D01*
X-193821Y428275D01*
Y425769D01*
X-193721Y425268D01*
X-193701Y425169D01*
X-193361Y424660D01*
X-183943Y415242D01*
X-183434Y414902D01*
X-183335Y414882D01*
X-182835Y414783D01*
X-166024D01*
X-165523Y414882D01*
X-165424Y414902D01*
X-164915Y415242D01*
X-158380Y421777D01*
X-158153Y422117D01*
X-158040Y422286D01*
X-157921Y422886D01*
Y434584D01*
X-157559Y434901D01*
X-156701Y435014D01*
X-155901Y435345D01*
X-155215Y435872D01*
X-154688Y436559D01*
X-154356Y437358D01*
X-154243Y438216D01*
X-154356Y439075D01*
X-154688Y439874D01*
X-155215Y440561D01*
X-155901Y441088D01*
X-156701Y441419D01*
X-157559Y441532D01*
X-158417Y441419D01*
X-159217Y441088D01*
X-159904Y440561D01*
X-160431Y439874D01*
X-160762Y439075D01*
X-160875Y438216D01*
X-160762Y437358D01*
X-160708Y437229D01*
X-160936Y436887D01*
X-160956Y436788D01*
X-161056Y436287D01*
Y423535D01*
X-166673Y417918D01*
X-169931D01*
X-169963Y418417D01*
X-169378Y418494D01*
X-168468Y418871D01*
X-167687Y419470D01*
X-167087Y420252D01*
X-166710Y421161D01*
X-166582Y422138D01*
X-166710Y423114D01*
X-166842Y423433D01*
X-165238Y425037D01*
X-165011Y425377D01*
X-164898Y425546D01*
X-164779Y426146D01*
Y464591D01*
X-164689Y464629D01*
X-164002Y465155D01*
X-163475Y465842D01*
X-163144Y466642D01*
X-163031Y467500D01*
X-163144Y468358D01*
X-163475Y469158D01*
X-164002Y469845D01*
X-164689Y470371D01*
X-165488Y470703D01*
X-166347Y470816D01*
D02*
G37*
G36*
X6980Y473213D02*
X3559D01*
X3629Y472681D01*
X4028Y471719D01*
X4661Y470893D01*
X5487Y470260D01*
X6448Y469862D01*
X6980Y469792D01*
Y473213D01*
D02*
G37*
G36*
X11401D02*
X7980D01*
Y469792D01*
X8512Y469862D01*
X9474Y470260D01*
X10300Y470893D01*
X10933Y471719D01*
X11331Y472681D01*
X11401Y473213D01*
D02*
G37*
%LPD*%
D13*
X-113779Y426862D02*
D03*
Y419776D02*
D03*
X-77953Y455602D02*
D03*
Y448516D02*
D03*
D14*
X-20779Y494886D02*
D03*
X-27866D02*
D03*
X-35346D02*
D03*
X-42433D02*
D03*
X-57000D02*
D03*
X-49913D02*
D03*
X-50787Y452059D02*
D03*
X-57874D02*
D03*
D15*
X-65354Y481193D02*
D03*
Y474106D02*
D03*
D17*
X-74362Y448516D02*
X-69846Y444000D01*
Y428079D02*
Y444000D01*
X-70866Y427059D02*
X-69846Y428079D01*
X-62228Y419382D02*
X-59449D01*
X-66165Y423319D02*
X-62228Y419382D01*
X-78347Y423319D02*
X-66165D01*
X-77953Y448516D02*
X-74362D01*
X-83846Y461496D02*
X-77953Y455602D01*
X-77346Y465500D02*
Y487937D01*
Y465500D02*
X-63906Y452059D01*
X-144126Y471500D02*
X-91847D01*
X-90847Y461000D02*
Y462000D01*
X-111346Y440500D02*
X-90847Y461000D01*
X-111346Y429295D02*
Y440500D01*
X-63906Y452059D02*
X-57874D01*
X-1347Y470500D02*
X654Y468500D01*
Y460539D02*
Y468500D01*
Y460539D02*
X7480Y453713D01*
X366Y483713D02*
X7480D01*
X-6346Y477000D02*
X366Y483713D01*
X-6346Y466500D02*
Y477000D01*
Y466500D02*
X-3634Y463787D01*
Y456213D02*
Y463787D01*
X-6847Y453000D02*
X-3634Y456213D01*
X-12846Y453000D02*
X-6847D01*
X-16346Y456500D02*
X-12846Y453000D01*
X-16346Y456500D02*
Y470500D01*
X-19346Y473500D02*
X-16346Y470500D01*
X-113779Y426862D02*
X-111346Y429295D01*
X-90346Y485500D02*
X-83846Y479000D01*
Y461496D02*
Y479000D01*
X-103937Y419776D02*
X-103740Y419579D01*
X-113779Y419776D02*
X-103937D01*
X-150354Y422138D02*
Y449492D01*
X-135346Y464500D01*
X-134Y493713D02*
X7480D01*
X-9681Y484165D02*
X-134Y493713D01*
X-9681Y459835D02*
Y484165D01*
X-31390Y463980D02*
Y470457D01*
X-28346Y473500D01*
X-36390Y463980D02*
X-36347Y464024D01*
Y473500D01*
X-65354Y474106D02*
X-53740D01*
X-51390Y476457D01*
Y483272D01*
X-41390Y443449D02*
X-35433Y437492D01*
X-41390Y443449D02*
Y463980D01*
X-49213Y437492D02*
X-46390Y440315D01*
Y463980D01*
X-57874Y452059D02*
X-56390Y453543D01*
Y463980D01*
X-51390Y452661D02*
X-50787Y452059D01*
X-51390Y452661D02*
Y463980D01*
X-27866Y492980D02*
Y494886D01*
X-31390Y489457D02*
X-27866Y492980D01*
X-31390Y483272D02*
Y489457D01*
X-36390Y493843D02*
X-35346Y494886D01*
X-36390Y483272D02*
Y493843D01*
X-42433Y494886D02*
X-41390Y493843D01*
Y483272D02*
Y493843D01*
X-49913Y493067D02*
Y494886D01*
Y493067D02*
X-46390Y489543D01*
Y483272D02*
Y489543D01*
X-57000Y494886D02*
X-56390Y494276D01*
Y483272D02*
Y494276D01*
X-166347Y426146D02*
Y467500D01*
X-170354Y422138D02*
X-166347Y426146D01*
X-156614Y493004D02*
X-151417Y487807D01*
X-117598Y491248D02*
Y493122D01*
X-121039Y487807D02*
X-117598Y491248D01*
X-143823Y487807D02*
X-128465D01*
X-151417D02*
X-143823D01*
X-128465D02*
X-121039D01*
X-66339Y488083D02*
Y496702D01*
X-69174Y499537D02*
X-66339Y496702D01*
X-65787Y444461D02*
X-64331D01*
X-65787Y444461D02*
X-65787Y444461D01*
X-159488Y436287D02*
X-157559Y438216D01*
X-159488Y422886D02*
Y436287D01*
X-166024Y416350D02*
X-159488Y422886D01*
X-182835Y416350D02*
X-166024D01*
X-192253Y425769D02*
X-182835Y416350D01*
X-138752Y479000D02*
X-91847D01*
X-115748Y487453D02*
X-113898D01*
X-118543Y484657D02*
X-115748Y487453D01*
X-154449Y484657D02*
X-118543D01*
X-151732Y479106D02*
X-144126Y471500D01*
X-243543Y498358D02*
X-97598D01*
X-94291Y495051D01*
X-77346Y487937D02*
X-70846Y494437D01*
X-80315Y462689D02*
Y494224D01*
X-75002Y499537D01*
X-69174D01*
X-80315Y462689D02*
X-78465Y460839D01*
X-75995D01*
X-65787Y450631D01*
Y444461D02*
Y450631D01*
X-192253Y425769D02*
Y431184D01*
X-250827Y490878D02*
X-250512D01*
X-250827D02*
Y491075D01*
X-243543Y498358D01*
X-287283Y471744D02*
Y471823D01*
X-192827Y467500D02*
X-166347D01*
X-192953Y467374D02*
X-192827Y467500D01*
X-287283Y471744D02*
X-285000Y474028D01*
X-165079D01*
X-154449Y484657D01*
D18*
X-78347Y435917D02*
X-76772Y437492D01*
X-78347Y423319D02*
Y435917D01*
X-90551Y432295D02*
Y437492D01*
X-96260Y426587D02*
X-90551Y432295D01*
X-96260Y423319D02*
Y426587D01*
X-62992Y437492D02*
X-61839D01*
X-51968Y427622D01*
Y423122D02*
Y427622D01*
D20*
X-173228Y484736D02*
D03*
X0Y429618D02*
D03*
X-322008Y446232D02*
D03*
X34291D02*
D03*
D21*
X-131024Y450091D02*
D03*
X-121024D02*
D03*
X-141732Y479106D02*
D03*
X-150354Y422138D02*
D03*
X-170354D02*
D03*
X-180354D02*
D03*
X-146614Y493004D02*
D03*
X-136614D02*
D03*
X-126614D02*
D03*
X7480Y483713D02*
D03*
Y473713D02*
D03*
Y463713D02*
D03*
Y453713D02*
D03*
Y443713D02*
D03*
D22*
X-111024Y450091D02*
D03*
X-151732Y479106D02*
D03*
X-156614Y493004D02*
D03*
D23*
X7480Y493713D02*
D03*
D24*
X-35433Y435130D02*
D03*
X-62992D02*
D03*
X-90551D02*
D03*
X-104331D02*
D03*
X-49213D02*
D03*
X-118110D02*
D03*
X-76772D02*
D03*
X-131890D02*
D03*
D25*
X-21654D02*
D03*
D26*
X-299213Y457114D02*
D03*
X-259842D02*
D03*
X-220472D02*
D03*
X-181102D02*
D03*
D27*
X-70346Y481500D02*
D03*
X-91847Y471500D02*
D03*
Y479000D02*
D03*
X-70846Y494437D02*
D03*
X-19346Y473500D02*
D03*
X-90847Y462000D02*
D03*
X-89677Y485500D02*
D03*
X-135346Y464500D02*
D03*
X-117638Y492531D02*
D03*
X-1347Y470500D02*
D03*
X-9681Y459835D02*
D03*
X-28346Y473500D02*
D03*
X-36347D02*
D03*
X-166347Y467500D02*
D03*
X-94685Y495760D02*
D03*
X-113898Y487453D02*
D03*
X-66339Y488083D02*
D03*
X-65787Y444461D02*
D03*
X-157559Y438216D02*
D03*
X-192253Y431184D02*
D03*
X-250512Y490878D02*
D03*
X-287283Y471823D02*
D03*
X-192953Y467374D02*
D03*
X-84409Y497492D02*
D03*
D28*
X-96260Y423319D02*
D03*
X-103740Y427059D02*
D03*
Y419579D02*
D03*
X-70866Y427059D02*
D03*
Y419579D02*
D03*
X-78347Y423319D02*
D03*
X-51968Y423122D02*
D03*
X-59449Y426862D02*
D03*
Y419382D02*
D03*
D29*
X-21390Y463980D02*
D03*
X-26390D02*
D03*
X-31390D02*
D03*
X-36390D02*
D03*
X-41390D02*
D03*
X-46390D02*
D03*
X-51390D02*
D03*
X-56390D02*
D03*
X-21390Y483272D02*
D03*
X-26390D02*
D03*
X-31390D02*
D03*
X-36390D02*
D03*
X-41390D02*
D03*
X-46390D02*
D03*
X-51390D02*
D03*
X-56390D02*
D03*
D30*
X-13847Y424124D02*
X-15158Y421500D01*
X-16470Y424124D01*
X-17782Y421500D02*
X-19094D01*
X-18438D01*
Y425436D01*
X-17782Y424780D01*
X-21062Y421500D02*
Y422156D01*
X-21718D01*
Y421500D01*
X-21062D01*
X-24342Y424780D02*
X-24998Y425436D01*
X-26310D01*
X-26966Y424780D01*
Y422156D01*
X-26310Y421500D01*
X-24998D01*
X-24342Y422156D01*
Y424780D01*
X13654Y418936D02*
Y415000D01*
X12342Y416312D01*
X11030Y415000D01*
Y418936D01*
X9718D02*
Y415000D01*
X7750D01*
X7094Y415656D01*
Y418280D01*
X7750Y418936D01*
X9718D01*
X5782D02*
Y415656D01*
X5126Y415000D01*
X3814D01*
X3158Y415656D01*
Y418936D01*
X-777D02*
X1846D01*
Y415000D01*
X-777D01*
X1846Y416968D02*
X534D01*
X-2089Y417624D02*
X-4713Y415000D01*
X-3401Y416312D01*
X-4713Y417624D01*
X-2089Y415000D01*
X-6681Y418280D02*
Y417624D01*
X-6025D01*
X-7337D01*
X-6681D01*
Y415656D01*
X-7337Y415000D01*
X-11273D02*
X-9961D01*
X-9305Y415656D01*
Y416968D01*
X-9961Y417624D01*
X-11273D01*
X-11929Y416968D01*
Y416312D01*
X-9305D01*
X-13241Y415000D02*
Y417624D01*
X-15209D01*
X-15865Y416968D01*
Y415000D01*
X-17176D02*
X-19144D01*
X-19800Y415656D01*
X-19144Y416312D01*
X-17832D01*
X-17176Y416968D01*
X-17832Y417624D01*
X-19800D01*
X-21112Y415000D02*
X-22424D01*
X-21768D01*
Y417624D01*
X-21112D01*
X-25048Y415000D02*
X-26360D01*
X-27016Y415656D01*
Y416968D01*
X-26360Y417624D01*
X-25048D01*
X-24392Y416968D01*
Y415656D01*
X-25048Y415000D01*
X-28328D02*
Y417624D01*
X-30296D01*
X-30951Y416968D01*
Y415000D01*
X-32263Y418936D02*
Y415000D01*
X-34231D01*
X-34887Y415656D01*
Y416312D01*
X-34231Y416968D01*
X-32263D01*
X-34231D01*
X-34887Y417624D01*
Y418280D01*
X-34231Y418936D01*
X-32263D01*
X-36855Y415000D02*
X-38167D01*
X-38823Y415656D01*
Y416968D01*
X-38167Y417624D01*
X-36855D01*
X-36199Y416968D01*
Y415656D01*
X-36855Y415000D01*
X-40791Y417624D02*
X-42103D01*
X-42759Y416968D01*
Y415000D01*
X-40791D01*
X-40135Y415656D01*
X-40791Y416312D01*
X-42759D01*
X-44071Y417624D02*
Y415000D01*
Y416312D01*
X-44727Y416968D01*
X-45382Y417624D01*
X-46038D01*
X-50630Y418936D02*
Y415000D01*
X-48662D01*
X-48006Y415656D01*
Y416968D01*
X-48662Y417624D01*
X-50630D01*
X-257874Y496454D02*
Y494487D01*
X-258530Y493831D01*
X-259186Y494487D01*
X-259842Y493831D01*
X-260498Y494487D01*
Y496454D01*
X-261810D02*
Y494487D01*
X-262466Y493831D01*
X-263122Y494487D01*
X-263778Y493831D01*
X-264434Y494487D01*
Y496454D01*
X-265745D02*
Y494487D01*
X-266402Y493831D01*
X-267057Y494487D01*
X-267713Y493831D01*
X-268369Y494487D01*
Y496454D01*
X-269681Y493831D02*
Y494487D01*
X-270337D01*
Y493831D01*
X-269681D01*
X-275585Y497766D02*
Y493831D01*
X-273617D01*
X-272961Y494487D01*
Y495799D01*
X-273617Y496454D01*
X-275585D01*
X-276897Y493831D02*
X-278209D01*
X-277553D01*
Y496454D01*
X-276897D01*
X-280833D02*
X-282144D01*
X-282800Y495799D01*
Y493831D01*
X-280833D01*
X-280176Y494487D01*
X-280833Y495143D01*
X-282800D01*
X-284112Y492519D02*
Y496454D01*
X-286080D01*
X-286736Y495799D01*
Y494487D01*
X-286080Y493831D01*
X-284112D01*
X-288048Y496454D02*
Y493831D01*
Y495143D01*
X-288704Y495799D01*
X-289360Y496454D01*
X-290016D01*
X-292640Y493831D02*
X-293952D01*
X-294608Y494487D01*
Y495799D01*
X-293952Y496454D01*
X-292640D01*
X-291984Y495799D01*
Y494487D01*
X-292640Y493831D01*
X-295919D02*
Y494487D01*
X-296575D01*
Y493831D01*
X-295919D01*
X-299199Y497766D02*
Y493831D01*
Y495799D01*
X-299855Y496454D01*
X-301167D01*
X-301823Y495799D01*
Y493831D01*
X-303135Y496454D02*
Y494487D01*
X-303791Y493831D01*
X-305759D01*
Y496454D01*
X-261221Y490168D02*
Y486232D01*
X-263188D01*
X-263844Y486888D01*
Y489512D01*
X-263188Y490168D01*
X-261221D01*
X-265156Y486232D02*
X-266468D01*
X-265812D01*
Y488856D01*
X-265156D01*
X-269092D02*
X-270404D01*
X-271060Y488200D01*
Y486232D01*
X-269092D01*
X-268436Y486888D01*
X-269092Y487544D01*
X-271060D01*
X-272372Y484920D02*
Y488856D01*
X-274340D01*
X-274996Y488200D01*
Y486888D01*
X-274340Y486232D01*
X-272372D01*
X-276308Y488856D02*
Y486232D01*
Y487544D01*
X-276963Y488200D01*
X-277619Y488856D01*
X-278275D01*
X-280899Y486232D02*
X-282211D01*
X-282867Y486888D01*
Y488200D01*
X-282211Y488856D01*
X-280899D01*
X-280243Y488200D01*
Y486888D01*
X-280899Y486232D01*
X-288115Y490168D02*
Y486232D01*
Y487544D01*
X-290739Y490168D01*
X-288771Y488200D01*
X-290739Y486232D01*
X-292706D02*
Y489512D01*
Y488200D01*
X-292050D01*
X-293362D01*
X-292706D01*
Y489512D01*
X-293362Y490168D01*
X-295986Y489512D02*
Y488856D01*
X-295330D01*
X-296642D01*
X-295986D01*
Y486888D01*
X-296642Y486232D01*
X-298610D02*
Y486888D01*
X-299266D01*
Y486232D01*
X-298610D01*
M02*
