%FSLAX25Y25*%
%MOIN*%
G70*
G01*
G75*
G04 Layer_Color=16711935*
%ADD10R,0.04724X0.05315*%
%ADD11R,0.08071X0.01575*%
%ADD12R,0.04331X0.02559*%
%ADD13R,0.05315X0.04724*%
%ADD14R,0.04724X0.05512*%
%ADD15R,0.05512X0.04724*%
%ADD16R,0.07284X0.04724*%
%ADD17C,0.01500*%
%ADD18C,0.02500*%
%ADD19C,0.01000*%
%ADD20C,0.06000*%
%ADD21C,0.05906*%
%ADD22R,0.05906X0.05906*%
%ADD23R,0.05906X0.05906*%
%ADD24C,0.09843*%
%ADD25R,0.09843X0.09843*%
G04:AMPARAMS|DCode=26|XSize=78.74mil|YSize=60mil|CornerRadius=0mil|HoleSize=0mil|Usage=FLASHONLY|Rotation=0.000|XOffset=0mil|YOffset=0mil|HoleType=Round|Shape=Octagon|*
%AMOCTAGOND26*
4,1,8,0.03937,-0.01500,0.03937,0.01500,0.02437,0.03000,-0.02437,0.03000,-0.03937,0.01500,-0.03937,-0.01500,-0.02437,-0.03000,0.02437,-0.03000,0.03937,-0.01500,0.0*
%
%ADD26OCTAGOND26*%

%ADD27C,0.05000*%
%ADD28R,0.05512X0.02362*%
%ADD29O,0.02756X0.09843*%
%ADD30C,0.00394*%
%ADD31R,0.05524X0.06115*%
%ADD32R,0.08871X0.02375*%
%ADD33R,0.05131X0.03359*%
%ADD34R,0.06115X0.05524*%
%ADD35R,0.05524X0.06312*%
%ADD36R,0.06312X0.05524*%
%ADD37R,0.08083X0.05524*%
%ADD38C,0.06800*%
%ADD39C,0.06706*%
%ADD40R,0.06706X0.06706*%
%ADD41R,0.06706X0.06706*%
%ADD42C,0.10642*%
%ADD43R,0.10642X0.10642*%
G04:AMPARAMS|DCode=44|XSize=86.74mil|YSize=68mil|CornerRadius=0mil|HoleSize=0mil|Usage=FLASHONLY|Rotation=0.000|XOffset=0mil|YOffset=0mil|HoleType=Round|Shape=Octagon|*
%AMOCTAGOND44*
4,1,8,0.04337,-0.01700,0.04337,0.01700,0.02637,0.03400,-0.02637,0.03400,-0.04337,0.01700,-0.04337,-0.01700,-0.02637,-0.03400,0.02637,-0.03400,0.04337,-0.01700,0.0*
%
%ADD44OCTAGOND44*%

%ADD45C,0.05800*%
%ADD46R,0.06312X0.03162*%
%ADD47O,0.03556X0.10642*%
%ADD48C,0.04724*%
D30*
X47244Y437492D02*
Y457177D01*
X-318898Y500484D02*
X15748D01*
X-318898Y413870D02*
X15748D01*
X-334646Y429618D02*
Y484736D01*
X15748Y500484D02*
X47244Y457177D01*
X15748Y413870D02*
X47244Y437492D01*
X-334646Y429618D02*
X-318898Y413870D01*
X-334646Y484736D02*
X-318898Y500484D01*
D48*
X-177953Y455539D02*
X-177953Y458689D01*
X-184252Y455539D02*
X-177953D01*
X-184252Y458689D02*
X-184252Y455539D01*
X-184252Y458689D02*
X-177953D01*
X-296063Y455539D02*
X-296063Y458689D01*
X-302362Y455539D02*
X-296063D01*
X-302362Y458689D02*
X-302362Y455539D01*
X-302362Y458689D02*
X-296063D01*
X-217323Y455539D02*
X-217323Y458689D01*
X-223622Y455539D02*
X-217323D01*
X-223622Y458689D02*
X-223622Y455539D01*
X-223622Y458689D02*
X-217323D01*
X-256693Y455539D02*
X-256693Y458689D01*
X-262992Y455539D02*
X-256693D01*
X-262992Y458689D02*
X-262992Y455539D01*
X-262992Y458689D02*
X-256693D01*
M02*
