M48
;Layer_Color=9474304
;FILE_FORMAT=2:5
INCH,TZ
;TYPE=PLATED
T1F00S00C0.02800
T2F00S00C0.03150
T3F00S00C0.03543
T4F00S00C0.05512
T6F00S00C0.16929
%
T01
X-192253Y431184
X-192953Y467374
X-166347Y467500
X-135346Y464500
X-90847Y462000
X-65787Y444461
X-9681Y459835
X-157559Y438216
X-1347Y470500
X-19346Y473500
X-28346
X-36347
X-70346Y481500
X-66339Y488083
X-70846Y494437
X-84409Y497492
X-94685Y495760
X-89677Y485500
X-91847Y479000
Y471500
X-113898Y487453
X-117638Y492531
X-250512Y490878
X-287283Y471823
T02
X-180354Y422138
X-170354
X-150354
T03
X-131024Y450091
X-121024
X-111024
X7480Y453713
Y463713
Y443713
Y473713
Y483713
Y493713
X-126614Y493004
X-136614
X-146614
X-156614
X-151732Y479106
X-141732
T04
X-131890Y435130
X-118110
X-104331
X-90551
X-76772
X-62992
X-49213
X-35433
X-21654
T06
X-322008Y446232
X0Y429618
X34291Y446232
X-173228Y484736
M30
