%FSLAX25Y25*%
%MOIN*%
G70*
G01*
G75*
G04 Layer_Color=16711935*
%ADD10R,0.04724X0.05315*%
%ADD11R,0.08071X0.01575*%
%ADD12R,0.04331X0.02559*%
%ADD13R,0.05315X0.04724*%
%ADD14R,0.04724X0.05512*%
%ADD15R,0.05512X0.04724*%
%ADD16R,0.07284X0.04724*%
%ADD17C,0.01500*%
%ADD18C,0.02500*%
%ADD19C,0.01000*%
%ADD20C,0.06000*%
%ADD21C,0.05906*%
%ADD22R,0.05906X0.05906*%
%ADD23R,0.05906X0.05906*%
%ADD24C,0.09843*%
%ADD25R,0.09843X0.09843*%
G04:AMPARAMS|DCode=26|XSize=78.74mil|YSize=60mil|CornerRadius=0mil|HoleSize=0mil|Usage=FLASHONLY|Rotation=0.000|XOffset=0mil|YOffset=0mil|HoleType=Round|Shape=Octagon|*
%AMOCTAGOND26*
4,1,8,0.03937,-0.01500,0.03937,0.01500,0.02437,0.03000,-0.02437,0.03000,-0.03937,0.01500,-0.03937,-0.01500,-0.02437,-0.03000,0.02437,-0.03000,0.03937,-0.01500,0.0*
%
%ADD26OCTAGOND26*%

%ADD27C,0.05000*%
%ADD28R,0.05512X0.02362*%
%ADD29O,0.02756X0.09843*%
%ADD30C,0.00394*%
%ADD31R,0.05524X0.06115*%
%ADD32R,0.08871X0.02375*%
%ADD33R,0.05131X0.03359*%
%ADD34R,0.06115X0.05524*%
%ADD35R,0.05524X0.06312*%
%ADD36R,0.06312X0.05524*%
%ADD37R,0.08083X0.05524*%
%ADD38C,0.06800*%
%ADD39C,0.06706*%
%ADD40R,0.06706X0.06706*%
%ADD41R,0.06706X0.06706*%
%ADD42C,0.10642*%
%ADD43R,0.10642X0.10642*%
G04:AMPARAMS|DCode=44|XSize=86.74mil|YSize=68mil|CornerRadius=0mil|HoleSize=0mil|Usage=FLASHONLY|Rotation=0.000|XOffset=0mil|YOffset=0mil|HoleType=Round|Shape=Octagon|*
%AMOCTAGOND44*
4,1,8,0.04337,-0.01700,0.04337,0.01700,0.02637,0.03400,-0.02637,0.03400,-0.04337,0.01700,-0.04337,-0.01700,-0.02637,-0.03400,0.02637,-0.03400,0.04337,-0.01700,0.0*
%
%ADD44OCTAGOND44*%

%ADD45C,0.05800*%
%ADD46R,0.06312X0.03162*%
%ADD47O,0.03556X0.10642*%
D30*
X-13847Y424124D02*
X-15158Y421500D01*
X-16470Y424124D01*
X-17782Y421500D02*
X-19094D01*
X-18438D01*
Y425436D01*
X-17782Y424780D01*
X-21062Y421500D02*
Y422156D01*
X-21718D01*
Y421500D01*
X-21062D01*
X-24342Y424780D02*
X-24998Y425436D01*
X-26310D01*
X-26966Y424780D01*
Y422156D01*
X-26310Y421500D01*
X-24998D01*
X-24342Y422156D01*
Y424780D01*
X13661Y418948D02*
Y415012D01*
X12349Y416324D01*
X11038Y415012D01*
Y418948D01*
X9726D02*
Y415012D01*
X7758D01*
X7102Y415668D01*
Y418292D01*
X7758Y418948D01*
X9726D01*
X5790D02*
Y415668D01*
X5134Y415012D01*
X3822D01*
X3166Y415668D01*
Y418948D01*
X-770D02*
X1854D01*
Y415012D01*
X-770D01*
X1854Y416980D02*
X542D01*
X-2081Y417636D02*
X-4705Y415012D01*
X-3393Y416324D01*
X-4705Y417636D01*
X-2081Y415012D01*
X-6673Y418292D02*
Y417636D01*
X-6017D01*
X-7329D01*
X-6673D01*
Y415668D01*
X-7329Y415012D01*
X-11265D02*
X-9953D01*
X-9297Y415668D01*
Y416980D01*
X-9953Y417636D01*
X-11265D01*
X-11921Y416980D01*
Y416324D01*
X-9297D01*
X-13233Y415012D02*
Y417636D01*
X-15201D01*
X-15857Y416980D01*
Y415012D01*
X-17168D02*
X-19136D01*
X-19792Y415668D01*
X-19136Y416324D01*
X-17824D01*
X-17168Y416980D01*
X-17824Y417636D01*
X-19792D01*
X-21104Y415012D02*
X-22416D01*
X-21760D01*
Y417636D01*
X-21104D01*
X-25040Y415012D02*
X-26352D01*
X-27008Y415668D01*
Y416980D01*
X-26352Y417636D01*
X-25040D01*
X-24384Y416980D01*
Y415668D01*
X-25040Y415012D01*
X-28320D02*
Y417636D01*
X-30288D01*
X-30944Y416980D01*
Y415012D01*
X-32256Y418948D02*
Y415012D01*
X-34223D01*
X-34879Y415668D01*
Y416324D01*
X-34223Y416980D01*
X-32256D01*
X-34223D01*
X-34879Y417636D01*
Y418292D01*
X-34223Y418948D01*
X-32256D01*
X-36847Y415012D02*
X-38159D01*
X-38815Y415668D01*
Y416980D01*
X-38159Y417636D01*
X-36847D01*
X-36191Y416980D01*
Y415668D01*
X-36847Y415012D01*
X-40783Y417636D02*
X-42095D01*
X-42751Y416980D01*
Y415012D01*
X-40783D01*
X-40127Y415668D01*
X-40783Y416324D01*
X-42751D01*
X-44063Y417636D02*
Y415012D01*
Y416324D01*
X-44719Y416980D01*
X-45375Y417636D01*
X-46031D01*
X-50622Y418948D02*
Y415012D01*
X-48654D01*
X-47998Y415668D01*
Y416980D01*
X-48654Y417636D01*
X-50622D01*
X-213858Y418423D02*
Y416455D01*
X-214514Y415799D01*
X-215170Y416455D01*
X-215826Y415799D01*
X-216482Y416455D01*
Y418423D01*
X-217794D02*
Y416455D01*
X-218450Y415799D01*
X-219106Y416455D01*
X-219762Y415799D01*
X-220418Y416455D01*
Y418423D01*
X-221730D02*
Y416455D01*
X-222386Y415799D01*
X-223042Y416455D01*
X-223698Y415799D01*
X-224354Y416455D01*
Y418423D01*
X-225665Y415799D02*
Y416455D01*
X-226322D01*
Y415799D01*
X-225665D01*
X-231569Y419735D02*
Y415799D01*
X-229601D01*
X-228945Y416455D01*
Y417767D01*
X-229601Y418423D01*
X-231569D01*
X-232881Y415799D02*
X-234193D01*
X-233537D01*
Y418423D01*
X-232881D01*
X-236817D02*
X-238129D01*
X-238785Y417767D01*
Y415799D01*
X-236817D01*
X-236161Y416455D01*
X-236817Y417111D01*
X-238785D01*
X-240096Y414487D02*
Y418423D01*
X-242064D01*
X-242720Y417767D01*
Y416455D01*
X-242064Y415799D01*
X-240096D01*
X-244032Y418423D02*
Y415799D01*
Y417111D01*
X-244688Y417767D01*
X-245344Y418423D01*
X-246000D01*
X-248624Y415799D02*
X-249936D01*
X-250592Y416455D01*
Y417767D01*
X-249936Y418423D01*
X-248624D01*
X-247968Y417767D01*
Y416455D01*
X-248624Y415799D01*
X-251904D02*
Y416455D01*
X-252560D01*
Y415799D01*
X-251904D01*
X-255184Y419735D02*
Y415799D01*
Y417767D01*
X-255839Y418423D01*
X-257151D01*
X-257807Y417767D01*
Y415799D01*
X-259119Y418423D02*
Y416455D01*
X-259775Y415799D01*
X-261743D01*
Y418423D01*
X-276693Y420326D02*
Y416390D01*
X-278661D01*
X-279317Y417046D01*
Y419669D01*
X-278661Y420326D01*
X-276693D01*
X-280629Y416390D02*
X-281941D01*
X-281285D01*
Y419014D01*
X-280629D01*
X-284564D02*
X-285876D01*
X-286532Y418358D01*
Y416390D01*
X-284564D01*
X-283908Y417046D01*
X-284564Y417702D01*
X-286532D01*
X-287844Y415078D02*
Y419014D01*
X-289812D01*
X-290468Y418358D01*
Y417046D01*
X-289812Y416390D01*
X-287844D01*
X-291780Y419014D02*
Y416390D01*
Y417702D01*
X-292436Y418358D01*
X-293092Y419014D01*
X-293748D01*
X-296372Y416390D02*
X-297684D01*
X-298340Y417046D01*
Y418358D01*
X-297684Y419014D01*
X-296372D01*
X-295716Y418358D01*
Y417046D01*
X-296372Y416390D01*
X-303587Y420326D02*
Y416390D01*
Y417702D01*
X-306211Y420326D01*
X-304243Y418358D01*
X-306211Y416390D01*
X-308179D02*
Y419669D01*
Y418358D01*
X-307523D01*
X-308835D01*
X-308179D01*
Y419669D01*
X-308835Y420326D01*
X-311459Y419669D02*
Y419014D01*
X-310803D01*
X-312115D01*
X-311459D01*
Y417046D01*
X-312115Y416390D01*
X-314082D02*
Y417046D01*
X-314738D01*
Y416390D01*
X-314082D01*
D34*
X-113779Y426862D02*
D03*
Y419776D02*
D03*
X-77953Y455602D02*
D03*
Y448516D02*
D03*
D35*
X-20779Y494886D02*
D03*
X-27866D02*
D03*
X-35346D02*
D03*
X-42433D02*
D03*
X-57000D02*
D03*
X-49913D02*
D03*
X-50787Y452059D02*
D03*
X-57874D02*
D03*
D36*
X-65354Y481193D02*
D03*
Y474106D02*
D03*
D38*
X-173228Y484736D02*
D03*
X0Y429618D02*
D03*
X-322008Y446232D02*
D03*
X34291D02*
D03*
D39*
X-131024Y450091D02*
D03*
X-121024D02*
D03*
X-141732Y479106D02*
D03*
X-150354Y422138D02*
D03*
X-170354D02*
D03*
X-180354D02*
D03*
X-146614Y493004D02*
D03*
X-136614D02*
D03*
X-126614D02*
D03*
X7480Y483713D02*
D03*
Y473713D02*
D03*
Y463713D02*
D03*
Y453713D02*
D03*
Y443713D02*
D03*
D40*
X-111024Y450091D02*
D03*
X-151732Y479106D02*
D03*
X-156614Y493004D02*
D03*
D41*
X7480Y493713D02*
D03*
D42*
X-35433Y435130D02*
D03*
X-62992D02*
D03*
X-90551D02*
D03*
X-104331D02*
D03*
X-49213D02*
D03*
X-118110D02*
D03*
X-76772D02*
D03*
X-131890D02*
D03*
D43*
X-21654D02*
D03*
D44*
X-299213Y457114D02*
D03*
X-259842D02*
D03*
X-220472D02*
D03*
X-181102D02*
D03*
D45*
X-70346Y481500D02*
D03*
X-91847Y471500D02*
D03*
Y479000D02*
D03*
X-70846Y494437D02*
D03*
X-19346Y473500D02*
D03*
X-90847Y462000D02*
D03*
X-89677Y485500D02*
D03*
X-135346Y464500D02*
D03*
X-117638Y492531D02*
D03*
X-1347Y470500D02*
D03*
X-9681Y459835D02*
D03*
X-28346Y473500D02*
D03*
X-36347D02*
D03*
X-166347Y467500D02*
D03*
X-94685Y495760D02*
D03*
X-113898Y487453D02*
D03*
X-66339Y488083D02*
D03*
X-65787Y444461D02*
D03*
X-157559Y438216D02*
D03*
X-192253Y431184D02*
D03*
X-250512Y490878D02*
D03*
X-287283Y471823D02*
D03*
X-192953Y467374D02*
D03*
X-84409Y497492D02*
D03*
D46*
X-96260Y423319D02*
D03*
X-103740Y427059D02*
D03*
Y419579D02*
D03*
X-70866Y427059D02*
D03*
Y419579D02*
D03*
X-78347Y423319D02*
D03*
X-51968Y423122D02*
D03*
X-59449Y426862D02*
D03*
Y419382D02*
D03*
D47*
X-21390Y463980D02*
D03*
X-26390D02*
D03*
X-31390D02*
D03*
X-36390D02*
D03*
X-41390D02*
D03*
X-46390D02*
D03*
X-51390D02*
D03*
X-56390D02*
D03*
X-21390Y483272D02*
D03*
X-26390D02*
D03*
X-31390D02*
D03*
X-36390D02*
D03*
X-41390D02*
D03*
X-46390D02*
D03*
X-51390D02*
D03*
X-56390D02*
D03*
M02*
