%FSTAX24Y24*%
%MOIN*%
G70*
G01*
G75*
G04 Layer_Physical_Order=1*
G04 Layer_Color=255*
%ADD10R,0.0512X0.0394*%
%ADD11O,0.0906X0.0236*%
%ADD12R,0.0394X0.0512*%
%ADD13R,0.1299X0.1004*%
%ADD14R,0.0374X0.1004*%
%ADD15R,0.0472X0.0512*%
%ADD16C,0.0100*%
%ADD17C,0.0300*%
%ADD18R,0.0650X0.4803*%
%ADD19C,0.0591*%
%ADD20R,0.0591X0.0591*%
%ADD21C,0.0984*%
%ADD22R,0.0984X0.0984*%
%ADD23C,0.0320*%
G36*
X242238Y186172D02*
Y186106D01*
X241089Y184957D01*
X241044Y184979D01*
X241047Y185D01*
X241036Y185083D01*
X241004Y18516D01*
X240953Y185226D01*
Y185273D01*
X241004Y185339D01*
X241036Y185417D01*
X241047Y1855D01*
X241036Y185583D01*
X241004Y18566D01*
X240953Y185726D01*
X240959Y185745D01*
X24164D01*
X241738Y185764D01*
X24182Y185819D01*
X24182Y185819D01*
X24182Y185819D01*
X242192Y186191D01*
X242238Y186172D01*
D02*
G37*
G36*
X23841Y186704D02*
X23837Y186652D01*
X238334Y186564D01*
X238321Y18647D01*
X238334Y186376D01*
X23837Y186289D01*
X238428Y186213D01*
X238503Y186156D01*
X23859Y186119D01*
X238684Y186107D01*
X238778Y186119D01*
X238866Y186156D01*
X238941Y186213D01*
X238965Y186245D01*
X239787D01*
X239809Y1862D01*
X239779Y18616D01*
X239747Y186083D01*
X239736Y186D01*
X239747Y185917D01*
X239779Y185839D01*
X239809Y185799D01*
X239787Y185755D01*
X238594D01*
X238582Y185764D01*
X238494Y1858D01*
X2384Y185813D01*
X238306Y1858D01*
X238233Y18577D01*
X23822Y18579D01*
X23783Y18618D01*
X237748Y186235D01*
X23765Y186255D01*
X237413D01*
X237391Y186299D01*
X237421Y186339D01*
X237453Y186417D01*
X237464Y1865D01*
X237453Y186583D01*
X237421Y18666D01*
X23737Y186726D01*
X237376Y186745D01*
X238374D01*
X238384Y186747D01*
X23841Y186704D01*
D02*
G37*
G36*
X240136Y18782D02*
X240057D01*
X239974Y18781D01*
X239896Y187777D01*
X23983Y187726D01*
X239779Y18766D01*
X239747Y187583D01*
X239736Y1875D01*
X239747Y187417D01*
X239779Y187339D01*
X23983Y187273D01*
Y187226D01*
X23978Y187162D01*
X23973Y187168D01*
X239725Y187181D01*
X239667Y187256D01*
X239592Y187314D01*
X239505Y18735D01*
X239461Y187356D01*
Y186999D01*
X239411D01*
Y18695D01*
X239054D01*
X23906Y186906D01*
X239096Y186818D01*
X239111Y186799D01*
X239088Y186754D01*
X238905D01*
X238866Y186785D01*
X238778Y186821D01*
X238684Y186833D01*
X238627Y186826D01*
X238605Y186871D01*
X239715Y187981D01*
X239718Y18798D01*
X239812Y187993D01*
X239899Y188029D01*
X239974Y188087D01*
X240032Y188162D01*
X240068Y188249D01*
X240081Y188343D01*
X240068Y188437D01*
X240032Y188525D01*
X239974Y1886D01*
X239972Y188602D01*
X239988Y18865D01*
X240136D01*
Y18782D01*
D02*
G37*
G36*
X242563Y192992D02*
Y190979D01*
X242417Y190832D01*
X242415Y190833D01*
X242321Y19082D01*
X242233Y190784D01*
X242158Y190726D01*
X2421Y190651D01*
X242064Y190563D01*
X242051Y190469D01*
X242064Y190375D01*
X2421Y190288D01*
X242158Y190213D01*
X24216Y190211D01*
Y189764D01*
X241985D01*
X241983Y189779D01*
X241933Y189899D01*
X241853Y190003D01*
X24175Y190082D01*
X241647Y190125D01*
Y190175D01*
X24175Y190217D01*
X241853Y190296D01*
X241933Y1904D01*
X241983Y19052D01*
X242Y19065D01*
X241983Y190779D01*
X241933Y190899D01*
X241853Y191003D01*
X24175Y191082D01*
X241647Y191125D01*
Y191175D01*
X24175Y191217D01*
X241853Y191296D01*
X241933Y1914D01*
X241983Y19152D01*
X242Y19165D01*
X241993Y191702D01*
X242011Y19172D01*
X242105Y191733D01*
X242193Y191769D01*
X242268Y191827D01*
X242325Y191902D01*
X242362Y19199D01*
X242374Y192084D01*
X242362Y192178D01*
X242325Y192265D01*
X242268Y19234D01*
X242266Y192342D01*
Y192989D01*
X242247Y193087D01*
X242191Y193169D01*
X242047Y193314D01*
X242066Y19336D01*
X242195D01*
X242563Y192992D01*
D02*
G37*
G36*
X242957Y190586D02*
Y187033D01*
X242908Y187023D01*
X242905Y187031D01*
X242847Y187106D01*
X242772Y187164D01*
X242684Y1872D01*
X24259Y187213D01*
X242568Y187257D01*
X242621Y18731D01*
X242682Y187335D01*
X242757Y187393D01*
X242814Y187468D01*
X242851Y187556D01*
X242863Y18765D01*
X242851Y187744D01*
X242814Y187831D01*
X242757Y187906D01*
X242682Y187964D01*
X242594Y188D01*
X2425Y188013D01*
X242406Y188D01*
X242318Y187964D01*
X242243Y187906D01*
X242186Y187831D01*
X242149Y187744D01*
X242137Y18765D01*
X242149Y187559D01*
X242102Y187512D01*
X242056Y187531D01*
Y18804D01*
X241855D01*
Y188191D01*
X241912Y188249D01*
X241959Y188229D01*
Y188183D01*
X24287D01*
Y18897D01*
Y189764D01*
X242669D01*
Y190211D01*
X242671Y190213D01*
X242729Y190288D01*
X242765Y190375D01*
X242778Y190469D01*
X242777Y190472D01*
X242911Y190605D01*
X242957Y190586D01*
D02*
G37*
G36*
Y183498D02*
Y182293D01*
X242915Y182265D01*
X242863Y182287D01*
X242769Y182299D01*
X242767Y182299D01*
X242629Y182436D01*
X242546Y182491D01*
X242456Y182509D01*
Y182646D01*
Y183045D01*
X24288Y183469D01*
X242909Y183512D01*
X242957Y183498D01*
D02*
G37*
G36*
X234512Y184093D02*
X234606Y18408D01*
X2347Y184093D01*
X234703Y184093D01*
X234744Y184066D01*
Y184046D01*
Y183259D01*
X234751D01*
Y183206D01*
X234609D01*
Y182294D01*
X235745D01*
Y18225D01*
X235765Y182152D01*
X23582Y182069D01*
X235898Y181991D01*
X235879Y181945D01*
X235105D01*
Y180954D01*
X236095D01*
Y181729D01*
X236141Y181748D01*
X236505Y181384D01*
Y180754D01*
X237495D01*
Y181046D01*
X237544Y181056D01*
X237567Y181D01*
X237647Y180896D01*
X23775Y180817D01*
X237871Y180767D01*
X238Y18075D01*
X238129Y180767D01*
X23825Y180817D01*
X238353Y180896D01*
X238433Y181D01*
X238475Y181102D01*
X238525D01*
X238567Y181D01*
X238647Y180896D01*
X23875Y180817D01*
X238871Y180767D01*
X23895Y180757D01*
Y18125D01*
Y181743D01*
X238871Y181732D01*
X23875Y181682D01*
X238647Y181603D01*
X238567Y181499D01*
X238525Y181397D01*
X238475D01*
X238433Y181499D01*
X238353Y181603D01*
X23825Y181682D01*
X238129Y181732D01*
X238Y181749D01*
X237871Y181732D01*
X23775Y181682D01*
X237647Y181603D01*
X237567Y181499D01*
X237544Y181444D01*
X237495Y181453D01*
Y181745D01*
X236865D01*
X236255Y182355D01*
Y18271D01*
X2363Y182732D01*
X236314Y182722D01*
X236391Y18269D01*
X236474Y182679D01*
X237143D01*
X237226Y18269D01*
X237304Y182722D01*
X237314Y182729D01*
X238061Y181982D01*
X238144Y181927D01*
X238241Y181907D01*
X238786D01*
X238788Y181906D01*
X238863Y181848D01*
X23895Y181812D01*
X239044Y181799D01*
X239138Y181812D01*
X239208Y181841D01*
X23925Y181813D01*
Y181727D01*
X239208Y181699D01*
X239129Y181732D01*
X23905Y181743D01*
Y18125D01*
Y180757D01*
X239129Y180767D01*
X23925Y180817D01*
X239314Y180866D01*
X239324Y180864D01*
X239324Y180864D01*
X239324Y180864D01*
D01*
X239324Y180864D01*
X239497Y180692D01*
X239478Y180646D01*
X234944D01*
X234931Y180643D01*
X234805Y180659D01*
X234676Y180713D01*
X234564Y180798D01*
X234479Y18091D01*
X234425Y181039D01*
X234409Y181164D01*
X234412Y181178D01*
Y184089D01*
X234453Y184117D01*
X234512Y184093D01*
D02*
G37*
G36*
X238145Y18393D02*
Y183578D01*
X238165Y183481D01*
X23822Y183398D01*
X239047Y182571D01*
X239031Y182524D01*
X23895Y182513D01*
X238863Y182477D01*
X238788Y182419D01*
X238786Y182417D01*
X238347D01*
X237584Y18318D01*
X237502Y183235D01*
X237404Y183255D01*
X237404Y183317D01*
X237421Y183339D01*
X237453Y183417D01*
X237464Y1835D01*
X237453Y183583D01*
X237421Y18366D01*
X23737Y183726D01*
Y183773D01*
X237421Y183839D01*
X237453Y183917D01*
X237455Y183932D01*
X237504Y183945D01*
X237543Y183893D01*
X237618Y183835D01*
X237706Y183799D01*
X2378Y183786D01*
X237894Y183799D01*
X237982Y183835D01*
X238057Y183893D01*
X238098Y183946D01*
X238145Y18393D01*
D02*
G37*
G36*
X23915Y1852D02*
X239136Y185181D01*
X239099Y185094D01*
X239087Y185D01*
X239099Y184906D01*
X239136Y184818D01*
X239193Y184743D01*
X239268Y184685D01*
X239356Y184649D01*
X23945Y184636D01*
X239544Y184649D01*
X239632Y184685D01*
X239707Y184743D01*
X239708Y184745D01*
X239787D01*
X239809Y1847D01*
X239779Y18466D01*
X239747Y184583D01*
X239736Y1845D01*
X239747Y184417D01*
X239779Y184339D01*
X23983Y184273D01*
Y184226D01*
X239779Y18416D01*
X239747Y184083D01*
X239736Y184D01*
X239747Y183917D01*
X239779Y183839D01*
X23983Y183773D01*
Y183726D01*
X239779Y18366D01*
X239747Y183583D01*
X239736Y1835D01*
X239747Y183417D01*
X239779Y183339D01*
X23983Y183273D01*
Y183226D01*
X239779Y18316D01*
X239747Y183083D01*
X239741Y183036D01*
X239693Y18302D01*
X238955Y183758D01*
Y18435D01*
X238936Y184447D01*
X23888Y18453D01*
X238367Y185043D01*
X238389Y185088D01*
X2384Y185086D01*
X238494Y185099D01*
X238582Y185135D01*
X238657Y185193D01*
X238697Y185245D01*
X239128D01*
X23915Y1852D01*
D02*
G37*
G36*
X242957Y186666D02*
Y183851D01*
X242908Y183842D01*
X242896Y183869D01*
X242839Y183945D01*
X242763Y184002D01*
X242676Y184039D01*
X242582Y184051D01*
X242488Y184039D01*
X2424Y184002D01*
X242325Y183945D01*
X242267Y183869D01*
X242231Y183782D01*
X242219Y183688D01*
X242231Y183594D01*
X242247Y183557D01*
X24213Y18344D01*
X241544D01*
Y182646D01*
Y181859D01*
X242416D01*
X242418Y181842D01*
X242454Y181754D01*
X242512Y181679D01*
X242587Y181621D01*
X242675Y181585D01*
X242769Y181573D01*
X242863Y181585D01*
X242915Y181607D01*
X242957Y181579D01*
Y181178D01*
X24296Y181164D01*
X242943Y181039D01*
X242889Y18091D01*
X242804Y180798D01*
X242693Y180713D01*
X242563Y180659D01*
X242438Y180643D01*
X242424Y180646D01*
X240522D01*
X240503Y180692D01*
X240681Y18087D01*
X24075Y180817D01*
X240871Y180767D01*
X241Y18075D01*
X241129Y180767D01*
X24125Y180817D01*
X241353Y180896D01*
X241433Y181D01*
X241475Y181102D01*
X241525D01*
X241567Y181D01*
X241647Y180896D01*
X24175Y180817D01*
X241871Y180767D01*
X242Y18075D01*
X242129Y180767D01*
X24225Y180817D01*
X242353Y180896D01*
X242433Y181D01*
X242483Y18112D01*
X2425Y18125D01*
X242483Y181379D01*
X242433Y181499D01*
X242353Y181603D01*
X24225Y181682D01*
X242129Y181732D01*
X242Y181749D01*
X241871Y181732D01*
X24175Y181682D01*
X241647Y181603D01*
X241567Y181499D01*
X241525Y181397D01*
X241475D01*
X241433Y181499D01*
X241353Y181603D01*
X24125Y181682D01*
X241129Y181732D01*
X241Y181749D01*
X240871Y181732D01*
X24075Y181682D01*
X240647Y181603D01*
X240567Y181499D01*
X240546Y181447D01*
X24052Y18143D01*
X24051Y18142D01*
X240461Y18143D01*
X240433Y181499D01*
X240353Y181603D01*
X240255Y181678D01*
Y182352D01*
X240236Y18245D01*
X24018Y182533D01*
X240049Y182664D01*
X240057Y182679D01*
X240726D01*
X240809Y18269D01*
X240886Y182722D01*
X240953Y182773D01*
X241004Y182839D01*
X241036Y182917D01*
X241047Y183D01*
X241036Y183083D01*
X241004Y18316D01*
X240953Y183226D01*
Y183273D01*
X241004Y183339D01*
X241036Y183417D01*
X241047Y1835D01*
X241036Y183583D01*
X241004Y18366D01*
X240953Y183726D01*
Y183773D01*
X241004Y183839D01*
X241036Y183917D01*
X241047Y184D01*
X241036Y184083D01*
X241004Y18416D01*
X240953Y184226D01*
X240959Y184245D01*
X240992D01*
X24109Y184264D01*
X241172Y184319D01*
X242674Y185821D01*
X242729Y185903D01*
X242748Y186001D01*
Y186525D01*
X242772Y186535D01*
X242847Y186593D01*
X242905Y186668D01*
X242908Y186676D01*
X242957Y186666D01*
D02*
G37*
G36*
X240798Y195479D02*
X240862Y195359D01*
X240911Y195298D01*
Y195273D01*
X240927Y195195D01*
X240971Y195128D01*
X241037Y195084D01*
X241115Y195069D01*
X241286D01*
X241304Y195063D01*
X24144Y19505D01*
X241576Y195063D01*
X241595Y195069D01*
X241756D01*
X241837Y194987D01*
X241818Y194941D01*
X241752D01*
Y194147D01*
Y19349D01*
X24162D01*
Y194167D01*
Y194961D01*
X240735D01*
Y19502D01*
X240397D01*
X240392Y19507D01*
X240465Y195084D01*
X240531Y195128D01*
X240575Y195195D01*
X240591Y195273D01*
Y195298D01*
X24064Y195359D01*
X240705Y195479D01*
X240726Y19555D01*
X240776D01*
X240798Y195479D01*
D02*
G37*
G36*
X242563Y196264D02*
X242693Y19621D01*
X242804Y196125D01*
X242889Y196014D01*
X242943Y195884D01*
X24296Y195759D01*
X242957Y195745D01*
Y193384D01*
X242911Y193365D01*
X242664Y193612D01*
Y194147D01*
Y194941D01*
X242463D01*
Y194977D01*
X242443Y195075D01*
X242388Y195158D01*
X242077Y195468D01*
X242083Y195479D01*
X242122Y195609D01*
X242136Y195745D01*
X242122Y195881D01*
X242083Y196011D01*
X242018Y196131D01*
X241969Y196192D01*
Y196278D01*
X242424D01*
X242438Y19628D01*
X242563Y196264D01*
D02*
G37*
G36*
X238996Y19502D02*
X238996D01*
Y194614D01*
X239432D01*
Y194564D01*
X239482D01*
Y194108D01*
X240709D01*
Y19338D01*
X240984D01*
X241241Y193123D01*
X241238Y193073D01*
X241147Y193003D01*
X241067Y192899D01*
X241017Y192779D01*
X241Y19265D01*
X241017Y19252D01*
X241067Y1924D01*
X241147Y192296D01*
X24125Y192217D01*
X241353Y192175D01*
Y192125D01*
X24125Y192082D01*
X241147Y192003D01*
X241067Y191899D01*
X241017Y191779D01*
X241Y19165D01*
X241017Y19152D01*
X241067Y1914D01*
X241147Y191296D01*
X24125Y191217D01*
X241353Y191175D01*
Y191125D01*
X24125Y191082D01*
X241147Y191003D01*
X241067Y190899D01*
X241017Y190779D01*
X241Y19065D01*
X241017Y19052D01*
X241067Y1904D01*
X241147Y190296D01*
X24125Y190217D01*
X241353Y190175D01*
Y190125D01*
X24125Y190082D01*
X241147Y190003D01*
X241067Y189899D01*
X241017Y189779D01*
X241Y18965D01*
X241017Y18952D01*
X241067Y1894D01*
X241147Y189296D01*
X24125Y189217D01*
X241371Y189167D01*
X2415Y18915D01*
X241629Y189167D01*
X24175Y189217D01*
X241853Y189296D01*
X241911Y189372D01*
X241959Y189356D01*
Y18897D01*
Y188835D01*
X241883D01*
X241786Y188815D01*
X241703Y18876D01*
X24142Y188477D01*
X241364Y188394D01*
X241345Y188297D01*
Y18804D01*
X241144D01*
Y187754D01*
X240916D01*
X240886Y187777D01*
X240809Y18781D01*
X240726Y18782D01*
X240646D01*
Y188802D01*
X240627Y188899D01*
X240572Y188982D01*
X240469Y189085D01*
X240386Y18914D01*
X240289Y189159D01*
X238739D01*
X238729Y189208D01*
X23875Y189217D01*
X238853Y189296D01*
X238933Y1894D01*
X238983Y18952D01*
X239Y18965D01*
X238983Y189779D01*
X238933Y189899D01*
X238853Y190003D01*
X23875Y190082D01*
X238629Y190132D01*
X2385Y190149D01*
X238371Y190132D01*
X23825Y190082D01*
X23818Y190028D01*
X238156Y19004D01*
Y19004D01*
X238156Y19004D01*
X23725D01*
Y19098D01*
X236655D01*
Y191919D01*
X236787D01*
Y193323D01*
X236655D01*
Y19338D01*
X23666D01*
Y194108D01*
X237886D01*
Y194564D01*
X237936D01*
Y194614D01*
X238372D01*
Y19502D01*
X238372D01*
Y195033D01*
X238408Y195069D01*
X23853D01*
X238549Y195063D01*
X238684Y19505D01*
X23882Y195063D01*
X238839Y195069D01*
X238996D01*
Y19502D01*
D02*
G37*
G36*
X234944Y196278D02*
X235236D01*
Y195795D01*
X235928D01*
Y195745D01*
X235978D01*
Y195053D01*
X23662D01*
Y195457D01*
X236669Y195469D01*
X236728Y195359D01*
X236778Y195298D01*
Y195273D01*
X236793Y195195D01*
X236837Y195128D01*
X236903Y195084D01*
X236977Y19507D01*
X236972Y19502D01*
X236634D01*
Y194961D01*
X235748D01*
Y194167D01*
Y193903D01*
X235706Y193875D01*
X235629Y193907D01*
X235535Y19392D01*
X235441Y193907D01*
X235353Y193871D01*
X235278Y193813D01*
X23522Y193738D01*
X235184Y193651D01*
X235172Y193557D01*
X235182Y19348D01*
Y193323D01*
X235107D01*
Y191919D01*
X235882D01*
Y192614D01*
X235888Y192661D01*
Y19338D01*
X236145D01*
Y193323D01*
X236013D01*
Y191919D01*
X236145D01*
Y19098D01*
X23555D01*
Y189576D01*
X236264D01*
X236286Y189532D01*
X236286Y189531D01*
X236249Y189444D01*
X236237Y18935D01*
X236249Y189256D01*
X236286Y189168D01*
X236343Y189093D01*
X236418Y189035D01*
X236506Y188999D01*
X236576Y18899D01*
X236589Y188941D01*
X236543Y188906D01*
X236486Y188831D01*
X236449Y188744D01*
X236443Y1887D01*
X237157D01*
X237151Y188744D01*
X237133Y188787D01*
X237174Y188815D01*
X237244Y188745D01*
Y188459D01*
X238156D01*
Y18865D01*
X239448D01*
X239464Y188602D01*
X239461Y1886D01*
X239403Y188525D01*
X239367Y188437D01*
X239355Y188343D01*
X239355Y188341D01*
X238268Y187255D01*
X237413D01*
X237391Y187299D01*
X237421Y187339D01*
X237453Y187417D01*
X237464Y1875D01*
X237453Y187583D01*
X237421Y18766D01*
X23737Y187726D01*
X237304Y187777D01*
X237226Y18781D01*
X237143Y18782D01*
X236474D01*
X236391Y18781D01*
X236314Y187777D01*
X236284Y187754D01*
X23625D01*
X236152Y187735D01*
X23607Y18768D01*
X23582Y18743D01*
X235765Y187347D01*
X235745Y18725D01*
Y18553D01*
X235699Y185511D01*
X235674Y185536D01*
X235656Y185548D01*
Y185746D01*
Y186093D01*
X234744D01*
Y185746D01*
Y184959D01*
X235495D01*
Y18484D01*
X234744D01*
Y184821D01*
X234703Y184793D01*
X2347Y184794D01*
X234606Y184806D01*
X234512Y184794D01*
X234453Y18477D01*
X234412Y184797D01*
Y195745D01*
X234409Y195759D01*
X234425Y195884D01*
X234479Y196014D01*
X234564Y196125D01*
X234676Y19621D01*
X234805Y196264D01*
X234931Y19628D01*
X234944Y196278D01*
D02*
G37*
%LPC*%
G36*
X240102Y193877D02*
Y193571D01*
X240409D01*
X240403Y193615D01*
X240367Y193702D01*
X240309Y193777D01*
X240234Y193835D01*
X240146Y193871D01*
X240102Y193877D01*
D02*
G37*
G36*
X237693Y193323D02*
X237356D01*
Y192671D01*
X237693D01*
Y193323D01*
D02*
G37*
G36*
X23515Y18654D02*
X234744D01*
Y186193D01*
X23515D01*
Y18654D01*
D02*
G37*
G36*
X240002Y193877D02*
X239958Y193871D01*
X239871Y193835D01*
X239796Y193777D01*
X239738Y193702D01*
X239702Y193615D01*
X239696Y193571D01*
X240002D01*
Y193877D01*
D02*
G37*
G36*
Y193471D02*
X239696D01*
X239702Y193427D01*
X239738Y193339D01*
X239796Y193264D01*
X239871Y193206D01*
X239958Y19317D01*
X240002Y193164D01*
Y193471D01*
D02*
G37*
G36*
X235878Y195695D02*
X235236D01*
Y195053D01*
X235878D01*
Y195695D01*
D02*
G37*
G36*
X238372Y194514D02*
X237986D01*
Y194108D01*
X238372D01*
Y194514D01*
D02*
G37*
G36*
X239382D02*
X238996D01*
Y194108D01*
X239382D01*
Y194514D01*
D02*
G37*
G36*
X235656Y18654D02*
X23525D01*
Y186193D01*
X235656D01*
Y18654D01*
D02*
G37*
G36*
X238995Y193145D02*
X238005D01*
Y192154D01*
X238296D01*
X238306Y192105D01*
X23825Y192082D01*
X238147Y192003D01*
X238067Y191899D01*
X238017Y191779D01*
X238Y19165D01*
X238017Y19152D01*
X238067Y1914D01*
X238147Y191296D01*
X23825Y191217D01*
X238353Y191175D01*
Y191125D01*
X23825Y191082D01*
X238147Y191003D01*
X238067Y190899D01*
X238017Y190779D01*
X238Y19065D01*
X238017Y19052D01*
X238067Y1904D01*
X238147Y190296D01*
X23825Y190217D01*
X238371Y190167D01*
X2385Y19015D01*
X238629Y190167D01*
X23875Y190217D01*
X238853Y190296D01*
X238933Y1904D01*
X238983Y19052D01*
X239Y19065D01*
X238983Y190779D01*
X238933Y190899D01*
X238853Y191003D01*
X23875Y191082D01*
X238647Y191125D01*
Y191175D01*
X23875Y191217D01*
X238853Y191296D01*
X238933Y1914D01*
X238983Y19152D01*
X239Y19165D01*
X238983Y191779D01*
X238933Y191899D01*
X238853Y192003D01*
X23875Y192082D01*
X238694Y192105D01*
X238704Y192154D01*
X238995D01*
Y193145D01*
D02*
G37*
G36*
X237157Y1886D02*
X23685D01*
Y188293D01*
X236894Y188299D01*
X236982Y188335D01*
X237057Y188393D01*
X237114Y188468D01*
X237151Y188556D01*
X237157Y1886D01*
D02*
G37*
G36*
X237256Y192571D02*
X236919D01*
Y191919D01*
X237256D01*
Y192571D01*
D02*
G37*
G36*
X240409Y193471D02*
X240102D01*
Y193164D01*
X240146Y19317D01*
X240234Y193206D01*
X240309Y193264D01*
X240367Y193339D01*
X240403Y193427D01*
X240409Y193471D01*
D02*
G37*
G36*
X237256Y193323D02*
X236919D01*
Y192671D01*
X237256D01*
Y193323D01*
D02*
G37*
G36*
X239361Y187356D02*
X239317Y18735D01*
X239229Y187314D01*
X239154Y187256D01*
X239096Y187181D01*
X23906Y187094D01*
X239054Y18705D01*
X239361D01*
Y187356D01*
D02*
G37*
G36*
X23675Y1886D02*
X236443D01*
X236449Y188556D01*
X236486Y188468D01*
X236543Y188393D01*
X236618Y188335D01*
X236706Y188299D01*
X23675Y188293D01*
Y1886D01*
D02*
G37*
G36*
X237693Y192571D02*
X237356D01*
Y191919D01*
X237693D01*
Y192571D01*
D02*
G37*
%LPD*%
D10*
X2377Y188856D02*
D03*
Y189643D02*
D03*
X2416Y186856D02*
D03*
Y187643D02*
D03*
X2352Y186143D02*
D03*
Y185356D02*
D03*
Y183656D02*
D03*
Y184443D02*
D03*
X236204Y193776D02*
D03*
Y194564D02*
D03*
X242Y182256D02*
D03*
Y183043D02*
D03*
X241165Y193776D02*
D03*
Y194564D02*
D03*
X242415Y189367D02*
D03*
Y18858D02*
D03*
X242208Y194544D02*
D03*
Y193757D02*
D03*
D11*
X236809Y1875D02*
D03*
Y187D02*
D03*
Y1865D02*
D03*
Y186D02*
D03*
Y1855D02*
D03*
Y185D02*
D03*
Y1845D02*
D03*
Y184D02*
D03*
Y1835D02*
D03*
Y183D02*
D03*
X240391Y1875D02*
D03*
Y187D02*
D03*
Y1865D02*
D03*
Y186D02*
D03*
Y1855D02*
D03*
Y185D02*
D03*
Y1845D02*
D03*
Y184D02*
D03*
Y1835D02*
D03*
Y183D02*
D03*
D12*
X235006Y18275D02*
D03*
X235794D02*
D03*
D13*
X2364Y190278D02*
D03*
D14*
X235494Y192621D02*
D03*
X2364D02*
D03*
X237306D02*
D03*
D15*
X23707Y194564D02*
D03*
X237936D02*
D03*
X239432D02*
D03*
X240298D02*
D03*
D16*
X23945Y185D02*
X240391D01*
X23845Y1855D02*
X240391D01*
X2384Y18545D02*
X23845Y1855D01*
X242Y183043D02*
X242094D01*
X23765Y186D02*
X23804Y18561D01*
X236809Y186D02*
X23765D01*
X239505Y181044D02*
X239795Y180754D01*
X240205D01*
X2407Y18125D01*
X241D01*
X241894Y18215D02*
X242Y182256D01*
X236809Y1855D02*
X23755D01*
X23779Y18526D01*
X2425Y18755D02*
Y18765D01*
X240391Y187D02*
X241456D01*
X2416Y186856D01*
X240391Y1875D02*
X241456D01*
X2416Y187643D01*
X23625Y1875D02*
X236809D01*
X23804Y18501D02*
Y18561D01*
Y18501D02*
X2387Y18435D01*
X23779Y18476D02*
X2384Y18415D01*
X23779Y18476D02*
Y18526D01*
X236809Y1845D02*
X23745D01*
X2378Y18415D01*
X237706Y18965D02*
X2385D01*
X236Y18225D02*
X237Y18125D01*
X236Y18225D02*
Y18725D01*
X23625Y1875D01*
X235006Y18275D02*
Y183462D01*
X2352Y183656D01*
Y185356D02*
X235494D01*
X23575Y1851D01*
Y184D02*
Y1851D01*
X235406Y183656D02*
X23575Y184D01*
X2352Y183656D02*
X235406D01*
X2352Y186143D02*
Y18725D01*
X2358Y18785D02*
X2363D01*
X2368Y18835D01*
Y18865D01*
X234606Y184443D02*
X2352D01*
X2353D01*
X235494Y192621D02*
X235535Y192661D01*
X2364Y190278D02*
Y192621D01*
X238684Y18647D02*
X238714Y1865D01*
X240391D01*
X239411Y187D02*
X240391D01*
Y186D02*
X24164D01*
X236236Y190114D02*
X2364Y190278D01*
X235818Y1901D02*
X235991D01*
X237306Y192621D02*
Y193018D01*
X2352Y18725D02*
X2358Y18785D01*
X2421Y18715D02*
X2425Y18755D01*
X24164Y186D02*
X2421Y186459D01*
Y18715D01*
X242493Y186743D02*
X2426Y18685D01*
X240391Y1845D02*
X240992D01*
X242493Y186001D01*
Y186743D01*
X236809Y183D02*
X237404D01*
X2387Y183652D02*
Y18435D01*
Y183652D02*
X24Y182352D01*
Y18125D02*
Y182352D01*
X2384Y183578D02*
Y18415D01*
Y183578D02*
X239505Y182474D01*
Y181044D02*
Y182474D01*
X237404Y183D02*
X238241Y182162D01*
X239044D01*
X2364Y18995D02*
X2366Y18975D01*
X2364Y18995D02*
Y190278D01*
X2366Y18935D02*
Y18975D01*
X242Y182256D02*
X242449D01*
X242769Y181936D01*
X242094Y183043D02*
X2427Y18365D01*
X242662Y183688D02*
X2427Y18365D01*
X242543Y183688D02*
X242662D01*
X241165Y19356D02*
Y193776D01*
Y19356D02*
X241489Y193235D01*
X241765D01*
X242011Y192989D01*
Y192084D02*
X24207D01*
X242011D02*
Y192989D01*
X240391Y1875D02*
Y188802D01*
X240289Y188904D02*
X240391Y188802D01*
X2366Y18975D02*
X237445Y188904D01*
X238374Y187D02*
X239718Y188343D01*
X236809Y187D02*
X238374D01*
X2416Y187643D02*
Y188297D01*
X241883Y18858D01*
X242415D01*
X242208Y193708D02*
Y193757D01*
Y193708D02*
X242818Y193097D01*
Y190873D02*
Y193097D01*
X242415Y190469D02*
X242818Y190873D01*
X242415Y189367D02*
Y190469D01*
X2364Y192621D02*
Y19358D01*
X236204Y193776D02*
X2364Y19358D01*
X236236Y190114D02*
X2364Y18995D01*
X237445Y188904D02*
X240289D01*
X237306Y193018D02*
X237789Y193501D01*
X237936Y19354D02*
Y194564D01*
X239432Y193511D02*
Y194564D01*
X236204D02*
X23707D01*
X237789Y193501D02*
X240052D01*
X24144Y195745D02*
X242208Y194977D01*
Y194544D02*
Y194977D01*
X240298Y194564D02*
X241165D01*
D17*
X235535Y192661D02*
Y193557D01*
D18*
X235928Y197674D02*
D03*
X237306D02*
D03*
X238684D02*
D03*
X240062D02*
D03*
X24144D02*
D03*
D19*
X2415Y18965D02*
D03*
Y19065D02*
D03*
Y19165D02*
D03*
Y19265D02*
D03*
X2385Y18965D02*
D03*
Y19065D02*
D03*
Y19165D02*
D03*
X242Y18125D02*
D03*
X241D02*
D03*
X24D02*
D03*
X239D02*
D03*
X238D02*
D03*
D20*
X2385Y19265D02*
D03*
X2356Y18145D02*
D03*
X237Y18125D02*
D03*
D21*
X24144Y195745D02*
D03*
X238684D02*
D03*
X240062D02*
D03*
X237306D02*
D03*
D22*
X235928D02*
D03*
D23*
X23945Y185D02*
D03*
X2384Y18545D02*
D03*
X24259Y18685D02*
D03*
X2425Y18765D02*
D03*
X2378Y18415D02*
D03*
X234606Y184443D02*
D03*
X2366Y18935D02*
D03*
X2368Y18865D02*
D03*
X235535Y193557D02*
D03*
X238684Y18647D02*
D03*
X239411Y187D02*
D03*
X240052Y193521D02*
D03*
X239044Y182162D02*
D03*
X242769Y181936D02*
D03*
X242582Y183688D02*
D03*
X242011Y192084D02*
D03*
X239718Y188343D02*
D03*
X242415Y190469D02*
D03*
M02*
