%FSTAX24Y24*%
%MOIN*%
G70*
G01*
G75*
G04 Layer_Color=8421504*
%ADD10R,0.0512X0.0394*%
%ADD11O,0.0906X0.0236*%
%ADD12R,0.0394X0.0512*%
%ADD13R,0.1299X0.1004*%
%ADD14R,0.0374X0.1004*%
%ADD15R,0.0472X0.0512*%
%ADD16C,0.0100*%
%ADD17C,0.0300*%
%ADD18R,0.0650X0.4803*%
%ADD19C,0.0591*%
%ADD20R,0.0591X0.0591*%
%ADD21C,0.0984*%
%ADD22R,0.0984X0.0984*%
%ADD23C,0.0320*%
%ADD24R,0.0984X0.0512*%
%ADD25R,0.0374X0.0315*%
%ADD26R,0.0630X0.0630*%
%ADD27R,0.0709X0.0709*%
%ADD28C,0.0236*%
%ADD29C,0.0098*%
%ADD30C,0.0079*%
%ADD31C,0.0040*%
%ADD32C,0.0039*%
D10*
X2377Y188856D02*
D03*
Y189643D02*
D03*
X2416Y186856D02*
D03*
Y187643D02*
D03*
X2352Y186143D02*
D03*
Y185356D02*
D03*
Y183656D02*
D03*
Y184443D02*
D03*
X236204Y193776D02*
D03*
Y194564D02*
D03*
X242Y182256D02*
D03*
Y183043D02*
D03*
X241165Y193776D02*
D03*
Y194564D02*
D03*
X242415Y189367D02*
D03*
Y18858D02*
D03*
X242208Y194544D02*
D03*
Y193757D02*
D03*
D11*
X236809Y1875D02*
D03*
Y187D02*
D03*
Y1865D02*
D03*
Y186D02*
D03*
Y1855D02*
D03*
Y185D02*
D03*
Y1845D02*
D03*
Y184D02*
D03*
Y1835D02*
D03*
Y183D02*
D03*
X240391Y1875D02*
D03*
Y187D02*
D03*
Y1865D02*
D03*
Y186D02*
D03*
Y1855D02*
D03*
Y185D02*
D03*
Y1845D02*
D03*
Y184D02*
D03*
Y1835D02*
D03*
Y183D02*
D03*
D12*
X235006Y18275D02*
D03*
X235794D02*
D03*
D13*
X2364Y190278D02*
D03*
D14*
X235494Y192621D02*
D03*
X2364D02*
D03*
X237306D02*
D03*
D15*
X23707Y194564D02*
D03*
X237936D02*
D03*
X239432D02*
D03*
X240298D02*
D03*
M02*
