%FSTAX24Y24*%
%MOIN*%
G70*
G01*
G75*
G04 Layer_Color=16711935*
%ADD10R,0.0512X0.0394*%
%ADD11O,0.0906X0.0236*%
%ADD12R,0.0394X0.0512*%
%ADD13R,0.1299X0.1004*%
%ADD14R,0.0374X0.1004*%
%ADD15R,0.0472X0.0512*%
%ADD16C,0.0100*%
%ADD17C,0.0300*%
%ADD18R,0.0650X0.4803*%
%ADD19C,0.0591*%
%ADD20R,0.0591X0.0591*%
%ADD21C,0.0984*%
%ADD22R,0.0984X0.0984*%
%ADD23C,0.0320*%
%ADD24R,0.0984X0.0512*%
%ADD25R,0.0374X0.0315*%
%ADD26R,0.0630X0.0630*%
%ADD27R,0.0709X0.0709*%
%ADD28C,0.0236*%
%ADD29C,0.0098*%
%ADD30C,0.0079*%
%ADD31C,0.0040*%
%ADD32C,0.0039*%
%ADD33R,0.0592X0.0474*%
%ADD34O,0.0986X0.0316*%
%ADD35R,0.0474X0.0592*%
%ADD36R,0.1379X0.1084*%
%ADD37R,0.0454X0.1084*%
%ADD38R,0.0552X0.0592*%
%ADD39C,0.0671*%
%ADD40R,0.0671X0.0671*%
%ADD41C,0.1064*%
%ADD42R,0.1064X0.1064*%
%ADD43C,0.0400*%
%ADD44R,0.1064X0.0592*%
%ADD45R,0.0454X0.0395*%
%ADD46R,0.0710X0.0710*%
%ADD47R,0.0789X0.0789*%
D16*
X234944Y196532D02*
G03*
X234157Y195745I0J-000787D01*
G01*
X243212D02*
G03*
X242424Y196532I-000787J0D01*
G01*
Y180391D02*
G03*
X243212Y181178I0J000787D01*
G01*
X234157D02*
G03*
X234944Y180391I000787J0D01*
G01*
X242424D01*
X234157Y181178D02*
Y195745D01*
X243212Y181178D02*
Y195745D01*
X236243Y196532D02*
Y200076D01*
X235613Y196532D02*
Y200076D01*
X236243D01*
X236991D02*
X237621D01*
X236991Y196532D02*
Y200076D01*
X237621Y196532D02*
Y200076D01*
X238369D02*
X238999D01*
X238369Y196532D02*
Y200076D01*
X238999Y196532D02*
Y200076D01*
X239747D02*
X240377D01*
X239747Y196532D02*
Y200076D01*
X240377Y196532D02*
Y200076D01*
X241125D02*
X241755D01*
X241125Y196532D02*
Y200076D01*
X241755Y196532D02*
Y200076D01*
X234944Y196532D02*
X235613D01*
X236243D02*
X236991D01*
X237621D02*
X238369D01*
X238999D02*
X239747D01*
X240377D02*
X241125D01*
X241755D02*
X242424D01*
M02*
