%FSTAX24Y24*%
%MOIN*%
G70*
G01*
G75*
G04 Layer_Color=16711935*
%ADD10R,0.0512X0.0394*%
%ADD11O,0.0906X0.0236*%
%ADD12R,0.0394X0.0512*%
%ADD13R,0.1299X0.1004*%
%ADD14R,0.0374X0.1004*%
%ADD15R,0.0472X0.0512*%
%ADD16C,0.0100*%
%ADD17C,0.0300*%
%ADD18R,0.0650X0.4803*%
%ADD19C,0.0591*%
%ADD20R,0.0591X0.0591*%
%ADD21C,0.0984*%
%ADD22R,0.0984X0.0984*%
%ADD23C,0.0320*%
%ADD24R,0.0984X0.0512*%
%ADD25R,0.0374X0.0315*%
%ADD26R,0.0630X0.0630*%
%ADD27R,0.0709X0.0709*%
%ADD28C,0.0236*%
%ADD29C,0.0098*%
%ADD30C,0.0079*%
%ADD31C,0.0040*%
%ADD32C,0.0039*%
%ADD33R,0.0592X0.0474*%
%ADD34O,0.0986X0.0316*%
%ADD35R,0.0474X0.0592*%
%ADD36R,0.1379X0.1084*%
%ADD37R,0.0454X0.1084*%
%ADD38R,0.0552X0.0592*%
%ADD39C,0.0671*%
%ADD40R,0.0671X0.0671*%
%ADD41C,0.1064*%
%ADD42R,0.1064X0.1064*%
%ADD43C,0.0400*%
%ADD44R,0.1064X0.0592*%
%ADD45R,0.0454X0.0395*%
%ADD46R,0.0710X0.0710*%
%ADD47R,0.0789X0.0789*%
D18*
X235928Y197674D02*
D03*
X237306D02*
D03*
X238684D02*
D03*
X240062D02*
D03*
X24144D02*
D03*
D35*
X239906Y18965D02*
D03*
X240694D02*
D03*
X239906Y19065D02*
D03*
X240694D02*
D03*
X239906Y19265D02*
D03*
X240694D02*
D03*
X239906Y19165D02*
D03*
X240694D02*
D03*
D39*
X2415Y18965D02*
D03*
Y19065D02*
D03*
Y19165D02*
D03*
Y19265D02*
D03*
X2385Y18965D02*
D03*
Y19065D02*
D03*
Y19165D02*
D03*
X242Y18125D02*
D03*
X241D02*
D03*
X24D02*
D03*
X239D02*
D03*
X238D02*
D03*
D40*
X2385Y19265D02*
D03*
X2356Y18145D02*
D03*
X237Y18125D02*
D03*
D41*
X24144Y195745D02*
D03*
X238684D02*
D03*
X240062D02*
D03*
X237306D02*
D03*
D42*
X235928D02*
D03*
D43*
X23945Y185D02*
D03*
X2384Y18545D02*
D03*
X24259Y18685D02*
D03*
X2425Y18765D02*
D03*
X2378Y18415D02*
D03*
X234606Y184443D02*
D03*
X2366Y18935D02*
D03*
X2368Y18865D02*
D03*
X235535Y193557D02*
D03*
X238684Y18647D02*
D03*
X239411Y187D02*
D03*
X240052Y193521D02*
D03*
X239044Y182162D02*
D03*
X242769Y181936D02*
D03*
X242582Y183688D02*
D03*
X242011Y192084D02*
D03*
X239718Y188343D02*
D03*
X242415Y190469D02*
D03*
D44*
X23545Y182887D02*
D03*
Y183675D02*
D03*
Y184462D02*
D03*
Y18525D02*
D03*
Y186037D02*
D03*
Y186824D02*
D03*
Y187612D02*
D03*
X24175Y182887D02*
D03*
Y183675D02*
D03*
Y184462D02*
D03*
Y18525D02*
D03*
Y186037D02*
D03*
Y186824D02*
D03*
Y187612D02*
D03*
D45*
X2368Y191704D02*
D03*
Y190995D02*
D03*
X2359D02*
D03*
Y191704D02*
D03*
D46*
X237582Y190013D02*
D03*
X236243D02*
D03*
X237149Y194387D02*
D03*
X23581D02*
D03*
D47*
X238438Y194338D02*
D03*
X240092D02*
D03*
M02*
