%FSTAX24Y24*%
%MOIN*%
G70*
G01*
G75*
G04 Layer_Physical_Order=2*
G04 Layer_Color=16711680*
%ADD10R,0.0512X0.0394*%
%ADD11O,0.0906X0.0236*%
%ADD12R,0.0394X0.0512*%
%ADD13R,0.1299X0.1004*%
%ADD14R,0.0374X0.1004*%
%ADD15R,0.0472X0.0512*%
%ADD16C,0.0100*%
%ADD17C,0.0300*%
%ADD18R,0.0650X0.4803*%
%ADD19C,0.0591*%
%ADD20R,0.0591X0.0591*%
%ADD21C,0.0984*%
%ADD22R,0.0984X0.0984*%
%ADD23C,0.0320*%
%ADD24R,0.0984X0.0512*%
%ADD25R,0.0374X0.0315*%
%ADD26R,0.0630X0.0630*%
%ADD27R,0.0709X0.0709*%
G36*
X242695Y188907D02*
Y188003D01*
X242654Y187976D01*
X242594Y188D01*
X2425Y188013D01*
X242479Y18801D01*
X242442Y188043D01*
Y188068D01*
X241859D01*
X241844Y188116D01*
X241916Y188163D01*
X242595Y188842D01*
X242647Y188921D01*
X242695Y188907D01*
D02*
G37*
G36*
X234944Y196278D02*
X235236D01*
Y195795D01*
X235928D01*
Y195745D01*
X235978D01*
Y195053D01*
X23662D01*
Y195457D01*
X236669Y195469D01*
X236728Y195359D01*
X236778Y195298D01*
Y195273D01*
X236793Y195195D01*
X236837Y195128D01*
X236903Y195084D01*
X236982Y195069D01*
X237152D01*
X237171Y195063D01*
X237306Y19505D01*
X237442Y195063D01*
X237461Y195069D01*
X237631D01*
X237709Y195084D01*
X237775Y195128D01*
X237819Y195195D01*
X237835Y195273D01*
Y195298D01*
X237885Y195359D01*
X237949Y195479D01*
X23797Y19555D01*
X23802D01*
X238042Y195479D01*
X238106Y195359D01*
X238156Y195298D01*
Y195273D01*
X238171Y195195D01*
X238215Y195128D01*
X238281Y195084D01*
X238359Y195069D01*
X23853D01*
X238549Y195063D01*
X238684Y19505D01*
X23882Y195063D01*
X238839Y195069D01*
X239009D01*
X239087Y195084D01*
X239153Y195128D01*
X239197Y195195D01*
X239213Y195273D01*
Y195298D01*
X239263Y195359D01*
X239327Y195479D01*
X239348Y19555D01*
X239398D01*
X23942Y195479D01*
X239484Y195359D01*
X239533Y195298D01*
Y195273D01*
X239549Y195195D01*
X239593Y195128D01*
X239659Y195084D01*
X239709Y195074D01*
Y194892D01*
X239537D01*
Y193783D01*
X239744D01*
X239766Y193738D01*
X239738Y193702D01*
X239702Y193615D01*
X239696Y193571D01*
X240409D01*
X240403Y193615D01*
X240367Y193702D01*
X240309Y193777D01*
X240311Y193783D01*
X240646D01*
Y194892D01*
X240415D01*
Y195074D01*
X240465Y195084D01*
X240531Y195128D01*
X240575Y195195D01*
X240591Y195273D01*
Y195298D01*
X24064Y195359D01*
X240705Y195479D01*
X240726Y19555D01*
X240776D01*
X240798Y195479D01*
X240862Y195359D01*
X240911Y195298D01*
Y195273D01*
X240927Y195195D01*
X240971Y195128D01*
X241037Y195084D01*
X241115Y195069D01*
X241286D01*
X241304Y195063D01*
X24144Y19505D01*
X241576Y195063D01*
X241595Y195069D01*
X241765D01*
X241843Y195084D01*
X241909Y195128D01*
X241953Y195195D01*
X241969Y195273D01*
Y195298D01*
X242018Y195359D01*
X242083Y195479D01*
X242122Y195609D01*
X242136Y195745D01*
X242122Y195881D01*
X242083Y196011D01*
X242018Y196131D01*
X241969Y196192D01*
Y196278D01*
X242424D01*
X242438Y19628D01*
X242563Y196264D01*
X242693Y19621D01*
X242804Y196125D01*
X242889Y196014D01*
X242943Y195884D01*
X24296Y195759D01*
X242957Y195745D01*
Y191564D01*
X242911Y191544D01*
X242374Y192081D01*
X242374Y192084D01*
X242362Y192178D01*
X242325Y192265D01*
X242268Y19234D01*
X242193Y192398D01*
X242105Y192434D01*
X242011Y192447D01*
X241998Y192445D01*
X241968Y192485D01*
X241983Y19252D01*
X242Y19265D01*
X241983Y192779D01*
X241933Y192899D01*
X241853Y193003D01*
X24175Y193082D01*
X241629Y193132D01*
X2415Y193149D01*
X241371Y193132D01*
X24125Y193082D01*
X241147Y193003D01*
X241138Y192991D01*
X241091Y193007D01*
Y193106D01*
X239956D01*
Y192649D01*
Y192194D01*
X241091D01*
Y192292D01*
X241138Y192308D01*
X241147Y192296D01*
X24125Y192217D01*
X241353Y192175D01*
Y192125D01*
X24125Y192082D01*
X241147Y192003D01*
X241138Y191991D01*
X241091Y192007D01*
Y192106D01*
X239956D01*
Y191649D01*
Y191194D01*
X241091D01*
Y191292D01*
X241138Y191308D01*
X241147Y191296D01*
X24125Y191217D01*
X241353Y191175D01*
Y191125D01*
X24125Y191082D01*
X241147Y191003D01*
X241138Y190991D01*
X241091Y191007D01*
Y191106D01*
X239956D01*
Y19065D01*
Y190194D01*
X241091D01*
Y190292D01*
X241138Y190308D01*
X241147Y190296D01*
X24125Y190217D01*
X241353Y190175D01*
Y190125D01*
X24125Y190082D01*
X241147Y190003D01*
X241138Y189991D01*
X241091Y190007D01*
Y190106D01*
X239956D01*
Y18965D01*
Y189194D01*
X241091D01*
Y189292D01*
X241138Y189308D01*
X241147Y189296D01*
X24125Y189217D01*
X241371Y189167D01*
X2415Y18915D01*
X241629Y189167D01*
X24175Y189217D01*
X241853Y189296D01*
X241933Y1894D01*
X241983Y18952D01*
X242Y18965D01*
X241983Y189779D01*
X241933Y189899D01*
X241853Y190003D01*
X24175Y190082D01*
X241647Y190125D01*
Y190175D01*
X24175Y190217D01*
X241853Y190296D01*
X241933Y1904D01*
X241983Y19052D01*
X242Y19065D01*
X241983Y190779D01*
X241933Y190899D01*
X241853Y191003D01*
X24175Y191082D01*
X241647Y191125D01*
Y191175D01*
X24175Y191217D01*
X241853Y191296D01*
X241933Y1914D01*
X241983Y19152D01*
X242Y19165D01*
X241997Y19167D01*
X242042Y191692D01*
X242695Y191039D01*
Y190764D01*
X24265Y190742D01*
X242596Y190784D01*
X242509Y19082D01*
X242415Y190833D01*
X242321Y19082D01*
X242233Y190784D01*
X242158Y190726D01*
X2421Y190651D01*
X242064Y190563D01*
X242051Y190469D01*
X242064Y190375D01*
X2421Y190288D01*
X242158Y190213D01*
X24216Y190211D01*
Y189128D01*
X24163Y188598D01*
X239976D01*
X239974Y1886D01*
X239899Y188658D01*
X239812Y188694D01*
X239718Y188707D01*
X239624Y188694D01*
X239536Y188658D01*
X239461Y1886D01*
X239403Y188525D01*
X239367Y188437D01*
X239355Y188343D01*
X239367Y188249D01*
X239403Y188162D01*
X239461Y188087D01*
X239536Y188029D01*
X239624Y187993D01*
X239718Y18798D01*
X239812Y187993D01*
X239899Y188029D01*
X239974Y188087D01*
X239976Y188089D01*
X241057D01*
Y188068D01*
X241057D01*
Y187156D01*
Y186369D01*
Y185581D01*
Y184794D01*
Y184006D01*
Y183219D01*
Y182937D01*
X24175D01*
Y182837D01*
X241057D01*
Y182431D01*
D01*
Y182431D01*
X241043Y182417D01*
X239303D01*
X239301Y182419D01*
X239226Y182477D01*
X239138Y182513D01*
X239044Y182525D01*
X23895Y182513D01*
X238863Y182477D01*
X238788Y182419D01*
X23873Y182344D01*
X238694Y182256D01*
X238681Y182162D01*
X238694Y182068D01*
X23873Y181981D01*
X238788Y181906D01*
X238863Y181848D01*
X23895Y181812D01*
X239044Y181799D01*
X239138Y181812D01*
X239226Y181848D01*
X239301Y181906D01*
X239303Y181907D01*
X242247D01*
X242345Y181927D01*
X242363Y181939D01*
X242408Y181918D01*
X242418Y181842D01*
X242454Y181754D01*
X242512Y181679D01*
X242514Y181678D01*
Y181431D01*
X242465Y181421D01*
X242433Y181499D01*
X242353Y181603D01*
X24225Y181682D01*
X242129Y181732D01*
X242Y181749D01*
X241871Y181732D01*
X24175Y181682D01*
X241647Y181603D01*
X241567Y181499D01*
X241525Y181397D01*
X241475D01*
X241433Y181499D01*
X241353Y181603D01*
X24125Y181682D01*
X241129Y181732D01*
X241Y181749D01*
X240871Y181732D01*
X24075Y181682D01*
X240647Y181603D01*
X240567Y181499D01*
X240525Y181397D01*
X240475D01*
X240433Y181499D01*
X240353Y181603D01*
X24025Y181682D01*
X240129Y181732D01*
X24Y181749D01*
X239871Y181732D01*
X23975Y181682D01*
X239647Y181603D01*
X239567Y181499D01*
X239525Y181397D01*
X239475D01*
X239433Y181499D01*
X239353Y181603D01*
X23925Y181682D01*
X239129Y181732D01*
X23905Y181743D01*
Y18125D01*
X23895D01*
Y181743D01*
X238871Y181732D01*
X23875Y181682D01*
X238647Y181603D01*
X238567Y181499D01*
X238525Y181397D01*
X238475D01*
X238433Y181499D01*
X238353Y181603D01*
X238255Y181678D01*
Y18265D01*
X238235Y182747D01*
X23818Y18283D01*
X237155Y183855D01*
X237072Y18391D01*
X236975Y18393D01*
X236143D01*
Y184006D01*
Y184412D01*
X23545D01*
Y184512D01*
X236143D01*
Y184794D01*
Y185581D01*
Y185782D01*
X237707D01*
X238037Y185452D01*
X238037Y18545D01*
X238049Y185356D01*
X238086Y185268D01*
X238143Y185193D01*
X238218Y185135D01*
X238306Y185099D01*
X2384Y185086D01*
X238494Y185099D01*
X238582Y185135D01*
X238657Y185193D01*
X238714Y185268D01*
X238728Y185302D01*
X238778Y185312D01*
X239087Y185002D01*
X239087Y185D01*
X239099Y184906D01*
X239136Y184818D01*
X239193Y184743D01*
X239268Y184685D01*
X239356Y184649D01*
X23945Y184636D01*
X239544Y184649D01*
X239632Y184685D01*
X239707Y184743D01*
X239764Y184818D01*
X239801Y184906D01*
X239813Y185D01*
X239801Y185094D01*
X239764Y185181D01*
X239707Y185256D01*
X239632Y185314D01*
X239544Y18535D01*
X23945Y185363D01*
X239448Y185362D01*
X238741Y186069D01*
X238757Y186117D01*
X238778Y186119D01*
X238866Y186156D01*
X238941Y186213D01*
X238999Y186289D01*
X23901Y186316D01*
X239059Y186325D01*
X240045Y185339D01*
Y184855D01*
X239594Y184405D01*
X238058D01*
X238057Y184406D01*
X237982Y184464D01*
X237894Y1845D01*
X2378Y184513D01*
X237706Y1845D01*
X237618Y184464D01*
X237543Y184406D01*
X237486Y184331D01*
X237449Y184244D01*
X237437Y18415D01*
X237449Y184056D01*
X237486Y183968D01*
X237543Y183893D01*
X237618Y183835D01*
X237706Y183799D01*
X2378Y183786D01*
X237894Y183799D01*
X237982Y183835D01*
X238057Y183893D01*
X238058Y183895D01*
X2397D01*
X239798Y183914D01*
X23988Y183969D01*
X24048Y184569D01*
X240536Y184652D01*
X240555Y18475D01*
Y185445D01*
X240555Y185445D01*
X240555Y185445D01*
Y185445D01*
X240555D01*
X240555Y185445D01*
X240536Y185542D01*
X24048Y185625D01*
X239492Y186613D01*
X239505Y186649D01*
X239592Y186685D01*
X239667Y186743D01*
X239725Y186818D01*
X239761Y186906D01*
X239767Y18695D01*
X239411D01*
Y186999D01*
X239361D01*
Y187356D01*
X239317Y18735D01*
X239229Y187314D01*
X239154Y187256D01*
X239096Y187181D01*
X239063Y187101D01*
X239014Y187091D01*
X238755Y18735D01*
Y189221D01*
X238853Y189296D01*
X238933Y1894D01*
X238983Y18952D01*
X239Y18965D01*
X238983Y189779D01*
X238933Y189899D01*
X238853Y190003D01*
X238755Y190078D01*
Y190221D01*
X238853Y190296D01*
X238933Y1904D01*
X238983Y19052D01*
X239Y19065D01*
X238983Y190779D01*
X238933Y190899D01*
X238853Y191003D01*
X238755Y191078D01*
Y191221D01*
X238853Y191296D01*
X238933Y1914D01*
X238983Y19152D01*
X239Y19165D01*
X238983Y191779D01*
X238933Y191899D01*
X238853Y192003D01*
X238755Y192078D01*
Y192154D01*
X238995D01*
Y193145D01*
X238005D01*
Y192154D01*
X238245D01*
Y192078D01*
X238147Y192003D01*
X238067Y191899D01*
X238017Y191779D01*
X238Y19165D01*
X238017Y19152D01*
X238067Y1914D01*
X238147Y191296D01*
X238245Y191221D01*
Y191078D01*
X238147Y191003D01*
X238067Y190899D01*
X238017Y190779D01*
X238Y19065D01*
X238011Y190566D01*
X237978Y190528D01*
X237632D01*
Y190013D01*
Y189498D01*
X238027D01*
X238067Y1894D01*
X238147Y189296D01*
X238245Y189221D01*
Y187335D01*
X238199Y187316D01*
X237723Y187792D01*
X23764Y187847D01*
X237543Y187867D01*
X236143D01*
Y188068D01*
X235144D01*
X235125Y188114D01*
X236106Y189095D01*
X236342D01*
X236343Y189093D01*
X236418Y189035D01*
X236506Y188999D01*
X236576Y18899D01*
X236589Y188941D01*
X236543Y188906D01*
X236486Y188831D01*
X236449Y188744D01*
X236443Y1887D01*
X23675D01*
Y189006D01*
X2368Y189013D01*
X236824Y18901D01*
X236811Y189058D01*
X236857Y189093D01*
X236914Y189168D01*
X236951Y189256D01*
X236963Y18935D01*
X236963Y189352D01*
X23698Y189369D01*
X237036Y189452D01*
X237045Y189498D01*
X237067D01*
Y189498D01*
X237532D01*
Y190013D01*
Y190528D01*
X237067D01*
D01*
X237067D01*
X237055Y19054D01*
Y190638D01*
X237187D01*
Y191346D01*
Y191654D01*
X236413D01*
Y191346D01*
Y190638D01*
X236545D01*
Y190528D01*
X235728D01*
Y189498D01*
X235728Y189498D01*
X235728D01*
X235746Y189456D01*
X234458Y188168D01*
X234412Y188187D01*
Y195745D01*
X234409Y195759D01*
X234425Y195884D01*
X234479Y196014D01*
X234564Y196125D01*
X234676Y19621D01*
X234805Y196264D01*
X234931Y19628D01*
X234944Y196278D01*
D02*
G37*
G36*
X237676Y187118D02*
X237652Y187074D01*
X237625Y187079D01*
X236143D01*
Y187156D01*
Y187357D01*
X237437D01*
X237676Y187118D01*
D02*
G37*
G36*
X234595Y183495D02*
X234677Y183439D01*
X234758Y183423D01*
Y183219D01*
Y182431D01*
X235345D01*
Y181945D01*
X235105D01*
Y180954D01*
X236095D01*
Y181945D01*
X235855D01*
Y182431D01*
X236143D01*
Y183219D01*
Y18342D01*
X236869D01*
X237745Y182544D01*
Y181678D01*
X237647Y181603D01*
X237567Y181499D01*
X237544Y181444D01*
X237495Y181453D01*
Y181745D01*
X236505D01*
Y180754D01*
X237495D01*
Y181046D01*
X237544Y181056D01*
X237567Y181D01*
X237647Y180896D01*
X23775Y180817D01*
X237871Y180767D01*
X238Y18075D01*
X238123Y180766D01*
X238197Y180692D01*
X238178Y180646D01*
X234944D01*
X234931Y180643D01*
X234805Y180659D01*
X234676Y180713D01*
X234564Y180798D01*
X234479Y18091D01*
X234425Y181039D01*
X234409Y181164D01*
X234412Y181178D01*
Y183612D01*
X234458Y183631D01*
X234595Y183495D01*
D02*
G37*
G36*
X237751Y186338D02*
X237732Y186292D01*
X236143D01*
Y186369D01*
Y18657D01*
X23752D01*
X237751Y186338D01*
D02*
G37*
%LPC*%
G36*
X237157Y1886D02*
X23685D01*
Y188293D01*
X236894Y188299D01*
X236982Y188335D01*
X237057Y188393D01*
X237114Y188468D01*
X237151Y188556D01*
X237157Y1886D01*
D02*
G37*
G36*
X23675D02*
X236443D01*
X236449Y188556D01*
X236486Y188468D01*
X236543Y188393D01*
X236618Y188335D01*
X236706Y188299D01*
X23675Y188293D01*
Y1886D01*
D02*
G37*
G36*
X23685Y189006D02*
Y1887D01*
X237157D01*
X237151Y188744D01*
X237114Y188831D01*
X237057Y188906D01*
X236982Y188964D01*
X236894Y189D01*
X23685Y189006D01*
D02*
G37*
G36*
X239856Y190106D02*
X239509D01*
Y1897D01*
X239856D01*
Y190106D01*
D02*
G37*
G36*
Y1896D02*
X239509D01*
Y189194D01*
X239856D01*
Y1896D01*
D02*
G37*
G36*
X236325Y194902D02*
X23586D01*
Y194437D01*
X236325D01*
Y194902D01*
D02*
G37*
G36*
X235878Y195695D02*
X235236D01*
Y195053D01*
X235878D01*
Y195695D01*
D02*
G37*
G36*
X239461Y187356D02*
Y18705D01*
X239767D01*
X239761Y187094D01*
X239725Y187181D01*
X239667Y187256D01*
X239592Y187314D01*
X239505Y18735D01*
X239461Y187356D01*
D02*
G37*
G36*
X237664Y194902D02*
X236634D01*
Y193967D01*
X236576Y19391D01*
X236325D01*
Y194337D01*
X235295D01*
Y193872D01*
X235295D01*
X235295Y193827D01*
X235278Y193813D01*
X23522Y193738D01*
X235184Y193651D01*
X235172Y193557D01*
X235184Y193463D01*
X235201Y193421D01*
Y191076D01*
X23522Y190979D01*
X235276Y190896D01*
X235357Y190815D01*
X235439Y19076D01*
X235513Y190745D01*
Y190638D01*
X236287D01*
Y191346D01*
Y191654D01*
X2359D01*
Y191704D01*
X23585D01*
Y192061D01*
X235711D01*
Y193204D01*
X236722D01*
X236814Y193216D01*
X236899Y193251D01*
X236972Y193307D01*
X236972Y193307D01*
X236972Y193307D01*
X237398Y193734D01*
X237398Y193734D01*
X237455Y193807D01*
X237481Y193872D01*
X237664D01*
Y193985D01*
X237884D01*
Y193783D01*
X238993D01*
Y194892D01*
X237884D01*
Y194691D01*
X237664D01*
Y194902D01*
D02*
G37*
G36*
X23576D02*
X235295D01*
Y194437D01*
X23576D01*
Y194902D01*
D02*
G37*
G36*
X239856Y1906D02*
X239509D01*
Y190194D01*
X239856D01*
Y1906D01*
D02*
G37*
G36*
X237187Y192061D02*
X23685D01*
Y191754D01*
X237187D01*
Y192061D01*
D02*
G37*
G36*
X23675D02*
X236413D01*
Y191754D01*
X23675D01*
Y192061D01*
D02*
G37*
G36*
X239856Y1926D02*
X239509D01*
Y192194D01*
X239856D01*
Y1926D01*
D02*
G37*
G36*
X240002Y193471D02*
X239696D01*
X239702Y193427D01*
X239738Y193339D01*
X239796Y193264D01*
X239871Y193206D01*
X239958Y19317D01*
X240002Y193164D01*
Y193471D01*
D02*
G37*
G36*
X239856Y193106D02*
X239509D01*
Y1927D01*
X239856D01*
Y193106D01*
D02*
G37*
G36*
Y1916D02*
X239509D01*
Y191194D01*
X239856D01*
Y1916D01*
D02*
G37*
G36*
Y191106D02*
X239509D01*
Y1907D01*
X239856D01*
Y191106D01*
D02*
G37*
G36*
X240409Y193471D02*
X240102D01*
Y193164D01*
X240146Y19317D01*
X240234Y193206D01*
X240309Y193264D01*
X240367Y193339D01*
X240403Y193427D01*
X240409Y193471D01*
D02*
G37*
G36*
X236287Y192061D02*
X23595D01*
Y191754D01*
X236287D01*
Y192061D01*
D02*
G37*
G36*
X239856Y192106D02*
X239509D01*
Y1917D01*
X239856D01*
Y192106D01*
D02*
G37*
%LPD*%
D12*
X239906Y18965D02*
D03*
X240694D02*
D03*
X239906Y19065D02*
D03*
X240694D02*
D03*
X239906Y19265D02*
D03*
X240694D02*
D03*
X239906Y19165D02*
D03*
X240694D02*
D03*
D16*
X237625Y186824D02*
X23945Y185D01*
X23545Y186824D02*
X237625D01*
X237813Y186037D02*
X2384Y18545D01*
X23545Y186037D02*
X237813D01*
X2356Y18145D02*
Y182738D01*
X23545Y182887D02*
X2356Y182738D01*
X242575Y186824D02*
X2426Y18685D01*
X24175Y186824D02*
X242575D01*
X241787Y18765D02*
X2425D01*
X24175Y187612D02*
X241787Y18765D01*
X23545Y183675D02*
X236975D01*
X238Y18265D01*
Y18125D02*
Y18265D01*
X24175Y183675D02*
X242675D01*
X238Y18125D02*
X2385Y18075D01*
X234775Y183675D02*
X23545D01*
X2346Y18385D02*
X234775Y183675D01*
X2378Y18415D02*
X2397D01*
X2403Y18475D01*
X2385Y18965D02*
Y19065D01*
Y19165D01*
Y19265D01*
X236Y18935D02*
X2366D01*
X2367Y18875D02*
X2368Y18865D01*
X2346Y18795D02*
X236Y18935D01*
X240694Y19265D02*
X2415D01*
X240694Y19165D02*
X2415D01*
X240694Y19065D02*
X2415D01*
X240694Y18965D02*
X2415D01*
X2359Y191704D02*
X2368D01*
X239906Y19265D02*
X240062Y192806D01*
X239906Y18965D02*
Y19065D01*
Y19165D01*
Y19265D01*
X236927Y18865D02*
X2377Y189423D01*
X2368Y18865D02*
X236927D01*
X2366Y18935D02*
X2368Y18955D01*
X235537Y190995D02*
X2359D01*
X23545Y187612D02*
X237543D01*
X238684Y18647D01*
X2403Y18475D02*
Y185445D01*
X240653Y182887D02*
X24175D01*
X236243Y190013D02*
X2368D01*
Y18955D02*
Y190013D01*
Y190995D01*
X2377Y192822D02*
X238241Y193363D01*
X240062Y192806D02*
Y193363D01*
X2368Y191704D02*
X2377D01*
Y192822D01*
X238596Y181654D02*
X239Y18125D01*
X238596Y181654D02*
Y182881D01*
X238363Y182887D02*
X240653D01*
X2385Y18075D02*
X242429D01*
X242769Y181089D01*
Y181936D01*
X239044Y182162D02*
X242247D01*
X24175Y186037D02*
X242319D01*
X242572Y183572D02*
X242675Y183675D01*
X242572Y183572D02*
Y185784D01*
X242319Y186037D02*
X242572Y185784D01*
X242247Y182162D02*
X24295Y182865D01*
Y191144D01*
X239906Y189111D02*
Y18965D01*
X238989Y187421D02*
Y188194D01*
X239906Y189111D01*
X2385Y187245D02*
X2403Y185445D01*
X2385Y187245D02*
Y18965D01*
X239718Y188343D02*
X241735D01*
X242415Y189023D01*
Y190469D01*
X238989Y187421D02*
X239411Y187D01*
X240653Y185757D01*
Y182887D02*
Y185757D01*
X242011Y192084D02*
X24295Y191144D01*
X2346Y18385D02*
Y18795D01*
X235456Y191076D02*
Y193478D01*
X235535Y193557D01*
X235456Y191076D02*
X235537Y190995D01*
X235928Y195745D02*
X236726Y194948D01*
X238989D01*
X239324Y194613D01*
Y193363D02*
Y194613D01*
X238241Y193363D02*
X239324D01*
X2377Y189423D02*
Y191704D01*
X239324Y193363D02*
X240062D01*
X23545Y184462D02*
X236788D01*
X238363Y182887D01*
D17*
X240062Y194367D02*
Y195745D01*
X237198Y194338D02*
X238438D01*
X237149Y193983D02*
Y194387D01*
X236722Y193557D02*
X237149Y193983D01*
X235535Y193557D02*
X236722D01*
X23581Y194387D02*
Y195627D01*
D18*
X235928Y197674D02*
D03*
X237306D02*
D03*
X238684D02*
D03*
X240062D02*
D03*
X24144D02*
D03*
D19*
X2415Y18965D02*
D03*
Y19065D02*
D03*
Y19165D02*
D03*
Y19265D02*
D03*
X2385Y18965D02*
D03*
Y19065D02*
D03*
Y19165D02*
D03*
X242Y18125D02*
D03*
X241D02*
D03*
X24D02*
D03*
X239D02*
D03*
X238D02*
D03*
D20*
X2385Y19265D02*
D03*
X2356Y18145D02*
D03*
X237Y18125D02*
D03*
D21*
X24144Y195745D02*
D03*
X238684D02*
D03*
X240062D02*
D03*
X237306D02*
D03*
D22*
X235928D02*
D03*
D23*
X23945Y185D02*
D03*
X2384Y18545D02*
D03*
X24259Y18685D02*
D03*
X2425Y18765D02*
D03*
X2378Y18415D02*
D03*
X234606Y184443D02*
D03*
X2366Y18935D02*
D03*
X2368Y18865D02*
D03*
X235535Y193557D02*
D03*
X238684Y18647D02*
D03*
X239411Y187D02*
D03*
X240052Y193521D02*
D03*
X239044Y182162D02*
D03*
X242769Y181936D02*
D03*
X242582Y183688D02*
D03*
X242011Y192084D02*
D03*
X239718Y188343D02*
D03*
X242415Y190469D02*
D03*
D24*
X23545Y182887D02*
D03*
Y183675D02*
D03*
Y184462D02*
D03*
Y18525D02*
D03*
Y186037D02*
D03*
Y186824D02*
D03*
Y187612D02*
D03*
X24175Y182887D02*
D03*
Y183675D02*
D03*
Y184462D02*
D03*
Y18525D02*
D03*
Y186037D02*
D03*
Y186824D02*
D03*
Y187612D02*
D03*
D25*
X2368Y191704D02*
D03*
Y190995D02*
D03*
X2359D02*
D03*
Y191704D02*
D03*
D26*
X237582Y190013D02*
D03*
X236243D02*
D03*
X237149Y194387D02*
D03*
X23581D02*
D03*
D27*
X238438Y194338D02*
D03*
X240092D02*
D03*
M02*
