M48
;Layer_Color=9474304
;FILE_FORMAT=2:4
INCH,LZ
;TYPE=PLATED
T1F00S00C0.0160
T2F00S00C0.0280
T3F00S00C0.0315
T4F00S00C0.0400
T5F00S00C0.0551
T6F00S00C0.0709
T7F00S00C0.1378
%
T01
X0325Y02075
X03445Y02465
X03656Y02399
X037Y02435
X0396Y02465
X04005Y0242
Y0234
X03935
X04085
X04055Y02465
X04005Y0226
X04Y02025
X0393Y01975
X04115Y0204
X04185
X04395Y0214
X0459Y02115
Y02185
X0418Y0275
X04125Y02795
X041Y02685
X03955Y0296
X036496Y02815
X0359Y0279
X03895Y03865
X0412Y0385
Y0378
X04165Y0371
Y0392
X0412Y0399
X04165Y0406
Y0413
X0412Y042
X0406Y0425
X04295Y043
X03925Y04509
X04305Y04725
T02
X0355Y0262
X0334Y02905
X03025Y02435
X017381Y01811
X022703Y034252
X02899Y03424
X02887Y04212
X022571Y042063
X03499Y03729
X03597Y03731
X036958Y03729
X037938Y03731
X03705Y0337
X03625
X03475Y0338
T03
X040551Y048819
X041339
X042126
X042913
T04
X031995Y017717
Y018717
X032995
Y017717
X030995
Y018717
X029995
Y017717
X028995
Y018717
T05
X046654Y025984
Y027953
Y029921
X0174Y025
X01494Y03462
X024192Y041605
X025192
X026192
X027192
X030392
X031392
X032392
X033392
X046654Y040748
Y03878
Y036811
Y034843
Y032874
Y042717
Y044685
Y046654
X037598Y049606
X03563
X020276
X018307
T06
X035835Y044094
X037394
T07
X046457Y01811
X014961
X046457Y049606
X014961
M30
