%FSTAX24Y24*%
%MOIN*%
G70*
G01*
G75*
G04 Layer_Physical_Order=1*
G04 Layer_Color=255*
%ADD10R,0.0512X0.0394*%
%ADD11R,0.0256X0.0472*%
%ADD12R,0.0394X0.0512*%
%ADD13R,0.0709X0.0709*%
%ADD14O,0.0906X0.0236*%
%ADD15R,0.0984X0.0512*%
%ADD16R,0.0374X0.0315*%
%ADD17R,0.0630X0.0630*%
%ADD18R,0.0945X0.0236*%
%ADD19O,0.0945X0.0236*%
%ADD20R,0.1004X0.1299*%
%ADD21R,0.1004X0.0374*%
%ADD22R,0.0472X0.0512*%
%ADD23R,0.0394X0.0591*%
%ADD24O,0.0394X0.0591*%
%ADD25C,0.0100*%
%ADD26C,0.0250*%
%ADD27C,0.0600*%
%ADD28C,0.0300*%
%ADD29C,0.0400*%
%ADD30C,0.0060*%
%ADD31C,0.0080*%
%ADD32C,0.0591*%
%ADD33R,0.0591X0.0591*%
%ADD34C,0.1800*%
%ADD35R,0.0591X0.0591*%
G04:AMPARAMS|DCode=36|XSize=37.4mil|YSize=57.1mil|CornerRadius=0mil|HoleSize=0mil|Usage=FLASHONLY|Rotation=10.000|XOffset=0mil|YOffset=0mil|HoleType=Round|Shape=Round|*
%AMOVALD36*
21,1,0.0197,0.0374,0.0000,0.0000,100.0*
1,1,0.0374,0.0017,-0.0097*
1,1,0.0374,-0.0017,0.0097*
%
%ADD36OVALD36*%

G04:AMPARAMS|DCode=37|XSize=37.4mil|YSize=57.1mil|CornerRadius=0mil|HoleSize=0mil|Usage=FLASHONLY|Rotation=345.000|XOffset=0mil|YOffset=0mil|HoleType=Round|Shape=Round|*
%AMOVALD37*
21,1,0.0197,0.0374,0.0000,0.0000,75.0*
1,1,0.0374,-0.0025,-0.0095*
1,1,0.0374,0.0025,0.0095*
%
%ADD37OVALD37*%

%ADD38C,0.0984*%
%ADD39R,0.0984X0.0984*%
%ADD40C,0.0709*%
%ADD41C,0.0320*%
%ADD42C,0.0500*%
G36*
X193244Y152497D02*
Y151709D01*
X193372D01*
Y151328D01*
X1929D01*
X192858Y151322D01*
X192815Y151317D01*
X192776Y1513D01*
X192736Y151284D01*
X192698Y151254D01*
X192668Y151232D01*
X192227Y150791D01*
X191744D01*
Y15072D01*
X191715Y150717D01*
X191636Y150684D01*
X191598Y150654D01*
X191568Y150632D01*
X191345Y150409D01*
X191296Y150419D01*
X191293Y150427D01*
X191221Y150521D01*
X191127Y150593D01*
X191017Y150638D01*
X1909Y150654D01*
X190783Y150638D01*
X190673Y150593D01*
X190579Y150521D01*
X190507Y150427D01*
X190462Y150317D01*
X190446Y1502D01*
X190462Y150083D01*
X190507Y149973D01*
X190572Y149888D01*
Y149671D01*
X190557D01*
X190474Y14966D01*
X190396Y149628D01*
X19033Y149577D01*
X190279Y14951D01*
X190247Y149433D01*
X190236Y14935D01*
X190247Y149267D01*
X190279Y14919D01*
X19033Y149123D01*
Y149077D01*
X190279Y14901D01*
X190247Y148933D01*
X190242Y1489D01*
X19154D01*
X191536Y148933D01*
X191504Y14901D01*
X191453Y149077D01*
Y149123D01*
X191504Y14919D01*
X191536Y149267D01*
X191547Y14935D01*
X191536Y149433D01*
X191504Y14951D01*
X191453Y149577D01*
X191452Y149589D01*
X191698Y149834D01*
X191744Y149815D01*
Y149656D01*
X1922D01*
Y149606D01*
X19225D01*
Y149209D01*
X192284D01*
X192303Y149163D01*
X191744Y148605D01*
X191495D01*
X191473Y14865D01*
X191504Y14869D01*
X191536Y148767D01*
X19154Y1488D01*
X190242D01*
X190247Y148767D01*
X190279Y14869D01*
X19033Y148623D01*
Y148577D01*
X190279Y14851D01*
X190247Y148433D01*
X190236Y14835D01*
X190247Y148267D01*
X190279Y14819D01*
X19033Y148123D01*
Y148077D01*
X190279Y14801D01*
X190247Y147933D01*
X190236Y14785D01*
X190247Y147767D01*
X190279Y14769D01*
X19033Y147623D01*
Y147577D01*
X190279Y14751D01*
X190247Y147433D01*
X190236Y14735D01*
X190247Y147267D01*
X190279Y14719D01*
X19033Y147123D01*
Y147077D01*
X190279Y14701D01*
X190247Y146933D01*
X190236Y14685D01*
X190247Y146767D01*
X190279Y14669D01*
X19033Y146623D01*
Y146577D01*
X190279Y14651D01*
X190247Y146433D01*
X190236Y14635D01*
X190247Y146267D01*
X190279Y14619D01*
X19033Y146123D01*
Y146077D01*
X190279Y14601D01*
X190247Y145933D01*
X190236Y14585D01*
X190247Y145767D01*
X190279Y14569D01*
X19033Y145623D01*
Y145577D01*
X190279Y14551D01*
X190247Y145433D01*
X190236Y14535D01*
X190247Y145267D01*
X190279Y14519D01*
X190309Y14515D01*
X190287Y145105D01*
X190156D01*
X190155Y145106D01*
Y151294D01*
X191499Y152639D01*
X193244D01*
Y152497D01*
D02*
G37*
G36*
X186709Y153056D02*
X186709D01*
Y15265D01*
X187106D01*
Y1526D01*
X187156D01*
Y152144D01*
X187639D01*
Y152056D01*
X186709D01*
Y151928D01*
X186349D01*
X186294Y151951D01*
X1862Y151963D01*
X186106Y151951D01*
X186018Y151914D01*
X185943Y151857D01*
X185886Y151782D01*
X185849Y151694D01*
X185837Y1516D01*
X185849Y151506D01*
X185886Y151418D01*
X185943Y151343D01*
X186018Y151286D01*
X186106Y151249D01*
X1862Y151237D01*
X186294Y151249D01*
X186349Y151272D01*
X186709D01*
Y151144D01*
X187639D01*
Y151056D01*
X186709D01*
Y150144D01*
X186851D01*
Y149794D01*
X186871Y149696D01*
X186872Y149694D01*
X186858Y149646D01*
X186814Y149628D01*
X186784Y149605D01*
X18635D01*
X186252Y149585D01*
X18617Y14953D01*
X18522Y14858D01*
X185203Y148555D01*
X185155Y148569D01*
Y1531D01*
X186709D01*
Y153056D01*
D02*
G37*
G36*
X202362Y150367D02*
X202315Y150348D01*
X200898Y151765D01*
X200917Y151812D01*
X202362D01*
Y150367D01*
D02*
G37*
G36*
X195209Y150544D02*
X196045D01*
Y148142D01*
X195143D01*
Y148219D01*
Y149006D01*
Y149918D01*
X194547D01*
X194537Y149967D01*
X194582Y149986D01*
X194657Y150043D01*
X194714Y150118D01*
X194751Y150206D01*
X194763Y1503D01*
X194751Y150394D01*
X194714Y150482D01*
X194657Y150557D01*
X194582Y150614D01*
X194494Y150651D01*
X1944Y150663D01*
X194409Y150672D01*
X195209D01*
Y150544D01*
D02*
G37*
G36*
X201872Y149864D02*
Y149763D01*
X201831Y149736D01*
X201794Y149751D01*
X2017Y149763D01*
X201606Y149751D01*
X201518Y149714D01*
X201487Y14969D01*
X201442Y149712D01*
Y149918D01*
X200057D01*
Y149006D01*
Y148219D01*
Y147431D01*
Y146644D01*
Y146363D01*
X201442D01*
Y146644D01*
Y147431D01*
Y147588D01*
X201487Y14761D01*
X201518Y147586D01*
X201606Y147549D01*
X2017Y147537D01*
X201794Y147549D01*
X201831Y147564D01*
X201872Y147537D01*
Y145853D01*
X201442D01*
Y145857D01*
Y146263D01*
X200057D01*
Y145857D01*
Y145069D01*
Y144282D01*
X200397D01*
Y143395D01*
X200305D01*
Y142405D01*
X201295D01*
Y143395D01*
X201103D01*
Y144282D01*
X201442D01*
Y145069D01*
Y145197D01*
X201872D01*
Y140736D01*
X199568Y138432D01*
X199516Y138364D01*
X1995Y138324D01*
X199483Y138285D01*
X199478Y138242D01*
X199472Y1382D01*
Y137791D01*
X198644D01*
Y137722D01*
X198556D01*
Y137791D01*
X197644D01*
Y137594D01*
X197613Y137574D01*
X197229Y137189D01*
X197174Y137107D01*
X197154Y137009D01*
Y135432D01*
X197097Y135357D01*
X197058Y135263D01*
X197015Y135106D01*
X196966Y135112D01*
Y13865D01*
X196947Y138748D01*
X196891Y13883D01*
X196809Y138885D01*
X196711Y138905D01*
X190806D01*
X190708Y138885D01*
X190625Y13883D01*
X19057Y138748D01*
X190551Y13865D01*
Y134605D01*
X185155D01*
Y140731D01*
X185203Y140745D01*
X18522Y14072D01*
X185405Y140535D01*
Y139905D01*
X185696D01*
X185706Y139856D01*
X18565Y139833D01*
X185547Y139753D01*
X185467Y13965D01*
X185417Y139529D01*
X1854Y1394D01*
X185417Y139271D01*
X185467Y13915D01*
X185547Y139047D01*
X18565Y138967D01*
X185753Y138925D01*
Y138875D01*
X18565Y138833D01*
X185547Y138753D01*
X185467Y13865D01*
X185417Y138529D01*
X185407Y13845D01*
X1859D01*
Y13835D01*
X185407D01*
X185417Y138271D01*
X185467Y13815D01*
X185547Y138047D01*
X18565Y137967D01*
X185753Y137925D01*
Y137875D01*
X18565Y137833D01*
X185547Y137753D01*
X185467Y13765D01*
X185417Y137529D01*
X1854Y1374D01*
X185417Y137271D01*
X185467Y13715D01*
X185547Y137047D01*
X18565Y136967D01*
X185753Y136925D01*
Y136875D01*
X18565Y136833D01*
X185547Y136753D01*
X185467Y13665D01*
X185417Y136529D01*
X1854Y1364D01*
X185417Y136271D01*
X185467Y13615D01*
X185547Y136047D01*
X18565Y135967D01*
X185753Y135925D01*
Y135875D01*
X18565Y135833D01*
X185547Y135753D01*
X185467Y13565D01*
X185417Y135529D01*
X1854Y1354D01*
X185417Y135271D01*
X185467Y13515D01*
X185547Y135047D01*
X18565Y134967D01*
X185771Y134917D01*
X1859Y1349D01*
X186029Y134917D01*
X18615Y134967D01*
X186253Y135047D01*
X186333Y13515D01*
X186383Y135271D01*
X1864Y1354D01*
X186383Y135529D01*
X186333Y13565D01*
X186253Y135753D01*
X18615Y135833D01*
X186047Y135875D01*
Y135925D01*
X18615Y135967D01*
X186253Y136047D01*
X186333Y13615D01*
X186383Y136271D01*
X1864Y1364D01*
X186383Y136523D01*
X18728Y13742D01*
X187335Y137502D01*
X187355Y1376D01*
Y1416D01*
X187335Y141698D01*
X18728Y14178D01*
X186455Y142606D01*
Y146794D01*
X186623Y146963D01*
X186665Y146935D01*
X186664Y146933D01*
X186653Y14685D01*
X186664Y146767D01*
X186696Y14669D01*
X186747Y146623D01*
Y146577D01*
X186696Y14651D01*
X186664Y146433D01*
X186653Y14635D01*
X186664Y146267D01*
X186696Y14619D01*
X186747Y146123D01*
Y146077D01*
X186696Y14601D01*
X186664Y145933D01*
X186653Y14585D01*
X186664Y145767D01*
X186696Y14569D01*
X186747Y145623D01*
Y145577D01*
X186696Y14551D01*
X186664Y145433D01*
X186653Y14535D01*
X186664Y145267D01*
X186696Y14519D01*
X186747Y145123D01*
Y145077D01*
X186696Y14501D01*
X186664Y144933D01*
X186653Y14485D01*
X186664Y144767D01*
X186696Y14469D01*
X186747Y144623D01*
X186814Y144572D01*
X186891Y14454D01*
X186974Y144529D01*
X187054D01*
Y143952D01*
X187073Y143854D01*
X187128Y143772D01*
X187224Y143676D01*
Y143144D01*
X187309D01*
Y14275D01*
X187706D01*
Y1427D01*
X187756D01*
Y142244D01*
X188891D01*
Y143144D01*
X188963D01*
Y144056D01*
X187565D01*
X187564Y144058D01*
Y144529D01*
X187643D01*
X187726Y14454D01*
X187804Y144572D01*
X18787Y144623D01*
X187921Y14469D01*
X187953Y144767D01*
X187964Y14485D01*
X187953Y144933D01*
X187921Y14501D01*
X18787Y145077D01*
X187876Y145095D01*
X18915D01*
X189248Y145115D01*
X18933Y14517D01*
X189599Y145438D01*
X189645Y145419D01*
Y145D01*
X189645Y145D01*
X189645D01*
X189664Y144902D01*
X18972Y14482D01*
X18987Y14467D01*
X189952Y144615D01*
X19005Y144595D01*
X190366D01*
X190396Y144572D01*
X190474Y14454D01*
X190557Y144529D01*
X191226D01*
X191309Y14454D01*
X191386Y144572D01*
X191453Y144623D01*
X191504Y14469D01*
X191536Y144767D01*
X191547Y14485D01*
X191536Y144933D01*
X191504Y14501D01*
X191453Y145077D01*
Y145123D01*
X191504Y14519D01*
X191536Y145267D01*
X191547Y14535D01*
X191536Y145433D01*
X191504Y14551D01*
X191453Y145577D01*
Y145623D01*
X191504Y14569D01*
X191536Y145767D01*
X191547Y14585D01*
X191536Y145933D01*
X191504Y14601D01*
X191453Y146077D01*
X191459Y146095D01*
X19255D01*
X192648Y146115D01*
X19273Y14617D01*
X19328Y14672D01*
X193335Y146802D01*
X193355Y1469D01*
Y147994D01*
X193712Y148352D01*
X193758Y148332D01*
Y148219D01*
Y147431D01*
Y146644D01*
Y145857D01*
Y145069D01*
Y144788D01*
X195143D01*
Y145069D01*
Y14527D01*
X195925D01*
X196023Y14529D01*
X196105Y145345D01*
X196105Y145345D01*
X196105Y145345D01*
X19648Y14572D01*
X196535Y145802D01*
X196555Y1459D01*
X196555Y1459D01*
X196555Y1459D01*
Y1459D01*
Y150544D01*
X196791D01*
Y151372D01*
X200364D01*
X201872Y149864D01*
D02*
G37*
G36*
X186445Y141194D02*
Y140895D01*
X186395D01*
Y140895D01*
X185765D01*
X185655Y141006D01*
Y141919D01*
X185701Y141938D01*
X186445Y141194D01*
D02*
G37*
G36*
X199212Y153248D02*
X199212Y153248D01*
X199212D01*
Y152067D01*
D01*
X199212Y152067D01*
X199212Y152066D01*
X19918Y152028D01*
X1958D01*
X195715Y152017D01*
X195659Y151993D01*
X195636Y151984D01*
X195607Y151961D01*
X195568Y151932D01*
X195375Y151738D01*
X195322Y15167D01*
X195306Y151631D01*
X19529Y151591D01*
X195284Y151549D01*
X195278Y151506D01*
Y151456D01*
X195209D01*
Y151328D01*
X194028D01*
Y151709D01*
X194156D01*
Y152497D01*
Y153291D01*
X193955D01*
Y153657D01*
X193985Y15368D01*
X194049Y153763D01*
X194067Y153807D01*
X19578D01*
X195807Y153765D01*
X195791Y153726D01*
X195772Y153581D01*
X195791Y153437D01*
X195847Y153302D01*
X195936Y153186D01*
X196052Y153097D01*
X196187Y153041D01*
X196332Y153022D01*
X196476Y153041D01*
X196611Y153097D01*
X196727Y153186D01*
X196816Y153302D01*
X196872Y153437D01*
X196891Y153581D01*
X196872Y153726D01*
X196816Y153861D01*
X196727Y153977D01*
X196611Y154066D01*
Y154082D01*
X196727Y15417D01*
X196816Y154286D01*
X196872Y154421D01*
X196891Y154566D01*
X196872Y15471D01*
X196816Y154845D01*
X196727Y154961D01*
X196611Y15505D01*
X196476Y155106D01*
X196332Y155125D01*
X196187Y155106D01*
X196052Y15505D01*
X195936Y154961D01*
X195847Y154845D01*
X195791Y15471D01*
X195772Y154566D01*
X195791Y154421D01*
X195818Y154358D01*
X19579Y154316D01*
X194067D01*
X194049Y15436D01*
X193985Y154443D01*
X193902Y154506D01*
X193806Y154546D01*
X193702Y15456D01*
X193598Y154546D01*
X193502Y154506D01*
X193419Y154443D01*
X193355Y15436D01*
X193315Y154263D01*
X193302Y15416D01*
Y153963D01*
X193315Y153859D01*
X193355Y153763D01*
X193419Y15368D01*
X193445Y15366D01*
Y153291D01*
X193244D01*
Y153149D01*
X191474D01*
X191455Y153195D01*
X192271Y154011D01*
X192317Y153992D01*
Y153963D01*
X192331Y153859D01*
X192371Y153763D01*
X192435Y15368D01*
X192518Y153616D01*
X192614Y153576D01*
X192668Y153569D01*
Y154061D01*
Y154554D01*
X192614Y154546D01*
X192518Y154506D01*
X192435Y154443D01*
X192402Y154401D01*
X192355Y154417D01*
Y156358D01*
X192402Y156374D01*
X192415Y156357D01*
X192498Y156294D01*
X192594Y156254D01*
X192648Y156246D01*
Y156739D01*
X192698D01*
Y156789D01*
X193098D01*
Y156837D01*
X193087Y156927D01*
X193131Y156949D01*
X193305Y156775D01*
Y156243D01*
X194099D01*
Y157234D01*
X193567D01*
X193403Y157398D01*
X193422Y157444D01*
X193991D01*
Y157645D01*
X195751D01*
X195784Y157608D01*
X195772Y157519D01*
X195791Y157374D01*
X195847Y157239D01*
X195936Y157123D01*
X19603Y157051D01*
Y157001D01*
X195936Y15693D01*
X195847Y156814D01*
X195791Y156679D01*
X195772Y156534D01*
X195791Y15639D01*
X195847Y156255D01*
X195936Y156139D01*
X196052Y15605D01*
X196187Y155994D01*
X196332Y155975D01*
X196476Y155994D01*
X196611Y15605D01*
X196727Y156139D01*
X196816Y156255D01*
X196872Y15639D01*
X196891Y156534D01*
X196872Y156679D01*
X196816Y156814D01*
X196727Y15693D01*
X196611Y157018D01*
Y157034D01*
X196727Y157123D01*
X196816Y157239D01*
X196872Y157374D01*
X196891Y157519D01*
X196872Y157663D01*
X196816Y157798D01*
X196727Y157914D01*
X196611Y158003D01*
X196476Y158059D01*
X196332Y158078D01*
X196187Y158059D01*
X196162Y158048D01*
X19613Y15808D01*
X196048Y158135D01*
X19595Y158155D01*
X193991D01*
Y158356D01*
D01*
Y158356D01*
X194013Y158378D01*
X199212D01*
Y153248D01*
D02*
G37*
G36*
X191746Y165592D02*
X191947D01*
Y165479D01*
X191907Y165427D01*
X191862Y165317D01*
X191846Y1652D01*
X191862Y165083D01*
X191872Y165058D01*
X19183Y16503D01*
X191088Y165772D01*
X191107Y165819D01*
X191746D01*
Y165592D01*
D02*
G37*
G36*
X191845Y154419D02*
Y154306D01*
X189601Y152062D01*
X189555Y152081D01*
Y152194D01*
X191799Y154438D01*
X191845Y154419D01*
D02*
G37*
G36*
X188972Y168864D02*
Y167954D01*
X188926Y167934D01*
X188239Y168621D01*
Y168829D01*
X188339D01*
X188422Y16884D01*
X188499Y168872D01*
X188565Y168923D01*
X188616Y16899D01*
X188649Y169067D01*
X188655Y169118D01*
X188703Y169134D01*
X188972Y168864D01*
D02*
G37*
G36*
X188714Y14809D02*
Y147306D01*
X188513Y147105D01*
X187913D01*
X187891Y14715D01*
X187921Y14719D01*
X187953Y147267D01*
X187964Y14735D01*
X187953Y147433D01*
X187921Y14751D01*
X18787Y147577D01*
Y147623D01*
X187921Y14769D01*
X187953Y147767D01*
X187964Y14785D01*
X187953Y147933D01*
X187921Y14801D01*
X18787Y148077D01*
X187876Y148095D01*
X188142D01*
X188143Y148093D01*
X188218Y148036D01*
X188306Y147999D01*
X1884Y147987D01*
X188494Y147999D01*
X188582Y148036D01*
X188657Y148093D01*
X188666Y148106D01*
X188714Y14809D01*
D02*
G37*
G36*
X198644Y136997D02*
Y136209D01*
X198945D01*
Y135738D01*
X198488Y135282D01*
X198401Y135293D01*
X1983Y13528D01*
X198236Y135254D01*
X198194Y135308D01*
X198113Y135371D01*
X198065Y13539D01*
X19794Y134924D01*
X197844Y13495D01*
X197969Y135416D01*
X197918Y135423D01*
X197817Y13541D01*
X197753Y135383D01*
X197711Y135438D01*
X197664Y135474D01*
Y136209D01*
X19805D01*
Y136606D01*
X1981D01*
Y136656D01*
X198556D01*
Y136997D01*
Y137066D01*
X198644D01*
Y136997D01*
D02*
G37*
G36*
X199545Y1354D02*
X199564Y135302D01*
X19962Y13522D01*
X200169Y13467D01*
X200169D01*
X200169Y13467D01*
X200169Y13467D01*
Y13467D01*
X200196Y134653D01*
X200181Y134605D01*
X198766D01*
X198735Y134645D01*
X198778Y134802D01*
X198785Y134857D01*
X19938Y135453D01*
X199436Y135535D01*
X199455Y135633D01*
X199455Y135633D01*
X199455Y135633D01*
Y135633D01*
Y136209D01*
X199545D01*
Y1354D01*
D02*
G37*
G36*
X200944Y136997D02*
Y136209D01*
X201145D01*
Y1358D01*
X201145Y1358D01*
X201145D01*
X201164Y135702D01*
X20122Y13562D01*
X201374Y135466D01*
X201356Y135419D01*
X201401Y135421D01*
X201485Y134946D01*
X201386Y134929D01*
X201302Y135404D01*
X201253Y135388D01*
X201167Y135333D01*
X201121Y135282D01*
X201059Y135314D01*
X20096Y135336D01*
X200858Y135332D01*
X200761Y135301D01*
X200675Y135247D01*
X200606Y135171D01*
X200572Y135105D01*
X200455D01*
X200055Y135506D01*
Y136209D01*
X20035D01*
Y136606D01*
X2004D01*
Y136656D01*
X200856D01*
Y136997D01*
Y137066D01*
X200944D01*
Y136997D01*
D02*
G37*
G36*
X202362Y140233D02*
Y135099D01*
X202312Y135094D01*
X202295Y135189D01*
X202265Y135286D01*
X20221Y135372D01*
X202135Y135441D01*
X202103Y135457D01*
X201655Y135906D01*
Y136209D01*
X201856D01*
Y136997D01*
Y137791D01*
X200944D01*
Y137722D01*
X200856D01*
Y137791D01*
X200128D01*
Y138064D01*
X202315Y140252D01*
X202362Y140233D01*
D02*
G37*
G36*
X199212Y15923D02*
X197956D01*
X197937Y159276D01*
X19888Y16022D01*
X198936Y160302D01*
X198955Y1604D01*
X198955Y1604D01*
X198955Y1604D01*
Y1604D01*
Y164009D01*
X199156D01*
Y164797D01*
Y165591D01*
X198244D01*
Y165349D01*
X197991D01*
Y165556D01*
X196856D01*
Y1651D01*
X196806D01*
Y16505D01*
X196409D01*
Y164644D01*
X196498D01*
Y164272D01*
X197154D01*
Y164644D01*
X197246D01*
Y163786D01*
X197902D01*
Y164644D01*
X197991D01*
Y164839D01*
X198244D01*
Y164797D01*
Y164009D01*
X198445D01*
Y160506D01*
X197594Y159655D01*
X1933D01*
X193202Y159635D01*
X19312Y15958D01*
X192401Y158862D01*
X192355Y158881D01*
Y1644D01*
X192335Y164498D01*
X19228Y16458D01*
X19213Y16473D01*
X192158Y164772D01*
X192183Y164762D01*
X192289Y164748D01*
X195272Y161764D01*
Y161047D01*
X195205Y160995D01*
X195116Y16088D01*
X19506Y160745D01*
X195041Y1606D01*
X19506Y160455D01*
X195116Y16032D01*
X195205Y160205D01*
X19532Y160116D01*
X195455Y16006D01*
X1956Y160041D01*
X195745Y16006D01*
X19588Y160116D01*
X195995Y160205D01*
X196047Y160272D01*
X196646D01*
Y159992D01*
X197754D01*
Y161101D01*
X196646D01*
Y160928D01*
X196047D01*
X195995Y160995D01*
X195928Y161047D01*
Y1619D01*
X195928Y1619D01*
X195928Y1619D01*
Y1619D01*
X195928D01*
X195928Y1619D01*
X195917Y161985D01*
X195884Y162064D01*
X195832Y162132D01*
X192752Y165211D01*
X192738Y165317D01*
X192693Y165427D01*
X192653Y165479D01*
Y165592D01*
X192854D01*
Y166701D01*
X191746D01*
Y166474D01*
X191189D01*
X189628Y168036D01*
Y169D01*
X189628Y169D01*
X189628Y169D01*
Y169D01*
X189628D01*
X189628Y169D01*
X189617Y169085D01*
X189584Y169164D01*
X189532Y169232D01*
X188882Y169882D01*
X188814Y169934D01*
X188774Y16995D01*
X188735Y169967D01*
X188692Y169972D01*
X18865Y169978D01*
X188616Y16999D01*
X188616D01*
X188649Y170067D01*
X188659Y17015D01*
X188649Y170233D01*
X188616Y17031D01*
X188565Y170377D01*
Y170423D01*
X188616Y17049D01*
X188649Y170567D01*
X188653Y1706D01*
X187984D01*
Y17065D01*
X187934D01*
Y170971D01*
X18763D01*
X187547Y17096D01*
X187469Y170928D01*
X187403Y170877D01*
X187375Y170841D01*
X187328Y170857D01*
Y171064D01*
X187707Y171443D01*
X187759Y171511D01*
X187791Y17159D01*
X187803Y171675D01*
Y172166D01*
X187828Y172186D01*
X187907Y172289D01*
X187957Y17241D01*
X187974Y172539D01*
X187957Y172668D01*
X187907Y172789D01*
X187828Y172892D01*
X187725Y172972D01*
X187604Y173022D01*
X187475Y173039D01*
X187346Y173022D01*
X187225Y172972D01*
X187122Y172892D01*
X187042Y172789D01*
X187019Y172733D01*
X18697Y172743D01*
Y173034D01*
X18598D01*
Y172044D01*
X186147D01*
Y171611D01*
X185784Y171248D01*
X185732Y17118D01*
X185715Y17114D01*
X185699Y171101D01*
X185694Y171058D01*
X185688Y171016D01*
Y170968D01*
X185343D01*
Y170332D01*
X185347D01*
X185375Y17029D01*
X185351Y170233D01*
X185341Y17015D01*
X185351Y170067D01*
X185384Y16999D01*
X185435Y169923D01*
Y169877D01*
X185384Y16981D01*
X185351Y169733D01*
X185341Y16965D01*
X185351Y169567D01*
X185384Y16949D01*
X185435Y169423D01*
Y169377D01*
X185384Y16931D01*
X185351Y169233D01*
X185341Y16915D01*
X185351Y169067D01*
X185384Y16899D01*
X185435Y168923D01*
X185501Y168872D01*
X185578Y16884D01*
X185661Y168829D01*
X18637D01*
X186453Y16884D01*
X186531Y168872D01*
X186551Y168888D01*
X191445Y163994D01*
Y159675D01*
X191404Y159647D01*
X191394Y159651D01*
X19135Y159657D01*
Y1593D01*
X1913D01*
Y15925D01*
X190943D01*
X190949Y159206D01*
X190986Y159118D01*
X191043Y159043D01*
X191118Y158986D01*
X191206Y158949D01*
X191223Y158947D01*
X191239Y1589D01*
X19122Y15888D01*
X191164Y158798D01*
X191145Y1587D01*
Y155106D01*
X188788Y152749D01*
X188733Y152666D01*
X188714Y152569D01*
Y14911D01*
X188666Y149094D01*
X188657Y149107D01*
X188582Y149164D01*
X188494Y149201D01*
X1884Y149213D01*
X188306Y149201D01*
X188218Y149164D01*
X188143Y149107D01*
X188142Y149105D01*
X187913D01*
X187891Y14915D01*
X187921Y14919D01*
X187953Y149267D01*
X187964Y14935D01*
X187953Y149433D01*
X187921Y14951D01*
X18787Y149577D01*
X187804Y149628D01*
X187726Y14966D01*
X187643Y149671D01*
X187548D01*
X187544Y149689D01*
X187489Y149772D01*
X187361Y149899D01*
Y150144D01*
X188291D01*
Y151056D01*
X188149D01*
Y151144D01*
X188291D01*
Y152056D01*
X188149D01*
Y152144D01*
X188291D01*
Y153056D01*
X188291D01*
Y153065D01*
X188326Y1531D01*
X1886D01*
X1905Y155D01*
Y164D01*
X1884Y1661D01*
X185155D01*
Y173465D01*
X193813D01*
Y173304D01*
X1942D01*
Y173204D01*
X193813D01*
Y173193D01*
X192469D01*
Y172418D01*
X193582D01*
X193668Y172333D01*
X193648Y172287D01*
X192469D01*
Y172253D01*
X191531D01*
Y17275D01*
X19095D01*
X19065Y17305D01*
X190577Y173106D01*
X190491Y173141D01*
X1904Y173153D01*
X190076D01*
Y173256D01*
X188337D01*
Y172344D01*
X188409D01*
Y171444D01*
X189544D01*
Y1719D01*
X189594D01*
Y17195D01*
X189991D01*
Y172344D01*
X190076D01*
Y172447D01*
X190127D01*
Y17105D01*
X190476D01*
Y170479D01*
X190436Y170427D01*
X19039Y170317D01*
X190375Y1702D01*
X19039Y170083D01*
X190436Y169973D01*
X190508Y169879D01*
X190602Y169807D01*
X190711Y169762D01*
X190829Y169746D01*
X190946Y169762D01*
X191056Y169807D01*
X19115Y169879D01*
X191222Y169973D01*
X191267Y170083D01*
X191283Y1702D01*
X191267Y170317D01*
X191222Y170427D01*
X191182Y170479D01*
Y17105D01*
X191531D01*
Y171547D01*
X192469D01*
Y171513D01*
X193688D01*
X193696Y171505D01*
X193769Y171449D01*
X193813Y171431D01*
X193803Y171381D01*
X193221D01*
Y170994D01*
Y170607D01*
X193873D01*
Y170688D01*
X19415D01*
Y171046D01*
X1942D01*
Y171096D01*
X194587D01*
Y171397D01*
Y171401D01*
X196685D01*
Y171354D01*
X197715D01*
Y172384D01*
X196685D01*
Y172107D01*
X194587D01*
Y172112D01*
X194087D01*
X19405Y17215D01*
X194063Y172188D01*
X194587D01*
Y172193D01*
X195346D01*
X195437Y172205D01*
X195522Y17224D01*
X195536Y172251D01*
X195617Y172262D01*
X195727Y172307D01*
X195821Y172379D01*
X195893Y172473D01*
X195938Y172583D01*
X195947Y172647D01*
X197554D01*
X197985Y172216D01*
Y171354D01*
X199015D01*
Y172384D01*
X1988D01*
X1988Y172384D01*
X19875Y17245D01*
X19795Y17325D01*
X197877Y173306D01*
X197791Y173341D01*
X1977Y173353D01*
X1958D01*
X195709Y173341D01*
X195623Y173306D01*
X19555Y17325D01*
X195448Y173147D01*
X195395Y17314D01*
X19536Y173175D01*
X195357Y17315D01*
X195D01*
Y17325D01*
X195357D01*
X195351Y173294D01*
X195314Y173382D01*
X195257Y173457D01*
X19526Y173465D01*
X199212D01*
Y15923D01*
D02*
G37*
G36*
X186727Y14905D02*
X186696Y14901D01*
X186664Y148933D01*
X186653Y14885D01*
X186664Y148767D01*
X186696Y14869D01*
X186747Y148623D01*
Y148577D01*
X186696Y14851D01*
X186664Y148433D01*
X186653Y14835D01*
X186664Y148267D01*
X186696Y14819D01*
X186727Y14815D01*
X186705Y148105D01*
X18625D01*
X186152Y148085D01*
X18607Y14803D01*
X185701Y147662D01*
X185655Y147681D01*
Y148294D01*
X186456Y149095D01*
X186705D01*
X186727Y14905D01*
D02*
G37*
G36*
X196045Y146006D02*
X19582Y14578D01*
X195143D01*
Y145857D01*
Y146644D01*
Y147431D01*
Y147633D01*
X196045D01*
Y146006D01*
D02*
G37*
G36*
X193758Y149132D02*
Y149006D01*
Y14893D01*
X193675D01*
X193577Y14891D01*
X193495Y148855D01*
X19292Y14828D01*
X192864Y148198D01*
X192845Y1481D01*
Y147006D01*
X1928Y146961D01*
X192753Y146977D01*
X192751Y146994D01*
X192714Y147082D01*
X192657Y147157D01*
X192582Y147214D01*
X192494Y147251D01*
X1924Y147263D01*
X192306Y147251D01*
X19226Y147232D01*
X192201Y147256D01*
X192213Y14735D01*
X192201Y147444D01*
X192164Y147532D01*
X192132Y147574D01*
X192148Y147615D01*
X19223Y14767D01*
X193712Y149152D01*
X193758Y149132D01*
D02*
G37*
%LPC*%
G36*
X196291Y142256D02*
X195944D01*
Y14185D01*
X196291D01*
Y142256D01*
D02*
G37*
G36*
X193247Y14495D02*
X19285D01*
Y144553D01*
X192917Y144562D01*
X193027Y144607D01*
X193121Y144679D01*
X193193Y144773D01*
X193238Y144883D01*
X193247Y14495D01*
D02*
G37*
G36*
X201201Y14191D02*
X19764D01*
Y141057D01*
X201201D01*
Y14191D01*
D02*
G37*
G36*
X196291Y14175D02*
X195944D01*
Y141344D01*
X196291D01*
Y14175D01*
D02*
G37*
G36*
X187656Y14265D02*
X187309D01*
Y142244D01*
X187656D01*
Y14265D01*
D02*
G37*
G36*
X1944Y144688D02*
X193758D01*
Y144282D01*
X1944D01*
Y144688D01*
D02*
G37*
G36*
X19275Y14495D02*
X192353D01*
X192362Y144883D01*
X192407Y144773D01*
X192479Y144679D01*
X192573Y144607D01*
X192683Y144562D01*
X19275Y144553D01*
Y14495D01*
D02*
G37*
G36*
X195143Y144688D02*
X1945D01*
Y144282D01*
X195143D01*
Y144688D01*
D02*
G37*
G36*
X194Y1433D02*
X193871Y143283D01*
X19375Y143233D01*
X193647Y143153D01*
X193567Y14305D01*
X193517Y142929D01*
X1935Y1428D01*
X193517Y142671D01*
X193567Y14255D01*
X193647Y142447D01*
X19375Y142367D01*
X193853Y142325D01*
Y142275D01*
X19375Y142233D01*
X193647Y142153D01*
X193567Y14205D01*
X193517Y141929D01*
X1935Y1418D01*
X193517Y141671D01*
X193567Y14155D01*
X193647Y141447D01*
X19375Y141367D01*
X193853Y141325D01*
Y141275D01*
X19375Y141233D01*
X193647Y141153D01*
X193567Y14105D01*
X193517Y140929D01*
X1935Y1408D01*
X193517Y140671D01*
X193567Y14055D01*
X193647Y140447D01*
X19375Y140367D01*
X193853Y140325D01*
Y140275D01*
X19375Y140233D01*
X193647Y140153D01*
X193567Y14005D01*
X193517Y139929D01*
X1935Y1398D01*
X193517Y139671D01*
X193567Y13955D01*
X193647Y139447D01*
X19375Y139367D01*
X193871Y139317D01*
X194Y1393D01*
X194129Y139317D01*
X19425Y139367D01*
X194353Y139447D01*
X194429Y139545D01*
X194709D01*
Y139344D01*
X195844D01*
Y1398D01*
Y140256D01*
X194709D01*
Y140055D01*
X194429D01*
X194353Y140153D01*
X19425Y140233D01*
X194147Y140275D01*
Y140325D01*
X19425Y140367D01*
X194353Y140447D01*
X194429Y140545D01*
X194709D01*
Y140344D01*
X195844D01*
Y1408D01*
Y141256D01*
X194709D01*
Y141055D01*
X194429D01*
X194353Y141153D01*
X19425Y141233D01*
X194147Y141275D01*
Y141325D01*
X19425Y141367D01*
X194353Y141447D01*
X194429Y141545D01*
X194709D01*
Y141344D01*
X195844D01*
Y1418D01*
Y142256D01*
X194709D01*
Y142055D01*
X194429D01*
X194353Y142153D01*
X19425Y142233D01*
X194147Y142275D01*
Y142325D01*
X19425Y142367D01*
X194353Y142447D01*
X194429Y142545D01*
X194709D01*
Y142344D01*
X195844D01*
Y1428D01*
Y143256D01*
X194709D01*
Y143055D01*
X194429D01*
X194353Y143153D01*
X19425Y143233D01*
X194129Y143283D01*
X194Y1433D01*
D02*
G37*
G36*
X196291Y14275D02*
X195944D01*
Y142344D01*
X196291D01*
Y14275D01*
D02*
G37*
G36*
Y143256D02*
X195944D01*
Y14285D01*
X196291D01*
Y143256D01*
D02*
G37*
G36*
X18815Y138757D02*
Y13845D01*
X188457D01*
X188451Y138494D01*
X188414Y138582D01*
X188357Y138657D01*
X188282Y138714D01*
X188194Y138751D01*
X18815Y138757D01*
D02*
G37*
G36*
X18805D02*
X188006Y138751D01*
X187918Y138714D01*
X187843Y138657D01*
X187786Y138582D01*
X187749Y138494D01*
X187743Y13845D01*
X18805D01*
Y138757D01*
D02*
G37*
G36*
X191495Y143295D02*
X190505D01*
Y142305D01*
X190745D01*
Y142229D01*
X190647Y142153D01*
X190567Y14205D01*
X190517Y141929D01*
X1905Y1418D01*
X190517Y141671D01*
X190567Y14155D01*
X190647Y141447D01*
X190745Y141371D01*
Y141229D01*
X190647Y141153D01*
X190567Y14105D01*
X190517Y140929D01*
X1905Y1408D01*
X190517Y140671D01*
X190567Y14055D01*
X190647Y140447D01*
X190745Y140371D01*
Y140229D01*
X190647Y140153D01*
X190567Y14005D01*
X190517Y139929D01*
X1905Y1398D01*
X190517Y139677D01*
X18982Y13898D01*
X189764Y138898D01*
X189745Y1388D01*
Y138391D01*
X189544D01*
Y137597D01*
Y137455D01*
X189458D01*
X189457Y137457D01*
X189382Y137514D01*
X189294Y137551D01*
X1892Y137563D01*
X189106Y137551D01*
X189018Y137514D01*
X188943Y137457D01*
X188886Y137382D01*
X188849Y137294D01*
X188837Y1372D01*
X188849Y137106D01*
X188886Y137018D01*
X188943Y136943D01*
X189018Y136886D01*
X189106Y136849D01*
X1892Y136837D01*
X189294Y136849D01*
X189382Y136886D01*
X189457Y136943D01*
X189458Y136945D01*
X189544D01*
Y136809D01*
X190456D01*
Y137597D01*
Y138391D01*
X190255D01*
Y138694D01*
X190877Y139317D01*
X191Y1393D01*
X191129Y139317D01*
X19125Y139367D01*
X191353Y139447D01*
X191433Y13955D01*
X191483Y139671D01*
X1915Y1398D01*
X191483Y139929D01*
X191433Y14005D01*
X191353Y140153D01*
X191255Y140229D01*
Y140371D01*
X191353Y140447D01*
X191433Y14055D01*
X191483Y140671D01*
X1915Y1408D01*
X191483Y140929D01*
X191433Y14105D01*
X191353Y141153D01*
X191255Y141229D01*
Y141371D01*
X191353Y141447D01*
X191433Y14155D01*
X191483Y141671D01*
X1915Y1418D01*
X191483Y141929D01*
X191433Y14205D01*
X191353Y142153D01*
X191255Y142229D01*
Y142305D01*
X191495D01*
Y143295D01*
D02*
G37*
G36*
X19785Y13975D02*
X197543D01*
X197549Y139706D01*
X197586Y139618D01*
X197643Y139543D01*
X197718Y139486D01*
X197806Y139449D01*
X19785Y139443D01*
Y13975D01*
D02*
G37*
G36*
X196291D02*
X195944D01*
Y139344D01*
X196291D01*
Y13975D01*
D02*
G37*
G36*
X198556Y136556D02*
X19815D01*
Y136209D01*
X198556D01*
Y136556D01*
D02*
G37*
G36*
X189709Y13631D02*
X18694D01*
Y13551D01*
X18684D01*
Y13474D01*
X190401D01*
Y13551D01*
X189709D01*
Y13631D01*
D02*
G37*
G36*
X200856Y136556D02*
X20045D01*
Y136209D01*
X200856D01*
Y136556D01*
D02*
G37*
G36*
X188457Y13835D02*
X18815D01*
Y138043D01*
X188194Y138049D01*
X188282Y138086D01*
X188357Y138143D01*
X188414Y138218D01*
X188451Y138306D01*
X188457Y13835D01*
D02*
G37*
G36*
X18805D02*
X187743D01*
X187749Y138306D01*
X187786Y138218D01*
X187843Y138143D01*
X187918Y138086D01*
X188006Y138049D01*
X18805Y138043D01*
Y13835D01*
D02*
G37*
G36*
X198257Y13975D02*
X19795D01*
Y139443D01*
X197994Y139449D01*
X198082Y139486D01*
X198157Y139543D01*
X198214Y139618D01*
X198251Y139706D01*
X198257Y13975D01*
D02*
G37*
G36*
X20025Y140157D02*
X200206Y140151D01*
X200118Y140114D01*
X200043Y140057D01*
X199986Y139982D01*
X199949Y139894D01*
X199943Y13985D01*
X20025D01*
Y140157D01*
D02*
G37*
G36*
X19795D02*
Y13985D01*
X198257D01*
X198251Y139894D01*
X198214Y139982D01*
X198157Y140057D01*
X198082Y140114D01*
X197994Y140151D01*
X19795Y140157D01*
D02*
G37*
G36*
X20035D02*
Y13985D01*
X200657D01*
X200651Y139894D01*
X200614Y139982D01*
X200557Y140057D01*
X200482Y140114D01*
X200394Y140151D01*
X20035Y140157D01*
D02*
G37*
G36*
X196291Y141256D02*
X195944D01*
Y14085D01*
X196291D01*
Y141256D01*
D02*
G37*
G36*
Y14075D02*
X195944D01*
Y140344D01*
X196291D01*
Y14075D01*
D02*
G37*
G36*
X200657Y13975D02*
X20035D01*
Y139443D01*
X200394Y139449D01*
X200482Y139486D01*
X200557Y139543D01*
X200614Y139618D01*
X200651Y139706D01*
X200657Y13975D01*
D02*
G37*
G36*
X20025D02*
X199943D01*
X199949Y139706D01*
X199986Y139618D01*
X200043Y139543D01*
X200118Y139486D01*
X200206Y139449D01*
X20025Y139443D01*
Y13975D01*
D02*
G37*
G36*
X19038Y142654D02*
X18957D01*
Y13972D01*
X19038D01*
Y142654D01*
D02*
G37*
G36*
X19785Y140157D02*
X197806Y140151D01*
X197718Y140114D01*
X197643Y140057D01*
X197586Y139982D01*
X197549Y139894D01*
X197543Y13985D01*
X19785D01*
Y140157D01*
D02*
G37*
G36*
X196291Y140256D02*
X195944D01*
Y13985D01*
X196291D01*
Y140256D01*
D02*
G37*
G36*
X19845Y170481D02*
X197985D01*
Y170016D01*
X19845D01*
Y170481D01*
D02*
G37*
G36*
X195255Y170914D02*
Y169865D01*
X196305D01*
X196295Y169987D01*
X196255Y170156D01*
X196188Y170315D01*
X196098Y170463D01*
X195985Y170595D01*
X195854Y170707D01*
X195706Y170798D01*
X195546Y170864D01*
X195378Y170904D01*
X195255Y170914D01*
D02*
G37*
G36*
X19715Y170481D02*
X196685D01*
Y170016D01*
X19715D01*
Y170481D01*
D02*
G37*
G36*
X199015Y170481D02*
X19855D01*
Y170016D01*
X199015D01*
Y170481D01*
D02*
G37*
G36*
X194587Y170996D02*
X19425D01*
Y170688D01*
X194462D01*
X194479Y170641D01*
X194425Y170595D01*
X194312Y170463D01*
X194222Y170315D01*
X194156Y170156D01*
X194115Y169987D01*
X194106Y169865D01*
X195155D01*
Y170914D01*
X195033Y170904D01*
X194864Y170864D01*
X194704Y170798D01*
X194631Y170753D01*
X194587Y170777D01*
Y170996D01*
D02*
G37*
G36*
X193955Y168918D02*
X193783Y168904D01*
X193614Y168864D01*
X193454Y168798D01*
X193307Y168707D01*
X193175Y168595D01*
X193062Y168463D01*
X192974Y168319D01*
X192854D01*
Y168354D01*
X191746D01*
Y167246D01*
X192854D01*
Y16731D01*
X192974D01*
X193062Y167166D01*
X193175Y167034D01*
X193307Y166922D01*
X193454Y166831D01*
X193614Y166765D01*
X193783Y166725D01*
X193955Y166711D01*
X194128Y166725D01*
X194296Y166765D01*
X194456Y166831D01*
X194604Y166922D01*
X194735Y167034D01*
X194848Y167166D01*
X194938Y167314D01*
X195005Y167474D01*
X195045Y167642D01*
X195059Y167815D01*
X195045Y167987D01*
X195005Y168156D01*
X194938Y168316D01*
X194848Y168463D01*
X194735Y168595D01*
X194604Y168707D01*
X194456Y168798D01*
X194296Y168864D01*
X194128Y168904D01*
X193955Y168918D01*
D02*
G37*
G36*
X196505Y168914D02*
Y167865D01*
X197555D01*
X197545Y167987D01*
X197505Y168156D01*
X197438Y168316D01*
X197348Y168463D01*
X197235Y168595D01*
X197104Y168707D01*
X196956Y168798D01*
X196796Y168864D01*
X196628Y168904D01*
X196505Y168914D01*
D02*
G37*
G36*
X196305Y169765D02*
X195255D01*
Y168715D01*
X195378Y168725D01*
X195546Y168765D01*
X195706Y168831D01*
X195854Y168922D01*
X195985Y169034D01*
X196098Y169166D01*
X196188Y169314D01*
X196255Y169474D01*
X196295Y169642D01*
X196305Y169765D01*
D02*
G37*
G36*
X195155D02*
X194106D01*
X194115Y169642D01*
X194156Y169474D01*
X194222Y169314D01*
X194312Y169166D01*
X194425Y169034D01*
X194557Y168922D01*
X194704Y168831D01*
X194864Y168765D01*
X195033Y168725D01*
X195155Y168715D01*
Y169765D01*
D02*
G37*
G36*
X188339Y170971D02*
X188034D01*
Y1707D01*
X188653D01*
X188649Y170733D01*
X188616Y17081D01*
X188565Y170877D01*
X188499Y170928D01*
X188422Y17096D01*
X188339Y170971D01*
D02*
G37*
G36*
X193121Y170944D02*
X192469D01*
Y170607D01*
X193121D01*
Y170944D01*
D02*
G37*
G36*
X189991Y17185D02*
X189644D01*
Y171444D01*
X189991D01*
Y17185D01*
D02*
G37*
G36*
X193121Y171381D02*
X192469D01*
Y171044D01*
X193121D01*
Y171381D01*
D02*
G37*
G36*
X197715Y171046D02*
X19725D01*
Y170581D01*
X197715D01*
Y171046D01*
D02*
G37*
G36*
X19845Y171046D02*
X197985D01*
Y170581D01*
X19845D01*
Y171046D01*
D02*
G37*
G36*
X197715Y170481D02*
X19725D01*
Y170016D01*
X197715D01*
Y170481D01*
D02*
G37*
G36*
X19715Y171046D02*
X196685D01*
Y170581D01*
X19715D01*
Y171046D01*
D02*
G37*
G36*
X199015Y171046D02*
X19855D01*
Y170581D01*
X199015D01*
Y171046D01*
D02*
G37*
G36*
X196405Y168914D02*
X196283Y168904D01*
X196114Y168864D01*
X195954Y168798D01*
X195807Y168707D01*
X195675Y168595D01*
X195562Y168463D01*
X195472Y168316D01*
X195406Y168156D01*
X195365Y167987D01*
X195356Y167865D01*
X196405D01*
Y168914D01*
D02*
G37*
G36*
X19825Y1555D02*
X197747D01*
X19776Y155405D01*
X197816Y15527D01*
X197905Y155155D01*
X19802Y155066D01*
X198155Y15501D01*
X19825Y154997D01*
Y1555D01*
D02*
G37*
G36*
X192768Y154554D02*
Y154111D01*
X193118D01*
Y15416D01*
X193104Y154263D01*
X193064Y15436D01*
X193001Y154443D01*
X192918Y154506D01*
X192821Y154546D01*
X192768Y154554D01*
D02*
G37*
G36*
X19825Y156103D02*
X198155Y15609D01*
X19802Y156034D01*
X197905Y155945D01*
X197816Y15583D01*
X19776Y155695D01*
X197747Y1556D01*
X19825D01*
Y156103D01*
D02*
G37*
G36*
X198853Y1555D02*
X19835D01*
Y154997D01*
X198445Y15501D01*
X19858Y155066D01*
X198695Y155155D01*
X198784Y15527D01*
X19884Y155405D01*
X198853Y1555D01*
D02*
G37*
G36*
X193118Y154011D02*
X192768D01*
Y153569D01*
X192821Y153576D01*
X192918Y153616D01*
X193001Y15368D01*
X193064Y153763D01*
X193104Y153859D01*
X193118Y153963D01*
Y154011D01*
D02*
G37*
G36*
X19285Y145447D02*
Y14505D01*
X193247D01*
X193238Y145117D01*
X193193Y145227D01*
X193121Y145321D01*
X193027Y145393D01*
X192917Y145438D01*
X19285Y145447D01*
D02*
G37*
G36*
X19275D02*
X192683Y145438D01*
X192573Y145393D01*
X192479Y145321D01*
X192407Y145227D01*
X192362Y145117D01*
X192353Y14505D01*
X19275D01*
Y145447D01*
D02*
G37*
G36*
X187056Y15255D02*
X186709D01*
Y152144D01*
X187056D01*
Y15255D01*
D02*
G37*
G36*
X19215Y149556D02*
X191744D01*
Y149209D01*
X19215D01*
Y149556D01*
D02*
G37*
G36*
X196756Y165556D02*
X196409D01*
Y16515D01*
X196756D01*
Y165556D01*
D02*
G37*
G36*
X197154Y164172D02*
X196876D01*
Y163786D01*
X197154D01*
Y164172D01*
D02*
G37*
G36*
X197555Y167765D02*
X196505D01*
Y166715D01*
X196628Y166725D01*
X196796Y166765D01*
X196956Y166831D01*
X197104Y166922D01*
X197235Y167034D01*
X197348Y167166D01*
X197438Y167314D01*
X197505Y167474D01*
X197545Y167642D01*
X197555Y167765D01*
D02*
G37*
G36*
X196405D02*
X195356D01*
X195365Y167642D01*
X195406Y167474D01*
X195472Y167314D01*
X195562Y167166D01*
X195675Y167034D01*
X195807Y166922D01*
X195954Y166831D01*
X196114Y166765D01*
X196283Y166725D01*
X196405Y166715D01*
Y167765D01*
D02*
G37*
G36*
X196776Y164172D02*
X196498D01*
Y163786D01*
X196776D01*
Y164172D01*
D02*
G37*
G36*
X193098Y156689D02*
X192748D01*
Y156246D01*
X192802Y156254D01*
X192898Y156294D01*
X192981Y156357D01*
X193045Y15644D01*
X193085Y156537D01*
X193098Y15664D01*
Y156689D01*
D02*
G37*
G36*
X19835Y156103D02*
Y1556D01*
X198853D01*
X19884Y155695D01*
X198784Y15583D01*
X198695Y155945D01*
X19858Y156034D01*
X198445Y15609D01*
X19835Y156103D01*
D02*
G37*
G36*
X1956Y164159D02*
X195455Y16414D01*
X19532Y164084D01*
X195205Y163995D01*
X195116Y16388D01*
X19506Y163745D01*
X195041Y1636D01*
X19506Y163455D01*
X195116Y16332D01*
X195205Y163205D01*
X19532Y163116D01*
X195455Y16306D01*
X1956Y163041D01*
X195684Y163052D01*
X195791Y162946D01*
X195859Y162894D01*
X195938Y162861D01*
X196022Y16285D01*
X196872D01*
Y162754D01*
X196646D01*
Y161646D01*
X197754D01*
Y162754D01*
X197528D01*
Y163614D01*
X196872D01*
Y163505D01*
X196185D01*
X196152Y163543D01*
X196159Y1636D01*
X19614Y163745D01*
X196084Y16388D01*
X195995Y163995D01*
X19588Y164084D01*
X195745Y16414D01*
X1956Y164159D01*
D02*
G37*
G36*
X19125Y159657D02*
X191206Y159651D01*
X191118Y159614D01*
X191043Y159557D01*
X190986Y159482D01*
X190949Y159394D01*
X190943Y15935D01*
X19125D01*
Y159657D01*
D02*
G37*
%LPD*%
D10*
X1937Y152106D02*
D03*
Y152894D02*
D03*
X19Y137206D02*
D03*
Y137994D02*
D03*
X1987Y165194D02*
D03*
Y164406D02*
D03*
X1922Y149606D02*
D03*
Y150394D02*
D03*
X2004Y136606D02*
D03*
Y137394D02*
D03*
X1981Y136606D02*
D03*
Y137394D02*
D03*
X2014D02*
D03*
Y136606D02*
D03*
X1991Y137394D02*
D03*
Y136606D02*
D03*
D11*
X196826Y164222D02*
D03*
X197574D02*
D03*
X1972Y163178D02*
D03*
D12*
X195894Y1398D02*
D03*
X195106D02*
D03*
X195894Y1408D02*
D03*
X195106D02*
D03*
X195894Y1418D02*
D03*
X195106D02*
D03*
X195894Y1428D02*
D03*
X195106D02*
D03*
X196806Y1651D02*
D03*
X197594D02*
D03*
X187106Y1526D02*
D03*
X187894D02*
D03*
Y1516D02*
D03*
X187106D02*
D03*
X187894Y1506D02*
D03*
X187106D02*
D03*
X188806Y1719D02*
D03*
X189594D02*
D03*
X188494Y1427D02*
D03*
X187706D02*
D03*
X195606Y151D02*
D03*
X196394D02*
D03*
X193594Y1579D02*
D03*
X192806D02*
D03*
D13*
X1972Y1622D02*
D03*
Y160546D02*
D03*
X1923Y166146D02*
D03*
Y1678D02*
D03*
D14*
X187309Y14935D02*
D03*
Y14885D02*
D03*
Y14835D02*
D03*
Y14785D02*
D03*
Y14735D02*
D03*
Y14685D02*
D03*
Y14635D02*
D03*
Y14585D02*
D03*
Y14535D02*
D03*
Y14485D02*
D03*
X190891Y14935D02*
D03*
Y14885D02*
D03*
Y14835D02*
D03*
Y14785D02*
D03*
Y14735D02*
D03*
Y14685D02*
D03*
Y14635D02*
D03*
Y14585D02*
D03*
Y14535D02*
D03*
Y14485D02*
D03*
D15*
X20075Y144738D02*
D03*
Y145525D02*
D03*
Y146313D02*
D03*
Y1471D02*
D03*
Y147887D02*
D03*
Y148675D02*
D03*
Y149462D02*
D03*
X19445Y144738D02*
D03*
Y145525D02*
D03*
Y146313D02*
D03*
Y1471D02*
D03*
Y147887D02*
D03*
Y148675D02*
D03*
Y149462D02*
D03*
D16*
X1942Y172546D02*
D03*
Y173254D02*
D03*
Y171046D02*
D03*
Y171754D02*
D03*
D17*
X1985Y171869D02*
D03*
Y170531D02*
D03*
X1972Y170531D02*
D03*
Y171869D02*
D03*
D18*
X186016Y17065D02*
D03*
D19*
Y17015D02*
D03*
Y16965D02*
D03*
Y16915D02*
D03*
X187984Y17065D02*
D03*
Y17015D02*
D03*
Y16965D02*
D03*
Y16915D02*
D03*
D20*
X190829Y1719D02*
D03*
D21*
X193171Y172806D02*
D03*
Y1719D02*
D03*
Y170994D02*
D03*
D22*
X189639Y1728D02*
D03*
X188773D02*
D03*
X187661Y1436D02*
D03*
X188527D02*
D03*
D23*
X193702Y156739D02*
D03*
D24*
X192698D02*
D03*
X192718Y154061D02*
D03*
X193702D02*
D03*
D25*
X1892Y1412D02*
Y1417D01*
Y1428D02*
X1904Y144D01*
X1892Y1417D02*
Y1428D01*
X1882Y1417D02*
X1892D01*
X1886Y1406D02*
X1892Y1412D01*
X1886Y1389D02*
Y1406D01*
X1881Y1384D02*
X1886Y1389D01*
X1914Y155D02*
Y1587D01*
X188969Y152569D02*
X1914Y155D01*
X188969Y1472D02*
Y152569D01*
X1911Y1591D02*
X1913Y1593D01*
X1911Y1554D02*
Y1591D01*
X1889Y1532D02*
X1911Y1554D01*
X1914Y1587D02*
X1917Y159D01*
Y1584D02*
X1921Y1588D01*
X1917Y1547D02*
Y1584D01*
X1893Y1523D02*
X1917Y1547D01*
X1921Y1582D02*
X1933Y1594D01*
X1921Y1542D02*
Y1582D01*
X1896Y1517D02*
X1921Y1542D01*
X1917Y159D02*
Y1641D01*
X18665Y16915D02*
X1917Y1641D01*
X186016Y16915D02*
X18665D01*
X1921Y1588D02*
Y1644D01*
X187984Y168516D02*
X1921Y1644D01*
X187984Y168516D02*
Y16915D01*
X1874Y1532D02*
X1889D01*
X187106Y152906D02*
X1874Y1532D01*
X19185Y14835D02*
X1938Y1503D01*
X1944D01*
X20075Y14295D02*
X2008Y1429D01*
X187706Y142194D02*
X1882Y1417D01*
X187706Y142194D02*
Y1427D01*
X192806Y157634D02*
Y1579D01*
X1896Y1458D02*
Y1517D01*
X18915Y14535D02*
X1896Y1458D01*
X1899Y1514D02*
X191394Y152894D01*
X1899Y145D02*
Y1514D01*
Y145D02*
X19005Y14485D01*
X193171Y172806D02*
X193694D01*
X195346Y172546D02*
X1955Y1727D01*
X197085Y171754D02*
X1972Y171869D01*
X195205Y169065D02*
Y169815D01*
X196455Y167815D02*
X196826Y167444D01*
X197574Y164222D02*
Y16508D01*
X197806Y165094D02*
X1987D01*
X190829Y1719D02*
Y172371D01*
X190891Y14785D02*
X19205D01*
X193662Y149462D01*
X19445D01*
X193675Y148675D02*
X19445D01*
X190891Y14735D02*
X19185D01*
X190891Y14635D02*
X19255D01*
X1931Y1469D01*
Y1481D01*
X193675Y148675D01*
X1924Y1469D02*
X19245Y14685D01*
X19445Y147887D02*
X1963D01*
X195925Y145525D02*
X1963Y1459D01*
X19445Y145525D02*
X195925D01*
X200762Y1479D02*
X2017D01*
X20075Y147887D02*
X200762Y1479D01*
X200775Y1487D02*
X2018D01*
X20075Y148675D02*
X200775Y1487D01*
X190891Y14685D02*
X19245D01*
X196638Y144738D02*
X198213Y146313D01*
X20075D01*
X190891Y14835D02*
X19185D01*
X1963Y1459D02*
Y150906D01*
X200812Y1494D02*
X2017D01*
X187309Y14835D02*
X1884D01*
X187309Y14885D02*
X1884D01*
X191394Y152894D02*
X1937D01*
X19005Y14485D02*
X190891D01*
X1937Y152894D02*
Y154059D01*
X193702Y154061D02*
X196319D01*
X196332Y153581D02*
Y154074D01*
Y154566D01*
X196319Y154061D02*
X196332Y154074D01*
X198248Y155602D02*
X1983Y15555D01*
X196332Y156534D02*
Y157519D01*
X192806Y157634D02*
X193702Y156739D01*
X193594Y1579D02*
X19595D01*
X196332Y157519D01*
X192698Y154081D02*
Y155602D01*
Y156739D01*
Y155602D02*
X198248D01*
X188619Y14685D02*
X188969Y1472D01*
X187309Y14685D02*
X188619D01*
X187309Y143952D02*
Y14485D01*
Y143952D02*
X187661Y1436D01*
X188527Y142733D02*
Y1436D01*
X19Y137994D02*
Y1388D01*
X191Y1398D01*
Y1408D01*
Y1418D01*
Y1428D01*
X187309Y14635D02*
X18825D01*
X1883Y1463D01*
X194Y1428D02*
X195106D01*
X194Y1418D02*
X195106D01*
X194Y1408D02*
X195106D01*
X194Y1398D02*
X195106D01*
X195894D02*
Y1408D01*
Y1418D01*
Y1428D01*
X1981Y1354D02*
Y136606D01*
X197892Y135192D02*
X1981Y1354D01*
X197892Y134937D02*
Y135192D01*
X201435Y134937D02*
Y135165D01*
X2003Y1363D02*
X201435Y135165D01*
X201928Y135024D02*
Y135272D01*
X2014Y1358D02*
X201928Y135272D01*
X2014Y1358D02*
Y136606D01*
X198375Y134808D02*
X1992Y135633D01*
Y136606D01*
X197409Y135067D02*
Y137009D01*
X197794Y137394D01*
X1981D01*
X200943Y134851D02*
X201Y134794D01*
X1998Y1354D02*
X200349Y134851D01*
X200943D01*
X18635Y14935D02*
X187309D01*
X187894Y1506D02*
Y1516D01*
Y1526D01*
X187106Y149794D02*
Y1506D01*
Y149794D02*
X187309Y149591D01*
Y14935D02*
Y149591D01*
X1859Y1364D02*
X1871Y1376D01*
X190891Y14885D02*
X19185D01*
X1922Y1492D01*
Y149606D01*
X1854Y1409D02*
X1859Y1404D01*
X1854Y1409D02*
Y1484D01*
X18635Y14935D01*
X1858Y1422D02*
Y1474D01*
X18625Y14785D01*
X187309D01*
X1862Y1469D02*
X18665Y14735D01*
X187309D01*
X1998Y1354D02*
Y137394D01*
X1922Y149606D02*
X192306D01*
X1931Y1504D01*
Y1505D01*
X1987Y1604D02*
Y164406D01*
X1977Y1594D02*
X1987Y1604D01*
X1933Y1594D02*
X1977D01*
X187309Y14535D02*
X18915D01*
X187309Y14585D02*
X18895D01*
X1893Y1462D01*
Y1523D01*
X1862Y1425D02*
Y1469D01*
Y1425D02*
X1871Y1416D01*
Y1376D02*
Y1416D01*
X1859Y1374D02*
X1867Y1382D01*
Y1413D01*
X1858Y1422D02*
X1867Y1413D01*
X195894Y1428D02*
Y144731D01*
X19445Y144738D02*
X196638D01*
X195894Y1398D02*
X1979D01*
X2003D01*
X1928Y145D02*
X193062Y144738D01*
X19445D01*
X1918Y144D02*
X1928Y145D01*
X1904Y144D02*
X1918D01*
X190891Y14935D02*
X1909Y149359D01*
Y1495D01*
X1892Y1372D02*
X189994D01*
X19Y137206D01*
X194991Y1696D02*
X195205Y169815D01*
X187106Y1526D02*
Y152906D01*
X194946Y173254D02*
X195Y1732D01*
X2003Y1363D02*
Y136606D01*
X1894Y15685D02*
X18935Y1569D01*
X18925D01*
X1892Y15685D01*
Y15665D01*
X18925Y1566D01*
X18935D01*
X1894Y15665D01*
X18965Y1569D02*
X18955D01*
X1895Y15685D01*
Y15665D01*
X18955Y1566D01*
X18965D01*
X1897Y15665D01*
Y15685D01*
X18965Y1569D01*
X1898Y1566D02*
Y1569D01*
X1899Y1568D01*
X19Y1569D01*
Y1566D01*
X1893Y1581D02*
Y1584D01*
X1895Y1581D01*
Y1584D01*
X1898Y15835D02*
X18975Y1584D01*
X18965D01*
X1896Y15835D01*
Y15815D01*
X18965Y1581D01*
X18975D01*
X1898Y15815D01*
X1893Y1552D02*
Y1555D01*
X1895Y1552D01*
Y1555D01*
X18975D02*
X18965D01*
X1896Y15545D01*
Y15525D01*
X18965Y1552D01*
X18975D01*
X1898Y15525D01*
Y15545D01*
X18975Y1555D01*
D26*
X1918Y1504D02*
X1923D01*
X2022Y1406D02*
Y15D01*
X20075Y145525D02*
X202175D01*
X1998Y1382D02*
X2022Y1406D01*
X2005Y1517D02*
X2022Y15D01*
X1958Y1517D02*
X2005D01*
X195606Y151506D02*
X1958Y1517D01*
X1956Y1606D02*
Y1619D01*
X1923Y1652D02*
X1956Y1619D01*
X1865Y17015D02*
X187Y16965D01*
X186016Y17015D02*
X1865D01*
X1972Y1622D02*
Y163178D01*
X1956Y1636D02*
X196022Y163178D01*
X1972D01*
X1956Y1606D02*
X196946D01*
X186475Y171475D02*
Y172539D01*
X186016Y171016D02*
X186475Y171475D01*
X186016Y17065D02*
Y171016D01*
X18725Y17015D02*
X187984D01*
X187Y1704D02*
X18725Y17015D01*
X187Y1704D02*
Y1712D01*
X187475Y171675D01*
Y172539D01*
X191054Y166146D02*
X1923D01*
X1893Y1679D02*
X191054Y166146D01*
X186016Y16965D02*
X187D01*
X187984D01*
X195606Y151D02*
Y151506D01*
X1981Y137394D02*
X1991D01*
X2004D02*
X2014D01*
X1923Y1504D02*
X1929Y151D01*
X1937D01*
X195606D01*
X1937D02*
Y152106D01*
X1991Y137394D02*
X1998D01*
X2004D01*
X1998D02*
Y1382D01*
X187984Y16965D02*
X18865D01*
X1893Y169D01*
Y1679D02*
Y169D01*
X1909Y1495D02*
Y1502D01*
Y1495D02*
X1918Y1504D01*
X1862Y1516D02*
X187106D01*
X196826Y164222D02*
Y167444D01*
D27*
X187178Y156722D02*
X1881D01*
X186899Y157001D02*
X187178Y156722D01*
X186899Y157001D02*
Y1606D01*
X188159Y158159D02*
Y1636D01*
X186656Y155344D02*
X1881D01*
X185639Y156361D02*
X186656Y155344D01*
X185639Y156361D02*
Y1636D01*
X192315Y167815D02*
X193955D01*
D28*
X20075Y14295D02*
Y144738D01*
X1985Y171869D02*
Y1722D01*
X1977Y173D02*
X1985Y1722D01*
X1958Y173D02*
X1977D01*
X193694Y172806D02*
X193954Y172546D01*
X1942D01*
X195346D01*
X1955Y1727D02*
X1958Y173D01*
X193171Y1719D02*
X1938D01*
X193946Y171754D01*
X1942D01*
X197085D01*
X1942Y17082D02*
Y171046D01*
X195205Y169815D02*
X195921Y170531D01*
X193222Y171046D02*
X1942D01*
Y17082D02*
X195205Y169815D01*
X1923Y1652D02*
Y166146D01*
X190829Y1719D02*
X193171D01*
X189639Y1728D02*
X1904D01*
X190829Y172371D01*
X188773Y171933D02*
Y1728D01*
X187984Y17065D02*
X18915D01*
X190829Y1702D02*
Y1719D01*
X1902Y1696D02*
X194991D01*
X189594Y170206D02*
X1902Y1696D01*
X18915Y17065D02*
X189594Y170206D01*
Y1719D01*
X1942Y173254D02*
X194946D01*
X195921Y170531D02*
X1985D01*
D29*
X195205Y169065D02*
X196455Y167815D01*
D30*
X1979Y141567D02*
Y141442D01*
X197942Y1414D01*
X197983Y141442D01*
X198025Y1414D01*
X198067Y141442D01*
Y141567D01*
X19815D02*
Y141442D01*
X198192Y1414D01*
X198233Y141442D01*
X198275Y1414D01*
X198317Y141442D01*
Y141567D01*
X1984D02*
Y141442D01*
X198441Y1414D01*
X198483Y141442D01*
X198525Y1414D01*
X198566Y141442D01*
Y141567D01*
X19865Y1414D02*
Y141442D01*
X198691D01*
Y1414D01*
X19865D01*
X199025Y14165D02*
Y1414D01*
X1989D01*
X198858Y141442D01*
Y141525D01*
X1989Y141567D01*
X199025D01*
X199108Y1414D02*
X199191D01*
X19915D01*
Y141567D01*
X199108D01*
X199358D02*
X199441D01*
X199483Y141525D01*
Y1414D01*
X199358D01*
X199316Y141442D01*
X199358Y141483D01*
X199483D01*
X199566Y141317D02*
Y141567D01*
X199691D01*
X199733Y141525D01*
Y141442D01*
X199691Y1414D01*
X199566D01*
X199816Y141567D02*
Y1414D01*
Y141483D01*
X199858Y141525D01*
X199899Y141567D01*
X199941D01*
X200108Y1414D02*
X200191D01*
X200233Y141442D01*
Y141525D01*
X200191Y141567D01*
X200108D01*
X200066Y141525D01*
Y141442D01*
X200108Y1414D01*
X200316D02*
Y141442D01*
X200358D01*
Y1414D01*
X200316D01*
X200524Y14165D02*
Y1414D01*
Y141525D01*
X200566Y141567D01*
X200649D01*
X200691Y141525D01*
Y1414D01*
X200774Y141567D02*
Y141442D01*
X200816Y1414D01*
X200941D01*
Y141567D01*
X1872Y13605D02*
Y1358D01*
X187325D01*
X187367Y135842D01*
Y136008D01*
X187325Y13605D01*
X1872D01*
X18745Y1358D02*
X187533D01*
X187492D01*
Y135967D01*
X18745D01*
X1877D02*
X187783D01*
X187825Y135925D01*
Y1358D01*
X1877D01*
X187658Y135842D01*
X1877Y135883D01*
X187825D01*
X187908Y135717D02*
Y135967D01*
X188033D01*
X188075Y135925D01*
Y135842D01*
X188033Y1358D01*
X187908D01*
X188158Y135967D02*
Y1358D01*
Y135883D01*
X1882Y135925D01*
X188241Y135967D01*
X188283D01*
X18845Y1358D02*
X188533D01*
X188575Y135842D01*
Y135925D01*
X188533Y135967D01*
X18845D01*
X188408Y135925D01*
Y135842D01*
X18845Y1358D01*
X188908D02*
Y13605D01*
Y135883D02*
X189033Y135967D01*
X188908Y135883D02*
X189033Y1358D01*
X189199D02*
Y136008D01*
Y135925D01*
X189158D01*
X189241D01*
X189199D01*
Y136008D01*
X189241Y13605D01*
X189408Y136008D02*
Y135967D01*
X189366D01*
X189449D01*
X189408D01*
Y135842D01*
X189449Y1358D01*
X1871Y135D02*
Y13525D01*
X187225D01*
X187267Y135208D01*
Y135125D01*
X187225Y135083D01*
X1871D01*
X187183D02*
X187267Y135D01*
X18735D02*
Y135167D01*
X187433Y13525D01*
X187517Y135167D01*
Y135D01*
Y135125D01*
X18735D01*
X1876Y13525D02*
Y135D01*
X187725D01*
X187766Y135042D01*
Y135208D01*
X187725Y13525D01*
X1876D01*
X18785D02*
X187933D01*
X187891D01*
Y135D01*
X18785D01*
X187933D01*
X188183Y13525D02*
X1881D01*
X188058Y135208D01*
Y135042D01*
X1881Y135D01*
X188183D01*
X188225Y135042D01*
Y135208D01*
X188183Y13525D01*
X188475Y135208D02*
X188433Y13525D01*
X18835D01*
X188308Y135208D01*
Y135167D01*
X18835Y135125D01*
X188433D01*
X188475Y135083D01*
Y135042D01*
X188433Y135D01*
X18835D01*
X188308Y135042D01*
X188558Y13525D02*
Y135D01*
X188724D01*
X188808D02*
Y135167D01*
X188891Y13525D01*
X188974Y135167D01*
Y135D01*
Y135125D01*
X188808D01*
X189058Y13525D02*
Y135083D01*
X189141Y135D01*
X189224Y135083D01*
Y13525D01*
X189474D02*
X189308D01*
Y135D01*
X189474D01*
X189308Y135125D02*
X189391D01*
X189807Y135167D02*
X189891Y135D01*
X189974Y135167D01*
X190057Y135D02*
X190141D01*
X190099D01*
Y13525D01*
X190057Y135208D01*
D31*
X1935Y1587D02*
Y15895D01*
X193625D01*
X193667Y158908D01*
Y158825D01*
X193625Y158783D01*
X1935D01*
X19375Y158867D02*
Y158742D01*
X193792Y1587D01*
X193917D01*
Y158867D01*
X194Y1587D02*
X194083D01*
X194041D01*
Y15895D01*
X194D01*
X194208Y1587D02*
X194291D01*
X19425D01*
Y15895D01*
X194208D01*
X194416Y158658D02*
X194583D01*
X194666Y15895D02*
Y158742D01*
X194708Y1587D01*
X194791D01*
X194833Y158742D01*
Y15895D01*
X195Y1587D02*
X194916Y158783D01*
Y158867D01*
X195Y15895D01*
X195291D02*
X195124D01*
Y158825D01*
X195208Y158867D01*
X195249D01*
X195291Y158825D01*
Y158742D01*
X195249Y1587D01*
X195166D01*
X195124Y158742D01*
X195374Y15895D02*
Y158783D01*
X195458Y1587D01*
X195541Y158783D01*
Y15895D01*
X195624Y1587D02*
X195708Y158783D01*
Y158867D01*
X195624Y15895D01*
X196332Y1587D02*
Y15895D01*
X196457D01*
X196499Y158908D01*
Y158825D01*
X196457Y158783D01*
X196332D01*
X196582Y158867D02*
Y158742D01*
X196624Y1587D01*
X196749D01*
Y158867D01*
X196832Y1587D02*
X196916D01*
X196874D01*
Y15895D01*
X196832D01*
X197041Y1587D02*
X197124D01*
X197082D01*
Y15895D01*
X197041D01*
X197249Y158658D02*
X197415D01*
X197499Y15895D02*
Y1587D01*
X197624D01*
X197665Y158742D01*
Y158908D01*
X197624Y15895D01*
X197499D01*
X198665Y158908D02*
X198623Y15895D01*
X19854D01*
X198498Y158908D01*
Y158742D01*
X19854Y1587D01*
X198623D01*
X198665Y158742D01*
Y158825D01*
X198582D01*
X198748Y1587D02*
Y15895D01*
X198915Y1587D01*
Y15895D01*
X198998D02*
Y1587D01*
X199123D01*
X199165Y158742D01*
Y158908D01*
X199123Y15895D01*
X198998D01*
X1901Y14D02*
Y140083D01*
Y140042D01*
X18985D01*
X189892Y14D01*
X1901Y140875D02*
Y140708D01*
X189933Y140875D01*
X189892D01*
X18985Y140833D01*
Y14075D01*
X189892Y140708D01*
Y141458D02*
X18985Y1415D01*
Y141583D01*
X189892Y141624D01*
X189933D01*
X189975Y141583D01*
Y141541D01*
Y141583D01*
X190017Y141624D01*
X190058D01*
X1901Y141583D01*
Y1415D01*
X190058Y141458D01*
X1901Y142333D02*
X18985D01*
X189975Y142208D01*
Y142374D01*
D32*
X194Y1398D02*
D03*
Y1408D02*
D03*
Y1418D02*
D03*
Y1428D02*
D03*
X191Y1398D02*
D03*
Y1408D02*
D03*
Y1418D02*
D03*
X1859Y1354D02*
D03*
Y1364D02*
D03*
Y1374D02*
D03*
Y1384D02*
D03*
Y1394D02*
D03*
X187475Y172539D02*
D03*
D33*
X191Y1428D02*
D03*
X2008Y1429D02*
D03*
X186475Y172539D02*
D03*
D34*
X193955Y167815D02*
D03*
X196455D02*
D03*
X195205Y169815D02*
D03*
D35*
X1859Y1404D02*
D03*
D36*
X200943Y134851D02*
D03*
X201435Y134937D02*
D03*
X201928Y135024D02*
D03*
D37*
X197409Y135067D02*
D03*
X197892Y134937D02*
D03*
X198375Y134808D02*
D03*
D38*
X1881Y1581D02*
D03*
Y156722D02*
D03*
D39*
Y155344D02*
D03*
D40*
X1956Y1636D02*
D03*
Y1606D02*
D03*
X186899D02*
D03*
X185639Y1636D02*
D03*
X188159D02*
D03*
X196332Y156534D02*
D03*
Y154566D02*
D03*
Y157519D02*
D03*
Y153581D02*
D03*
X1983Y15555D02*
D03*
D41*
X1944Y1503D02*
D03*
X19185Y14735D02*
D03*
X1924Y1469D02*
D03*
X2017Y1479D02*
D03*
Y1487D02*
D03*
Y1494D02*
D03*
X1884Y14835D02*
D03*
Y14885D02*
D03*
X1883Y1463D02*
D03*
X2003Y1398D02*
D03*
X1979D02*
D03*
X1881Y1384D02*
D03*
X1862Y1516D02*
D03*
X1892Y1372D02*
D03*
X1913Y1593D02*
D03*
X195Y1732D02*
D03*
D42*
X1955Y1727D02*
D03*
X1923Y1652D02*
D03*
X1931Y1503D02*
D03*
X1928Y145D02*
D03*
X1909Y1502D02*
D03*
X190829Y1702D02*
D03*
M02*
