%FSTAX24Y24*%
%MOIN*%
G70*
G01*
G75*
G04 Layer_Physical_Order=2*
G04 Layer_Color=16711680*
%ADD10R,0.0512X0.0394*%
%ADD11R,0.0256X0.0472*%
%ADD12R,0.0394X0.0512*%
%ADD13R,0.0709X0.0709*%
%ADD14O,0.0906X0.0236*%
%ADD15R,0.0984X0.0512*%
%ADD16R,0.0374X0.0315*%
%ADD17R,0.0630X0.0630*%
%ADD18R,0.0945X0.0236*%
%ADD19O,0.0945X0.0236*%
%ADD20R,0.1004X0.1299*%
%ADD21R,0.1004X0.0374*%
%ADD22R,0.0472X0.0512*%
%ADD23R,0.0394X0.0591*%
%ADD24O,0.0394X0.0591*%
%ADD25C,0.0100*%
%ADD26C,0.0250*%
%ADD27C,0.0600*%
%ADD28C,0.0300*%
%ADD29C,0.0400*%
%ADD30C,0.0060*%
%ADD31C,0.0080*%
%ADD32C,0.0591*%
%ADD33R,0.0591X0.0591*%
%ADD34C,0.1800*%
%ADD35R,0.0591X0.0591*%
G04:AMPARAMS|DCode=36|XSize=37.4mil|YSize=57.1mil|CornerRadius=0mil|HoleSize=0mil|Usage=FLASHONLY|Rotation=10.000|XOffset=0mil|YOffset=0mil|HoleType=Round|Shape=Round|*
%AMOVALD36*
21,1,0.0197,0.0374,0.0000,0.0000,100.0*
1,1,0.0374,0.0017,-0.0097*
1,1,0.0374,-0.0017,0.0097*
%
%ADD36OVALD36*%

G04:AMPARAMS|DCode=37|XSize=37.4mil|YSize=57.1mil|CornerRadius=0mil|HoleSize=0mil|Usage=FLASHONLY|Rotation=345.000|XOffset=0mil|YOffset=0mil|HoleType=Round|Shape=Round|*
%AMOVALD37*
21,1,0.0197,0.0374,0.0000,0.0000,75.0*
1,1,0.0374,-0.0025,-0.0095*
1,1,0.0374,0.0025,0.0095*
%
%ADD37OVALD37*%

%ADD38C,0.0984*%
%ADD39R,0.0984X0.0984*%
%ADD40C,0.0709*%
%ADD41C,0.0320*%
%ADD42C,0.0500*%
G36*
X201673Y139267D02*
Y135429D01*
X20166Y13542D01*
X201613Y135369D01*
X201552Y135401D01*
X201452Y135423D01*
X201401Y135421D01*
X201485Y134946D01*
X201386Y134929D01*
X201302Y135404D01*
X201253Y135388D01*
X201167Y135333D01*
X201121Y135282D01*
X201059Y135314D01*
X20096Y135336D01*
X200858Y135332D01*
X200761Y135301D01*
X200675Y135247D01*
X200606Y135171D01*
X200559Y135081D01*
X200537Y134982D01*
X200542Y13488D01*
X200576Y134686D01*
X200589Y134645D01*
X200559Y134605D01*
X198766D01*
X198735Y134645D01*
X198778Y134802D01*
X198785Y134857D01*
X199327Y135399D01*
X199382Y135482D01*
X199401Y135579D01*
X199401Y135579D01*
X199401Y135579D01*
Y135579D01*
Y140954D01*
X199401Y140954D01*
X199401Y140954D01*
Y140954D01*
X199401D01*
X199401Y140954D01*
X199382Y141051D01*
X199327Y141134D01*
X196462Y143999D01*
X196481Y144045D01*
X196894D01*
X201673Y139267D01*
D02*
G37*
G36*
X201443Y147643D02*
X201518Y147586D01*
X201606Y147549D01*
X2017Y147537D01*
X201794Y147549D01*
X201882Y147586D01*
X2019Y1476D01*
X201945Y147578D01*
Y147406D01*
X201694Y147155D01*
X198381D01*
X198362Y147201D01*
X198806Y147645D01*
X201442D01*
X201443Y147643D01*
D02*
G37*
G36*
X199212Y153248D02*
Y152067D01*
X199212Y152067D01*
X199212D01*
X199231Y151969D01*
X199287Y151886D01*
X199369Y151831D01*
X199467Y151812D01*
X202362D01*
Y148564D01*
X202315Y148545D01*
X20204Y148821D01*
X202014Y148882D01*
X201957Y148957D01*
X201882Y149014D01*
X201856Y149025D01*
Y149075D01*
X201882Y149086D01*
X201957Y149143D01*
X202014Y149218D01*
X202051Y149306D01*
X202063Y1494D01*
X202051Y149494D01*
X202014Y149582D01*
X201957Y149657D01*
X201882Y149714D01*
X201794Y149751D01*
X2017Y149763D01*
X201698Y149763D01*
X20128Y15018D01*
X201198Y150235D01*
X2011Y150255D01*
X194806D01*
X194763Y150298D01*
X194763Y1503D01*
X194751Y150394D01*
X194714Y150482D01*
X194657Y150557D01*
X194582Y150614D01*
X194494Y150651D01*
X1944Y150663D01*
X194306Y150651D01*
X194218Y150614D01*
X194143Y150557D01*
X194086Y150482D01*
X194049Y150394D01*
X194037Y1503D01*
X194049Y150206D01*
X194086Y150118D01*
X194143Y150043D01*
X194218Y149986D01*
X194306Y149949D01*
X1944Y149937D01*
X194402Y149937D01*
X19452Y14982D01*
X194602Y149765D01*
X1947Y149745D01*
X200994D01*
X201337Y149402D01*
X201337Y1494D01*
X201349Y149306D01*
X201386Y149218D01*
X201443Y149143D01*
X201518Y149086D01*
X201544Y149075D01*
Y149025D01*
X201518Y149014D01*
X201443Y148957D01*
X201386Y148882D01*
X201349Y148794D01*
X201337Y1487D01*
X201349Y148606D01*
X201386Y148518D01*
X201443Y148443D01*
X201518Y148386D01*
X201606Y148349D01*
X2017Y148337D01*
X201791Y148349D01*
X201865Y148274D01*
X201837Y148233D01*
X201794Y148251D01*
X2017Y148263D01*
X201606Y148251D01*
X201518Y148214D01*
X201443Y148157D01*
X201442Y148155D01*
X1987D01*
X198602Y148135D01*
X19852Y14808D01*
X198044Y147605D01*
X192108D01*
X192107Y147607D01*
X192032Y147664D01*
X191944Y147701D01*
X19185Y147713D01*
X191756Y147701D01*
X191668Y147664D01*
X191593Y147607D01*
X191536Y147532D01*
X191499Y147444D01*
X191487Y14735D01*
X191499Y147256D01*
X191536Y147168D01*
X191593Y147093D01*
X191668Y147036D01*
X191756Y146999D01*
X19185Y146987D01*
X191944Y146999D01*
X19199Y147018D01*
X192049Y146994D01*
X192037Y1469D01*
X192049Y146806D01*
X192086Y146718D01*
X192143Y146643D01*
X192218Y146586D01*
X192306Y146549D01*
X1924Y146537D01*
X192494Y146549D01*
X192582Y146586D01*
X192657Y146643D01*
X192658Y146645D01*
X2018D01*
X201898Y146665D01*
X20198Y14672D01*
X20198Y14672D01*
X20198Y14672D01*
X202315Y147055D01*
X202362Y147036D01*
Y135099D01*
X202312Y135094D01*
X202295Y135189D01*
X202265Y135286D01*
X20221Y135372D01*
X202183Y135397D01*
Y139372D01*
X202163Y13947D01*
X202108Y139552D01*
X19718Y14448D01*
X197098Y144535D01*
X197Y144555D01*
X193029D01*
X19302Y144604D01*
X193027Y144607D01*
X193121Y144679D01*
X193193Y144773D01*
X193238Y144883D01*
X193247Y14495D01*
X192353D01*
X192362Y144883D01*
X192407Y144773D01*
X192479Y144679D01*
X192573Y144607D01*
X19258Y144604D01*
X192571Y144555D01*
X190606D01*
X190055Y145106D01*
Y148D01*
X190035Y148098D01*
X18998Y14818D01*
X18913Y14903D01*
X189048Y149085D01*
X18895Y149105D01*
X188658D01*
X188657Y149107D01*
X188582Y149164D01*
X188494Y149201D01*
X1884Y149213D01*
X188306Y149201D01*
X188218Y149164D01*
X188143Y149107D01*
X188086Y149032D01*
X188049Y148944D01*
X188037Y14885D01*
X188049Y148756D01*
X188086Y148668D01*
X188138Y1486D01*
X188086Y148532D01*
X188049Y148444D01*
X188037Y14835D01*
X188049Y148256D01*
X188086Y148168D01*
X188143Y148093D01*
X188218Y148036D01*
X188306Y147999D01*
X1884Y147987D01*
X188402Y147987D01*
X189045Y147344D01*
Y145969D01*
X188997Y145955D01*
X18898Y14598D01*
X188663Y146298D01*
X188663Y1463D01*
X188651Y146394D01*
X188614Y146482D01*
X188557Y146557D01*
X188482Y146614D01*
X188394Y146651D01*
X1883Y146663D01*
X188206Y146651D01*
X188118Y146614D01*
X188043Y146557D01*
X187986Y146482D01*
X187949Y146394D01*
X187937Y1463D01*
X187949Y146206D01*
X187986Y146118D01*
X188043Y146043D01*
X188118Y145986D01*
X188206Y145949D01*
X1883Y145937D01*
X188302Y145937D01*
X188545Y145694D01*
Y1444D01*
X188545Y1444D01*
X188545D01*
X188564Y144302D01*
X18862Y14422D01*
X19022Y14262D01*
X190302Y142565D01*
X1904Y142545D01*
X190505D01*
Y142305D01*
X190796D01*
X190806Y142256D01*
X19075Y142233D01*
X190647Y142153D01*
X190567Y14205D01*
X190517Y141929D01*
X1905Y1418D01*
X190517Y141671D01*
X190567Y14155D01*
X190647Y141447D01*
X19075Y141367D01*
X190853Y141325D01*
Y141275D01*
X19075Y141233D01*
X190647Y141153D01*
X190567Y14105D01*
X190517Y140929D01*
X1905Y1408D01*
X190517Y140671D01*
X190567Y14055D01*
X190647Y140447D01*
X19075Y140367D01*
X190853Y140325D01*
Y140275D01*
X19075Y140233D01*
X190647Y140153D01*
X190567Y14005D01*
X190517Y139929D01*
X1905Y1398D01*
X190517Y139671D01*
X190567Y13955D01*
X190647Y139447D01*
X19075Y139367D01*
X190871Y139317D01*
X191Y1393D01*
X191129Y139317D01*
X19125Y139367D01*
X191353Y139447D01*
X191433Y13955D01*
X191483Y139671D01*
X1915Y1398D01*
X191483Y139929D01*
X191433Y14005D01*
X191353Y140153D01*
X19125Y140233D01*
X191147Y140275D01*
Y140325D01*
X19125Y140367D01*
X191353Y140447D01*
X191433Y14055D01*
X191483Y140671D01*
X1915Y1408D01*
X191483Y140929D01*
X191433Y14105D01*
X191353Y141153D01*
X19125Y141233D01*
X191147Y141275D01*
Y141325D01*
X19125Y141367D01*
X191353Y141447D01*
X191433Y14155D01*
X191483Y141671D01*
X1915Y1418D01*
X191483Y141929D01*
X191433Y14205D01*
X191353Y142153D01*
X19125Y142233D01*
X191194Y142256D01*
X191204Y142305D01*
X191495D01*
Y143295D01*
X190505D01*
Y143121D01*
X190459Y143102D01*
X189055Y144506D01*
Y144624D01*
X189103Y144638D01*
X18912Y144613D01*
X189966Y143766D01*
X190049Y143711D01*
X190146Y143692D01*
X196048D01*
X198892Y140848D01*
Y135685D01*
X198488Y135282D01*
X198401Y135293D01*
X1983Y13528D01*
X198236Y135254D01*
X198194Y135308D01*
X198113Y135371D01*
X198065Y13539D01*
X19794Y134924D01*
X197844Y13495D01*
X197969Y135416D01*
X197918Y135423D01*
X197817Y13541D01*
X197753Y135383D01*
X197711Y135438D01*
X19763Y1355D01*
X197536Y135539D01*
X197435Y135552D01*
X197334Y135539D01*
X197239Y1355D01*
X197159Y135438D01*
X197097Y135357D01*
X197058Y135263D01*
X197015Y135106D01*
X196966Y135112D01*
Y13865D01*
X196947Y138748D01*
X196891Y13883D01*
X196809Y138885D01*
X196711Y138905D01*
X190806D01*
X190708Y138885D01*
X190625Y13883D01*
X19057Y138748D01*
X190551Y13865D01*
Y134605D01*
X185155D01*
Y1531D01*
X1886D01*
X190401Y154901D01*
X190447Y154882D01*
Y151928D01*
X186349D01*
X186294Y151951D01*
X1862Y151963D01*
X186106Y151951D01*
X186018Y151914D01*
X185943Y151857D01*
X185886Y151782D01*
X185849Y151694D01*
X185837Y1516D01*
X185849Y151506D01*
X185886Y151418D01*
X185943Y151343D01*
X185945Y151342D01*
Y1418D01*
X185945Y1418D01*
X185945D01*
X185965Y141702D01*
X18602Y14162D01*
X186545Y141094D01*
Y140406D01*
X186441Y140302D01*
X186395Y140321D01*
Y140895D01*
X185405D01*
Y139905D01*
X185696D01*
X185706Y139856D01*
X18565Y139833D01*
X185547Y139753D01*
X185467Y13965D01*
X185417Y139529D01*
X1854Y1394D01*
X185417Y139271D01*
X185467Y13915D01*
X185547Y139047D01*
X18565Y138967D01*
X185753Y138925D01*
Y138875D01*
X18565Y138833D01*
X185547Y138753D01*
X185467Y13865D01*
X185417Y138529D01*
X185407Y13845D01*
X186393D01*
X186383Y138529D01*
X186333Y13865D01*
X186253Y138753D01*
X18615Y138833D01*
X186047Y138875D01*
Y138925D01*
X18615Y138967D01*
X186253Y139047D01*
X186329Y139145D01*
X188094D01*
X188845Y138394D01*
Y1373D01*
X188845Y1373D01*
X188845D01*
X188848Y137285D01*
X188837Y1372D01*
X188849Y137106D01*
X188886Y137018D01*
X188943Y136943D01*
X189018Y136886D01*
X189106Y136849D01*
X1892Y136837D01*
X189294Y136849D01*
X189382Y136886D01*
X189457Y136943D01*
X189514Y137018D01*
X189551Y137106D01*
X189563Y1372D01*
X189551Y137294D01*
X189514Y137382D01*
X189457Y137457D01*
X189382Y137514D01*
X189355Y137526D01*
Y1385D01*
X189355Y1385D01*
X189355Y1385D01*
Y1385D01*
X189355D01*
X189355Y1385D01*
X189335Y138598D01*
X18928Y13868D01*
X18838Y13958D01*
X188298Y139635D01*
X1882Y139655D01*
X186581D01*
X186562Y139701D01*
X18698Y14012D01*
X187036Y140202D01*
X187055Y1403D01*
Y1412D01*
X187036Y141298D01*
X18698Y14138D01*
X186455Y141906D01*
Y151272D01*
X190447D01*
Y1503D01*
X190453Y150253D01*
X190446Y1502D01*
X190462Y150083D01*
X190507Y149973D01*
X190579Y149879D01*
X190673Y149807D01*
X190783Y149762D01*
X1909Y149746D01*
X191017Y149762D01*
X191127Y149807D01*
X191221Y149879D01*
X191293Y149973D01*
X191338Y150083D01*
X191354Y1502D01*
X191338Y150317D01*
X191293Y150427D01*
X191221Y150521D01*
X191153Y150573D01*
Y1516D01*
Y158926D01*
X191195Y158954D01*
X191206Y158949D01*
X19125Y158943D01*
Y1593D01*
Y159657D01*
X191206Y159651D01*
X191195Y159646D01*
X191153Y159674D01*
Y169883D01*
X191222Y169973D01*
X191267Y170083D01*
X191283Y1702D01*
X191267Y170317D01*
X191222Y170427D01*
X19115Y170521D01*
X191056Y170593D01*
X190946Y170638D01*
X190829Y170654D01*
X190711Y170638D01*
X190602Y170593D01*
X190508Y170521D01*
X190436Y170427D01*
X19039Y170317D01*
X190375Y1702D01*
X19039Y170083D01*
X190436Y169973D01*
X190447Y169958D01*
Y164118D01*
X190401Y164099D01*
X1884Y1661D01*
X185155D01*
Y173465D01*
X194693D01*
X194715Y17342D01*
X194686Y173382D01*
X194649Y173294D01*
X194643Y17325D01*
X195357D01*
X195351Y173294D01*
X195314Y173382D01*
X195257Y173457D01*
X19526Y173465D01*
X199212D01*
Y153248D01*
D02*
G37*
%LPC*%
G36*
X201295Y143395D02*
X200305D01*
Y142405D01*
X201295D01*
Y143395D01*
D02*
G37*
G36*
X20035Y140157D02*
Y13985D01*
X200657D01*
X200651Y139894D01*
X200614Y139982D01*
X200557Y140057D01*
X200482Y140114D01*
X200394Y140151D01*
X20035Y140157D01*
D02*
G37*
G36*
X19795D02*
Y13985D01*
X198257D01*
X198251Y139894D01*
X198214Y139982D01*
X198157Y140057D01*
X198082Y140114D01*
X197994Y140151D01*
X19795Y140157D01*
D02*
G37*
G36*
X20025D02*
X200206Y140151D01*
X200118Y140114D01*
X200043Y140057D01*
X199986Y139982D01*
X199949Y139894D01*
X199943Y13985D01*
X20025D01*
Y140157D01*
D02*
G37*
G36*
X19275Y145447D02*
X192683Y145438D01*
X192573Y145393D01*
X192479Y145321D01*
X192407Y145227D01*
X192362Y145117D01*
X192353Y14505D01*
X19275D01*
Y145447D01*
D02*
G37*
G36*
X193547Y15025D02*
X19315D01*
Y149853D01*
X193217Y149862D01*
X193327Y149907D01*
X193421Y149979D01*
X193493Y150073D01*
X193538Y150183D01*
X193547Y15025D01*
D02*
G37*
G36*
X19305Y150747D02*
X192983Y150738D01*
X192873Y150693D01*
X192779Y150621D01*
X192707Y150527D01*
X192662Y150417D01*
X192653Y15035D01*
X19305D01*
Y150747D01*
D02*
G37*
G36*
X19285Y145447D02*
Y14505D01*
X193247D01*
X193238Y145117D01*
X193193Y145227D01*
X193121Y145321D01*
X193027Y145393D01*
X192917Y145438D01*
X19285Y145447D01*
D02*
G37*
G36*
X19305Y15025D02*
X192653D01*
X192662Y150183D01*
X192707Y150073D01*
X192779Y149979D01*
X192873Y149907D01*
X192983Y149862D01*
X19305Y149853D01*
Y15025D01*
D02*
G37*
G36*
X19785Y140157D02*
X197806Y140151D01*
X197718Y140114D01*
X197643Y140057D01*
X197586Y139982D01*
X197549Y139894D01*
X197543Y13985D01*
X19785D01*
Y140157D01*
D02*
G37*
G36*
X18805Y138757D02*
X188006Y138751D01*
X187918Y138714D01*
X187843Y138657D01*
X187786Y138582D01*
X187749Y138494D01*
X187743Y13845D01*
X18805D01*
Y138757D01*
D02*
G37*
G36*
X18815D02*
Y13845D01*
X188457D01*
X188451Y138494D01*
X188414Y138582D01*
X188357Y138657D01*
X188282Y138714D01*
X188194Y138751D01*
X18815Y138757D01*
D02*
G37*
G36*
X188457Y13835D02*
X18815D01*
Y138043D01*
X188194Y138049D01*
X188282Y138086D01*
X188357Y138143D01*
X188414Y138218D01*
X188451Y138306D01*
X188457Y13835D01*
D02*
G37*
G36*
X186393D02*
X185407D01*
X185417Y138271D01*
X185467Y13815D01*
X185547Y138047D01*
X18565Y137967D01*
X185753Y137925D01*
Y137875D01*
X18565Y137833D01*
X185547Y137753D01*
X185467Y13765D01*
X185417Y137529D01*
X1854Y1374D01*
X185417Y137271D01*
X185467Y13715D01*
X185547Y137047D01*
X18565Y136967D01*
X185753Y136925D01*
Y136875D01*
X18565Y136833D01*
X185547Y136753D01*
X185467Y13665D01*
X185417Y136529D01*
X1854Y1364D01*
X185417Y136271D01*
X185467Y13615D01*
X185547Y136047D01*
X18565Y135967D01*
X185753Y135925D01*
Y135875D01*
X18565Y135833D01*
X185547Y135753D01*
X185467Y13565D01*
X185417Y135529D01*
X1854Y1354D01*
X185417Y135271D01*
X185467Y13515D01*
X185547Y135047D01*
X18565Y134967D01*
X185771Y134917D01*
X1859Y1349D01*
X186029Y134917D01*
X18615Y134967D01*
X186253Y135047D01*
X186333Y13515D01*
X186383Y135271D01*
X1864Y1354D01*
X186383Y135529D01*
X186333Y13565D01*
X186253Y135753D01*
X18615Y135833D01*
X186047Y135875D01*
Y135925D01*
X18615Y135967D01*
X186253Y136047D01*
X186333Y13615D01*
X186383Y136271D01*
X1864Y1364D01*
X186383Y136529D01*
X186333Y13665D01*
X186253Y136753D01*
X18615Y136833D01*
X186047Y136875D01*
Y136925D01*
X18615Y136967D01*
X186253Y137047D01*
X186333Y13715D01*
X186383Y137271D01*
X1864Y1374D01*
X186383Y137529D01*
X186333Y13765D01*
X186253Y137753D01*
X18615Y137833D01*
X186047Y137875D01*
Y137925D01*
X18615Y137967D01*
X186253Y138047D01*
X186333Y13815D01*
X186383Y138271D01*
X186393Y13835D01*
D02*
G37*
G36*
X18805D02*
X187743D01*
X187749Y138306D01*
X187786Y138218D01*
X187843Y138143D01*
X187918Y138086D01*
X188006Y138049D01*
X18805Y138043D01*
Y13835D01*
D02*
G37*
G36*
X20025Y13975D02*
X199943D01*
X199949Y139706D01*
X199986Y139618D01*
X200043Y139543D01*
X200118Y139486D01*
X200206Y139449D01*
X20025Y139443D01*
Y13975D01*
D02*
G37*
G36*
X200657D02*
X20035D01*
Y139443D01*
X200394Y139449D01*
X200482Y139486D01*
X200557Y139543D01*
X200614Y139618D01*
X200651Y139706D01*
X200657Y13975D01*
D02*
G37*
G36*
X198257D02*
X19795D01*
Y139443D01*
X197994Y139449D01*
X198082Y139486D01*
X198157Y139543D01*
X198214Y139618D01*
X198251Y139706D01*
X198257Y13975D01*
D02*
G37*
G36*
X194Y1433D02*
X193871Y143283D01*
X19375Y143233D01*
X193647Y143153D01*
X193567Y14305D01*
X193517Y142929D01*
X1935Y1428D01*
X193517Y142671D01*
X193567Y14255D01*
X193647Y142447D01*
X19375Y142367D01*
X193853Y142325D01*
Y142275D01*
X19375Y142233D01*
X193647Y142153D01*
X193567Y14205D01*
X193517Y141929D01*
X1935Y1418D01*
X193517Y141671D01*
X193567Y14155D01*
X193647Y141447D01*
X19375Y141367D01*
X193853Y141325D01*
Y141275D01*
X19375Y141233D01*
X193647Y141153D01*
X193567Y14105D01*
X193517Y140929D01*
X1935Y1408D01*
X193517Y140671D01*
X193567Y14055D01*
X193647Y140447D01*
X19375Y140367D01*
X193853Y140325D01*
Y140275D01*
X19375Y140233D01*
X193647Y140153D01*
X193567Y14005D01*
X193517Y139929D01*
X1935Y1398D01*
X193517Y139671D01*
X193567Y13955D01*
X193647Y139447D01*
X19375Y139367D01*
X193871Y139317D01*
X194Y1393D01*
X194129Y139317D01*
X19425Y139367D01*
X194353Y139447D01*
X194433Y13955D01*
X194483Y139671D01*
X1945Y1398D01*
X194483Y139929D01*
X194433Y14005D01*
X194353Y140153D01*
X19425Y140233D01*
X194147Y140275D01*
Y140325D01*
X19425Y140367D01*
X194353Y140447D01*
X194433Y14055D01*
X194483Y140671D01*
X1945Y1408D01*
X194483Y140929D01*
X194433Y14105D01*
X194353Y141153D01*
X19425Y141233D01*
X194147Y141275D01*
Y141325D01*
X19425Y141367D01*
X194353Y141447D01*
X194433Y14155D01*
X194483Y141671D01*
X1945Y1418D01*
X194483Y141929D01*
X194433Y14205D01*
X194353Y142153D01*
X19425Y142233D01*
X194147Y142275D01*
Y142325D01*
X19425Y142367D01*
X194353Y142447D01*
X194433Y14255D01*
X194483Y142671D01*
X1945Y1428D01*
X194483Y142929D01*
X194433Y14305D01*
X194353Y143153D01*
X19425Y143233D01*
X194129Y143283D01*
X194Y1433D01*
D02*
G37*
G36*
X19785Y13975D02*
X197543D01*
X197549Y139706D01*
X197586Y139618D01*
X197643Y139543D01*
X197718Y139486D01*
X197806Y139449D01*
X19785Y139443D01*
Y13975D01*
D02*
G37*
G36*
X196405Y168914D02*
X196283Y168904D01*
X196114Y168864D01*
X195954Y168798D01*
X195807Y168707D01*
X195675Y168595D01*
X195562Y168463D01*
X195472Y168316D01*
X195406Y168156D01*
X195365Y167987D01*
X195356Y167865D01*
X196405D01*
Y168914D01*
D02*
G37*
G36*
X196505D02*
Y167865D01*
X197555D01*
X197545Y167987D01*
X197505Y168156D01*
X197438Y168316D01*
X197348Y168463D01*
X197235Y168595D01*
X197104Y168707D01*
X196956Y168798D01*
X196796Y168864D01*
X196628Y168904D01*
X196505Y168914D01*
D02*
G37*
G36*
X197555Y167765D02*
X196505D01*
Y166715D01*
X196628Y166725D01*
X196796Y166765D01*
X196956Y166831D01*
X197104Y166922D01*
X197235Y167034D01*
X197348Y167166D01*
X197438Y167314D01*
X197505Y167474D01*
X197545Y167642D01*
X197555Y167765D01*
D02*
G37*
G36*
X193955Y168918D02*
X193783Y168904D01*
X193614Y168864D01*
X193454Y168798D01*
X193307Y168707D01*
X193175Y168595D01*
X193062Y168463D01*
X192972Y168316D01*
X192906Y168156D01*
X192865Y167987D01*
X192852Y167815D01*
X192865Y167642D01*
X192906Y167474D01*
X192972Y167314D01*
X193062Y167166D01*
X193175Y167034D01*
X193307Y166922D01*
X193454Y166831D01*
X193614Y166765D01*
X193783Y166725D01*
X193955Y166711D01*
X194128Y166725D01*
X194296Y166765D01*
X194456Y166831D01*
X194604Y166922D01*
X194735Y167034D01*
X194848Y167166D01*
X194938Y167314D01*
X195005Y167474D01*
X195045Y167642D01*
X195059Y167815D01*
X195045Y167987D01*
X195005Y168156D01*
X194938Y168316D01*
X194848Y168463D01*
X194735Y168595D01*
X194604Y168707D01*
X194456Y168798D01*
X194296Y168864D01*
X194128Y168904D01*
X193955Y168918D01*
D02*
G37*
G36*
X196405Y167765D02*
X195356D01*
X195365Y167642D01*
X195406Y167474D01*
X195472Y167314D01*
X195562Y167166D01*
X195675Y167034D01*
X195807Y166922D01*
X195954Y166831D01*
X196114Y166765D01*
X196283Y166725D01*
X196405Y166715D01*
Y167765D01*
D02*
G37*
G36*
X195155Y169765D02*
X194106D01*
X194115Y169642D01*
X194156Y169474D01*
X194222Y169314D01*
X194312Y169166D01*
X194425Y169034D01*
X194557Y168922D01*
X194704Y168831D01*
X194864Y168765D01*
X195033Y168725D01*
X195155Y168715D01*
Y169765D01*
D02*
G37*
G36*
X187475Y173039D02*
X187346Y173022D01*
X187225Y172972D01*
X187122Y172892D01*
X187042Y172789D01*
X187019Y172733D01*
X18697Y172743D01*
Y173034D01*
X18598D01*
Y172044D01*
X18697D01*
Y172335D01*
X187019Y172345D01*
X187042Y172289D01*
X187122Y172186D01*
X187225Y172106D01*
X187346Y172056D01*
X187475Y172039D01*
X187604Y172056D01*
X187725Y172106D01*
X187828Y172186D01*
X187907Y172289D01*
X187957Y17241D01*
X187974Y172539D01*
X187957Y172668D01*
X187907Y172789D01*
X187828Y172892D01*
X187725Y172972D01*
X187604Y173022D01*
X187475Y173039D01*
D02*
G37*
G36*
X19536Y173175D02*
X195357Y17315D01*
X194643D01*
X194649Y173106D01*
X194654Y173095D01*
X194626Y173053D01*
X1933D01*
X1933Y173053D01*
X193209Y173041D01*
X193123Y173006D01*
X19305Y17295D01*
X19205Y17195D01*
X191994Y171877D01*
X191959Y171791D01*
X191947Y1717D01*
Y165479D01*
X191907Y165427D01*
X191862Y165317D01*
X191846Y1652D01*
X191862Y165083D01*
X191907Y164973D01*
X191979Y164879D01*
X192073Y164807D01*
X192183Y164762D01*
X1923Y164746D01*
X192417Y164762D01*
X192527Y164807D01*
X192621Y164879D01*
X192693Y164973D01*
X192738Y165083D01*
X192754Y1652D01*
X192738Y165317D01*
X192693Y165427D01*
X192653Y165479D01*
Y171554D01*
X193446Y172347D01*
X195221D01*
X195273Y172307D01*
X195383Y172262D01*
X1955Y172246D01*
X195617Y172262D01*
X195727Y172307D01*
X195821Y172379D01*
X195893Y172473D01*
X195938Y172583D01*
X195954Y1727D01*
X195938Y172817D01*
X195893Y172927D01*
X195821Y173021D01*
X195727Y173093D01*
X195617Y173138D01*
X1955Y173154D01*
X195395Y17314D01*
X19536Y173175D01*
D02*
G37*
G36*
X195255Y170914D02*
Y169865D01*
X196305D01*
X196295Y169987D01*
X196255Y170156D01*
X196188Y170315D01*
X196098Y170463D01*
X195985Y170595D01*
X195854Y170707D01*
X195706Y170798D01*
X195546Y170864D01*
X195378Y170904D01*
X195255Y170914D01*
D02*
G37*
G36*
X196305Y169765D02*
X195255D01*
Y168715D01*
X195378Y168725D01*
X195546Y168765D01*
X195706Y168831D01*
X195854Y168922D01*
X195985Y169034D01*
X196098Y169166D01*
X196188Y169314D01*
X196255Y169474D01*
X196295Y169642D01*
X196305Y169765D01*
D02*
G37*
G36*
X195155Y170914D02*
X195033Y170904D01*
X194864Y170864D01*
X194704Y170798D01*
X194557Y170707D01*
X194425Y170595D01*
X194312Y170463D01*
X194222Y170315D01*
X194156Y170156D01*
X194115Y169987D01*
X194106Y169865D01*
X195155D01*
Y170914D01*
D02*
G37*
G36*
X198853Y1555D02*
X19835D01*
Y154997D01*
X198445Y15501D01*
X19858Y155066D01*
X198695Y155155D01*
X198784Y15527D01*
X19884Y155405D01*
X198853Y1555D01*
D02*
G37*
G36*
X19825Y156103D02*
X198155Y15609D01*
X19802Y156034D01*
X197905Y155945D01*
X197816Y15583D01*
X19776Y155695D01*
X197747Y1556D01*
X19825D01*
Y156103D01*
D02*
G37*
G36*
Y1555D02*
X197747D01*
X19776Y155405D01*
X197816Y15527D01*
X197905Y155155D01*
X19802Y155066D01*
X198155Y15501D01*
X19825Y154997D01*
Y1555D01*
D02*
G37*
G36*
X19315Y150747D02*
Y15035D01*
X193547D01*
X193538Y150417D01*
X193493Y150527D01*
X193421Y150621D01*
X193327Y150693D01*
X193217Y150738D01*
X19315Y150747D01*
D02*
G37*
G36*
X196332Y155125D02*
X196187Y155106D01*
X196052Y15505D01*
X195936Y154961D01*
X195847Y154845D01*
X195791Y15471D01*
X195772Y154566D01*
X195791Y154421D01*
X195847Y154286D01*
X195936Y15417D01*
X19603Y154099D01*
Y154049D01*
X195936Y153977D01*
X195847Y153861D01*
X195791Y153726D01*
X195772Y153581D01*
X195791Y153437D01*
X195847Y153302D01*
X195936Y153186D01*
X196052Y153097D01*
X196187Y153041D01*
X196332Y153022D01*
X196476Y153041D01*
X196611Y153097D01*
X196727Y153186D01*
X196816Y153302D01*
X196872Y153437D01*
X196891Y153581D01*
X196872Y153726D01*
X196816Y153861D01*
X196727Y153977D01*
X196611Y154066D01*
Y154082D01*
X196727Y15417D01*
X196816Y154286D01*
X196872Y154421D01*
X196891Y154566D01*
X196872Y15471D01*
X196816Y154845D01*
X196727Y154961D01*
X196611Y15505D01*
X196476Y155106D01*
X196332Y155125D01*
D02*
G37*
G36*
X19835Y156103D02*
Y1556D01*
X198853D01*
X19884Y155695D01*
X198784Y15583D01*
X198695Y155945D01*
X19858Y156034D01*
X198445Y15609D01*
X19835Y156103D01*
D02*
G37*
G36*
X1956Y161159D02*
X195455Y16114D01*
X19532Y161084D01*
X195205Y160995D01*
X195116Y16088D01*
X19506Y160745D01*
X195041Y1606D01*
X19506Y160455D01*
X195116Y16032D01*
X195205Y160205D01*
X19532Y160116D01*
X195455Y16006D01*
X1956Y160041D01*
X195745Y16006D01*
X19588Y160116D01*
X195995Y160205D01*
X196084Y16032D01*
X19614Y160455D01*
X196159Y1606D01*
X19614Y160745D01*
X196084Y16088D01*
X195995Y160995D01*
X19588Y161084D01*
X195745Y16114D01*
X1956Y161159D01*
D02*
G37*
G36*
Y164159D02*
X195455Y16414D01*
X19532Y164084D01*
X195205Y163995D01*
X195116Y16388D01*
X19506Y163745D01*
X195041Y1636D01*
X19506Y163455D01*
X195116Y16332D01*
X195205Y163205D01*
X19532Y163116D01*
X195455Y16306D01*
X1956Y163041D01*
X195745Y16306D01*
X19588Y163116D01*
X195995Y163205D01*
X196084Y16332D01*
X19614Y163455D01*
X196159Y1636D01*
X19614Y163745D01*
X196084Y16388D01*
X195995Y163995D01*
X19588Y164084D01*
X195745Y16414D01*
X1956Y164159D01*
D02*
G37*
G36*
X19135Y159657D02*
Y15935D01*
X191657D01*
X191651Y159394D01*
X191614Y159482D01*
X191557Y159557D01*
X191482Y159614D01*
X191394Y159651D01*
X19135Y159657D01*
D02*
G37*
G36*
X196332Y158078D02*
X196187Y158059D01*
X196052Y158003D01*
X195936Y157914D01*
X195847Y157798D01*
X195791Y157663D01*
X195772Y157519D01*
X195791Y157374D01*
X195847Y157239D01*
X195936Y157123D01*
X19603Y157051D01*
Y157001D01*
X195936Y15693D01*
X195847Y156814D01*
X195791Y156679D01*
X195772Y156534D01*
X195791Y15639D01*
X195847Y156255D01*
X195936Y156139D01*
X196052Y15605D01*
X196187Y155994D01*
X196332Y155975D01*
X196476Y155994D01*
X196611Y15605D01*
X196727Y156139D01*
X196816Y156255D01*
X196872Y15639D01*
X196891Y156534D01*
X196872Y156679D01*
X196816Y156814D01*
X196727Y15693D01*
X196611Y157018D01*
Y157034D01*
X196727Y157123D01*
X196816Y157239D01*
X196872Y157374D01*
X196891Y157519D01*
X196872Y157663D01*
X196816Y157798D01*
X196727Y157914D01*
X196611Y158003D01*
X196476Y158059D01*
X196332Y158078D01*
D02*
G37*
G36*
X191657Y15925D02*
X19135D01*
Y158943D01*
X191394Y158949D01*
X191482Y158986D01*
X191557Y159043D01*
X191614Y159118D01*
X191651Y159206D01*
X191657Y15925D01*
D02*
G37*
%LPD*%
D25*
X2018Y1487D02*
X2022Y1483D01*
Y1473D02*
Y1483D01*
X2018Y1469D02*
X2022Y1473D01*
X193Y1502D02*
X1931D01*
X1944Y1503D02*
X1947Y15D01*
X1898Y145D02*
Y148D01*
X18895Y14885D02*
X1898Y148D01*
X1884Y14885D02*
X18895D01*
X19185Y14735D02*
X19815D01*
X1987Y1479D01*
X2017D01*
X1924Y1469D02*
X2018D01*
X1947Y15D02*
X2011D01*
X2017Y1494D01*
X1884Y14835D02*
X1893Y14745D01*
X1898Y145D02*
X1905Y1443D01*
X1893Y144793D02*
X190146Y143946D01*
X198375Y134808D02*
X199146Y135579D01*
X190146Y143946D02*
X196154D01*
X199146Y140954D01*
Y135579D02*
Y140954D01*
X1905Y1443D02*
X197D01*
X201928Y139372D01*
Y135024D02*
Y139372D01*
X1883Y1463D02*
X1888Y1458D01*
Y1444D02*
Y1458D01*
Y1444D02*
X1904Y1428D01*
X191D01*
X1893Y144793D02*
Y14745D01*
X2003Y1363D02*
Y1398D01*
Y1363D02*
X201435Y135165D01*
Y134937D02*
Y135165D01*
X197892Y134937D02*
Y135192D01*
X1979Y1352D01*
Y1398D01*
X1859Y1384D02*
X1881D01*
X1908Y1503D02*
X1909Y1502D01*
X1862Y1418D02*
Y1516D01*
Y1418D02*
X1868Y1412D01*
Y1403D02*
Y1412D01*
X1859Y1394D02*
X1868Y1403D01*
X1859Y1394D02*
X1882D01*
X1891Y1385D01*
Y1373D02*
Y1385D01*
Y1373D02*
X1892Y1372D01*
X1908Y170171D02*
X190829Y1702D01*
X196455Y167055D02*
Y167815D01*
X1913Y1619D02*
X196455Y167055D01*
X1913Y1593D02*
Y1619D01*
X195Y1732D02*
X1961D01*
X1963Y173D01*
Y170909D02*
Y173D01*
X195205Y169815D02*
X1963Y170909D01*
D26*
X1909Y1481D02*
X193Y1502D01*
X1909Y1464D02*
Y1481D01*
X1951Y1522D02*
X1967D01*
X1931Y1502D02*
X1951Y1522D01*
X1967D02*
X1983Y1538D01*
Y15555D01*
X1909Y1464D02*
X1923Y145D01*
X1928D01*
X1862Y1516D02*
X1908D01*
D28*
X1933Y1727D02*
X1955D01*
X1923Y1717D02*
X1933Y1727D01*
X1923Y1652D02*
Y1717D01*
X1983Y15555D02*
Y16597D01*
X196455Y167815D02*
X1983Y16597D01*
X1908Y1503D02*
Y1516D01*
Y170171D01*
D32*
X194Y1398D02*
D03*
Y1408D02*
D03*
Y1418D02*
D03*
Y1428D02*
D03*
X191Y1398D02*
D03*
Y1408D02*
D03*
Y1418D02*
D03*
X1859Y1354D02*
D03*
Y1364D02*
D03*
Y1374D02*
D03*
Y1384D02*
D03*
Y1394D02*
D03*
X187475Y172539D02*
D03*
D33*
X191Y1428D02*
D03*
X2008Y1429D02*
D03*
X186475Y172539D02*
D03*
D34*
X193955Y167815D02*
D03*
X196455D02*
D03*
X195205Y169815D02*
D03*
D35*
X1859Y1404D02*
D03*
D36*
X200943Y134851D02*
D03*
X201435Y134937D02*
D03*
X201928Y135024D02*
D03*
D37*
X197409Y135067D02*
D03*
X197892Y134937D02*
D03*
X198375Y134808D02*
D03*
D38*
X1881Y1581D02*
D03*
Y156722D02*
D03*
D39*
Y155344D02*
D03*
D40*
X1956Y1636D02*
D03*
Y1606D02*
D03*
X186899D02*
D03*
X185639Y1636D02*
D03*
X188159D02*
D03*
X196332Y156534D02*
D03*
Y154566D02*
D03*
Y157519D02*
D03*
Y153581D02*
D03*
X1983Y15555D02*
D03*
D41*
X1944Y1503D02*
D03*
X19185Y14735D02*
D03*
X1924Y1469D02*
D03*
X2017Y1479D02*
D03*
Y1487D02*
D03*
Y1494D02*
D03*
X1884Y14835D02*
D03*
Y14885D02*
D03*
X1883Y1463D02*
D03*
X2003Y1398D02*
D03*
X1979D02*
D03*
X1881Y1384D02*
D03*
X1862Y1516D02*
D03*
X1892Y1372D02*
D03*
X1913Y1593D02*
D03*
X195Y1732D02*
D03*
D42*
X1955Y1727D02*
D03*
X1923Y1652D02*
D03*
X1931Y1503D02*
D03*
X1928Y145D02*
D03*
X1909Y1502D02*
D03*
X190829Y1702D02*
D03*
M02*
