M48
;Layer_Color=9474304
;FILE_FORMAT=2:5
INCH,TZ
;TYPE=PLATED
T1F00S00C0.02800
T2F00S00C0.03543
T3F00S00C0.16535
;TYPE=NON_PLATED
%
T01
X-79400Y251400
X-45000Y242300
X-45300Y219800
X-34700Y269300
X-124500Y234000
X-141200Y222400
X-150600Y223200
X-183600Y204300
X-226400Y218700
X-206900Y265300
X-115600Y201600
X-274800Y216100
X-287800Y288400
T02
X-105900Y184500
X-108110Y292610
X-78740
X-68740
X-15748Y272925
Y262925
Y252925
Y233555
Y223555
Y213555
X-115900Y184500
X-125900
X-135900
X-145900
X-155900
X-186850Y272925
X-196850
Y292610
X-186850
X-236221
X-246220
Y272925
X-236221
X-118110Y292610
X-299213Y284736
Y274736
Y245366
Y235366
Y213870
Y203870
T03
X-13780Y298516
X-301181Y188279
M30
