%FSTAX24Y24*%
%MOIN*%
G70*
G01*
G75*
G04 Layer_Color=65535*
%ADD10O,0.0394X0.0984*%
%ADD11R,0.0394X0.0984*%
%ADD12R,0.0394X0.0512*%
%ADD13R,0.0709X0.0709*%
%ADD14R,0.0472X0.0512*%
%ADD15R,0.1004X0.0374*%
%ADD16R,0.1004X0.1299*%
%ADD17O,0.0945X0.0236*%
%ADD18R,0.0945X0.0236*%
%ADD19R,0.0512X0.0394*%
%ADD20R,0.0630X0.0630*%
%ADD21R,0.0374X0.0315*%
%ADD22R,0.0984X0.0512*%
%ADD23O,0.0906X0.0236*%
%ADD24R,0.0709X0.0709*%
%ADD25R,0.0256X0.0472*%
%ADD26C,0.0100*%
%ADD27C,0.0300*%
%ADD28C,0.0250*%
%ADD29C,0.0400*%
%ADD30C,0.0600*%
%ADD31C,0.0200*%
%ADD32C,0.0080*%
%ADD33C,0.0060*%
%ADD34C,0.2756*%
%ADD35C,0.0709*%
%ADD36C,0.0984*%
%ADD37R,0.0984X0.0984*%
G04:AMPARAMS|DCode=38|XSize=37.4mil|YSize=57.1mil|CornerRadius=0mil|HoleSize=0mil|Usage=FLASHONLY|Rotation=345.000|XOffset=0mil|YOffset=0mil|HoleType=Round|Shape=Round|*
%AMOVALD38*
21,1,0.0197,0.0374,0.0000,0.0000,75.0*
1,1,0.0374,-0.0025,-0.0095*
1,1,0.0374,0.0025,0.0095*
%
%ADD38OVALD38*%

G04:AMPARAMS|DCode=39|XSize=37.4mil|YSize=57.1mil|CornerRadius=0mil|HoleSize=0mil|Usage=FLASHONLY|Rotation=10.000|XOffset=0mil|YOffset=0mil|HoleType=Round|Shape=Round|*
%AMOVALD39*
21,1,0.0197,0.0374,0.0000,0.0000,100.0*
1,1,0.0374,0.0017,-0.0097*
1,1,0.0374,-0.0017,0.0097*
%
%ADD39OVALD39*%

%ADD40R,0.0591X0.0591*%
%ADD41C,0.0591*%
%ADD42R,0.0591X0.0591*%
%ADD43C,0.1800*%
%ADD44C,0.0320*%
%ADD45C,0.0500*%
%ADD46C,0.0098*%
%ADD47C,0.0079*%
%ADD48C,0.0236*%
%ADD49C,0.0040*%
%ADD50C,0.0030*%
G04:AMPARAMS|DCode=51|XSize=165.4mil|YSize=0mil|CornerRadius=0mil|HoleSize=0mil|Usage=FLASHONLY|Rotation=345.000|XOffset=0mil|YOffset=0mil|HoleType=Round|Shape=Rectangle|*
%AMROTATEDRECTD51*
4,1,4,-0.0799,0.0214,-0.0799,0.0214,0.0799,-0.0214,0.0799,-0.0214,-0.0799,0.0214,0.0*
%
%ADD51ROTATEDRECTD51*%

G04:AMPARAMS|DCode=52|XSize=173.2mil|YSize=15.7mil|CornerRadius=0mil|HoleSize=0mil|Usage=FLASHONLY|Rotation=345.000|XOffset=0mil|YOffset=0mil|HoleType=Round|Shape=Rectangle|*
%AMROTATEDRECTD52*
4,1,4,-0.0857,0.0148,-0.0816,0.0300,0.0857,-0.0148,0.0816,-0.0300,-0.0857,0.0148,0.0*
%
%ADD52ROTATEDRECTD52*%

G04:AMPARAMS|DCode=53|XSize=165.4mil|YSize=0mil|CornerRadius=0mil|HoleSize=0mil|Usage=FLASHONLY|Rotation=10.000|XOffset=0mil|YOffset=0mil|HoleType=Round|Shape=Rectangle|*
%AMROTATEDRECTD53*
4,1,4,-0.0814,-0.0144,-0.0814,-0.0144,0.0814,0.0144,0.0814,0.0144,-0.0814,-0.0144,0.0*
%
%ADD53ROTATEDRECTD53*%

G04:AMPARAMS|DCode=54|XSize=173.2mil|YSize=15.7mil|CornerRadius=0mil|HoleSize=0mil|Usage=FLASHONLY|Rotation=10.000|XOffset=0mil|YOffset=0mil|HoleType=Round|Shape=Rectangle|*
%AMROTATEDRECTD54*
4,1,4,-0.0839,-0.0228,-0.0867,-0.0073,0.0839,0.0228,0.0867,0.0073,-0.0839,-0.0228,0.0*
%
%ADD54ROTATEDRECTD54*%

D26*
X185Y1601D02*
X19625D01*
Y1641D01*
X185D02*
X19625D01*
X185Y1601D02*
Y1641D01*
X192754Y15872D02*
X194172D01*
Y158011D02*
Y15872D01*
X192754Y158011D02*
X194172D01*
X192754D02*
Y15872D01*
X193793Y164449D02*
Y165551D01*
Y164449D02*
X19584D01*
Y165551D01*
X193793D02*
X19584D01*
X195407Y164449D02*
Y165551D01*
X19941Y1531D02*
Y15803D01*
X19483D02*
X19941D01*
X19483Y1531D02*
Y15803D01*
Y1531D02*
X19941D01*
X187385Y143324D02*
Y143876D01*
Y143324D02*
X188802D01*
Y143876D01*
X187385D02*
X188802D01*
X188606Y143324D02*
Y143876D01*
X189915Y172524D02*
Y173076D01*
X188498D02*
X189915D01*
X188498Y172524D02*
Y173076D01*
Y172524D02*
X189915D01*
X188694D02*
Y173076D01*
X198746Y136291D02*
Y137709D01*
X199454D01*
Y136291D02*
Y137709D01*
X198746Y136291D02*
X199454D01*
X201046D02*
Y137709D01*
X201754D01*
Y136291D02*
Y137709D01*
X201046Y136291D02*
X201754D01*
X195291Y150646D02*
X196709D01*
X195291D02*
Y151354D01*
X196709D01*
Y150646D02*
Y151354D01*
X187391Y143054D02*
X188809D01*
Y142346D02*
Y143054D01*
X187391Y142346D02*
X188809D01*
X187391D02*
Y143054D01*
X188491Y171546D02*
X189909D01*
X188491D02*
Y172254D01*
X189909D01*
Y171546D02*
Y172254D01*
X186791Y150954D02*
X188209D01*
Y150246D02*
Y150954D01*
X186791Y150246D02*
X188209D01*
X186791D02*
Y150954D01*
Y151954D02*
X188209D01*
Y151246D02*
Y151954D01*
X186791Y151246D02*
X188209D01*
X186791D02*
Y151954D01*
X196767Y170098D02*
X197633D01*
Y172302D01*
X196767D02*
X197633D01*
X196767Y170098D02*
Y172302D01*
X194476Y170809D02*
Y171991D01*
X193924Y170809D02*
X194476D01*
X193924D02*
Y171991D01*
X194476D01*
X197746Y136291D02*
X198454D01*
Y137709D01*
X197746D02*
X198454D01*
X197746Y136291D02*
Y137709D01*
X198067Y172302D02*
X198933D01*
X198067Y170098D02*
Y172302D01*
Y170098D02*
X198933D01*
Y172302D01*
X194476Y172309D02*
Y173491D01*
X193924Y172309D02*
X194476D01*
X193924D02*
Y173491D01*
X194476D01*
X200046Y136291D02*
X200754D01*
Y137709D01*
X200046D02*
X200754D01*
X200046Y136291D02*
Y137709D01*
X186791Y152246D02*
Y152954D01*
Y152246D02*
X188209D01*
Y152954D01*
X186791D02*
X188209D01*
X191846Y149291D02*
X192554D01*
Y150709D01*
X191846D02*
X192554D01*
X191846Y149291D02*
Y150709D01*
X199368Y165964D02*
Y169744D01*
X19366Y165964D02*
X199368D01*
X19366D02*
Y169744D01*
X199368D01*
X199176Y165964D02*
Y169744D01*
X196649Y160783D02*
X197751D01*
Y16035D02*
Y162397D01*
X196649Y16035D02*
X197751D01*
X196649D02*
Y162397D01*
X197751D01*
X191236Y153869D02*
X191944D01*
X191236Y152451D02*
Y153869D01*
Y152451D02*
X191944D01*
Y153869D01*
X196491Y164746D02*
Y165454D01*
Y164746D02*
X197909D01*
Y165454D01*
X196491D02*
X197909D01*
X188331Y139706D02*
Y140414D01*
Y139706D02*
X189749D01*
Y140414D01*
X188331D02*
X189749D01*
X195496Y143259D02*
X196204D01*
X195496Y141841D02*
Y143259D01*
Y141841D02*
X196204D01*
Y143259D01*
X196496D02*
X197204D01*
X196496Y141841D02*
Y143259D01*
Y141841D02*
X197204D01*
Y143259D01*
X197496D02*
X198204D01*
X197496Y141841D02*
Y143259D01*
Y141841D02*
X198204D01*
Y143259D01*
X198496D02*
X199204D01*
X198496Y141841D02*
Y143259D01*
Y141841D02*
X199204D01*
Y143259D01*
X193975Y151712D02*
Y152421D01*
X192557D02*
X193975D01*
X192557Y151712D02*
Y152421D01*
Y151712D02*
X193975D01*
X184705Y165295D02*
Y169075D01*
X184513Y165295D02*
X190222D01*
Y169075D01*
X184513D02*
X190222D01*
X184513Y165295D02*
Y169075D01*
X18571Y16861D02*
X18551D01*
X18561D01*
Y16811D01*
X18551Y16801D01*
X18541D01*
X18531Y16811D01*
X18591Y16851D02*
X18601Y16861D01*
X18621D01*
X18631Y16851D01*
Y16841D01*
X18621Y16831D01*
X18611D01*
X18621D01*
X18631Y16821D01*
Y16811D01*
X18621Y16801D01*
X18601D01*
X18591Y16811D01*
X1893Y1552D02*
Y1555D01*
X1895Y1552D01*
Y1555D01*
X18975D02*
X18965D01*
X1896Y15545D01*
Y15525D01*
X18965Y1552D01*
X18975D01*
X1898Y15525D01*
Y15545D01*
X18975Y1555D01*
X1893Y1581D02*
Y1584D01*
X1895Y1581D01*
Y1584D01*
X1898Y15835D02*
X18975Y1584D01*
X18965D01*
X1896Y15835D01*
Y15815D01*
X18965Y1581D01*
X18975D01*
X1898Y15815D01*
X1894Y15685D02*
X18935Y1569D01*
X18925D01*
X1892Y15685D01*
Y15665D01*
X18925Y1566D01*
X18935D01*
X1894Y15665D01*
X18965Y1569D02*
X18955D01*
X1895Y15685D01*
Y15665D01*
X18955Y1566D01*
X18965D01*
X1897Y15665D01*
Y15685D01*
X18965Y1569D01*
X1898Y1566D02*
Y1569D01*
X1899Y1568D01*
X19Y1569D01*
Y1566D01*
D32*
X19528Y14076D02*
X195363D01*
X195322D01*
Y14101D01*
X19528Y140968D01*
X195905Y14076D02*
X195738D01*
X195905Y140927D01*
Y140968D01*
X195863Y14101D01*
X19578D01*
X195738Y140968D01*
X196238D02*
X19628Y14101D01*
X196363D01*
X196405Y140968D01*
Y140927D01*
X196363Y140885D01*
X196321D01*
X196363D01*
X196405Y140843D01*
Y140802D01*
X196363Y14076D01*
X19628D01*
X196238Y140802D01*
X196863Y14076D02*
Y14101D01*
X196738Y140885D01*
X196904D01*
X193561Y158956D02*
Y159206D01*
X193686D01*
X193728Y159165D01*
Y159081D01*
X193686Y15904D01*
X193561D01*
X193811Y159123D02*
Y158998D01*
X193853Y158956D01*
X193978D01*
Y159123D01*
X194061Y158956D02*
X194145D01*
X194103D01*
Y159206D01*
X194061D01*
X19427Y158956D02*
X194353D01*
X194311D01*
Y159206D01*
X19427D01*
X194478Y158915D02*
X194644D01*
X194728Y159206D02*
Y158998D01*
X194769Y158956D01*
X194853D01*
X194894Y158998D01*
Y159206D01*
X195061Y158956D02*
X194978Y15904D01*
Y159123D01*
X195061Y159206D01*
X195352D02*
X195186D01*
Y159081D01*
X195269Y159123D01*
X195311D01*
X195352Y159081D01*
Y158998D01*
X195311Y158956D01*
X195228D01*
X195186Y158998D01*
X195436Y159206D02*
Y15904D01*
X195519Y158956D01*
X195602Y15904D01*
Y159206D01*
X195686Y158956D02*
X195769Y15904D01*
Y159123D01*
X195686Y159206D01*
X196394Y158956D02*
Y159206D01*
X196519D01*
X19656Y159165D01*
Y159081D01*
X196519Y15904D01*
X196394D01*
X196644Y159123D02*
Y158998D01*
X196685Y158956D01*
X19681D01*
Y159123D01*
X196894Y158956D02*
X196977D01*
X196935D01*
Y159206D01*
X196894D01*
X197102Y158956D02*
X197185D01*
X197144D01*
Y159206D01*
X197102D01*
X19731Y158915D02*
X197477D01*
X19756Y159206D02*
Y158956D01*
X197685D01*
X197727Y158998D01*
Y159165D01*
X197685Y159206D01*
X19756D01*
X198726Y159165D02*
X198685Y159206D01*
X198601D01*
X19856Y159165D01*
Y158998D01*
X198601Y158956D01*
X198685D01*
X198726Y158998D01*
Y159081D01*
X198643D01*
X19881Y158956D02*
Y159206D01*
X198976Y158956D01*
Y159206D01*
X19906D02*
Y158956D01*
X199185D01*
X199226Y158998D01*
Y159165D01*
X199185Y159206D01*
X19906D01*
D33*
X18686Y13517D02*
Y13542D01*
X186985D01*
X187027Y135378D01*
Y135295D01*
X186985Y135253D01*
X18686D01*
X186943D02*
X187027Y13517D01*
X18711D02*
Y135337D01*
X187193Y13542D01*
X187277Y135337D01*
Y13517D01*
Y135295D01*
X18711D01*
X18736Y13542D02*
Y13517D01*
X187485D01*
X187526Y135212D01*
Y135378D01*
X187485Y13542D01*
X18736D01*
X18761D02*
X187693D01*
X187651D01*
Y13517D01*
X18761D01*
X187693D01*
X187943Y13542D02*
X18786D01*
X187818Y135378D01*
Y135212D01*
X18786Y13517D01*
X187943D01*
X187985Y135212D01*
Y135378D01*
X187943Y13542D01*
X188235Y135378D02*
X188193Y13542D01*
X18811D01*
X188068Y135378D01*
Y135337D01*
X18811Y135295D01*
X188193D01*
X188235Y135253D01*
Y135212D01*
X188193Y13517D01*
X18811D01*
X188068Y135212D01*
X188318Y13542D02*
Y13517D01*
X188484D01*
X188568D02*
Y135337D01*
X188651Y13542D01*
X188734Y135337D01*
Y13517D01*
Y135295D01*
X188568D01*
X188818Y13542D02*
Y135253D01*
X188901Y13517D01*
X188984Y135253D01*
Y13542D01*
X189234D02*
X189068D01*
Y13517D01*
X189234D01*
X189068Y135295D02*
X189151D01*
X189567Y135337D02*
X189651Y13517D01*
X189734Y135337D01*
X189984Y13517D02*
X189817D01*
X189984Y135337D01*
Y135378D01*
X189942Y13542D01*
X189859D01*
X189817Y135378D01*
X20088Y14139D02*
X20113D01*
Y141515D01*
X201088Y141557D01*
X200922D01*
X20088Y141515D01*
Y14139D01*
X20113Y14164D02*
Y141723D01*
Y141682D01*
X200963D01*
Y14164D01*
Y14189D02*
Y141973D01*
X201005Y142015D01*
X20113D01*
Y14189D01*
X201088Y141848D01*
X201047Y14189D01*
Y142015D01*
X201213Y142098D02*
X200963D01*
Y142223D01*
X201005Y142265D01*
X201088D01*
X20113Y142223D01*
Y142098D01*
X200963Y142348D02*
X20113D01*
X201047D01*
X201005Y14239D01*
X200963Y142431D01*
Y142473D01*
X20113Y14264D02*
Y142723D01*
X201088Y142765D01*
X201005D01*
X200963Y142723D01*
Y14264D01*
X201005Y142598D01*
X201088D01*
X20113Y14264D01*
Y143098D02*
X20088D01*
X201047D02*
X200963Y143223D01*
X201047Y143098D02*
X20113Y143223D01*
Y143389D02*
X200922D01*
X201005D01*
Y143348D01*
Y143431D01*
Y143389D01*
X200922D01*
X20088Y143431D01*
X200922Y143598D02*
X200963D01*
Y143556D01*
Y143639D01*
Y143598D01*
X201088D01*
X20113Y143639D01*
X197014Y139303D02*
Y139178D01*
X197056Y139136D01*
X197097Y139178D01*
X197139Y139136D01*
X197181Y139178D01*
Y139303D01*
X197264D02*
Y139178D01*
X197306Y139136D01*
X197347Y139178D01*
X197389Y139136D01*
X197431Y139178D01*
Y139303D01*
X197514D02*
Y139178D01*
X197556Y139136D01*
X197597Y139178D01*
X197639Y139136D01*
X197681Y139178D01*
Y139303D01*
X197764Y139136D02*
Y139178D01*
X197806D01*
Y139136D01*
X197764D01*
X198139Y139386D02*
Y139136D01*
X198014D01*
X197972Y139178D01*
Y139261D01*
X198014Y139303D01*
X198139D01*
X198222Y139136D02*
X198305D01*
X198264D01*
Y139303D01*
X198222D01*
X198472D02*
X198555D01*
X198597Y139261D01*
Y139136D01*
X198472D01*
X19843Y139178D01*
X198472Y13922D01*
X198597D01*
X19868Y139053D02*
Y139303D01*
X198805D01*
X198847Y139261D01*
Y139178D01*
X198805Y139136D01*
X19868D01*
X19893Y139303D02*
Y139136D01*
Y13922D01*
X198972Y139261D01*
X199014Y139303D01*
X199055D01*
X199222Y139136D02*
X199305D01*
X199347Y139178D01*
Y139261D01*
X199305Y139303D01*
X199222D01*
X19918Y139261D01*
Y139178D01*
X199222Y139136D01*
X19943D02*
Y139178D01*
X199472D01*
Y139136D01*
X19943D01*
X199638Y139386D02*
Y139136D01*
Y139261D01*
X19968Y139303D01*
X199763D01*
X199805Y139261D01*
Y139136D01*
X199888Y139303D02*
Y139178D01*
X19993Y139136D01*
X200055D01*
Y139303D01*
X201583Y14135D02*
X201708D01*
X20175Y141392D01*
X201708Y141433D01*
X20175Y141475D01*
X201708Y141517D01*
X201583D01*
Y1416D02*
X201708D01*
X20175Y141642D01*
X201708Y141683D01*
X20175Y141725D01*
X201708Y141767D01*
X201583D01*
Y14185D02*
X201708D01*
X20175Y141891D01*
X201708Y141933D01*
X20175Y141975D01*
X201708Y142016D01*
X201583D01*
X20175Y1421D02*
X201708D01*
Y142141D01*
X20175D01*
Y1421D01*
X2015Y142475D02*
X20175D01*
Y14235D01*
X201708Y142308D01*
X201625D01*
X201583Y14235D01*
Y142475D01*
X20175Y142558D02*
Y142641D01*
Y1426D01*
X201583D01*
Y142558D01*
Y142808D02*
Y142891D01*
X201625Y142933D01*
X20175D01*
Y142808D01*
X201708Y142766D01*
X201667Y142808D01*
Y142933D01*
X201833Y143016D02*
X201583D01*
Y143141D01*
X201625Y143183D01*
X201708D01*
X20175Y143141D01*
Y143016D01*
X201583Y143266D02*
X20175D01*
X201667D01*
X201625Y143308D01*
X201583Y143349D01*
Y143391D01*
X20175Y143558D02*
Y143641D01*
X201708Y143683D01*
X201625D01*
X201583Y143641D01*
Y143558D01*
X201625Y143516D01*
X201708D01*
X20175Y143558D01*
Y143766D02*
X201708D01*
Y143808D01*
X20175D01*
Y143766D01*
X2015Y143974D02*
X20175D01*
X201625D01*
X201583Y144016D01*
Y144099D01*
X201625Y144141D01*
X20175D01*
X201583Y144224D02*
X201708D01*
X20175Y144266D01*
Y144391D01*
X201583D01*
D46*
X192335Y170876D02*
G03*
X192335Y170876I-000049J0D01*
G01*
X198189Y151907D02*
G03*
X198189Y151907I-000049J0D01*
G01*
X187358Y149685D02*
G03*
X187358Y149685I-000049J0D01*
G01*
X190615Y140822D02*
G03*
X190615Y140822I-000049J0D01*
G01*
D47*
X187Y171188D02*
G03*
X187Y171188I-000118J0D01*
G01*
X197403Y150289D02*
G03*
X197797Y150289I000197J0D01*
G01*
X19055Y142072D02*
G03*
X19055Y142572I0J00025D01*
G01*
X184505Y15906D02*
X188245D01*
Y15438D02*
Y15906D01*
X184505Y15438D02*
Y15906D01*
Y15438D02*
X188245D01*
X198788Y135085D02*
X198806Y135153D01*
X198546Y134334D02*
X198584Y134324D01*
X19719Y135513D02*
X197209Y135581D01*
X196987Y134752D02*
X197025Y134742D01*
X202172Y135519D02*
X202185Y135449D01*
X202283Y134667D02*
X202321Y134674D01*
X200544Y135232D02*
X200556Y135162D01*
X200693Y134387D02*
X200732Y134394D01*
X187975Y172039D02*
Y173039D01*
X185975Y172039D02*
X187975D01*
X185975D02*
Y173039D01*
X187975D01*
X1854Y1349D02*
X1864D01*
X1854Y1409D02*
X1864D01*
Y1349D02*
Y1409D01*
X1854Y1349D02*
Y1409D01*
X192512Y170581D02*
Y173219D01*
X191488Y170581D02*
Y173219D01*
Y170581D02*
X192512D01*
X191488Y173219D02*
X192512D01*
X186646Y169456D02*
X187354D01*
X186646Y171424D02*
X187354D01*
Y169456D02*
Y171424D01*
X186646Y169456D02*
Y171424D01*
X197797Y150289D02*
X199929D01*
Y143911D02*
Y150289D01*
X195271Y150283D02*
X195277Y150289D01*
X197403D01*
X195271Y143911D02*
X199929D01*
X195271D02*
Y150283D01*
X197589Y151651D02*
X198691D01*
X198691Y150549D02*
Y151651D01*
X197589Y150549D02*
X198691D01*
X197589Y150549D02*
Y151651D01*
X187919Y144541D02*
X190281D01*
X187919Y149659D02*
X190281D01*
Y144541D02*
Y149659D01*
X187919Y144541D02*
Y149659D01*
X19055Y141279D02*
X194605D01*
X19055Y143366D02*
X194605D01*
X19055Y141279D02*
Y142072D01*
Y142572D02*
Y143366D01*
X194605Y141279D02*
Y143366D01*
X196649Y16345D02*
Y16395D01*
X197751Y16345D02*
Y16395D01*
X196649Y16345D02*
X197751D01*
X196649Y16395D02*
X197751D01*
D48*
X188431Y149265D02*
G03*
X188431Y149265I-000118J0D01*
G01*
X191061Y141673D02*
G03*
X191061Y141673I-000118J0D01*
G01*
D49*
X193135Y151963D02*
Y152163D01*
X193235D01*
X193269Y15213D01*
Y152063D01*
X193235Y15203D01*
X193135D01*
X193202D02*
X193269Y151963D01*
X193335D02*
X193402D01*
X193369D01*
Y152163D01*
X193335Y15213D01*
X19707Y1638D02*
X197203D01*
X197137D01*
Y1636D01*
X19727D02*
X197337D01*
X197303D01*
Y1638D01*
X19727Y163767D01*
X19248Y142389D02*
X192447Y142422D01*
X19238D01*
X192347Y142389D01*
Y142356D01*
X19238Y142322D01*
X192447D01*
X19248Y142289D01*
Y142256D01*
X192447Y142222D01*
X19238D01*
X192347Y142256D01*
X192547Y142422D02*
Y142222D01*
X192614Y142289D01*
X19268Y142222D01*
Y142422D01*
X192747Y142222D02*
X192814D01*
X19278D01*
Y142422D01*
X192747Y142389D01*
X19863Y14245D02*
Y14265D01*
X19873D01*
X198763Y142617D01*
Y14255D01*
X19873Y142517D01*
X19863D01*
X198697D02*
X198763Y14245D01*
X19883D02*
X198897D01*
X198863D01*
Y14265D01*
X19883Y142617D01*
X198997Y14245D02*
X199063D01*
X19903D01*
Y14265D01*
X198997Y142617D01*
X19768Y14245D02*
Y14265D01*
X19778D01*
X197813Y142617D01*
Y14255D01*
X19778Y142517D01*
X19768D01*
X197747D02*
X197813Y14245D01*
X19788Y142483D02*
X197913Y14245D01*
X19798D01*
X198013Y142483D01*
Y142617D01*
X19798Y14265D01*
X197913D01*
X19788Y142617D01*
Y142583D01*
X197913Y14255D01*
X198013D01*
X19668Y14245D02*
Y14265D01*
X19678D01*
X196813Y142617D01*
Y14255D01*
X19678Y142517D01*
X19668D01*
X196747D02*
X196813Y14245D01*
X19688Y142617D02*
X196913Y14265D01*
X19698D01*
X197013Y142617D01*
Y142583D01*
X19698Y14255D01*
X197013Y142517D01*
Y142483D01*
X19698Y14245D01*
X196913D01*
X19688Y142483D01*
Y142517D01*
X196913Y14255D01*
X19688Y142583D01*
Y142617D01*
X196913Y14255D02*
X19698D01*
X19568Y14245D02*
Y14265D01*
X19578D01*
X195813Y142617D01*
Y14255D01*
X19578Y142517D01*
X19568D01*
X195747D02*
X195813Y14245D01*
X19588Y14265D02*
X196013D01*
Y142617D01*
X19588Y142483D01*
Y14245D01*
X18887Y13996D02*
Y14016D01*
X18897D01*
X189003Y140127D01*
Y14006D01*
X18897Y140027D01*
X18887D01*
X188937D02*
X189003Y13996D01*
X189203Y14016D02*
X18907D01*
Y14006D01*
X189137Y140093D01*
X18917D01*
X189203Y14006D01*
Y139993D01*
X18917Y13996D01*
X189103D01*
X18907Y139993D01*
X19695Y165D02*
Y1652D01*
X19705D01*
X197083Y165167D01*
Y1651D01*
X19705Y165067D01*
X19695D01*
X197017D02*
X197083Y165D01*
X19715D02*
X197217D01*
X197183D01*
Y1652D01*
X19715Y165167D01*
X19745Y1652D02*
X197317D01*
Y1651D01*
X197383Y165133D01*
X197417D01*
X19745Y1651D01*
Y165033D01*
X197417Y165D01*
X19735D01*
X197317Y165033D01*
X19134Y15306D02*
Y15326D01*
X19144D01*
X191473Y153227D01*
Y15316D01*
X19144Y153127D01*
X19134D01*
X191407D02*
X191473Y15306D01*
X19154D02*
X191607D01*
X191573D01*
Y15326D01*
X19154Y153227D01*
X191807Y15306D02*
Y15326D01*
X191707Y15316D01*
X19184D01*
X19703Y16147D02*
Y16127D01*
X19713D01*
X197163Y161303D01*
Y161437D01*
X19713Y16147D01*
X19703D01*
X19733Y16127D02*
Y16147D01*
X19723Y16137D01*
X197363D01*
X18897Y1472D02*
Y147033D01*
X189003Y147D01*
X18907D01*
X189103Y147033D01*
Y1472D01*
X18917Y147D02*
X189237D01*
X189203D01*
Y1472D01*
X18917Y147167D01*
X198103Y15136D02*
X198037D01*
X19807D01*
Y151193D01*
X198037Y15116D01*
X198003D01*
X19797Y151193D01*
X198303Y15116D02*
X19817D01*
X198303Y151293D01*
Y151327D01*
X19827Y15136D01*
X198203D01*
X19817Y151327D01*
X196213Y16843D02*
X196147D01*
X19618D01*
Y168263D01*
X196147Y16823D01*
X196113D01*
X19608Y168263D01*
X19628Y16823D02*
X196347D01*
X196313D01*
Y16843D01*
X19628Y168397D01*
X19743Y1472D02*
Y147033D01*
X197463Y147D01*
X19753D01*
X197563Y147033D01*
Y1472D01*
X197763D02*
X19763D01*
Y1471D01*
X197697Y147133D01*
X19773D01*
X197763Y1471D01*
Y147033D01*
X19773Y147D01*
X197663D01*
X19763Y147033D01*
X192203Y150067D02*
X19217Y1501D01*
X192103D01*
X19207Y150067D01*
Y149933D01*
X192103Y1499D01*
X19217D01*
X192203Y149933D01*
X19227Y1499D02*
X192337D01*
X192303D01*
Y1501D01*
X19227Y150067D01*
X187463Y152667D02*
X18743Y1527D01*
X187363D01*
X18733Y152667D01*
Y152533D01*
X187363Y1525D01*
X18743D01*
X187463Y152533D01*
X187663Y1525D02*
X18753D01*
X187663Y152633D01*
Y152667D01*
X18763Y1527D01*
X187563D01*
X18753Y152667D01*
X200363Y137067D02*
X20033Y1371D01*
X200263D01*
X20023Y137067D01*
Y136933D01*
X200263Y1369D01*
X20033D01*
X200363Y136933D01*
X20043Y137067D02*
X200463Y1371D01*
X20053D01*
X200563Y137067D01*
Y137033D01*
X20053Y137D01*
X200497D01*
X20053D01*
X200563Y136967D01*
Y136933D01*
X20053Y1369D01*
X200463D01*
X20043Y136933D01*
X194163Y172967D02*
X19413Y173D01*
X194063D01*
X19403Y172967D01*
Y172833D01*
X194063Y1728D01*
X19413D01*
X194163Y172833D01*
X19433Y1728D02*
Y173D01*
X19423Y1729D01*
X194363D01*
X198463Y171267D02*
X19843Y1713D01*
X198363D01*
X19833Y171267D01*
Y171133D01*
X198363Y1711D01*
X19843D01*
X198463Y171133D01*
X198663Y1713D02*
X19853D01*
Y1712D01*
X198597Y171233D01*
X19863D01*
X198663Y1712D01*
Y171133D01*
X19863Y1711D01*
X198563D01*
X19853Y171133D01*
X198063Y137067D02*
X19803Y1371D01*
X197963D01*
X19793Y137067D01*
Y136933D01*
X197963Y1369D01*
X19803D01*
X198063Y136933D01*
X198263Y1371D02*
X198197Y137067D01*
X19813Y137D01*
Y136933D01*
X198163Y1369D01*
X19823D01*
X198263Y136933D01*
Y136967D01*
X19823Y137D01*
X19813D01*
X194163Y171467D02*
X19413Y1715D01*
X194063D01*
X19403Y171467D01*
Y171333D01*
X194063Y1713D01*
X19413D01*
X194163Y171333D01*
X19423Y1715D02*
X194363D01*
Y171467D01*
X19423Y171333D01*
Y1713D01*
X197163Y171267D02*
X19713Y1713D01*
X197063D01*
X19703Y171267D01*
Y171133D01*
X197063Y1711D01*
X19713D01*
X197163Y171133D01*
X19723Y171267D02*
X197263Y1713D01*
X19733D01*
X197363Y171267D01*
Y171233D01*
X19733Y1712D01*
X197363Y171167D01*
Y171133D01*
X19733Y1711D01*
X197263D01*
X19723Y171133D01*
Y171167D01*
X197263Y1712D01*
X19723Y171233D01*
Y171267D01*
X197263Y1712D02*
X19733D01*
X18733Y1515D02*
Y1517D01*
X18743D01*
X187463Y151667D01*
Y1516D01*
X18743Y151567D01*
X18733D01*
X187397D02*
X187463Y1515D01*
X18753Y151667D02*
X187563Y1517D01*
X18763D01*
X187663Y151667D01*
Y151633D01*
X18763Y1516D01*
X187597D01*
X18763D01*
X187663Y151567D01*
Y151533D01*
X18763Y1515D01*
X187563D01*
X18753Y151533D01*
X18733Y1505D02*
Y1507D01*
X18743D01*
X187463Y150667D01*
Y1506D01*
X18743Y150567D01*
X18733D01*
X187397D02*
X187463Y1505D01*
X18763D02*
Y1507D01*
X18753Y1506D01*
X187663D01*
X18903Y1718D02*
Y172D01*
X18913D01*
X189163Y171967D01*
Y1719D01*
X18913Y171867D01*
X18903D01*
X189097D02*
X189163Y1718D01*
X189363Y172D02*
X189297Y171967D01*
X18923Y1719D01*
Y171833D01*
X189263Y1718D01*
X18933D01*
X189363Y171833D01*
Y171867D01*
X18933Y1719D01*
X18923D01*
X18785Y1426D02*
Y1428D01*
X18795D01*
X187983Y142767D01*
Y1427D01*
X18795Y142667D01*
X18785D01*
X187917D02*
X187983Y1426D01*
X18805D02*
X188117D01*
X188083D01*
Y1428D01*
X18805Y142767D01*
X188217D02*
X18825Y1428D01*
X188317D01*
X18835Y142767D01*
Y142633D01*
X188317Y1426D01*
X18825D01*
X188217Y142633D01*
Y142767D01*
X19575Y1509D02*
Y1511D01*
X19585D01*
X195883Y151067D01*
Y151D01*
X19585Y150967D01*
X19575D01*
X195817D02*
X195883Y1509D01*
X19595D02*
X196017D01*
X195983D01*
Y1511D01*
X19595Y151067D01*
X19625Y1509D02*
X196117D01*
X19625Y151033D01*
Y151067D01*
X196217Y1511D01*
X19615D01*
X196117Y151067D01*
X20115Y1369D02*
Y1371D01*
X20125D01*
X201283Y137067D01*
Y137D01*
X20125Y136967D01*
X20115D01*
X201217D02*
X201283Y1369D01*
X20135D02*
X201417D01*
X201383D01*
Y1371D01*
X20135Y137067D01*
X201517D02*
X20155Y1371D01*
X201617D01*
X20165Y137067D01*
Y137033D01*
X201617Y137D01*
X201583D01*
X201617D01*
X20165Y136967D01*
Y136933D01*
X201617Y1369D01*
X20155D01*
X201517Y136933D01*
X19885Y1369D02*
Y1371D01*
X19895D01*
X198983Y137067D01*
Y137D01*
X19895Y136967D01*
X19885D01*
X198917D02*
X198983Y1369D01*
X19905D02*
X199117D01*
X199083D01*
Y1371D01*
X19905Y137067D01*
X19935Y1371D02*
X199283Y137067D01*
X199217Y137D01*
Y136933D01*
X19925Y1369D01*
X199317D01*
X19935Y136933D01*
Y136967D01*
X199317Y137D01*
X199217D01*
X18683Y17054D02*
Y170373D01*
X186863Y17034D01*
X18693D01*
X186963Y170373D01*
Y17054D01*
X18703Y170507D02*
X187063Y17054D01*
X18713D01*
X187163Y170507D01*
Y170473D01*
X18713Y17044D01*
X187097D01*
X18713D01*
X187163Y170407D01*
Y170373D01*
X18713Y17034D01*
X187063D01*
X18703Y170373D01*
X19183Y172D02*
Y171833D01*
X191863Y1718D01*
X19193D01*
X191963Y171833D01*
Y172D01*
X192163D02*
X192097Y171967D01*
X19203Y1719D01*
Y171833D01*
X192063Y1718D01*
X19213D01*
X192163Y171833D01*
Y171867D01*
X19213Y1719D01*
X19203D01*
X18904Y1729D02*
Y1727D01*
X18914D01*
X189173Y172733D01*
Y172867D01*
X18914Y1729D01*
X18904D01*
X189373Y1727D02*
X18924D01*
X189373Y172833D01*
Y172867D01*
X18934Y1729D01*
X189273D01*
X18924Y172867D01*
X18793Y1437D02*
Y1435D01*
X18803D01*
X188063Y143533D01*
Y143667D01*
X18803Y1437D01*
X18793D01*
X18813Y143667D02*
X188163Y1437D01*
X18823D01*
X188263Y143667D01*
Y143633D01*
X18823Y1436D01*
X188197D01*
X18823D01*
X188263Y143567D01*
Y143533D01*
X18823Y1435D01*
X188163D01*
X18813Y143533D01*
X18577Y1378D02*
Y138D01*
X18587D01*
X185903Y137967D01*
Y1379D01*
X18587Y137867D01*
X18577D01*
X18597Y1378D02*
X186037D01*
X186003D01*
Y138D01*
X18597Y137967D01*
X18681Y17244D02*
Y17264D01*
X18691D01*
X186943Y172607D01*
Y17254D01*
X18691Y172507D01*
X18681D01*
X187143Y17244D02*
X18701D01*
X187143Y172573D01*
Y172607D01*
X18711Y17264D01*
X187043D01*
X18701Y172607D01*
X20129Y13511D02*
Y134943D01*
X201323Y13491D01*
X20139D01*
X201423Y134943D01*
Y13511D01*
X20159Y13491D02*
Y13511D01*
X20149Y13501D01*
X201623D01*
X19775Y13511D02*
Y134943D01*
X197783Y13491D01*
X19785D01*
X197883Y134943D01*
Y13511D01*
X19795D02*
X198083D01*
Y135077D01*
X19795Y134943D01*
Y13491D01*
X186205Y15662D02*
Y15682D01*
X186305D01*
X186338Y156787D01*
Y15672D01*
X186305Y156687D01*
X186205D01*
X186405Y156787D02*
X186438Y15682D01*
X186505D01*
X186538Y156787D01*
Y156753D01*
X186505Y15672D01*
X186471D01*
X186505D01*
X186538Y156687D01*
Y156653D01*
X186505Y15662D01*
X186438D01*
X186405Y156653D01*
X19039Y162D02*
Y1622D01*
X19049D01*
X190523Y162167D01*
Y1621D01*
X19049Y162067D01*
X19039D01*
X190457D02*
X190523Y162D01*
X19059Y1622D02*
Y162D01*
X190723D01*
X19079D02*
X190857D01*
X190823D01*
Y1622D01*
X19079Y162167D01*
X197583Y155637D02*
X19755Y15567D01*
X197483D01*
X19745Y155637D01*
Y155503D01*
X197483Y15547D01*
X19755D01*
X197583Y155503D01*
X197683Y15547D02*
X19775D01*
X197783Y155503D01*
Y15557D01*
X19775Y155603D01*
X197683D01*
X19765Y15557D01*
Y155503D01*
X197683Y15547D01*
X19785D02*
Y155603D01*
X19795D01*
X197983Y15557D01*
Y15547D01*
X19805D02*
X198116D01*
X198083D01*
Y15567D01*
X19805Y155637D01*
X19468Y1651D02*
Y1649D01*
X19478D01*
X194813Y164933D01*
Y165067D01*
X19478Y1651D01*
X19468D01*
X19488Y1649D02*
X194947D01*
X194913D01*
Y1651D01*
X19488Y165067D01*
X193298Y158262D02*
Y158462D01*
X193398D01*
X193432Y158428D01*
Y158362D01*
X193398Y158328D01*
X193298D01*
X193365D02*
X193432Y158262D01*
X193632D02*
X193498D01*
X193632Y158395D01*
Y158428D01*
X193598Y158462D01*
X193532D01*
X193498Y158428D01*
X19303Y1555D02*
Y155333D01*
X193063Y1553D01*
X19313D01*
X193163Y155333D01*
Y1555D01*
X193363Y1553D02*
X19323D01*
X193363Y155433D01*
Y155467D01*
X19333Y1555D01*
X193263D01*
X19323Y155467D01*
D50*
X198732Y134771D02*
X198763Y134788D01*
X198811Y134775D01*
X198829Y134745D01*
X198822Y134721D01*
X198792Y134703D01*
X198768Y134709D01*
X198792Y134703D01*
X19881Y134672D01*
X198803Y134648D01*
X198772Y134631D01*
X198724Y134644D01*
X198706Y134674D01*
X197Y13515D02*
X197064Y135133D01*
X197032Y135141D01*
X197084Y135335D01*
X197043Y135311D01*
X202278Y135173D02*
X202299Y135202D01*
X202348Y135211D01*
X202377Y13519D01*
X202381Y135166D01*
X202361Y135137D01*
X202336Y135133D01*
X202361Y135137D01*
X20239Y135117D01*
X202394Y135092D01*
X202374Y135063D01*
X202325Y135054D01*
X202296Y135075D01*
X2006Y13465D02*
X200649Y134659D01*
X200625Y134654D01*
X200599Y134802D01*
X200578Y134773D01*
D51*
X198007Y135367D02*
D03*
D52*
X198028Y135443D02*
D03*
D53*
X201358Y135376D02*
D03*
D54*
X201345Y135453D02*
D03*
M02*
