%FSTAX24Y24*%
%MOIN*%
G70*
G01*
G75*
G04 Layer_Physical_Order=2*
G04 Layer_Color=16711680*
%ADD10O,0.0394X0.0984*%
%ADD11R,0.0394X0.0984*%
%ADD12R,0.0394X0.0512*%
%ADD13R,0.0709X0.0709*%
%ADD14R,0.0472X0.0512*%
%ADD15R,0.1004X0.0374*%
%ADD16R,0.1004X0.1299*%
%ADD17O,0.0945X0.0236*%
%ADD18R,0.0945X0.0236*%
%ADD19R,0.0512X0.0394*%
%ADD20R,0.0630X0.0630*%
%ADD21R,0.0374X0.0315*%
%ADD22R,0.0984X0.0512*%
%ADD23O,0.0906X0.0236*%
%ADD24R,0.0709X0.0709*%
%ADD25R,0.0256X0.0472*%
%ADD26C,0.0100*%
%ADD27C,0.0300*%
%ADD28C,0.0250*%
%ADD29C,0.0400*%
%ADD30C,0.0600*%
%ADD31C,0.0200*%
%ADD32C,0.0080*%
%ADD33C,0.0060*%
%ADD34C,0.2756*%
%ADD35C,0.0709*%
%ADD36C,0.0984*%
%ADD37R,0.0984X0.0984*%
G04:AMPARAMS|DCode=38|XSize=37.4mil|YSize=57.1mil|CornerRadius=0mil|HoleSize=0mil|Usage=FLASHONLY|Rotation=345.000|XOffset=0mil|YOffset=0mil|HoleType=Round|Shape=Round|*
%AMOVALD38*
21,1,0.0197,0.0374,0.0000,0.0000,75.0*
1,1,0.0374,-0.0025,-0.0095*
1,1,0.0374,0.0025,0.0095*
%
%ADD38OVALD38*%

G04:AMPARAMS|DCode=39|XSize=37.4mil|YSize=57.1mil|CornerRadius=0mil|HoleSize=0mil|Usage=FLASHONLY|Rotation=10.000|XOffset=0mil|YOffset=0mil|HoleType=Round|Shape=Round|*
%AMOVALD39*
21,1,0.0197,0.0374,0.0000,0.0000,100.0*
1,1,0.0374,0.0017,-0.0097*
1,1,0.0374,-0.0017,0.0097*
%
%ADD39OVALD39*%

%ADD40R,0.0591X0.0591*%
%ADD41C,0.0591*%
%ADD42R,0.0591X0.0591*%
%ADD43C,0.1800*%
%ADD44C,0.0320*%
%ADD45C,0.0500*%
G36*
X18962Y14482D02*
X19023Y144209D01*
X190313Y144154D01*
X190411Y144134D01*
X190636D01*
X190658Y14409D01*
X190645Y144072D01*
X190595Y143952D01*
X190578Y143822D01*
X190595Y143693D01*
X190624Y143623D01*
X190582Y143595D01*
X189555Y144623D01*
Y144831D01*
X189603Y144845D01*
X18962Y14482D01*
D02*
G37*
G36*
X201443Y147643D02*
X201518Y147586D01*
X201606Y147549D01*
X2017Y147537D01*
X201794Y147549D01*
X201882Y147586D01*
X2019Y1476D01*
X201945Y147578D01*
Y147406D01*
X201694Y147155D01*
X198381D01*
X198362Y147201D01*
X198806Y147645D01*
X201442D01*
X201443Y147643D01*
D02*
G37*
G36*
X191019Y142437D02*
X191102Y142382D01*
X191199Y142363D01*
X197377D01*
X198892Y140848D01*
Y135685D01*
X198488Y135282D01*
X198401Y135293D01*
X1983Y13528D01*
X198236Y135254D01*
X198194Y135308D01*
X198113Y135371D01*
X198065Y13539D01*
X19794Y134924D01*
X197844Y13495D01*
X197969Y135416D01*
X197918Y135423D01*
X197817Y13541D01*
X197753Y135383D01*
X197711Y135438D01*
X19763Y1355D01*
X197536Y135539D01*
X197435Y135552D01*
X197334Y135539D01*
X197239Y1355D01*
X197159Y135438D01*
X197097Y135357D01*
X197058Y135263D01*
X197015Y135106D01*
X196966Y135112D01*
Y140256D01*
X196947Y140353D01*
X196891Y140436D01*
X196809Y140491D01*
X196711Y14051D01*
X194519D01*
X194496Y140555D01*
X19451Y140573D01*
X19456Y140693D01*
X194577Y140822D01*
X19456Y140952D01*
X19451Y141072D01*
X19443Y141176D01*
X194327Y141255D01*
X194206Y141305D01*
X194077Y141322D01*
X193948Y141305D01*
X193827Y141255D01*
X193724Y141176D01*
X193645Y141072D01*
X193602Y14097D01*
X193552D01*
X19351Y141072D01*
X19343Y141176D01*
X193327Y141255D01*
X193206Y141305D01*
X193077Y141322D01*
X192948Y141305D01*
X192827Y141255D01*
X192724Y141176D01*
X192645Y141072D01*
X192602Y14097D01*
X192552D01*
X19251Y141072D01*
X19243Y141176D01*
X192327Y141255D01*
X192206Y141305D01*
X192077Y141322D01*
X191948Y141305D01*
X191827Y141255D01*
X191724Y141176D01*
X191645Y141072D01*
X191621Y141017D01*
X191572Y141026D01*
Y141318D01*
X190582D01*
Y141153D01*
X190536Y141134D01*
X190076Y141593D01*
Y143315D01*
X190122Y143334D01*
X191019Y142437D01*
D02*
G37*
G36*
X199212Y165284D02*
X199165Y165268D01*
X199101Y165351D01*
X199007Y165423D01*
X198897Y165468D01*
X19883Y165477D01*
Y16503D01*
Y164583D01*
X198897Y164592D01*
X199007Y164637D01*
X199101Y164709D01*
X199165Y164792D01*
X199212Y164776D01*
Y153248D01*
Y152067D01*
X199212Y152067D01*
X199212D01*
X199231Y151969D01*
X199287Y151886D01*
X199369Y151831D01*
X199467Y151812D01*
X202362D01*
Y148564D01*
X202315Y148545D01*
X20204Y148821D01*
X202014Y148882D01*
X201957Y148957D01*
X201882Y149014D01*
X201856Y149025D01*
Y149075D01*
X201882Y149086D01*
X201957Y149143D01*
X202014Y149218D01*
X202051Y149306D01*
X202063Y1494D01*
X202051Y149494D01*
X202014Y149582D01*
X201957Y149657D01*
X201882Y149714D01*
X201794Y149751D01*
X2017Y149763D01*
X201698Y149763D01*
X20128Y15018D01*
X201198Y150235D01*
X2011Y150255D01*
X194806D01*
X194763Y150298D01*
X194763Y1503D01*
X194751Y150394D01*
X194714Y150482D01*
X194657Y150557D01*
X194582Y150614D01*
X194494Y150651D01*
X1944Y150663D01*
X194306Y150651D01*
X194218Y150614D01*
X194143Y150557D01*
X194086Y150482D01*
X194049Y150394D01*
X194037Y1503D01*
X194049Y150206D01*
X194086Y150118D01*
X194143Y150043D01*
X194218Y149986D01*
X194306Y149949D01*
X1944Y149937D01*
X194402Y149937D01*
X19452Y14982D01*
X194602Y149765D01*
X1947Y149745D01*
X200994D01*
X201337Y149402D01*
X201337Y1494D01*
X201349Y149306D01*
X201386Y149218D01*
X201443Y149143D01*
X201518Y149086D01*
X201544Y149075D01*
Y149025D01*
X201518Y149014D01*
X201443Y148957D01*
X201386Y148882D01*
X201349Y148794D01*
X201337Y1487D01*
X201349Y148606D01*
X201386Y148518D01*
X201443Y148443D01*
X201518Y148386D01*
X201606Y148349D01*
X2017Y148337D01*
X201791Y148349D01*
X201865Y148274D01*
X201837Y148233D01*
X201794Y148251D01*
X2017Y148263D01*
X201606Y148251D01*
X201518Y148214D01*
X201443Y148157D01*
X201442Y148155D01*
X1987D01*
X198602Y148135D01*
X19852Y14808D01*
X198044Y147605D01*
X192108D01*
X192107Y147607D01*
X192032Y147664D01*
X191944Y147701D01*
X19185Y147713D01*
X191756Y147701D01*
X191668Y147664D01*
X191593Y147607D01*
X191536Y147532D01*
X191499Y147444D01*
X191487Y14735D01*
X191499Y147256D01*
X191536Y147168D01*
X191593Y147093D01*
X191668Y147036D01*
X191756Y146999D01*
X19185Y146987D01*
X191944Y146999D01*
X19199Y147018D01*
X192049Y146994D01*
X192037Y1469D01*
X192049Y146806D01*
X192086Y146718D01*
X192143Y146643D01*
X192218Y146586D01*
X192306Y146549D01*
X1924Y146537D01*
X192494Y146549D01*
X192582Y146586D01*
X192657Y146643D01*
X192658Y146645D01*
X2018D01*
X201898Y146665D01*
X20198Y14672D01*
X202315Y147055D01*
X202362Y147036D01*
Y135099D01*
X202312Y135094D01*
X202295Y135189D01*
X202265Y135286D01*
X20221Y135372D01*
X202183Y135397D01*
Y139372D01*
X202183Y139372D01*
X202183Y139372D01*
Y139372D01*
X202183D01*
X202183Y139372D01*
X202163Y13947D01*
X202108Y139552D01*
X197091Y14457D01*
X197008Y144625D01*
X196911Y144644D01*
X193151D01*
X193129Y144689D01*
X193193Y144773D01*
X193238Y144883D01*
X193247Y14495D01*
X192353D01*
X192362Y144883D01*
X192407Y144773D01*
X192471Y144689D01*
X192449Y144644D01*
X190516D01*
X190055Y145106D01*
Y148D01*
X190035Y148098D01*
X18998Y14818D01*
X18913Y14903D01*
X189048Y149085D01*
X18895Y149105D01*
X188658D01*
X188657Y149107D01*
X188582Y149164D01*
X188494Y149201D01*
X1884Y149213D01*
X188306Y149201D01*
X188218Y149164D01*
X188143Y149107D01*
X188086Y149032D01*
X188049Y148944D01*
X188037Y14885D01*
X188049Y148756D01*
X188086Y148668D01*
X188138Y1486D01*
X188086Y148532D01*
X188049Y148444D01*
X188037Y14835D01*
X188049Y148256D01*
X188086Y148168D01*
X188143Y148093D01*
X188218Y148036D01*
X188306Y147999D01*
X1884Y147987D01*
X188402Y147987D01*
X189045Y147344D01*
Y145969D01*
X188997Y145955D01*
X18898Y14598D01*
X188663Y146298D01*
X188663Y1463D01*
X188651Y146394D01*
X188614Y146482D01*
X188557Y146557D01*
X188482Y146614D01*
X188394Y146651D01*
X1883Y146663D01*
X188206Y146651D01*
X188118Y146614D01*
X188043Y146557D01*
X187986Y146482D01*
X187949Y146394D01*
X187937Y1463D01*
X187949Y146206D01*
X187986Y146118D01*
X188043Y146043D01*
X188118Y145986D01*
X188206Y145949D01*
X1883Y145937D01*
X188302Y145937D01*
X188545Y145694D01*
Y1444D01*
X188545Y1444D01*
X188545D01*
X188564Y144302D01*
X18862Y14422D01*
X189566Y143273D01*
Y141488D01*
X189566Y141488D01*
X189566D01*
X189586Y14139D01*
X189641Y141308D01*
X190405Y140544D01*
X190487Y140489D01*
X190582Y14047D01*
Y140371D01*
X19057Y140353D01*
X190551Y140256D01*
Y134605D01*
X185155D01*
Y1531D01*
X1886D01*
X190491Y154991D01*
X190537Y154972D01*
Y151928D01*
X186349D01*
X186294Y151951D01*
X1862Y151963D01*
X186106Y151951D01*
X186018Y151914D01*
X185943Y151857D01*
X185886Y151782D01*
X185849Y151694D01*
X185837Y1516D01*
X185849Y151506D01*
X185886Y151418D01*
X185943Y151343D01*
X185945Y151342D01*
Y1418D01*
X185945Y1418D01*
X185945D01*
X185965Y141702D01*
X18602Y14162D01*
X186545Y141094D01*
Y140406D01*
X186441Y140302D01*
X186395Y140321D01*
Y140895D01*
X185405D01*
Y139905D01*
X185696D01*
X185706Y139856D01*
X18565Y139833D01*
X185547Y139753D01*
X185467Y13965D01*
X185417Y139529D01*
X1854Y1394D01*
X185417Y139271D01*
X185467Y13915D01*
X185547Y139047D01*
X18565Y138967D01*
X185753Y138925D01*
Y138875D01*
X18565Y138833D01*
X185547Y138753D01*
X185467Y13865D01*
X185417Y138529D01*
X185407Y13845D01*
X186393D01*
X186383Y138529D01*
X186333Y13865D01*
X186253Y138753D01*
X18615Y138833D01*
X186047Y138875D01*
Y138925D01*
X18615Y138967D01*
X186253Y139047D01*
X186329Y139145D01*
X187695D01*
X187709Y139097D01*
X187513Y138977D01*
X187324Y138816D01*
X187163Y138627D01*
X187158Y138619D01*
X187108Y138616D01*
X187077Y138657D01*
X187002Y138714D01*
X186914Y138751D01*
X18687Y138757D01*
Y1384D01*
Y138043D01*
X186861Y138042D01*
X186895Y138005D01*
X18688Y137944D01*
X18686Y137696D01*
X18688Y137449D01*
X186938Y137207D01*
X187033Y136978D01*
X187163Y136766D01*
X187324Y136577D01*
X187513Y136416D01*
X187725Y136286D01*
X187954Y136191D01*
X188196Y136133D01*
X188443Y136114D01*
X188691Y136133D01*
X188932Y136191D01*
X189162Y136286D01*
X189374Y136416D01*
X189563Y136577D01*
X189724Y136766D01*
X189854Y136978D01*
X189949Y137207D01*
X190007Y137449D01*
X190026Y137696D01*
X190007Y137944D01*
X189949Y138186D01*
X189854Y138415D01*
X189724Y138627D01*
X189563Y138816D01*
X189374Y138977D01*
X189162Y139107D01*
X188932Y139202D01*
X188691Y13926D01*
X188443Y139279D01*
D01*
X188443Y139279D01*
D01*
X188433Y139298D01*
X188435Y139302D01*
X188455Y1394D01*
X188435Y139498D01*
X188419Y139522D01*
X188394Y139582D01*
X188337Y139657D01*
X188262Y139714D01*
X188174Y139751D01*
X18808Y139763D01*
X187986Y139751D01*
X187898Y139714D01*
X187823Y139657D01*
X187822Y139655D01*
X186581D01*
X186562Y139701D01*
X18698Y14012D01*
X187036Y140202D01*
X187055Y1403D01*
Y1412D01*
X187036Y141298D01*
X18698Y14138D01*
X186455Y141906D01*
Y151272D01*
X190512D01*
Y150434D01*
X190507Y150427D01*
X190462Y150317D01*
X190446Y1502D01*
X190462Y150083D01*
X190507Y149973D01*
X190579Y149879D01*
X190673Y149807D01*
X190783Y149762D01*
X1909Y149746D01*
X191017Y149762D01*
X191127Y149807D01*
X191221Y149879D01*
X191293Y149973D01*
X191338Y150083D01*
X191354Y1502D01*
X191338Y150317D01*
X191293Y150427D01*
X191221Y150521D01*
X191218Y150523D01*
Y151665D01*
X191206Y151756D01*
X191193Y151788D01*
Y158913D01*
X19123Y158946D01*
X19125Y158943D01*
Y1593D01*
Y159657D01*
X19123Y159654D01*
X191193Y159687D01*
Y162794D01*
X191826Y163427D01*
X194105D01*
X194147Y163432D01*
X194189Y163438D01*
X194229Y163454D01*
X194269Y163471D01*
X194336Y163523D01*
X194336Y163523D01*
X194336Y163523D01*
X197862Y167048D01*
X197885Y167078D01*
X197914Y167116D01*
X197937Y167172D01*
X197947Y167195D01*
X197948Y167205D01*
X197958Y16728D01*
Y16975D01*
X197947Y169835D01*
X197914Y169914D01*
X197885Y169952D01*
X197862Y169982D01*
X196622Y171221D01*
X196554Y171273D01*
X196515Y17129D01*
X196475Y171306D01*
X196433Y171312D01*
X19639Y171317D01*
X194718D01*
X194634Y171306D01*
X194555Y171273D01*
X194516Y171244D01*
X194487Y171221D01*
X193793Y170528D01*
X191141D01*
X191056Y170593D01*
X190946Y170638D01*
X190829Y170654D01*
X190711Y170638D01*
X190602Y170593D01*
X190508Y170521D01*
X190436Y170427D01*
X19039Y170317D01*
X190375Y1702D01*
X19039Y170083D01*
X190436Y169973D01*
X190508Y169879D01*
X190602Y169807D01*
X190711Y169762D01*
X190829Y169746D01*
X190946Y169762D01*
X191056Y169807D01*
X191141Y169872D01*
X193929D01*
X193971Y169878D01*
X194014Y169883D01*
X194053Y1699D01*
X194066Y169905D01*
X194107Y169876D01*
X194106Y169865D01*
X196305D01*
X196295Y169987D01*
X196255Y170156D01*
X196188Y170315D01*
X196098Y170463D01*
X195985Y170595D01*
X195962Y170615D01*
X195979Y170662D01*
X196255D01*
X197302Y169614D01*
Y168589D01*
X197255Y168571D01*
X197235Y168595D01*
X197104Y168707D01*
X196956Y168798D01*
X196796Y168864D01*
X196628Y168904D01*
X196505Y168914D01*
Y167814D01*
Y166715D01*
X196538Y166718D01*
X196559Y166672D01*
X193969Y164082D01*
X19169D01*
X191648Y164077D01*
X191605Y164071D01*
X191566Y164055D01*
X191526Y164039D01*
X191488Y164009D01*
X191458Y163986D01*
X190633Y163161D01*
X190581Y163094D01*
X190565Y163054D01*
X190549Y163016D01*
X1905Y163026D01*
Y164D01*
X189694Y164806D01*
X189726Y164883D01*
X189766Y165052D01*
X189776Y165174D01*
X189326D01*
X189226Y165274D01*
X189776D01*
X189766Y165397D01*
X189726Y165565D01*
X18966Y165725D01*
X189569Y165873D01*
X189457Y166005D01*
X189325Y166117D01*
X189177Y166208D01*
X189018Y166274D01*
X188849Y166314D01*
X188727Y166324D01*
Y165773D01*
X188627Y165873D01*
Y166324D01*
X188504Y166314D01*
X188336Y166274D01*
X188176Y166208D01*
X188028Y166117D01*
X188008Y1661D01*
X187668D01*
X187662Y16615D01*
X187768Y166175D01*
X187927Y166241D01*
X188075Y166332D01*
X188207Y166444D01*
X188319Y166576D01*
X18841Y166723D01*
X188476Y166883D01*
X188516Y167052D01*
X188526Y167174D01*
X186327D01*
X186337Y167052D01*
X186377Y166883D01*
X186443Y166723D01*
X186534Y166576D01*
X186646Y166444D01*
X186778Y166332D01*
X186926Y166241D01*
X187086Y166175D01*
X187191Y16615D01*
X187185Y1661D01*
X185155D01*
Y173465D01*
X194693D01*
X194715Y17342D01*
X194686Y173382D01*
X194649Y173294D01*
X194643Y17325D01*
X195357D01*
X195351Y173294D01*
X195314Y173382D01*
X195257Y173457D01*
X19526Y173465D01*
X199212D01*
Y165284D01*
D02*
G37*
G36*
X201673Y139267D02*
Y135429D01*
X20166Y13542D01*
X201613Y135369D01*
X201552Y135401D01*
X201452Y135423D01*
X201401Y135421D01*
X201485Y134946D01*
X201386Y134929D01*
X201302Y135404D01*
X201253Y135388D01*
X201167Y135333D01*
X201121Y135282D01*
X201059Y135314D01*
X20096Y135336D01*
X200858Y135332D01*
X200761Y135301D01*
X200675Y135247D01*
X200606Y135171D01*
X200559Y135081D01*
X200537Y134982D01*
X200542Y13488D01*
X200576Y134686D01*
X200589Y134645D01*
X200559Y134605D01*
X198766D01*
X198735Y134645D01*
X198778Y134802D01*
X198785Y134857D01*
X199327Y135399D01*
X199382Y135482D01*
X199401Y135579D01*
X199401Y135579D01*
X199401Y135579D01*
Y135579D01*
Y140954D01*
X199401Y140954D01*
X199401Y140954D01*
Y140954D01*
X199401D01*
X199401Y140954D01*
X199382Y141051D01*
X199327Y141134D01*
X197663Y142798D01*
X19758Y142853D01*
X197482Y142873D01*
X191305D01*
X19085Y143327D01*
X190878Y143369D01*
X190948Y14334D01*
X191077Y143323D01*
X191206Y14334D01*
X191327Y14339D01*
X19143Y143469D01*
X19151Y143573D01*
X191552Y143675D01*
X191602D01*
X191645Y143573D01*
X191724Y143469D01*
X191827Y14339D01*
X191948Y14334D01*
X192077Y143323D01*
X192206Y14334D01*
X192327Y14339D01*
X19243Y143469D01*
X19251Y143573D01*
X192552Y143675D01*
X192602D01*
X192645Y143573D01*
X192724Y143469D01*
X192827Y14339D01*
X192948Y14334D01*
X193077Y143323D01*
X193206Y14334D01*
X193327Y14339D01*
X19343Y143469D01*
X19351Y143573D01*
X193552Y143675D01*
X193602D01*
X193645Y143573D01*
X193724Y143469D01*
X193827Y14339D01*
X193948Y14334D01*
X194077Y143323D01*
X194206Y14334D01*
X194327Y14339D01*
X19443Y143469D01*
X19451Y143573D01*
X19456Y143693D01*
X194577Y143822D01*
X19456Y143952D01*
X19451Y144072D01*
X194496Y14409D01*
X194519Y144134D01*
X196805D01*
X201673Y139267D01*
D02*
G37*
%LPC*%
G36*
X19275Y145447D02*
X192683Y145438D01*
X192573Y145393D01*
X192479Y145321D01*
X192407Y145227D01*
X192362Y145117D01*
X192353Y14505D01*
X19275D01*
Y145447D01*
D02*
G37*
G36*
X19703Y146393D02*
X196936Y146381D01*
X196848Y146344D01*
X196773Y146287D01*
X196716Y146212D01*
X196679Y146124D01*
X196667Y14603D01*
X196679Y145936D01*
X196716Y145848D01*
X196773Y145773D01*
X196848Y145716D01*
X196936Y145679D01*
X196955Y145677D01*
X197957Y144675D01*
X197959Y144656D01*
X197996Y144568D01*
X198053Y144493D01*
X198128Y144436D01*
X198216Y144399D01*
X19831Y144387D01*
X198404Y144399D01*
X198492Y144436D01*
X198567Y144493D01*
X198624Y144568D01*
X198661Y144656D01*
X198673Y14475D01*
X198661Y144844D01*
X198624Y144932D01*
X198567Y145007D01*
X198492Y145064D01*
X198404Y145101D01*
X198385Y145103D01*
X197383Y146105D01*
X197381Y146124D01*
X197344Y146212D01*
X197287Y146287D01*
X197212Y146344D01*
X197124Y146381D01*
X19703Y146393D01*
D02*
G37*
G36*
X19285Y145447D02*
Y14505D01*
X193247D01*
X193238Y145117D01*
X193193Y145227D01*
X193121Y145321D01*
X193027Y145393D01*
X192917Y145438D01*
X19285Y145447D01*
D02*
G37*
G36*
X19305Y150747D02*
X192983Y150738D01*
X192873Y150693D01*
X192779Y150621D01*
X192707Y150527D01*
X192662Y150417D01*
X192653Y15035D01*
X19305D01*
Y150747D01*
D02*
G37*
G36*
X19315D02*
Y15035D01*
X193547D01*
X193538Y150417D01*
X193493Y150527D01*
X193421Y150621D01*
X193327Y150693D01*
X193217Y150738D01*
X19315Y150747D01*
D02*
G37*
G36*
X19305Y15025D02*
X192653D01*
X192662Y150183D01*
X192707Y150073D01*
X192779Y149979D01*
X192873Y149907D01*
X192983Y149862D01*
X19305Y149853D01*
Y15025D01*
D02*
G37*
G36*
X193547D02*
X19315D01*
Y149853D01*
X193217Y149862D01*
X193327Y149907D01*
X193421Y149979D01*
X193493Y150073D01*
X193538Y150183D01*
X193547Y15025D01*
D02*
G37*
G36*
X20035Y140157D02*
Y13985D01*
X200657D01*
X200651Y139894D01*
X200614Y139982D01*
X200557Y140057D01*
X200482Y140114D01*
X200394Y140151D01*
X20035Y140157D01*
D02*
G37*
G36*
X19785Y13975D02*
X197543D01*
X197549Y139706D01*
X197586Y139618D01*
X197643Y139543D01*
X197718Y139486D01*
X197806Y139449D01*
X19785Y139443D01*
Y13975D01*
D02*
G37*
G36*
X198257D02*
X19795D01*
Y139443D01*
X197994Y139449D01*
X198082Y139486D01*
X198157Y139543D01*
X198214Y139618D01*
X198251Y139706D01*
X198257Y13975D01*
D02*
G37*
G36*
X18677Y138757D02*
X186726Y138751D01*
X186638Y138714D01*
X186563Y138657D01*
X186506Y138582D01*
X186469Y138494D01*
X186463Y13845D01*
X18677D01*
Y138757D01*
D02*
G37*
G36*
X186393Y13835D02*
X185407D01*
X185417Y138271D01*
X185467Y13815D01*
X185547Y138047D01*
X18565Y137967D01*
X185753Y137925D01*
Y137875D01*
X18565Y137833D01*
X185547Y137753D01*
X185467Y13765D01*
X185417Y137529D01*
X1854Y1374D01*
X185417Y137271D01*
X185467Y13715D01*
X185547Y137047D01*
X18565Y136967D01*
X185753Y136925D01*
Y136875D01*
X18565Y136833D01*
X185547Y136753D01*
X185467Y13665D01*
X185417Y136529D01*
X1854Y1364D01*
X185417Y136271D01*
X185467Y13615D01*
X185547Y136047D01*
X18565Y135967D01*
X185753Y135925D01*
Y135875D01*
X18565Y135833D01*
X185547Y135753D01*
X185467Y13565D01*
X185417Y135529D01*
X1854Y1354D01*
X185417Y135271D01*
X185467Y13515D01*
X185547Y135047D01*
X18565Y134967D01*
X185771Y134917D01*
X1859Y1349D01*
X186029Y134917D01*
X18615Y134967D01*
X186253Y135047D01*
X186333Y13515D01*
X186383Y135271D01*
X1864Y1354D01*
X186383Y135529D01*
X186333Y13565D01*
X186253Y135753D01*
X18615Y135833D01*
X186047Y135875D01*
Y135925D01*
X18615Y135967D01*
X186253Y136047D01*
X186333Y13615D01*
X186383Y136271D01*
X1864Y1364D01*
X186383Y136529D01*
X186333Y13665D01*
X186253Y136753D01*
X18615Y136833D01*
X186047Y136875D01*
Y136925D01*
X18615Y136967D01*
X186253Y137047D01*
X186333Y13715D01*
X186383Y137271D01*
X1864Y1374D01*
X186383Y137529D01*
X186333Y13765D01*
X186253Y137753D01*
X18615Y137833D01*
X186047Y137875D01*
Y137925D01*
X18615Y137967D01*
X186253Y138047D01*
X186333Y13815D01*
X186383Y138271D01*
X186393Y13835D01*
D02*
G37*
G36*
X18677D02*
X186463D01*
X186469Y138306D01*
X186506Y138218D01*
X186563Y138143D01*
X186638Y138086D01*
X186726Y138049D01*
X18677Y138043D01*
Y13835D01*
D02*
G37*
G36*
X19795Y140157D02*
Y13985D01*
X198257D01*
X198251Y139894D01*
X198214Y139982D01*
X198157Y140057D01*
X198082Y140114D01*
X197994Y140151D01*
X19795Y140157D01*
D02*
G37*
G36*
X20025D02*
X200206Y140151D01*
X200118Y140114D01*
X200043Y140057D01*
X199986Y139982D01*
X199949Y139894D01*
X199943Y13985D01*
X20025D01*
Y140157D01*
D02*
G37*
G36*
X19785D02*
X197806Y140151D01*
X197718Y140114D01*
X197643Y140057D01*
X197586Y139982D01*
X197549Y139894D01*
X197543Y13985D01*
X19785D01*
Y140157D01*
D02*
G37*
G36*
X20025Y13975D02*
X199943D01*
X199949Y139706D01*
X199986Y139618D01*
X200043Y139543D01*
X200118Y139486D01*
X200206Y139449D01*
X20025Y139443D01*
Y13975D01*
D02*
G37*
G36*
X200657D02*
X20035D01*
Y139443D01*
X200394Y139449D01*
X200482Y139486D01*
X200557Y139543D01*
X200614Y139618D01*
X200651Y139706D01*
X200657Y13975D01*
D02*
G37*
G36*
X196405Y167765D02*
X195356D01*
X195365Y167642D01*
X195406Y167474D01*
X195472Y167314D01*
X195562Y167166D01*
X195675Y167034D01*
X195807Y166922D01*
X195954Y166831D01*
X196114Y166765D01*
X196283Y166725D01*
X196405Y166715D01*
Y167765D01*
D02*
G37*
G36*
X187377Y168324D02*
X187254Y168314D01*
X187086Y168274D01*
X186926Y168208D01*
X186778Y168117D01*
X186646Y168005D01*
X186534Y167873D01*
X186443Y167725D01*
X186377Y167565D01*
X186337Y167397D01*
X186327Y167274D01*
X187377D01*
Y168324D01*
D02*
G37*
G36*
X193955Y168918D02*
X193783Y168904D01*
X193614Y168864D01*
X193454Y168798D01*
X193307Y168707D01*
X193175Y168595D01*
X193062Y168463D01*
X192972Y168316D01*
X192906Y168156D01*
X192865Y167987D01*
X192852Y167815D01*
X192865Y167642D01*
X192906Y167474D01*
X192972Y167314D01*
X193062Y167166D01*
X193175Y167034D01*
X193307Y166922D01*
X193454Y166831D01*
X193614Y166765D01*
X193783Y166725D01*
X193955Y166711D01*
X194128Y166725D01*
X194296Y166765D01*
X194456Y166831D01*
X194604Y166922D01*
X194735Y167034D01*
X194848Y167166D01*
X194938Y167314D01*
X195005Y167474D01*
X195045Y167642D01*
X195059Y167815D01*
X195045Y167987D01*
X195005Y168156D01*
X194938Y168316D01*
X194848Y168463D01*
X194735Y168595D01*
X194604Y168707D01*
X194456Y168798D01*
X194296Y168864D01*
X194128Y168904D01*
X193955Y168918D01*
D02*
G37*
G36*
X19873Y16498D02*
X198333D01*
X198342Y164913D01*
X198387Y164803D01*
X198459Y164709D01*
X198553Y164637D01*
X198663Y164592D01*
X19873Y164583D01*
Y16498D01*
D02*
G37*
G36*
Y165477D02*
X198663Y165468D01*
X198553Y165423D01*
X198459Y165351D01*
X198387Y165257D01*
X198342Y165147D01*
X198333Y16508D01*
X19873D01*
Y165477D01*
D02*
G37*
G36*
X187477Y168324D02*
Y167274D01*
X188526D01*
X188516Y167397D01*
X188476Y167565D01*
X18841Y167725D01*
X188319Y167873D01*
X188207Y168005D01*
X188075Y168117D01*
X187927Y168208D01*
X187768Y168274D01*
X187599Y168314D01*
X187477Y168324D01*
D02*
G37*
G36*
X187475Y173039D02*
X187346Y173022D01*
X187225Y172972D01*
X187122Y172892D01*
X187042Y172789D01*
X187019Y172733D01*
X18697Y172743D01*
Y173034D01*
X18598D01*
Y172044D01*
X18697D01*
Y172335D01*
X187019Y172345D01*
X187042Y172289D01*
X187122Y172186D01*
X187225Y172106D01*
X187346Y172056D01*
X187475Y172039D01*
X187604Y172056D01*
X187725Y172106D01*
X187828Y172186D01*
X187907Y172289D01*
X187957Y17241D01*
X187974Y172539D01*
X187957Y172668D01*
X187907Y172789D01*
X187828Y172892D01*
X187725Y172972D01*
X187604Y173022D01*
X187475Y173039D01*
D02*
G37*
G36*
X19536Y173175D02*
X195357Y17315D01*
X194643D01*
X194649Y173106D01*
X194654Y173095D01*
X194626Y173053D01*
X1933D01*
X1933Y173053D01*
X193209Y173041D01*
X193123Y173006D01*
X19305Y17295D01*
X192129Y172028D01*
X19108D01*
X190995Y172017D01*
X190939Y171993D01*
X190916Y171984D01*
X190887Y171961D01*
X190848Y171932D01*
X189179Y170262D01*
X189073Y170248D01*
X188963Y170203D01*
X188869Y170131D01*
X188797Y170037D01*
X188752Y169927D01*
X188736Y16981D01*
X188752Y169693D01*
X188797Y169583D01*
X188869Y169489D01*
X188963Y169417D01*
X189073Y169372D01*
X18919Y169356D01*
X189307Y169372D01*
X189417Y169417D01*
X189511Y169489D01*
X189583Y169583D01*
X189628Y169693D01*
X189642Y169799D01*
X191216Y171372D01*
X192177D01*
X192209Y171359D01*
X1923Y171347D01*
X192391Y171359D01*
X192423Y171372D01*
X1927D01*
X192785Y171383D01*
X192864Y171416D01*
X192932Y171468D01*
X192984Y171536D01*
X193017Y171615D01*
X193028Y1717D01*
X193017Y171785D01*
X192984Y171864D01*
X192975Y171876D01*
X193446Y172347D01*
X195221D01*
X195273Y172307D01*
X195383Y172262D01*
X1955Y172246D01*
X195617Y172262D01*
X195727Y172307D01*
X195779Y172347D01*
X196274D01*
X198087Y170534D01*
Y166966D01*
X1973Y16618D01*
X197244Y166107D01*
X197209Y166021D01*
X197197Y16593D01*
Y163906D01*
X19535Y16206D01*
X195294Y161987D01*
X195259Y161901D01*
X195247Y16181D01*
Y161028D01*
X195205Y160995D01*
X195116Y16088D01*
X19506Y160745D01*
X195041Y1606D01*
X19506Y160455D01*
X195116Y16032D01*
X195205Y160205D01*
X19532Y160116D01*
X195455Y16006D01*
X1956Y160041D01*
X195745Y16006D01*
X19588Y160116D01*
X195995Y160205D01*
X196084Y16032D01*
X19614Y160455D01*
X196159Y1606D01*
X19614Y160745D01*
X196084Y16088D01*
X195995Y160995D01*
X195953Y161028D01*
Y161664D01*
X1978Y16351D01*
X197856Y163583D01*
X197891Y163669D01*
X197903Y16376D01*
X197903Y16376D01*
X197903Y16376D01*
Y16376D01*
Y165784D01*
X19869Y16657D01*
X198746Y166643D01*
X198781Y166729D01*
X198793Y16682D01*
Y17068D01*
X198781Y170771D01*
X198746Y170857D01*
X19869Y17093D01*
X19667Y17295D01*
X196597Y173006D01*
X196511Y173041D01*
X19642Y173053D01*
X195779D01*
X195727Y173093D01*
X195617Y173138D01*
X1955Y173154D01*
X195395Y17314D01*
X19536Y173175D01*
D02*
G37*
G36*
X196305Y169765D02*
X195255D01*
Y168715D01*
X195378Y168725D01*
X195546Y168765D01*
X195706Y168831D01*
X195854Y168922D01*
X195985Y169034D01*
X196098Y169166D01*
X196188Y169314D01*
X196255Y169474D01*
X196295Y169642D01*
X196305Y169765D01*
D02*
G37*
G36*
X196405Y168914D02*
X196283Y168904D01*
X196114Y168864D01*
X195954Y168798D01*
X195807Y168707D01*
X195675Y168595D01*
X195562Y168463D01*
X195472Y168316D01*
X195406Y168156D01*
X195365Y167987D01*
X195356Y167865D01*
X196405D01*
Y168914D01*
D02*
G37*
G36*
X195155Y169765D02*
X194106D01*
X194115Y169642D01*
X194156Y169474D01*
X194222Y169314D01*
X194312Y169166D01*
X194425Y169034D01*
X194557Y168922D01*
X194704Y168831D01*
X194864Y168765D01*
X195033Y168725D01*
X195155Y168715D01*
Y169765D01*
D02*
G37*
G36*
X198853Y1555D02*
X19835D01*
Y154997D01*
X198445Y15501D01*
X19858Y155066D01*
X198695Y155155D01*
X198784Y15527D01*
X19884Y155405D01*
X198853Y1555D01*
D02*
G37*
G36*
X19825Y156103D02*
X198155Y15609D01*
X19802Y156034D01*
X197905Y155945D01*
X197816Y15583D01*
X19776Y155695D01*
X197747Y1556D01*
X19825D01*
Y156103D01*
D02*
G37*
G36*
Y1555D02*
X197747D01*
X19776Y155405D01*
X197816Y15527D01*
X197905Y155155D01*
X19802Y155066D01*
X198155Y15501D01*
X19825Y154997D01*
Y1555D01*
D02*
G37*
G36*
X198635Y151595D02*
X197645D01*
Y150605D01*
X198635D01*
Y151595D01*
D02*
G37*
G36*
X196332Y155125D02*
X196187Y155106D01*
X196052Y15505D01*
X195936Y154961D01*
X195847Y154845D01*
X195791Y15471D01*
X195772Y154566D01*
X195791Y154421D01*
X195847Y154286D01*
X195936Y15417D01*
X19603Y154099D01*
Y154049D01*
X195936Y153977D01*
X195847Y153861D01*
X195791Y153726D01*
X195772Y153581D01*
X195791Y153437D01*
X195847Y153302D01*
X195936Y153186D01*
X196052Y153097D01*
X196187Y153041D01*
X196332Y153022D01*
X196476Y153041D01*
X196611Y153097D01*
X196727Y153186D01*
X196816Y153302D01*
X196872Y153437D01*
X196891Y153581D01*
X196872Y153726D01*
X196816Y153861D01*
X196727Y153977D01*
X196611Y154066D01*
Y154082D01*
X196727Y15417D01*
X196816Y154286D01*
X196872Y154421D01*
X196891Y154566D01*
X196872Y15471D01*
X196816Y154845D01*
X196727Y154961D01*
X196611Y15505D01*
X196476Y155106D01*
X196332Y155125D01*
D02*
G37*
G36*
X19835Y156103D02*
Y1556D01*
X198853D01*
X19884Y155695D01*
X198784Y15583D01*
X198695Y155945D01*
X19858Y156034D01*
X198445Y15609D01*
X19835Y156103D01*
D02*
G37*
G36*
X1956Y164159D02*
X195455Y16414D01*
X19532Y164084D01*
X195205Y163995D01*
X195116Y16388D01*
X19506Y163745D01*
X195041Y1636D01*
X19506Y163455D01*
X195116Y16332D01*
X195205Y163205D01*
X19532Y163116D01*
X195455Y16306D01*
X1956Y163041D01*
X195745Y16306D01*
X19588Y163116D01*
X195995Y163205D01*
X196084Y16332D01*
X19614Y163455D01*
X196159Y1636D01*
X19614Y163745D01*
X196084Y16388D01*
X195995Y163995D01*
X19588Y164084D01*
X195745Y16414D01*
X1956Y164159D01*
D02*
G37*
G36*
X189927Y168328D02*
X189754Y168314D01*
X189586Y168274D01*
X189426Y168208D01*
X189278Y168117D01*
X189146Y168005D01*
X189034Y167873D01*
X188943Y167725D01*
X188877Y167565D01*
X188837Y167397D01*
X188823Y167224D01*
X188837Y167052D01*
X188877Y166883D01*
X188943Y166723D01*
X189034Y166576D01*
X189146Y166444D01*
X189278Y166332D01*
X189426Y166241D01*
X189586Y166175D01*
X189754Y166135D01*
X189927Y166121D01*
X190099Y166135D01*
X190268Y166175D01*
X190427Y166241D01*
X190528Y166303D01*
X190566Y16627D01*
X190545Y166219D01*
X190487Y165978D01*
X190467Y16573D01*
X190487Y165482D01*
X190545Y165241D01*
X19064Y165011D01*
X190769Y1648D01*
X190931Y164611D01*
X19112Y164449D01*
X191331Y16432D01*
X191561Y164225D01*
X191802Y164167D01*
X19205Y164147D01*
X192298Y164167D01*
X192539Y164225D01*
X192769Y16432D01*
X19298Y164449D01*
X193169Y164611D01*
X193331Y1648D01*
X19346Y165011D01*
X193555Y165241D01*
X193613Y165482D01*
X193633Y16573D01*
X193613Y165978D01*
X193555Y166219D01*
X19346Y166449D01*
X193331Y16666D01*
X193169Y166849D01*
X19298Y167011D01*
X192769Y16714D01*
X192539Y167235D01*
X192298Y167293D01*
X19205Y167313D01*
X191802Y167293D01*
X191561Y167235D01*
X191331Y16714D01*
X19112Y167011D01*
X191039Y166941D01*
X190996Y166968D01*
X191016Y167052D01*
X19103Y167224D01*
X191016Y167397D01*
X190976Y167565D01*
X19091Y167725D01*
X190819Y167873D01*
X190707Y168005D01*
X190575Y168117D01*
X190427Y168208D01*
X190268Y168274D01*
X190099Y168314D01*
X189927Y168328D01*
D02*
G37*
G36*
X19135Y159657D02*
Y15935D01*
X191657D01*
X191651Y159394D01*
X191614Y159482D01*
X191557Y159557D01*
X191482Y159614D01*
X191394Y159651D01*
X19135Y159657D01*
D02*
G37*
G36*
X196332Y158078D02*
X196187Y158059D01*
X196052Y158003D01*
X195936Y157914D01*
X195847Y157798D01*
X195791Y157663D01*
X195772Y157519D01*
X195791Y157374D01*
X195847Y157239D01*
X195936Y157123D01*
X19603Y157051D01*
Y157001D01*
X195936Y15693D01*
X195847Y156814D01*
X195791Y156679D01*
X195772Y156534D01*
X195791Y15639D01*
X195847Y156255D01*
X195936Y156139D01*
X196052Y15605D01*
X196187Y155994D01*
X196332Y155975D01*
X196476Y155994D01*
X196611Y15605D01*
X196727Y156139D01*
X196816Y156255D01*
X196872Y15639D01*
X196891Y156534D01*
X196872Y156679D01*
X196816Y156814D01*
X196727Y15693D01*
X196611Y157018D01*
Y157034D01*
X196727Y157123D01*
X196816Y157239D01*
X196872Y157374D01*
X196891Y157519D01*
X196872Y157663D01*
X196816Y157798D01*
X196727Y157914D01*
X196611Y158003D01*
X196476Y158059D01*
X196332Y158078D01*
D02*
G37*
G36*
X191657Y15925D02*
X19135D01*
Y158943D01*
X191394Y158949D01*
X191482Y158986D01*
X191557Y159043D01*
X191614Y159118D01*
X191651Y159206D01*
X191657Y15925D01*
D02*
G37*
%LPD*%
D26*
X190585Y140724D02*
X191077D01*
X196911Y144389D02*
X201928Y139372D01*
X190411Y144389D02*
X196911D01*
X1898Y145D02*
X190411Y144389D01*
X191199Y142618D02*
X197482D01*
X1893Y144517D02*
X191199Y142618D01*
X1893Y144517D02*
Y14745D01*
X197482Y142618D02*
X199146Y140954D01*
X1888Y1444D02*
X189821Y143379D01*
Y141488D02*
Y143379D01*
Y141488D02*
X190585Y140724D01*
X196455Y167055D02*
Y167815D01*
X1908Y170171D02*
X190829Y1702D01*
X1859Y1394D02*
X1868Y1403D01*
Y1412D01*
X1862Y1418D02*
X1868Y1412D01*
X1862Y1418D02*
Y1516D01*
X1979Y1352D02*
Y1398D01*
X197892Y135192D02*
X1979Y1352D01*
X197892Y134937D02*
Y135192D01*
X201435Y134937D02*
Y135165D01*
X2003Y1363D02*
X201435Y135165D01*
X2003Y1363D02*
Y1398D01*
X1888Y1444D02*
Y1458D01*
X1883Y1463D02*
X1888Y1458D01*
X201928Y135024D02*
Y139372D01*
X199146Y135579D02*
Y140954D01*
X198375Y134808D02*
X199146Y135579D01*
X1884Y14835D02*
X1893Y14745D01*
X2011Y15D02*
X2017Y1494D01*
X1947Y15D02*
X2011D01*
X1924Y1469D02*
X2018D01*
X1987Y1479D02*
X2017D01*
X19815Y14735D02*
X1987Y1479D01*
X19185Y14735D02*
X19815D01*
X1884Y14885D02*
X18895D01*
X1898Y148D01*
Y145D02*
Y148D01*
X1944Y1503D02*
X1947Y15D01*
X2018Y1469D02*
X2022Y1473D01*
Y1483D01*
X2018Y1487D02*
X2022Y1483D01*
X1859Y1384D02*
X18682D01*
X18808Y1394D02*
X1882D01*
X1859D02*
X18808D01*
X1913Y1593D02*
X19822D01*
X193Y1502D02*
X1931D01*
X190865Y150235D02*
X1909Y1502D01*
D27*
X1933Y1727D02*
X1955D01*
X1923Y1717D02*
X1933Y1727D01*
X1956Y1606D02*
Y16181D01*
X19755Y16376D01*
X1955Y1727D02*
X19642D01*
X19844Y17068D01*
X19755Y16376D02*
Y16593D01*
X19844Y16682D01*
Y17068D01*
X1983Y16455D02*
X19878Y16503D01*
X1983Y15555D02*
Y16455D01*
X190865Y150235D02*
Y151665D01*
D28*
X1862Y1516D02*
X1908D01*
X1923Y145D02*
X1928D01*
X1909Y1464D02*
X1923Y145D01*
X1983Y1538D02*
Y15555D01*
X1967Y1522D02*
X1983Y1538D01*
X1951Y1522D02*
X1967D01*
X1909Y1464D02*
Y1481D01*
X193Y1502D01*
X18919Y16981D02*
X19108Y1717D01*
X190865Y16293D02*
X19169Y163755D01*
X1923Y1717D02*
X1927D01*
X19108D02*
X1923D01*
X19169Y163755D02*
X194105D01*
X19763Y16728D01*
Y16975D01*
X193929Y1702D02*
X194718Y17099D01*
X19639D02*
X19763Y16975D01*
X194718Y17099D02*
X19639D01*
X190829Y1702D02*
X193929D01*
X1931Y1502D02*
X1951Y1522D01*
X190865Y151665D02*
Y16293D01*
D31*
X19703Y14603D02*
X19831Y14475D01*
D34*
X19205Y16573D02*
D03*
X188443Y137696D02*
D03*
D35*
X1956Y1636D02*
D03*
Y1606D02*
D03*
X186899Y1636D02*
D03*
X185639Y1606D02*
D03*
X188159D02*
D03*
X1983Y15555D02*
D03*
X196332Y153581D02*
D03*
Y157519D02*
D03*
Y154566D02*
D03*
Y156534D02*
D03*
D36*
X187655Y156722D02*
D03*
Y1581D02*
D03*
D37*
Y155344D02*
D03*
D38*
X198375Y134808D02*
D03*
X197892Y134937D02*
D03*
X197409Y135067D02*
D03*
D39*
X201928Y135024D02*
D03*
X201435Y134937D02*
D03*
X200943Y134851D02*
D03*
D40*
X186475Y172539D02*
D03*
X19814Y1511D02*
D03*
D41*
X187475Y172539D02*
D03*
X1859Y1394D02*
D03*
Y1384D02*
D03*
Y1374D02*
D03*
Y1364D02*
D03*
Y1354D02*
D03*
X192077Y140822D02*
D03*
X193077D02*
D03*
X194077D02*
D03*
X191077Y143822D02*
D03*
X192077D02*
D03*
X193077D02*
D03*
X194077D02*
D03*
D42*
X1859Y1404D02*
D03*
X191077Y140822D02*
D03*
D43*
X195205Y169815D02*
D03*
X196455Y167815D02*
D03*
X193955D02*
D03*
X189927Y167224D02*
D03*
X187427D02*
D03*
X188677Y165224D02*
D03*
D44*
X195Y1732D02*
D03*
X1913Y1593D02*
D03*
X1862Y1516D02*
D03*
X1979Y1398D02*
D03*
X2003D02*
D03*
X1883Y1463D02*
D03*
X1884Y14885D02*
D03*
Y14835D02*
D03*
X2017Y1494D02*
D03*
Y1487D02*
D03*
Y1479D02*
D03*
X1924Y1469D02*
D03*
X19185Y14735D02*
D03*
X1944Y1503D02*
D03*
X19703Y14603D02*
D03*
X19831Y14475D02*
D03*
X18682Y1384D02*
D03*
X18808Y1394D02*
D03*
D45*
X190829Y1702D02*
D03*
X1909Y1502D02*
D03*
X1928Y145D02*
D03*
X1931Y1503D02*
D03*
X1955Y1727D02*
D03*
X18919Y16981D02*
D03*
X19878Y16503D02*
D03*
M02*
